<svg id="Capa_1" enable-background="new 0 0 512 512" height="512" viewBox="0 0 512 512" width="512" xmlns="http://www.w3.org/2000/svg"><g><g><path d="m407.52 98.84c4.142 0 7.5-3.358 7.5-7.5v-44.01h.59c8.591 0 15.58-6.994 15.58-15.59v-16.16c0-8.591-6.989-15.58-15.58-15.58h-319.22c-8.591 0-15.58 6.989-15.58 15.58v16.16c0 8.596 6.989 15.59 15.58 15.59h.59v275.17c0 4.142 3.358 7.5 7.5 7.5s7.5-3.358 7.5-7.5v-59h35.768c3.866 56.35 50.938 101.016 108.252 101.016s104.386-44.666 108.252-101.016h35.768v201.175h-288.04v-107.175c0-4.142-3.358-7.5-7.5-7.5s-7.5 3.358-7.5 7.5v107.175h-.585c-8.592 0-15.582 6.99-15.582 15.581v16.163c0 8.592 6.99 15.582 15.582 15.582h319.211c8.592 0 15.582-6.99 15.582-15.582v-16.163c0-8.591-6.99-15.581-15.582-15.581h-.585v-338.335c0-4.142-3.358-7.5-7.5-7.5s-7.5 3.358-7.5 7.5v122.16h-35.768c-3.867-56.35-50.938-101.016-108.253-101.016s-104.386 44.666-108.252 101.016h-35.768v-201.17h27.76c4.142 0 7.5-3.358 7.5-7.5s-3.358-7.5-7.5-7.5h-43.35c-.32 0-.58-.265-.58-.59v-16.16c0-.32.26-.58.58-.58h319.22c.32 0 .58.26.58.58v16.16c0 .325-.26.59-.58.59h-240.87c-4.142 0-7.5 3.358-7.5 7.5s3.358 7.5 7.5 7.5h225.28v44.01c0 4.142 3.358 7.5 7.5 7.5zm8.667 381.416v16.163c0 .321-.261.582-.582.582h-319.21c-.321 0-.582-.261-.582-.582v-16.163c0-.32.261-.581.582-.581h319.211c.32 0 .581.261.581.581zm-160.187-317.772c51.565 0 93.516 41.951 93.516 93.516s-41.951 93.516-93.516 93.516-93.516-41.951-93.516-93.516 41.951-93.516 93.516-93.516z"/><path d="m319.64 431.187c8.592 0 15.582-6.99 15.582-15.582v-18.183c0-8.592-6.99-15.582-15.582-15.582h-127.28c-8.592 0-15.582 6.99-15.582 15.582v18.183c0 8.592 6.99 15.582 15.582 15.582zm-127.862-15.582v-18.183c0-.321.261-.582.582-.582h127.28c.321 0 .582.261.582.582v18.183c0 .321-.261.582-.582.582h-127.28c-.321 0-.582-.261-.582-.582z"/><path d="m375.199 96.976h-24.244c-4.142 0-7.5 3.358-7.5 7.5s3.358 7.5 7.5 7.5h24.244c4.142 0 7.5-3.358 7.5-7.5s-3.358-7.5-7.5-7.5z"/><path d="m375.199 64.65h-44.447c-4.142 0-7.5 3.358-7.5 7.5s3.358 7.5 7.5 7.5h44.447c4.142 0 7.5-3.358 7.5-7.5s-3.358-7.5-7.5-7.5z"/><path d="m136.801 96.976c-4.142 0-7.5 3.358-7.5 7.5s3.358 7.5 7.5 7.5h24.244c4.142 0 7.5-3.358 7.5-7.5s-3.358-7.5-7.5-7.5z"/><path d="m188.748 72.15c0-4.142-3.358-7.5-7.5-7.5h-44.447c-4.142 0-7.5 3.358-7.5 7.5s3.358 7.5 7.5 7.5h44.447c4.142 0 7.5-3.358 7.5-7.5z"/><path d="m230.544 306.735c18.06 0 41.885-9.178 56.65-21.823 1.413-1.21 3.429-1.5 5.136-.742l13.495 5.998c5.823 2.588 12.489 2.062 17.833-1.412 5.343-3.472 8.533-9.35 8.533-15.722v-34.151c0-6.355-3.177-12.225-8.499-15.7-5.321-3.475-11.972-4.024-17.791-1.468l-13.711 6.021c-1.699.748-3.702.457-5.101-.737-14.766-12.594-38.547-21.734-56.545-21.734-27.975 0-50.735 22.76-50.735 50.735s22.76 50.735 50.735 50.735zm0-86.47c12.551 0 33.492 6.788 46.811 18.147 5.746 4.9 13.935 6.102 20.866 3.058l13.712-6.022c1.617-.708 2.923-.121 3.559.294.635.415 1.7 1.374 1.7 3.14v34.151c0 1.771-1.069 2.73-1.707 3.145-.637.414-1.947 1.001-3.566.282l-13.496-5.999c-6.964-3.094-15.201-1.896-20.984 3.056-13.314 11.403-34.299 18.216-46.894 18.216-19.704 0-35.735-16.031-35.735-35.735s16.03-35.733 35.734-35.733z"/></g></g></svg>