<svg id="Capa_1" enable-background="new 0 0 512 512" height="512" viewBox="0 0 512 512" width="512" xmlns="http://www.w3.org/2000/svg"><g><g><path d="m494.4 77.781h-133.924v-4.619c0-15.275-12.428-27.703-27.703-27.703h-153.545c-15.275 0-27.703 12.428-27.703 27.703v4.619h-44.525c-4.142 0-7.5 3.358-7.5 7.5s3.358 7.5 7.5 7.5h44.524v96.12h-133.924c-1.434 0-2.6-1.167-2.6-2.6v-90.92c0-1.434 1.167-2.6 2.6-2.6h54.4c4.142 0 7.5-3.358 7.5-7.5s-3.358-7.5-7.5-7.5h-54.4c-9.705 0-17.6 7.896-17.6 17.6v90.92c0 9.705 7.896 17.6 17.6 17.6h133.924v4.623c0 15.275 12.428 27.703 27.703 27.703h54.759c-1.06 2.685-1.65 5.605-1.65 8.663v16.163c0 3.935.971 7.646 2.678 10.915-12.303 2.671-24 7.684-34.533 14.896-3.417 2.34-4.291 7.008-1.951 10.426 2.34 3.417 7.008 4.291 10.426 1.951 45.704-32.159 112.219-8.11 127.04 45.227h-56.335v-18.764c0-13.047-10.615-23.663-23.663-23.663s-23.663 10.615-23.663 23.663v18.764h-56.34c2.328-7.91 5.809-15.404 10.423-22.359 2.29-3.452 1.348-8.106-2.104-10.396-3.453-2.291-8.106-1.348-10.396 2.104-6.27 9.453-10.781 19.745-13.466 30.666-12.775.315-23.072 10.798-23.072 23.648 0 12.855 10.306 23.341 23.089 23.648 10.74 43.677 49.94 74.764 95.529 74.764s84.789-31.087 95.529-74.764c12.783-.307 23.089-10.793 23.089-23.648s-10.306-23.341-23.089-23.648c-9.042-36.799-38.287-64.651-74.545-72.514 1.707-3.268 2.678-6.979 2.678-10.915v-16.163c0-3.057-.589-5.978-1.65-8.663h54.759c15.275 0 27.703-12.428 27.703-27.703v-4.623h52.455c4.142 0 7.5-3.358 7.5-7.5s-3.358-7.5-7.5-7.5h-214.081v-96.118l295.55-.003c1.434 0 2.6 1.167 2.6 2.6v90.92c0 1.434-1.167 2.6-2.6 2.6h-46.47c-4.142 0-7.5 3.358-7.5 7.5s3.358 7.5 7.5 7.5h46.47c9.705 0 17.6-7.896 17.6-17.6v-90.92c.004-9.704-7.892-17.6-17.596-17.6zm-247.063 247.921c0-4.776 3.886-8.663 8.663-8.663s8.663 3.886 8.663 8.663v18.764h-17.325v-18.764zm8.663 125.839c-37.374 0-69.681-24.645-79.996-59.75h56.334v18.764c0 13.047 10.615 23.663 23.663 23.663s23.663-10.615 23.663-23.663v-18.764h56.334c-10.317 35.105-42.624 59.75-79.998 59.75zm8.663-59.749v18.764c0 4.776-3.886 8.663-8.663 8.663s-8.663-3.886-8.663-8.663v-18.764zm94.955-23.663c0 4.776-3.886 8.663-8.663 8.663h-189.91c-4.776 0-8.663-3.886-8.663-8.663s3.886-8.663 8.663-8.663h189.91c4.776.001 8.663 3.887 8.663 8.663zm-94.955-123.24v16.163c0 4.761-3.861 8.635-8.616 8.66-.016 0-.031-.001-.047-.001s-.033.001-.049.001c-4.753-.027-8.613-3.9-8.613-8.66v-16.163c0-4.776 3.886-8.663 8.663-8.663s8.662 3.887 8.662 8.663zm80.813-167.105h-148.065c-7.478 0-13.561 6.083-13.561 13.561v98.996c0 7.478 6.083 13.561 13.561 13.561h148.065v4.622c0 7.004-5.699 12.703-12.703 12.703h-153.545c-7.004 0-12.703-5.699-12.703-12.703v-135.362c0-7.004 5.699-12.703 12.703-12.703h153.545c7.004 0 12.703 5.699 12.703 12.703z"/><path d="m272.163 117.18c-13.047 0-23.663 10.615-23.663 23.663s10.615 23.663 23.663 23.663h64.65c13.047 0 23.663-10.615 23.663-23.663s-10.615-23.663-23.663-23.663zm73.313 23.663c0 4.776-3.886 8.663-8.663 8.663h-64.65c-4.776 0-8.663-3.886-8.663-8.663s3.886-8.663 8.663-8.663h64.65c4.776 0 8.663 3.886 8.663 8.663z"/><path d="m390.352 133.343c-4.142 0-7.5 3.358-7.5 7.5s3.358 7.5 7.5 7.5h10.102c4.142 0 7.5-3.358 7.5-7.5s-3.358-7.5-7.5-7.5z"/><path d="m452.982 148.343c4.142 0 7.5-3.358 7.5-7.5s-3.358-7.5-7.5-7.5h-10.102c-4.142 0-7.5 3.358-7.5 7.5s3.358 7.5 7.5 7.5z"/><path d="m121.648 148.343c4.142 0 7.5-3.358 7.5-7.5s-3.358-7.5-7.5-7.5h-10.102c-4.142 0-7.5 3.358-7.5 7.5s3.358 7.5 7.5 7.5z"/><path d="m59.018 133.343c-4.142 0-7.5 3.358-7.5 7.5s3.358 7.5 7.5 7.5h10.102c4.142 0 7.5-3.358 7.5-7.5s-3.358-7.5-7.5-7.5z"/></g></g></svg>