<svg id="Capa_1" enable-background="new 0 0 512 512" height="512" viewBox="0 0 512 512" width="512" xmlns="http://www.w3.org/2000/svg"><g><g><path d="m497.862 286.33c-10.003-10.003-23.585-14.96-37.296-14.05.915-13.711-4.046-27.293-14.048-37.295-18.851-18.849-49.522-18.849-68.372 0-17.046 17.046-18.676 43.761-4.893 62.657l-7.298 7.299c-2.929 2.929-2.929 7.678 0 10.607 2.929 2.928 7.678 2.929 10.607-.001l12.191-12.191c2.929-2.929 2.929-7.677 0-10.606-13-13.002-13-34.156 0-47.157 13.001-13.002 34.157-13.002 47.157 0 8.858 8.857 11.977 21.797 8.141 33.77-.857 2.676-.147 5.606 1.84 7.592s4.917 2.696 7.593 1.838c11.971-3.836 24.911-.717 33.77 8.143 13.001 13.001 13.001 34.155 0 47.156-6.298 6.298-14.672 9.767-23.579 9.767-8.906 0-17.28-3.469-23.578-9.767-2.929-2.928-7.678-2.928-10.607 0l-70.595 70.595c-2.929 2.93-2.929 7.678 0 10.608 6.298 6.297 9.766 14.672 9.766 23.578 0 8.908-3.469 17.282-9.766 23.579-13.001 13.001-34.155 13.001-47.157.001-8.86-8.86-11.979-21.8-8.142-33.77.857-2.676.148-5.606-1.838-7.593-1.986-1.986-4.915-2.695-7.592-1.84-11.973 3.838-24.914.716-33.772-8.142-6.298-6.297-9.766-14.671-9.766-23.578s3.469-17.281 9.766-23.578c13.002-13.003 34.157-13.002 47.157 0 1.406 1.406 3.314 2.196 5.304 2.196s3.897-.79 5.304-2.196l33.662-33.663c2.929-2.93 2.929-7.678 0-10.608-2.929-2.928-7.678-2.928-10.607 0l-28.769 28.77c-18.897-13.782-45.612-12.152-62.658 4.894-9.132 9.131-14.16 21.272-14.16 34.185 0 12.914 5.029 25.055 14.16 34.185 10.001 10.003 23.581 14.962 37.295 14.049-.915 13.709 4.046 27.293 14.049 37.297 9.425 9.425 21.805 14.137 34.186 14.137s24.761-4.712 34.186-14.137c17.046-17.047 18.677-43.762 4.893-62.658l60.809-60.809c18.897 13.782 45.612 12.152 62.658-4.893 18.85-18.85 18.85-49.522-.001-68.371z"/><ellipse cx="417.825" cy="261.113" rx="6.126" ry="6.126" transform="matrix(.987 -.16 .16 .987 -36.431 70.3)"/><ellipse cx="409.852" cy="306.798" rx="6.126" ry="6.126" transform="matrix(.987 -.16 .16 .987 -43.851 69.612)"/><ellipse cx="440.825" cy="306.798" rx="6.126" ry="6.126" transform="matrix(.707 -.707 .707 .707 -87.825 401.569)"/><path d="m265.232 252.06c65.412 0 118.629-53.217 118.629-118.629s-53.217-118.629-118.629-118.629c-25.098 0-49.084 7.739-69.366 22.381-3.359 2.425-4.116 7.113-1.691 10.471 2.425 3.36 7.114 4.117 10.472 1.692 17.709-12.785 38.659-19.542 60.585-19.542 57.14 0 103.628 46.487 103.628 103.628s-46.487 103.628-103.628 103.628-103.628-46.487-103.628-103.628c0-22.137 6.88-43.251 19.897-61.058 2.445-3.344 1.715-8.037-1.629-10.481-3.344-2.445-8.037-1.716-10.481 1.629-14.908 20.393-22.787 44.569-22.787 69.91-.001 65.411 53.216 118.628 118.628 118.628z"/><path d="m216.705 133.429c0 26.759 21.769 48.528 48.528 48.528 26.758 0 48.528-21.769 48.528-48.528s-21.769-48.528-48.528-48.528-48.528 21.769-48.528 48.528zm48.527-33.527c18.487 0 33.526 15.04 33.526 33.527s-15.04 33.527-33.526 33.527-33.526-15.04-33.526-33.527 15.04-33.527 33.526-33.527z"/><ellipse cx="305.137" cy="70.879" rx="7.577" ry="7.577" transform="matrix(.707 -.707 .707 .707 39.253 236.524)"/><ellipse cx="265.232" cy="59.501" rx="7.577" ry="7.577" transform="matrix(.973 -.23 .23 .973 -6.575 62.53)"/><path d="m193.237 284.423c-8.651 0-16.899 2.604-23.853 7.443l-.076-.076c-2.929-2.928-7.678-2.928-10.607 0-2.929 2.93-2.929 7.678 0 10.608l4.911 4.911c1.407 1.406 3.315 2.196 5.305 2.196s3.898-.791 5.304-2.198c5.079-5.083 11.832-7.882 19.017-7.882 7.184 0 13.937 2.799 19.02 7.886 5.083 5.079 7.882 11.832 7.882 19.016 0 7.183-2.799 13.937-7.887 19.02-7.136 7.142-17.573 9.661-27.241 6.568-2.675-.858-5.603-.145-7.588 1.84-1.986 1.986-2.696 4.914-1.84 7.589 3.092 9.667.576 20.105-6.572 27.245-5.079 5.083-11.832 7.881-19.016 7.881s-13.937-2.798-19.02-7.885c-5.082-5.078-7.882-11.832-7.882-19.016 0-7.183 2.8-13.937 7.882-19.015 1.407-1.406 2.198-3.315 2.199-5.305 0-1.989-.79-3.898-2.197-5.305l-59.464-59.465c-1.406-1.406-3.314-2.196-5.304-2.196-1.989 0-3.897.79-5.304 2.197-10.486 10.485-27.553 10.485-38.047-.001-10.485-10.485-10.485-27.553-.003-38.042 7.154-7.147 17.597-9.66 27.252-6.566 2.674.857 5.605.148 7.592-1.837 1.987-1.986 2.698-4.914 1.842-7.59-3.092-9.666-.575-20.109 6.57-27.253 10.487-10.488 27.55-10.486 38.037-.001 5.084 5.084 7.884 11.842 7.884 19.028 0 7.184-2.8 13.939-7.882 19.018-1.408 1.406-2.198 3.314-2.199 5.304 0 1.989.79 3.898 2.197 5.305l29.812 29.812c2.929 2.928 7.678 2.928 10.607 0 2.929-2.93 2.929-7.678 0-10.608l-24.977-24.976c4.838-6.955 7.443-15.204 7.443-23.854 0-11.192-4.36-21.717-12.278-29.635-16.335-16.335-42.916-16.335-59.251 0-8.345 8.346-12.643 19.572-12.245 31.004-11.43-.408-22.654 3.895-31.01 12.241-16.331 16.343-16.33 42.927.004 59.26 14.531 14.523 37.16 16.13 53.48 4.827l49.802 49.803c-4.839 6.954-7.443 15.202-7.443 23.852 0 11.193 4.361 21.715 12.276 29.624 7.913 7.918 18.434 12.278 29.627 12.278s21.715-4.361 29.622-12.273c8.35-8.341 12.648-19.565 12.248-31.001 11.44.388 22.659-3.898 30.996-12.243 7.919-7.913 12.28-18.435 12.28-29.627 0-11.193-4.361-21.715-12.276-29.623-7.915-7.923-18.437-12.283-29.629-12.283z"/></g></g></svg>