<svg id="Capa_1" enable-background="new 0 0 512 512" height="512" viewBox="0 0 512 512" width="512" xmlns="http://www.w3.org/2000/svg"><g><g><path d="m210.543 235.797c-2.79 0-5.051 2.261-5.051 5.051s2.261 5.051 5.051 5.051c2.789 0 5.051-2.261 5.051-5.051s-2.262-5.051-5.051-5.051z"/><path d="m397.42 162.05c-4.143 0-7.5 3.358-7.5 7.5v324.85c0 1.434-1.166 2.6-2.6 2.6h-262.64c-1.434 0-2.6-1.167-2.6-2.6v-88.11c0-4.142-3.357-7.5-7.5-7.5s-7.5 3.358-7.5 7.5v88.11c0 9.705 7.896 17.6 17.6 17.6h262.64c9.704 0 17.6-7.896 17.6-17.6v-324.85c0-4.142-3.358-7.5-7.5-7.5z"/><path d="m407.52 0h-303.04c-9.71 0-17.61 7.896-17.61 17.6v76.77c0 9.71 7.9 17.61 17.61 17.61h2.6v259.31c0 4.142 3.357 7.5 7.5 7.5s7.5-3.358 7.5-7.5v-259.31h53.11c4.143 0 7.5-3.358 7.5-7.5s-3.357-7.5-7.5-7.5h-70.71c-1.439 0-2.61-1.171-2.61-2.61v-76.77c0-1.434 1.171-2.6 2.61-2.6h54.506l7.183 34.476c1.691 8.119 8.938 14.012 17.232 14.012h145.197c8.294 0 15.541-5.893 17.232-14.012l7.184-34.476h54.506c1.439 0 2.61 1.167 2.61 2.6v76.77c0 1.439-1.171 2.61-2.61 2.61h-197.33c-4.143 0-7.5 3.358-7.5 7.5s3.357 7.5 7.5 7.5h179.73v22.57c0 4.142 3.357 7.5 7.5 7.5s7.5-3.358 7.5-7.5v-22.57h2.6c9.71 0 17.61-7.9 17.61-17.61v-76.77c0-9.704-7.901-17.6-17.61-17.6zm-76.374 46.417c-.25 1.2-1.32 2.071-2.547 2.071h-145.198c-1.227 0-2.297-.871-2.547-2.071l-6.545-31.417h163.382z"/><path d="m256 137.382c-64.292 0-116.598 52.305-116.598 116.597s52.306 116.598 116.598 116.598 116.598-52.306 116.598-116.598-52.306-116.597-116.598-116.597zm0 218.195c-56.021 0-101.598-45.577-101.598-101.598s45.577-101.597 101.598-101.597 101.598 45.576 101.598 101.597-45.577 101.598-101.598 101.598z"/><path d="m325.061 209.771c-6.864-5.069-15.418-6.656-23.602-4.412 1.444-6.67.37-13.679-3.214-19.822-5.045-8.647-14.035-13.81-24.047-13.81h-19.266c-45.442 0-82.766 36.535-83.201 81.442-.214 22.096 8.248 42.929 23.828 58.661 15.583 15.735 36.331 24.401 58.42 24.401h20.219c10.012 0 19.002-5.163 24.047-13.81 3.584-6.143 4.658-13.152 3.214-19.822 8.184 2.245 16.738.657 23.601-4.411 7.1-5.244 11.172-13.313 11.172-22.139v-44.139c-.001-8.826-4.072-16.895-11.171-22.139zm-3.83 66.278c0 4.016-1.853 7.687-5.083 10.073s-7.285 3.077-11.122 1.896l-15.4-4.738c-2.934-.903-6.124.075-8.049 2.468s-2.196 5.718-.686 8.392l4.485 7.934c2.272 4.02 2.239 8.801-.088 12.79s-6.473 6.37-11.091 6.37h-20.219c-18.055 0-35.018-7.087-47.762-19.956-12.741-12.866-19.662-29.898-19.486-47.96.355-36.717 30.95-66.588 68.201-66.588h19.266c4.618 0 8.764 2.381 11.091 6.37s2.36 8.77.088 12.789l-4.485 7.935c-1.511 2.674-1.239 5.999.686 8.392s5.113 3.371 8.05 2.468l15.4-4.739c3.835-1.181 7.891-.49 11.121 1.896s5.083 6.058 5.083 10.073z"/><path d="m231.503 218.676c-2.929 2.929-2.929 7.678.001 10.606 6.597 6.597 10.229 15.368 10.229 24.697s-3.633 18.1-10.229 24.697c-2.93 2.929-2.93 7.677-.001 10.606 1.465 1.465 3.384 2.197 5.304 2.197 1.919 0 3.839-.732 5.304-2.197 9.43-9.43 14.623-21.968 14.623-35.304s-5.193-25.874-14.624-35.303c-2.928-2.927-7.677-2.928-10.607.001z"/><path d="m344.313 419.646v-16.163c0-8.592-6.99-15.582-15.582-15.582h-145.462c-8.592 0-15.582 6.99-15.582 15.582v16.163c0 8.591 6.99 15.581 15.582 15.581h145.463c8.591.001 15.581-6.989 15.581-15.581zm-161.626 0v-16.163c0-.321.261-.582.582-.582h145.463c.321 0 .582.261.582.582v16.163c0 .32-.261.581-.582.581h-145.463c-.322.001-.582-.26-.582-.581z"/><path d="m211.553 452.553c-4.143 0-7.5 3.358-7.5 7.5s3.357 7.5 7.5 7.5h88.895c4.143 0 7.5-3.358 7.5-7.5s-3.357-7.5-7.5-7.5z"/></g></g></svg>