<svg id="Capa_1" enable-background="new 0 0 512 512" height="512" viewBox="0 0 512 512" width="512" xmlns="http://www.w3.org/2000/svg"><g><g><path d="m496.42 285.882h-3.117l-63.432-58.838c-3.037-2.817-7.783-2.638-10.599.398-2.817 3.037-2.639 7.782.398 10.599l51.576 47.841h-124.366c-5.241 0-10.168 2.041-13.873 5.747l-31.623 31.623h-90.768l-31.623-31.623c-3.706-3.707-8.632-5.748-13.874-5.748h-28.31c-4.142 0-7.5 3.358-7.5 7.5s3.358 7.5 7.5 7.5h28.31c1.234 0 2.394.48 3.267 1.354l33.82 33.82c1.406 1.407 3.314 2.197 5.303 2.197h96.98c1.989 0 3.897-.79 5.303-2.197l33.82-33.82c.873-.873 2.032-1.353 3.266-1.353h149.54c.325 0 .58.255.58.58v16.16c0 .32-.26.58-.58.58h-137.068c-4.117 0-8.137 1.671-11.013 4.566l-32.64 32.64c-.114.113-.258.173-.417.173h-118.56c-.159 0-.303-.06-.417-.173l-32.622-32.622c-2.894-2.914-6.915-4.584-11.031-4.584h-137.07c-.32 0-.58-.26-.58-.58v-16.16c0-.325.255-.58.58-.58h86.23c4.142 0 7.5-3.358 7.5-7.5s-3.358-7.5-7.5-7.5h-65.037c13.402-15.974 33.463-25.41 54.407-25.41h19.18c11.336 0 22.404-2.2 32.903-6.542 10.462-4.338 19.841-10.607 27.88-18.635 13.403-13.402 31.223-20.784 50.177-20.784h10.13c17.592 0 34.534-5.304 48.994-15.337l8.811-6.111c13.241-9.186 29.383-13.619 45.458-12.479 16.073 1.139 31.432 7.803 43.247 18.765l16.06 14.9c3.037 2.818 7.782 2.639 10.599-.397 2.817-3.037 2.64-7.782-.397-10.599l-16.06-14.9c-14.312-13.278-32.917-21.351-52.389-22.731-19.47-1.381-39.028 3.989-55.066 15.116l-8.812 6.111c-11.938 8.284-25.924 12.662-40.444 12.662h-10.13c-10.139 0-20.009 1.75-29.269 5.095-2.293-8.847-8.318-16.201-16.284-20.292 2.186-3.6 3.449-7.82 3.449-12.33v-11.774c0-6.459-5.255-11.715-11.715-11.715h-14.64c-18.942 0-34.472 14.867-35.546 33.544-5.135 1.46-9.838 4.201-13.701 8.074-6 5.986-9.304 13.96-9.304 22.452 0 .835.081 1.6.204 2.329-12.426 4.307-21.376 16.123-21.376 29.996 0 .845.074 1.673.204 2.482-20.125 4.311-38.402 15.783-50.931 32.481l-4.52 6.029h-2.312c-8.591 0-15.58 6.989-15.58 15.58v16.16c0 7.146 4.842 13.168 11.412 14.997l25.735 120.107c2.723 12.688 14.117 21.896 27.093 21.896h278.69c4.142 0 7.5-3.358 7.5-7.5s-3.358-7.5-7.5-7.5h-278.69c-5.952 0-11.178-4.224-12.427-10.042l-24.936-116.378h125.773c.149 0 .291.057.407.173l32.64 32.64c2.945 2.945 6.86 4.567 11.023 4.567h118.56c4.164 0 8.079-1.622 11.023-4.567l32.658-32.658c.098-.098.239-.155.389-.155h125.773l-24.936 116.376c-1.249 5.82-6.475 10.044-12.427 10.044h-69.83c-4.142 0-7.5 3.358-7.5 7.5s3.358 7.5 7.5 7.5h69.83c12.976 0 24.371-9.209 27.094-21.899l25.734-120.104c6.57-1.829 11.412-7.851 11.412-14.997v-16.16c0-8.591-6.989-15.58-15.58-15.58zm-343.56-122.386h11.355v8.489c0 4.873-3.964 8.836-8.837 8.836h-22.867c1.578-9.808 10.103-17.325 20.349-17.325zm-38.641 37.224c3.152-3.159 7.354-4.898 11.833-4.898h35.265c8.775 0 15.98 6.788 16.675 15.386-1.061.621-2.106 1.271-3.141 1.939h-64.964c-.32-.001-.579-.261-.579-.581.001-4.48 1.74-8.682 4.911-11.846zm-25.501 44.751c-.321 0-.582-.261-.582-.581 0-9.233 7.511-16.744 16.744-16.744h51.91c-5.753 4.985-12.207 8.998-19.266 11.925-8.666 3.584-17.805 5.401-27.164 5.401h-19.18c-.63 0-1.258.014-1.886.028-.191-.014-.382-.029-.576-.029z"/><path d="m336.249 217.958c0-3.347-2.714-6.061-6.061-6.061s-6.061 2.714-6.061 6.061 2.714 6.061 6.061 6.061c3.348 0 6.061-2.713 6.061-6.061z"/><circle cx="354.364" cy="240.996" r="6.061"/><circle cx="321.823" cy="249.617" r="6.061"/><path d="m251.198 130.03c-3.488 2.907-8.759 7.3-8.759 15.864 0 4.142 3.358 7.5 7.5 7.5s7.5-3.358 7.5-7.5c0-1.267.29-1.78 3.363-4.341 3.488-2.907 8.759-7.3 8.759-15.864s-5.271-12.957-8.759-15.864c-3.073-2.561-3.363-3.075-3.363-4.341s.29-1.779 3.362-4.34c3.488-2.907 8.76-7.299 8.76-15.863s-5.271-12.956-8.76-15.862c-3.073-2.561-3.362-3.073-3.362-4.339s.29-1.779 3.362-4.339c3.488-2.907 8.76-7.299 8.76-15.863 0-4.142-3.358-7.5-7.5-7.5s-7.5 3.358-7.5 7.5c0 1.266-.29 1.779-3.362 4.339-3.488 2.907-8.76 7.299-8.76 15.862s5.271 12.956 8.76 15.863c3.073 2.56 3.362 3.073 3.362 4.339s-.29 1.779-3.362 4.339c-3.488 2.907-8.76 7.299-8.76 15.863s5.271 12.957 8.759 15.864c3.073 2.561 3.363 3.075 3.363 4.341s-.29 1.781-3.363 4.342z"/><path d="m295.276 145.894c0 4.142 3.358 7.5 7.5 7.5s7.5-3.358 7.5-7.5c0-.792 0-.935 1.844-2.779 2.333-2.333 6.237-6.238 6.237-13.386s-3.904-11.053-6.237-13.386c-1.844-1.845-1.844-1.988-1.844-2.78s0-.934 1.844-2.778c2.333-2.333 6.237-6.237 6.237-13.385 0-7.147-3.905-11.052-6.237-13.384-1.844-1.844-1.844-1.987-1.844-2.778 0-.79 0-.932 1.843-2.774 2.333-2.332 6.239-6.236 6.239-13.383 0-4.142-3.358-7.5-7.5-7.5s-7.5 3.358-7.5 7.5c0 .79 0 .932-1.843 2.774-2.333 2.332-6.238 6.236-6.238 13.382 0 7.147 3.905 11.052 6.238 13.385 1.844 1.844 1.844 1.987 1.844 2.778 0 .792 0 .934-1.844 2.778-2.333 2.333-6.237 6.237-6.237 13.385s3.904 11.052 6.237 13.385c1.845 1.845 1.845 1.988 1.845 2.78s0 .935-1.844 2.779c-2.336 2.335-6.24 6.24-6.24 13.387z"/><path d="m193.643 145.894c0 4.142 3.358 7.5 7.5 7.5s7.5-3.358 7.5-7.5c0-.792 0-.935 1.844-2.779 2.333-2.333 6.237-6.238 6.237-13.386s-3.904-11.053-6.237-13.386c-1.844-1.845-1.844-1.988-1.844-2.78s0-.934 1.844-2.778c2.333-2.333 6.237-6.237 6.237-13.385 0-7.147-3.905-11.052-6.237-13.384-1.844-1.844-1.844-1.987-1.844-2.778 0-.79 0-.932 1.843-2.774 2.333-2.332 6.239-6.236 6.239-13.383 0-4.142-3.358-7.5-7.5-7.5s-7.5 3.358-7.5 7.5c0 .79 0 .932-1.843 2.774-2.333 2.332-6.238 6.236-6.238 13.382 0 7.147 3.905 11.052 6.238 13.385 1.844 1.844 1.844 1.987 1.844 2.778 0 .792 0 .934-1.844 2.778-2.333 2.333-6.237 6.237-6.237 13.385s3.904 11.052 6.237 13.385c1.845 1.845 1.845 1.988 1.845 2.78s0 .935-1.844 2.779c-2.336 2.335-6.24 6.24-6.24 13.387z"/></g></g></svg>