<svg id="Capa_1" enable-background="new 0 0 512 512" height="512" viewBox="0 0 512 512" width="512" xmlns="http://www.w3.org/2000/svg"><g><g><path d="m413.59 0h-315.18c-19.729 0-35.78 16.051-35.78 35.78v185.87c0 19.735 16.051 35.79 35.78 35.79h101.602v14.723c0 9.218 7.127 16.79 16.158 17.528v18.839c0 4.142 3.358 7.5 7.5 7.5s7.5-3.358 7.5-7.5v-18.766h49.66v60.79c0 .033-.005.064-.005.097 0 4.189-1.631 8.127-4.594 11.09l-9.141 9.141c-2.963 2.963-6.901 4.594-11.09 4.594s-8.127-1.631-11.09-4.594l-9.141-9.142c-2.962-2.962-4.594-6.9-4.594-11.089 0-.033-.004-.064-.005-.097v-7.025c0-4.142-3.358-7.5-7.5-7.5s-7.5 3.358-7.5 7.5v22.77c0 5.134-.733 10.202-2.183 15.077l-3.085 10.455c-1.866 6.271-2.812 12.777-2.812 19.338v52.92c0 26.418 21.492 47.91 47.91 47.91s47.91-21.492 47.91-47.91v-52.92c0-6.561-.946-13.067-2.807-19.323l-3.095-10.485c-1.446-4.86-2.179-9.928-2.179-15.062v-76.609c9.031-.739 16.158-8.31 16.158-17.528v-14.722h18.952c4.142 0 7.5-3.358 7.5-7.5s-3.358-7.5-7.5-7.5h-232.529c-11.458 0-20.78-9.326-20.78-20.79v-185.87c0-11.458 9.322-20.78 20.78-20.78h315.18c11.458 0 20.78 9.322 20.78 20.78v185.87c0 11.464-9.322 20.79-20.78 20.79h-47.65c-4.142 0-7.5 3.358-7.5 7.5s3.358 7.5 7.5 7.5h47.65c19.729 0 35.78-16.055 35.78-35.79v-185.87c0-19.729-16.051-35.78-35.78-35.78zm-124.68 464.09c0 18.146-14.764 32.91-32.91 32.91s-32.91-14.764-32.91-32.91v-52.92c0-5.111.736-10.179 2.193-15.077l3.086-10.455c.8-2.691 1.42-5.432 1.878-8.204l4.056 4.056c5.796 5.795 13.501 8.987 21.697 8.987s15.9-3.191 21.697-8.987l4.055-4.055c.458 2.769 1.076 5.505 1.874 8.189l3.095 10.485c1.452 4.883 2.188 9.95 2.188 15.062v52.919zm8.078-191.927c0 1.435-1.167 2.602-2.602 2.602h-76.772c-1.435 0-2.602-1.167-2.602-2.602v-14.723h81.976z"/><path d="m159.59 39.83c0-4.142-3.358-7.5-7.5-7.5h-39.53c-9.705 0-17.6 7.896-17.6 17.6v157.58c0 9.705 7.896 17.6 17.6 17.6h286.88c9.705 0 17.6-7.896 17.6-17.6v-157.58c0-9.705-7.896-17.6-17.6-17.6h-212.35c-4.142 0-7.5 3.358-7.5 7.5s3.358 7.5 7.5 7.5h212.35c1.434 0 2.6 1.167 2.6 2.6v157.58c0 1.434-1.167 2.6-2.6 2.6h-286.88c-1.434 0-2.6-1.167-2.6-2.6v-157.58c0-1.434 1.167-2.6 2.6-2.6h39.53c4.142 0 7.5-3.358 7.5-7.5z"/><circle cx="142.862" cy="78.211" r="6.061"/><circle cx="171.146" cy="78.211" r="6.061"/><circle cx="199.431" cy="78.211" r="6.061"/><circle cx="227.715" cy="78.211" r="6.061"/><circle cx="256" cy="78.211" r="6.061"/><circle cx="284.285" cy="78.211" r="6.061"/><circle cx="312.569" cy="78.211" r="6.061"/><circle cx="340.854" cy="78.211" r="6.061"/><circle cx="369.138" cy="78.211" r="6.061"/><circle cx="142.862" cy="111.883" r="6.061"/><circle cx="171.146" cy="111.883" r="6.061"/><circle cx="199.431" cy="111.883" r="6.061"/><circle cx="227.715" cy="111.883" r="6.061"/><circle cx="256" cy="111.883" r="6.061"/><circle cx="284.285" cy="111.883" r="6.061"/><circle cx="312.569" cy="111.883" r="6.061"/><circle cx="340.854" cy="111.883" r="6.061"/><circle cx="369.138" cy="111.883" r="6.061"/><circle cx="142.862" cy="145.556" r="6.061"/><circle cx="171.146" cy="145.556" r="6.061"/><circle cx="199.431" cy="145.556" r="6.061"/><circle cx="227.715" cy="145.556" r="6.061"/><circle cx="256" cy="145.556" r="6.061"/><circle cx="284.285" cy="145.556" r="6.061"/><circle cx="312.569" cy="145.556" r="6.061"/><circle cx="340.854" cy="145.556" r="6.061"/><circle cx="369.138" cy="145.556" r="6.061"/><circle cx="142.862" cy="179.228" r="6.061"/><circle cx="171.146" cy="179.228" r="6.061"/><circle cx="199.431" cy="179.228" r="6.061"/><circle cx="227.715" cy="179.228" r="6.061"/><circle cx="256" cy="179.228" r="6.061"/><circle cx="284.285" cy="179.228" r="6.061"/><circle cx="312.569" cy="179.228" r="6.061"/><circle cx="340.854" cy="179.228" r="6.061"/><circle cx="369.138" cy="179.228" r="6.061"/></g></g></svg>