<svg id="Capa_1" enable-background="new 0 0 512 512" height="512" viewBox="0 0 512 512" width="512" xmlns="http://www.w3.org/2000/svg"><g><g><path d="m342.87 113.14h-18.761v-14.725c0-9.706-7.896-17.602-17.602-17.602h-26.845v-33.483h33.843l9.38 9.372c2.562 2.563 5.968 3.976 9.589 3.976 3.62 0 7.025-1.412 9.587-3.973l14.303-14.292c5.27-5.292 5.265-13.89-.011-19.166l-15.13-15.13c-5.234-5.235-12.192-8.117-19.593-8.117h-24.97c-4.143 0-7.5 3.358-7.5 7.5s3.357 7.5 7.5 7.5h24.97c3.395 0 6.586 1.322 8.986 3.723l14.111 14.111-12.253 12.244-10.563-10.554c-1.406-1.405-3.312-2.194-5.301-2.194h-94.96c-2.311 0-4.486-.903-6.127-2.544-1.633-1.633-2.533-3.809-2.533-6.126 0-4.775 3.885-8.66 8.66-8.66h40.01c4.143 0 7.5-3.358 7.5-7.5s-3.357-7.5-7.5-7.5h-40.01c-13.046 0-23.66 10.614-23.66 23.66 0 6.324 2.46 12.267 6.926 16.732 4.473 4.474 10.416 6.938 16.733 6.938h10.688v33.483h-26.846c-9.706 0-17.602 7.896-17.602 17.602v14.726h-18.76c-17.507 0-31.75 14.238-31.75 31.74v191.099c0 4.142 3.358 7.5 7.5 7.5s7.5-3.358 7.5-7.5v-191.1c0-9.23 7.514-16.74 16.75-16.74h173.74c9.236 0 16.75 7.509 16.75 16.74v102.19c0 4.142 3.357 7.5 7.5 7.5s7.5-3.358 7.5-7.5v-102.19c.001-17.502-14.242-31.74-31.749-31.74zm-95.533-65.81h17.326v33.483h-17.326zm-44.447 51.085c0-1.435 1.167-2.602 2.602-2.602h101.016c1.435 0 2.602 1.167 2.602 2.602v14.726h-106.22z"/><path d="m367.12 274.57c-4.143 0-7.5 3.358-7.5 7.5v198.19c0 9.23-7.514 16.74-16.75 16.74h-173.74c-9.236 0-16.75-7.51-16.75-16.74v-109.28c0-4.142-3.358-7.5-7.5-7.5s-7.5 3.358-7.5 7.5v109.28c0 17.501 14.243 31.74 31.75 31.74h173.74c17.507 0 31.75-14.239 31.75-31.74v-198.19c0-4.142-3.357-7.5-7.5-7.5z"/><path d="m205.063 284.116c0 16.111 13.107 29.219 29.218 29.219h43.438c16.11 0 29.218-13.107 29.218-29.219 0-28.087-22.85-50.937-50.937-50.937s-50.937 22.85-50.937 50.937zm50.937-35.937c19.815 0 35.937 16.121 35.937 35.937 0 7.84-6.378 14.219-14.218 14.219h-43.438c-7.84 0-14.218-6.378-14.218-14.219 0-19.816 16.121-35.937 35.937-35.937z"/><path d="m200.007 241.375c5.103-3.409 6.477-10.309 3.069-15.412-3.409-5.103-10.309-6.477-15.412-3.069s-6.477 10.309-3.069 15.412c3.409 5.103 10.309 6.477 15.412 3.069z"/><ellipse cx="232.654" cy="204.378" rx="11.112" ry="11.112" transform="matrix(.855 -.519 .519 .855 -72.284 150.423)"/><path d="m327.405 238.306c3.409-5.103 2.035-12.003-3.068-15.412s-12.003-2.035-15.412 3.069c-3.409 5.103-2.035 12.003 3.069 15.412 5.102 3.408 12.002 2.034 15.411-3.069z"/><ellipse cx="279.346" cy="204.378" rx="11.112" ry="11.112" transform="matrix(.748 -.664 .664 .748 -65.242 236.99)"/><path d="m176.778 361.562v18.183c0 8.591 6.99 15.581 15.582 15.581h127.281c8.592 0 15.581-6.99 15.581-15.581v-18.183c0-8.592-6.989-15.582-15.581-15.582h-127.281c-8.592 0-15.582 6.99-15.582 15.582zm15 0c0-.321.261-.582.582-.582h127.281c.32 0 .581.261.581.582v18.183c0 .32-.261.581-.581.581h-127.281c-.321 0-.582-.261-.582-.581z"/><path d="m325.12 420.151c0-4.142-3.357-7.5-7.5-7.5h-123.24c-4.142 0-7.5 3.358-7.5 7.5s3.358 7.5 7.5 7.5h123.24c4.143 0 7.5-3.358 7.5-7.5z"/><path d="m214.583 444.977c-4.142 0-7.5 3.358-7.5 7.5s3.358 7.5 7.5 7.5h82.833c4.143 0 7.5-3.358 7.5-7.5s-3.357-7.5-7.5-7.5z"/></g></g></svg>