<svg id="Capa_1" enable-background="new 0 0 512 512" height="512" viewBox="0 0 512 512" width="512" xmlns="http://www.w3.org/2000/svg"><g><g><path d="m279.663 211.552v-66.67c0-13.048-10.615-23.663-23.663-23.663s-23.663 10.615-23.663 23.663v66.67c0 13.047 10.615 23.663 23.663 23.663s23.663-10.616 23.663-23.663zm-32.326 0v-66.67c0-4.776 3.886-8.663 8.663-8.663s8.663 3.886 8.663 8.663v66.67c0 4.776-3.886 8.663-8.663 8.663s-8.663-3.887-8.663-8.663z"/><path d="m344.313 211.552v-66.67c0-13.048-10.615-23.663-23.663-23.663s-23.663 10.615-23.663 23.663v66.67c0 13.047 10.615 23.663 23.663 23.663s23.663-10.616 23.663-23.663zm-32.325 0v-66.67c0-4.776 3.886-8.663 8.663-8.663s8.663 3.886 8.663 8.663v66.67c0 4.776-3.886 8.663-8.663 8.663s-8.663-3.887-8.663-8.663z"/><path d="m215.012 211.552v-66.67c0-13.048-10.615-23.663-23.663-23.663s-23.663 10.615-23.663 23.663v66.67c0 13.047 10.615 23.663 23.663 23.663s23.663-10.616 23.663-23.663zm-32.325 0v-66.67c0-4.776 3.886-8.663 8.663-8.663s8.663 3.886 8.663 8.663v66.67c0 4.776-3.886 8.663-8.663 8.663s-8.663-3.887-8.663-8.663z"/><path d="m512 268.121c0-8.592-6.99-15.582-15.582-15.582h-1.686l-22.527-140.327c-2.165-13.514-13.669-23.323-27.355-23.323h-93.466v-38.963c0-18.618-15.146-33.764-33.764-33.764h-123.24c-18.618 0-33.764 15.146-33.764 33.764v38.963h-23.988c-4.142 0-7.5 3.358-7.5 7.5s3.358 7.5 7.5 7.5h308.222c6.276 0 11.551 4.499 12.544 10.699l22.145 137.952h-37.241v-.581c0-8.592-6.99-15.582-15.582-15.582h-16.163c-8.591 0-15.581 6.99-15.581 15.582v.581h-277.946v-.581c0-8.592-6.99-15.582-15.581-15.582h-16.162c-8.592 0-15.582 6.99-15.582 15.582v.581h-37.241l22.146-137.954c.993-6.198 6.268-10.696 12.544-10.696h34.478c4.142 0 7.5-3.358 7.5-7.5s-3.358-7.5-7.5-7.5h-34.478c-13.686 0-25.19 9.809-27.355 23.321l-22.527 140.328h-1.688c-8.591 0-15.58 6.989-15.58 15.58v16.16c0 2.963.846 5.726 2.286 8.088-1.44 2.36-2.286 5.121-2.286 8.082v16.16c0 8.591 6.989 15.58 15.58 15.58h1.688l22.527 140.337c2.166 13.508 13.67 23.312 27.355 23.312h60.25c4.142 0 7.5-3.358 7.5-7.5s-3.358-7.5-7.5-7.5h-60.25c-6.276 0-11.551-4.495-12.544-10.688l-22.146-137.961h37.241v.583c0 8.591 6.99 15.581 15.582 15.581h16.163c8.591 0 15.581-6.99 15.581-15.581v-.583h277.947v.583c0 8.591 6.99 15.581 15.581 15.581h16.163c8.592 0 15.582-6.99 15.582-15.581v-.582h37.241l-22.145 137.961c-.993 6.193-6.269 10.688-12.544 10.688h-282.452c-4.142 0-7.5 3.358-7.5 7.5s3.358 7.5 7.5 7.5h282.45c13.685 0 25.189-9.804 27.355-23.312l22.527-140.337h1.687c8.592 0 15.582-6.99 15.582-15.581v-16.163c0-2.961-.845-5.722-2.285-8.082 1.44-2.36 2.285-5.12 2.285-8.081v-16.162zm-336.384-218.195c0-10.347 8.417-18.764 18.764-18.764h123.24c10.347 0 18.764 8.417 18.764 18.764v38.963h-17.325v-28.862c0-6.363-5.177-11.541-11.541-11.541h-103.036c-6.364 0-11.541 5.177-11.541 11.541v28.862h-17.325zm128.443 38.963h-96.118v-25.402h96.118zm192.359 178.65c.321 0 .582.261.582.582v16.163c0 .32-.261.581-.582.581h-54.12v-17.325h54.12zm-481.418.58c0-.32.26-.58.58-.58h54.121v17.33h-54.121c-.32 0-.58-.265-.58-.59zm.58 49.07c-.32 0-.58-.26-.58-.58v-16.16c0-.325.255-.58.58-.58h54.121v17.32zm86.446 15.582c0 .32-.261.581-.581.581h-16.162c-.321 0-.582-.261-.582-.581v-80.813c0-.321.261-.582.582-.582h16.163c.32 0 .581.261.581.582v80.813zm15-15.582v-17.32h214.904c4.142 0 7.5-3.358 7.5-7.5s-3.358-7.5-7.5-7.5h-214.904v-17.33h277.947v17.33h-28.043c-4.142 0-7.5 3.358-7.5 7.5s3.358 7.5 7.5 7.5h28.043v17.32zm310.273 15.582c0 .32-.261.581-.582.581h-16.163c-.32 0-.581-.261-.581-.581v-80.813c0-.321.261-.582.581-.582h16.163c.321 0 .582.261.582.582zm69.701-16.162c0 .32-.261.581-.582.581h-54.12v-17.325h54.12c.321 0 .582.261.582.582z"/></g></g></svg>