<svg id="Capa_1" enable-background="new 0 0 512 512" height="512" viewBox="0 0 512 512" width="512" xmlns="http://www.w3.org/2000/svg"><g><g><path d="m315.663 497h-275.742c-1.105 0-1.74-.644-2.02-1.026-.28-.384-.699-1.184-.361-2.236l8.069-25.188h264.268c4.142 0 7.5-3.357 7.5-7.5s-3.358-7.5-7.5-7.5h-262.241v-17.708c0-3.734-.367-7.484-1.09-11.144l-15.558-78.758c-11.789-59.68-11.789-120.199 0-179.879l15.558-78.758c.724-3.661 1.091-7.41 1.091-11.144v-17.708h340.883v17.708c0 3.73.367 7.479 1.09 11.143l15.558 78.759c3.23 16.354 5.602 33.067 7.048 49.676.359 4.127 4.004 7.181 8.123 6.821 4.126-.359 7.18-3.996 6.821-8.122-1.493-17.146-3.941-34.399-7.276-51.281l-15.558-78.759c-.535-2.708-.806-5.479-.806-8.236v-24.036l9.381-29.285c1.724-5.383.802-11.088-2.529-15.654-3.333-4.566-8.486-7.185-14.138-7.185h-235.786c-4.142 0-7.5 3.357-7.5 7.5s3.358 7.5 7.5 7.5h235.786c1.105 0 1.739.643 2.019 1.026s.699 1.184.361 2.236l-8.068 25.188h-344.937l-8.069-25.187c-.337-1.053.082-1.854.361-2.236.28-.384.915-1.027 2.02-1.027h84.909c4.142 0 7.5-3.357 7.5-7.5s-3.358-7.5-7.5-7.5h-84.909c-5.652 0-10.805 2.619-14.136 7.185-3.332 4.566-4.253 10.271-2.529 15.654l9.381 29.285v24.036c0 2.759-.271 5.53-.806 8.236l-15.558 78.759c-12.169 61.607-12.169 124.084 0 185.691l15.559 78.759c.535 2.705.806 5.477.806 8.236v24.036l-9.381 29.285c-1.724 5.383-.802 11.088 2.529 15.654 3.332 4.565 8.484 7.185 14.137 7.185h275.742c4.142 0 7.5-3.357 7.5-7.5s-3.36-7.501-7.502-7.501z"/><path d="m461.555 418.042v-87.83c24.197-1.919 43.3-22.223 43.3-46.904 0-25.945-21.108-47.054-47.054-47.054-14.769 0-28.437 6.975-37.202 18.257-8.765-11.282-22.434-18.257-37.203-18.257-25.945 0-47.053 21.108-47.053 47.054 0 24.682 19.103 44.985 43.299 46.904v87.83c-24.197 1.919-43.299 22.223-43.299 46.904 0 25.945 21.108 47.054 47.053 47.054 14.769 0 28.438-6.975 37.203-18.257 8.766 11.282 22.434 18.257 37.203 18.257 25.945 0 47.054-21.108 47.054-47.054-.001-24.681-19.104-44.985-43.301-46.904zm-3.753 78.958c-13.457 0-25.573-8.499-30.149-21.149-1.074-2.971-3.895-4.949-7.053-4.949s-5.979 1.979-7.053 4.949c-4.576 12.65-16.692 21.149-30.15 21.149-17.674 0-32.053-14.379-32.053-32.054 0-17.674 14.379-32.053 32.053-32.053.973 0 1.996.05 3.042.148 2.099.2 4.19-.499 5.752-1.92 1.562-1.422 2.452-3.436 2.452-5.547v-102.895c0-2.11-.889-4.123-2.449-5.545-1.561-1.421-3.649-2.118-5.749-1.923-1.074.101-2.071.149-3.048.149-17.674 0-32.053-14.379-32.053-32.053 0-17.675 14.379-32.054 32.053-32.054 13.458 0 25.574 8.499 30.15 21.149 1.074 2.971 3.895 4.949 7.053 4.949s5.979-1.979 7.053-4.949c4.576-12.65 16.692-21.149 30.149-21.149 17.674 0 32.054 14.379 32.054 32.054 0 17.674-14.379 32.053-32.054 32.053-.977 0-1.974-.049-3.049-.149-2.102-.195-4.188.502-5.748 1.924-1.56 1.421-2.449 3.434-2.449 5.544v102.896c0 2.111.89 4.125 2.452 5.546 1.561 1.422 3.65 2.123 5.751 1.921 1.047-.099 2.071-.148 3.043-.148 17.674 0 32.054 14.379 32.054 32.053-.001 17.674-14.38 32.053-32.054 32.053z"/><path d="m161.81 323.734 1.104.821c8.759 6.524 19.84 8.669 30.401 5.884l21.719-5.726c1.99-.525 4.095-.524 6.083-.001l21.72 5.727c3.032.8 6.106 1.192 9.157 1.192 7.575 0 15-2.425 21.243-7.074l1.107-.824c14.828-11.043 18.734-31.952 8.892-47.603l-18.807-29.905c-7.643-12.153-20.777-19.409-35.133-19.409h-22.44c-14.356 0-27.49 7.256-35.133 19.408l-18.807 29.906c-9.84 15.651-5.935 36.56 8.894 47.604zm3.806-39.619 18.807-29.905c4.88-7.761 13.268-12.394 22.435-12.394h22.44c9.167 0 17.555 4.633 22.435 12.395l18.807 29.904c5.704 9.07 3.44 21.188-5.152 27.586l-1.107.825c-5.076 3.78-11.496 5.021-17.617 3.409l-21.721-5.728c-2.246-.591-4.554-.887-6.864-.887s-4.62.296-6.866.888l-21.72 5.727c-6.121 1.611-12.542.37-17.619-3.411l-1.105-.822c-8.594-6.399-10.858-18.516-5.153-27.587z"/><path d="m178.16 219.629c16.082 0 29.166-13.083 29.166-29.165s-13.083-29.166-29.166-29.166-29.166 13.084-29.166 29.166 13.084 29.165 29.166 29.165zm0-43.331c7.811 0 14.166 6.354 14.166 14.166 0 7.811-6.354 14.165-14.166 14.165s-14.166-6.354-14.166-14.165c0-7.812 6.355-14.166 14.166-14.166z"/><path d="m257.995 161.298c-16.082 0-29.166 13.084-29.166 29.166s13.083 29.165 29.166 29.165 29.166-13.083 29.166-29.165-13.084-29.166-29.166-29.166zm0 43.331c-7.811 0-14.166-6.354-14.166-14.165 0-7.812 6.354-14.166 14.166-14.166s14.166 6.354 14.166 14.166c-.001 7.81-6.355 14.165-14.166 14.165z"/><path d="m128.894 218.603c-13.911 0-25.228 11.317-25.228 25.229 0 13.91 11.317 25.228 25.228 25.228s25.228-11.317 25.228-25.228c0-13.912-11.317-25.229-25.228-25.229zm0 35.456c-5.64 0-10.228-4.588-10.228-10.228s4.588-10.229 10.228-10.229 10.228 4.589 10.228 10.229-4.588 10.228-10.228 10.228z"/><path d="m307.261 218.603c-13.911 0-25.228 11.317-25.228 25.229 0 13.91 11.317 25.228 25.228 25.228s25.228-11.317 25.228-25.228c0-13.912-11.317-25.229-25.228-25.229zm0 35.456c-5.64 0-10.228-4.588-10.228-10.228s4.588-10.229 10.228-10.229 10.228 4.589 10.228 10.229-4.588 10.228-10.228 10.228z"/></g></g></svg>