<svg id="Capa_1" enable-background="new 0 0 512 512" height="512" viewBox="0 0 512 512" width="512" xmlns="http://www.w3.org/2000/svg"><g><path d="m393.966 335.986c0 26.416 21.49 47.906 47.906 47.906s47.906-21.49 47.906-47.906-21.49-47.906-47.906-47.906c-1.857 0-3.687.117-5.49.324l-59.383-212.794h30.522c20.849 0 37.811-16.962 37.811-37.811v-20.199c0-9.704-7.896-17.6-17.6-17.6h-55.28c-4.143 0-7.5 3.357-7.5 7.5s3.357 7.5 7.5 7.5h55.28c1.434 0 2.6 1.166 2.6 2.6v20.2c0 12.578-10.232 22.811-22.811 22.811h-303.04c-12.578 0-22.81-10.232-22.81-22.811v-20.2c0-1.434 1.167-2.6 2.6-2.6h253.18c4.143 0 7.5-3.357 7.5-7.5s-3.357-7.5-7.5-7.5h-253.179c-9.705 0-17.6 7.896-17.6 17.6v20.2c0 20.849 16.961 37.811 37.81 37.811h30.522l-59.382 212.79c-1.803-.204-3.633-.321-5.49-.321-26.417 0-47.91 21.492-47.91 47.91 0 26.412 21.492 47.899 47.91 47.899 12.835 0 24.887-5.003 33.934-14.087 2.923-2.936 2.914-7.684-.021-10.607-2.935-2.922-7.683-2.912-10.606.021-6.212 6.237-14.489 9.673-23.306 9.673-18.146 0-32.91-14.759-32.91-32.899 0-18.146 14.763-32.91 32.91-32.91 16.999 0 31.077 12.733 32.747 29.618.407 4.122 4.08 7.125 8.201 6.726 4.122-.408 7.133-4.08 6.726-8.202-1.733-17.526-12.642-31.974-27.722-38.836l60.492-216.776h44.31c-1.251 2.946-1.944 6.183-1.944 9.58 0 6.632 2.645 12.655 6.929 17.081-4.284 4.426-6.929 10.449-6.929 17.081s2.645 12.655 6.929 17.081c-4.284 4.426-6.929 10.449-6.929 17.081s2.645 12.655 6.929 17.081c-4.284 4.426-6.929 10.449-6.929 17.081s2.645 12.654 6.929 17.08c-4.284 4.426-6.929 10.449-6.929 17.081s2.645 12.655 6.929 17.081c-4.284 4.426-6.929 10.449-6.929 17.081s2.645 12.655 6.929 17.081c-4.284 4.426-6.929 10.449-6.929 17.081s2.645 12.655 6.929 17.081c-4.284 4.426-6.929 10.449-6.929 17.081s2.645 12.654 6.929 17.08c-4.284 4.426-6.929 10.449-6.929 17.081s2.645 12.655 6.929 17.081c-4.284 4.426-6.929 10.449-6.929 17.081s2.645 12.655 6.929 17.081c-4.284 4.426-6.929 10.449-6.929 17.081 0 3.397.693 6.635 1.944 9.58h-32.505c-4.142 0-7.5 3.357-7.5 7.5s3.358 7.5 7.5 7.5h245.14c12.578 0 22.811 10.232 22.811 22.811v20.2c0 1.434-1.166 2.6-2.6 2.6h-343.461c-1.434 0-2.6-1.166-2.6-2.6v-20.2c0-12.578 10.232-22.811 22.81-22.811h22.9c4.142 0 7.5-3.357 7.5-7.5s-3.358-7.5-7.5-7.5h-22.9c-20.849 0-37.81 16.962-37.81 37.811v20.2c0 9.704 7.896 17.6 17.6 17.6h343.46c9.704 0 17.6-7.896 17.6-17.6v-20.2c0-20.849-16.962-37.811-37.811-37.811h-90.405c1.251-2.946 1.944-6.183 1.944-9.58 0-6.632-2.645-12.655-6.929-17.081 4.285-4.426 6.929-10.449 6.929-17.081s-2.645-12.655-6.929-17.081c4.285-4.426 6.929-10.449 6.929-17.081s-2.645-12.655-6.929-17.081c4.285-4.426 6.929-10.449 6.929-17.081s-2.645-12.654-6.929-17.08c4.284-4.426 6.929-10.449 6.929-17.081s-2.645-12.655-6.929-17.081c4.285-4.426 6.929-10.449 6.929-17.081s-2.645-12.655-6.929-17.081c4.285-4.426 6.929-10.449 6.929-17.081s-2.645-12.655-6.929-17.081c4.285-4.426 6.929-10.449 6.929-17.081s-2.645-12.654-6.929-17.08c4.284-4.426 6.929-10.449 6.929-17.081s-2.645-12.655-6.929-17.081c4.285-4.426 6.929-10.449 6.929-17.081s-2.645-12.655-6.929-17.081c4.285-4.426 6.929-10.449 6.929-17.081 0-3.397-.693-6.635-1.944-9.58h44.311l60.51 216.832c-16.489 7.579-27.971 24.24-27.971 43.544zm-89.906-216.633c0 5.283-4.298 9.581-9.581 9.581h-76.956c-5.283 0-9.581-4.298-9.581-9.581s4.298-9.581 9.581-9.581h76.956c5.283-.001 9.581 4.297 9.581 9.581zm0 34.162c0 5.283-4.298 9.581-9.581 9.581h-76.956c-5.283 0-9.581-4.298-9.581-9.581s4.298-9.581 9.581-9.581h76.956c5.283 0 9.581 4.297 9.581 9.581zm0 34.162c0 5.282-4.298 9.58-9.581 9.58h-76.956c-5.283 0-9.581-4.298-9.581-9.58v-.001c0-5.282 4.298-9.58 9.581-9.58h76.956c5.283 0 9.581 4.298 9.581 9.581zm0 34.161c0 5.283-4.298 9.581-9.581 9.581h-76.956c-5.283 0-9.581-4.298-9.581-9.581s4.298-9.581 9.581-9.581h76.956c5.283 0 9.581 4.298 9.581 9.581zm0 34.162c0 5.283-4.298 9.581-9.581 9.581h-76.956c-5.283 0-9.581-4.298-9.581-9.581s4.298-9.581 9.581-9.581h76.956c5.283 0 9.581 4.298 9.581 9.581zm0 34.162c0 5.283-4.298 9.581-9.581 9.581h-76.956c-5.283 0-9.581-4.298-9.581-9.581s4.298-9.581 9.581-9.581h76.956c5.283 0 9.581 4.298 9.581 9.581zm0 34.162c0 5.282-4.298 9.58-9.581 9.58h-76.956c-5.283 0-9.581-4.298-9.581-9.58v-.001c0-5.282 4.298-9.58 9.581-9.58h76.956c5.283 0 9.581 4.298 9.581 9.581zm0 34.161c0 5.283-4.298 9.581-9.581 9.581h-76.956c-5.283 0-9.581-4.298-9.581-9.581s4.298-9.581 9.581-9.581h76.956c5.283 0 9.581 4.298 9.581 9.581zm0 34.162c0 5.283-4.298 9.581-9.581 9.581h-76.956c-5.283 0-9.581-4.298-9.581-9.581s4.298-9.581 9.581-9.581h76.956c5.283 0 9.581 4.298 9.581 9.581zm-86.556 43.743c-5.274-.011-9.562-4.303-9.562-9.58 0-5.283 4.298-9.581 9.581-9.581h76.956c5.283 0 9.581 4.298 9.581 9.581 0 5.277-4.288 9.569-9.562 9.58zm86.556-351.2c0 5.283-4.298 9.581-9.581 9.581h-76.956c-5.283 0-9.581-4.298-9.581-9.581 0-5.277 4.288-9.569 9.562-9.58h76.994c5.275.011 9.562 4.304 9.562 9.58zm137.812 217.89c18.145 0 32.906 14.762 32.906 32.906s-14.762 32.906-32.906 32.906-32.906-14.762-32.906-32.906 14.761-32.906 32.906-32.906z"/></g></svg>