<svg id="Capa_1" enable-background="new 0 0 512 512" height="512" viewBox="0 0 512 512" width="512" xmlns="http://www.w3.org/2000/svg"><g><g><path d="m138.59 121.981 12.244-12.244 42.516 42.507c1.465 1.464 3.384 2.196 5.303 2.196 1.92 0 3.84-.732 5.304-2.197 2.929-2.929 2.929-7.678-.001-10.606l-43.373-43.364c1.624-3.243 2.489-6.841 2.489-10.573 0-6.321-2.462-12.263-6.931-16.731-4.421-4.42-10.17-6.698-15.973-6.883-.185-5.804-2.463-11.553-6.883-15.974-4.42-4.42-10.169-6.699-15.974-6.883-.185-5.804-2.463-11.553-6.884-15.974-7.372-7.371-18.429-8.834-27.284-4.427l-16.437-16.438c-2.831-2.831-6.596-4.39-10.6-4.39-4.005 0-7.77 1.56-10.601 4.391l-12.263 12.264c-5.844 5.844-5.844 15.354 0 21.199l16.436 16.435c-4.407 8.856-2.943 19.914 4.427 27.284 2.163 2.163 4.651 3.799 7.3 4.947l-49.197 49.197c-15.462 15.463-15.979 40.704-1.154 56.267 7.623 8.001 17.902 12.408 28.943 12.408 10.673 0 20.707-4.156 28.253-11.701l20.43-20.424c7.531-7.529 19.782-7.528 27.313.002 3.647 3.648 5.657 8.499 5.656 13.658 0 5.159-2.01 10.01-5.658 13.658l-29.897 29.893c-8.974 8.971-13.915 20.901-13.915 33.59v34.643c-18.385 3.519-32.324 19.711-32.324 39.106 0 12.817 6.093 24.232 15.528 31.521-10.514 8.258-23.146 21.494-35.315 42.58-11.218 19.43-17.753 37.998-19.424 55.19-1.29 13.267.904 20.843 1.159 21.664.991 3.195 3.938 5.28 7.158 5.28.549 0 1.106-.061 1.663-.187.798-.181 8.092-1.976 18.493-9.232 8.7-6.069 16.944-14.046 24.646-23.803 5.204 35.279 20.058 49.473 20.819 50.177 1.438 1.33 3.265 1.994 5.093 1.994s3.656-.665 5.093-1.995c.743-.687 15.62-14.871 20.827-50.155 7.438 9.416 15.391 17.184 23.791 23.186 10.845 7.75 18.504 9.638 19.342 9.828.557.126 1.113.187 1.662.187 3.218 0 6.166-2.083 7.157-5.277.255-.82 2.452-8.397 1.165-21.665-1.667-17.192-8.2-35.761-19.419-55.192-12.182-21.087-24.814-34.321-35.323-42.574 9.438-7.289 15.533-18.706 15.533-31.526 0-19.395-13.94-35.587-32.324-39.106v-34.643c0-8.683 3.381-16.845 9.521-22.983l29.897-29.893c6.482-6.481 10.053-15.098 10.053-24.265.001-9.166-3.568-17.784-10.05-24.265-13.379-13.378-35.146-13.38-48.525-.003l-20.43 20.424c-4.714 4.713-10.981 7.309-17.647 7.309-6.896 0-13.318-2.754-18.082-7.754-9.258-9.718-8.854-25.56.9-35.314l49.197-49.197c1.149 2.651 2.785 5.14 4.948 7.304 4.414 4.414 10.151 6.69 15.945 6.881.189 6.037 2.622 11.685 6.912 15.975 4.613 4.613 10.673 6.919 16.731 6.919 3.625 0 7.243-.844 10.558-2.494l148.24 148.24c1.465 1.464 3.385 2.197 5.304 2.197s3.839-.732 5.304-2.197c2.929-2.929 2.929-7.678 0-10.606zm-123.308 352.638c-.055-10.453 2.566-29.857 17.777-56.202 9.131-15.823 18.369-26.628 26.498-33.994-4.139 11.918-7.584 28.313-7.584 49.892 0 .644.018 1.26.024 1.895-14.198 22.836-28.263 33.587-36.715 38.409zm64.398 17.257c-5.275-9.024-12.707-27.138-12.707-57.561 0-18.362 2.652-32.343 5.946-42.637 2.387 12.44 7.624 28.302 18.383 46.943.323.56.652 1.102.978 1.655-.887 26.862-7.692 43.2-12.6 51.6zm46.624-73.458c15.221 26.363 17.83 45.773 17.775 56.198-9.08-5.178-24.575-17.149-39.786-43.495-6.803-11.786-17.573-33.69-18.163-55.011.772-.126 1.536-.278 2.293-.449 10.079 6.431 24.093 18.889 37.881 42.757zm-21.801-81.601c0 13.688-11.136 24.824-24.824 24.824s-24.824-11.136-24.824-24.824 11.136-24.824 24.824-24.824 24.824 11.136 24.824 24.824zm-10.81-303.49c2.219 0 4.438.845 6.126 2.533 3.378 3.377 3.378 8.873 0 12.25l-22.858 22.857c-3.377 3.378-8.872 3.376-12.249 0-3.378-3.377-3.378-8.873 0-12.25l22.857-22.857c1.688-1.689 3.906-2.533 6.124-2.533zm-37.594-18.33 15.559 15.56-12.251 12.251-15.558-15.547zm31.47 66.577 22.857-22.857c1.688-1.689 3.906-2.533 6.125-2.533 2.218 0 4.436.844 6.124 2.533 3.378 3.377 3.378 8.873 0 12.25l-22.855 22.857c-3.379 3.379-8.874 3.376-12.251 0-3.378-3.377-3.378-8.873 0-12.25zm22.856 35.107c-1.636-1.636-2.537-3.811-2.537-6.125 0-2.313.901-4.489 2.538-6.125l22.856-22.857c1.688-1.688 3.906-2.533 6.124-2.533 2.219 0 4.437.844 6.126 2.533 1.636 1.636 2.537 3.811 2.537 6.125s-.901 4.489-2.537 6.125h-.001l-22.856 22.857c-3.378 3.378-8.872 3.377-12.25 0z"/><path d="m501.276 421.827-57.141-57.15c-5.224-5.225-13.274-5.941-19.301-2.162l-196.128-196.128c-2.93-2.929-7.678-2.929-10.607 0s-2.929 7.678 0 10.606l195.841 195.842-12.253 12.253-90.981-90.991c-2.929-2.928-7.678-2.929-10.606 0-2.93 2.929-2.93 7.678-.001 10.607l91.267 91.277c-3.777 6.02-3.064 14.076 2.162 19.303l10.5 10.5c2.93 2.929 7.678 2.929 10.607 0s2.929-7.678 0-10.606l-10.5-10.5c-.223-.223-.219-.604 0-.824l28.562-28.561c.228-.228.609-.23.831-.009l57.144 57.153c3.926 3.923 6.088 9.14 6.088 14.689s-2.162 10.767-6.093 14.694c-3.923 3.926-9.14 6.088-14.689 6.088s-10.767-2.162-14.693-6.092l-21.9-21.89c-2.93-2.928-7.679-2.927-10.606.002-2.928 2.93-2.927 7.679.003 10.607l21.896 21.886c6.756 6.762 15.741 10.486 25.301 10.486s18.545-3.724 25.296-10.481c6.763-6.756 10.486-15.742 10.486-25.301s-3.725-18.544-10.485-25.298z"/></g></g></svg>