<svg id="Layer_1" enable-background="new 0 0 512.003 512.003" height="512" viewBox="0 0 512.003 512.003" width="512" xmlns="http://www.w3.org/2000/svg"><g><path d="m492.491 424.025h-47.677c0-83.763 0-167.587 0-251.46 0-4.142-3.357-7.5-7.5-7.5s-7.5 3.358-7.5 7.5v15.104h-42.417c-10.082 0-18.285 8.203-18.285 18.285v11.139c0 8.852-8.232 10.901-8.332 10.97-6.549 1.637-13.335-3.395-13.335-10.53 0-4.142-3.357-7.5-7.5-7.5s-7.5 3.358-7.5 7.5v22.894c0 5.413-3.803 9.94-8.425 10.988-6.817 1.637-13.242-3.907-13.242-10.988v-34.473c0-10.082-8.203-18.285-18.285-18.285h-210.317v-61.971c0-5.793 4.713-10.506 10.506-10.506h326.627c5.793 0 10.506 4.713 10.506 10.505v11.867c0 4.142 3.357 7.5 7.5 7.5s7.5-3.358 7.5-7.5v-11.867c0-14.063-11.442-25.505-25.506-25.505h-76.202c8.602-13.05 11.888-28.842 9.017-44.56-1.413-7.725-7.869-13.524-15.7-14.102-17.129-1.264-33.595 4.559-46.01 16.064-6.207-7.898-15.061-13.617-25.22-15.8 4.604-13.08 14.822-20.138 15.428-20.547 3.438-2.285 4.385-6.921 2.112-10.372-2.28-3.459-6.932-4.414-10.39-2.137-.831.547-17.252 11.617-22.657 32.536-11.365 1.648-21.323 7.68-28.111 16.319-12.412-11.505-28.867-17.33-46.011-16.063-7.83.578-14.286 6.377-15.699 14.103-2.871 15.717.415 31.508 9.017 44.559h-76.201c-14.063 0-25.506 11.442-25.506 25.506v298.327h-47.793c-12.884 0-23.243 12.369-17.984 27.208 4.367 12.301 15.111 21.178 27.861 23.599 2.564 15.02 14.263 29.671 29.324 29.671h394.823c15.07 0 26.773-14.667 29.329-29.696 13.255-2.57 24.212-12.163 28.37-25.481 3.912-12.562-5.45-25.301-18.615-25.301zm-194.74-352.577c9.606-10.564 23.292-16.012 37.568-14.958 1.006.074 1.867.849 2.049 1.84 2.89 15.819-2.536 31.406-13.691 41.863h-26.798c3.412-8.945 3.897-19.171.872-28.745zm-49.49-14.57c.891 3.147 3.778 5.456 7.211 5.456 3.525 0 6.474-2.435 7.277-5.712 18.924 4.572 28.344 26.637 17.381 43.571h-48.268c-10.56-16.31-2.255-38.1 16.399-43.315zm-73.639 1.453c.182-.993 1.043-1.767 2.048-1.841 14.297-1.048 27.966 4.396 37.569 14.958-2.942 9.309-2.641 19.537.872 28.745h-26.798c-11.092-10.404-16.596-25.96-13.691-41.862zm-92.446 293.218h155.796c4.143 0 7.5-3.358 7.5-7.5s-3.357-7.5-7.5-7.5h-155.796v-133.88h210.317c1.812 0 3.285 1.474 3.285 3.285v34.912c0 22.716 27.434 34.357 43.771 18.591 5.059-4.882 7.859-11.431 7.895-18.454 16.963 7.848 36.667-4.583 36.667-23.47v-.44-11.139c0-1.811 1.474-3.285 3.285-3.285h42.417v133.88h-156.841c-4.143 0-7.5 3.358-7.5 7.5s3.357 7.5 7.5 7.5h156.843v72.476h-347.639zm371.231 137.953h-394.823c-5.605 0-11.462-6.421-13.8-14.005h422.424c-2.339 7.584-8.195 14.005-13.801 14.005zm43.378-44.642c-2.948 9.44-11.193 15.555-21.036 15.63-.084.001-.192.003-.306.007h-439.026c-.064-.002-.127-.003-.186-.003-9.361-.031-17.672-5.76-20.695-14.276-1.655-4.668.896-7.193 3.847-7.193h473.108c3.033 0 5.198 2.931 4.294 5.835z"/></g></svg>