<svg id="Capa_1" enable-background="new 0 0 511.387 511.387" height="512" viewBox="0 0 511.387 511.387" width="512" xmlns="http://www.w3.org/2000/svg"><g><path d="m225.476 74.05 14.452-17.306 79.262 137.286-22.214 3.862-84.703 48.903 7.5 12.99 82.396-47.571 31.481-5.474 65.25-37.672-40.402-19.98 2.319-35.983-32.319-15.98 2.321-35.979-32.319-15.98 2.901-44.974-65.251 37.673-20.481 24.526-19.014 10.978 7.5 12.99zm59.152-46.854-1.741 26.983 32.319 15.979-2.321 35.979 32.321 15.98-2.319 35.983 24.242 11.988-33.33 19.244-82.5-142.894z"/><path d="m38.078 230.159 32.319 15.979-2.321 35.98 32.323 15.983-2.898 44.979 65.251-37.673 20.48-24.526 23.55-13.597-7.5-12.99-25.856 14.929-14.451 17.306-79.262-137.285 22.213-3.862 89.239-51.522-7.5-12.99-86.933 50.19-31.48 5.474-65.252 37.672 40.399 19.974zm-6.305-56.976 33.33-19.243 82.5 142.895-33.331 19.243 1.738-26.989-32.321-15.983 2.321-35.98-32.319-15.979 2.321-35.979z"/><path d="m250.162 185.225c3.629-13.545 1.767-27.693-5.245-39.838-14.476-25.071-46.646-33.69-71.716-19.217-25.069 14.475-33.69 46.646-19.217 71.717 7.012 12.145 18.333 20.832 31.879 24.461 4.522 1.212 9.112 1.812 13.673 1.812 9.097 0 18.076-2.386 26.165-7.057 12.145-7.012 20.831-18.332 24.461-31.878zm-31.961 18.887c-17.908 10.34-40.888 4.182-51.227-13.726-10.338-17.907-4.181-40.888 13.727-51.227 17.905-10.339 40.887-4.181 51.226 13.727 5.009 8.675 6.339 18.78 3.746 28.456s-8.797 17.762-17.472 22.77z"/><path d="m511.387 331.979v-109.285c0-18.581-13.587-34.041-31.346-36.986l30.22-70.514h-42.532v15h19.784l-23.571 55h-30.109l-23.571-55h42.468v-15h-65.216l30.22 70.514c-17.759 2.945-31.346 18.405-31.346 36.986v160c0 18.581 13.587 34.041 31.346 36.986l-30.22 70.514h42.532v-15h-19.784l23.571-55h30.109l23.571 55h-42.468v15h65.216l-30.22-70.514c17.759-2.945 31.346-18.405 31.346-36.986v-35.715h-15v35.715c0 12.406-10.094 22.5-22.5 22.5h-50c-12.406 0-22.5-10.094-22.5-22.5v-17.5h48.5v-15h-48.5v-40h95v21.785zm-110-36.785v-72.5c0-12.406 10.094-22.5 22.5-22.5h50c12.406 0 22.5 10.094 22.5 22.5v17.5h-48.5v15h48.5v40z"/><path d="m359.612 378.706-14.771 2.605 9.094 51.573c.134.761.202 1.523.202 2.269 0 6.735-5.703 12.426-12.453 12.426-1.384 0-2.776-.239-4.141-.71l-56.263-19.433c.655-4.309.996-8.72.996-13.209 0-15.204-3.901-29.513-10.75-41.983l46.244-37.52c2.267-1.839 4.963-2.812 7.799-2.812 5.248 0 11.188 3.555 12.386 10.349l4.281 24.277 14.771-2.605-4.281-24.276c-2.322-13.179-13.744-22.744-27.157-22.744-6.316 0-12.282 2.132-17.251 6.164l-45.153 36.635c-16.047-20.089-40.738-32.984-68.389-32.984-38.173 0-70.71 24.573-82.635 58.73l-53.264-18.397c-2.942-1.017-5.983-1.532-9.038-1.532-15.137 0-27.451 12.303-27.451 27.424 0 1.623.145 3.264.43 4.877l9.415 53.397 14.771-2.605-9.415-53.399c-.134-.756-.201-1.519-.201-2.27 0-6.734 5.702-12.424 12.451-12.424 1.384 0 2.776.239 4.141.71l54.452 18.808c-.756 4.618-1.155 9.354-1.155 14.182 0 15.555 4.085 30.171 11.23 42.843l-44.755 36.313c-2.267 1.839-4.963 2.812-7.799 2.812-5.248 0-11.188-3.555-12.386-10.35l-3.959-22.452-14.771 2.605 3.959 22.452c2.324 13.179 13.745 22.744 27.157 22.744 6.316 0 12.282-2.132 17.251-6.164l43.792-35.531c16.059 19.656 40.477 32.229 67.78 32.229 38.515 0 71.295-25.014 82.954-59.648l54.915 18.968c2.942 1.017 5.983 1.532 9.038 1.532 15.138 0 27.453-12.303 27.453-27.426 0-1.616-.145-3.257-.431-4.875zm-164.836 108.022c-21.084 0-40.088-9.053-53.347-23.468h27.347v-15h-37.992c-2.518-4.715-4.523-9.74-5.956-15h25.948v-15h-28.382c-.073-1.335-.118-2.679-.118-4.032 0-39.977 32.523-72.5 72.5-72.5 21.083 0 40.087 9.052 53.347 23.467h-27.236v15h37.881c2.518 4.715 4.523 9.74 5.956 15h-25.837v15h28.272c.074 1.336.118 2.679.118 4.033-.001 39.976-32.524 72.5-72.501 72.5z"/><path d="m417.887 240.194h15v15h-15z"/><path d="m464.887 350.194h15v15h-15z"/><path d="m190.887 365.194h15v15h-15z"/><path d="m183.776 448.26h15v15h-15z"/></g></svg>