<?xml version="1.0" encoding="iso-8859-1"?>
<!-- Generator: Adobe Illustrator 19.0.0, SVG Export Plug-In . SVG Version: 6.00 Build 0)  -->
<svg version="1.1" id="Capa_1" xmlns="http://www.w3.org/2000/svg" xmlns:xlink="http://www.w3.org/1999/xlink" x="0px" y="0px"
	 viewBox="0 0 205.03 205.03" style="enable-background:new 0 0 205.03 205.03;" xml:space="preserve">
<g>
	<g>
		<path d="M109.71,24.376c-3.633-6.017-10.27-9.755-17.319-9.755c-3.665,0-7.265,1.004-10.411,2.903
			c-9.534,5.757-12.608,18.196-6.853,27.73c1.643,2.722,4.638,4.412,7.818,4.412c1.658,0,3.286-0.454,4.712-1.315
			c4.306-2.602,5.694-8.222,3.094-12.527c-0.555-0.92-0.258-2.121,0.661-2.676c0.307-0.186,0.643-0.279,0.998-0.279
			c0.695,0,1.321,0.352,1.677,0.94c1.642,2.72,4.637,4.409,7.816,4.409c1.658,0,3.287-0.454,4.713-1.315
			C110.921,34.302,112.308,28.683,109.71,24.376z M103.125,31.126c-0.377,0.228-0.789,0.343-1.223,0.343
			c-0.842,0-1.604-0.429-2.037-1.147c-1.564-2.592-4.421-4.202-7.456-4.202c-1.58,0-3.132,0.432-4.487,1.251
			c-4.105,2.479-5.429,7.836-2.951,11.942c0.677,1.121,0.315,2.584-0.805,3.26c-0.377,0.228-0.788,0.343-1.223,0.343
			c-0.842,0-1.604-0.429-2.038-1.149c-3.831-6.347-1.784-14.63,4.564-18.463c2.093-1.264,4.486-1.931,6.921-1.931
			c4.7,0,9.122,2.488,11.54,6.493C104.606,28.987,104.245,30.45,103.125,31.126z"/>
	</g>
</g>
<g>
	<g>
		<path d="M155.991,7.266c-1.535-1.893-3.715-3.075-6.14-3.328c-0.316-0.033-0.639-0.05-0.957-0.05
			c-4.683,0-8.581,3.516-9.068,8.178c-0.103,0.979-0.951,1.745-1.932,1.745c-0.067,0-0.137-0.004-0.21-0.011
			c-0.515-0.054-0.979-0.306-1.308-0.711c-0.329-0.406-0.48-0.913-0.427-1.427c0.254-2.425-0.453-4.801-1.988-6.695
			c-1.535-1.893-3.716-3.075-6.14-3.328c-0.316-0.033-0.637-0.05-0.953-0.05c-4.682,0-8.58,3.515-9.069,8.177
			c-0.56,5.358,1.004,10.619,4.406,14.813c3.402,4.194,8.228,6.813,13.587,7.373c0.699,0.073,1.408,0.11,2.107,0.11h0.002
			c10.369,0,19.001-7.782,20.075-18.1C158.23,11.538,157.526,9.159,155.991,7.266z M151.265,13.261
			c-0.716,6.87-6.461,12.052-13.364,12.051c-0.467,0-0.94-0.025-1.407-0.073c-3.565-0.373-6.776-2.117-9.042-4.911
			c-2.267-2.795-3.309-6.297-2.937-9.861c0.127-1.214,1.141-2.129,2.355-2.129c0.084,0,0.169,0.005,0.254,0.014
			c0.631,0.065,1.197,0.373,1.597,0.865c0.399,0.493,0.583,1.111,0.518,1.743c-0.241,2.308,0.433,4.574,1.897,6.379
			c1.464,1.806,3.542,2.933,5.848,3.174c0.304,0.032,0.61,0.048,0.913,0.048c4.466,0,8.182-3.351,8.645-7.794
			c0.136-1.298,1.29-2.257,2.611-2.115c0.631,0.065,1.196,0.373,1.596,0.865C151.147,12.009,151.331,12.628,151.265,13.261z"/>
	</g>
</g>
<g>
	<g>
		<path d="M65.161,15.557C62.997,6.397,54.914,0,45.505,0c-1.556,0-3.118,0.182-4.642,0.543c-2.373,0.56-4.385,2.01-5.666,4.083
			c-1.282,2.073-1.678,4.521-1.118,6.893c0.977,4.14,4.627,7.031,8.877,7.031c0.705,0,1.412-0.083,2.103-0.246
			c1.037-0.246,2.103,0.433,2.343,1.448c0.119,0.504,0.033,1.027-0.241,1.471c-0.274,0.444-0.703,0.754-1.208,0.873
			c-2.372,0.56-4.384,2.011-5.665,4.084c-1.281,2.074-1.678,4.522-1.118,6.893c0.978,4.138,4.627,7.029,8.874,7.029
			c0.705,0,1.412-0.083,2.102-0.246c5.243-1.237,9.694-4.449,12.533-9.042C65.518,26.219,66.4,20.801,65.161,15.557z M56.937,27.265
			c-1.891,3.06-4.854,5.199-8.343,6.023c-0.182,0.043-0.367,0.065-0.55,0.065h-0.001c-1.103,0-2.051-0.753-2.306-1.832
			c-0.146-0.617-0.043-1.253,0.291-1.792c0.334-0.54,0.857-0.917,1.474-1.063c2.259-0.533,4.177-1.916,5.399-3.894
			c1.223-1.979,1.602-4.312,1.068-6.571c-0.931-3.944-4.412-6.699-8.464-6.699c-0.671,0-1.345,0.079-2,0.234
			c-0.182,0.043-0.367,0.065-0.55,0.065c-1.104,0-2.053-0.753-2.307-1.832c-0.146-0.617-0.042-1.255,0.291-1.794
			c0.334-0.54,0.857-0.917,1.475-1.063c1.017-0.24,2.057-0.362,3.091-0.362c6.265,0,11.646,4.26,13.087,10.359
			C59.416,20.598,58.828,24.205,56.937,27.265z"/>
	</g>
</g>
<g>
	<g>
		<path d="M171.197,181.958c-0.001-0.109-0.009-0.219-0.02-0.326c-0.003-0.029-0.009-0.055-0.012-0.082
			c-0.013-0.097-0.029-0.191-0.05-0.285c0,0-0.002-0.018-0.005-0.026c-0.029-0.125-2.91-12.736-2.91-31.479v-41.088
			c0-18.693,2.781-31.424,2.81-31.548l0.003-0.018c0.023-0.106,0.04-0.214,0.053-0.323c0.002-0.014,0.006-0.027,0.007-0.04
			c0.012-0.117,0.019-0.235,0.019-0.355V76.37v-0.002V56.735c0-1.864-1.511-3.375-3.375-3.375h-9.434
			c0.209-7.608-3.929-14.849-10.719-18.441c-1.311-0.694-2.784-1.06-4.263-1.06c-3.393,0-6.485,1.861-8.071,4.858
			c-2.352,4.446-0.647,9.978,3.8,12.331c0.826,0.438,1.197,1.424,0.909,2.311H55.954c-1.864,0-3.375,1.511-3.375,3.375v19.652
			l0.001,0.018c0,0,0.003,0.048,0.003,0.072c0.003,0.099,0.008,0.198,0.019,0.295c0.004,0.032,0.01,0.065,0.015,0.097
			c0.013,0.091,0.028,0.18,0.048,0.268c0.003,0.012,0.004,0.025,0.007,0.037c0.03,0.126,3.012,12.836,3.012,31.498v41.087
			c0,18.678-2.881,31.355-2.91,31.479c-0.003,0.01-0.003,0.021-0.006,0.032c-0.019,0.086-0.033,0.174-0.046,0.264
			c-0.004,0.033-0.011,0.066-0.015,0.1c-0.011,0.1-0.016,0.2-0.018,0.303c0,0.021-0.004,0.043-0.004,0.063v0.003v19.652
			c0,1.863,1.511,3.375,3.375,3.375h111.763c1.863,0,3.375-1.512,3.375-3.375v-19.652v-0.005h0.002L171.197,181.958z M151.65,60.11
			h12.692v12.902H151.65V60.11z M60.068,79.763h103.59c-0.883,5.36-2.206,15.622-2.206,28.91v41.087
			c0,13.268,1.369,23.506,2.285,28.867H60.15c0.915-5.361,2.284-15.6,2.284-28.867v-41.087
			C62.434,95.403,61.017,85.144,60.068,79.763z M141.197,41.874c0.413-0.781,1.219-1.265,2.104-1.265
			c0.387,0,0.76,0.093,1.107,0.276c4.021,2.128,6.646,6.186,7.073,10.629h-4.786c-0.391-2.661-1.996-5.101-4.51-6.431
			C141.03,44.47,140.586,43.031,141.197,41.874z M133.073,60.11h11.825v12.902h-11.825V60.11z M114.96,60.11h11.364v12.902H114.96
			V60.11z M96.384,60.11h11.825v12.902H96.384V60.11z M77.809,60.11h11.825v12.902H77.809V60.11z M59.329,60.11h11.729v12.902
			H59.329V60.11z M71.166,198.28H59.437v-12.902h11.729V198.28z M89.741,198.28H77.916v-12.902h11.825V198.28z M108.316,198.28
			H96.491v-12.902h11.825V198.28z M126.43,198.28h-11.364v-12.902h11.364V198.28z M145.007,198.28h-11.826v-12.902h11.826V198.28z
			 M164.449,198.28h-12.692v-12.902h12.692V198.28z"/>
	</g>
</g>
<g>
	<g>
		<path d="M146.233,108.59h-7.479c-1.864,0-3.375,1.512-3.375,3.375c0,1.864,1.511,3.375,3.375,3.375h4.104v27.096H81.424V115.34
			h39.107c1.863,0,3.375-1.511,3.375-3.375c0-1.863-1.512-3.375-3.375-3.375H78.049c-1.864,0-3.375,1.512-3.375,3.375v33.846
			c0,1.863,1.511,3.375,3.375,3.375h68.185c1.864,0,3.375-1.512,3.375-3.375v-33.846C149.608,110.102,148.098,108.59,146.233,108.59
			z"/>
	</g>
</g>
<g>
</g>
<g>
</g>
<g>
</g>
<g>
</g>
<g>
</g>
<g>
</g>
<g>
</g>
<g>
</g>
<g>
</g>
<g>
</g>
<g>
</g>
<g>
</g>
<g>
</g>
<g>
</g>
<g>
</g>
</svg>
