<svg id="Layer_1_1_" enable-background="new 0 0 64 64" height="512" viewBox="0 0 64 64" width="512" xmlns="http://www.w3.org/2000/svg"><path d="m29 18h6c.552 0 1-.448 1-1v-10c0-.552-.448-1-1-1h-6c-.552 0-1 .448-1 1v10c0 .552.448 1 1 1zm1-10h4v8h-4z"/><path d="m39 18h6c.552 0 1-.448 1-1v-10c0-.552-.448-1-1-1h-6c-.552 0-1 .448-1 1v10c0 .552.448 1 1 1zm1-10h4v8h-4z"/><path d="m19 18h6c.552 0 1-.448 1-1v-10c0-.552-.448-1-1-1h-6c-.552 0-1 .448-1 1v10c0 .552.448 1 1 1zm1-10h4v8h-4z"/><path d="m29 32h6c.552 0 1-.448 1-1v-10c0-.552-.448-1-1-1h-6c-.552 0-1 .448-1 1v10c0 .552.448 1 1 1zm1-10h4v8h-4z"/><path d="m39 32h6c.552 0 1-.448 1-1v-10c0-.552-.448-1-1-1h-6c-.552 0-1 .448-1 1v10c0 .552.448 1 1 1zm1-10h4v8h-4z"/><path d="m19 32h6c.552 0 1-.448 1-1v-10c0-.552-.448-1-1-1h-6c-.552 0-1 .448-1 1v10c0 .552.448 1 1 1zm1-10h4v8h-4z"/><path d="m14 43.474v16.526c0 1.103.897 2 2 2h32c1.103 0 2-.897 2-2v-14.276l1.858.265c.533.078 1.029-.282 1.125-.811l2-10.999c.066-.361-.071-.731-.359-.961l-4.624-3.698v-25.52c0-1.103-.897-2-2-2h-32c-1.103 0-2 .897-2 2v25.5l-3.6 2.7c-.27.203-.42.528-.398.865.007.105.03.207.068.302zm11.36-1.249-6.984 6.984-2.376-6.11v-.099h-.038l-3.017-7.759zm-1.36-3.06-4-2.25v-.915h4zm-8 20.835v-3h32v3zm32-5h-32v-6.384l1.068 2.746c.123.315.396.547.727.616.068.015.137.022.205.022.262 0 .518-.104.707-.293l8.42-8.42 11.318 7.545c.17.113.363.168.555.168.258 0 .514-.1.708-.293l5.646-5.646 2.646.378zm-14-16.117-4 1.185v-4.068h4zm17.188 4.991-6.047-.864c-.313-.045-.626.06-.849.283l-5.42 5.42-9.542-6.361 23.394-6.931zm-11.188-6.769v-1.105h3.729zm11.88-3.52-1.88.557v-2.062zm-3.88-29.585v30.735l-2 .593v-.328c0-.552-.448-1-1-1h-6c-.552 0-1 .448-1 1v2.698l-2 .593v-3.291c0-.552-.448-1-1-1h-6c-.552 0-1 .448-1 1v5.661l-.879.26-1.121-.631v-5.29c0-.552-.448-1-1-1h-6c-.552 0-1 .448-1 1v.79l-2-1.125v-30.665zm-34 28v1.54l-1.173-.66z"/></svg>