<svg id="Capa_1" enable-background="new 0 0 512 512" height="512" viewBox="0 0 512 512" width="512" xmlns="http://www.w3.org/2000/svg"><g><g><path d="m359.653 174.406c-1.078-7.484-5.91-13.637-12.925-16.458-7.016-2.82-14.762-1.726-20.721 2.929l-79.314 61.957-13.554-22.379c-3.918-6.468-10.786-10.207-18.329-10.097-7.56.146-14.262 4.182-17.928 10.795l-59.162 106.731c-3.636 6.56-3.535 14.335.272 20.798 3.807 6.462 10.557 10.32 18.058 10.32h123.807c7.669 0 14.495-3.989 18.259-10.67 3.764-6.682 3.64-14.586-.333-21.146l-6.958-11.489 57.676 24.493c2.686 1.142 5.485 1.703 8.258 1.702 4.513 0 8.955-1.487 12.719-4.386 6.077-4.678 9.052-12.003 7.959-19.593zm-78.961 144.109c-.275.487-.653.487-.834.487h-123.807c-.164 0-.547 0-.825-.472s-.092-.808-.013-.951l59.162-106.731c.087-.156.268-.482.819-.493.009 0 .018-.001.026-.001.531 0 .72.312.811.462l64.645 106.732c.095.156.291.479.016.967zm76.586-16.854c-.444.341-.792.192-.958.122h-.001l-83.208-35.335-15.983-26.385 81.192-63.424c.142-.11.436-.342.947-.134.512.205.565.574.591.751l17.784 123.51c.025.179.079.553-.364.895z"/><path d="m312.835 215.787c-5.523 0-10 4.478-10 10v30.213c0 5.522 4.477 10 10 10s10-4.478 10-10v-30.213c0-5.523-4.477-10-10-10z"/><path d="m220.027 270.625-27.565 14.762c-4.869 2.607-6.702 8.668-4.095 13.536 1.803 3.366 5.255 5.281 8.824 5.281 1.593 0 3.209-.382 4.712-1.187l27.565-14.762c4.869-2.607 6.702-8.668 4.095-13.536s-8.666-6.701-13.536-4.094z"/><path d="m441.854 461.762-3.561-39.355c-.034-.371-.092-.746-.167-1.11-.157-.765-15.705-77.469-15.705-165.297 0-87.826 15.567-164.53 15.725-165.295.075-.361.132-.745.166-1.112.674-7.456 3.521-39.098 3.521-39.098.56-6.201-1.556-12.355-5.806-16.887-6.883-7.339-13.924-14.708-20.927-21.902-3.505-3.602-9.14-4.041-13.162-1.027-5.949 4.457-11.937 9.015-17.801 13.547-.713.551-1.73.488-2.366-.143-5.865-5.834-11.86-11.705-17.818-17.449-3.625-3.496-9.282-3.75-13.206-.597-5.828 4.684-11.704 9.478-17.464 14.249-.696.574-1.715.548-2.373-.064-5.991-5.589-12.112-11.208-18.191-16.702-3.739-3.379-9.405-3.448-13.225-.163-5.708 4.908-11.47 9.938-17.126 14.948-.676.597-1.696.604-2.373.012-6.121-5.347-12.365-10.714-18.558-15.952-3.846-3.252-9.513-3.137-13.223.271-5.562 5.109-11.194 10.36-16.742 15.606-.677.641-1.713.693-2.412.123-6.247-5.101-12.611-10.213-18.916-15.194-3.949-3.122-9.604-2.82-13.199.704-5.483 5.374-10.998 10.857-16.391 16.298-.655.659-1.687.748-2.403.202-6.337-4.829-12.82-9.687-19.27-14.438-4.047-2.98-9.678-2.497-13.155 1.136-5.376 5.615-10.771 11.331-16.034 16.987-.632.678-1.658.801-2.39.28-6.463-4.585-13.065-9.187-19.622-13.676-4.137-2.833-9.733-2.164-13.085 1.564-6.44 7.161-12.899 14.471-19.2 21.726-3.87 4.457-5.784 10.392-5.251 16.282l3.561 39.355c.035.381.096.757.173 1.127.247 1.208 15.692 77.604 15.692 165.28 0 87.828-15.548 164.532-15.706 165.297-.08.388-.134.792-.166 1.186l-3.531 39.018c-.561 6.204 1.556 12.361 5.807 16.893 6.879 7.334 13.919 14.703 20.925 21.9 3.505 3.602 9.139 4.041 13.161 1.028 5.887-4.41 11.876-8.968 17.803-13.548.713-.552 1.729-.488 2.365.143 5.85 5.818 11.845 11.689 17.818 17.449 3.624 3.494 9.281 3.749 13.206.597 5.828-4.684 11.704-9.478 17.464-14.249.695-.577 1.715-.548 2.372.064 5.991 5.589 12.112 11.208 18.192 16.703 3.739 3.376 9.405 3.446 13.224.162 5.693-4.895 11.455-9.924 17.125-14.947.675-.599 1.696-.605 2.374-.013 6.121 5.347 12.365 10.714 18.558 15.952 1.867 1.579 4.164 2.364 6.457 2.364 2.43 0 4.857-.882 6.766-2.636 5.574-5.121 11.207-10.372 16.741-15.607.678-.64 1.713-.692 2.412-.122 6.257 5.108 12.621 10.221 18.915 15.194 3.951 3.124 9.605 2.819 13.2-.704 5.512-5.402 11.026-10.886 16.391-16.298.654-.661 1.687-.748 2.403-.202 6.375 4.857 12.858 9.715 19.27 14.438 4.047 2.98 9.678 2.497 13.155-1.136 5.376-5.615 10.771-11.331 16.034-16.987.631-.678 1.657-.8 2.39-.28 6.463 4.585 13.065 9.187 19.622 13.676 4.137 2.833 9.733 2.164 13.085-1.564 6.424-7.144 12.883-14.453 19.198-21.725 3.873-4.455 5.787-10.39 5.254-16.282zm-351.356-414.695c4.315-4.968 8.706-9.963 13.113-14.917 4.063 2.819 8.119 5.664 12.12 8.503 8.875 6.294 21.17 5.02 28.603-2.968 3.216-3.457 6.482-6.936 9.763-10.399 4.005 2.988 7.998 5.998 11.932 8.996 8.675 6.612 21.025 5.741 28.729-2.028 3.266-3.295 6.577-6.605 9.898-9.896 3.935 3.147 7.868 6.325 11.754 9.499 8.462 6.911 20.846 6.444 28.806-1.084 3.326-3.146 6.683-6.293 10.037-9.41 3.881 3.322 7.757 6.673 11.584 10.017 8.233 7.192 20.611 7.146 28.793-.104 3.379-2.994 6.798-5.994 10.219-8.972 3.829 3.501 7.65 7.028 11.419 10.545 7.988 7.449 20.357 7.812 28.772.841 3.426-2.839 6.894-5.685 10.368-8.511 3.776 3.682 7.543 7.392 11.257 11.086 7.732 7.689 20.072 8.457 28.701 1.785 3.477-2.687 6.998-5.383 10.528-8.062 4.879 5.068 9.749 10.193 14.542 15.303v.001c.349.371.522.884.475 1.406 0 0-2.225 24.732-2.585 28.73-48.038-6.052-96.402-9.462-144.815-10.151-12.36-.176-24.723-.176-37.083.001-48.382.699-96.738 4.061-144.742 10.15l-2.623-28.993c-.044-.5.115-.999.435-1.368 4.315-4.968-.32.369 0 0zm331.004 417.864c-4.323 4.978-8.713 9.973-13.113 14.918-4.064-2.819-8.119-5.664-12.12-8.503-8.875-6.293-21.17-5.018-28.603 2.968-3.216 3.457-6.482 6.936-9.763 10.399-3.991-2.978-7.982-5.987-11.933-8.996-8.675-6.611-21.026-5.74-28.729 2.028-3.255 3.284-6.566 6.595-9.898 9.896-3.931-3.144-7.864-6.322-11.753-9.499-8.461-6.911-20.846-6.445-28.807 1.084-3.321 3.142-6.678 6.289-10.036 9.41-3.881-3.322-7.758-6.674-11.586-10.018-8.232-7.188-20.61-7.143-28.793.105-3.385 2.999-6.803 6-10.218 8.972-3.829-3.5-7.65-7.029-11.42-10.545-7.988-7.448-20.357-7.81-28.771-.841-3.426 2.839-6.894 5.685-10.368 8.511-3.783-3.688-7.549-7.397-11.257-11.086-7.733-7.689-20.073-8.458-28.701-1.785-3.499 2.703-7.02 5.399-10.528 8.062-4.881-5.069-9.75-10.193-14.541-15.303-.349-.372-.522-.885-.475-1.406l2.6-28.732c71.935 8.773 144.368 12.196 216.799 9.205 5.518-.228 9.807-4.885 9.58-10.403-.028-.679-.132-1.345-.286-2.006-1.117-4.516-5.283-7.778-10.119-7.576-71.157 2.934-142.582-.124-213.237-9.047 4.3-24.427 14.146-88.081 14.146-158.744 0-70.675-9.844-134.341-14.14-158.759 46.241-5.839 92.808-9.159 139.411-9.926 14.112-.233 28.227-.233 42.339 0 46.602.781 93.165 4.085 139.407 9.927-4.305 24.419-14.166 88.083-14.166 158.759 0 70.672 9.848 134.333 14.148 158.753-7.035.89-14.079 1.724-21.128 2.498-5.147.564-8.952 4.94-8.911 10.009.003.338.022.68.06 1.023.602 5.49 5.535 9.459 11.03 8.851 7.237-.793 14.468-1.65 21.691-2.563l2.624 28.994c.044.499-.114.996-.435 1.366-4.323 4.978.321-.37 0 0z"/><path d="m362.849 427.349c-2.103-5.043-8.006-7.482-13.06-5.41-5.041 2.1-7.478 8.013-5.41 13.061 2.093 5.02 8.028 7.507 13.06 5.41 5.035-2.064 7.498-8.046 5.41-13.061-.25-.599.25.601 0 0z"/></g></g></svg>