<svg height="511pt" viewBox="-30 0 511 511.99972" width="511pt" xmlns="http://www.w3.org/2000/svg"><path d="m261.636719 134.492188c-4.144531 0-7.5 3.355468-7.5 7.5 0 15.4375-12.5625 27.996093-28 27.996093s-27.996094-12.558593-27.996094-27.996093c0-4.144532-3.359375-7.5-7.5-7.5-4.144531 0-7.5 3.355468-7.5 7.5 0 23.707031 19.289063 42.996093 42.996094 42.996093s42.996093-19.289062 42.996093-42.996093c0-4.144532-3.355468-7.5-7.496093-7.5zm0 0"/><path d="m175.890625 99.992188v-10.996094c0-4.144532-3.359375-7.5-7.5-7.5s-7.5 3.355468-7.5 7.5v10.996094c0 4.144531 3.359375 7.5 7.5 7.5s7.5-3.355469 7.5-7.5zm0 0"/><path d="m291.382812 99.992188v-10.996094c0-4.144532-3.359374-7.5-7.5-7.5-4.140624 0-7.5 3.355468-7.5 7.5v10.996094c0 4.144531 3.359376 7.5 7.5 7.5 4.140626 0 7.5-3.355469 7.5-7.5zm0 0"/><path d="m450.25 248.609375c-5.601562-22.273437-26.183594-39.035156-50.488281-39.035156h-87.875c23.371093-22.96875 36.757812-54.550781 36.582031-87.910157-.355469-66.234374-54.875-121.664062-122.351562-121.664062-53.242188 0-99.582032 34.226562-116.050782 83.621094-1.308594 3.929687.816406 8.179687 4.742188 9.488281 3.933594 1.308594 8.175781-.8125 9.488281-4.742187 14.84375-44.535157 56.363281-73.984376 103.378906-73.355469 58.023438.808593 105.480469 48.6875 105.792969 106.734375.1875 35.628906-17.261719 68.953125-46.683594 89.144531-6.050781 4.148437-3.109375 13.683594 4.242188 13.683594h79.269531v72.558593h-28.101563c-21.148437 0-34.378906 22.882813-23.792968 41.210938l42.851562 74.222656-59.675781 41.761719-36.078125-62.492187c-17.488281-30.289063-61.210938-30.328126-78.722656 0l-36.386719 63.023437-23.238281-16.265625c-3.394532-2.371094-8.070313-1.546875-10.445313 1.84375-2.375 3.394531-1.550781 8.070312 1.84375 10.445312l24.3125 17.015626-6.304687 10.921874c-16.0625 27.820313-58.125 22.386719-66.464844-8.75-2.507812-9.359374-1.222656-19.136718 3.625-27.527343l9.46875-16.40625 12.070312 8.445312c3.390626 2.375 8.066407 1.546875 10.441407-1.84375 2.375-3.394531 1.550781-8.070312-1.84375-10.445312l-13.136719-9.195313 43.15625-74.75c10.574219-18.3125-2.621094-41.214844-23.792969-41.214844h-28.101562v-72.558593h79.269531c7.335938 0 10.304688-9.523438 4.242188-13.683594-31.136719-21.371094-49.167969-57.742187-46.398438-96.359375.296875-4.132812-2.8125-7.722656-6.945312-8.019531-4.117188-.296875-7.71875 2.8125-8.015626 6.945312-2.636718 36.78125 11.289063 71.5625 36.261719 96.117188-81.28125 0-87.855469 0-88.210937 0-45.828125.296875-68.691406 54.960937-36.953125 87.230469 9.71875 9.886718 22.707031 15.328124 36.566406 15.328124h58.285156c9.601563 0 15.613281 10.386719 10.804688 18.710938-6.761719 11.71875-49.757813 86.183594-60.15625 104.199219-21 36.367187 8.597656 81.285156 50.113281 76.578125 15.789062-1.789063 30.335938-10.804688 38.703125-25.300782l50.222656-86.984374c11.714844-20.296876 41.007813-20.320313 52.742188 0 51.054687 87.550781 50.222656 89.265624 58.019531 97.261718 27.957031 28.503906 75.9375 15.429688 86.140625-22.644531 3.542969-13.230469 1.726563-27.050781-5.125-38.910156-17.425781-30.1875-40.589844-70.3125-60.15625-104.199219-4.800781-8.3125 1.191406-18.710938 10.804687-18.710938h58.289063c34.007813 0 57.664063-32.085937 49.765625-63.523437zm-398.457031 48.523437c-20.253907 0-36.613281-16.554687-36.273438-36.902343.328125-19.664063 16.921875-35.65625 36.996094-35.65625h14.464844v72.558593zm330.386719 172.9375c-8.34375 31.144532-50.410157 36.554688-66.460938 8.75l-6.613281-11.453124 59.671875-41.761719 9.777344 16.9375c4.847656 8.390625 6.136718 18.167969 3.625 27.527343zm44.171874-183.78125c-14.691406 14.941407-32.121093 9.835938-41.058593 10.84375v-72.558593h14.46875c32.554687 0 49.222656 38.703125 26.589843 61.714843zm0 0"/><path d="m226.136719 226.355469c-19.019531 0-34.496094 15.476562-34.496094 34.496093 0 19.023438 15.476563 34.5 34.496094 34.5 19.023437 0 34.5-15.476562 34.5-34.5 0-19.019531-15.476563-34.496093-34.5-34.496093zm0 53.996093c-10.75 0-19.5-8.746093-19.5-19.5 0-10.75 8.75-19.496093 19.5-19.496093s19.5 8.746093 19.5 19.496093c0 10.753907-8.746094 19.5-19.5 19.5zm0 0"/></svg>