<svg id="Capa_1" enable-background="new 0 0 512.436 512.436" height="512" viewBox="0 0 512.436 512.436" width="512" xmlns="http://www.w3.org/2000/svg"><g><path d="m348.778 435.589v-201.657c0-5.125-2.569-9.654-6.48-12.389v-4.326c0-6.677-2.316-13.202-6.523-18.377-.189-.232-.189-.625.001-.858 4.206-5.174 6.522-11.699 6.522-18.376s-2.316-13.202-6.522-18.376c-.189-.233-.189-.627 0-.86 4.206-5.174 6.522-11.699 6.522-18.375 0-6.677-2.316-13.202-6.522-18.376-.189-.233-.189-.627 0-.86 4.206-5.174 6.522-11.699 6.522-18.375 0-6.678-2.316-13.204-6.522-18.376-.189-.233-.189-.627 0-.86 4.206-5.174 6.522-11.699 6.522-18.376s-2.316-13.203-6.522-18.374c-.189-.234-.189-.629-.001-.861 4.207-5.173 6.523-11.699 6.523-18.376 0-16.08-13.081-29.161-29.159-29.161h-4.14c-4.143 0-7.5 3.357-7.5 7.5s3.357 7.5 7.5 7.5h4.14c7.808 0 14.159 6.352 14.159 14.159 0 3.287-1.093 6.369-3.161 8.913-4.66 5.732-4.66 14.053.001 19.787 2.067 2.542 3.16 5.624 3.16 8.911s-1.093 6.369-3.161 8.913c-4.661 5.732-4.661 14.054.001 19.787 2.067 2.542 3.16 5.624 3.16 8.912 0 3.287-1.093 6.368-3.161 8.912-4.661 5.732-4.661 14.054 0 19.786 2.068 2.544 3.161 5.626 3.161 8.913s-1.093 6.368-3.161 8.912c-4.661 5.732-4.661 14.054 0 19.786 2.068 2.544 3.161 5.626 3.161 8.913s-1.093 6.369-3.16 8.912c-4.663 5.732-4.663 14.055-.001 19.786 2.068 2.544 3.161 5.626 3.161 8.913v1.6h-141.16v-1.6c0-3.287 1.093-6.369 3.16-8.912 4.663-5.732 4.663-14.055.001-19.786-2.068-2.544-3.161-5.626-3.161-8.913s1.093-6.369 3.161-8.913c4.661-5.732 4.661-14.054 0-19.786-2.068-2.544-3.161-5.625-3.161-8.912s1.093-6.369 3.161-8.913c4.661-5.732 4.661-14.054 0-19.786-2.068-2.544-3.161-5.625-3.161-8.912 0-3.288 1.093-6.37 3.161-8.913 4.661-5.732 4.661-14.054 0-19.786-2.068-2.544-3.161-5.626-3.161-8.913s1.093-6.369 3.162-8.913c4.659-5.732 4.659-14.053-.002-19.787-2.067-2.542-3.16-5.624-3.16-8.911 0-7.808 6.352-14.159 14.159-14.159h76.74c4.143 0 7.5-3.357 7.5-7.5s-3.357-7.5-7.5-7.5h-76.74c-16.078 0-29.159 13.081-29.159 29.159 0 6.677 2.316 13.203 6.522 18.374.189.234.189.629.001.861-4.207 5.173-6.523 11.699-6.523 18.376s2.316 13.202 6.522 18.376c.189.233.189.627.001.859-4.207 5.173-6.523 11.699-6.523 18.377 0 6.676 2.316 13.201 6.522 18.375.189.233.189.627 0 .86-4.206 5.174-6.522 11.699-6.522 18.376 0 6.676 2.316 13.201 6.522 18.375.189.233.189.627 0 .86-4.206 5.174-6.522 11.699-6.522 18.376s2.316 13.202 6.523 18.377c.189.232.189.625-.001.858-4.206 5.174-6.522 11.699-6.522 18.376v3.691c-4.467 2.629-7.48 7.475-7.48 13.023v18.419c0 4.143 3.357 7.5 7.5 7.5s7.5-3.357 7.5-7.5v-18.419c0-.063.052-.115.115-.115h150.653l-121.257 97.123-29.512-18.093v-28.534c0-4.143-3.357-7.5-7.5-7.5s-7.5 3.357-7.5 7.5v151.276c0 10.631 4.823 20.386 12.715 26.827l-3.515 2.819c-5.488 4.402-8.637 10.962-8.637 17.999v14.6c0 8.052 6.55 14.602 14.602 14.602h154.791c8.052 0 14.602-6.55 14.602-14.602v-14.6c0-7.037-3.148-13.597-8.637-17.999l-3.515-2.819c7.892-6.438 12.715-16.193 12.715-26.824zm-27.407 18.242h-73.543c-4.143 0-7.5 3.357-7.5 7.5s3.357 7.5 7.5 7.5h72.26l10.105 8.105c1.92 1.54 3.021 3.836 3.021 6.298v14.201h-153.993v-14.201c0-2.462 1.102-4.758 3.021-6.298l10.105-8.105h25.963c4.143 0 7.5-3.357 7.5-7.5s-3.357-7.5-7.5-7.5h-27.245c-7.46-2.952-12.407-10.143-12.407-18.242v-105.149l15 9.197v87.135c0 7.858 6.393 14.251 14.251 14.251h96.619c7.858 0 14.251-6.393 14.251-14.251v-18.512c0-4.143-3.357-7.5-7.5-7.5s-7.5 3.357-7.5 7.5v17.764h-95.121v-79.925c3.008-.091 5.982-1.122 8.43-3.084l86.691-69.438v102.72c0 4.143 3.357 7.5 7.5 7.5s7.5-3.357 7.5-7.5v-114.734l15-12.015v186.041c-.001 8.099-4.947 15.29-12.408 18.242z"/><path d="m254.796 61.164c0 12.605 10.256 22.861 22.861 22.861s22.861-10.256 22.861-22.861-10.256-22.86-22.861-22.86-22.861 10.255-22.861 22.86zm30.723 0c0 4.335-3.526 7.861-7.861 7.861s-7.861-3.526-7.861-7.861c0-4.334 3.526-7.86 7.861-7.86s7.861 3.526 7.861 7.86z"/><path d="m287.145 198.454c11.926 0 21.629-9.703 21.629-21.629s-9.703-21.628-21.629-21.628-21.628 9.702-21.628 21.628 9.702 21.629 21.628 21.629zm0-28.257c3.655 0 6.629 2.974 6.629 6.628 0 3.655-2.974 6.629-6.629 6.629-3.654 0-6.628-2.974-6.628-6.629 0-3.654 2.973-6.628 6.628-6.628z"/><path d="m246.134 160.487c2.449 0 4.88-.586 7.118-1.744 3.685-1.906 6.406-5.133 7.663-9.085l4.172-13.114c2.595-8.158-1.933-16.909-10.092-19.506l-19.702-6.267c-8.163-2.6-16.91 1.931-19.508 10.091l-4.17 13.111c-1.259 3.953-.901 8.159 1.005 11.844 1.905 3.685 5.133 6.406 9.086 7.664l19.702 6.268c1.552.493 3.143.738 4.726.738zm-20.192-21.562c-.101-.194-.05-.351-.033-.403l4.17-13.111c.072-.226.281-.37.506-.37.053 0 .106.008.16.025l19.702 6.267c.278.089.434.388.345.666l-4.172 13.113c-.017.052-.066.209-.261.31s-.352.049-.404.033l-19.702-6.268c-.052-.016-.209-.067-.311-.262z"/><path d="m232.936 46.979c1.43 0 2.875-.408 4.153-1.261 3.446-2.297 4.378-6.954 2.08-10.4l-3.614-5.422c-2.297-3.446-6.954-4.377-10.4-2.08s-4.378 6.954-2.08 10.4l3.614 5.422c1.445 2.169 3.823 3.341 6.247 3.341z"/><path d="m214.459 76.742c-3.527 2.171-4.628 6.791-2.457 10.318 1.417 2.302 3.877 3.57 6.395 3.57 1.341 0 2.698-.359 3.924-1.113l5.873-3.614c3.527-2.171 4.628-6.791 2.457-10.318s-6.79-4.627-10.318-2.457z"/><path d="m293.019 129.657c4.143 0 7.5-3.357 7.5-7.5v-5.749c0-4.143-3.357-7.5-7.5-7.5s-7.5 3.357-7.5 7.5v5.749c0 4.143 3.357 7.5 7.5 7.5z"/><path d="m225.101 178.658-4.744 8.707c-1.981 3.638-.64 8.193 2.997 10.175 1.141.621 2.369.915 3.582.915 2.657 0 5.231-1.415 6.593-3.912l4.744-8.707c1.981-3.638.64-8.193-2.997-10.175-3.64-1.982-8.193-.64-10.175 2.997z"/></g></svg>