<svg id="Capa_1" enable-background="new 0 0 512 512" height="512" viewBox="0 0 512 512" width="512" xmlns="http://www.w3.org/2000/svg"><g><path d="m512 118.455c0-6.011-2.341-11.661-6.59-15.909l-21.126-21.127c-2.93-2.929-7.679-2.93-10.606-.001-2.93 2.929-2.93 7.678-.001 10.606l19.793 19.794-49.563 1.172c-2.038.073-4.078-.755-5.535-2.213l-8.301-8.301c-.094-.101-.192-.196-.291-.291l-28.427-28.427c-1.459-1.458-2.266-3.477-2.213-5.572l1.031-49.667 48.783 48.783c2.93 2.928 7.678 2.928 10.607 0 2.929-2.93 2.929-7.678 0-10.607l-50.106-50.104c-4.249-4.25-9.899-6.591-15.91-6.591s-11.661 2.341-15.91 6.59l-67.32 67.32c-2.929 2.93-2.929 7.678 0 10.607 1.465 1.464 3.385 2.196 5.304 2.196s3.839-.732 5.304-2.196l64.208-64.209-.987 47.534c-.155 6.15 2.251 12.173 6.602 16.524l17.002 17.002-25.607 1.969c-6.2.479-11.046 5.325-11.521 11.524l-2.728 35.454-35.453 2.728c-6.203.476-11.05 5.322-11.525 11.523l-2.366 30.762-54.219-54.219 31.987-31.985c2.929-2.93 2.929-7.678 0-10.607-2.93-2.927-7.679-2.929-10.606 0l-32.871 32.869c-6.391-2.747-14.091-1.529-19.303 3.68l-228.411 228.411c-3.305 3.305-5.125 7.7-5.125 12.375s1.82 9.069 5.125 12.374c9.836 9.839 37.327 37.326 47.367 47.367 2.93 2.928 7.678 2.928 10.607 0 2.929-2.93 2.929-7.678 0-10.607l-27.678-27.677 231.946-231.945 79.894 79.894-231.945 231.944-27.408-27.408c-2.931-2.929-7.679-2.927-10.607 0-2.929 2.93-2.929 7.678 0 10.607 9.888 9.887 37.188 37.191 46.474 46.473 3.305 3.306 7.699 5.126 12.374 5.126s9.069-1.82 12.375-5.125l228.41-228.41c5.211-5.212 6.428-12.913 3.68-19.304l124.795-124.796c4.25-4.249 6.591-9.899 6.591-15.91zm-179.021 84.836 2.728-35.455 35.456-2.728c6.201-.478 11.047-5.325 11.522-11.524l2.728-35.454 36.305-2.792 6.047 6.047c3.374 3.444 10.177 6.811 16.507 6.603l47.424-1.122-120.806 120.805-39.378-39.379c.808-1.504 1.328-3.192 1.467-5.001zm-123.931-.823h-21.699l20.353-20.353h21.698zm-35.352 35.351h-21.699l20.352-20.352h21.699zm-35.353 35.353h-21.699l20.353-20.353h21.699zm-35.352 35.352h-21.699l20.353-20.353h21.699zm-35.352 35.352h-21.699l20.352-20.352h21.698zm-51.908 33.742c-.637-.637-.731-1.38-.731-1.767s.095-1.131.732-1.768l15.208-15.208h21.698l-27.825 27.825zm228.669-210.503h-21.699l21.441-21.441c.637-.638 1.381-.732 1.768-.732s1.131.095 1.768.732l9.082 9.082zm-41.006 243.225 20.352-20.352v20.45l-20.352 20.352zm-15 35.45-20.353 20.353v-20.45l20.353-20.353zm50.351-70.802 20.353-20.353v20.45l-20.353 20.353zm35.353-35.352 20.353-20.353v20.45l-20.353 20.353zm35.352-35.353 20.352-20.352v20.45l-20.352 20.352zm-171.534 191.985c-.637.638-1.381.732-1.768.732s-1.13-.095-1.767-.732l-8.458-8.458 27.117-27.117v20.45zm228.41-228.411-21.524 21.524v-20.45l13.067-13.067 8.458 8.458c.638.637.732 1.381.732 1.768s-.095 1.131-.733 1.767z"/><path d="m273.239 276.856c-2.929 2.93-2.929 7.678 0 10.607 2.93 2.928 7.678 2.928 10.607 0l24.82-24.82c6.822-6.823 6.822-17.926 0-24.748l-33.937-33.938c-6.824-6.822-17.926-6.822-24.75 0l-94.741 94.743c-6.822 6.823-6.822 17.926 0 24.748l33.937 33.938c3.306 3.305 7.7 5.125 12.375 5.125 4.674 0 9.068-1.82 12.374-5.125l45.251-45.25c2.929-2.93 2.929-7.678 0-10.607-2.929-2.928-7.677-2.928-10.607 0l-45.251 45.25c-.974.974-2.559.975-3.534.001l-33.937-33.938c-.975-.975-.975-2.56 0-3.534l94.742-94.743c.975-.977 2.561-.976 3.535-.001l33.937 33.938c.975.975.975 2.56 0 3.534z"/><path d="m252.103 249.915-50.907 50.907c-2.929 2.93-2.929 7.678 0 10.607 1.465 1.464 3.385 2.196 5.304 2.196s3.839-.732 5.304-2.196l50.907-50.907c2.929-2.93 2.929-7.678 0-10.607-2.931-2.928-7.679-2.928-10.608 0z"/><path d="m145.089 423.566c.016-.008.032-.013.048-.021.91-.466 22.307-11.671 22.307-34.534 0-21.118-19.263-43.329-20.082-44.264-1.425-1.624-3.479-2.556-5.64-2.556s-4.215.932-5.64 2.556c-.552.629-9.458 10.907-15.222 23.998-24.427 2.095-49.023 23.411-50.109 24.363-1.624 1.424-2.556 3.479-2.556 5.64s.932 4.215 2.556 5.64c1.143 1.002 28.288 24.545 53.894 24.545 7.172 0 14.047-1.813 20.444-5.367zm-3.359-61.496c5.008 7.376 10.713 17.979 10.713 26.94 0 9.298-6.559 15.756-10.753 18.935-4.185-3.14-10.689-9.533-10.689-18.935 0-8.92 5.719-19.545 10.729-26.94zm-25.46 22.574c-1.792 9.774 3.813 23.614 9.811 29.242-12.539.793-29.431-8.702-38.149-15.138 6.845-4.885 17.607-11.54 28.338-14.104z"/></g></svg>