<svg id="Capa_1" enable-background="new 0 0 511.973 511.973" height="512" viewBox="0 0 511.973 511.973" width="512" xmlns="http://www.w3.org/2000/svg"><g><path d="m181.312 326.6c0 8.458 1.445 18.175 4.179 28.1 5.726 20.813 16.34 40.769 29.116 54.743 1.89 2.071 3.862 4.043 5.872 5.871 11.302 10.244 23.247 15.438 35.505 15.438 17.202 0 34.56-10.841 48.874-30.528 15.432-21.225 25.8-50.811 25.8-73.621 0-19.986-8.219-33.355-24.427-39.738-1.129-.445-2.3-.841-3.488-1.216 8.165-5.412 14.006-12.075 16.065-18.979 1.743-5.843.505-11.433-3.398-15.335-9.812-9.81-20.509-2.296-26.2 2.111.266-5.007-.819-11.17-7.86-13.868-9.541-3.653-16.245 5.154-20.681 10.982-1.3 1.708-3.313 4.354-4.683 5.599-1.369-1.245-3.384-3.891-4.684-5.6-4.437-5.829-11.145-14.636-20.68-10.981-7.042 2.697-8.128 8.861-7.862 13.868-5.69-4.408-16.387-11.918-26.2-2.109-3.901 3.902-5.14 9.492-3.396 15.336 2.059 6.903 7.9 13.565 16.063 18.977-1.188.375-2.359.771-3.488 1.216-16.208 6.38-24.427 19.749-24.427 39.734zm134.346.003c0 19.582-9.43 46.229-22.933 64.8-11.416 15.702-24.465 24.349-36.741 24.349-8.418 0-16.974-3.887-25.423-11.545-1.658-1.507-3.297-3.146-4.878-4.879-11.069-12.107-20.688-30.277-25.73-48.608-2.382-8.647-3.641-16.987-3.641-24.119 0-27.462 17.27-30.192 59.672-30.192 16.509.025 33.538-.002 44.751 4.414 7.379 2.904 14.923 8.24 14.923 25.78zm-108.276-64.861c.102-.089.18-.146.233-.182 1.411.186 4.863 2.884 6.742 4.354 4.258 3.329 8.66 6.771 14.164 6.771 4.398 0 6.906-2.22 8.009-3.543 2.641-3.167 2.625-6.967 2.138-10.414.248.324.483.633.698.916 4.272 5.614 9.114 11.977 16.62 11.977s12.348-6.363 16.619-11.976c.215-.282.45-.591.698-.915-.487 3.447-.504 7.246 2.137 10.413 1.104 1.323 3.61 3.543 8.008 3.543 5.506 0 9.909-3.443 14.167-6.772 1.879-1.469 5.331-4.168 6.742-4.353.053.035.131.093.233.182-.144 3.123-9.029 15.078-30.711 19.871-5.644-.193-11.401-.204-17.106-.204-.263 0-.527 0-.789 0-5.959 0-11.983.005-17.883.207-21.692-4.794-30.578-16.753-30.719-19.875z"/><path d="m219.827 319.103c-4.143 0-7.5 3.358-7.5 7.5v9.742c0 4.142 3.357 7.5 7.5 7.5s7.5-3.358 7.5-7.5v-9.742c0-4.142-3.357-7.5-7.5-7.5z"/><path d="m255.985 319.103c-4.143 0-7.5 3.358-7.5 7.5v9.742c0 4.142 3.357 7.5 7.5 7.5s7.5-3.358 7.5-7.5v-9.742c0-4.142-3.357-7.5-7.5-7.5z"/><path d="m292.143 319.103c-4.143 0-7.5 3.358-7.5 7.5v9.742c0 4.142 3.357 7.5 7.5 7.5s7.5-3.358 7.5-7.5v-9.742c0-4.142-3.357-7.5-7.5-7.5z"/><path d="m237.906 360.805c-4.143 0-7.5 3.358-7.5 7.5v9.742c0 4.142 3.357 7.5 7.5 7.5s7.5-3.358 7.5-7.5v-9.742c0-4.142-3.357-7.5-7.5-7.5z"/><path d="m274.064 360.805c-4.143 0-7.5 3.358-7.5 7.5v9.742c0 4.142 3.357 7.5 7.5 7.5s7.5-3.358 7.5-7.5v-9.742c0-4.142-3.357-7.5-7.5-7.5z"/><path d="m474.506 200.792c2.437-2.422 4.571-5.395 6.387-8.908 8.345-16.139 5.482-31.152-8.507-44.62-11.187-10.77-28.407-19.766-46.639-29.29-8.416-4.396-17.044-8.904-25.291-13.701 3.606-4.579 6.067-10.03 7.059-15.857 3.228-18.988 3.228-38.245 0-57.237-2.792-16.38-16.812-28.663-33.333-29.205-12.204-.41-24.28-.75-35.891-1.013-.059-.001-.115-.002-.173-.002-4.063 0-7.403 3.247-7.495 7.331-.094 4.141 3.188 7.574 7.328 7.667 11.557.261 23.577.601 35.733 1.008 9.435.31 17.443 7.347 19.043 16.73 2.943 17.321 2.943 34.886 0 52.206-.844 4.959-3.563 9.431-7.518 12.509-34.877 4.892-69.947 7.8-105.054 8.713 11.113-7.87 23.221-19.104 24.078-31.113.367-5.153-1.111-12.648-10.244-19.087-8.71-6.141-18.497-6.497-26.851-.98-4.6 3.039-8.36 7.567-11.171 13.114-2.811-5.547-6.571-10.075-11.171-13.114-8.356-5.52-18.142-5.161-26.853.98-9.132 6.438-10.61 13.933-10.243 19.086.857 12.008 12.965 23.243 24.078 31.113-35.092-.913-70.147-3.819-105.009-8.707-3.959-3.078-6.681-7.552-7.526-12.514-2.943-17.321-2.943-34.886 0-52.204 1.6-9.386 9.608-16.424 19.048-16.734 56.388-1.89 113.503-2.42 169.767-1.577.038 0 .076.001.114.001 4.09 0 7.436-3.284 7.497-7.388.062-4.142-3.245-7.549-7.387-7.611-56.5-.845-113.862-.312-170.486 1.585-16.525.542-30.546 12.825-33.338 29.209-3.228 18.988-3.228 38.245 0 57.235.991 5.824 3.451 11.274 7.056 15.852-8.249 4.8-16.881 9.309-25.299 13.708-18.229 9.524-35.446 18.519-46.631 29.289-13.987 13.468-16.849 28.48-8.504 44.618 1.817 3.513 3.95 6.487 6.387 8.908-.889 3.521-1.511 7.11-1.843 10.723-7.149 76.862-7.149 154.807 0 231.668 3.213 34.575 30.785 61.348 65.56 63.659 51.367 3.42 103.076 5.131 154.802 5.13 51.714 0 103.444-1.71 154.793-5.13 34.781-2.311 62.358-29.083 65.571-63.659 7.14-76.862 7.14-154.806.001-231.662-.334-3.617-.956-7.207-1.845-10.729zm-199.099-132.332c1.051-.695 2.443-1.4 4.237-1.4 1.577 0 3.464.545 5.703 2.124 4.126 2.91 3.979 4.979 3.925 5.758-.481 6.788-12.515 16.766-24.017 24.023-.508-12.625 2.627-25.535 10.152-30.505zm-52.743 6.484c-.056-.779-.203-2.85 3.925-5.76 2.239-1.579 4.126-2.124 5.703-2.124 1.794 0 3.187.706 4.238 1.4 7.526 4.972 10.661 17.887 10.15 30.514-11.498-7.245-23.53-17.219-24.016-24.03zm-129.503 56.328c10.754-5.619 21.842-11.425 32.311-17.893 40.52 5.647 81.295 8.661 122.089 9.024-3.506 5.894-9.9 12.312-21.536 15.066-4.03.954-6.524 4.995-5.571 9.025.817 3.45 3.895 5.774 7.293 5.774.571 0 1.152-.065 1.733-.203 12.158-2.877 20.669-8.925 26.46-15.74 5.376 6.371 13.704 12.708 26.517 15.74.581.138 1.162.203 1.733.203 3.397 0 6.476-2.324 7.293-5.774.953-4.031-1.541-8.071-5.571-9.025-11.637-2.754-18.032-9.172-21.537-15.066 40.801-.363 81.584-3.378 122.112-9.027 10.47 6.468 21.559 12.274 32.316 17.893 41.902 21.89 59.179 33.587 48.767 53.726-2.26 4.37-4.983 6.997-8.328 8.031-9.556 2.951-25.271-5.514-40.472-13.701-16.584-8.931-33.739-18.166-48.613-15.803-7.04 1.118-15.858 5.548-17.893 20.308-1.152 8.363.047 18.514 1.208 28.331 1.389 11.75 3.117 26.374-.985 30.989-.401.453-1.625 1.829-5.795 1.829-15.382 0-28.814-15.509-41.805-30.508-14.277-16.485-29.042-33.532-48.905-33.532-19.864 0-34.626 17.047-48.901 33.532-12.987 14.999-26.417 30.508-41.799 30.508-4.17 0-5.394-1.377-5.796-1.829-4.104-4.617-2.375-19.242-.986-30.994 1.16-9.815 2.359-19.965 1.207-28.328-2.034-14.758-10.851-19.188-17.889-20.306-14.884-2.36-32.036 6.872-48.622 15.805-15.198 8.186-30.919 16.649-40.463 13.699-3.344-1.034-6.068-3.661-8.328-8.032-10.413-20.136 6.86-31.833 48.756-53.722zm187.521 78.778c-8.127-1.043-16.378-1.58-24.697-1.58-8.321 0-16.574.537-24.703 1.581 8.102-8.189 16.167-14.111 24.699-14.111 8.533-.001 16.598 5.921 24.701 14.11zm180.732 231.746c-2.527 27.198-24.241 48.26-51.631 50.08-102.051 6.795-205.542 6.795-307.604 0-27.383-1.82-49.092-22.882-51.619-50.081-7.063-75.94-7.063-152.95.001-228.898.148-1.613.391-3.216.681-4.81 14.918 2.837 32.262-6.502 49.067-15.553 14.393-7.751 29.288-15.765 39.156-14.197 1.874.297 4.439.705 5.382 7.539.89 6.461-.195 15.642-1.244 24.521-1.539 13.022-3.114 26.395.728 36.164-27.724 23.094-42.908 53.26-42.908 85.589 0 33.692 16.57 65.164 46.659 88.616 1.369 1.067 2.993 1.585 4.605 1.585 2.232 0 4.441-.993 5.92-2.89 2.547-3.267 1.963-7.98-1.305-10.526-26.361-20.547-40.88-47.817-40.88-76.785 0-27.94 13.446-54.194 37.978-74.45 3.118 1.499 6.743 2.28 10.881 2.28 20.549 0 35.525-15.497 49.67-31.696 13.235-3.182 27.023-4.814 41.034-4.814 14.01 0 27.796 1.632 41.03 4.813 14.149 16.2 29.127 31.697 49.676 31.697 4.136 0 7.759-.781 10.876-2.277 24.53 20.255 37.975 46.509 37.975 74.447 0 59.932-62.606 108.69-139.561 108.69-26.48 0-52.255-5.821-74.536-16.833-3.715-1.835-8.212-.313-10.047 3.4s-.312 8.211 3.4 10.047c24.337 12.028 52.409 18.386 81.183 18.386 40.962 0 79.543-12.66 108.638-35.646 29.613-23.397 45.923-54.665 45.923-88.043 0-32.327-15.182-62.49-42.902-85.584 3.843-9.769 2.267-23.143.727-36.165-1.049-8.879-2.135-18.061-1.244-24.522.942-6.835 3.51-7.243 5.386-7.541 9.875-1.566 24.758 6.444 39.147 14.195 16.808 9.052 34.152 18.393 49.076 15.555.29 1.595.533 3.2.682 4.817 7.054 75.938 7.054 152.949 0 228.89z"/></g></svg>