<?xml version="1.0" encoding="iso-8859-1"?>
<!-- Generator: Adobe Illustrator 19.0.0, SVG Export Plug-In . SVG Version: 6.00 Build 0)  -->
<svg version="1.1" id="Capa_1" xmlns="http://www.w3.org/2000/svg" xmlns:xlink="http://www.w3.org/1999/xlink" x="0px" y="0px"
	 viewBox="0 0 479.97 479.97" style="enable-background:new 0 0 479.97 479.97;" xml:space="preserve">
<g>
	<g>
		<path d="M478.776,387.745c-1.465-2.344-4.036-3.766-6.8-3.76h-16.56l-15.44-200c0-48.601-39.399-88-88-88
			c-20.466-0.047-40.293,7.12-56,20.24c-32.458-26.983-79.542-26.983-112,0c-37.489-30.93-92.953-25.613-123.883,11.876
			c-12.841,15.564-19.943,35.067-20.117,55.244l-15.44,200.64H7.976c-4.418,0.013-7.989,3.606-7.976,8.024
			c0.004,1.242,0.297,2.466,0.856,3.576l32,64c1.356,2.69,4.108,4.391,7.12,4.4h400c3.012-0.009,5.764-1.71,7.12-4.4l32-64
			C480.366,393.095,480.245,390.123,478.776,387.745z M351.976,111.985c39.765-0.002,72.001,32.233,72.003,71.997
			c0,0.214-0.001,0.429-0.003,0.643l15.36,199.36h-96l-15.36-200c0.036-20.665-7.248-40.674-20.56-56.48
			C320.073,117.417,335.79,111.943,351.976,111.985z M240.034,112.043c18.826,0.015,36.897,7.404,50.342,20.582
			c13.96,13.683,21.757,32.453,21.6,52l15.36,199.36h-174.72l15.36-200C168.008,144.22,200.27,112.011,240.034,112.043z
			 M55.976,183.985c0-39.765,32.235-72,72-72c16.186-0.042,31.903,5.432,44.56,15.52c-13.248,15.655-20.531,35.492-20.56,56
			l-15.44,200.48h-96L55.976,183.985z M435.016,447.985H44.936l-24-48h438.08L435.016,447.985z"/>
	</g>
</g>
<g>
	<g>
		<path d="M103.976,47.985c-13.255,0-24-10.745-24-24c0-4.418-3.582-8-8-8s-8,3.582-8,8c0,13.255-10.745,24-24,24
			c-4.418,0-8,3.582-8,8s3.582,8,8,8c13.255,0,24,10.745,24,24c0,4.418,3.582,8,8,8s8-3.582,8-8c0-13.255,10.745-24,24-24
			c4.418,0,8-3.582,8-8S108.394,47.985,103.976,47.985z M71.976,63.985c-2.274-3.032-4.968-5.726-8-8c3.032-2.274,5.726-4.968,8-8
			c2.274,3.032,4.968,5.726,8,8C76.944,58.259,74.25,60.953,71.976,63.985z"/>
	</g>
</g>
<g>
	<g>
		<path d="M103.976,415.985h-32c-4.418,0-8,3.582-8,8s3.582,8,8,8h32c4.418,0,8-3.582,8-8S108.394,415.985,103.976,415.985z"/>
	</g>
</g>
<g>
	<g>
		<path d="M231.976,415.985h-96c-4.418,0-8,3.582-8,8s3.582,8,8,8h96c4.418,0,8-3.582,8-8S236.394,415.985,231.976,415.985z"/>
	</g>
</g>
<g>
	<g>
		<path d="M231.976,127.985c-22.091,0-40,17.909-40,40c0,4.418,3.582,8,8,8s8-3.582,8-8c0-13.255,10.745-24,24-24
			c4.418,0,8-3.582,8-8S236.394,127.985,231.976,127.985z"/>
	</g>
</g>
<g>
	<g>
		<path d="M119.976,127.985c-22.091,0-40,17.909-40,40c0,4.418,3.582,8,8,8s8-3.582,8-8c0-13.255,10.745-24,24-24
			c4.418,0,8-3.582,8-8S124.394,127.985,119.976,127.985z"/>
	</g>
</g>
<g>
	<g>
		<path d="M359.976,127.985c-4.418,0-8,3.582-8,8s3.582,8,8,8c13.255,0,24,10.745,24,24c0,4.418,3.582,8,8,8s8-3.582,8-8
			C399.976,145.893,382.067,127.985,359.976,127.985z"/>
	</g>
</g>
<g>
</g>
<g>
</g>
<g>
</g>
<g>
</g>
<g>
</g>
<g>
</g>
<g>
</g>
<g>
</g>
<g>
</g>
<g>
</g>
<g>
</g>
<g>
</g>
<g>
</g>
<g>
</g>
<g>
</g>
</svg>
