<svg height="682pt" viewBox="-205 -21 682 682.66669" width="682pt" xmlns="http://www.w3.org/2000/svg"><path d="m53.722656 0h-65.640625s.878907 640 0 640h65.640625zm-18.753906 621.246094h-28.128906v-51.238282c2.816406 2.589844 5.902344 4.917969 9.238281 6.921876 11.652344 6.992187 18.890625 19.773437 18.890625 33.363281zm0-53.476563c-2.816406-2.589843-5.902344-4.917969-9.238281-6.925781-11.652344-6.984375-18.890625-19.773438-18.890625-33.363281v-27.800781c2.816406 2.589843 5.902344 4.921874 9.238281 6.921874 11.652344 6.992188 18.890625 19.773438 18.890625 33.363282zm0-70.328125c-2.816406-2.59375-5.902344-4.921875-9.238281-6.925781-11.652344-6.992187-18.890625-19.773437-18.890625-33.363281v-27.800782c2.816406 2.585938 5.902344 4.914063 9.238281 6.917969 11.652344 6.992188 18.890625 19.777344 18.890625 33.363281zm0-70.332031c-2.816406-2.585937-5.902344-4.917969-9.238281-6.921875-11.652344-6.988281-18.890625-19.777344-18.890625-33.367188v-27.800781c2.816406 2.589844 5.902344 4.921875 9.238281 6.921875 11.652344 6.992188 18.890625 19.777344 18.890625 33.363282zm0-70.328125c-2.816406-2.59375-5.902344-4.921875-9.238281-6.921875-11.652344-6.992187-18.890625-19.777344-18.890625-33.367187v-27.800782c2.816406 2.589844 5.902344 4.917969 9.238281 6.917969 11.652344 6.992187 18.890625 19.777344 18.890625 33.367187zm0-70.332031c-2.816406-2.585938-5.902344-4.917969-9.238281-6.921875-11.652344-6.992188-18.890625-19.777344-18.890625-33.363282v-27.804687c2.816406 2.59375 5.902344 4.921875 9.238281 6.921875 11.652344 6.992188 18.890625 19.777344 18.890625 33.367188zm0-70.324219c-2.816406-2.59375-5.902344-4.921875-9.238281-6.925781-11.652344-6.992188-18.890625-19.777344-18.890625-33.363281v-27.804688c2.816406 2.589844 5.902344 4.917969 9.238281 6.921875 11.652344 6.992187 18.890625 19.773437 18.890625 33.363281zm0-70.335938c-2.816406-2.585937-5.902344-4.914062-9.238281-6.921874-11.652344-6.992188-18.890625-19.773438-18.890625-33.363282v-27.804687c2.816406 2.59375 5.902344 4.921875 9.238281 6.925781 11.652344 6.992188 18.890625 19.773438 18.890625 33.363281zm-28.128906-127.035156h28.128906v56.710938c-2.816406-2.59375-5.902344-4.921875-9.238281-6.925782-11.652344-6.992187-18.890625-19.773437-18.890625-33.363281zm0 0"/><path d="m157.136719 0h-65.640625v640h65.640625zm-18.753907 621.246094h-28.132812v-51.238282c2.820312 2.589844 5.90625 4.917969 9.238281 6.921876 11.65625 6.992187 18.894531 19.773437 18.894531 33.363281zm0-53.476563c-2.820312-2.589843-5.90625-4.917969-9.246093-6.925781-11.648438-6.984375-18.886719-19.773438-18.886719-33.363281v-27.800781c2.820312 2.589843 5.90625 4.921874 9.238281 6.921874 11.65625 6.992188 18.894531 19.773438 18.894531 33.363282zm0-70.328125c-2.820312-2.59375-5.90625-4.921875-9.246093-6.925781-11.648438-6.992187-18.886719-19.773437-18.886719-33.363281v-27.800782c2.820312 2.585938 5.90625 4.914063 9.238281 6.917969 11.65625 6.992188 18.894531 19.777344 18.894531 33.363281zm0-70.332031c-2.820312-2.585937-5.90625-4.917969-9.246093-6.917969-11.648438-6.992187-18.886719-19.777344-18.886719-33.363281v-27.808594c2.820312 2.589844 5.90625 4.921875 9.238281 6.921875 11.65625 6.992188 18.894531 19.777344 18.894531 33.363282zm0-70.328125c-2.820312-2.59375-5.90625-4.921875-9.246093-6.921875-11.648438-6.992187-18.886719-19.777344-18.886719-33.367187v-27.800782c2.820312 2.589844 5.90625 4.917969 9.238281 6.917969 11.65625 6.992187 18.894531 19.777344 18.894531 33.367187zm0-70.332031c-2.820312-2.585938-5.90625-4.917969-9.246093-6.917969-11.648438-6.992188-18.886719-19.78125-18.886719-33.363281v-27.808594c2.820312 2.59375 5.90625 4.921875 9.238281 6.921875 11.65625 6.992188 18.894531 19.777344 18.894531 33.367188zm0-70.324219c-2.820312-2.59375-5.90625-4.921875-9.246093-6.925781-11.648438-6.992188-18.886719-19.777344-18.886719-33.363281v-27.804688c2.820312 2.589844 5.90625 4.917969 9.238281 6.921875 11.65625 6.992187 18.894531 19.773437 18.894531 33.363281zm0-70.335938c-2.820312-2.585937-5.90625-4.914062-9.246093-6.917968-11.648438-6.992188-18.886719-19.777344-18.886719-33.363282v-27.808593c2.820312 2.59375 5.90625 4.921875 9.238281 6.925781 11.65625 6.992188 18.894531 19.773438 18.894531 33.363281zm-28.132812-127.035156h28.132812v56.710938c-2.820312-2.59375-5.90625-4.921875-9.246093-6.925782-11.648438-6.992187-18.886719-19.773437-18.886719-33.363281zm0 0"/><path d="m260.542969 0h-65.636719v640h65.636719zm-46.882813 18.753906h28.128906v56.710938c-2.816406-2.59375-5.902343-4.921875-9.238281-6.925782-11.65625-6.992187-18.890625-19.773437-18.890625-33.363281zm28.128906 602.492188h-28.128906v-51.242188c2.816406 2.59375 5.902344 4.921875 9.242188 6.925782 11.652344 6.992187 18.886718 19.773437 18.886718 33.363281zm0-53.476563c-2.816406-2.589843-5.902343-4.917969-9.238281-6.925781-11.65625-6.984375-18.890625-19.773438-18.890625-33.363281v-27.800781c2.816406 2.585937 5.902344 4.921874 9.242188 6.921874 11.652344 6.992188 18.886718 19.773438 18.886718 33.363282zm0-70.328125c-2.816406-2.59375-5.902343-4.921875-9.238281-6.925781-11.65625-6.992187-18.890625-19.773437-18.890625-33.363281v-27.808594c2.816406 2.59375 5.902344 4.921875 9.242188 6.925781 11.652344 6.992188 18.886718 19.777344 18.886718 33.363281zm0-70.332031c-2.816406-2.585937-5.902343-4.917969-9.238281-6.917969-11.65625-6.992187-18.890625-19.777344-18.890625-33.363281v-27.808594c2.816406 2.585938 5.902344 4.921875 9.242188 6.921875 11.652344 6.992188 18.886718 19.777344 18.886718 33.363282zm0-70.328125c-2.816406-2.59375-5.902343-4.921875-9.238281-6.921875-11.65625-6.992187-18.890625-19.777344-18.890625-33.367187v-27.804688c2.816406 2.59375 5.902344 4.921875 9.242188 6.921875 11.652344 6.992187 18.886718 19.777344 18.886718 33.367187zm0-70.332031c-2.816406-2.585938-5.902343-4.917969-9.238281-6.917969-11.65625-6.992188-18.890625-19.78125-18.890625-33.363281v-27.808594c2.816406 2.585937 5.902344 4.921875 9.242188 6.921875 11.652344 6.992188 18.886718 19.773438 18.886718 33.367188zm0-70.324219c-2.816406-2.59375-5.902343-4.921875-9.238281-6.925781-11.65625-6.992188-18.890625-19.777344-18.890625-33.363281v-27.808594c2.816406 2.59375 5.902344 4.921875 9.242188 6.925781 11.652344 6.992187 18.886718 19.773437 18.886718 33.363281zm0-70.335938c-2.816406-2.585937-5.902343-4.914062-9.238281-6.917968-11.65625-6.992188-18.890625-19.777344-18.890625-33.363282v-27.808593c2.816406 2.589843 5.902344 4.921875 9.242188 6.925781 11.652344 6.984375 18.886718 19.769531 18.886718 33.363281zm0 0"/></svg>