<svg height="512pt" viewBox="0 -106 512.00026 512" width="512pt" xmlns="http://www.w3.org/2000/svg"><path d="m136.203125 152.589844c9.851563 0 58.988281-1.179688 58.988281-24.464844s-49.136718-24.464844-58.988281-24.464844c-9.847656 0-58.984375 1.179688-58.984375 24.464844s49.136719 24.464844 58.984375 24.464844zm0-28.925782c15.707031 0 27.316406 2.21875 33.941406 4.460938-6.625 2.238281-18.234375 4.460938-33.941406 4.460938-15.703125 0-27.3125-2.222657-33.9375-4.460938 6.625-2.242188 18.234375-4.460938 33.9375-4.460938zm0 0"/><path d="m478.929688 97.765625c-15.953126-30.285156-34.96875-56.800781-53.542969-74.660156-27.144531-26.097657-44.527344-25.421875-54.332031-20.257813l-106.992188 56.359375c-8.207031 4.324219-16.816406 14.8125-15.792969 39.898438-25-15.074219-69.6875-22.847657-114.015625-22.847657-66.714844 0-134.253906 17.589844-134.253906 51.210938v120.929688c0 24.554687 36.03125 40.554687 81.453125 47.398437.152344.03125.296875.074219.449219.097656 11.167968 1.664063 22.84375 2.761719 34.855468 3.304688.785157.035156 1.570313.070312 2.359376.101562.847656.035157 1.695312.070313 2.546874.097657 1.667969.054687 3.335938.09375 5.007813.128906.375.007812.753906.015625 1.128906.023437 2.152344.035157 4.300781.054688 6.449219.054688 2.5625 0 5.121094-.027344 7.675781-.082031.3125-.003907.628907-.011719.941407-.019532 2.34375-.050781 4.683593-.125 7.019531-.222656.601562-.023438 1.203125-.054688 1.804687-.082031 1.753906-.078125 3.5-.171875 5.246094-.277344 1.289062-.078125 2.566406-.164063 3.84375-.253906 1-.070313 2-.144531 2.996094-.222657.902344-.070312 1.816406-.125 2.714844-.203124.117187-.011719.230468-.039063.347656-.054688 54.460937-4.789062 101.664062-21.6875 101.664062-49.792969 0-1.257812-.105468-2.539062-.3125-3.816406v-70.261719c.214844.496094.433594.996094.652344 1.496094.378906.882812.757812 1.761719 1.148438 2.644531.445312 1.003907.902343 2.003907 1.355468 3.007813.433594.960937.867188 1.921875 1.3125 2.882812.457032.984375.929688 1.972656 1.394532 2.957032.457031.960937.90625 1.921874 1.371093 2.882812.546875 1.128906 1.113281 2.257812 1.671875 3.386719.40625.8125.800782 1.625 1.210938 2.4375.984375 1.949219 1.988281 3.894531 3.011718 5.839843 1.222657 2.320313 2.46875 4.625 3.738282 6.917969.09375.171875.1875.339844.28125.511719 1.125 2.023438 2.269531 4.035156 3.425781 6.035156.320313.550782.640625 1.097656.960937 1.644532.929688 1.582031 1.867188 3.15625 2.8125 4.71875.605469.996093 1.210938 1.984374 1.824219 2.96875.6875 1.113281 1.378907 2.21875 2.078125 3.316406.371094.589844.734375 1.191406 1.109375 1.777344.054688.082031.121094.15625.179688.238281 25.253906 39.203125 55.847656 69.632812 79.738281 69.628906 4.128906 0 8.0625-.910156 11.726562-2.839844 1.113282-.589843 2.195313-1.277343 3.234376-2.058593l3.007812-1.585938c.003906 0 .007812 0 .007812-.003906l97.203126-51.199219c1.273437-.429687 2.457031-.941406 3.542968-1.511719 29.746094-15.667968 13.832032-83.621094-17.261718-142.644531zm-60.214844 160.492187c7.550781-11.101562 16.207031-22.941406 25.929687-35.453124 5.3125 4.871093 10.625 9.023437 15.851563 12.296874.113281.066407.222656.140626.335937.207032.21875.136718.441407.285156.660157.417968l-33.476563 17.636719zm42.519531-151.171874c34.449219 65.40625 35.003906 110.691406 25.632813 115.628906-.230469.121094-.492188.21875-.769532.300781-.007812.003906-.015625.003906-.027344.007813-.121093.035156-.25.066406-.386718.09375-.109375.019531-.226563.035156-.347656.050781-.019532.003906-.039063.007812-.0625.007812-2.773438.320313-8.089844-.976562-15.769532-6.105469-.054687-.035156-.105468-.070312-.15625-.105468-.285156-.191406-.574218-.390625-.863281-.589844-.179687-.125-.359375-.253906-.542969-.382812-.167968-.117188-.34375-.242188-.515625-.367188-.277343-.199219-.554687-.402344-.839843-.609375-.085938-.066406-.171876-.132813-.257813-.195313-.355469-.261718-.707031-.53125-1.066406-.804687-.023438-.019531-.050781-.039063-.074219-.058594-1.675781-1.292969-3.417969-2.726562-5.226562-4.320312-.007813-.003907-.011719-.007813-.015626-.011719-.152343-.136719-.308593-.277344-.460937-.414062-.28125-.246094-.558594-.496094-.839844-.75-.132812-.121094-.261719-.238282-.394531-.355469-.035156-.035157-.070312-.066407-.105469-.097657-.308593-.285156-.617187-.574218-.933593-.867187-.230469-.214844-.460938-.433594-.695313-.652344-.265625-.253906-.535156-.511719-.804687-.769531-.105469-.097656-.210938-.203125-.316407-.304688-.746093-.722656-1.496093-1.46875-2.246093-2.222656-.605469-.609375-1.207032-1.234375-1.816407-1.863281-.40625-.421875-.8125-.84375-1.222656-1.277344-.695313-.738281-1.394531-1.492187-2.09375-2.257812-.304687-.335938-.613281-.671875-.921875-1.015625-.789062-.878906-1.582031-1.769532-2.371094-2.683594-.210937-.238281-.417968-.480469-.628906-.722656-.875-1.015625-1.75-2.050782-2.625-3.105469-.121094-.148437-.242188-.292969-.363281-.4375-.945313-1.152344-1.894531-2.320313-2.84375-3.511719-.042969-.058594-.085938-.113281-.132813-.171875-6.132812-7.738281-12.195312-16.335937-18.03125-25.570312-.015625-.023438-.03125-.050781-.046875-.074219-.949219-1.503906-1.894531-3.023438-2.828125-4.558594-.105468-.175781-.210937-.351562-.316406-.527344-.847656-1.394531-1.691406-2.800781-2.527344-4.21875-.242187-.410156-.480468-.828124-.71875-1.242187-.699218-1.199219-1.402344-2.402344-2.09375-3.621094-.46875-.832031-.933594-1.675781-1.402344-2.515625-.460937-.828125-.925781-1.648437-1.378906-2.484375-.933594-1.703125-1.859375-3.421875-2.769531-5.15625-1.089844-2.066406-2.144531-4.117187-3.167969-6.144531-.023437-.042969-.039062-.085938-.058594-.128906-11.742187-23.363282-20.242187-46.371094-24.582031-66.542969-1.875-8.828125-2.800781-16.484375-2.972656-22.796875-.015625-.488281-.023437-.96875-.027344-1.441406-.03125-3.3125.15625-6.226563.527344-8.714844.796875-5.328125 2.449219-8.703125 4.644531-9.859375.671875-.355469 1.535156-.539063 2.570313-.539063 5.425781 0 15.636719 5.074219 28.578125 17.519532 17.070312 16.414062 34.726562 41.117187 49.707031 69.558594zm-162.214844 85.445312c-.914062-1.730469-1.808593-3.464844-2.6875-5.199219-.316406-.621093-.621093-1.246093-.929687-1.867187-.550782-1.101563-1.105469-2.203125-1.640625-3.304688-.417969-.859375-.820313-1.71875-1.230469-2.574218-.40625-.84375-.8125-1.691407-1.207031-2.53125-.515625-1.105469-1.019531-2.207032-1.519531-3.308594-.257813-.570313-.523438-1.140625-.777344-1.707032-.625-1.390624-1.234375-2.777343-1.832032-4.164062-.109374-.25-.21875-.5-.328124-.75-2.136719-4.980469-4.125-9.933594-5.945313-14.847656 23.886719-30.019532 57.523437-55.269532 81.160156-70.964844 4.0625 14.398438 9.796875 29.707031 16.933594 45.265625.148437.328125.300781.652344.453125.980469.351562.765625.710938 1.535156 1.070312 2.304687.132813.285157.265626.570313.398438.855469.121094.25.230469.5.351562.753906-22.363281 17.625-50.796874 43.210938-74.65625 74.792969-2.617187-4.488281-5.160156-9.078125-7.613281-13.734375zm-25.636719-115.625 82.015626-43.203125c-.007813.15625-.011719.320313-.019532.476563-.035156.597656-.0625 1.203124-.078125 1.8125-.007812.257812-.019531.515624-.027343.777343-.019532.832031-.03125 1.671875-.027344 2.523438 0 .070312.003906.140625.003906.210937.007812.800782.023438 1.609375.050781 2.425782.007813.289062.019531.582031.03125.875.023438.628906.054688 1.265624.09375 1.902343.015625.292969.03125.589844.050781.886719.054688.863281.121094 1.734375.195313 2.617188.011719.125.023437.253906.035156.378906.074219.832031.160157 1.671875.253907 2.515625.035156.324219.074218.652343.113281.976562.074219.652344.15625 1.308594.246093 1.96875.042969.332031.085938.660157.128907.992188.125.886719.253906 1.773437.394531 2.671875.027344.1875.058594.371094.089844.554687.117187.753907.242187 1.511719.375 2.269531-22.371094 14.394532-56.730469 38.984376-83.636719 69.304688-1.65625-6.132812-2.972656-12.042969-3.902344-17.648438-3.503906-21.09375-.582031-33.082031 3.613281-35.289062zm-25.191406 79.078125v48.347656c-6.304687-11.855469-12.746094-25.03125-19.285156-39.460937 7.214844-2.585938 13.726562-5.542969 19.285156-8.886719zm-113.9375-59.722656c73.921875 0 114.25 20.613281 114.25 31.207031 0 .242188-.03125.496094-.074218.75-.007813.035156-.019532.066406-.027344.097656-.023438.125-.058594.253906-.097656.382813-.035157.121093-.078126.246093-.128907.371093 0 .007813-.003906.015626-.007812.023438-1.050781 2.707031-4.929688 7.035156-13.753907 11.636719-5.203124 2.671875-11.824218 5.324219-19.804687 7.738281-.621094.1875-1.242187.371094-1.871094.554688-.371093.105468-.742187.214843-1.121093.320312-20.054688 5.621094-45.078126 8.867188-71.554688 9.285156-.074219 0-.148438 0-.222656 0-1.855469.03125-3.71875.042969-5.585938.042969-2.347656 0-4.65625-.019531-6.933594-.058594-.039062-.003906-.078124-.007812-.121093-.007812-26.136719-.5-50.441407-3.703125-70.308594-9.261719-24.195313-6.839844-36.886719-15.933594-36.886719-21.875 0-10.59375 40.324219-31.207031 114.25-31.207031zm-114.25 152.136719v-92.699219c.132813.082031.277344.160156.410156.238281.515626.3125 1.042969.617188 1.578126.921875.21875.125.433593.25.65625.375.738281.410156 1.488281.816406 2.253906 1.214844.019531.011719.039062.019531.058594.03125.753906.390625 1.523437.773437 2.304687 1.15625.234375.113281.46875.226562.703125.335937.609375.292969 1.230469.582032 1.855469.867188.226562.101562.457031.207031.6875.3125 1.6875.753906 3.425781 1.480468 5.21875 2.1875.242187.09375.484375.1875.730469.28125.695312.269531 1.402343.539062 2.113281.800781.238281.085937.476562.175781.714843.261719 1.742188.632812 3.523438 1.242187 5.347657 1.835937 2.308593 26.503907 8.054687 68.371094 22.34375 106.3125-30.742188-6.964843-46.976563-17.714843-46.976563-24.433593zm151.4375 29.316406c-2.226562-4.433594-4.386718-9.003906-6.445312-13.664063-2.226563-5.054687-8.132813-7.34375-13.1875-5.113281-5.050782 2.230469-7.339844 8.136719-5.109375 13.1875 1.058593 2.402344 2.144531 4.785156 3.25 7.144531-5.1875.222657-10.433594.335938-15.695313.335938-1.824218 0-3.640625-.015625-5.449218-.042969-.132813 0-.265626-.003906-.398438-.003906-13.199219-.207032-26.007812-1.109375-38.207031-2.699219-15.425781-35.132813-22.089844-76.65625-24.957031-104.882813 14.632812 3.117188 30.863281 5.179688 47.964843 6.113282.304688.019531.613281.03125.917969.050781.9375.046875 1.871094.09375 2.808594.136719.261718.011718.523437.027344.785156.039062.285156.011719.566406.03125.851562.042969 1.472657 7.964844 3.136719 15.890625 4.972657 23.648437 1.273437 5.371094 6.664062 8.699219 12.039062 7.425782 5.375-1.273438 8.699219-6.660156 7.425781-12.039063-1.457031-6.15625-2.789062-12.433593-4.011718-18.75.964844-.011719 1.925781-.027343 2.890625-.046875l.5625-.011718c16.132812-.347657 32.144531-1.71875 47.074219-4.097657.496093-.078125.988281-.160156 1.480468-.242187.496094-.082032.988282-.164063 1.476563-.246094 5.859375-.988281 11.566406-2.136719 17.050781-3.449219 13.285156 29.558594 26.261719 54.257813 38.660156 73.5625v1.375c0 .691407.070313 1.382813.210938 2.058594.066406.3125.101562.597656.101562.851563 0 8.652343-26.914062 23.988281-77.0625 29.316406zm208.433594 1.359375c-7.652344 4.03125-33.769531-12.632813-61.855469-54.519531 22.390625-31.308594 50.195313-56.980469 72.53125-74.890626.113281.210938.230469.421876.34375.632813.289063.53125.578125 1.058594.871094 1.589844.566406 1.027343 1.144531 2.058593 1.722656 3.085937 10.988281 19.523438 23.152344 37.152344 35.488281 51.476563.535157.625 1.070313 1.246093 1.609376 1.863281-19.960938 25.527344-35.761719 48.523438-47.066407 68.488281l-1.214843.640625c-.613282.320313-1.191407.707032-1.722657 1.148438-.242187.203125-.484375.367187-.707031.484375zm0 0"/><path d="m432.972656 163.179688c8.320313 7.910156 15.144532 10.398437 20.4375 10.398437 2.980469 0 5.480469-.792969 7.480469-1.847656 5.554687-2.925781 11.582031-10.132813 8.742187-27.859375-1.652343-10.304688-6.058593-22.621094-12.40625-34.671875-6.351562-12.054688-14.011718-22.65625-21.578124-29.847657-13.011719-12.363281-22.363282-11.472656-27.917969-8.546874-16.914063 8.910156-8.597657 39.253906 3.664062 62.53125 6.351563 12.054687 14.015625 22.65625 21.578125 29.84375zm6.554688-44.660157c7.917968 15.03125 10.6875 27.164063 10.871094 33.289063-4.949219-3.613282-13.386719-12.761719-21.304688-27.792969s-10.6875-27.164063-10.871094-33.289063c4.949219 3.613282 13.386719 12.761719 21.304688 27.792969zm0 0"/><path d="m151.875 229.449219c-.25-.597657-.558594-1.179688-.917969-1.71875-.363281-.550781-.78125-1.0625-1.242187-1.519531-2.328125-2.332032-5.78125-3.390626-9.03125-2.742188-.640625.128906-1.269532.320312-1.871094.570312-.597656.25-1.179688.5625-1.730469.921876-.539062.367187-1.046875.789062-1.519531 1.25-.460938.457031-.871094.96875-1.238281 1.519531-.359375.539062-.671875 1.121093-.921875 1.71875-.25.609375-.4375 1.242187-.570313 1.871093-.128906.648438-.1875 1.3125-.1875 1.960938s.058594 1.3125.1875 1.949219c.132813.640625.320313 1.273437.570313 1.871093.25.609376.5625 1.191407.921875 1.730469.367187.550781.777343 1.058594 1.238281 1.519531.472656.460938.980469.878907 1.519531 1.238282.550781.359375 1.132813.671875 1.730469.921875.601562.25 1.230469.4375 1.871094.570312.652344.128907 1.3125.199219 1.960937.199219 2.628907 0 5.199219-1.070312 7.070313-2.929688.460937-.460937.878906-.972656 1.242187-1.519531.359375-.542969.667969-1.121093.917969-1.730469.25-.601562.441406-1.230468.570312-1.871093.128907-.640625.199219-1.300781.199219-1.949219 0-.652344-.070312-1.3125-.199219-1.960938-.128906-.628906-.320312-1.261718-.570312-1.871093zm0 0"/></svg>