<svg id="Capa_1" enable-background="new 0 0 509.495 509.495" height="512" viewBox="0 0 509.495 509.495" width="512" xmlns="http://www.w3.org/2000/svg"><path d="m456.637 475.199-133.38-187.167c-2.403-3.374-7.087-4.159-10.46-1.755-3.374 2.404-4.159 7.087-1.755 10.46l133.381 187.167c.392.55.4 1.104.339 1.472-.062.368-.251.889-.801 1.281l-10.479 7.468c-.55.392-1.104.401-1.472.339s-.889-.251-1.281-.801l-176.257-247.332c2.08-1.319 4.141-2.676 6.162-4.116 2.57-1.831 5.047-3.756 7.461-5.74l24.396 34.234c1.463 2.054 3.771 3.148 6.114 3.148 1.506 0 3.026-.452 4.346-1.393 3.374-2.404 4.159-7.087 1.755-10.46l-25.494-35.774c14.351-14.801 25.032-32.679 31.311-52.72 8.172-26.085 8.09-54.53-.137-80.448 3.765-10.305 2.569-22.234-4.266-31.824l-14.534-20.396c-6.826-9.578-17.694-14.602-28.65-14.419-13.742-10.251-29.175-17.668-45.922-22.052-4.009-1.052-8.106 1.349-9.155 5.356s1.349 8.106 5.356 9.155c11.159 2.921 21.647 7.376 31.344 13.252-.324.215-.65.426-.969.654l-135.395 96.486c-3.373 2.404-4.159 7.087-1.755 10.46 2.403 3.374 7.087 4.159 10.46 1.755l135.395-96.486c8.715-6.212 20.863-4.175 27.075 4.543l14.534 20.396c3.009 4.223 4.194 9.364 3.336 14.478s-3.656 9.587-7.878 12.597l-175.35 124.962c-8.717 6.212-20.863 4.173-27.075-4.543l-14.534-20.396c-3.009-4.223-4.194-9.364-3.336-14.478s3.656-9.587 7.879-12.597l13.928-9.925c3.374-2.404 4.159-7.087 1.755-10.46-2.403-3.373-7.086-4.159-10.46-1.755l-13.928 9.925c-.318.227-.625.464-.933.7-4.248-19.913-3.332-40.947 2.791-60.491 7.763-24.777 23.076-45.862 44.282-60.974 20.184-14.385 43.919-21.985 68.651-21.985h.124c4.139 0 7.496-3.353 7.5-7.493.004-4.142-3.351-7.503-7.493-7.507h-.131c-27.869 0-54.616 8.563-77.355 24.768-23.892 17.025-41.144 40.783-49.892 68.706-8.169 26.075-8.09 54.51.128 80.42-.726 1.987-1.281 4.054-1.639 6.186-1.521 9.065.579 18.18 5.914 25.666l14.534 20.396c6.707 9.411 17.312 14.43 28.072 14.43.2 0 .4-.019.6-.023 21.817 16.243 48.684 25.61 76.014 26.4 1.319.038 2.631.057 3.945.057 20.286 0 39.938-4.557 57.943-13.315l177.215 248.679c2.631 3.692 6.543 6.139 11.014 6.889.95.16 1.901.238 2.845.238 3.5 0 6.907-1.083 9.814-3.155l10.479-7.467c3.692-2.631 6.139-6.543 6.889-11.014.752-4.474-.284-8.97-2.915-12.662zm-276.796-223.245c-20.474-.591-40.641-6.617-58.076-17.136.317-.21.641-.401.953-.624l175.352-124.961c.312-.222.611-.456.914-.687 4.246 19.91 3.35 40.937-2.772 60.478-7.763 24.777-23.075 45.862-44.282 60.974-21.208 15.113-46.133 22.71-72.089 21.956z"/></svg>