<svg height="512" viewBox="0 0 52 60" width="512" xmlns="http://www.w3.org/2000/svg"><g id="Page-1" fill="none" fill-rule="evenodd"><g id="037---Macaroons" fill="rgb(0,0,0)" fill-rule="nonzero" transform="translate(-1)"><path id="Shape" d="m52.036 21.363c.7537337-1.2996357.6003488-2.9342686-.382-4.071.91-1.764 1.285-4.9-1.983-8.026-5.816-5.566-30.41-11.156-38.06-8.645-4.299 1.411-5.311 4.397-5.256 6.379-1.37910066.59961606-2.22516156 2.00891409-2.106 3.508-1.02097722.3137678-1.79561621 1.1504513-2.02994515 2.1925332-.23432894 1.0420818.10756899 2.1298367.89594515 2.8504668-.73661893 1.1361273-.84947139 2.5674726-.3 3.805.006 1.27.656 7.4 12.159 10.549-2.6085326.2916256-5.1436437 1.0486026-7.485 2.235-3.88 2.328-4.208 5.464-3.711 7.387-1.21514328.8882353-1.72917191 2.4520407-1.278 3.888-.92920676.5302228-1.50230754 1.5184034-1.50106667 2.5882445.00124088 1.0698411.57663243 2.0566896 1.50706667 2.5847555-.46765245 1.2695526-.26185201 2.6894627.547 3.774.299 1.291 2.455 7.638 15.947 7.638h16c13.492 0 15.648-6.347 15.946-7.638.8104434-1.0839185 1.0160129-2.5048327.546-3.774.9306917-.5274263 1.506557-1.5139244 1.5082117-2.5836733s-.5711561-2.0580237-1.5002117-2.5883267c.4481803-1.4344803-.0635241-2.9952994-1.274-3.886.467-1.8.2-4.681-3.052-6.953.9811356-.6651888 1.7839645-1.5610745 2.338-2.609 1.0307973-.8793054 1.5464078-2.2206455 1.37-3.564 1.0232933-.3092276 1.8022305-1.1433684 2.0407771-2.185408.2385467-1.0420396-.0999242-2.1319806-.8867771-2.855592zm-39.802-18.842c6.939-2.275 30.788 3.147 36.054 8.189 2.8 2.684 2.014 4.921 1.526 5.781-10.192.152-31.655-4.615-41.454-9.416-.06-.966.181-3.342 3.874-4.554zm-4.95 6.254c9.592 4.875 32.324 9.961 42.768 9.715.5532841.5633763.6159843 1.4449915.148 2.081-.061 0-.119-.019-.18-.019-11.912-.125-32.427-4.707-43.6-9.9-.057-.027-.116-.038-.173-.061-.14846078-.77806676.29145172-1.54844391 1.037-1.816zm41.589 17.749c.1387777.6761733-.0764357 1.3764651-.571 1.858-15.026537-.8225265-29.8058404-4.1798455-43.713-9.93-.23779885-.6472785-.13004084-1.3710657.286-1.921 11.825 5.146 30.376 9.489 43.998 9.993zm-43.782-5.713c13.3179754 5.3650117 27.4082125 8.5657577 41.737 9.481-3.25 3.239-9.616 2.661-14.113 1.639l-15.6-3.544c-8.786-1.995-11.306-5.551-12.024-7.576zm43.837 20.241c.6670796.4263745.9242358 1.2750749.606 2-.061.009-.121.007-.181.021-7.3714571 1.361424-14.8573017 2.0067612-22.353 1.927-7.4954363.0792247-14.9809615-.5667836-22.352-1.929-.061-.014-.121-.012-.182-.022-.31823585-.7249251-.06107963-1.5736255.606-2 10.289 2.598 33.547 2.603 43.856.003zm1.288 5.924c-12.216 2.731-34.516 2.642-46.433 0-.35206434-.0744563-.63697512-.3323313-.74604828-.6752542s-.02548661-.7180055.21887412-.9821662c.24436074-.2641607.61180853-.3766586.96217416-.2945796 7.512203 1.3940545 15.1419601 2.0558226 22.782 1.976 7.640366.0796859 15.2704417-.5820807 22.783-1.976.352312-.0868819.7240435.0239053.9713127.2894804s.3312704.6442595.2194902.9894803-.4017992.6027999-.7578029.6730393zm-15.216 11.024h-16c-9.006 0-12.252-2.909-13.4-4.725 14.1754342 2.2817395 28.6245658 2.2817395 42.8 0-1.153 1.825-4.4 4.725-13.4 4.725zm-30.413-6.913c-.37587991-.5791683-.43126957-1.3097843-.147-1.939 12.817 2.419 31.838 2.507 45.119 0 .2858951.6288128.2308326 1.3600883-.146 1.939-14.8352403 2.5260277-29.9907597 2.5260277-44.826 0zm43.668-11.93c-10.394 2.456-32.109 2.459-42.51 0-.278-.927-.564-3.3 2.77-5.3 2.075-1.245 6.3-2.141 12.223-2.595l11.533 2.619c4.082.928 8.971 1.409 12.877-.2 2.16 1.108 3.807 3.143 3.107 5.476zm1.745-14.606c-11.954 0-33.907-4.92-45.284-10.285-.34726101-.1378056-.58874329-.4576948-.62612724-.8294246s.1355659-.7332974.44843294-.9374904c.31286704-.2041931.71346656-.2169532 1.0386943-.033085 7.0146876 3.0244804 14.3070553 5.35915 21.774 6.971 7.4320028 1.7737001 15.0192203 2.8186422 22.654 3.12.5522847.0013807.9988807.4502153.9975 1.0025s-.4502153.9988807-1.0025.9975z"/></g></g></svg>