<svg id="Capa_1" enable-background="new 0 0 511.995 511.995" height="512" viewBox="0 0 511.995 511.995" width="512" xmlns="http://www.w3.org/2000/svg"><g><path d="m140.023 144.877c-2.846 3.01-2.712 7.757.298 10.603 1.45 1.371 3.302 2.05 5.151 2.05 1.99 0 3.977-.788 5.451-2.348l.354-.375c2.846-3.01 2.712-7.757-.298-10.603-3.012-2.846-7.758-2.712-10.603.298z"/><path d="m151.923 134.066c1.986 0 3.97-.785 5.444-2.34l.355-.375c2.85-3.006 2.723-7.753-.284-10.603-3.006-2.848-7.753-2.723-10.603.284l-.355.375c-2.85 3.006-2.723 7.753.284 10.603 1.451 1.374 3.307 2.056 5.159 2.056z"/><path d="m133.201 138.406.355-.375c2.852-3.004 2.729-7.751-.276-10.603-3.005-2.851-7.75-2.728-10.603.277l-.355.375c-2.852 3.004-2.729 7.751.276 10.603 1.451 1.377 3.308 2.06 5.162 2.06 1.986 0 3.966-.784 5.441-2.337z"/><path d="m488.196 168.752c-1.067-34.081-68.518-52.462-132.025-52.462-21.079 0-40.727 1.749-58.203 5.117-1.99-20.744-5.382-43.87-10.11-68.899-.993-34.111-68.491-52.508-132.028-52.508-34.367 0-64.958 4.627-88.465 13.381-24.883 9.267-39.892 22.496-43.405 38.257-.018.078-.033.156-.049.234-3.813 20.11-6.784 39.102-8.829 56.449-.485 4.114 2.456 7.842 6.57 8.327 4.101.486 7.842-2.456 8.326-6.57 2-16.964 4.909-35.563 8.646-55.282 4.545-19.794 46.21-39.796 117.206-39.796 32.405 0 62.761 4.597 85.476 12.945 19.765 7.264 31.564 16.731 31.564 25.325 0 .007.001.015.001.022-.02 8.589-11.816 18.049-31.564 25.309-22.716 8.351-53.071 12.949-85.475 12.949-20.516 0-40.755-1.905-58.53-5.51-4.06-.822-8.018 1.801-8.841 5.86-.823 4.06 1.801 8.018 5.86 8.841 18.74 3.8 40.011 5.809 61.511 5.809 48.38 0 99.054-10.668 120.918-30.82 2.915 17.566 5.077 33.978 6.466 49.051-5.449 1.455-10.639 3.082-15.51 4.896-24.882 9.269-39.891 22.5-43.404 38.261-.018.077-.033.155-.048.232-4.807 25.311-8.244 48.725-10.245 69.75-18.372-3.462-38.466-5.235-58.181-5.235-34.364 0-64.954 4.628-88.462 13.383-1.887.703-3.71 1.431-5.482 2.179-6.626-3.049-11.905-6.373-15.718-9.901-15.465-14.32-21.983-48.593-18.851-99.113.257-4.134-2.887-7.694-7.021-7.95-4.136-.262-7.693 2.888-7.949 7.021-3.47 55.953 4.48 93.315 23.632 111.05 2.767 2.56 6.045 4.996 9.796 7.296-12.039 7.824-19.473 17.188-21.812 27.676-.018.078-.033.156-.048.235-19.948 105.128-15.891 171.569 12.055 197.478 19.933 18.478 65.86 29.956 119.859 29.956s99.926-11.479 119.858-29.957c16.895-15.662 25.056-46.141 24.465-91.019 17.244 3.002 36.401 4.581 56.019 4.581 7.342 0 14.721-.22 21.931-.654 4.135-.249 7.285-3.802 7.036-7.937-.248-4.135-3.806-7.288-7.937-7.036-6.912.416-13.987.626-21.03.626-19.96 0-39.361-1.696-56.529-4.914-1.362-25.984-5.286-56.168-11.775-90.489-.601-20.609-25.48-35.48-59.092-44.026 1.925-20.991 5.344-44.522 10.192-70.075 4.546-19.799 46.211-39.806 117.206-39.806 32.404 0 62.762 4.599 85.48 12.95 19.768 7.266 31.569 16.735 31.569 25.33 0 8.594-11.802 18.062-31.569 25.325-22.717 8.348-53.074 12.945-85.48 12.945-20.492 0-40.729-1.902-58.522-5.501-4.059-.821-8.018 1.804-8.839 5.864-.82 4.06 1.805 8.017 5.865 8.838 18.756 3.793 40.021 5.799 61.496 5.799 48.386 0 99.06-10.669 120.924-30.819 14.126 85.29 10.242 142.681-11.265 162.629-10.477 9.711-32.245 17.797-59.724 22.185-4.09.653-6.877 4.499-6.224 8.589.589 3.69 3.776 6.318 7.397 6.318.393 0 .791-.031 1.191-.095 30.781-4.915 54.772-14.147 67.558-25.998 27.893-25.87 31.985-92.116 12.168-196.896zm-215.321 117.097c-.001.07-.001.141 0 .211-.092 8.568-11.877 17.99-31.565 25.227-22.717 8.349-53.074 12.946-85.481 12.946-20.5 0-40.737-1.904-58.523-5.505-4.06-.82-8.018 1.803-8.839 5.863-.822 4.06 1.803 8.017 5.862 8.839 18.75 3.797 40.017 5.804 61.5 5.804 48.382 0 99.062-10.667 120.928-30.815 14.127 85.293 10.242 142.681-11.267 162.62-16.748 15.526-60.817 25.957-109.661 25.957s-92.914-10.431-109.662-25.957c-23.224-21.531-25.902-86.713-7.542-183.552 4.547-19.796 46.212-39.8 117.204-39.8 66.855-.001 116.844 20.123 117.046 38.162z"/><path d="m445.83 338.88c-2.85 3.006-2.723 7.753.284 10.603 1.45 1.375 3.306 2.057 5.158 2.057 1.986 0 3.97-.785 5.444-2.34l.355-.375c2.85-3.006 2.723-7.753-.284-10.603-3.005-2.849-7.753-2.723-10.603.284z"/><path d="m457.724 328.077c1.986 0 3.97-.785 5.444-2.34l.355-.375c2.85-3.006 2.723-7.753-.284-10.603-3.005-2.848-7.752-2.723-10.603.284l-.355.375c-2.85 3.006-2.723 7.753.284 10.603 1.451 1.374 3.307 2.056 5.159 2.056z"/><path d="m439.004 332.413.355-.375c2.85-3.006 2.723-7.753-.284-10.603-3.006-2.848-7.753-2.723-10.603.284l-.355.375c-2.85 3.006-2.723 7.753.284 10.603 1.45 1.375 3.306 2.057 5.158 2.057 1.987-.001 3.971-.785 5.445-2.341z"/><path d="m250.929 467.933c1.986 0 3.97-.785 5.444-2.34l.355-.375c2.85-3.006 2.723-7.753-.284-10.603-3.005-2.848-7.752-2.723-10.603.284l-.355.375c-2.85 3.006-2.723 7.753.284 10.603 1.451 1.373 3.307 2.056 5.159 2.056z"/><path d="m257.381 444.469c1.985 0 3.966-.783 5.44-2.337l.355-.375c2.852-3.004 2.729-7.751-.276-10.603-3.005-2.851-7.751-2.728-10.603.277l-.355.375c-2.852 3.004-2.729 7.751.276 10.603 1.452 1.377 3.309 2.06 5.163 2.06z"/><path d="m233.217 451.146c1.986 0 3.97-.785 5.444-2.34l.355-.375c2.85-3.006 2.723-7.753-.284-10.603-3.005-2.848-7.752-2.723-10.603.284l-.355.375c-2.85 3.006-2.723 7.753.284 10.603 1.451 1.374 3.307 2.056 5.159 2.056z"/></g></svg>