<svg id="Capa_1" enable-background="new 0 0 512 512" height="512" viewBox="0 0 512 512" width="512" xmlns="http://www.w3.org/2000/svg"><path d="m196 272c-79.444 0-136 52.232-136 105 0 59.574 76.438 75 136 75 59.669 0 135-15.61 135-75 0-54.723-58.152-105-135-105zm0 150c-37.056 0-106-7.718-106-45 0-39.953 49.533-75 106-75 48.589 0 105 29.648 105 75 0 42.831-87.466 45-105 45z"/><path d="m316 0c-102.468 0-196 70.602-196 166 0 19.957 4.236 38.59 12.343 54.939-76.921 22.298-132.343 83.831-132.343 156.061 0 97.907 97.695 135 196 135 97.865 0 195-36.829 195-135 0-28.416-8.534-55.176-23.545-78.544 79.087-11.52 144.545-53.184 144.545-132.456 0-97.031-95.547-166-196-166zm-120 482c-79.098 0-166-25.614-166-105 0-74.439 74.467-135 166-135 90.981 0 165 60.561 165 135 0 97.428-126.293 105-165 105zm149.13-211.181c-35.798-35.941-89.362-58.819-149.13-58.819-11.253 0-22.283.813-33.022 2.354-8.505-13.662-12.978-30.197-12.978-48.354 0-74.991 74.467-136 166-136s166 61.009 166 136c0 69.756-67.288 99.015-136.87 104.819z"/></svg>