<?xml version="1.0" encoding="iso-8859-1"?>
<!-- Generator: Adobe Illustrator 19.0.0, SVG Export Plug-In . SVG Version: 6.00 Build 0)  -->
<svg version="1.1" id="Layer_1" xmlns="http://www.w3.org/2000/svg" xmlns:xlink="http://www.w3.org/1999/xlink" x="0px" y="0px"
	 viewBox="0 0 511.973 511.973" style="enable-background:new 0 0 511.973 511.973;" xml:space="preserve">
<g>
	<g>
		<path d="M490.646,234.652C490.646,105.057,385.574,0,255.987,0C126.384,0,21.328,105.057,21.328,234.651
			c0,7.203,0.328,14.319,0.969,21.351c-0.641,7.023-0.969,14.132-0.969,21.326c0,129.588,105.057,234.645,234.659,234.645
			c129.587,0,234.644-105.057,234.644-234.645c0-7.186-0.328-14.287-0.953-21.294C490.318,248.994,490.646,241.862,490.646,234.652z
			 M406.823,428.166c-19.593,19.592-42.42,34.967-67.809,45.715c-26.296,11.125-54.232,16.75-83.027,16.75
			c-28.811,0-56.747-5.625-83.027-16.75c-25.404-10.748-48.216-26.123-67.824-45.715c-17.639-17.656-31.857-37.904-42.357-60.311
			c42.341,61.295,113.087,101.463,193.208,101.463c80.105,0,150.852-40.152,193.193-101.432
			C438.68,390.261,424.463,410.525,406.823,428.166z M447.977,245.327h0.031h21.045c-0.578,11.569-2.078,22.976-4.469,34.177
			l-20.389-5.451c-5.688-1.531-11.547,1.842-13.063,7.529c-1.531,5.688,1.844,11.547,7.547,13.063l20.39,5.469
			c-1.906,5.938-4.078,11.795-6.516,17.576c-2.062,4.859-4.28,9.609-6.671,14.281l-18.295-10.551
			c-5.108-2.953-11.624-1.203-14.576,3.906c-2.938,5.094-1.188,11.625,3.905,14.563c0.016,0,0.016,0,0.016,0l18.265,10.545
			c-6.234,9.641-13.249,18.766-21.014,27.328l-14.891-14.891c-4.172-4.172-10.921-4.172-15.093,0
			c-4.156,4.172-4.156,10.922,0,15.078l14.905,14.906c-8.578,7.764-17.702,14.779-27.342,20.998l-10.547-18.266
			c-2.938-5.107-9.468-6.857-14.562-3.904c-5.108,2.951-6.858,9.467-3.905,14.576l10.561,18.281
			c-4.671,2.406-9.437,4.625-14.295,6.686c-5.781,2.438-11.641,4.594-17.563,6.516l-5.469-20.389v-0.016
			c-1.53-5.688-7.374-9.063-13.061-7.547c-5.703,1.531-9.078,7.375-7.547,13.063v0.016l5.469,20.389
			c-11.203,2.391-22.624,3.891-34.186,4.469v-21.092c0-5.875-4.781-10.656-10.672-10.656s-10.672,4.781-10.672,10.656v21.092
			c-11.561-0.578-22.982-2.078-34.186-4.469l5.469-20.373c0-0.016,0-0.016,0-0.016c1.531-5.703-1.844-11.547-7.547-13.063
			c-5.687-1.531-11.53,1.844-13.061,7.531l-5.469,20.404c-5.922-1.922-11.781-4.078-17.563-6.516
			c-4.858-2.061-9.624-4.279-14.295-6.686l10.562-18.281c2.952-5.094,1.202-11.625-3.906-14.561
			c-5.093-2.953-11.624-1.219-14.562,3.889l-10.563,18.281c-9.624-6.234-18.748-13.25-27.326-21.014l14.905-14.906
			c4.156-4.156,4.156-10.906,0-15.078c-4.171-4.172-10.921-4.172-15.093,0L97.786,377.76c-7.78-8.563-14.779-17.688-21.014-27.313
			l18.265-10.561h0.016c5.093-2.938,6.843-9.469,3.89-14.563c-2.937-5.109-9.468-6.859-14.561-3.906L66.086,331.98
			c-2.391-4.688-4.625-9.438-6.671-14.297c-2.453-5.781-4.609-11.639-6.516-17.576l20.39-5.469
			c5.688-1.516,9.078-7.375,7.547-13.063s-7.375-9.061-13.063-7.529h-0.016l-20.373,5.467c-2.406-11.209-3.906-22.623-4.469-34.192
			h21.061h0.016c5.891,0,10.672-4.781,10.672-10.671s-4.777-10.662-10.667-10.662H42.921c0.563-11.57,2.063-22.983,4.469-34.186
			l20.373,5.46c0,0,0.016,0,0.016,0.008c5.688,1.523,11.531-1.859,13.063-7.546c1.532-5.687-1.844-11.539-7.547-13.062l-20.39-5.469
			c1.906-5.929,4.063-11.789,6.516-17.569c2.045-4.858,4.279-9.624,6.67-14.287l18.296,10.553c0,0.008,0,0.008,0,0.008
			c5.093,2.945,11.624,1.195,14.561-3.906c2.953-5.102,1.203-11.625-3.89-14.57l-18.28-10.554
			c6.234-9.632,13.233-18.757,21.014-27.327l14.891,14.897c4.172,4.164,10.922,4.164,15.093,0c4.156-4.164,4.156-10.921,0-15.085
			l-14.905-14.898c8.578-7.773,17.702-14.78,27.326-21.014l10.563,18.28c2.938,5.101,9.469,6.843,14.562,3.898
			c5.108-2.945,6.858-9.468,3.906-14.569l-10.562-18.288c4.671-2.391,9.437-4.617,14.295-6.679
			c5.781-2.438,11.641-4.602,17.563-6.516l5.469,20.397c1.53,5.687,7.374,9.07,13.061,7.546c5.688-1.531,9.078-7.375,7.547-13.069
			l-5.469-20.39c11.203-2.398,22.625-3.898,34.186-4.461v21.069c0,5.89,4.781,10.671,10.672,10.671s10.672-4.781,10.672-10.671
			V21.592c11.562,0.563,22.982,2.063,34.186,4.461l-5.469,20.39v0.008c-1.531,5.687,1.844,11.538,7.547,13.062
			c5.687,1.523,11.53-1.852,13.061-7.546c0-0.008,0-0.016,0-0.031l5.469-20.366c5.922,1.914,11.781,4.078,17.563,6.516
			c4.858,2.062,9.624,4.289,14.295,6.679l-10.561,18.288v0.008c-2.953,5.093-1.203,11.617,3.905,14.562
			c5.094,2.953,11.624,1.203,14.562-3.898c0.016-0.008,0.016-0.016,0.016-0.023l10.531-18.257
			c9.64,6.234,18.764,13.249,27.342,21.014l-14.905,14.898c-4.156,4.164-4.156,10.921,0,15.085c4.172,4.164,10.921,4.164,15.093,0
			c0-0.008,0-0.016,0.016-0.023l14.875-14.874c7.765,8.57,14.779,17.702,21.014,27.327l-18.28,10.554
			c-5.093,2.945-6.843,9.468-3.905,14.57c2.952,5.101,9.483,6.851,14.576,3.906c0.016-0.008,0.016-0.008,0.031-0.016l18.25-10.546
			c2.406,4.664,4.625,9.429,6.687,14.288c2.438,5.781,4.609,11.64,6.516,17.569l-20.39,5.469h-0.016
			c-5.688,1.523-9.063,7.375-7.531,13.062c1.516,5.687,7.375,9.07,13.063,7.546c0.016-0.008,0.016-0.008,0.016-0.008l20.373-5.46
			c2.391,11.203,3.891,22.616,4.469,34.186h-21.084c-5.891,0-10.672,4.773-10.672,10.664
			C437.305,240.554,442.086,245.327,447.977,245.327z"/>
	</g>
</g>
<g>
	<g>
		<path d="M255.987,181.319c-46.889,0-84.887,23.881-84.887,53.333c0,29.459,37.998,53.333,84.887,53.333
			c46.873,0,84.887-23.873,84.887-53.333C340.874,205.2,302.859,181.319,255.987,181.319z M304.656,254.298
			c-12.484,7.851-30.233,12.351-48.67,12.351s-36.186-4.5-48.67-12.351c-9.452-5.938-14.889-13.101-14.889-19.647
			c0-6.546,5.437-13.702,14.889-19.647c12.484-7.851,30.233-12.351,48.67-12.351s36.186,4.5,48.67,12.351
			c9.452,5.945,14.889,13.101,14.889,19.647C319.546,241.197,314.109,248.361,304.656,254.298z"/>
	</g>
</g>
<g>
	<g>
		<path d="M295.531,227.113c-2.094-2.086-4.813-3.125-7.547-3.125h-63.996c-2.734,0-5.453,1.039-7.547,3.125
			c-4.156,4.164-4.156,10.921,0,15.085c2.094,2.078,4.813,3.125,7.547,3.125h63.996c2.734,0,5.453-1.047,7.547-3.125
			C299.688,238.034,299.688,231.277,295.531,227.113z"/>
	</g>
</g>
<g>
	<g>
		<path d="M263.534,302.843c-4.172-4.171-10.922-4.171-15.094,0c-4.156,4.172-4.156,10.92,0,15.076
			c4.172,4.172,10.922,4.172,15.094,0C267.69,313.763,267.69,307.015,263.534,302.843z"/>
	</g>
</g>
<g>
	<g>
		<path d="M263.534,151.39c-4.172-4.164-10.922-4.164-15.094,0c-4.156,4.164-4.156,10.914,0,15.085
			c4.172,4.164,10.922,4.164,15.094,0C267.69,162.304,267.69,155.554,263.534,151.39z"/>
	</g>
</g>
<g>
	<g>
		<path d="M263.518,77.785c-4.156-4.164-10.906-4.164-15.078,0s-4.172,10.921,0,15.085s10.922,4.164,15.078,0
			C267.69,88.706,267.69,81.949,263.518,77.785z"/>
	</g>
</g>
<g>
	<g>
		<path d="M263.518,376.449c-4.156-4.188-10.906-4.188-15.078,0c-4.172,4.156-4.172,10.906,0,15.063
			c4.172,4.186,10.922,4.186,15.078,0C267.69,387.356,267.69,380.606,263.518,376.449z"/>
	</g>
</g>
<g>
	<g>
		<path d="M150.398,118.4c-5.89,0-10.672,4.773-10.672,10.664c0,5.89,4.781,10.671,10.672,10.671
			c5.891,0,10.655-4.781,10.655-10.671C161.054,123.173,156.289,118.4,150.398,118.4z"/>
	</g>
</g>
<g>
	<g>
		<path d="M361.575,329.576c-5.891,0-10.671,4.781-10.671,10.672s4.78,10.67,10.671,10.67s10.656-4.779,10.656-10.67
			C372.231,334.357,367.466,329.576,361.575,329.576z"/>
	</g>
</g>
<g>
	<g>
		<path d="M114.198,227.113c-4.172-4.164-10.922-4.164-15.078,0c-4.171,4.164-4.171,10.921,0,15.085
			c4.156,4.164,10.906,4.164,15.078,0S118.37,231.277,114.198,227.113z"/>
	</g>
</g>
<g>
	<g>
		<path d="M412.854,227.113c-4.172-4.164-10.922-4.164-15.094,0c-4.156,4.164-4.156,10.921,0,15.085
			c4.172,4.164,10.922,4.164,15.094,0C417.009,238.034,417.009,231.277,412.854,227.113z"/>
	</g>
</g>
<g>
	<g>
		<path d="M150.398,329.576c-5.891,0-10.672,4.781-10.672,10.672s4.781,10.67,10.672,10.67s10.655-4.779,10.655-10.67
			C161.054,334.357,156.289,329.576,150.398,329.576z"/>
	</g>
</g>
<g>
	<g>
		<path d="M361.575,118.4c-5.89,0-10.671,4.773-10.671,10.664c0,5.89,4.78,10.671,10.671,10.671s10.656-4.781,10.656-10.671
			C372.231,123.173,367.465,118.4,361.575,118.4z"/>
	</g>
</g>
<g>
	<g>
		<path d="M356.199,241.534l-24.482,59.122l59.121,24.482l24.5-59.113L356.199,241.534z M379.294,297.281l-19.703-8.172
			l8.156-19.701l19.718,8.17L379.294,297.281z"/>
	</g>
</g>
<g>
	<g>
		<path d="M189.991,310.39l-24.499,59.121l59.122,24.498l24.498-59.137L189.991,310.39z M213.083,366.136l-19.717-8.172
			l8.171-19.701l19.702,8.156L213.083,366.136z"/>
	</g>
</g>
<g>
	<g>
		<path d="M287.359,75.316l-24.498,59.122l59.121,24.491l24.499-59.122L287.359,75.316z M310.437,131.056l-19.702-8.164
			l8.172-19.702l19.701,8.164L310.437,131.056z"/>
	</g>
</g>
<g>
	<g>
		<path d="M321.983,310.391l-59.121,24.482l24.498,59.137l59.122-24.498L321.983,310.391z M298.907,366.136l-8.172-19.717
			l19.702-8.156l8.171,19.701L298.907,366.136z"/>
	</g>
</g>
<g>
	<g>
		<path d="M224.614,75.316l-59.122,24.491l24.499,59.122l59.121-24.491L224.614,75.316z M201.536,131.056l-8.171-19.702
			l19.717-8.164l8.156,19.702L201.536,131.056z"/>
	</g>
</g>
<g>
	<g>
		<path d="M121.135,144.164l-24.484,59.122l59.122,24.491l24.483-59.122L121.135,144.164z M144.227,199.911l-19.717-8.164
			l8.171-19.71l19.702,8.164L144.227,199.911z"/>
	</g>
</g>
<g>
	<g>
		<path d="M390.839,144.164l-59.121,24.491l24.482,59.122l59.139-24.491L390.839,144.164z M367.747,199.912l-8.156-19.71
			l19.703-8.164l8.171,19.71L367.747,199.912z"/>
	</g>
</g>
<g>
	<g>
		<path d="M155.773,241.534l-59.122,24.491l24.483,59.113l59.121-24.482L155.773,241.534z M132.681,297.265l-8.155-19.688
			l19.701-8.17l8.156,19.701L132.681,297.265z"/>
	</g>
</g>
<g>
</g>
<g>
</g>
<g>
</g>
<g>
</g>
<g>
</g>
<g>
</g>
<g>
</g>
<g>
</g>
<g>
</g>
<g>
</g>
<g>
</g>
<g>
</g>
<g>
</g>
<g>
</g>
<g>
</g>
</svg>
