<svg id="Capa_1" enable-background="new 0 0 512 512" height="512" viewBox="0 0 512 512" width="512" xmlns="http://www.w3.org/2000/svg"><path d="m434 290.616h-48.646l14-84h2.147c12.407 0 22.5-10.093 22.5-22.5v-15c0-12.407-10.093-22.5-22.5-22.5h-7.434c-3.647-17.441-17.671-31.056-35.124-34.271-1.186-23.212-20.443-41.729-43.943-41.729-2.61 0-5.194.229-7.737.682-6.263-17.017-22.507-28.682-41.263-28.682-8.796 0-17.249 2.594-24.436 7.411-8.033-7.323-18.468-11.411-29.564-11.411s-21.531 4.087-29.564 11.411c-7.187-4.817-15.64-7.411-24.436-7.411-18.89 0-35.139 11.727-41.339 28.854-2.835-.568-5.729-.854-8.661-.854-23.563 0-42.859 18.619-43.951 41.917-17.118 3.509-30.576 16.877-34.126 34.083h-7.423c-12.407 0-22.5 10.093-22.5 22.5v15c0 12.407 10.093 22.5 22.5 22.5h2.147l34.081 204.487c3.43 20.578 21.061 35.513 41.922 35.513h161.35c4.142 0 7.5-3.358 7.5-7.5s-3.358-7.5-7.5-7.5h-28c-32.2 0-58.836-24.285-62.556-55.5h105.556c44.263 0 80.497 35.037 82.419 78.835-11.43-10.179-32.077-23.335-62.419-23.335-4.142 0-7.5 3.358-7.5 7.5s3.358 7.5 7.5 7.5c27.779 0 45.829 12.51 56.079 23.005 2.4 2.457 5.615 3.763 8.901 3.762 1.587 0 3.191-.304 4.728-.93 4.733-1.929 7.792-6.476 7.792-11.585v-2.252c0-4.063-.254-8.067-.739-12h60.239c43.009 0 78-34.991 78-78s-34.991-78-78-78zm-80.2 108h8.2v12.286c-2.427-4.307-5.169-8.414-8.2-12.286zm23.2 0h30v33h-30zm0-15v-30h30v30zm-15-57.286v12.286h-8.2c3.031-3.871 5.773-7.979 8.2-12.286zm15-20.714h30v33h-30zm45 48h30v30h-30zm45 0h28.181c1.18 4.81 1.819 9.831 1.819 15s-.639 10.19-1.819 15h-28.181zm22.388-15h-22.388v-23.637c9.365 5.783 17.115 13.941 22.388 23.637zm-37.388-30.366v30.366h-30v-33h12c6.254 0 12.293.929 18 2.634zm-78.616-37.055c-1.292-2.855-3.635-5.177-6.676-6.415-4.722-1.925-10.07-.811-13.629 2.833-5.235 5.36-12.51 11.241-22.07 15.718l6.393-76.713h46.746zm-257.384 97.421c0-11.58 9.42-21 21-21h21.895c-1.872 6.687-2.895 13.724-2.895 21s1.023 14.313 2.895 21h-21.895c-11.58 0-21-9.42-21-21zm48.839-36h-27.839c-4.669 0-9.128.903-13.225 2.528l-21.421-128.528h63.245l9.268 111.22c-3.878 4.511-7.25 9.465-10.028 14.78zm24.016-27.547-8.204-98.453h63.349v84h-10c-16.816 0-32.392 5.367-45.145 14.453zm70.145-98.453h63.349l-6.833 81.995c-5.62 1.264-11.78 2.005-18.516 2.005h-38zm-244-22.5v-15c0-4.136 3.364-7.5 7.5-7.5h43.5c4.142 0 7.5-3.358 7.5-7.5s-3.358-7.5-7.5-7.5h-20.584c3.681-11.377 14.143-19.566 26.618-19.973 2.106-.069 4.086-1.021 5.456-2.622s2.002-3.705 1.743-5.796c-.157-1.266-.233-2.446-.233-3.608 0-15.991 13.009-29 29-29 3.833 0 7.561.739 11.083 2.197 2.124.879 4.532.736 6.536-.387 2.004-1.124 3.383-3.104 3.741-5.374 2.234-14.16 14.279-24.437 28.64-24.437 7.483 0 14.59 2.851 20.013 8.027 1.534 1.464 3.618 2.213 5.73 2.054 2.114-.156 4.064-1.199 5.367-2.872 5.546-7.124 13.89-11.209 22.891-11.209s17.344 4.085 22.891 11.209c1.303 1.673 3.252 2.716 5.367 2.872 2.116.16 4.196-.59 5.73-2.054 5.422-5.176 12.53-8.027 20.013-8.027 14.209 0 26.231 10.154 28.586 24.145.373 2.217 1.721 4.149 3.672 5.265 1.95 1.116 4.3 1.298 6.4.496 3.311-1.265 6.79-1.906 10.341-1.906 15.991 0 29 13.009 29 29 0 1.158-.075 2.331-.23 3.587-.262 2.125.396 4.262 1.811 5.87s3.448 2.535 5.59 2.548c12.687.073 23.599 8.421 27.395 19.995h-277.567c-4.142 0-7.5 3.358-7.5 7.5s3.358 7.5 7.5 7.5h300.5c4.136 0 7.5 3.364 7.5 7.5v15c0 4.136-3.364 7.5-7.5 7.5h-379c-4.136 0-7.5-3.364-7.5-7.5zm58.523 224.521-33.67-202.021h47.293l23.008 138.048c-5.688 6.368-9.154 14.761-9.154 23.952 0 13.45 7.419 25.193 18.375 31.373l5.271 31.627h-23.997c-13.498 0-24.906-9.664-27.126-22.979zm114.563 22.979h-48.233l-4.507-27.042c.549.025 1.099.042 1.654.042h27.839c5.587 10.69 13.572 19.93 23.247 27zm-16.642-70.5c3.72-31.215 30.356-55.5 62.556-55.5h63c30.342 0 50.99-13.156 62.419-23.335-1.922 43.798-38.156 78.835-82.419 78.835zm167.785-7.5h22.771v30h-22.771c-7.405-6.154-15.732-11.234-24.74-15 9.009-3.766 17.336-8.845 24.74-15zm82.771 78v-33h30v30.366c-5.707 1.705-11.746 2.634-18 2.634zm45-9.363v-23.637h22.388c-5.273 9.696-13.023 17.855-22.388 23.637z"/></svg>