<svg id="Capa_1" enable-background="new 0 0 511.986 511.986" height="512" viewBox="0 0 511.986 511.986" width="512" xmlns="http://www.w3.org/2000/svg"><path d="m485.955 351.794c-.67-28.075-10.506-56.881-26.985-79.034-10.618-14.273-23.127-25.376-37.179-33.001-15.354-8.332-32.26-12.224-48.884-11.253-13.416.783-26.454 4.727-38.253 11.484-1.865-3.626-4.47-6.862-7.725-9.508-1.379-1.124-2.725-2.227-4.042-3.315.14-.103.279-.207.418-.31 17.505-13.022 30.768-29.225 39.418-48.158 7.821-17.119 11.551-35.714 11.083-55.267-.67-28.074-10.506-56.88-26.984-79.033-10.619-14.273-23.127-25.376-37.179-33.001-15.356-8.332-32.257-12.222-48.884-11.252-16.983.992-33.37 7.027-47.389 17.455-4.786 3.561-9.284 7.602-13.452 12.08-4.167-4.478-8.665-8.519-13.451-12.08-14.019-10.428-30.405-16.463-47.39-17.455-8.007-.466-16.095.179-24.03 1.921-5.395 1.184-8.807 6.517-7.623 11.911 1.185 5.395 6.512 8.81 11.912 7.623 6.146-1.349 12.394-1.851 18.575-1.49 13.265.774 25.585 5.329 36.618 13.536 6.451 4.8 12.276 10.729 17.314 17.624 1.883 2.577 4.883 4.1 8.074 4.1s6.191-1.523 8.074-4.1c5.039-6.896 10.864-12.825 17.315-17.624 11.033-8.208 23.353-12.762 36.617-13.536 12.892-.755 26.101 2.313 38.179 8.865 11.479 6.229 21.799 15.435 30.671 27.36 14.066 18.91 22.464 43.539 23.037 67.573.395 16.5-2.728 32.137-9.28 46.478-7.234 15.834-18.393 29.434-33.164 40.422-1.35 1.004-2.748 1.988-4.171 2.954-4.894-4.304-9.517-8.516-13.795-12.57-.454-.43-.901-.861-1.352-1.292 2.617-1.615 5.127-3.307 7.506-5.077 12.046-8.961 21.103-19.959 26.918-32.689 5.29-11.581 7.811-24.287 7.489-37.767-.479-19.992-7.467-40.484-19.174-56.221-7.002-9.412-15.147-16.677-24.21-21.595-8.901-4.83-18.452-7.097-27.632-6.564-9.132.532-18.063 3.866-25.828 9.643-7.189 5.348-13.401 12.792-18.465 22.125-14.266 26.288-8.365 58.246 17.537 94.986 8.555 12.136 19.336 24.85 32.042 37.787.019.02.041.036.061.056 3.602 3.658 7.42 7.401 11.35 11.125 5.986 5.674 12.605 11.63 19.676 17.706.139.135.269.277.417.404 4.579 3.934 9.341 7.913 14.565 12.171 2.06 1.674 3.343 4.05 3.615 6.69.272 2.641-.5 5.229-2.175 7.288s-4.051 3.343-6.691 3.616c-2.633.272-5.228-.5-7.279-2.167-10.933-8.91-20.582-17.215-29.5-25.391-.04-.037-.086-.066-.126-.102-2.125-1.954-4.226-3.913-6.242-5.824-9.512-9.016-18.301-18.09-26.123-26.969-.139-.158-.29-.3-.437-.448-7.299-8.295-13.848-16.534-19.463-24.497-4.19-5.945-7.982-11.892-11.27-17.674-1.777-3.127-5.097-5.059-8.693-5.059s-6.916 1.932-8.693 5.059c-3.291 5.789-7.082 11.735-11.27 17.673v.001c-5.611 7.959-12.157 16.194-19.449 24.483-.152.152-.307.299-.45.462-7.823 8.881-16.611 17.954-26.123 26.969-2.047 1.94-4.15 3.902-6.253 5.834-.037.033-.078.059-.115.092-8.909 8.167-18.559 16.473-29.492 25.383-2.061 1.675-4.645 2.448-7.288 2.175-2.64-.272-5.016-1.556-6.69-3.616-1.675-2.06-2.447-4.647-2.176-7.288.272-2.64 1.557-5.016 3.625-6.698 5.193-4.232 9.954-8.211 14.556-12.163.151-.13.284-.275.426-.413 7.064-6.071 13.681-12.024 19.666-17.697 3.934-3.728 7.759-7.478 11.372-11.147.012-.012.026-.023.038-.035 12.707-12.937 23.487-25.65 32.044-37.787 25.901-36.74 31.802-68.698 17.537-94.986-5.065-9.334-11.278-16.778-18.466-22.125-7.764-5.775-16.694-9.109-25.827-9.643-9.178-.531-18.729 1.735-27.633 6.565-9.064 4.918-17.21 12.185-24.21 21.595-11.708 15.738-18.696 36.23-19.173 56.221-.322 13.479 2.198 26.186 7.489 37.766 5.815 12.731 14.872 23.729 26.918 32.689 2.379 1.77 4.888 3.462 7.505 5.077-.451.431-.899.862-1.354 1.293-4.277 4.055-8.901 8.266-13.793 12.568-1.423-.967-2.821-1.95-4.171-2.954-14.772-10.989-25.93-24.589-33.164-40.422-6.552-14.342-9.674-29.979-9.279-46.479.399-16.732 4.519-33.708 11.914-49.091 2.393-4.978.298-10.952-4.68-13.345-4.979-2.392-10.952-.298-13.346 4.68-8.616 17.923-13.417 37.73-13.883 57.279-.468 19.552 3.261 38.146 11.082 55.267 8.65 18.932 21.912 35.135 39.418 48.158.14.104.278.207.418.31-1.315 1.087-2.658 2.188-4.031 3.307-6.205 5.045-10.073 12.204-10.894 20.158-.819 7.955 1.508 15.752 6.553 21.956 5.045 6.205 12.203 10.073 20.157 10.893 7.953.816 15.751-1.507 21.965-6.559 9.607-7.83 18.261-15.213 26.313-22.457 11.851 2.998 24.585 5.161 38.072 6.486-3.471 3.664-6.786 7.597-9.92 11.808-16.479 22.153-26.315 50.96-26.985 79.034-.467 19.553 3.263 38.146 11.083 55.266 8.649 18.932 21.912 35.134 39.418 48.158.14.104.279.207.419.31-1.317 1.087-2.66 2.188-4.033 3.307-12.808 10.414-14.755 29.306-4.341 42.114 10.417 12.808 29.309 14.754 42.123 4.333 9.603-7.826 18.255-15.209 26.313-22.457 18.707 4.732 39.599 7.401 62.189 7.94.465.012.929.012 1.481 0l.078-.002c22.55-.547 43.396-3.215 62.064-7.938 8.061 7.251 16.714 14.635 26.32 22.464 5.541 4.505 12.22 6.697 18.858 6.697 8.708 0 17.347-3.771 23.256-11.037 10.414-12.808 8.467-31.701-4.331-42.107-1.379-1.124-2.725-2.227-4.042-3.315.14-.103.279-.206.419-.31 17.505-13.022 30.767-29.225 39.417-48.158 7.826-17.113 11.555-35.708 11.088-55.261zm-249.721-270.498c3.668-6.761 7.982-12.015 12.822-15.616 4.69-3.489 9.756-5.415 15.057-5.724.494-.029.99-.043 1.49-.043 5.02 0 10.325 1.446 15.438 4.22 6.491 3.522 12.446 8.89 17.702 15.954 9.295 12.494 14.844 28.809 15.226 44.76.248 10.426-1.665 20.176-5.687 28.979-4.399 9.63-11.352 18.025-20.664 24.953-3.116 2.318-6.519 4.491-10.165 6.495-9.762-10.336-18.126-20.424-24.916-30.056-21.154-30.004-26.64-54.875-16.303-73.922zm-144.679 72.53c-4.022-8.803-5.936-18.552-5.687-28.978.381-15.951 5.93-32.266 15.226-44.761 5.254-7.063 11.21-12.43 17.701-15.953 5.115-2.775 10.42-4.221 15.438-4.221.5 0 .997.014 1.49.043 5.301.31 10.366 2.235 15.057 5.724 4.84 3.601 9.154 8.854 12.824 15.616 10.335 19.046 4.849 43.918-16.305 73.924-6.791 9.633-15.155 19.72-24.917 30.056-3.646-2.003-7.048-4.177-10.165-6.495-9.31-6.928-16.262-15.323-20.662-24.955zm104.746 35.886c1.237-1.754 2.444-3.512 3.617-5.267 1.174 1.755 2.38 3.512 3.617 5.267 2.836 4.023 5.887 8.104 9.132 12.218-4.149.299-8.405.506-12.749.62-4.344-.114-8.6-.321-12.748-.62 3.245-4.114 6.295-8.194 9.131-12.218zm3.364 32.838c.085.002.169.003.254.003s.169-.001.254-.003c9.874-.25 19.35-.961 28.266-2.102 5.238 5.777 10.837 11.608 16.74 17.432-13.859 2.621-28.902 4.142-44.955 4.531l-.04.001c-.167.004-.334.004-.494.001-16.065-.384-31.139-1.906-45.031-4.534 5.903-5.824 11.502-11.654 16.741-17.432 8.914 1.142 18.39 1.852 28.265 2.103zm112.707 248.221-.04.001c-.161.004-.321.005-.494 0-16.064-.383-31.138-1.905-45.03-4.533 5.905-5.825 11.503-11.656 16.741-17.432 8.916 1.142 18.392 1.853 28.265 2.103.085.002.169.003.254.003s.169-.001.254-.003c9.871-.25 19.347-.961 28.265-2.102 5.239 5.777 10.837 11.608 16.74 17.432-13.858 2.621-28.901 4.141-44.955 4.531zm-13.053-40.481c3.244-4.113 6.294-8.194 9.131-12.218 1.237-1.755 2.444-3.512 3.617-5.268 1.173 1.756 2.38 3.513 3.617 5.269 2.836 4.022 5.887 8.104 9.132 12.217-4.149.299-8.405.507-12.749.621-4.344-.114-8.6-.322-12.748-.621zm157.361-31.541c-7.234 15.833-18.392 29.434-33.162 40.421-1.352 1.005-2.75 1.989-4.173 2.956-4.893-4.302-9.516-8.514-13.794-12.569-.455-.431-.901-.862-1.353-1.293 2.617-1.615 5.126-3.307 7.506-5.077 12.046-8.961 21.103-19.959 26.918-32.689 5.29-11.581 7.811-24.287 7.489-37.767-.479-19.993-7.467-40.484-19.173-56.22-7.001-9.412-15.147-16.678-24.211-21.595-8.901-4.831-18.469-7.104-27.632-6.565-9.132.532-18.063 3.867-25.828 9.643-7.189 5.349-13.402 12.792-18.465 22.125-14.266 26.288-8.365 58.246 17.537 94.986 8.555 12.135 19.335 24.848 32.042 37.787.018.018.037.033.055.051 3.594 3.651 7.414 7.395 11.355 11.131 5.987 5.675 12.605 11.63 19.671 17.702.141.136.272.28.421.408 4.572 3.927 9.333 7.906 14.565 12.17 4.251 3.457 4.897 9.728 1.44 13.979-3.456 4.25-9.729 4.897-13.971 1.447-10.93-8.907-20.58-17.212-29.5-25.39-.042-.038-.088-.068-.13-.105-2.118-1.948-4.217-3.905-6.238-5.821-9.513-9.017-18.301-18.09-26.123-26.97-.142-.161-.295-.307-.446-.457-7.296-8.292-13.843-16.528-19.454-24.487-4.191-5.946-7.983-11.892-11.27-17.674-1.777-3.127-5.097-5.059-8.693-5.059s-6.917 1.932-8.693 5.059c-3.286 5.78-7.077 11.727-11.27 17.674-5.615 7.965-12.161 16.202-19.455 24.49-.15.15-.302.295-.444.456-7.819 8.877-16.608 17.951-26.123 26.969-2.047 1.94-4.15 3.902-6.253 5.834-.037.033-.078.059-.114.092-8.916 8.173-18.565 16.479-29.492 25.383-4.255 3.458-10.524 2.81-13.979-1.44-1.675-2.06-2.447-4.648-2.175-7.288s1.556-5.017 3.623-6.697c5.186-4.225 9.947-8.204 14.558-12.164.154-.132.29-.281.435-.421 7.059-6.066 13.672-12.016 19.657-17.689 3.938-3.733 7.754-7.474 11.346-11.121.021-.021.045-.039.066-.061 12.705-12.938 23.485-25.651 32.042-37.787 25.901-36.74 31.802-68.698 17.537-94.986-5.064-9.334-11.277-16.778-18.467-22.125-7.765-5.775-16.695-9.11-25.825-9.642-9.174-.532-18.73 1.735-27.634 6.565-9.063 4.918-17.209 12.184-24.21 21.595-11.708 15.737-18.696 36.229-19.173 56.222-.322 13.478 2.198 26.185 7.489 37.766 5.815 12.731 14.873 23.729 26.917 32.688 2.379 1.77 4.889 3.463 7.506 5.078-.451.431-.898.862-1.353 1.293-4.279 4.056-8.902 8.267-13.793 12.568-1.424-.967-2.822-1.951-4.171-2.954-14.772-10.989-25.931-24.589-33.164-40.422-6.552-14.341-9.674-29.978-9.28-46.478.573-24.033 8.971-48.663 23.038-67.574 6.738-9.058 14.38-16.571 22.727-22.41 21.324-.712 41.103-3.323 58.887-7.822 8.059 7.249 16.713 14.634 26.32 22.464 5.389 4.382 11.979 6.713 18.831 6.713 1.036 0 2.08-.054 3.125-.161 7.955-.82 15.114-4.688 20.158-10.893 2.433-2.992 4.227-6.358 5.348-9.93.283-.217.564-.438.849-.65 11.033-8.208 23.353-12.762 36.616-13.536 12.892-.752 26.104 2.313 38.179 8.866 11.48 6.229 21.8 15.434 30.671 27.359 14.067 18.91 22.465 43.539 23.038 67.574.397 16.497-2.725 32.134-9.278 46.475zm-67.078 14.886c-9.763-10.337-18.126-20.424-24.916-30.056-21.154-30.005-26.641-54.876-16.304-73.924 3.667-6.761 7.982-12.015 12.823-15.616 4.69-3.489 9.755-5.415 15.056-5.724.494-.029.99-.043 1.49-.043 5.02 0 10.324 1.446 15.438 4.221 6.492 3.522 12.447 8.89 17.702 15.954 9.295 12.494 14.844 28.809 15.226 44.76.248 10.426-1.665 20.176-5.687 28.979-4.399 9.63-11.352 18.026-20.664 24.953-3.115 2.32-6.517 4.493-10.164 6.496zm-155.07 0c-3.646-2.004-7.048-4.177-10.165-6.496-9.312-6.926-16.264-15.321-20.663-24.953-4.022-8.803-5.936-18.553-5.687-28.978.381-15.952 5.93-32.267 15.226-44.762 5.254-7.063 11.21-12.431 17.701-15.953 5.115-2.775 10.42-4.221 15.439-4.221.5 0 .997.014 1.491.043 5.298.309 10.363 2.235 15.054 5.724 4.841 3.601 9.155 8.855 12.825 15.617 10.335 19.046 4.849 43.918-16.305 73.923-6.79 9.633-15.154 19.719-24.916 30.056z"/><path d="m76.362 43.434c2.56 0 5.118-.977 7.071-2.929l.005-.005c3.905-3.905 3.902-10.234-.003-14.139s-10.239-3.902-14.145.002c-3.905 3.905-3.905 10.237 0 14.142 1.954 1.953 4.512 2.929 7.072 2.929z"/></svg>