<svg height="512pt" viewBox="-84 0 512 512.001" width="512pt" xmlns="http://www.w3.org/2000/svg"><path d="m343.046875 198.738281c-16.332031-104.679687-14.21875-114.160156-2.027344-137.285156 4.15625-7.878906-1.566406-17.332031-10.453125-17.332031h-105.480468c-4.453126-4.527344-9.832032-8.589844-15.917969-12.039063 14.234375-16.71875 34.867187-17.074219 35.902343-17.082031 4.128907-.003906 7.480469-3.34375 7.492188-7.476562.011719-4.144532-3.335938-7.5117192-7.476562-7.523438h-.027344c-1.699219 0-31.273438.386719-49.957032 25.679688-27.148437-9.703126-54.917968-6.3125-68.863281 18.441406h-112.175781c-8.90625 0-14.601562 9.46875-10.453125 17.335937 14.917969 28.296875 9.59375 49.953125 6.976563 70.886719-.394532 2.902344-9.472657 69.828125-9.007813 66.394531-12.203125 89.960938 47.546875 173.964844 136.445313 192.015625l-11.023438 59.007813h-38.472656c-22.597656 0-40.980469 18.382812-40.980469 40.980469 0 11.722656 9.539063 21.257812 21.261719 21.257812h207.011718c11.722657 0 21.261719-9.535156 21.261719-21.257812 0-22.597657-18.382812-40.980469-40.980469-40.980469h-38.472656l-11.023437-59.015625c42.984375-8.75 81.566406-33.726563 107.15625-70.449219 2.367187-3.398437 1.535156-8.074219-1.863281-10.441406-3.398438-2.367188-8.074219-1.535157-10.441407 1.863281-58.609375 84.101562-180.4375 90.5625-247.609375 13.664062-29.472656-33.742187-43.136718-78.40625-37.636718-122.8125h136.09375c.339843 2.160157-2.199219 15.828126 9.277343 27.089844 19.121094 18.765625 51.023438 4.8125 51.023438-21.519531v-14.824219c.929687-7.921875 7.621093-13.929687 15.332031-13.816406 8.1875.15625 14.851562 6.953125 14.851562 15.148438v32.679687c0 16.941406 13.90625 31.003906 30.730469 30.65625 16.304688-.308594 29.570313-13.832031 29.570313-30.144531v-25.269532h25.328125c3.59375 28.960938-.847657 58.128907-12.878907 84.472657-1.71875 3.769531-.058593 8.21875 3.707032 9.9375 3.800781 1.734375 8.234375.03125 9.9375-3.707031 13.460937-29.476563 18.253906-62.167969 13.863281-94.535157zm-60.96875 292c0 3.453125-2.804687 6.261719-6.257813 6.261719h-207.011718c-3.453125 0-6.261719-2.808594-6.261719-6.261719 0-14.324219 11.65625-25.976562 25.980469-25.976562h167.574218c14.324219 0 25.976563 11.652343 25.976563 25.976562zm-90.292969-97.644531 10.582032 56.667969h-60.105469l10.582031-56.667969c12.925781 1.472656 25.992188 1.472656 38.941406 0zm126.226563-267.3125h-107.113281c22.378906-16.117188 35.890624-42.117188 24.679687-66.660156h89.859375c-15.589844 33.488281-7.523438 61.566406-7.425781 66.660156zm-149.746094-90.082031c25.53125 0 64.621094 20.589843 54.632813 51.703125-5.972657 18.601562-30.222657 37.109375-52.414063 38.378906-.871094-.324219-26.164063 3.953125-35.242187-26.808594-6.992188-23.691406-1.464844-63.273437 33.023437-63.273437zm134.34375 151.871093c-8.003906 0-14.519531 6.515626-14.519531 14.519532v25.75c0 8.195312-6.664063 14.992187-14.851563 15.144531-8.621093.136719-15.449219-7.257813-15.449219-15.65625v-32.679687c0-16.511719-13.585937-30.152344-30.128906-30.152344-17.363281 0-30.054687 15.308594-30.054687 28.417968v15.226563c0 13.078125-15.835938 20.316406-25.519531 10.816406-6.421876-6.304687-4.414063-13.929687-4.785157-16.867187 0-8.003906-6.511719-14.519532-14.515625-14.519532h-134.550781l6.34375-46.789062h30.476563c9.914062 0 9.929687-15 0-15h-28.441407c.097657-4.964844 8.214844-33.066406-7.421875-66.660156h101.164063c-5.761719 22.148437-2.546875 49.773437 12.699219 66.660156h-48.007813c-9.917969 0-9.929687 15 0 15 55.117187.011719 179.886719 0 235 0l6.347656 46.789062zm0 0"/></svg>