<svg id="Capa_1" enable-background="new 0 0 512 512" height="512" viewBox="0 0 512 512" width="512" xmlns="http://www.w3.org/2000/svg"><g><path d="m474.5 248.5h-31v-45h22.656c4.143 0 7.5-3.357 7.5-7.5s-3.357-7.5-7.5-7.5h-22.656v-22.5c0-4.143-3.357-7.5-7.5-7.5s-7.5 3.357-7.5 7.5v22.5h-45v-45h52.5c4.143 0 7.5-3.357 7.5-7.5s-3.357-7.5-7.5-7.5h-52.5v-52.5c0-4.143-3.357-7.5-7.5-7.5s-7.5 3.357-7.5 7.5v52.5h-45v-45h22.5c4.143 0 7.5-3.357 7.5-7.5s-3.357-7.5-7.5-7.5h-22.5v-22.656c0-4.143-3.357-7.5-7.5-7.5s-7.5 3.357-7.5 7.5v22.656h-45v-31c0-4.143-3.357-7.5-7.5-7.5-4.142 0-7.5 3.357-7.5 7.5v31h-45v-22.656c0-4.143-3.358-7.5-7.5-7.5s-7.5 3.357-7.5 7.5v22.656h-22.5c-4.142 0-7.5 3.357-7.5 7.5s3.358 7.5 7.5 7.5h22.5v45h-45v-52.5c0-4.143-3.358-7.5-7.5-7.5s-7.5 3.357-7.5 7.5v52.5h-52.5c-4.142 0-7.5 3.357-7.5 7.5s3.358 7.5 7.5 7.5h52.5v45h-45v-22.5c0-4.143-3.358-7.5-7.5-7.5s-7.5 3.357-7.5 7.5v22.5h-22.657c-4.142 0-7.5 3.357-7.5 7.5s3.358 7.5 7.5 7.5h22.657v45h-31c-4.142 0-7.5 3.357-7.5 7.5s3.358 7.5 7.5 7.5h31v45h-22.657c-4.142 0-7.5 3.357-7.5 7.5s3.358 7.5 7.5 7.5h22.657v22.5c0 4.143 3.358 7.5 7.5 7.5s7.5-3.357 7.5-7.5v-22.5h45v45h-52.5c-4.142 0-7.5 3.357-7.5 7.5s3.358 7.5 7.5 7.5h52.5v52.5c0 4.143 3.358 7.5 7.5 7.5s7.5-3.357 7.5-7.5v-52.5h45v45h-22.5c-4.142 0-7.5 3.357-7.5 7.5s3.358 7.5 7.5 7.5h22.5v22.656c0 4.143 3.358 7.5 7.5 7.5s7.5-3.357 7.5-7.5v-22.656h45v31c0 4.143 3.358 7.5 7.5 7.5 4.143 0 7.5-3.357 7.5-7.5v-31h45v22.656c0 4.143 3.357 7.5 7.5 7.5s7.5-3.357 7.5-7.5v-22.656h22.5c4.143 0 7.5-3.357 7.5-7.5s-3.357-7.5-7.5-7.5h-22.5v-45h45v52.5c0 4.143 3.357 7.5 7.5 7.5s7.5-3.357 7.5-7.5v-52.5h52.5c4.143 0 7.5-3.357 7.5-7.5s-3.357-7.5-7.5-7.5h-52.5v-45h45v22.5c0 4.143 3.357 7.5 7.5 7.5s7.5-3.357 7.5-7.5v-22.5h22.656c4.143 0 7.5-3.357 7.5-7.5s-3.357-7.5-7.5-7.5h-22.656v-45h31c4.143 0 7.5-3.357 7.5-7.5s-3.357-7.5-7.5-7.5zm-346 60h-45v-45h45zm0-60h-45v-45h45zm60 60h-22.5c-4.142 0-7.5 3.357-7.5 7.5s3.358 7.5 7.5 7.5h22.5v45h-45v-105h45zm0-60h-45v-45h45zm0-60h-45v-45h45zm60 240h-45v-45h45zm0-60h-45v-45h45zm0-60h-45v-45h45zm0-60h-45v-45h45zm0-60h-45v-45h45zm0-60h-45v-45h45zm60 300h-45v-45h45zm0-60h-45v-45h45zm0-60h-45v-45h45zm0-60h-45v-45h45zm0-60h-45v-45h45zm0-60h-45v-45h45zm60 240h-45v-45h45zm0-60h-45v-45h45zm0-60h-45v-45h22.5c4.143 0 7.5-3.357 7.5-7.5s-3.357-7.5-7.5-7.5h-22.5v-45h45zm60 60h-45v-45h45zm0-60h-45v-45h45z"/><path d="m437.02 74.98c-48.352-48.351-112.64-74.98-181.02-74.98s-132.667 26.629-181.02 74.98c-48.351 48.352-74.98 112.64-74.98 181.02s26.629 132.668 74.98 181.02c48.353 48.351 112.64 74.98 181.02 74.98s132.668-26.629 181.02-74.98 74.98-112.64 74.98-181.02-26.629-132.668-74.98-181.02zm-181.02 422.02c-132.888 0-241-108.112-241-241s108.112-241 241-241 241 108.112 241 241-108.112 241-241 241z"/></g></svg>