<svg id="Icons" height="512" viewBox="0 0 60 60" width="512" xmlns="http://www.w3.org/2000/svg"><path d="m58.744 26.586-7.23-5.163-8.114-15.055a2.612 2.612 0 0 0 -3.3-1.18l-4.95 1.991a2.621 2.621 0 0 0 -1.276 1.088l-5.915 9.845-2.559-4.737a2.59 2.59 0 0 0 -3.3-1.175l-4.95 1.981v.007a2.609 2.609 0 0 0 -1.279 1.086l-9.571 15.945-3.254 1.486a3 3 0 0 0 -1.552 1.895l-1.387 5.051a3.006 3.006 0 0 0 1.206 3.275l17.187 11.55a3.013 3.013 0 0 0 2.957.245l36.8-17.278a2.636 2.636 0 0 0 1.743-2.432v-5.984a3.005 3.005 0 0 0 -1.256-2.441zm-1.679 1.258-.782.389a1 1 0 0 1 -1.323-.42l-1.291-2.395zm-21.478-18.544a.627.627 0 0 1 1.157.22l3.85 23.121a2.2 2.2 0 0 1 -1.336 2.378 2.16 2.16 0 0 1 -2.717-.987l-7.48-13.87zm-18 7a.626.626 0 0 1 1.153.219l3.923 23.536-14.286-8.406zm2.367 27.483-15.2-9.661 2.185-1 15.261 8.978zm-17.518-2.512a1 1 0 0 1 -.4-1.09l1.264-4.614 15.7 9.981v6.852zm54.977-5.641-36.413 17.096v-7.226l3.113-2.335a1.992 1.992 0 0 0 .773-1.929l-4.174-25.045a2.631 2.631 0 0 0 -.454-1.1l2.579-1.032a.6.6 0 0 1 .8.265l11.141 20.655a4.163 4.163 0 0 0 5.227 1.9 4.209 4.209 0 0 0 2.561-4.561l-3.85-23.127a2.65 2.65 0 0 0 -.458-1.108l2.59-1.031a.612.612 0 0 1 .792.268l8.244 15.293.007.012 3.309 6.136a3.015 3.015 0 0 0 3.977 1.262l.824-.41v5.4c-.001.187-.001.345-.588.617z"/></svg>