<svg id="Layer_1" enable-background="new 0 0 512 512" height="512" viewBox="0 0 512 512" width="512" xmlns="http://www.w3.org/2000/svg"><path d="m509.76 338.489c-2.733-4.422-7.562-7.114-12.76-7.114h-39.438l23.544-70.632c1.524-4.574.758-9.602-2.062-13.514s-7.348-6.229-12.169-6.229h-150.625c-4.821 0-9.35 2.318-12.169 6.229s-3.586 8.94-2.062 13.514l23.544 70.632h-75.039l-8.546-71.178c-.659-5.493-4.288-10.176-9.441-12.187-5.154-2.008-10.995-1.021-15.2 2.575l-42.468 36.318-26.805-41.098c-2.769-4.245-7.496-6.805-12.564-6.805s-9.795 2.56-12.563 6.806l-18.891 28.963-59.931-25.708c-5.085-2.181-10.955-1.387-15.277 2.067-4.321 3.453-6.392 9.005-5.386 14.445l12.163 65.802h-20.615c-4.946 0-9.574 2.438-12.371 6.518-2.797 4.079-3.403 9.275-1.621 13.889l23.279 60.25c2.234 5.782 7.794 9.594 13.992 9.594h428.596c5.682 0 10.876-3.21 13.416-8.292l30.125-60.25c2.325-4.65 2.077-10.173-.656-14.595zm-461.196 53.136-11.688-30.25h435.854l-15.125 30.25zm119.494-60.25h-65.115l32.558-49.917zm169.004-60.375h109.002l-20.125 60.375h-68.752zm-121.528 20.602 4.776 39.773h-16.435l-12.478-19.131zm-157.487-3.921 29.362 12.595-20.284 31.099h-1.002z"/><path d="m378.999 205.944c2.769 4.246 7.495 6.806 12.563 6.806s9.795-2.56 12.563-6.806l60.25-92.375c3.008-4.611 3.248-10.498.626-15.339-2.622-4.84-7.685-7.855-13.189-7.855h-120.5c-5.505 0-10.567 3.015-13.189 7.855-2.622 4.841-2.382 10.728.626 15.339zm45.121-85.569-32.558 49.917-32.558-49.917z"/></svg>