<svg id="Layer_1" height="512" viewBox="0 0 512 512" width="512" xmlns="http://www.w3.org/2000/svg" data-name="Layer 1"><path d="m431.491 175.1c-9.881-3.106-27.654-5.542-49.726 4.968a146.883 146.883 0 0 0 -40.226-49.934c-20.547-16.285-42.937-24.656-64.784-24.222a102.727 102.727 0 0 0 -43.033 10.28l-2.072-36.184a12.744 12.744 0 0 0 -10.575-13.585l-12.219-2.107a12.706 12.706 0 0 0 -13.536 6.7c-4.023 7.839-4.95 23.944-4.7 39.768-.643-.089-1.313-.179-2.03-.269a31.97 31.97 0 0 0 -2.54-8.467c-6.353-13.778-18.226-26.342-24.218-31.026-22.313-17.437-44.789-22.05-66.806-13.708-46.859 17.756-76.309 89.163-83.865 130a9.51 9.51 0 0 0 15.05 9.375c8.619-6.445 21.688-13.512 40.2-17.092-12.216 16.513-30.793 48.9-29.994 92.413.81 44.078 18.952 105.6 67.443 146.067 30.739 25.653 69.239 38.793 112.845 38.792a238.819 238.819 0 0 0 37.5-3.069 127.71 127.71 0 0 0 18.445 1.315 151.884 151.884 0 0 0 22.265-1.7 190.8 190.8 0 0 0 23-6.072 112.568 112.568 0 0 0 47.638 11.318h.071.075c38.125-.467 73.77-20.453 100.371-56.277 30.6-41.213 42.4-95.44 30.069-138.15-14.505-50.216-36.256-80.209-64.648-89.134zm-225.491-98.6a.778.778 0 0 1 .823-.358l12.215 2.105a.774.774 0 0 1 .649.856 6.035 6.035 0 0 0 -.04 1.116l2.436 42.547a119.634 119.634 0 0 0 -18.1 14.441l-1.167-20.15c-.616-17.445-.041-34.281 3.184-40.557zm-181.81 106.989c9.132-41.128 36.984-100.51 75.09-114.949a47.634 47.634 0 0 1 16.993-3.18c12.509 0 25.288 5.053 38.171 15.122 4.309 3.369 15.041 14.3 20.71 26.6a19.828 19.828 0 0 1 .88 2.324 210.669 210.669 0 0 0 -26.627.221c-26.2 1.866-65.217 9.726-102.262 36.571a6 6 0 1 0 7.041 9.717c34.607-25.079 71.114-32.488 95.646-34.287a197.6 197.6 0 0 1 26.251-.184c-.126.41-.244.823-.4 1.226-6.245 16.382-23.249 43.011-67.737 43.009q-3.085 0-6.354-.175c-36.95-2.004-61.926 7.942-77.402 17.985zm147.188 255.941a151.806 151.806 0 0 1 -59.829-30.559c-45.388-37.88-62.373-95.645-63.133-137.071-.944-51.369 28.354-86.72 35.248-94.31a155.229 155.229 0 0 1 17.282 0c58.973 3.176 79.754-34.29 85.954-50.55a31.84 31.84 0 0 0 1.305-4.355c1.046.138 1.987.274 2.823.4.555 11.362 1.492 21.293 2 26.154a172.8 172.8 0 0 0 -20.811 32.629c-16.863 33.938-25.59 75.52-24.573 117.086 1.053 43.014 12.671 81.893 32.713 109.475 11.936 16.427 26.476 28.623 43.237 36.438a183.4 183.4 0 0 1 -52.216-5.337zm103.513-44.139a167.888 167.888 0 0 1 -29.955-68.21 5.972 5.972 0 1 0 -11.726 2.27 179.92 179.92 0 0 0 32.047 73.093 151.579 151.579 0 0 0 38.193 36.706c-5.09 1.322-9.544 2.285-10.3 2.406-43.6 6.464-79.254-7.467-103.095-40.279-37.8-52.027-40.923-146.1-7.1-214.168 21.784-43.84 55.181-68.415 94.038-69.2 40.185-.838 77.576 33.6 94.257 67.994-2.436 1.547-4.91 3.241-7.424 5.126-22.216-16.665-45.236-22.39-65.229-16.107-27.445 8.625-48.776 38.677-63.4 89.319a123.978 123.978 0 0 0 -4.451 25.542 5.988 5.988 0 0 0 5.965 6.423h.021a6 6 0 0 0 5.96-5.594 112.692 112.692 0 0 1 4.033-23.041c13.441-46.537 32.1-73.857 55.472-81.2 21.718-6.832 43.314 5.719 55.539 15.1l-1.186 39.123a14.63 14.63 0 0 0 -2.36 1.386c-5.657 4.11-14.3 11.92-20.028 20.4-9.872 14.61-15.38 38.449-14.032 60.731 1.709 28.232 14.052 51.513 34.756 65.554a15.859 15.859 0 0 0 3.065 1.615l1.5 56.113c-31.921-2.421-61.751-20.382-84.56-51.102zm86.732-16.556c-22.5-15.257-28.467-39.063-29.513-56.347-1.363-22.529 5.043-43 12-53.287a78.452 78.452 0 0 1 17.139-17.416 2.653 2.653 0 0 1 3.081-.016c5.7 3.987 13.422 10.923 17.819 17.432 6.977 10.326 14.2 29.053 13.537 50.643-.5 16.347-5.93 39.8-28.959 58.713a4.3 4.3 0 0 1 -5.104.278zm94.815 16.5c-22.915 30.861-52.9 48.86-84.976 51.183l-1.5-56.142a16.133 16.133 0 0 0 4.381-2.551c26.511-21.768 32.763-48.787 33.339-67.619.748-24.446-7.562-45.85-15.589-57.729-5.617-8.314-14.761-16.264-20.885-20.547a14.656 14.656 0 0 0 -2.641-1.457l1.176-38.775c26.626-20.561 47.774-18.317 58.154-15.052 24.315 7.641 43.4 34.9 56.719 81.024 11.329 39.245.27 89.357-28.178 127.67z"/></svg>