<?xml version="1.0" encoding="UTF-8"?>
<svg xmlns="http://www.w3.org/2000/svg" id="Layer_1" data-name="Layer 1" viewBox="0 0 64 64" width="512" height="512"><path d="M44.416,22.027,38.21,23.7A.96.96,0,0,1,37,22.772a.97.97,0,0,1,.38-.765l7.075-5.359a4.088,4.088,0,0,0,1.031-5.533,4,4,0,0,0-5.727-.945L37.6,11.8A1,1,0,0,1,36,11V6.17a4.09,4.09,0,0,0-3.787-4.165A4,4,0,0,0,28,6v7.083a1,1,0,0,1-1.6.8l-2.142-1.623a2.871,2.871,0,0,0-4.6,2.288,8.617,8.617,0,0,0,3.4,6.833l3.573,2.708a.964.964,0,0,1,.38.765v.593a.959.959,0,0,1-1.21.926L20.8,25.027a4.6,4.6,0,0,0-5.639,2.895,4.46,4.46,0,0,0,.318,3.542,4.517,4.517,0,0,0,2.789,2.206L26.56,35.9a.6.6,0,0,1,.44.576v.478a.594.594,0,0,1-.5.588L19.89,38.629A3.869,3.869,0,0,0,16.7,43.068l.044.269a3.864,3.864,0,0,0,4.466,3.181l3.162-.609a6.022,6.022,0,0,1,6.29,2.81l.335.558V61a1,1,0,0,0,2,0V46.3a7.706,7.706,0,0,1,7.764-3.545l3.126.514a3.95,3.95,0,0,0,4.559-2.956,3.828,3.828,0,0,0-.577-3A3.882,3.882,0,0,0,45.3,35.677l-7.8-1.283a.6.6,0,0,1-.5-.589.64.64,0,0,1,.527-.6l8.733-3.236a5.418,5.418,0,0,0,3.7-2.69,3.33,3.33,0,0,0-.154-2.96A4.666,4.666,0,0,0,44.416,22.027Zm3.715,4.436a3.732,3.732,0,0,1-2.478,1.6L36.921,31.3a2.6,2.6,0,0,0,.254,5.067l7.8,1.283A1.865,1.865,0,0,1,46.5,39.891a1.983,1.983,0,0,1-2.282,1.41l-3.126-.515A9.713,9.713,0,0,0,33,43.189V41.618L36.447,39.9a1,1,0,1,0-.894-1.79L33,39.382v-8.7l4.371-1.748a1,1,0,1,0-.742-1.858L33,28.523V19.677l4.371-1.748a1,1,0,1,0-.742-1.858L33,17.523V12a1,1,0,0,0-2,0v7.523l-3.629-1.452a1,1,0,0,0-.742,1.858L31,21.677v9.936l-4.684-1.561a1,1,0,0,0-.632,1.9L31,33.72v8.06l-3.8-.76a1,1,0,1,0-.392,1.96l4.2.84v2.159a8.036,8.036,0,0,0-7-2.035l-3.135.6a1.861,1.861,0,0,1-2.14-1.538l-.044-.269a1.865,1.865,0,0,1,1.537-2.14l6.611-1.085A2.586,2.586,0,0,0,29,36.956v-.478a2.6,2.6,0,0,0-1.921-2.507l-8.291-2.233a2.5,2.5,0,0,1-1.726-3.2,2.636,2.636,0,0,1,3.218-1.583L25.27,28.3A2.96,2.96,0,0,0,29,25.445v-.593a2.972,2.972,0,0,0-1.173-2.36l-3.573-2.707a6.61,6.61,0,0,1-2.6-5.239.871.871,0,0,1,1.4-.694l2.142,1.624A3,3,0,0,0,30,13.083V6a2,2,0,0,1,2.108-2A2.119,2.119,0,0,1,34,6.17V11A3,3,0,0,0,38.812,13.4l2.155-1.632a2,2,0,0,1,2.865.474,2.121,2.121,0,0,1-.585,2.817l-7.075,5.358A2.978,2.978,0,0,0,35,22.772a2.961,2.961,0,0,0,3.729,2.859l6.207-1.672a2.657,2.657,0,0,1,3.084,1.263A1.391,1.391,0,0,1,48.131,26.463Z"/></svg>
