<?xml version="1.0"?>
<svg xmlns="http://www.w3.org/2000/svg" viewBox="0 0 64 64" width="512" height="512"><g id="outline"><path d="M31.22,2.375C30.686,3.041,26,8.975,26,12a5.92,5.92,0,0,0,2,4.451v9.24c-.717,1.065-2,3.135-2,4.309a3.006,3.006,0,0,0,2,2.829V61a1,1,0,0,0,1,1h6a1,1,0,0,0,1-1V42.829A3.006,3.006,0,0,0,38,40c0-1.174-1.283-3.244-2-4.309V27.829A3.006,3.006,0,0,0,38,25c0-1.174-1.283-3.244-2-4.309v-4.24A5.92,5.92,0,0,0,38,12c0-3.025-4.686-8.959-5.22-9.625A1.032,1.032,0,0,0,31.22,2.375ZM32,4.635c.745.994,1.555,2.17,2.256,3.316a9.308,9.308,0,0,0-1.86,1.88A8.586,8.586,0,0,0,30.414,6.9C30.937,6.1,31.484,5.324,32,4.635ZM34.375,15.2a.986.986,0,0,0-.375.97v4.526c-.715,1.061-2,3.128-2,4.306h2a7.5,7.5,0,0,1,1-2.144A7.487,7.487,0,0,1,36,25a1,1,0,0,1-1,1,1,1,0,0,0-1,1v8.694c-.715,1.061-2,3.128-2,4.306h2a7.485,7.485,0,0,1,1-2.143A7.484,7.484,0,0,1,36,40a1,1,0,0,1-1,1,1,1,0,0,0-1,1v9H32v2h2v7H30V46h2V44H30V32a1,1,0,0,0-1-1,1,1,0,0,1-1-1,7.485,7.485,0,0,1,1-2.143A7.484,7.484,0,0,1,30,30h2c0-1.178-1.285-3.245-2-4.306V16.232a1,1,0,0,0-.375-1.034A3.96,3.96,0,0,1,28,12a8.454,8.454,0,0,1,1.328-3.356A6.448,6.448,0,0,1,31,13v1a1,1,0,0,0,2,0,5.669,5.669,0,0,1,2.249-4.278A5.95,5.95,0,0,1,36,12,3.96,3.96,0,0,1,34.375,15.2Z"/><path d="M48,16.451A5.92,5.92,0,0,0,50,12c0-3.025-4.686-8.959-5.22-9.625a1.032,1.032,0,0,0-1.56,0C42.686,3.041,38,8.975,38,12a5.92,5.92,0,0,0,2,4.451v12.24c-.717,1.065-2,3.135-2,4.309a3.006,3.006,0,0,0,2,2.829v7.862c-.717,1.065-2,3.135-2,4.309a3.006,3.006,0,0,0,2,2.829V61a1,1,0,0,0,1,1h6a1,1,0,0,0,1-1V42.829A3.006,3.006,0,0,0,50,40c0-1.174-1.283-3.244-2-4.309ZM44,4.635c.745.994,1.555,2.17,2.256,3.316a9.308,9.308,0,0,0-1.86,1.88A8.586,8.586,0,0,0,42.414,6.9C42.937,6.1,43.484,5.324,44,4.635ZM47,41a1,1,0,0,0-1,1V60H42V57h2V55H42V50a1,1,0,0,0-1-1,1,1,0,0,1-1-1,7.485,7.485,0,0,1,1-2.143A7.485,7.485,0,0,1,42,48h2c0-1.178-1.285-3.245-2-4.306V35a1,1,0,0,0-1-1,1,1,0,0,1-1-1,7.473,7.473,0,0,1,1-2.143A7.485,7.485,0,0,1,42,33h2c0-1.178-1.285-3.245-2-4.306V22h2V20H42V16.232a1,1,0,0,0-.375-1.034A3.96,3.96,0,0,1,40,12a8.454,8.454,0,0,1,1.328-3.356A6.448,6.448,0,0,1,43,13v1a1,1,0,0,0,2,0,5.669,5.669,0,0,1,2.249-4.278A5.95,5.95,0,0,1,48,12a3.96,3.96,0,0,1-1.625,3.2.986.986,0,0,0-.375.97V25H44v2h2v8.694c-.715,1.061-2,3.128-2,4.306h2a7.485,7.485,0,0,1,1-2.143A7.484,7.484,0,0,1,48,40,1,1,0,0,1,47,41Z"/><path d="M19.22,2.375C18.686,3.041,14,8.975,14,12a5.92,5.92,0,0,0,2,4.451v4.24c-.717,1.065-2,3.135-2,4.309a3.006,3.006,0,0,0,2,2.829V38.691c-.717,1.065-2,3.135-2,4.309a3.006,3.006,0,0,0,2,2.829V61a1,1,0,0,0,1,1h6a1,1,0,0,0,1-1V40.829A3.006,3.006,0,0,0,26,38c0-1.174-1.283-3.244-2-4.309V16.451A5.92,5.92,0,0,0,26,12c0-3.025-4.686-8.959-5.22-9.625A1.032,1.032,0,0,0,19.22,2.375ZM20,4.635c.745.994,1.555,2.17,2.256,3.316a9.308,9.308,0,0,0-1.86,1.88A8.586,8.586,0,0,0,18.414,6.9C18.937,6.1,19.484,5.324,20,4.635ZM22.375,15.2a.986.986,0,0,0-.375.97V28H20v2h2v3.694c-.715,1.061-2,3.128-2,4.306h2a7.485,7.485,0,0,1,1-2.143A7.484,7.484,0,0,1,24,38a1,1,0,0,1-1,1,1,1,0,0,0-1,1V60H18V55h2V53H18V51h2V49H18V45a1,1,0,0,0-1-1,1,1,0,0,1-1-1,7.485,7.485,0,0,1,1-2.143A7.485,7.485,0,0,1,18,43h2c0-1.178-1.285-3.245-2-4.306V27a1,1,0,0,0-1-1,1,1,0,0,1-1-1,7.473,7.473,0,0,1,1-2.143A7.485,7.485,0,0,1,18,25h2c0-1.178-1.285-3.245-2-4.306V16.232a1,1,0,0,0-.375-1.034A3.96,3.96,0,0,1,16,12a8.454,8.454,0,0,1,1.328-3.356A6.448,6.448,0,0,1,19,13v1a1,1,0,0,0,2,0,5.669,5.669,0,0,1,2.249-4.278A5.95,5.95,0,0,1,24,12,3.96,3.96,0,0,1,22.375,15.2Z"/></g></svg>
