<svg id="Capa_1" enable-background="new 0 0 512 512" height="512" viewBox="0 0 512 512" width="512" xmlns="http://www.w3.org/2000/svg"><g><g><path d="m34.623 384.24c-.033 4.142 3.298 7.526 7.44 7.559s7.526-3.298 7.559-7.44-3.298-7.527-7.44-7.56-7.526 3.299-7.559 7.441z"/><path d="m81.053 393.11c-4.142-.033-7.526 3.298-7.559 7.44s3.298 7.527 7.44 7.56 7.526-3.298 7.56-7.44c.032-4.142-3.299-7.527-7.441-7.56z"/><path d="m61.696 437.957c4.142.033 7.526-3.298 7.56-7.44.033-4.142-3.298-7.527-7.44-7.56s-7.526 3.298-7.56 7.44c-.033 4.143 3.298 7.527 7.44 7.56z"/><path d="m95.52 460.227c4.142.033 7.526-3.298 7.559-7.44s-3.298-7.527-7.44-7.56-7.527 3.298-7.56 7.44 3.298 7.527 7.441 7.56z"/><path d="m68.988 338.512c.033-4.142-3.298-7.526-7.44-7.559s-7.526 3.298-7.559 7.44 3.298 7.526 7.44 7.56c4.141.032 7.526-3.299 7.559-7.441z"/><path d="m508.198 237.876c.023-2.875-1.152-5.667-3.222-7.659-20.659-19.881-56.43-34.048-97.8-39.535 29.634-34.857 47.981-73.246 49.068-104.169.101-2.872-.998-5.694-3.015-7.743-2.016-2.048-4.819-3.189-7.693-3.136-32.811.63-74.326 20.548-111.317 52.823-1.241-52.404-16.184-99.743-39.831-125.111-1.959-2.102-4.731-3.321-7.605-3.344-2.899-.045-5.667 1.151-7.66 3.222-25.491 26.489-41.604 77.812-42.051 133.939-.078 9.758.348 19.363 1.194 28.738-17.427-5.465-36.265-5.676-54.705-.359-25.385 7.32-46.971 24.212-60.78 47.563-2.535 4.287-4.788 8.776-6.693 13.343-3.984 9.545-11.834 16.959-21.538 20.343-29.988 10.458-55.468 31.257-71.746 58.567-37.884 63.556-17.342 146.609 45.792 185.137 21.591 13.176 45.97 19.902 70.568 19.901 15.029 0 30.144-2.512 44.746-7.597 3.912-1.362 5.978-5.638 4.616-9.55-1.362-3.911-5.637-5.979-9.55-4.616-34.246 11.928-71.63 7.938-102.567-10.941-56.146-34.265-74.414-108.129-40.721-164.654 14.477-24.287 37.135-42.784 63.8-52.083 13.723-4.785 24.818-15.256 30.442-28.729 1.64-3.929 3.578-7.793 5.762-11.485 11.854-20.046 30.33-34.531 52.025-40.787 10.359-2.987 20.852-3.899 31.035-2.83-19.886 12.95-33.929 32.909-39.785 56.804-6.289 25.66-2.385 52.79 10.992 76.392 2.455 4.331 5.227 8.519 8.24 12.447 6.294 8.207 8.816 18.706 6.92 28.807-5.86 31.213-.506 63.666 15.075 91.38 2.544 4.526 5.327 8.838 8.302 12.955-6.001 6.619-12.718 12.552-20.128 17.726-3.396 2.371-4.227 7.046-1.856 10.443 2.371 3.396 7.047 4.229 10.443 1.856 7.708-5.382 14.747-11.493 21.1-18.265 26.037 28.578 62.995 44.333 100.752 44.33 21.983-.002 44.242-5.341 64.747-16.589 32.087-17.602 55.261-46.669 65.25-81.846 9.992-35.184 5.563-72.082-12.469-103.898-6.433-11.351-14.437-21.634-23.691-30.585 30.208-6.662 55.807-18.308 72.21-33.598 2.101-1.96 3.321-4.732 3.344-7.607zm-27.957-7.922-112.522-.803c7.359-5.94 14.586-12.365 21.575-19.244 1.863-1.834 3.684-3.69 5.484-5.556 33.958 3.121 64.323 12.231 85.463 25.603zm-146.254-80.959c30.362-29.21 64.638-49.483 93.877-56.062l-50.411 49.696c-2.95 2.908-2.984 7.656-.076 10.606 1.467 1.489 3.404 2.235 5.341 2.235 1.901 0 3.804-.719 5.265-2.159l50.859-50.138c-7.047 30.052-28.878 65.344-60.069 96.043-6.475 6.373-13.144 12.328-19.914 17.838-.34-.629-.673-1.262-1.025-1.883-3.904-6.888-8.454-13.171-13.52-18.81l18.743-18.478c2.95-2.908 2.984-7.656.076-10.606s-7.657-2.984-10.606-.076l-19.01 18.74c-1.038-.867-2.093-1.708-3.159-2.531 1.86-11.065 3.095-22.595 3.629-34.415zm-40.124-121.565c16.266 26.233 25.785 66.625 25.437 110.387-.1 12.591-1.029 24.878-2.677 36.628-7.555-4.117-15.54-7.245-23.743-9.31zm-15.004.522-.961 134.626c-8.26-.757-16.603-.453-24.824.985-.727-8.56-1.075-17.347-1.004-26.281.346-43.408 10.348-83.342 26.789-109.33zm164.425 289.11c16.038 28.296 19.977 61.113 11.09 92.404-8.885 31.285-29.496 57.136-58.035 72.792-57.671 31.635-130.823 10.706-163.071-46.655-13.857-24.647-18.618-53.507-13.408-81.262 2.682-14.284-.875-29.12-9.76-40.704-2.592-3.379-4.978-6.984-7.092-10.715-11.483-20.26-14.848-43.495-9.473-65.424 5.335-21.768 18.661-39.643 37.523-50.334 11.974-6.787 25.067-10.004 38.149-10.004 29.624 0 59.191 16.497 75.576 45.406 2.116 3.734 3.984 7.634 5.551 11.592 5.369 13.559 16.297 24.242 29.983 29.31 26.599 9.85 48.961 28.882 62.967 53.594zm-25.356-50.32c-9.903-7.18-20.791-13.041-32.401-17.339-3.412-1.263-6.575-3.028-9.416-5.191l104.656.747c-16.328 10.127-38.135 17.64-62.839 21.783z"/><path d="m376.759 273.082c-16.412-6.077-29.517-18.889-35.955-35.15-1.393-3.519-3.055-6.987-4.938-10.31-10.021-17.682-25.855-30.727-44.583-36.733-18.947-6.076-38.541-4.231-55.171 5.194-16.63 9.426-28.278 25.289-32.799 44.667-4.468 19.154-1.41 39.439 8.611 57.12 1.88 3.317 4.002 6.524 6.31 9.533 10.654 13.892 14.918 31.69 11.7 48.833-4.767 25.393-.41 51.796 12.268 74.346 13.488 23.991 35.41 41.966 61.728 50.614 11.355 3.731 23.08 5.586 34.753 5.586 15.222 0 30.357-3.156 44.46-9.421 3.785-1.682 5.491-6.113 3.809-9.899-1.681-3.785-6.111-5.491-9.899-3.809-21.513 9.557-45.819 10.725-68.441 3.292-22.748-7.475-41.689-23-53.335-43.715-10.954-19.483-14.719-42.293-10.601-64.228 4.003-21.325-1.296-43.459-14.54-60.728-1.886-2.459-3.623-5.084-5.162-7.8-8.159-14.394-10.664-30.843-7.054-46.317 3.558-15.25 12.645-27.688 25.588-35.024s28.284-8.741 43.194-3.96c15.13 4.853 27.956 15.452 36.114 29.846 1.542 2.721 2.902 5.56 4.041 8.436 8.003 20.215 24.292 36.141 44.692 43.695 21.02 7.783 38.693 22.828 49.767 42.364 12.557 22.154 15.734 47.871 8.948 72.414-4.634 16.761-13.673 31.867-26.142 43.684-3.006 2.849-3.134 7.596-.284 10.603s7.597 3.134 10.603.284c14.449-13.694 24.92-31.183 30.281-50.573 7.854-28.404 4.176-58.167-10.355-83.808-12.816-22.612-33.275-40.026-57.608-49.036z"/><path d="m393.015 340.13c-9.191-16.216-23.708-28.163-40.876-33.641-17.38-5.544-35.383-3.819-50.696 4.859-31.408 17.802-41.434 59.678-22.349 93.35 9.191 16.216 23.708 28.163 40.876 33.641 6.684 2.133 13.459 3.19 20.139 3.19 10.689 0 21.133-2.708 30.557-8.049 31.408-17.802 41.433-59.678 22.349-93.35zm-29.746 80.3c-11.632 6.593-25.391 7.877-38.74 3.619-13.561-4.327-25.063-13.826-32.386-26.747-15.006-26.476-7.517-59.181 16.696-72.904 7.127-4.04 15.051-6.086 23.192-6.086 5.145 0 10.378.818 15.548 2.468 13.561 4.327 25.063 13.825 32.386 26.747 15.007 26.476 7.517 59.18-16.696 72.903z"/></g></g></svg>