<svg id="Layer_1" height="512" viewBox="0 0 512 512" width="512" xmlns="http://www.w3.org/2000/svg" data-name="Layer 1"><path d="m439.177 106.185c-4.362-2.283-9.748-3.622-15.451-5.039-14.767-3.668-33.144-8.233-45.877-31.63a48.109 48.109 0 0 1 -1.991-4.383c-2.782-6.675-6.591-15.817-21.229-21.1a6.137 6.137 0 0 0 -.789-.219 5.977 5.977 0 0 0 -1.78-1.238 101.016 101.016 0 0 0 -12.06-4.337c-2.225-.627-6.966-1.96-11.5-1.678l-11.168-2.016a6 6 0 0 0 -5.382 1.736c-10.1 10.455-7.638 25.978-6.167 32.012l-4.946 10.114a6 6 0 0 0 -.107 5.042c3.079 7.033 10.063 27.935 5.877 39.288-.009.026-.02.051-.029.077a13.3 13.3 0 0 1 -1.417 2.809c-18.437 27.167-25.709 41.869-31.018 52.605-1.664 3.365-3.1 6.271-4.672 9.168-26.382 48.671-99.68 93-142.777 97.242-2.654.262-5.733.558-9.108.882-20.093 1.931-50.458 4.848-64.664 7.569a13.743 13.743 0 0 1 -1.779.192c-.067 0-.131.006-.2.009-2.593.119-6.313-.1-9.944-.315-9.024-.535-18.356-1.087-24.006 2.133a6.014 6.014 0 0 0 -1.759 1.522c-1.757 2.252-10.5 13.942-10.23 23.009.214 7.057 8.107 13.4 20.124 22.265 2.037 1.5 3.96 2.923 5.4 4.075 20.882 16.7 44.923 27.819 64.63 34a5.964 5.964 0 0 0 -.878 1.418c-1.138 2.706-6.673 16.655-3.982 25.529 2.2 7.266 13.072 11.841 28.186 17.511 1.612.6 3.1 1.162 4.366 1.662 29.2 11.486 59.716 15.461 85.267 15.461 19.749 0 36.532-2.376 47.422-5.5a257.387 257.387 0 0 0 55.018-22.513c-2.238 2.742-4.394 5.457-6.378 8.1-1.443 1.92-5.235 4.974-8.9 7.928-7.041 5.67-14.321 11.533-16.34 17.714a6.029 6.029 0 0 0 -.279 2.31c.213 2.847 1.593 17.383 7.89 23.911 2.92 3.028 7.687 4.035 14.206 4.035 4.423 0 9.652-.464 15.658-1.075 2.519-.256 4.9-.5 6.739-.613 38.418-2.4 71.449-16.883 100.98-44.263 38.878-36.047 84.8-100.8 82.8-204.586-.688-36.002-26.802-99.387-67.756-120.823zm-75.656-33.071c.137-1.738.284-3.628.29-5.651.326.741.644 1.5.97 2.287a58.171 58.171 0 0 0 2.528 5.5c9.263 17.022 21.056 25.727 32.506 30.843l-4.246 8.569-17.664 1.882c-7.717-8.8-14.164-20.484-14.616-38.458-.038-1.519.094-3.196.232-4.972zm-34.177-24.631c2.91-.169 10.184 1.816 16.715 4.572 6.426 7.306 6 12.8 5.5 19.12a59.252 59.252 0 0 0 -.266 6.215c.366 14.536 4.07 26.942 11.325 37.926 1.307 1.979 2.688 3.833 4.107 5.587l-8.353 6.227-8.923-2.9c-.234-6.939-2.376-14.921-6.429-23.873a125.018 125.018 0 0 0 -8.867-16.141l.03-11.309a6 6 0 0 0 -1.009-3.346c-.084-.124-8.03-12.497-3.83-22.078zm-11.483 18.5a36.449 36.449 0 0 1 -1.347-7.274 47.487 47.487 0 0 0 5.665 15.853l-.031 11.459a6.018 6.018 0 0 0 1.083 3.454c4.021 5.758 12.457 20.3 14.012 32.306l-17.729-2.8c1.978-14.636-4.019-31.933-6.709-38.727l4.757-9.726a6.005 6.005 0 0 0 .299-4.547zm-290.582 261.535c-4.351-3.342-9.323-7.44-10.276-9.55.138-3.31 3.839-9.686 6.822-13.792 3.372-1 11.45-.519 16.468-.222 1.32.078 2.593.152 3.827.215l-2.295 12.931zm10.747 8.089c-.215-.173-.455-.357-.684-.536l11.151-7.987c5.342 1.395 17.654 4.444 31.527 6.734a6 6 0 0 0 1.955-11.839c-11.339-1.872-21.793-4.324-27.794-5.831l2.218-12.5c14.156-2.555 43.035-5.33 62.334-7.184 3.386-.325 6.475-.622 9.138-.884 46.933-4.626 123.618-50.83 152.15-103.467 1.677-3.094 3.232-6.238 4.877-9.566 5.444-11 12.217-24.7 30.193-51.186.188-.278.356-.567.532-.852l20.147 3.184c-13.62 39.615-17.506 52.961-20.922 67.385-12.593 53.193-58.723 119.557-114.119 138.537-12.782 4.379-50.261 17.771-69.939 27.029-2.252 1.06-7.056 2.086-11.7 3.078-2.2.47-4.415.945-6.581 1.458-19.976-4.222-49.589-15.664-74.483-35.573zm84.521 76.538c-5.252-1.97-18.542-6.976-20.832-9.96-.8-3.36 1.212-10.864 3.1-15.81 1.768-1.136 5.162-2.187 8.782-3.1a5.971 5.971 0 0 0 1.159-.287c2.376-.575 4.784-1.09 6.838-1.529 3.254-.7 6.244-1.339 8.873-2.06l5.71 10.628zm129.693 11.386c-21.475 6.148-71.455 9.231-118.234-7.106l12.474-20.243a174.376 174.376 0 0 0 27.954-3.422 6 6 0 0 0 -2.36-11.766 165.333 165.333 0 0 1 -25.423 3.173l-4.982-9.275c20.065-8.789 51.511-20 62.948-23.923 27.184-9.314 54.794-30.358 77.746-59.255 21.149-26.627 37.245-58.654 44.162-87.87 3.36-14.189 7.226-27.412 21.058-67.6l10.034 3.258a6 6 0 0 0 5.44-.9l11.885-8.861c2.691 2.568 5.334 4.863 7.747 6.955 4.168 3.614 7.769 6.736 9.85 9.671 23.856 33.651 18.255 99.377 6.658 135.3-13.12 40.641-33.882 73.483-61.708 97.614-22.982 19.933-50.867 34.406-85.249 44.25zm57.445 40.53c-5.6.48-12.49.855-14.7-.106-2.123-2.543-3.668-9.753-4.218-14.8 1.826-3 8.13-8.08 12.043-11.232 2.047-1.648 3.957-3.193 5.669-4.678l8.809 11.048zm106.291-42.261c-10.04 9.308-40.518 37.551-92.963 41.039l6.707-17.443a6 6 0 0 0 -.909-5.894l-12.206-15.306c3.986-5.064 8.446-10.322 13.123-15.829 6.248-7.358 12.7-14.963 18.176-22.359 28.483-25.526 49.244-58.928 62.713-100.65 11.512-35.66 19.441-106.811-8.289-145.926-2.917-4.115-7.221-7.847-11.778-11.8-.462-.4-.931-.807-1.4-1.216l10.968-1.169a6 6 0 0 0 4.687-3.209c15.919 3.062 30.008 12.939 45.376 45.247a6 6 0 1 0 10.836-5.155c-10.84-22.789-24.553-44.469-50.735-51.127l.879-1.775c3.379 1 6.631 1.809 9.672 2.564 5.2 1.293 9.693 2.409 12.78 4.024 36.507 19.109 60.707 78.166 61.328 110.427 1.912 99.342-41.887 161.176-78.965 195.557z"/></svg>