<?xml version="1.0"?>
<svg xmlns="http://www.w3.org/2000/svg" id="Layer_3" data-name="Layer 3" viewBox="0 0 64 64" width="512" height="512"><path d="M59.187,31.719a25.159,25.159,0,0,0-7.55-7.668A15.507,15.507,0,0,0,55,14.4V10a1,1,0,0,0-1-1H46.23a17.163,17.163,0,0,0-6.175,1.146,16.869,16.869,0,0,0-5.353,3.28,17.184,17.184,0,0,0-5.2,8.752,15.536,15.536,0,0,0-11.869-8.9L15,12.889A15.547,15.547,0,0,0,3.6,15.625L1.419,17.186A1,1,0,0,0,1,18a15.524,15.524,0,0,0,9.957,14.557l2,.779a15.6,15.6,0,0,0,3.454.892,13.352,13.352,0,0,0,1.512,17.114l2.367,2.366A1,1,0,0,0,21,54a.978.978,0,0,0,.142-.01l2.61-.373a14.213,14.213,0,0,0,8.479-4.512A19,19,0,0,0,46,55h.94A31.432,31.432,0,0,0,62.5,50.868,1,1,0,0,0,63,50V45A24.914,24.914,0,0,0,59.187,31.719Zm-1.694,1.063A22.913,22.913,0,0,1,61,45v2.28l-5.5-6.473c-.115-.135-.237-.262-.353-.4a10.913,10.913,0,0,1,3.539.536l.632-1.9a12.872,12.872,0,0,0-5.928-.507,36.419,36.419,0,0,0-3.81-3.281A17.138,17.138,0,0,1,56,34V32a19.134,19.134,0,0,0-8.33,1.927A36.827,36.827,0,0,0,44.2,31.913a19.537,19.537,0,0,1,8.655-.716l.284-1.98a21.594,21.594,0,0,0-11.513,1.518q-.961-.4-1.945-.746a15.17,15.17,0,0,0,10.585-4.437A23.146,23.146,0,0,1,57.493,32.782Zm-8.1-9.165A13.194,13.194,0,0,1,47.2,25.541,13.675,13.675,0,0,1,39.4,28H31.841a39.029,39.029,0,0,1,2.425-3.286l.185-.047A55.966,55.966,0,0,1,48,23V21a57.921,57.921,0,0,0-11.4,1.155,38.915,38.915,0,0,1,4.234-3.7l4.422-.885A29.438,29.438,0,0,1,51,17V15a31.393,31.393,0,0,0-5.679.527c.516-.287,1.027-.583,1.557-.848L53,11.618V14.4A13.526,13.526,0,0,1,49.39,23.617ZM36.042,14.911a14.9,14.9,0,0,1,4.727-2.9A15.171,15.171,0,0,1,46.23,11h3.533l-3.78,1.89a41.061,41.061,0,0,0-4.834,2.846,8.447,8.447,0,0,1,.746-2.289l-1.79-.894A10.527,10.527,0,0,0,39,17.236v.075a40.808,40.808,0,0,0-3.533,3.141,10.887,10.887,0,0,1,1.365-2.9l-1.664-1.11a12.874,12.874,0,0,0-2.149,6.625c-.7.825-1.354,1.687-1.988,2.568A15.212,15.212,0,0,1,36.042,14.911ZM14.7,14.867l2.634.395A13.542,13.542,0,0,1,28.794,26.831q-1.418-1.05-2.894-2a11.24,11.24,0,0,0-3.193-6.543l-1.414,1.414a9.246,9.246,0,0,1,2.255,3.71,50.459,50.459,0,0,0-6.962-3.267,10.615,10.615,0,0,0-2.707-4.684l-.171-.172-1.416,1.412.172.173a8.624,8.624,0,0,1,1.687,2.43,50.473,50.473,0,0,0-9.4-2.049l.012-.008A13.562,13.562,0,0,1,14.7,14.867ZM13.686,31.472l-2-.78a13.519,13.519,0,0,1-8.63-11.6,48.53,48.53,0,0,1,10.663,2.176A12.69,12.69,0,0,1,7.343,23H6v2H7.343a14.7,14.7,0,0,0,8.73-2.9,48.323,48.323,0,0,1,7.391,3.583,26.513,26.513,0,0,1-7.374,2.049l-2.214.277.248,1.984,2.214-.276a28.527,28.527,0,0,0,9.145-2.771c.669.443,1.325.908,1.974,1.385l-1.823.243a13.351,13.351,0,0,0-7.664,3.8A13.568,13.568,0,0,1,13.686,31.472ZM16,41.861a11.442,11.442,0,0,1,9.9-11.3l1.873-.25q-1.228,1.728-2.275,3.556A13.9,13.9,0,0,1,20,35v2a15.934,15.934,0,0,0,4.141-.566q-.634,1.319-1.173,2.679A14.5,14.5,0,0,1,18,40v2a16.5,16.5,0,0,0,4.116-.535q-.451,1.366-.81,2.762A7.516,7.516,0,0,1,18,45v2a9.507,9.507,0,0,0,2.778-.434q-.405,2.072-.6,4.2l-.835-.834A11.342,11.342,0,0,1,16,41.861Zm7.469,9.776-1.383.2a40.689,40.689,0,0,1,.543-4.3A4.652,4.652,0,0,0,26,49V47a2.667,2.667,0,0,1-2.608-2.138l-.082-.41q.366-1.393.833-2.752A6.332,6.332,0,0,0,29,44V42a4.321,4.321,0,0,1-3.686-2.087l-.3-.506c.476-1.156,1-2.291,1.586-3.4A5.873,5.873,0,0,0,31,38V36a3.874,3.874,0,0,1-3.327-1.893A40.335,40.335,0,0,1,30.1,30.512l.31.309A12.192,12.192,0,0,1,34,39.495,12.325,12.325,0,0,1,23.469,51.637ZM46,53a16.99,16.99,0,0,1-12.5-5.5A14.163,14.163,0,0,0,32.629,30.3a34.613,34.613,0,0,1,5.81,1.37,23.478,23.478,0,0,1-1.206,15.6l-.147.331,1.828.812.147-.331A25.486,25.486,0,0,0,40.7,32.514a34.991,34.991,0,0,1,5.64,2.929A34.514,34.514,0,0,1,47.105,48.1l-.1.776,1.984.248.1-.776a36.481,36.481,0,0,0-.335-11.206A34.394,34.394,0,0,1,52.412,40.4l.058.173A29.754,29.754,0,0,1,54,50h2a31.728,31.728,0,0,0-.652-6.283L60.433,49.7A29.419,29.419,0,0,1,46.94,53Z"/></svg>
