<?xml version="1.0" encoding="iso-8859-1"?>
<!-- Generator: Adobe Illustrator 19.0.0, SVG Export Plug-In . SVG Version: 6.00 Build 0)  -->
<svg version="1.1" id="Capa_1" xmlns="http://www.w3.org/2000/svg" xmlns:xlink="http://www.w3.org/1999/xlink" x="0px" y="0px"
	 viewBox="0 0 512.002 512.002" style="enable-background:new 0 0 512.002 512.002;" xml:space="preserve">
<g>
	<g>
		<path d="M488.464,86.197c-11.939-13.871-32.415-30.707-62.158-32.137c-4.155-0.211-7.654,2.993-7.853,7.132
			c-0.199,4.138,2.994,7.654,7.132,7.853c24.419,1.174,41.489,15.297,51.509,26.94c3.431,3.986,1.46,10.224-3.64,11.303
			c-21.606,4.572-50.005,17.661-62.605,54.047c-5.074,14.654-12.976,24.401-23.483,28.971c-17.191,7.476-36.482-0.896-36.653-0.972
			c-1.808-0.815-3.866-0.88-5.723-0.183c-16.634,6.254-28.819,1.621-35.236-2.305c26.439-32.268,60.859-59.585,100.9-71.93
			c3.958-1.22,6.179-5.419,4.958-9.377c-1.22-3.958-5.419-6.181-9.377-4.958c-46.268,14.264-80.804,45.241-102.408,70.039
			c-1.27-33.61,27.198-52.177,28.565-53.047c1.772-1.113,2.999-2.917,3.383-4.974c7.481-40.06,43.567-39.749,54.447-38.7
			c4.13,0.4,7.788-2.623,8.186-6.747c0.397-4.123-2.623-7.789-6.747-8.186c-32.772-3.161-62.083,12.719-70.005,47.821
			c-24.637,18.254-38.395,47.604-30.682,79.644c-13.342,17.593-21.341,32.074-24.125,37.407c-0.377-0.057-0.754-0.114-1.132-0.168
			c5.559-73.399,18.214-139.23,37.642-195.772c1.346-3.917-0.738-8.186-4.655-9.531c-3.918-1.347-8.186,0.738-9.531,4.655
			c-19.353,56.318-32.111,121.525-37.977,193.982c-3.442-9.301-9.433-23.894-18.503-40.945c14.667-35.231,3.655-71.08-20.294-95.58
			c-1.75-34.01-20.973-50.654-37.061-58.662c-14.297-7.117-28.399-8.613-33.439-8.927C100.535-8.564,60.319-2.441,26.973,25.351
			c-14.178,11.817-10.65,34.511,6.475,41.229c20.015,7.853,45.178,24.911,51.401,61.592c3.819,22.518,13.479,38.911,28.71,48.723
			c20.106,12.953,43.618,10.129,51.962,8.552c19.288,10.25,39.214,10.319,56.189,1.99c7.582,14.787,12.674,27.383,15.621,35.376
			c-29.895,2.425-57.92,15.482-79.309,37.057c-64.281,64.84-40.599,173.845,43.851,206.693c22.084,8.592,28.152,24.884,35.134,38.85
			c4.394,8.787,16.948,8.788,21.343-0.001c7.525-15.05,12.896-30.405,34.159-38.475c39.985-15.171,69.354-49.123,78.56-90.82
			c0.893-4.045-1.662-8.049-5.708-8.941c-4.043-0.899-8.048,1.661-8.942,5.707c-8.112,36.74-33.993,66.657-69.233,80.029
			c-26.172,9.93-34.117,29.513-39.51,40.299c-4.987-9.974-13.585-30.21-40.367-40.629c-44.274-17.222-72.778-60.731-70.927-108.265
			c2.275-58.438,51.007-106.906,111.304-106.925c58.022-0.018,106.502,43.928,111.037,102.683c0.318,4.13,3.935,7.227,8.056,6.901
			c4.13-0.318,7.22-3.925,6.901-8.056c-2.522-32.693-17.455-62.743-42.044-84.613c-14.45-12.852-31.343-22.039-49.507-27.166
			c3.314-5.949,9.473-16.281,18.401-28.418c8.588,5.668,24.9,12.707,46.961,5.448c31.254,11.246,63.787,1.765,77.531-37.929
			c10.307-29.764,33.714-40.508,51.536-44.279c7.586-1.605,13.599-6.96,16.087-14.322
			C495.166,100.182,493.603,92.166,488.464,86.197z M222.684,158.468c-19.856-32.603-53.61-75.317-104.337-100.727
			c-3.703-1.854-8.21-0.357-10.065,3.347c-1.855,3.703-0.357,8.21,3.347,10.065c44.198,22.14,78.746,60.674,102.942,103.097
			c-7.72,3.653-24.084,8.384-44.116-3.22c-1.735-1.005-3.777-1.263-5.674-0.762c-0.24,0.063-24.199,6.19-43.096-5.984
			c-11.542-7.436-18.959-20.43-22.044-38.621C92.244,82.074,62.543,61.88,38.927,52.615c-6.535-2.563-7.746-11.243-2.349-15.74
			c51.643-43.044,97.873-9.16,103.203-9.071c2.313,0.04,56.681,1.598,57.733,56.089c0.04,2.08,0.957,4.062,2.505,5.452
			c0.104,0.093,10.433,9.46,17.579,24.724C224.457,128.724,226.142,143.598,222.684,158.468z"/>
	</g>
</g>
<g>
</g>
<g>
</g>
<g>
</g>
<g>
</g>
<g>
</g>
<g>
</g>
<g>
</g>
<g>
</g>
<g>
</g>
<g>
</g>
<g>
</g>
<g>
</g>
<g>
</g>
<g>
</g>
<g>
</g>
</svg>
