<?xml version="1.0"?>
<svg xmlns="http://www.w3.org/2000/svg" viewBox="0 0 512 512" width="512" height="512"><g id="Outline"><path d="M153.214,179.1C152.408,167.5,152,155.7,152,144a40,40,0,0,1,40-40h8.821c-.138.135-.279.264-.416.4A55.6,55.6,0,0,0,184,144c0,.662,0,1.324.01,1.888.033,9.577.335,19.281.894,28.841l15.973-.935c-.543-9.269-.835-18.677-.868-28.06C200,145.156,200,144.578,200,144a40.019,40.019,0,0,1,33.118-39.409c.072-.01.145-.021.217-.033,2.186-.37,43.144-.37,45.33,0,.073.012.147.024.22.034A39.844,39.844,0,0,1,312,144c0,15.655-.735,31.484-2.186,47.052-1.443,15.585-3.639,31.281-6.526,46.651l15.725,2.954c2.978-15.857,5.244-32.051,6.733-48.125C327.241,176.478,328,160.149,328,144a55.881,55.881,0,0,0-16.724-40H320a40.045,40.045,0,0,1,40,40c0,15.655-.735,31.484-2.186,47.048l15.932,1.484C375.241,176.478,376,160.149,376,144a56.063,56.063,0,0,0-56-56H294.417l-.724-3.259A87.783,87.783,0,0,0,208,16a8,8,0,0,0-8,8V56a8,8,0,0,0,8,8,16.019,16.019,0,0,1,16,16v8H192a56,56,0,0,0-56,56c0,12.064.422,24.246,1.253,36.205ZM216,49.012V32.452A71.772,71.772,0,0,1,278.027,88H240V80A32.059,32.059,0,0,0,216,49.012Z"/><path d="M242.809,135.491l-5.618-14.982c-7.37,2.763-12.7,8.859-15.846,18.116l15.148,5.147C238.8,137,241.816,135.863,242.809,135.491Z"/><path d="M218.237,155.119c-1.7,22.072,3.636,49.191,5.647,59.4l.264,1.347,15.7-3.065-.27-1.373c-1.894-9.623-6.929-35.183-5.392-55.077Z"/><path d="M231.287,405.706l-10.261,54.723A24,24,0,0,1,197.44,480H181.429a39.846,39.846,0,0,0,7.329-16.628l10.26-54.72A525.81,525.81,0,0,0,208,312a55.82,55.82,0,0,0-16.862-40H200a38.655,38.655,0,0,1,4.6.273l.164.018A40.042,40.042,0,0,1,232.519,288.7l13-9.33a56.068,56.068,0,0,0-39.031-22.99c-.036,0-.073-.008-.109-.012A54.794,54.794,0,0,0,200,256H168v-8a16.019,16.019,0,0,1,16-16,8,8,0,0,0,8-8V192a8,8,0,0,0-8-8,87.429,87.429,0,0,0-81.263,54.566l14.813,6.047A71.443,71.443,0,0,1,176,200.439v16.573A32.059,32.059,0,0,0,152,248v8H72a56,56,0,0,0-56,56,525.463,525.463,0,0,0,8.986,96.655l10.261,54.716A40.006,40.006,0,0,0,74.56,496h26.88a39.944,39.944,0,0,0,10.547-1.421A39.97,39.97,0,0,0,122.558,496h26.884a39.97,39.97,0,0,0,10.571-1.421A39.944,39.944,0,0,0,170.56,496h26.88a40.006,40.006,0,0,0,39.313-32.625l10.26-54.718c1.94-10.331,3.589-20.858,4.9-31.289l-15.875-1.993C234.766,385.486,233.169,395.69,231.287,405.706ZM50.974,460.425l-10.262-54.72A509.518,509.518,0,0,1,32,312a40,40,0,0,1,40-40h8.862A55.82,55.82,0,0,0,64,312a525.81,525.81,0,0,0,8.982,96.652l10.26,54.72A39.84,39.84,0,0,0,90.571,480H74.56A24,24,0,0,1,50.974,460.425ZM122.558,480a24.013,24.013,0,0,1-23.589-19.577L88.709,405.7A509.685,509.685,0,0,1,80,312a40.045,40.045,0,0,1,40-40h32a40.01,40.01,0,0,1,7.407.7l.049.218c.188-.042.361-.077.538-.113A40.068,40.068,0,0,1,192,312a509.7,509.7,0,0,1-8.709,93.7l-10.26,54.719A24.013,24.013,0,0,1,149.442,480Z"/><path d="M101.345,306.625l15.148,5.147c2.3-6.777,5.323-7.909,6.316-8.281l-5.618-14.982C109.821,291.272,104.49,297.368,101.345,306.625Z"/><path d="M114.19,324.351l-15.953-1.232c-1.7,22.072,3.636,49.191,5.647,59.4l.264,1.347,15.7-3.065-.27-1.373C117.688,369.805,112.653,344.245,114.19,324.351Z"/><path d="M440,256H408v-8a16.019,16.019,0,0,1,16-16,8,8,0,0,0,8-8V192a8,8,0,0,0-8-8,87.783,87.783,0,0,0-85.693,68.741L337.582,256H312a56.063,56.063,0,0,0-56,56,525.81,525.81,0,0,0,8.982,96.652l10.26,54.72A40.021,40.021,0,0,0,314.558,496h20.874a47.69,47.69,0,0,0,33.941-14.059L376,475.313l6.628,6.628A47.685,47.685,0,0,0,416.568,496h20.874a40.021,40.021,0,0,0,39.316-32.628l10.26-54.72A525.81,525.81,0,0,0,496,312,56.063,56.063,0,0,0,440,256Zm31.291,149.7-10.26,54.719A24.013,24.013,0,0,1,437.442,480H416.568a31.791,31.791,0,0,1-22.627-9.373L387.313,464a16.021,16.021,0,0,0-22.627,0l-6.626,6.627A31.8,31.8,0,0,1,335.432,480H314.558a24.013,24.013,0,0,1-23.589-19.577L280.709,405.7A509.7,509.7,0,0,1,272,312a40.045,40.045,0,0,1,40-40h32a8,8,0,0,0,7.81-6.265l2.116-9.524A71.771,71.771,0,0,1,416,200.452v16.56A32.059,32.059,0,0,0,392,248v16a8,8,0,0,0,8,8h40a40.045,40.045,0,0,1,40,40A509.7,509.7,0,0,1,471.291,405.7Z"/><path d="M440,288H408a8,8,0,0,0,0,16,7.994,7.994,0,0,1,2.637,15.542,8,8,0,0,0-3.984,12.015A8,8,0,0,1,400,344h0a7.889,7.889,0,0,1-4.084-1.143,8,8,0,0,0-12.011,8.027A7.8,7.8,0,0,1,384,352a8,8,0,0,1-16,0,7.8,7.8,0,0,1,.1-1.116,8,8,0,0,0-12.011-8.027,7.99,7.99,0,0,1-10.738-11.3,8,8,0,0,0-3.984-12.015A7.994,7.994,0,0,1,344,304a8,8,0,0,0,0-16H312a24,24,0,0,0-24,23.946,493.656,493.656,0,0,0,8.435,90.809s4.07,21.706,7.072,37.775A28.751,28.751,0,0,0,355.688,451.2a24.413,24.413,0,0,1,40.624,0,28.744,28.744,0,0,0,52.167-10.647l7.086-37.8A493.637,493.637,0,0,0,464,311.946,24,24,0,0,0,440,288Zm-.161,111.806-7.087,37.8a12.743,12.743,0,0,1-23.128,4.721,40.412,40.412,0,0,0-67.248,0,12.751,12.751,0,0,1-23.141-4.734c-3-16.073-7.074-37.784-7.074-37.784A477.623,477.623,0,0,1,304,311.948,7.984,7.984,0,0,1,312,304h9.371a23.979,23.979,0,0,0,7.276,26.429,24.107,24.107,0,0,0-.638,6.23A23.866,23.866,0,0,0,352,360q.678,0,1.354-.039a24,24,0,0,0,45.286,0c.453.026.879.057,1.357.039a24.029,24.029,0,0,0,23.353-29.571A23.979,23.979,0,0,0,430.629,304H440a7.984,7.984,0,0,1,8,7.948A477.6,477.6,0,0,1,439.839,399.806Z"/></g></svg>
