<?xml version="1.0" encoding="iso-8859-1"?>
<!-- Generator: Adobe Illustrator 19.0.0, SVG Export Plug-In . SVG Version: 6.00 Build 0)  -->
<svg version="1.1" id="Layer_1" xmlns="http://www.w3.org/2000/svg" xmlns:xlink="http://www.w3.org/1999/xlink" x="0px" y="0px"
	 viewBox="0 0 512 512" style="enable-background:new 0 0 512 512;" xml:space="preserve">
<g transform="translate(1 1)">
	<g>
		<g>
			<path d="M193.56,220.013c6.827-5.973,10.24-15.36,10.24-23.893s-3.413-17.067-10.24-23.893c-3.413-3.413-8.533-3.413-11.947,0
				s-3.413,8.533,0,11.947s5.12,7.68,5.12,11.947s-1.707,8.533-5.12,11.947c-5.973,6.827-17.067,6.827-23.893,0
				c-3.413-3.413-8.533-3.413-11.947,0s-3.413,8.533,0,11.947c6.827,6.827,15.36,10.24,23.893,10.24S186.733,226.84,193.56,220.013z
				"/>
			<path d="M324.12,224.28c8.533,0,17.067-3.413,23.893-11.093c3.413-3.413,3.413-8.533,0-11.947s-8.533-3.413-11.947,0
				c-5.973,6.827-17.067,6.827-23.893,0s-6.827-17.067,0-23.893c3.413-3.413,3.413-8.533,0-11.947s-8.533-3.413-11.947,0
				c-13.653,13.653-13.653,34.987,0,48.64C306.2,220.867,314.733,224.28,324.12,224.28z"/>
			<path d="M307.053,267.8c0-5.12-3.413-8.533-7.68-9.387c-5.12-0.853-8.533,3.413-9.387,7.68c0,4.267-2.56,8.533-5.973,11.093
				s-8.533,4.267-12.8,3.413c-4.267,0-8.533-2.56-11.093-5.973s-4.267-8.533-3.413-12.8c0-4.267-3.413-8.533-7.68-9.387
				c-4.267,0-8.533,3.413-9.387,7.68c-0.853,8.533,1.707,17.92,7.68,24.747c5.973,7.68,13.653,11.947,23.04,12.8
				c0.853,0,2.56,0,3.413,0c7.68,0,15.36-2.56,20.48-6.827C301.933,284.867,306.2,277.187,307.053,267.8z"/>
			<path d="M190.147,299.373c-3.413,3.413-3.413,8.533,0,11.947s5.12,7.68,5.12,11.947s-1.707,8.533-5.12,11.947
				c-5.973,6.827-17.067,6.827-23.893,0c-3.413-3.413-8.533-3.413-11.947,0s-3.413,8.533,0,11.947
				c6.827,6.827,15.36,10.24,23.893,10.24s17.067-3.413,23.893-10.24c6.827-5.973,10.24-15.36,10.24-23.893
				s-3.413-17.067-10.24-23.893C198.68,295.96,193.56,295.96,190.147,299.373z"/>
			<path d="M342.893,317.293c-4.267,0.853-6.827,5.973-5.973,10.24c1.707,9.387-3.413,17.92-12.8,20.48
				c-9.387,1.707-17.92-3.413-20.48-12.8c-0.853-4.267-5.973-6.827-10.24-5.973s-6.827,5.973-5.973,10.24
				c3.413,16.213,17.92,26.453,33.28,26.453c2.56,0,5.12,0,6.827-1.707c18.773-4.267,29.867-23.04,25.6-40.96
				C352.28,319,347.16,316.44,342.893,317.293z"/>
			<path d="M275.48,410.307c-4.267-1.707-9.387,0.853-11.093,5.12c-1.707,4.267-4.267,7.68-8.533,9.387
				c-4.267,1.707-8.533,2.56-12.8,0.853c-8.533-3.413-13.653-13.653-10.24-22.187c1.707-4.267-0.853-9.387-5.12-11.093
				s-9.387,0.853-11.093,5.12c-6.827,17.92,2.56,37.547,20.48,43.52c3.413,0.853,7.68,1.707,11.093,1.707
				c5.12,0,9.387-0.853,15.36-1.707c7.68-4.267,13.653-11.093,17.067-19.627C282.307,417.133,279.747,412.013,275.48,410.307z"/>
			<path d="M417.133,357.4c0-9.387-2.56-17.92-8.533-25.6c10.24-7.68,17.067-20.48,17.067-34.133s-6.827-26.453-17.067-34.133
				c5.12-7.68,8.533-16.213,8.533-25.6c0-16.213-9.387-30.72-23.04-37.547c3.413-6.827,5.973-14.507,5.973-22.187
				c0-23.893-18.773-42.667-42.667-42.667h-0.853c-4.267-19.627-21.333-34.133-41.813-34.133c-9.387,0-17.92,3.413-25.6,8.533
				c-5.978-7.971-15.063-13.856-25.234-16.08C267.725,53.4,302.227,24.6,348.867,24.6c5.12,0,8.533-3.413,8.533-8.533
				s-3.413-8.533-8.533-8.533c-32.088,0-59.246,11.332-77.516,30.283c-2.215-7.386-5.909-13.869-11.231-19.19
				C242.2-0.147,213.187-1,212.333-1c-1.707,0-4.267,0.853-5.973,2.56s-2.56,3.413-2.56,5.973c0,1.707,0.853,29.867,19.627,46.933
				c8.093,7.418,17.792,11.627,29.083,13.071c-3.09,8.138-5.055,16.904-5.754,26.174c-10.435,2.111-19.782,8.08-25.888,16.222
				c-7.68-5.12-16.213-8.533-25.6-8.533c-20.48,0-37.547,14.507-41.813,34.133c-23.893,0-43.52,18.773-43.52,42.667
				c0,7.68,2.56,15.36,5.973,22.187c-13.653,6.827-23.04,21.333-23.04,37.547c0,9.387,3.413,17.92,8.533,25.6
				c-10.24,7.68-17.067,20.48-17.067,34.133S91.16,324.12,101.4,331.8c-5.12,7.68-8.533,16.213-8.533,25.6
				c0,13.653,6.827,26.453,17.067,34.133c-5.12,7.68-8.533,16.213-8.533,25.6c0,23.893,18.773,42.667,42.667,42.667
				c3.413,0,5.973,0,9.387-0.853c3.413,19.627,20.48,34.987,41.813,34.987c7.68,0,15.36-2.56,22.187-5.973
				C224.28,501.613,238.787,511,255,511s30.72-9.387,37.547-23.04c6.827,3.413,14.507,5.973,22.187,5.973
				c21.333,0,38.4-15.36,41.813-34.987c3.413,0.853,5.973,0.853,9.387,0.853c23.893,0,42.667-18.773,42.667-42.667
				c0-9.387-2.56-17.92-8.533-25.6C410.307,383.853,417.133,371.053,417.133,357.4z M222.573,17.773
				c7.68,1.707,17.92,5.12,25.6,13.653c5.12,5.12,7.68,11.947,8.533,20.48c-8.533-0.853-15.36-4.267-21.333-9.387
				C227.693,35.693,224.28,25.453,222.573,17.773z M389.827,336.067c6.827,4.267,11.093,11.947,11.093,20.48
				c0,10.24-6.827,20.48-17.067,23.893c-3.413,0.853-5.12,3.413-5.973,6.827s0.853,6.827,3.413,8.533
				c6.827,4.267,11.093,11.947,11.093,20.48c0,14.507-11.093,25.6-25.6,25.6c-4.267,0-8.533-0.853-12.8-3.413
				c-3.413-1.707-6.827-0.853-9.387,0.853c-2.56,1.707-4.267,5.12-3.413,8.533c0,0.853,0,2.56,0,3.413
				c0,14.507-11.093,25.6-25.6,25.6c-7.68,0-14.507-3.413-19.627-9.387c-1.707-2.56-5.12-3.413-8.533-2.56
				c-3.413,0.853-5.12,3.413-5.973,6.827c-2.56,12.8-12.8,22.187-25.6,22.187c-12.8,0-23.893-9.387-25.6-22.187
				c0-3.413-2.56-5.973-5.973-6.827c-0.853,0-1.707,0-2.56,0c-2.56,0-5.12,0.853-6.827,2.56c-5.12,5.973-11.947,9.387-19.627,9.387
				c-14.507,0-25.6-11.093-25.6-25.6c0-0.853,0-1.707,0-3.413c0.853-3.413-0.853-6.827-3.413-8.533
				c-3.413-1.707-6.827-1.707-9.387,0c-3.413,2.56-8.533,3.413-12.8,3.413c-14.507,0-25.6-11.093-25.6-25.6
				c0-8.533,4.267-16.213,11.093-20.48c2.56-2.56,4.267-5.12,3.413-8.533s-2.56-5.973-5.973-6.827
				c-10.24-3.413-17.067-12.8-17.067-23.893c0-8.533,4.267-16.213,11.093-20.48c2.56-2.56,4.267-5.12,3.413-8.533
				s-2.56-5.973-5.973-6.827c-10.24-3.413-17.067-13.653-17.067-23.893s6.827-20.48,17.067-23.893
				c3.413-0.853,5.12-3.413,5.973-6.827s-0.853-6.827-3.413-8.533c-6.827-4.267-11.093-11.947-11.093-20.48
				c0-12.8,9.387-23.04,22.187-25.6c3.413,0,5.973-2.56,6.827-5.973c0.853-2.56,0-5.973-2.56-8.533
				C130.413,192.707,127,185.88,127,178.2c0-14.507,11.093-25.6,25.6-25.6c1.707,0,4.267,0,5.973,0.853
				c2.56,0.853,5.973,0,7.68-1.707c2.56-1.707,3.413-4.267,3.413-6.827c0-0.853,0-0.853,0-0.853c0-14.507,11.093-25.6,25.6-25.6
				c8.533,0,16.213,4.267,19.627,11.093c2.56,2.56,5.12,4.267,8.533,3.413s5.973-2.56,6.827-5.973
				c3.413-10.24,12.8-17.067,23.893-17.067c10.24,0,20.48,6.827,23.893,17.067c0.853,3.413,3.413,5.12,6.827,5.973
				s6.827-0.853,8.533-3.413c4.267-6.827,11.947-11.093,20.48-11.093c14.507,0,25.6,11.093,25.6,24.747c0,0.853,0,1.707,0,1.707
				c0,2.56,1.707,5.12,3.413,6.827c2.56,1.707,5.12,2.56,7.68,1.707s5.12-0.853,6.827-0.853c14.507,0,25.6,11.093,25.6,25.6
				c0,7.68-3.413,14.507-9.387,19.627c-2.56,1.707-3.413,5.12-2.56,8.533c0.853,3.413,3.413,5.12,6.827,5.973
				c12.8,2.56,22.187,12.8,22.187,25.6c0,8.533-4.267,16.213-10.24,19.627c-2.56,2.56-4.267,5.12-3.413,8.533
				s2.56,5.973,5.973,6.827c10.24,3.413,17.067,13.653,17.067,23.893c0,10.24-6.827,20.48-17.067,23.893
				c-3.413,0.853-5.12,3.413-5.973,6.827S387.267,334.36,389.827,336.067z"/>
		</g>
	</g>
</g>
<g>
</g>
<g>
</g>
<g>
</g>
<g>
</g>
<g>
</g>
<g>
</g>
<g>
</g>
<g>
</g>
<g>
</g>
<g>
</g>
<g>
</g>
<g>
</g>
<g>
</g>
<g>
</g>
<g>
</g>
</svg>
