<svg id="outline" height="512" viewBox="0 0 512 512" width="512" xmlns="http://www.w3.org/2000/svg"><path d="m224.27972 199.47691 15.96484 1.05078c3.85744-58.6123 52.94629-104.52539 111.75488-104.52539a112.04185 112.04185 0 0 1 99.08692 164.26123l14.14453 7.47754a128.04082 128.04082 0 0 0 -113.23145-187.73877c-67.20996 0-123.31054 52.47949-127.71972 119.47461z"/><path d="m367.99944 240.0023a128 128 0 1 0 128 128 128.14509 128.14509 0 0 0 -128-128zm0 240a112 112 0 1 1 112-112 112.12707 112.12707 0 0 1 -112 112z"/><path d="m243.37151 274.46177 15.22461-4.91894a112.02474 112.02474 0 1 0 -35.02441 120.61084l-10.23047-12.30176a95.98759 95.98759 0 1 1 30.03027-103.39014z"/><path d="m401.9848 153.577a16.43054 16.43054 0 0 0 -20.19141-23.7085l-12.2041 4.88135a.42864.42864 0 0 1 -.42774-.06348l-18.96-15.16748a16.431 16.431 0 0 0 -26.47168 15.53125l3.78614 22.71a.4347.4347 0 0 1 -.08106.32813l-9.2109 12.28073a16.43067 16.43067 0 0 0 15.84571 26.06543l24.18359-4.03076a.42466.42466 0 0 1 .291.05566l15.87988 9.52735a16.21726 16.21726 0 0 0 19.10742-1.58008 16.21333 16.21333 0 0 0 4.60156-18.61084l-5.15332-12.88184a.4338.4338 0 0 1 .03028-.38135zm-13.71973-8.23194-8.97461 14.95557a16.523 16.523 0 0 0 -1.166 14.55567l5.15332 12.88183c.083.209.11426.28711-.12011.48731-.23828.20166-.30762.15722-.501.0415l-15.87793-9.52637a16.43827 16.43827 0 0 0 -11.15625-2.11914l-24.18262 4.03076c-.18554.03125-.28711.04737-.43945-.20117-.15039-.24853-.08887-.33154.02441-.48193l9.21094-12.28125v-.00049a16.5059 16.5059 0 0 0 3.0625-12.55859l-3.78515-22.70948c-.03321-.19433-.04883-.292.20605-.44189.25781-.15039.333-.08838.48633.03516l18.96094 15.16845a16.45945 16.45945 0 0 0 16.36523 2.42432l12.20313-4.88132c.208-.083.28711-.11523.48828.12109.20019.23534.15722.3076.04199.49998z"/><path d="m208.91741 255.51158a14.19489 14.19489 0 0 0 -12.53613-7.50928h-17.06836l-15.55664-15.55664a14.21856 14.21856 0 0 0 -22.77051 3.69385v.001l-10.66015 21.32029-8.7959 2.93213a14.217 14.217 0 0 0 -3.38965 25.31738l9.85937 6.57324v15.2832a14.20413 14.20413 0 0 0 22.748 11.374l18.09673-13.57175 15.48535 7.74268a14.21743 14.21743 0 0 0 20.15235-16.165l-3.86329-15.45168 7.59278-11.38819a14.19519 14.19519 0 0 0 .70605-14.59523zm-22.04883 17.76465a14.24555 14.24555 0 0 0 -1.96289 11.335l3.11426 12.457-13.00488-6.50244a14.14128 14.14128 0 0 0 -14.88965 1.34228l-16.126 12.09424v-12.67237a14.18805 14.18805 0 0 0 -6.33105-11.82959l-7.62109-5.08106 6.03906-2.01318a14.12227 14.12227 0 0 0 8.21972-7.12988l9.88477-19.76856 14.33008 14.33008a14.12482 14.12482 0 0 0 10.05371 4.16455h14.47658z"/><path d="m159.99944 43.31627 32.64556 32.6455a52.08146 52.08146 0 0 1 15.35449 37.06836 68.56126 68.56126 0 0 0 .457 7.895l15.89257-1.8457a52.81551 52.81551 0 0 1 -.34961-6.0498 67.977 67.977 0 0 0 -20.04-48.38135l-32.646-32.646h20.686a80.28463 80.28463 0 0 1 76.98925 58.17727l15.39649-4.35449a96.34539 96.34539 0 0 0 -92.38575-69.82276h-40a8.00009 8.00009 0 0 0 -8 8v64h16z"/><path d="m67.99358 210.08384 8.01172-13.8496a88.3397 88.3397 0 0 1 -43.99975-75.87031l37.98413 29.54316a86.31327 86.31327 0 0 0 52.73926 18.09521 70.27963 70.27963 0 0 1 42.4375 14.35694l9.71484-12.71387a86.36872 86.36872 0 0 0 -52.15234-17.64307 70.23949 70.23949 0 0 1 -42.917-14.7251l-32.49633-25.2749h72.68383a88.04849 88.04849 0 0 1 80.66993 52.77832l14.66015-6.41062a104.04821 104.04821 0 0 0 -95.33008-62.3677h-96a8.00009 8.00009 0 0 0 -8 8v16a104.38593 104.38593 0 0 0 51.99414 90.08154z"/><path d="m427.46917 317.05259a13.96279 13.96279 0 0 0 -23.6582-2.13281l-15.81153 21.08252h-18.11425a13.96236 13.96236 0 0 0 -8.377 25.13233l12.78614 9.58886-7.14942 17.875a13.96186 13.96186 0 0 0 20.14649 17.15821l19.46879-11.6807 17.40429 17.40528a13.96208 13.96208 0 0 0 23.835-9.87256v-22.293l14.21-14.21045a13.96116 13.96116 0 0 0 -6.48536-23.418l-18.21484-4.55371zm8.61914 51.54688a13.87065 13.87065 0 0 0 -4.08887 9.87256v18.21631l-15.05078-15.05127a13.94021 13.94021 0 0 0 -17.05664-2.09961l-15.64453 9.38672 5.48145-13.70655a13.98359 13.98359 0 0 0 -4.585-16.35742l-9.14454-6.85791h13.0186a14.03053 14.03053 0 0 0 11.1709-5.585l14.44433-19.25977 8.98438 17.96973a13.94523 13.94523 0 0 0 9.10156 7.30127l15.63184 3.9082z"/></svg>