<?xml version="1.0" encoding="iso-8859-1"?>
<!-- Generator: Adobe Illustrator 19.0.0, SVG Export Plug-In . SVG Version: 6.00 Build 0)  -->
<svg version="1.1" id="Capa_1" xmlns="http://www.w3.org/2000/svg" xmlns:xlink="http://www.w3.org/1999/xlink" x="0px" y="0px"
	 viewBox="0 0 480.018 480.018" style="enable-background:new 0 0 480.018 480.018;" xml:space="preserve">
<g>
	<g>
		<path d="M480.009,240.018c-0.081-18.24-8.548-35.428-22.96-46.608c8.493-9.172,13.237-21.196,13.296-33.696
			c-0.82-27.036-21.505-49.301-48.408-52.104c-2.585-33.008-28.588-59.346-61.56-62.352c-10.566-27.784-37.482-45.904-67.2-45.24
			c-18.311-0.107-36.001,6.633-49.6,18.896c-11.349-6.586-24.247-10.029-37.368-9.976c-29.719-0.661-56.635,17.462-67.2,45.248
			c-33.209,3.003-59.318,29.685-61.6,62.952c-3.746-0.745-7.556-1.12-11.376-1.12c-30.06-0.958-55.241,22.56-56.336,52.616
			c0.052,12.497,4.788,24.52,13.272,33.696C8.557,213.51,0.09,230.698,0.009,248.938c0.377,23.341,14.013,44.43,35.144,54.352
			c-4.041,8.057-6.145,16.946-6.144,25.96c1.311,35.182,30.812,62.688,66,61.536c24.426,0.246,47.037-12.864,58.96-34.184
			c22.34,28.144,32.533,64.035,28.32,99.72l-1.776,14.744c-0.526,4.387,2.604,8.369,6.991,8.895
			c0.316,0.038,0.634,0.057,0.953,0.057h103.104c4.418,0,8-3.581,8.001-7.999c0-0.318-0.019-0.637-0.057-0.953l-1.272-10.568
			c-4.622-38.113,7.32-76.378,32.8-105.096c12.881,16.764,32.852,26.549,53.992,26.456c35.178,1.125,64.663-26.366,66-61.536
			c0-9.011-2.103-17.898-6.144-25.952C466.005,284.443,479.635,263.355,480.009,240.018z M282.345,462.418l0.192,1.6h-11.672
			c-5.058-34.089-2.044-68.889,8.8-101.6c1.228-4.244-1.218-8.68-5.462-9.908c-4.131-1.195-8.467,1.089-9.818,5.172
			c-11.311,34.239-14.631,70.615-9.704,106.336h-29.232c4.793-33.155,1.412-66.978-9.848-98.528
			c-1.396-4.197-5.931-6.468-10.128-5.072c-4.197,1.396-6.468,5.931-5.072,10.128c10.734,29.924,13.771,62.067,8.832,93.472h-11.76
			l0.696-5.792c6.292-53.126-16.001-105.615-58.6-137.976l-14.136-10.696c15.793-10.906,27.467-26.797,33.152-45.128l49.992,49.992
			c3.142,3.106,8.208,3.076,11.314-0.066c1.63-1.649,2.464-3.925,2.286-6.238l-5.512-68.048c18.192,3.401,36.906,2.795,54.84-1.776
			l-5.096,69.888c-0.321,4.407,2.991,8.239,7.398,8.56c2.534,0.185,5.006-0.846,6.658-2.776l43.056-50.224
			c8.48,18.558,22.005,34.358,39.032,45.6l-16.256,11.2C300.217,352.228,275.572,406.904,282.345,462.418z M430.713,282.89
			c-4.203,1.362-6.506,5.874-5.144,10.077c0.26,0.803,0.646,1.56,1.144,2.243c5.37,7.273,8.279,16.071,8.304,25.112
			c-1.329,26.336-23.655,46.668-50,45.536c-16.943,0.178-32.885-8.011-42.608-21.888c4.107-3.672,8.436-7.089,12.96-10.232
			l24.56-16.92c2.688,0.952,5.424,1.808,8.232,2.512l1.912,0.48c0.635,0.143,1.285,0.213,1.936,0.208
			c4.418,0.009,8.007-3.566,8.015-7.985c0.007-3.687-2.507-6.902-6.087-7.783l-1.928-0.464c-32.938-8.216-56.039-37.821-56-71.768
			c0-4.418-3.582-8-8-8s-8,3.582-8,8c0.026,3.552,0.258,7.099,0.696,10.624c-0.299,0.249-0.582,0.516-0.848,0.8l-35.72,41.672
			l3.824-52.096c7.055-2.779,13.845-6.187,20.288-10.184c3.755-2.342,4.902-7.284,2.56-11.04c-2.342-3.756-7.284-4.902-11.04-2.56
			c-36.61,22.688-82.91,22.688-119.52,0c-3.756-2.342-8.698-1.195-11.04,2.56c-2.342,3.756-1.195,8.698,2.56,11.04
			c8.932,5.547,18.517,9.965,28.536,13.152l4.192,51.76l-44.216-44.216c0.212-4.122,0.105-8.254-0.32-12.36
			c-0.486-4.392-4.44-7.558-8.832-7.072c-4.392,0.486-7.558,4.44-7.072,8.832c3.907,35.372-21.564,67.228-56.928,71.2
			c-4.362,0.704-7.327,4.811-6.623,9.172c0.602,3.729,3.73,6.529,7.503,6.716c0.297,0,0.593-0.016,0.888-0.048
			c6.193-0.712,12.282-2.143,18.144-4.264l22.88,17.312c4.324,3.284,8.441,6.832,12.328,10.624
			c-7.747,19.169-26.529,31.562-47.2,31.144c-26.345,1.132-48.671-19.2-50-45.536c0.02-9.042,2.929-17.841,8.304-25.112
			c2.601-3.571,1.815-8.575-1.757-11.176c-0.683-0.497-1.44-0.883-2.243-1.144c-19.252-5.529-32.728-22.86-33.344-42.88
			c0.261-16.282,9.384-31.125,23.792-38.712c3.854-2.161,5.227-7.036,3.066-10.89c-0.553-0.987-1.309-1.845-2.218-2.518
			c-9.205-6.476-14.768-16.955-14.976-28.208c1.117-21.204,19.124-37.54,40.336-36.592c5.84,0.012,11.618,1.207,16.984,3.512
			c4.069,1.723,8.763-0.179,10.486-4.248c0.588-1.388,0.771-2.913,0.53-4.4c-0.422-2.42-0.644-4.871-0.664-7.328
			c1.248-27.862,24.182-49.82,52.072-49.856c3.525-0.161,6.528-2.611,7.392-6.032c6.845-23.591,28.817-39.536,53.368-38.728
			c12.123-0.068,23.96,3.683,33.832,10.72c3.322,2.385,7.907,1.881,10.632-1.168c10.905-11.929,26.375-18.647,42.536-18.472
			c24.553-0.814,46.528,15.133,53.368,38.728c0.867,3.418,3.87,5.864,7.392,6.024c27.89,0.044,50.82,22.002,52.072,49.864
			c0,1.288-0.112,2.552-0.216,3.816c-0.193,2.229,0.562,4.436,2.08,6.08c1.601,1.868,4.018,2.828,6.464,2.568
			c21.102-0.784,38.921,15.527,40,36.616c-0.208,11.251-5.772,21.727-14.976,28.2c-3.546,2.636-4.284,7.647-1.648,11.193
			c0.669,0.9,1.519,1.649,2.496,2.199c14.411,7.585,23.537,22.428,23.8,38.712C463.398,260.023,449.944,277.346,430.713,282.89z"/>
	</g>
</g>
<g>
	<g>
		<path d="M160.009,128.018h-8c-23.042,1.047-40.913,20.505-40,43.552v1.768c-19.293,5.056-32.555,22.743-32,42.68
			c0,4.418,3.582,8,8,8s8-3.582,8-8c-0.894-14.206,9.805-26.489,24-27.552c4.418,0,8-3.582,8-8v-8.896
			c-0.894-14.206,9.805-26.489,24-27.552h8c4.418,0,8-3.582,8-8S164.427,128.018,160.009,128.018z"/>
	</g>
</g>
<g>
	<g>
		<path d="M331.209,104.554c-4.991-19.632-22.953-33.16-43.2-32.536c-4.418,0-8,3.582-8,8s3.582,8,8,8c14.325-1,26.797,9.691,28,24
			c0,4.418,3.582,8,8,8c14.325-1,26.797,9.691,28,24c0,4.418,3.582,8,8,8s8-3.582,8-8
			C367.17,123.581,351.538,106.816,331.209,104.554z"/>
	</g>
</g>
<g>
	<g>
		<path d="M279.787,146.105c-0.125-0.108-0.254-0.211-0.386-0.311c-18.168-13.929-43.424-13.929-61.592,0
			c-3.548,2.633-4.289,7.644-1.656,11.192c2.633,3.548,7.644,4.289,11.192,1.656c0.171-0.127,0.336-0.26,0.496-0.4
			c12.358-9.057,29.162-9.057,41.52,0c3.352,2.879,8.402,2.496,11.281-0.856C283.521,154.035,283.138,148.984,279.787,146.105z"/>
	</g>
</g>
<g>
</g>
<g>
</g>
<g>
</g>
<g>
</g>
<g>
</g>
<g>
</g>
<g>
</g>
<g>
</g>
<g>
</g>
<g>
</g>
<g>
</g>
<g>
</g>
<g>
</g>
<g>
</g>
<g>
</g>
</svg>
