<svg height="512pt" viewBox="0 -13 512 512" width="512pt" xmlns="http://www.w3.org/2000/svg"><path d="m504.5 151.542969h-44.972656c-5.183594-12.378907-11.507813-24.3125-18.851563-35.53125-2.269531-3.464844-6.917969-4.4375-10.382812-2.167969-3.464844 2.269531-4.4375 6.917969-2.167969 10.382812 5.691406 8.691407 10.722656 17.84375 15.035156 27.316407-4.90625 0-7.316406-.015625-11.046875.070312-22.367187.515625-43.007812 13.027344-55.207031 33.464844-2.960938 4.953125-9.429688 6.636719-14.429688 3.75-18.453124-10.65625-41.085937-10.441406-59.066406.558594-2.585937 1.582031-5.132812 3.226562-7.664062 4.902343-1.789063-13.59375-4.484375-27.117187-8.054688-40.351562-6.34375-23.539062-25.078125-41.828125-50.105468-48.921875-3.140626-.890625-5.007813-4.175781-4.160157-7.332031 5.675781-21.175782 2.644531-44.59375-9.96875-64.035156 69.234375-11.027344 137.871094 14.015624 183.640625 63.617187 2.808594 3.046875 7.554688 3.238281 10.597656.425781 3.046876-2.808594 3.238282-7.550781.425782-10.597656-53.28125-57.742188-131.140625-81.546875-205.429688-66.75-3.84375-4.035156-5.703125-5.839844-18.007812-18.148438-2.167969-2.1679682-5.441406-2.796874-8.265625-1.585937-22.210938 9.546875-43.078125 22.152344-62.023438 37.464844-7.664062 6.199219-12.0625 15.445312-12.0625 25.375 0 4.800781-3.894531 8.691406-8.699219 8.691406-9.117187 0-18.0625 4.214844-23.890624 11.875-4.046876 5.320313-7.949219 10.863281-11.589844 16.46875-2.257813 3.472656-1.269532 8.117187 2.203125 10.375 3.472656 2.253906 8.117187 1.269531 10.375-2.203125 3.441406-5.296875 7.125-10.53125 10.949219-15.554688 2.792968-3.671874 7.183593-5.960937 11.953124-5.960937 13.042969 0 23.699219-10.546875 23.699219-23.691406 0-5.375 2.367188-10.371094 6.492188-13.707031 16.554687-13.382813 34.660156-24.570313 53.886719-33.304688 7.625 7.621094 11.363281 11.273438 16.40625 16.679688 15.5 16.667968 20.417968 39.792968 14.820312 60.675781-2.964844 11.027343 3.5625 22.535156 14.554688 25.652343 19.90625 5.644532 34.753906 19.996094 39.714843 38.398438 4.09375 15.175781 6.972657 30.753906 8.597657 46.363281-9.066407 6.90625-17.6875 14.402344-25.78125 22.4375-26.707032-26.550781-59.070313-47.335937-96.152344-60.445312-1.226563-28.328125 4.050781-56.878907 15.371094-82.886719 1.652343-3.796875-.085938-8.214844-3.882813-9.867188-3.800781-1.652343-8.21875.085938-9.871094 3.882813-11.496093 26.414063-17.214843 55.261719-16.757812 84.050781-22.902344-6.527344-46.617188-9.835937-70.867188-9.835937h-15.402343c1.789062-4.453125 3.699218-8.871094 5.738281-13.214844 1.761719-3.746094.148437-8.214844-3.597657-9.976563-3.75-1.761718-8.21875-.148437-9.980468 3.597657-3.011719 6.414062-5.769532 12.984375-8.253906 19.59375h-34.867188c-4.140625 0-7.5 3.355469-7.5 7.5v66.359375c0 19.714844 2.234375 39.371094 6.640625 58.421875 5.878906 25.417969 22.21875 47.480469 44.835937 60.539062 1.742188 1.007813 2.34375 3.246094 1.335938 4.988281-6.613281 11.457032-5.617188 25.554688 2.542969 35.917969 6.292969 7.996094 13.121093 15.6875 20.292969 22.867188 29.976562 31.617187 67.785156 54.8125 109.34375 67.085937.644531.191406 1.289062.28125 1.929687.296875 22.324219 6.410157 46.449219 9.800781 69.925781 9.800781 68.660156 0 132.976563-28.109374 179.503906-77.183593 16.933594-16.945313 31.417969-36.125 43.058594-57.003907 5.820313-10.429687 5.746094-23.300781-.191406-33.582031-5.140625-8.902343-2.097656-20.269531 6.808594-25.410156 13.441406-7.761719 22.523437-21.636719 24.292968-37.121094 1.113282-9.765625 1.679688-19.730469 1.679688-29.617187v-66.359375c0-4.144531-3.359375-7.5-7.5-7.5zm-7.5 73.859375c0 9.320312-.53125 18.710937-1.582031 27.914062-1.230469 10.78125-7.546875 20.4375-16.890625 25.832032-16.082032 9.285156-21.585938 29.816406-12.296875 45.902343 3.308593 5.734375 3.34375 12.929688.082031 18.777344-10.984375 19.695313-24.65625 37.789063-40.636719 53.769531-.046875.050782-.097656.097656-.144531.144532-58.039062 61.269531-140.28125 83.992187-218.832031 67.261718 29.574219-18.148437 58.167969-37.996094 85.550781-59.367187h83.132812c4.140626 0 7.5-3.359375 7.5-7.5 0-4.144531-3.359374-7.5-7.5-7.5h-64.417968c19.144531-15.757813 35.511718-30.386719 52.054687-46.242188h68.042969c4.140625 0 7.5-3.359375 7.5-7.5 0-4.144531-3.359375-7.5-7.5-7.5h-52.742188c32.542969-32.664062 62.699219-67.78125 89.980469-104.863281 2.457031-3.335938 1.738281-8.03125-1.597656-10.484375-3.335937-2.457031-8.027344-1.742187-10.484375 1.59375-18.570312 25.238281-38.285156 49.363281-59.105469 72.34375v-51.007813c0-4.140624-3.359375-7.5-7.5-7.5-4.144531 0-7.5 3.359376-7.5 7.5v67.171876c-16.03125 16.851562-32.675781 33.054687-49.925781 48.585937v-69.21875c0-4.140625-3.359375-7.5-7.5-7.5s-7.5 3.359375-7.5 7.5v82.414063c-17.324219 14.921874-35.226562 29.191406-53.6875 42.792968v-82.351562c0-4.140625-3.359375-7.5-7.5-7.5-4.144531 0-7.5 3.359375-7.5 7.5v93.171875c-17.484375 12.339843-35.445312 24.109375-53.882812 35.273437v-44.753906c0-34.863281 7.210937-68.523438 21.433593-100.042969 1.703125-3.777343.023438-8.21875-3.75-9.921875-3.777343-1.703125-8.21875-.023437-9.921875 3.75-6.277344 13.910156-11.246094 28.210938-14.933594 42.828125-5.0625-4.316406-10.070312-8.699219-15.027343-13.136719v-81.132812c0-4.140625-3.359375-7.5-7.5-7.5s-7.5 3.359375-7.5 7.5v67.367188c-14.1875-13.328126-27.925781-27.148438-41.164063-41.421876v-63.804687c0-4.144531-3.359375-7.5-7.5-7.5-4.144531 0-7.5 3.355469-7.5 7.5v47.191406c-18.945312-21.539062-29.320312-35.195312-47.746094-58.726562-2.554687-3.261719-7.269531-3.835938-10.53125-1.28125-3.257812 2.554687-3.832031 7.269531-1.28125 10.53125 21.003907 26.820312 35.117188 45.398437 61.265626 73.816406.15625.1875.320312.371094.492187.542969 6.058594 6.570312 12.226563 13.035156 18.480469 19.414062h-54.542969c-4.144531 0-7.5 3.359375-7.5 7.5s3.355469 7.5 7.5 7.5h69.617187c10.183594 9.882813 20.605469 19.511719 31.261719 28.871094h-48.445312c-4.140625 0-7.5 3.359375-7.5 7.5s3.359375 7.5 7.5 7.5h63.722656c-2.601563 14.789062-3.929687 29.863281-3.929687 45.15625v47.691406c-35.265626-12.125-67.308594-32.730468-93.148438-60.011718-1.292969-1.375-9.515625-9.292969-19.328125-21.753907-4.339844-5.511719-4.863281-13.023437-1.335937-19.136719 5.144531-8.90625 2.082031-20.335937-6.828126-25.480468-19.027343-10.984375-32.773437-29.546875-37.71875-50.929688-4.152343-17.941406-6.257812-36.457031-6.257812-55.039062v-58.859375h58.863281c65.148438 0 125.890625 25.152343 171.824219 70.972656-9.679688 10.777344-18.472656 22.347656-26.207031 34.578125-2.210938 3.503906-1.167969 8.136719 2.332031 10.347656 3.5 2.214844 8.132812 1.171875 10.347656-2.328125 19.933594-31.527343 47.277344-58.476562 79.078125-77.929687 13.289063-8.128906 30.046875-8.269532 43.738281-.367188 12.058594 6.964844 27.671876 2.902344 34.808594-9.050781 9.539063-15.984375 25.496094-25.761719 42.675782-26.160156 4.082031-.09375.808593-.0625 64.539062-.0625zm0 0"/></svg>