<svg height="512pt" viewBox="0 -12 512.00075 512" width="512pt" xmlns="http://www.w3.org/2000/svg"><path d="m93.648438 290.191406c2.640624 0 5.21875-1.070312 7.078124-2.929687 1.859376-1.859375 2.929688-4.441407 2.929688-7.070313s-1.066406-5.210937-2.929688-7.070312c-1.871093-1.859375-4.4375-2.929688-7.078124-2.929688-2.632813 0-5.199219 1.070313-7.070313 2.929688-1.859375 1.859375-2.929687 4.441406-2.929687 7.070312s1.070312 5.210938 2.929687 7.070313 4.4375 2.929687 7.070313 2.929687zm0 0"/><path d="m265.40625 223.292969c-2.632812 0-5.210938 1.070312-7.070312 2.929687-1.859376 1.859375-2.929688 4.441406-2.929688 7.070313 0 2.640625 1.070312 5.210937 2.929688 7.070312 1.859374 1.859375 4.4375 2.929688 7.070312 2.929688 2.628906 0 5.207031-1.070313 7.066406-2.929688 1.863282-1.859375 2.933594-4.441406 2.933594-7.070312 0-2.628907-1.070312-5.199219-2.933594-7.070313-1.859375-1.859375-4.4375-2.929687-7.066406-2.929687zm0 0"/><path d="m504.582031 138.390625c4.808594-6.039063 7.417969-13.46875 7.417969-21.300781 0-9.152344-3.5625-17.757813-10.035156-24.230469-.011719-.007813-.019532-.019531-.027344-.027344 6.886719-12.953125 4.882812-29.433593-6.019531-40.332031-3.960938-3.960938-8.746094-6.832031-13.941407-8.464844 1.214844-11.734375-2.8125-23.722656-11.449218-32.359375-7.53125-7.527343-17.542969-11.675781-28.191406-11.675781-10.648438 0-20.660157 4.148438-28.1875 11.679688-1.171876 1.167968-2.265626 2.40625-3.273438 3.703124-7.253906-5.273437-15.960938-8.125-25.101562-8.125-11.433594.003907-22.179688 4.453126-30.261719 12.535157-6.1875 6.1875-10.164063 13.871093-11.769531 21.992187-.378907-.125-.753907-.261718-1.140626-.375-1.976562-8.964844-6.472656-17.222656-13.054687-23.804687-9.15625-9.15625-21.332031-14.199219-34.28125-14.199219s-25.125 5.042969-34.28125 14.199219c-1.792969 1.792969-3.441406 3.730469-4.933594 5.78125-14.640625-9.832031-34.707031-8.285157-47.636719 4.644531-14.6875 14.691406-14.6875 38.59375 0 53.28125.117188.117188.242188.21875.363282.328125.105468.121094.210937.246094.324218.363281l2.230469 2.230469c17.683594 17.679687 17.683594 46.453125 0 64.136719l-96.5 96.5c-3.902343 3.90625-3.902343 10.234375 0 14.140625 1.953125 1.953125 4.511719 2.929687 7.070313 2.929687s5.121094-.976562 7.074218-2.929687l96.5-96.5c25.476563-25.480469 25.476563-66.9375 0-92.421875l-2.230468-2.230469c-.121094-.117187-.246094-.222656-.371094-.332031-.105469-.117188-.207031-.238282-.320312-.351563-6.890626-6.894531-6.890626-18.109375.003906-25 6.890625-6.894531 18.105468-6.894531 24.996094 0 .964843.964844 1.824218 2.054688 2.554687 3.238281 2.050781 3.320313 5.855469 5.144532 9.726563 4.671876 3.878906-.476563 7.125-3.167969 8.3125-6.886719 1.386718-4.355469 3.734374-8.210938 6.980468-11.453125 5.378906-5.378906 12.53125-8.34375 20.136719-8.34375 7.609375 0 14.761719 2.964844 20.140625 8.34375 4.996094 4.996094 7.941406 11.628906 8.300781 18.679687.257813 5.070313 4.277344 9.148438 9.34375 9.472657 4.285157.273437 8.316407 2.097656 11.347657 5.132812 1.238281 1.238281 2.269531 2.628906 3.078124 4.125.058594.117188.113282.238281.175782.355469 1.25 2.457031 1.925781 5.183593 1.925781 8.015625 0 4.722656-1.839844 9.160156-5.179687 12.5-3.335938 3.339844-7.773438 5.179687-12.496094 5.179687s-9.160156-1.839843-12.5-5.179687c-1.554688-1.558594-2.796875-3.367188-3.679688-5.378906-2.222656-5.058594-8.125-7.355469-13.179687-5.132813-5.054688 2.222656-7.351563 8.121094-5.132813 13.179687 1.890625 4.292969 4.53125 8.15625 7.851563 11.472657 7.113281 7.117187 16.574219 11.039062 26.640625 11.039062 10.0625 0 19.523437-3.921875 26.640625-11.035156 11.800781-11.804687 14.113281-29.550781 6.949219-43.691406-4.546876-8.839844-2.878907-19.503907 4.160156-26.542969 4.308594-4.304688 10.03125-6.679688 16.121094-6.679688 6.089843 0 11.8125 2.371094 16.117187 6.679688 1.160156 1.160156 2.203125 2.460938 3.101563 3.863281 2.144531 3.355469 6.070312 5.121094 10.007812 4.488281 3.933594-.628906 7.113281-3.53125 8.105469-7.386718.878906-3.429688 2.671875-6.570313 5.1875-9.082032 3.753906-3.753906 8.742187-5.820312 14.046875-5.820312 5.308594 0 10.296875 2.066406 14.046875 5.820312 5.90625 5.902344 7.488281 14.945313 3.9375 22.5-1.527344 3.253907-1.191407 7.070313.875 10.011719 2.066406 2.9375 5.5625 4.539063 9.128906 4.199219 4.253906-.40625 8.433594 1.089844 11.453125 4.109375 5.5625 5.5625 5.5625 14.609375-.007812 20.179687-.136719.136719-.285157.257813-.429688.382813l-.289062.25c-2.554688 2.246094-3.796876 5.640625-3.285157 9.003906.507813 3.367188 2.691407 6.242188 5.796875 7.632813 1.621094.730468 3.054688 1.707031 4.261719 2.914062 2.695313 2.691406 4.179687 6.273438 4.179687 10.085938 0 3.808594-1.484374 7.394531-4.179687 10.085937-.335937.335938-.726563.683594-1.195313 1.058594-3.800781 3.054687-4.84375 8.402344-2.472656 12.664063 2.761719 4.949218 1.910156 11.191406-2.046875 15.222656-1.003906-1.269532-2.082031-2.492188-3.242187-3.652344-16.625-16.628906-43.679688-16.625-60.308594 0-.378906.378906-.75.765625-1.117188 1.160156-12.050781-2.472656-24.890624 1.179688-33.796874 10.089844-.8125.8125-1.574219 1.660156-2.296876 2.527344-1.671874-4-4.125-7.675782-7.28125-10.832032-1.808593-1.804687-3.808593-3.378906-5.949218-4.71875l35.96875-35.96875c6.152344-6.152343 16.164062-6.152343 22.316406 0 3.902344 3.90625 10.238281 3.90625 14.140625 0 3.90625-3.90625 3.90625-10.234374 0-14.140624-13.953125-13.949219-36.648437-13.949219-50.601563 0l-31.863281 31.863281c-1.410156-2.382813-3.113281-4.609375-5.113281-6.605469-12.265625-12.265625-31.710938-13.089844-44.945312-2.46875-13.214844-6.09375-29.433594-3.617188-40.152344 7.097656-9.40625 9.40625-12.425782 22.804688-9.082032 34.789063l-179.820312 179.8125c-11.753906 11.753906-17.316406 27.953125-15.265625 44.449219 1.191406 9.554687-4.589844 18.667968-13.738281 21.671874-9.46875 3.097657-19.945313-1.289062-24.371094-10.21875l-2.097656-4.230468c-6.394532-12.898438-3.851563-28.402344 6.328125-38.582032l42.582031-42.582031c3.90625-3.90625 3.90625-10.238281 0-14.140625-3.90625-3.90625-10.238281-3.90625-14.144531 0l-42.578125 42.578125c-16.253906 16.253907-20.316406 41.011719-10.105469 61.609375l2.097656 4.230469c2.269531 4.582031 5.355469 8.546875 8.984375 11.828125.269532.351562.554688.695312.875 1.019531l49.425782 49.421875c11.042968 11.046875 25.550781 16.566406 40.058593 16.566406 14.511719 0 29.019531-5.519531 40.0625-16.566406 8.292969-8.292968 13.738281-18.785156 15.753907-30.339844 3.507812-20.140624 13.003906-38.429687 27.460937-52.882812l95.207031-95.207031c5.628906-5.628907 13.109375-8.730469 21.070313-8.730469 7.960937 0 15.449219 3.101562 21.078125 8.730469l1.976562 1.980469c18.234375 18.230468 47.203125 19.339843 66.746094 3.335937 7.265625 4.671875 15.71875 7.1875 24.5625 7.1875 12.167969 0 23.601562-4.738281 32.203125-13.339844 8.601563-8.601562 13.339844-20.039062 13.339844-32.203125 0-2.449218-.199219-4.863281-.578125-7.238281 9.277344-.167969 18.5-3.777344 25.5625-10.839844 14.476562-14.472656 14.476562-38.023437 0-52.503906-.222656-.21875-.441406-.433594-.667969-.648437.773437-4.871094.679687-9.816407-.214844-14.609376 2.007813-1.277343 3.886719-2.769531 5.585938-4.46875 8.445312-8.445312 11.484375-20.773437 8.414062-31.960937zm-27.257812 90.054687c-6.621094 6.621094-17.355469 6.664063-24.046875.15625-.046875-.046874-.089844-.097656-.132813-.144531-.984375-.980469-2.125-1.714843-3.335937-2.203125-3.613282-1.46875-7.914063-.738281-10.84375 2.191406-3.90625 3.90625-3.90625 10.238282 0 14.140626.078125.078124.15625.148437.234375.226562 4.695312 4.796875 7.285156 11.125 7.285156 17.851562 0 6.820313-2.660156 13.234376-7.484375 18.0625-4.824219 4.824219-11.238281 7.480469-18.0625 7.480469-6.820312 0-13.234375-2.65625-18.058594-7.480469-3.90625-3.90625-10.238281-3.90625-14.144531 0-.484375.480469-.90625 1.003907-1.269531 1.550782-.546875.363281-1.0625.78125-1.542969 1.261718-11.621094 11.621094-30.527344 11.621094-42.148437 0l-1.980469-1.976562c-9.40625-9.410156-21.914063-14.589844-35.21875-14.589844-13.300781 0-25.808594 5.183594-35.214844 14.589844l-95.207031 95.203125c-17.382813 17.382813-28.800782 39.375-33.019532 63.597656-1.300781 7.476563-4.828124 14.261719-10.191406 19.628907-14.292968 14.289062-37.546875 14.292968-51.835937 0l-27.140625-27.140626c.746094-.195312 1.492187-.410156 2.230468-.652343 12.398438-4.0625 21.679688-13.765625 25.605469-25.542969 19.203125-2.183594 37.234375-10.84375 50.914063-24.527344l111.921875-111.917968c3.902343-3.902344 3.902343-10.234376 0-14.140626-3.90625-3.90625-10.238281-3.90625-14.144531 0l-111.917969 111.917969c-9.582031 9.582031-21.949219 15.953125-35.238281 18.257813-.390626-9.339844 3.085937-18.335938 9.777343-25.027344l176.828125-176.832031c3.824219 2.210937 8.796875 1.691406 12.066406-1.582031 3.90625-3.902344 3.90625-10.234376 0-14.140626-6.078124-6.078124-6.078124-15.96875 0-22.050781 5.714844-5.714843 14.996094-6.082031 21.132813-.839843 2.144531 1.835937 4.960937 2.679687 7.769531 2.320312 2.800782-.359375 5.320313-1.886719 6.933594-4.207031.519531-.746094 1.03125-1.367188 1.566406-1.898438 5.351563-5.355469 14.0625-5.355469 19.414063 0 3.457031 3.457031 4.789062 8.371094 3.5625 13.144531-.734375 2.859376-.167969 5.898438 1.546875 8.304688 1.71875 2.40625 4.414062 3.925781 7.359375 4.15625 2.308593.179688 5.683593 1.015625 8.632812 3.964844 2.59375 2.589844 4.019531 6.039062 4.019531 9.707031 0 3.664063-1.425781 7.113281-4.015624 9.703125-.5625.5625-1.199219 1.082031-1.949219 1.601562-3.386719 2.332032-4.996094 6.503907-4.0625 10.511719 1.492187 6.375-.375 12.9375-4.992188 17.554688-3.542969 3.542969-8.25 5.492187-13.261719 5.492187-5.007812 0-9.714843-1.949218-13.257812-5.492187-3.90625-3.902344-10.238281-3.90625-14.140625 0-3.90625 3.90625-3.90625 10.234375-.003906 14.140625 7.320312 7.320312 17.050781 11.351562 27.402343 11.351562 10.351563 0 20.085938-4.027344 27.402344-11.347656 8.019532-8.019531 12.027344-18.875 11.273438-29.945312.183594-.183594.351562-.378907.53125-.566407 1.78125 5.097657 4.703125 9.882813 8.773437 13.953125 3.90625 3.902344 10.234375 3.902344 14.140625 0 3.90625-3.90625 3.90625-10.238281 0-14.144531-6.675781-6.675781-6.675781-17.539063 0-24.214844 5.007813-5.011719 12.714844-6.414062 19.171875-3.496093 4.550781 2.054687 9.921875.441406 12.582031-3.785157.910157-1.449219 1.976563-2.785156 3.160157-3.96875 8.832031-8.832031 23.195312-8.828125 32.023437 0 1.925782 1.921875 3.449219 4.117188 4.550782 6.476563.054687.136718.113281.273437.175781.40625 2.273437 5.128906 2.582031 11 .660156 16.554687-1.527344 4.410157.199219 9.285157 4.15625 11.753907 1.117187.695312 2.148437 1.511718 3.058594 2.421874 6.675781 6.675782 6.675781 17.542969 0 24.21875zm0 0"/></svg>