<svg height="512pt" viewBox="-24 0 512 512.00322" width="512pt" xmlns="http://www.w3.org/2000/svg"><path d="m104.5625 398.605469c-24.265625-5.429688-44.773438-23.800781-52.238281-46.808594-1.460938-4.511719-6.296875-6.976563-10.820313-5.523437-4.511718 1.460937-6.984375 6.304687-5.523437 10.824218 9.449219 29.105469 34.285156 51.425782 64.828125 58.273438.625.136718 1.261718.207031 1.878906.207031 3.933594 0 7.480469-2.714844 8.375-6.71875 1.039062-4.628906-1.875-9.214844-6.5-10.253906zm0 0"/><path d="m326.65625 461.679688c-24.265625-5.429688-44.773438-23.800782-52.238281-46.808594-1.457031-4.507813-6.300781-6.972656-10.820313-5.523438-4.511718 1.460938-6.984375 6.304688-5.523437 10.824219 9.449219 29.105469 34.285156 51.429687 64.828125 58.273437.625.136719 1.261718.207032 1.878906.207032 3.933594 0 7.480469-2.714844 8.375-6.714844 1.039062-4.621094-1.871094-9.21875-6.5-10.257812zm0 0"/><path d="m40.617188 319.433594c.574218.109375 1.140624.171875 1.707031.171875 4.003906 0 7.59375-2.816407 8.410156-6.886719 1.949219-9.664062 5.480469-18.734375 10.496094-26.960938 2.472656-4.054687 1.191406-9.335937-2.859375-11.808593-4.046875-2.464844-9.328125-1.195313-11.8125 2.859375-6.070313 9.945312-10.332032 20.878906-12.675782 32.507812-.925781 4.648438 2.085938 9.171875 6.734376 10.117188zm0 0"/><path d="m403.027344 277.230469c18.835937-62.769531-1.804688-119.917969-44.816406-188.257813 5.882812 1.324219 11.921874 2.214844 18.191406 2.214844 6.542968 0 13.261718-.730469 20.042968-2.207031 23.242188-5.066407 44.335938-18.558594 57.863282-37.019531l5.074218-6.929688-6.929687-5.074219c-32.886719-24.101562-82.597656-17.582031-113.835937 12.484375-6.5-14.460937-17.511719-27.128906-32.363282-36.664062-20.019531-12.847656-44.472656-18.226563-67.085937-14.738282l-8.484375 1.308594 1.304687 8.484375c3.460938 22.492188 17.023438 42.367188 38.195313 55.949219 16.015625 10.28125 34.878906 15.777344 53.359375 15.777344 1.984375 0 3.949219-.097656 5.917969-.226563-3.933594 75.53125-60.429688 142.925781-116.78125 164.519531-20.476563-26.933593-50.433594-44.042968-83.851563-44.042968h-17.171875c-61.566406 0-111.65625 57.792968-111.65625 128.832031 0 66.304687 53.9375 120.242187 120.242188 120.242187 43.8125 0 82.117187-23.628906 103.132812-58.738281.75 65.660157 54.335938 118.859375 120.175781 118.859375 66.304688 0 120.242188-53.9375 120.242188-120.242187 0-49.878907-24.746094-93.128907-60.765625-114.53125zm31.398437-228.21875c-22.648437 23.839843-59.84375 31.683593-86.511719 18.351562 22.648438-23.824219 59.855469-31.683593 86.511719-18.351562zm-183.316406-31.816407c15.820313-.421874 32.070313 4.183594 45.871094 13.046876 14.007812 8.992187 23.835937 21.25 28.351562 35.128906-15.628906.515625-32.0625-4.183594-45.871093-13.039063-14.007813-8.992187-23.835938-21.246093-28.351563-35.136719zm93.882813 83.003907c43.972656 70.695312 56.847656 119.847656 42.609374 169.496093-11.15625-4.328124-23.050781-6.773437-35.464843-6.773437h-17.175781c-40.023438 0-75.101563 24.503906-94.8125 61.117187-1.167969-23.019531-7.523438-44.421874-17.839844-62.648437 57.132812-23.429687 111.957031-86.589844 122.683594-161.191406zm-224.75 334.503906c-56.832032 0-103.0625-46.234375-103.0625-103.066406 0-61.5625 42.382812-111.652344 94.472656-111.652344h17.179687c25.773438 0 49.144531 12.28125 66.199219 32.128906-6.207031 1.289063-12.347656 1.996094-18.34375 1.996094-4.742188 0-8.589844 3.847656-8.589844 8.585937 0 4.742188 3.847656 8.589844 8.589844 8.589844 9.507812 0 19.28125-1.511718 29.105469-4.171875 10.988281 18.242188 17.523437 40.488281 17.523437 64.535157-.007812 56.820312-46.25 103.054687-103.074218 103.054687zm223.308593 60.121094c-56.832031 0-103.066406-46.234375-103.066406-103.066407 0-61.5625 42.386719-111.652343 94.476563-111.652343h17.175781c10.480469 0 20.535156 2.113281 29.957031 5.851562-3.21875 8.003907-7.117188 16.085938-11.695312 24.328125-2.3125 4.148438-.808594 9.382813 3.332031 11.679688 1.320312.730468 2.757812 1.085937 4.164062 1.085937 3.023438 0 5.945313-1.597656 7.515625-4.417969 4.707032-8.476562 8.503906-16.765624 11.820313-24.964843 29.398437 18.945312 49.382812 55.808593 49.382812 98.089843 0 56.832032-46.242187 103.066407-103.0625 103.066407zm0 0"/><path d="m188.953125 280.105469c-18.945313 0-34.355469-15.40625-34.355469-34.355469 0-4.738281-3.847656-8.585938-8.589844-8.585938-4.738281 0-8.585937 3.847657-8.585937 8.585938 0 28.421875 23.109375 51.535156 51.53125 51.535156 4.738281 0 8.589844-3.847656 8.589844-8.589844 0-4.742187-3.851563-8.589843-8.589844-8.589843zm0 0"/><path d="m395.082031 340.226562c-18.945312 0-34.355469-15.40625-34.355469-34.355468 0-4.738282-3.847656-8.585938-8.589843-8.585938-4.738281 0-8.585938 3.847656-8.585938 8.585938 0 28.421875 23.109375 51.535156 51.53125 51.535156 4.738281 0 8.589844-3.847656 8.589844-8.589844 0-4.742187-3.847656-8.589844-8.589844-8.589844zm0 0"/></svg>