<svg id="Layer_1" height="512" viewBox="0 0 512 512" width="512" xmlns="http://www.w3.org/2000/svg" data-name="Layer 1"><path d="m476.771 136.259a17.4 17.4 0 0 0 -13.629 9.735c-5.448 11.223-12.516 20.284-21.007 26.929a17.417 17.417 0 0 1 -18.847 1.458c-20.547-10.837-57.051-10.434-78.118.861a14.042 14.042 0 0 0 -6.962 8.612 13.825 13.825 0 0 0 1.4 10.808c.131.223.262.437.392.657-10.555 3.586-23.763 11.668-33.647 22.768q-3.43 3.852-6.674 7.51c-12.332 13.891-23.089 26-35.569 38.52 5.922-11.165 11.514-22.03 17.391-33.452 2.5-4.867 5.069-9.853 7.746-15.029 5.549-10.731 10.474-26.337 10.436-39.626a13.984 13.984 0 0 0 3.382-1.8 14.142 14.142 0 0 0 5.664-9.52c5.671-42.717-10.788-63.749-25.6-73.871a20.05 20.05 0 0 1 -8.542-20.57c3.282-15.9 2.994-33.224-.856-51.475a17.455 17.455 0 0 0 -11.199-12.774 17.322 17.322 0 0 0 -23.032 17.853c1.124 12.5-.273 23.97-4.156 34.091a16.755 16.755 0 0 1 -14.781 10.95c-23.355 1-54.749 20.211-67.184 41.121a14.005 14.005 0 0 0 -1.517 10.929 13.784 13.784 0 0 0 6.743 8.514c.234.129.464.249.7.374-7.205 8.517-14.377 22.26-17.147 36.878q-.962 5.081-1.864 9.9c-6.714 35.734-11.563 61.553-27.16 105.012a901.12 901.12 0 0 1 -93.288 187.7 24.347 24.347 0 0 0 34.011 33.506c15.661-10.569 38.411-25.926 63.721-47.06h.04c65.364-7.979 122.8-25.373 175.587-53.18 43.12-22.713 69.349-38.966 99.718-57.785 4.651-2.882 9.417-5.836 14.376-8.895 10.269-6.334 22.507-17.169 29.308-28.579a14.028 14.028 0 0 0 2.575.24c.412 0 .826-.017 1.24-.054a14.183 14.183 0 0 0 9.8-5.276c26.78-33.673 23.475-60.176 15.989-76.481a20.067 20.067 0 0 1 3.245-22.044c10.989-11.943 19.644-26.94 25.724-44.576a17.465 17.465 0 0 0 -3.028-16.707 17.212 17.212 0 0 0 -15.381-6.172zm-313.071-20.111c10.288-17.308 38.174-34.448 57.376-35.265a28.743 28.743 0 0 0 25.474-18.642c4.544-11.845 6.194-25.122 4.9-39.464a5.218 5.218 0 0 1 2.026-4.639 5.285 5.285 0 0 1 5.058-.823 5.382 5.382 0 0 1 3.455 3.939c4.369 20.708 2.871 36.757.846 46.573a32.018 32.018 0 0 0 13.522 32.9c17.494 11.957 24.381 32.946 20.471 62.384a2.067 2.067 0 0 1 -2.408 1.766l-.117-.022c-13.709-2.5-31.254-8.711-37.28-24.1a7.319 7.319 0 0 0 -13.745.293c-5.217 15.279-16.48 24.392-22.521 28.363-11.033-18.221-2.187-36.543-2.091-36.736a6.942 6.942 0 0 0 -9.73-9.083c-11.612 6.775-25.372 4.02-36.744-.841-.121-.055-.242-.108-.365-.154-2.635-1.142-5.139-2.394-7.452-3.661a1.853 1.853 0 0 1 -.933-1.152 2.092 2.092 0 0 1 .258-1.636zm-116.557 376.727a12.354 12.354 0 0 1 -17.247-17 913.168 913.168 0 0 0 94.532-190.2c15.919-44.358 20.843-70.57 27.659-106.85.6-3.211 1.221-6.5 1.861-9.878 2.8-14.783 10.926-28.119 16.786-33.826 13.95 5.334 25.089 5.339 33.62 3.174-2.215 11.116-1.734 26.673 8.445 40.824a8.484 8.484 0 0 0 11.066 2.452 69.694 69.694 0 0 0 26.833-27.51c6.119 8.555 17.154 17.208 36.985 21.691.1 10.839-4.21 24.925-9.1 34.375-2.68 5.184-5.249 10.177-7.757 15.05-16.261 31.6-30.305 58.9-55.383 100.262-55.252 91.137-131.606 142.67-168.3 167.436zm353.857-167.189c-4.966 3.064-9.738 6.021-14.4 8.908-30.179 18.7-56.242 34.851-98.99 57.368-46.591 24.542-96.954 40.773-153.466 49.415 30.765-27.775 63.726-63.806 91.562-109.72 7.529-12.419 14.064-23.568 19.969-33.951 26.508-23.068 42.628-41.222 62.974-64.142q3.246-3.657 6.661-7.5c10-11.225 23.812-18.462 31.763-20.331 9.223 11.776 18.776 17.527 27.2 20.07-7.615 8.387-15.2 21.975-13.748 39.366a8.493 8.493 0 0 0 8.219 7.794 69.649 69.649 0 0 0 37.146-9.741c.847 10.492 5.857 23.608 20.562 37.687-5.477 9.347-16.41 19.198-25.452 24.777zm82.832-170.467c-6.9 20.007-16.428 32.991-23.208 40.361a32.034 32.034 0 0 0 -5.32 35.177c8.847 19.267 3.976 40.8-14.477 64.006a2.115 2.115 0 0 1 -1.472.791 2.027 2.027 0 0 1 -1.524-.489l-.022-.021-.065-.057c-10.471-9.218-22.327-23.6-19.58-39.917a7.309 7.309 0 0 0 -11.937-6.816c-12.325 10.406-26.662 12.405-33.878 12.692-.1-21.321 16.9-32.464 17.083-32.58a6.951 6.951 0 0 0 -3.663-12.8c-13.441-.183-23.826-9.654-31.078-19.691-.071-.1-.144-.205-.221-.3-1.669-2.333-3.169-4.691-4.5-6.967a1.882 1.882 0 0 1 -.21-1.5 2.129 2.129 0 0 1 1.082-1.293c19.415-10.409 51.306-9.019 66.85-.822a29.431 29.431 0 0 0 31.839-2.623c9.945-7.781 18.156-18.258 24.407-31.14a5.379 5.379 0 0 1 4.261-3.059 5.207 5.207 0 0 1 4.7 1.887 5.394 5.394 0 0 1 .93 5.161z"/><path d="m259.653 372.54a320.155 320.155 0 0 1 -45.176 19.59 6 6 0 1 0 3.892 11.351 332.281 332.281 0 0 0 46.878-20.324 6 6 0 1 0 -5.594-10.617z"/><path d="m288.364 355.462c-2.888 1.944-5.929 3.907-9.037 5.832a6 6 0 1 0 6.32 10.2c3.236-2 6.405-4.05 9.418-6.078a6 6 0 1 0 -6.7-9.955z"/><path d="m191.761 329.433a6 6 0 1 0 -10.262-6.221 310.94 310.94 0 0 1 -41.524 54.41 6 6 0 0 0 8.648 8.32 323.024 323.024 0 0 0 43.138-56.509z"/><path d="m195.172 311.5a6 6 0 0 0 8.081-2.587c1.381-2.681 2.722-5.383 3.988-8.032a6 6 0 0 0 -10.828-5.174c-1.215 2.543-2.5 5.138-3.828 7.712a6 6 0 0 0 2.587 8.081z"/></svg>