<svg id="Layer_1" height="512" viewBox="0 0 512 512" width="512" xmlns="http://www.w3.org/2000/svg" data-name="Layer 1"><path d="m397.929 51.631a3.7 3.7 0 0 0 -5.037.9 542.2 542.2 0 0 0 -38.492 59.282c3.822-22.245 5.9-40.214 5.509-48.143a11.99 11.99 0 0 0 4.013-2.812c3.584-3.838 4.521-9.876 2.786-17.947-3.2-14.9-9.738-18.881-13.825-19.859-1.181-3.066.153-4.425.468-4.692l-.069.053-3.564-4.826c-1.936 1.429-4.592 5.423-2.591 11.184-.092.109-.188.213-.273.33-3.544 4.922-11.422 17.508-8.071 28.043a16.39 16.39 0 0 0 7.529 9.18c-1.156 5.226-4.206 19.071-7.475 34.441a550.756 550.756 0 0 0 -8.823-65.38 3.741 3.741 0 0 0 -7.4.969c1.022 15.587 1.654 45.64-3.532 86.679-6.379-37.522-18.125-72.2-25.275-91.218a3.741 3.741 0 0 0 -7.144 2.174c6.66 28.34 20.245 106.185 2.715 216.963a564.931 564.931 0 0 0 -23.833 104.387q-4.821.466-9.545.71.31-11.2.378-22.658c2.887-14.634 6.074-29.144 9.156-43.179 6.7-30.476 13.02-59.262 14.723-82.572 4.169-57.092-.323-144.865-9.07-177.2a3.741 3.741 0 0 0 -7.318 1.484c4.9 36.007-1.909 119.421-11.7 190.634-3.451-72.183-3.653-152.35 3.64-183.885a3.741 3.741 0 0 0 -7.151-2.15c-11.679 31.39-24.215 118.375-25.306 175.611-.409 21.405 1.31 48.376 3.13 76.93 1.4 21.916 2.83 44.543 3.493 66.941q-2.751-.151-5.434-.355a597.129 597.129 0 0 0 -14.305-101.48c-7.258-111.617 13.442-187.91 22.684-215.543a3.741 3.741 0 0 0 -6.912-2.823c-8.866 18.272-23.747 51.721-33.545 88.49-1.4-41.342 2-71.21 4.443-86.638a3.741 3.741 0 0 0 -7.283-1.643 540.644 540.644 0 0 0 -16.861 78.378q-2.073 15.657-2.793 29.9c-13.384-38.717-33.284-74.042-44.9-93.039a3.741 3.741 0 0 0 -6.607 3.478c8.946 20.052 27.089 67.184 36.916 137.621-8.062-15.31-14.667-29.317-16.9-34.128a16.247 16.247 0 0 0 3.891-10.567c-.075-11.053-11.439-20.569-16.322-24.147a5.552 5.552 0 0 0 -1.016-.578c.039-7.079-4.767-9.282-5-9.385l-2.412 5.5a.734.734 0 0 1 -.11-.053c.083.046 1.829 1.08 1.462 4.914-3.49 2.512-7.761 8.51-6.314 22.7.838 8.213 3.592 13.665 8.183 16.205a12.009 12.009 0 0 0 5.031 1.456c5.07 13.578 12.579 26.9 23.69 46.59 2.956 5.241 6.3 11.166 9.871 17.589 1.059 12.375 1.84 25.318 2.265 38.824.739 23.432 3.645 50.034 8.631 79.115a8.733 8.733 0 0 0 -8.114 9.282l.4 6.446a14.552 14.552 0 0 0 12.7 13.541l.055.006q1.52 6.489 3.159 12.715c-5.231 27.462-15.129 66.159-32.718 95.931a6.186 6.186 0 0 0 4.591 9.292l15.452 1.837a6.064 6.064 0 0 0 .735.044 6.193 6.193 0 0 0 5.591-3.537c1.2-2.515 11.165-23.928 20.649-57.7 1.325 3.68 2.591 7.076 3.773 10.163-2.892 17.643-7.011 33.633-12.257 47.239a6.183 6.183 0 0 0 5.761 8.413c.1 0 .2 0 .3-.008l15.538-.747a6.2 6.2 0 0 0 5.664-4.491l.1-.359c.921-3.221 1.78-6.508 2.608-9.826 3.849 7.591 6.792 12.709 8.395 15.378a6.184 6.184 0 0 0 6.638 2.864l15.2-3.332a6.187 6.187 0 0 0 3.669-9.692q-2.817-3.859-5.507-7.986c1.223-5.515 2.564-12.641 3.914-21.143 5.33 5.305 14.306 14.55 17.822 20 .646 4.575 1.213 7.8 1.532 9.5a6.2 6.2 0 0 0 5.224 4.994l15.406 2.181a6.287 6.287 0 0 0 .874.062 6.183 6.183 0 0 0 5.936-7.873c-3.975-14.03-6.517-30.359-7.611-48.54a537.159 537.159 0 0 0 30.5-76.912c.976-.424 1.952-.848 2.9-1.29a17.2 17.2 0 0 0 9.917-16.479 5.53 5.53 0 0 0 -6.515-5.193 572.467 572.467 0 0 0 13.974-72.913c13.842-111.516 48.366-182.364 62.567-207.653a3.706 3.706 0 0 0 -1.221-4.969zm-37.086-7.46c1.273 5.928.831 10.273-1.281 12.564a6.779 6.779 0 0 1 -3.612 1.937c1.278-9.9-.009-21.091-1.069-27.707 2.037 2.007 4.38 5.849 5.962 13.206zm-16.343 7.154c-1.674-5.261.934-12.5 4.563-18.644.957 6.261 2.032 16.226.98 24.872a10.8 10.8 0 0 1 -5.543-6.228zm-4.593 69.712c4.373-21.538 10-47.179 12-56.248.015 0 .03.009.045.011a13.156 13.156 0 0 0 1.735.1h.28c.191 8.9-2.822 33.382-8.955 64.768q-2.757 5.576-5.351 11.3c.28-6.668.347-13.333.247-19.931zm-23.907 19.297a662.577 662.577 0 0 1 -15.955 71.892c7.195-66.774 3.251-119.254-1.768-152.957 7.109 22.742 14.569 51.774 17.723 81.065zm-20.853 108.266c27.082-81 33.433-146.252 34.1-186.053a449.374 449.374 0 0 1 4.72 57.6l-.027.137.029.006c.621 47.023-7.939 74.747-13.013 86.922-16.038 38.49-30.141 92.518-36.977 141.51q-6.189 1.167-12.29 1.93a558.265 558.265 0 0 1 23.458-102.052zm23.863-19.6c-3.823 35.025-12.711 78.639-24.118 117.328q-2.341.583-4.677 1.108c5.753-40.116 16.338-83.398 28.795-118.431zm-47.679-165.132c4.419 40.384 5.961 97.941 2.938 139.335-1.671 22.88-7.951 51.462-14.6 81.722-1.174 5.344-2.361 10.774-3.544 16.238q-.519-24.282-2.105-49.3-.1-1.622-.2-3.259c11.719-74.675 17.105-141.837 17.511-184.736zm-41.984 144.375c.813-42.6 7.983-101.727 16.374-141.616-2.849 39.056-2.982 102.9 2.313 185.616 2.206 34.448 2.854 68.083 1.953 100.048-4.775.13-9.451.109-14-.032-.66-22.642-2.107-45.473-3.516-67.581-1.816-28.427-3.528-55.278-3.124-76.435zm-10.694-145.511c-8.1 33.083-16.85 84.9-15.846 151.834a662.724 662.724 0 0 1 -9.234-72.786c5.827-28.859 15.912-57.065 25.08-79.048zm-31.131.373c-2.993 39.694-2.662 105.258 16.866 188.418a590.813 590.813 0 0 1 14.112 99.589c-4.082-.406-8.012-.891-11.763-1.432-2.688-47.638-12.139-103-24.246-141.762-5.334-17.076-14.453-63.177 5.031-144.813zm13.153 285.631q-2.817-.471-5.466-.971c-7.609-38.825-12.292-82.713-12.809-118.065 9.112 35.645 15.971 79.873 18.275 119.036zm-64.312-205.044a10.976 10.976 0 0 1 -3.575 7.879 56.941 56.941 0 0 1 -8.087-25.512c5.952 4.855 11.621 11.576 11.662 17.633zm-12.663 9.838c-2.711-1.523-4.47-5.515-5.085-11.546a32.729 32.729 0 0 1 .47-11.334 64.1 64.1 0 0 0 8.324 23.628 6.61 6.61 0 0 1 -3.709-.748zm31.079 50.37c-10.619-18.819-17.9-31.743-22.815-44.474a12.872 12.872 0 0 0 1.468-.584 2.981 2.981 0 0 0 .447-.275c3.74 7.972 13.227 27.775 23.581 46.182q.276 2.413.538 4.86c-1.114-1.982-2.191-3.892-3.219-5.709zm12.907 59.172c-2.678-85.035-19.22-148.262-32.37-185.868 12.042 22.446 25.743 51.726 34.272 81.844.267 19.042 2.614 35.806 7.026 50.144-1.462 37.441 3.311 90.773 12.232 137.3-4.612-.982-8.715-1.983-12.228-2.912-5.175-29.68-8.183-56.76-8.932-80.512zm-.925 222.286a.2.2 0 0 1 -.2.112l-15.451-1.839a.158.158 0 0 1 -.141-.1.164.164 0 0 1 .008-.18c15.646-26.485 25.317-59.67 31.079-86.238 2.412 8.3 4.884 16.059 7.271 23.1-9.964 38.125-21.299 62.473-22.566 65.141zm14.944-112.976c3.785.406 8.2.827 13.113 1.206 1.108 4.2 2.562 8.866 3.977 13.4.858 2.753 1.668 5.351 2.354 7.7-.482 11.512-1.4 22.665-2.749 33.314a531.264 531.264 0 0 1 -16.695-55.624zm24.236 116.408-.1.36a.2.2 0 0 1 -.182.147l-15.539.748a.155.155 0 0 1 -.154-.074.171.171 0 0 1 -.022-.181c11.511-29.849 17.731-70.729 17.6-115.4 3.726.181 7.621.322 11.647.408.629 42.656-3.814 81.002-13.25 113.992zm-4.785-114.761.38.023c0 .45.007.9.007 1.35-.133-.463-.26-.919-.387-1.373zm42.218 115.34a.167.167 0 0 1 .024.18.16.16 0 0 1 -.132.114l-15.201 3.337a.183.183 0 0 1 -.208-.091c-1.975-3.29-6.045-10.4-11.385-21.471q2.326-10.673 4.046-21.954a225.337 225.337 0 0 0 22.856 39.885zm-18.189-114.5c.825.006 1.646.014 2.479.014 1.048 0 2.117-.015 3.177-.024-.246 27-2.283 50.3-6.076 69.438q-1.365-3.081-2.7-6.289a468.953 468.953 0 0 0 3.12-63.135zm12.939 95.576q-4.768-8.055-9.18-17.146c4.967-20.927 7.621-47.332 7.9-78.539.689-.017 1.369-.025 2.061-.046 3.432-.105 6.786-.268 10.09-.468-2.282 41.923-6.956 76.228-10.871 96.203zm9.617-21.071q.374-2.557.743-5.253l12.294-17.3c.258 15.516 1.22 28.516 2.269 38.451-5.663-6.434-12.617-13.285-15.306-15.894zm2.361-17.886c1.993-16.687 3.772-36.2 4.922-57.664 2.62-.21 5.208-.443 7.742-.715-1.408 15.806-1.991 30.373-2.048 43.444zm37.545 55.7a.168.168 0 0 1 -.037.177.154.154 0 0 1 -.158.058l-15.406-2.182a.2.2 0 0 1 -.169-.163c-1.515-8.033-8.683-50.834-3.021-112.7q6.537-.856 12.654-2.007c-3.234 33.256-4.529 79.167 6.137 116.829zm-2.362-63.01c-.233-10.43-.028-21.389.617-32.8.868-2.2 1.8-4.5 2.755-6.871 2.315-5.719 4.68-11.6 6.622-17.216q7.281-1.92 13.841-4.321a536.279 536.279 0 0 1 -23.835 61.215zm2.161-52.891c.07-.717.145-1.439.218-2.159.213-.046.432-.088.644-.136q-.423 1.15-.862 2.302zm35.7-28.01a11.216 11.216 0 0 1 -6.474 10.1c-15.135 7.064-59.139 22.4-140.621 12.305a8.542 8.542 0 0 1 -7.453-7.96l-.4-6.446a2.746 2.746 0 0 1 1.024-2.331 2.682 2.682 0 0 1 1.694-.607 2.719 2.719 0 0 1 .738.1c25.132 7.062 90.082 20.629 151.493-5.154zm7.484-79.789a567.03 567.03 0 0 1 -14.912 76.3q-7.01 2.683-14.044 4.711c13.335-46.18 23.063-98.72 25.016-135.479 6.134-14.9 9.748-31.827 11.614-49.327 11.262-29.2 27.588-57.076 41.636-78.305-16.546 36.24-38.829 97.671-49.309 182.112z"/></svg>