<?xml version="1.0" encoding="iso-8859-1"?>
<!-- Generator: Adobe Illustrator 19.0.0, SVG Export Plug-In . SVG Version: 6.00 Build 0)  -->
<svg version="1.1" id="Capa_1" xmlns="http://www.w3.org/2000/svg" xmlns:xlink="http://www.w3.org/1999/xlink" x="0px" y="0px"
	 viewBox="0 0 512.022 512.022" style="enable-background:new 0 0 512.022 512.022;" xml:space="preserve">
<g>
	<g>
		<path d="M497.337,136.722l-7.9-7.7c-5.5-5.4-12.6-8-19.8-7.3c-7.9,0.8-15.1,5.4-20.2,12.9c0,0,0,0.1-0.1,0.1l-0.2,0.4
			c0,0,0,0.1-0.1,0.1c-2.1,3.3-5,5.3-8.5,5.7c-4.1,0.5-8.5-1.3-12.1-4.9l-9.4-9.3c-3.9-3.9-6.1-9.1-6.1-14.2c0-4.2,1.6-8,4.3-10.7
			l0.1-0.1l0.1-0.1l0.1-0.1c6.3-6,16.1-6.3,21.9-0.6l7.9,7.8c5,5,11.5,7.7,18,7.7c1,0,2-0.1,2.9-0.2c7.5-1,14.3-5.5,18.5-12.6
			l0.2-0.3c0,0,0-0.1,0.1-0.1c7.9-13.3,6.9-30.2-2.3-39.5l-6.2-6.2c-9.6-9.6-26.4-9.1-38.2,1.3l-0.1,0.1l-0.3,0.3l-0.1,0.1
			c-5.8,5.6-15.7,5.4-21.5-0.4l-7.9-7.8c-2.5-2.5-3.7-5.4-3.2-8c0.4-2.7,2.5-5.1,5.7-6.7c0,0,0.1,0,0.1-0.1l0.3-0.2
			c8.7-4.2,19.7-2.8,23.8,1.2l6.2,6.2c2.9,2.9,7.7,2.9,10.6,0c2.9-2.9,2.9-7.7,0-10.6l-6.2-6.2c-9.1-9.1-27.1-10.9-41.1-4.1
			c-0.1,0-0.1,0-0.1,0.1l-0.3,0.2c-7.6,3.8-12.6,10.2-13.9,17.7c-0.1,0.4-0.1,0.9-0.2,1.3c-9.2-1.7-19.2-0.2-27.3,4.8
			c0,0-0.1,0-0.1,0.1l-0.3,0.2l-0.1,0.1c-8.4,5.5-22.1,3.6-30-4.2l-9.4-9.4c-3.4-3.4-5-7.1-4.3-10.2c0.6-2.7,3-4.9,6.8-6.4l0.4-0.2
			c11.5-4.2,26.3-0.5,32.3,5.6c2.9,2.9,7.7,2.9,10.6,0c2.9-2.9,2.9-7.7,0-10.6c-11-10.9-32.2-14.9-48.1-9h-0.1l-0.4,0.1
			c-8.6,3.2-14.5,9.5-16.2,17.2c-0.2,0.8-0.3,1.7-0.4,2.5c-10.8-3-22.7-2.4-31.9,2.3l-0.4,0.2c-7.8,4-12.8,10.6-14.1,18.8
			c-0.2,1.6-0.3,3.1-0.3,4.7c-11.2-2.9-23.2-1.8-32.1,4.1l-0.4,0.3c-7,4.6-11.3,11.7-12.2,20.1c-0.2,2.1-0.2,4.3,0,6.4
			c-5.2-1.3-10.6-1.6-15.7-0.8c-1.9-4.1-3.9-8-6-11.8c-3.6-6.7-9.9-11.2-17.4-12.4c-7.5-1.2-15,1.1-20.5,6.3
			c-19.6,18.4-57.3,56.5-89.9,105c-39.8,59.2-60.4,116-61.2,168.8c-0.9,56.7,21.4,108.1,66,152.8c0.6,0.6,1.4,1.1,2.2,1.5
			c34.1,15.5,67.7,23.2,101.1,23.2c43.1,0,85.8-12.9,127.6-38.6c43.3-26.6,83.5-65.2,122.7-118c3.8-5.1,5.2-11.6,3.8-17.9
			c-0.6-2.7-1.7-5.2-3.1-7.4c0.5-0.6,1.1-1.2,1.6-1.8l0.4-0.5c6.7-8.7,8.3-20.7,5.3-32.3c2,0.2,4.1,0.1,6.1-0.1
			c8.4-1,15.4-5.7,19.8-13l0.3-0.5c5.5-9.3,6.4-21.5,3.3-32.8c1.4,0,2.8-0.1,4.1-0.4c8.2-1.4,14.9-6.7,18.8-14.9l0.3-0.5
			c4.6-9.6,5.1-21.5,2-32.2c0.7-0.1,1.3-0.2,2-0.3c7.9-1.7,14.3-7.7,17.6-16.3l0.2-0.4v-0.1
			C511.837,168.022,508.137,147.322,497.337,136.722z M450.237,70.322l0.1-0.1l0.2-0.2c6.2-5.4,14.1-5.4,17.6-1.9l6.1,6.1
			c3.8,3.8,4.7,13.2,0,21.2l-0.2,0.3c0,0,0,0.1-0.1,0.1c-1.9,3.1-4.5,5.1-7.6,5.4c-2.9,0.4-6-0.8-8.5-3.3l-7.9-7.8
			c-2.9-2.8-4.4-6.5-4.3-10.5C446.037,76.022,447.537,72.722,450.237,70.322z M367.137,67.922c0.4-3.4,2.3-6.2,5.5-8.2
			c0,0,0.1,0,0.1-0.1l0.3-0.2c8.3-5.1,20.7-4,27.1,2.3l7.9,7.8c5.9,5.9,13.8,8.8,21.6,8.8c0.4,0,0.9,0,1.3,0c0,0.3,0,0.6,0,0.9
			c0,0.9,0,1.7,0.1,2.6c-8.4-0.4-17,2.5-23.6,8.8l-0.1,0.1l-0.3,0.3l-0.1,0.1c-2.8,2.8-6.6,4.4-10.9,4.4c-5.1,0.1-10.3-2.2-14.2-6
			l-9.4-9.3C368.537,76.522,366.637,72.022,367.137,67.922z M361.737,90.922l9.4,9.3c6.6,6.6,15.6,10.4,24.7,10.4c0.1,0,0.2,0,0.2,0
			c0.7,0,1.4,0,2.1-0.1c0,0.6-0.1,1.2-0.1,1.9c0,1.5,0.1,3,0.3,4.5c-9.4-0.9-18.9,2.1-25.9,9.1l-0.1,0.1l-0.3,0.3c0,0,0,0-0.1,0.1
			c-3.5,3.7-8,4.5-11.2,4.6c-0.1,0-0.2,0-0.3,0c-5.9,0-12-2.7-16.7-7.4l-10.5-10.6c-4.7-4.7-7.2-10.5-6.8-15.9
			c0.2-2.7,1.3-6.5,5.3-9.4l0.3-0.2C340.337,81.722,353.937,83.122,361.737,90.922z M352.037,301.022c-7.9-2.1-15.8-4-23.7-5.7
			c-17.3-3.7-34.6-6.3-51.7-7.9c-0.3-1.3-1-2.5-2-3.5c-10-10-12-24.4-4.3-32l0.4-0.4c7.7-7.6,22-5.7,32.1,4.3l11.8,11.8
			c8.4,8.4,19.2,13.1,29.7,13.1c0.4,0,0.8,0,1.2,0c0.8,0,1.6-0.1,2.4-0.2C347.537,287.222,348.837,294.322,352.037,301.022z
			 M231.237,173.622c-2.2-0.4-4.4-0.7-6.6-0.8c-0.3-3.2-0.7-6.4-1.1-9.6c1.5,0.2,3.1,0.3,4.6,0.3c0.9,0,1.8,0,2.7-0.1
			c-0.1,0.9-0.2,1.7-0.2,2.6C230.637,168.522,230.837,171.122,231.237,173.622z M257.337,286.022c-14.9-0.7-29.5-0.6-43.7,0.3
			c3.4-11.5,6.1-23.2,8.1-34.8c7.9,6.1,17.2,9.2,26,9.2c1.1,0,2.2,0,3.2-0.1C250.137,269.022,252.337,278.022,257.337,286.022z
			 M227.537,236.822l-3.3-3.3c1.7-15.2,2.2-30.4,1.5-45.5c6.3,0.6,13,3.8,18.1,9l11.8,11.8c8.5,8.5,19.6,13.4,30.5,13.4
			c0.1,0,0.2,0,0.2,0c1,0,2-0.1,3-0.2c-0.3,3.5-0.1,7.1,0.6,10.7c-11.1-2.1-22.3,0.5-30,8.2l-0.4,0.4
			C252.037,248.822,237.637,246.922,227.537,236.822z M298.437,202.122l-0.4,0.4c-3.7,3.8-8.4,4.6-11.8,4.6h-0.1
			c-7,0-14.2-3.3-19.9-9l-11.8-11.8c-5.7-5.7-9-13.1-8.8-19.9c0.1-3.2,1-7.7,4.8-11.2l0.4-0.3c7.9-7.2,22.8-5.1,32.4,4.6l11.4,11.3
			c8.2,8.1,18.8,12.8,29.4,12.8c0.1,0,0.3,0,0.4,0c0.9,0,1.8-0.1,2.8-0.1c-0.2,3.3,0,6.6,0.6,10c-2.1-0.4-4.2-0.6-6.3-0.6h-0.1
			C312.437,192.822,304.337,196.122,298.437,202.122z M324.137,168.522c-6.7,0-13.6-3-19-8.4l-11.4-11.3c-5.3-5.3-8.4-12.2-8-18.4
			c0.1-3,1.1-7.2,5-10.4l0.3-0.3c8.2-6.6,22.6-4.8,31.5,4.1l10.5,10.5c7.5,7.5,17.4,11.8,27.3,11.8c0.1,0,0.3,0,0.4,0
			c0.8,0,1.7-0.1,2.5-0.1c-0.1,1.7-0.1,3.5,0,5.3c0.1,1.1,0.2,2.2,0.4,3.3c-1.6-0.2-3.3-0.4-4.9-0.4c-0.1,0-0.1,0-0.2,0
			c-8.7,0-16.8,3.4-22.7,9.4l-0.4,0.4C332.037,167.722,327.437,168.522,324.137,168.522z M274.237,46.222c0.5-3.3,2.6-6,6.1-7.7
			l0.4-0.2c9.8-5,25.6-2.2,33.8,5.9l9.4,9.4c7.6,7.5,18.1,11.6,28.4,11.7c0,0.3-0.1,0.6-0.1,0.9c-0.1,1.2-0.2,2.4-0.2,3.5
			c-10-2-20.6-0.1-28.9,5.8l-0.5,0.3c-8.3,6.3-22.9,4.1-31.9-4.8l-10.5-10.5C275.837,56.022,273.537,50.722,274.237,46.222z
			 M229.337,74.522c0.4-3.8,2.3-6.9,5.6-9.1l0.4-0.2c9.1-6,25.2-3.2,34.4,5.9l10.6,10.5c8.5,8.4,19.7,12.8,30.5,12.8
			c0.3,0,0.5,0,0.8,0c-0.1,0.5-0.1,1.1-0.2,1.6c-0.1,1.8-0.1,3.7,0.1,5.5c-10.7-2.2-21.8-0.1-29.9,6.5l-0.4,0.4
			c-8.2,6.9-23.2,4.6-32.9-5.1l-11.4-11.3C231.637,86.822,228.837,80.222,229.337,74.522z M226.337,102.722l11.4,11.3
			c8.9,8.9,20.4,13.5,31.4,13.5c0.6,0,1.3,0,1.9-0.1c-0.1,0.7-0.1,1.4-0.2,2.1c-0.1,2.3,0,4.6,0.4,6.9c-11.1-2.3-22.4,0-30.5,7.3
			l-0.4,0.3c-4.6,4.2-11.9,5.4-19.2,3.3c-3.5-18.6-8.8-36.8-15.8-54.1C212.637,93.522,220.537,96.922,226.337,102.722z
			 M411.137,346.422c-71,95.5-186.1,195.3-331.6,129.3c-41.1-41.5-61.5-88.9-60.7-141c1.8-114.9,103-222.3,146.4-263.1
			c2.1-2,5-2.9,7.8-2.4s5.2,2.2,6.6,4.7c2.8,5.2,5.5,10.8,8.1,16.5c9,20.2,15.5,41.7,19.3,63.9c1.5,8.9,2.7,18.1,3.3,27.1
			c1.3,17.8,0.8,35.9-1.4,53.9c-2.2,17.9-6.2,35.9-11.9,53.7c-0.3,1-0.7,2.1-1,3.1c0,0.1-0.1,0.2-0.1,0.3
			c-11.7,35.6-30.5,71.1-55.7,105.6c-2.4,3.3-1.7,8,1.6,10.5c3.3,2.4,8,1.7,10.5-1.6c25.1-34.3,44-69.7,56.3-105.2
			c21-1.7,43-1.5,65.6,0.5c16.8,1.5,33.9,4.1,50.9,7.8c15,3.2,30.1,7.2,44.9,11.9c12.7,4.1,25.5,8.7,38.1,13.9
			c0.2,0.1,0.4,0.2,0.7,0.3c1.8,1,3,2.6,3.5,4.6C412.637,341.922,412.837,344.222,411.137,346.422z M413.937,318.722l-0.3,0.4
			c-0.6,0.7-1.2,1.3-1.8,1.9c-12.2-5-24.7-9.5-37.1-13.4c-0.2-0.1-0.3-0.1-0.5-0.2c-0.3-1.3-1-2.5-2-3.5c-10.1-10.1-12.4-25-5-33.4
			l0.4-0.4c2.7-3.1,2.4-7.9-0.7-10.6c-3.1-2.7-7.9-2.4-10.6,0.7l-0.3,0.4c-3.3,3.8-7.8,4.8-10.9,4.9c-6.7,0.2-14.1-3-19.8-8.7
			l-11.8-11.8c-10.1-10.1-12.1-24.5-4.5-32.2l0.3-0.4c3.9-3.9,8.7-4.8,12.1-4.8c0,0,0,0,0.1,0c6.6,0,13.3,3,18.6,8.3l11.3,11.3
			c7.8,7.8,17.7,12.2,27.5,12.2c0.7,0,1.4,0,2.2-0.1c0.7,0,1.4-0.1,2.1-0.2c-0.4,11.6,4.3,24,13.6,33.4c0.2,0.2,0.5,0.4,0.7,0.6
			s0.4,0.5,0.6,0.7C419.037,288.922,420.537,310.122,413.937,318.722z M444.537,274.222l-0.3,0.5c-2,3.4-5.1,5.5-8.8,5.9
			c-5.4,0.7-21.7-12-26.8-17.2c-0.2-0.2-0.5-0.4-0.7-0.6s-0.4-0.5-0.6-0.7c-9.6-9.6-12.1-25-5.4-33.6l0.3-0.4
			c2.5-3.3,1.9-8-1.4-10.5s-8-1.9-10.5,1.3l-0.3,0.4l-0.1,0.1c-3,4-7.1,5.1-10,5.3c-6,0.4-12.7-2.5-18-7.8l-11.3-11.3
			c-9.5-9.5-11.4-23.8-4.1-31.2l0.3-0.3c4-4,8.8-4.9,12.1-4.9h0.1c5.9,0,11.8,2.6,16.4,7.2l10.5,10.5c7,7,15.8,10.9,24.6,10.9
			c0.9,0,1.8,0,2.7-0.1c0.6-0.1,1.1-0.1,1.7-0.2c-0.1,11.1,4.4,22.7,13,31.3c1.5,1.5,7.8,7.8,10.5,10.4
			C447.437,248.122,450.237,264.522,444.537,274.222z M470.437,226.722l-0.3,0.5c-1.8,3.8-4.5,6.1-7.9,6.7
			c-4.2,0.7-9.1-1.3-13.4-5.6c-2.6-2.6-7.8-7.8-10.5-10.4c-8.9-8.9-11.2-23.7-5-32.5l0.3-0.4c2.4-3.4,1.5-8.1-1.9-10.4
			c-3.4-2.4-8.1-1.5-10.4,1.9l-0.2,0.3l-0.1,0.1c-2.2,3.3-5.5,5.2-9.3,5.6c-5.2,0.5-10.7-1.9-15.3-6.4l-10.5-10.5
			c-4.4-4.4-7.1-9.9-7.5-15.6c-0.4-5.2,1.1-9.9,4.4-13.1l0.3-0.3c6.8-6.8,18.3-6.4,25.6,0.8l9.3,9.3c6.1,6,13.7,9.3,21.4,9.3
			c1,0,2-0.1,3-0.2c0.4-0.1,0.9-0.1,1.3-0.2c0.2,10.2,4.2,20.6,11.6,28c2,2,7.3,7.2,9.3,9.2
			C472.637,200.822,475.337,216.422,470.437,226.722z M491.737,178.522l-0.2,0.5c-1.5,4-3.9,6.5-6.8,7.1c-2.9,0.6-6.4-0.8-9.6-3.9
			c-2-2-7.3-7.2-9.3-9.2c-7.8-7.7-9.7-21.2-4.1-29.6l0.1-0.1l0.1-0.1l0.1-0.2c2.5-3.7,5.8-6,9.2-6.3c2.8-0.3,5.5,0.8,7.8,3l7.9,7.7
			C492.737,153.222,496.137,167.122,491.737,178.522z"/>
	</g>
</g>
<g>
</g>
<g>
</g>
<g>
</g>
<g>
</g>
<g>
</g>
<g>
</g>
<g>
</g>
<g>
</g>
<g>
</g>
<g>
</g>
<g>
</g>
<g>
</g>
<g>
</g>
<g>
</g>
<g>
</g>
</svg>
