<svg id="Layer_1" enable-background="new 0 0 512 512" height="512" viewBox="0 0 512 512" width="512" xmlns="http://www.w3.org/2000/svg"><path d="m363.045 230.749c-4.321-.88-8.555 1.904-9.441 6.234-.886 4.328 1.905 8.556 6.234 9.441 28.539 5.84 49.254 31.26 49.254 60.443 0 4.418 3.582 8 8 8s8-3.582 8-8c0-36.748-26.095-68.761-62.047-76.118z"/><path d="m101.286 331.45h-5.022v-5.023c0-4.418-3.582-8-8-8s-8 3.582-8 8v5.023h-5.024c-4.418 0-8 3.582-8 8s3.582 8 8 8h5.023v5.023c0 4.418 3.582 8 8 8s8-3.582 8-8v-5.023h5.022c4.418 0 8-3.582 8-8s-3.581-8-7.999-8z"/><path d="m204.175 201.71h-5.023v-5.023c0-4.418-3.582-8-8-8s-8 3.582-8 8v5.023h-5.022c-4.418 0-8 3.582-8 8s3.582 8 8 8h5.022v5.023c0 4.418 3.582 8 8 8s8-3.582 8-8v-5.023h5.023c4.418 0 8-3.582 8-8s-3.582-8-8-8z"/><path d="m326.501 361.659h-5.022v-5.022c0-4.418-3.582-8-8-8s-8 3.582-8 8v5.022h-5.023c-4.418 0-8 3.582-8 8s3.582 8 8 8h5.023v5.023c0 4.418 3.582 8 8 8s8-3.582 8-8v-5.023h5.022c4.418 0 8-3.582 8-8s-3.582-8-8-8z"/><path d="m245.045 303.71c-4.343.849-7.123 5.085-6.28 9.399 1.003 4.644 5.414 7.129 9.41 6.28 4.258-.832 7.142-4.99 6.28-9.399-.851-4.322-5.094-7.16-9.41-6.28z"/><path d="m482.492 130.312c8.849-33.999 6.154-61.71 6.035-62.873-.378-3.696-3.252-6.646-6.938-7.12-43.406-5.583-81.054-.529-111.896 15.021-3.945 1.989-5.531 6.8-3.542 10.745 1.989 3.944 6.799 5.528 10.745 3.542 26.392-13.308 58.678-18.078 96.046-14.206.244 9.545-.202 28.831-5.936 50.862-10.397 39.954-32.576 69.706-65.955 88.5-16.855-9.841-36.594-15.068-57.063-14.424 12.505-21.097 43.184-65.506 87.63-81.415 4.159-1.489 6.324-6.068 4.836-10.229-1.489-4.159-6.07-6.324-10.229-4.836-59.987 21.471-95.534 86.386-101.946 98.949-.054.012-1.988.45-2.124.483 6.595-21.369 8.272-44.289 4.079-67.646 6.46-9.872 13.816-18.643 21.901-26.104 3.247-2.996 3.45-8.058.453-11.305-2.997-3.248-8.059-3.45-11.305-.453-5.748 5.305-11.146 11.201-16.167 17.597-21.267-64.908-84.87-115.4-158.815-115.4-3.19.006-6.072 1.907-7.333 4.838-.371.861-9.123 21.449-12.646 51.272-4.353 36.852 1.348 71.631 16.485 101.119-36.685 25.178-54.079 70.255-43.222 113.789-51.916 6.784-92.589 51.184-92.589 105.651 0 58.761 47.805 106.566 106.565 106.566 21.341 0 41.587-6.148 59.072-17.857 19.205 28.124 51.512 46.622 88.061 46.622 58.164 0 105.586-46.841 106.544-104.78 41.22-14.777 70.723-53.964 70.723-100.352 0-32.946-15.03-62.446-38.592-82.009 33.334-21.009 56.429-53.454 67.123-94.547zm-309.858 18.848c-13.498-26.558-18.369-57.022-14.479-90.678 2.251-19.474 7.006-34.905 9.646-42.388 88.902 3.242 160.471 88.208 141.649 172.72-13.454-21.616-34.901-38.527-60.757-46.02-1.593-55.538-37.614-88.449-39.182-89.852-3.292-2.948-8.35-2.667-11.296.626-2.946 3.292-2.667 8.35.626 11.296.323.289 30.764 28.103 33.683 74.575-19.957-2.535-40.89.549-59.89 9.721zm7.953 302.347c-15.043 10.312-32.552 15.729-51.025 15.729-49.938 0-90.565-40.628-90.565-90.566 0-47.488 36.317-85.753 81.736-90.134 12.038 28.593 36.228 51.057 66.844 60.471-20.241 30.883-23.234 70.609-6.99 104.5zm96.107 44.493c-39.818 0-75.456-26.241-86.893-65.026-11.15-38.032 3.756-77.727 34.751-99.601 3.61-2.547 4.473-7.538 1.926-11.148-2.548-3.61-7.538-4.473-11.148-1.926-6.205 4.376-12.109 9.608-17.086 15.019-30.438-7.146-54.515-29.407-64.622-57.827-16.682-46.907 7.827-97.315 52.2-114.631 40.338-15.91 86.183-.69 109.427 35.528 20.5 31.963 18.741 73.301-4.132 103.454-4.612-.619-9.657-.973-14.423-.973-4.418 0-8 3.582-8 8s3.582 8 8 8c50.029 0 90.566 40.732 90.566 90.565 0 49.938-40.627 90.566-90.566 90.566zm161.267-189.132c0 37.692-22.938 69.878-55.754 83.617-5.723-40.594-34.441-74.607-74.143-86.909 15.697-23.923 21.616-54.292 14.417-83.788 57.661-16.596 115.48 26.986 115.48 87.08z"/></svg>