<svg id="Capa_1" enable-background="new 0 0 511.595 511.595" height="512" viewBox="0 0 511.595 511.595" width="512" xmlns="http://www.w3.org/2000/svg"><g><path d="m402.987 228.682h-70.703c-8.099-51.939-53.134-91.811-107.309-91.811h-35.674c-27.646 0-53.985 10.395-74.166 29.269-18.713 17.502-30.519 40.751-33.617 65.962-46.822 12.065-81.518 54.651-81.518 105.189 0 59.887 48.722 108.609 108.609 108.609h35.674c18.23 0 35.421-4.521 50.523-12.492 15.526 8.178 32.922 12.492 50.586 12.492h157.595c59.887 0 108.608-48.722 108.608-108.609s-48.721-108.609-108.608-108.609zm-93.987 108.609c0 35.074-28.535 63.609-63.609 63.609-4.145 0-8.244-.413-12.268-1.206 3.598-5.108 6.766-10.539 9.453-16.24.888.282 1.833.436 2.814.436 5.135 0 9.298-4.163 9.298-9.298 0-2.912-2.988-6.404-5.577-8.886 1.326-4.888 2.322-9.91 2.955-15.043 7.985-2.051 15.581-4.987 22.703-8.677 2.373 2.309 5.371 4.603 7.921 4.603 5.135 0 9.298-4.163 9.298-9.298 0-1.922-.584-3.708-1.583-5.19 5.633-4.275 10.837-9.066 15.521-14.32 2.026 6.278 3.074 12.874 3.074 19.51zm-181.022-108.609c7.45-27.207 32.448-46.81 61.324-46.81 35.074 0 63.609 28.535 63.609 63.608 0 14.27-4.878 28.112-13.614 39.249-18.547-33.395-54.182-56.047-95.014-56.047zm349.702 52.253c5.203 6.879 9.478 14.496 12.639 22.663-9.494-1.544-19.217-.892-28.444 1.954-8.851 2.729-18.62 2.78-27.508.144l-8.078-2.397c-11.223-3.329-23.13-3.442-34.433-.325l-12.744 3.515c-7.997 2.205-16.48 2.278-24.531.21l-5.421-1.393c-2.615-8.482-6.271-16.624-10.882-24.243l12.57 3.229c5.114 1.314 10.361 1.97 15.606 1.97 5.606 0 11.21-.75 16.645-2.249l12.744-3.514c8.473-2.336 17.77-2.249 26.178.245l8.079 2.397c11.695 3.469 24.549 3.402 36.196-.19 3.683-1.136 7.499-1.808 11.384-2.016zm-124.827 40.77c4.477.994 9.041 1.492 13.603 1.492 5.606 0 11.21-.75 16.644-2.249l12.744-3.515c8.473-2.335 17.77-2.249 26.178.245l8.079 2.397c11.695 3.469 24.55 3.401 36.195-.19 8.37-2.582 17.664-2.766 26.168-.519l2.53.668c1.047 5.595 1.6 11.361 1.6 17.255 0 5.961-.567 11.791-1.637 17.445-10.939-2.637-22.346-2.295-33.083 1.016-8.849 2.73-18.618 2.781-27.508.143l-8.078-2.396c-11.224-3.329-23.129-3.442-34.432-.325l-12.745 3.514c-7.999 2.206-16.482 2.278-24.531.21l-2.252-.579c1.097-6.18 1.671-12.539 1.671-19.029.001-5.238-.399-10.444-1.146-15.583zm50.134-78.023c23.986 0 45.89 9.072 62.471 23.96-1.202.293-2.399.611-3.583.976-8.851 2.729-18.62 2.78-27.508.144l-8.078-2.397c-11.224-3.329-23.129-3.442-34.432-.325l-12.745 3.514c-7.999 2.207-16.482 2.278-24.531.21l-22.596-5.805c1.046-6.027 1.599-12.201 1.599-18.479 0-.601-.013-1.199-.023-1.798zm-213.685-91.811c40.732 0 76.526 26.018 89.067 64.742 1.276 3.94 5.504 6.1 9.446 4.824 3.94-1.276 6.1-5.505 4.824-9.446-7.719-23.835-23.031-43.519-42.761-56.751 39.566 10.932 68.706 47.244 68.706 90.24 0 41.168-27.132 77.333-65.724 89.365-.009-.426-.025-.85-.04-1.275 28.039-20.238 44.813-52.53 45.077-87.249.031-4.142-3.301-7.525-7.443-7.557-4.119-.05-7.525 3.301-7.557 7.443-.206 27.019-12.015 52.334-32.099 69.838-1.12-5.626-2.674-11.098-4.63-16.377 13.865-14.566 21.741-34.027 21.741-54.188 0-43.345-35.264-78.608-78.609-78.608-37.072 0-68.965 26.146-76.756 61.81h-3.937c-3.885 0-7.723.209-11.504.609 7.726-44.105 46.52-77.42 92.199-77.42zm-174.302 185.42c0-51.616 41.993-93.609 93.609-93.609s93.609 41.993 93.609 93.609-41.993 93.609-93.609 93.609-93.609-41.993-93.609-93.609zm202.218 0c0-37.625-19.234-70.838-48.382-90.335 39.744 10.814 69.056 47.213 69.056 90.335s-29.312 79.521-69.056 90.335c29.148-19.497 48.382-52.711 48.382-90.335zm5.353 75.199c7.389 2.251 15.04 3.409 22.821 3.409 43.345 0 78.609-35.264 78.609-78.609 0-11.578-2.587-23.062-7.503-33.487 3.22-5.043 6.027-10.36 8.39-15.898 9.156 14.744 14.112 31.855 14.112 49.386 0 51.616-41.993 93.609-93.609 93.609-12.266 0-24.379-2.409-35.618-7.027 4.56-3.457 8.84-7.264 12.798-11.383zm77.835 18.41c12.111-7.145 22.721-16.571 31.236-27.686l19.207 5.147c5.115 1.314 10.362 1.97 15.607 1.97 5.606 0 11.211-.75 16.645-2.249l12.743-3.515c3.096-.854 6.323-1.392 9.592-1.6 4.134-.263 7.272-3.827 7.009-7.961s-3.823-7.274-7.961-7.009c-4.294.273-8.542.983-12.627 2.109l-12.743 3.515c-7.999 2.206-16.48 2.278-24.457.23l-14.34-3.843c3.373-6.05 6.184-12.454 8.364-19.141l2.168.557c5.114 1.314 10.361 1.97 15.606 1.97 5.606 0 11.21-.75 16.645-2.249l12.744-3.514c8.473-2.335 17.77-2.249 26.178.246l8.078 2.396c11.695 3.469 24.55 3.401 36.196-.19 7.889-2.433 16.597-2.735 24.694-.88-2.688 7.388-6.282 14.344-10.646 20.736-6.304-.006-12.505.907-18.469 2.746-7.532 2.323-15.647 2.716-23.469 1.138-4.063-.82-8.016 1.808-8.835 5.868-.82 4.061 1.808 8.016 5.868 8.835 4.122.832 8.307 1.246 12.482 1.246 5.751 0 11.481-.796 16.999-2.357-16.516 14.604-38.206 23.482-61.934 23.482h-102.58z"/><path d="m266.326 354.824c-1.826.111-3.291 1.575-3.401 3.402-.223 3.673-.155 9.593 2.268 12.016 3.631 3.631 9.518 3.631 13.15 0 3.631-3.631 3.631-9.519 0-13.15-2.423-2.423-8.343-2.491-12.017-2.268z"/><path d="m187.218 337.291c0-43.345-35.264-78.608-78.609-78.608-9.633 0-19.078 1.749-28.071 5.199-3.867 1.483-5.8 5.821-4.316 9.688 1.483 3.867 5.82 5.798 9.688 4.316 7.272-2.789 14.909-4.204 22.699-4.204 35.074 0 63.609 28.535 63.609 63.608 0 35.074-28.535 63.609-63.609 63.609s-63.609-28.534-63.609-63.608c0-16.146 6.099-31.559 17.174-43.4 2.83-3.025 2.671-7.771-.354-10.601-3.024-2.83-7.771-2.67-10.601.354-13.683 14.63-21.219 33.682-21.219 53.647 0 43.345 35.264 78.609 78.609 78.609s78.609-35.264 78.609-78.609z"/><path d="m106.204 310.09c1.37 1.213 3.441 1.213 4.81 0 2.755-2.44 6.893-6.674 6.893-10.1 0-5.135-4.163-9.298-9.298-9.298s-9.298 4.163-9.298 9.298c0 3.426 4.138 7.66 6.893 10.1z"/><path d="m128.41 304.34c-2.422 2.422-2.491 8.343-2.268 12.016.111 1.826 1.575 3.291 3.401 3.401 3.673.223 9.593.155 12.016-2.268 3.631-3.631 3.631-9.518 0-13.15-3.631-3.63-9.518-3.63-13.149.001z"/><path d="m135.81 334.886c-1.213 1.37-1.213 3.441 0 4.81 2.44 2.755 6.674 6.893 10.1 6.893 5.135 0 9.298-4.163 9.298-9.298s-4.163-9.298-9.298-9.298c-3.426 0-7.66 4.137-10.1 6.893z"/><path d="m128.41 370.241c3.631 3.631 9.518 3.631 13.15 0 3.631-3.631 3.631-9.519 0-13.15-2.422-2.422-8.343-2.49-12.016-2.268-1.826.111-3.291 1.575-3.401 3.402-.224 3.674-.155 9.594 2.267 12.016z"/><path d="m108.609 383.89c5.135 0 9.298-4.163 9.298-9.298 0-3.426-4.138-7.66-6.893-10.1-1.37-1.213-3.441-1.213-4.81 0-2.755 2.44-6.893 6.674-6.893 10.1 0 5.135 4.163 9.298 9.298 9.298z"/><path d="m87.674 354.824c-3.673-.223-9.593-.155-12.016 2.268-3.631 3.631-3.631 9.518 0 13.15 3.631 3.631 9.518 3.631 13.15 0 2.422-2.422 2.491-8.343 2.268-12.016-.111-1.826-1.576-3.291-3.402-3.402z"/><path d="m71.308 346.589c3.426 0 7.66-4.138 10.1-6.893 1.213-1.37 1.213-3.441 0-4.81-2.44-2.755-6.674-6.893-10.1-6.893-5.135 0-9.298 4.163-9.298 9.298s4.163 9.298 9.298 9.298z"/><path d="m87.674 319.757c1.826-.111 3.291-1.575 3.401-3.401.223-3.673.155-9.593-2.268-12.016-3.631-3.631-9.518-3.631-13.15 0-3.631 3.631-3.631 9.519 0 13.15 2.424 2.422 8.344 2.49 12.017 2.267z"/><path d="m189.302 198.881c-5.135 0-9.298 4.163-9.298 9.298 0 3.426 4.138 7.66 6.893 10.1 1.37 1.213 3.441 1.213 4.81 0 2.755-2.44 6.893-6.674 6.893-10.1 0-5.135-4.163-9.298-9.298-9.298z"/><path d="m222.252 212.53c-3.631-3.631-9.518-3.631-13.15 0-2.422 2.422-2.491 8.343-2.268 12.016.111 1.826 1.575 3.291 3.401 3.401 3.673.223 9.593.155 12.016-2.267 3.632-3.632 3.632-9.519.001-13.15z"/><path d="m235.901 245.48c0-5.135-4.163-9.298-9.298-9.298-3.426 0-7.66 4.138-10.1 6.893-1.213 1.37-1.213 3.441 0 4.81 2.44 2.755 6.674 6.893 10.1 6.893 5.135 0 9.298-4.163 9.298-9.298z"/><path d="m156.351 212.53c-3.631 3.631-3.631 9.518 0 13.15 2.422 2.422 8.343 2.49 12.016 2.267 1.826-.111 3.291-1.575 3.401-3.401.223-3.673.155-9.593-2.268-12.016-3.63-3.631-9.518-3.631-13.149 0z"/><path d="m140.174 106.693c1.784 1.664 7.11 6.633 26.764 6.633.56 0 1.132-.004 1.716-.013 3.414-.049 6.708-1.509 9.037-4.007 2.33-2.498 3.558-5.885 3.37-9.292-1.162-21.03-6.746-26.24-8.581-27.952-4.625-4.315-10.648-6.577-16.975-6.351-6.321.22-12.179 2.888-16.493 7.513-4.315 4.625-6.57 10.654-6.351 16.975.22 6.322 2.888 12.179 7.513 16.494zm9.806-23.237c1.582-1.695 3.729-2.673 6.046-2.754.104-.003.206-.005.309-.005 2.204 0 4.294.822 5.914 2.333.725.687 2.827 4.922 3.665 15.29-10.4-.118-14.772-1.921-15.507-2.595-3.501-3.265-3.692-8.769-.427-12.269z"/><path d="m209.951 113.314c.585.008 1.155.013 1.716.013 19.649 0 24.979-4.97 26.763-6.634 4.625-4.314 7.293-10.172 7.513-16.493.22-6.322-2.036-12.351-6.351-16.976-4.314-4.625-10.172-7.293-16.494-7.513-6.315-.214-12.35 2.036-16.975 6.351-1.834 1.711-7.417 6.919-8.581 27.952-.188 3.408 1.04 6.795 3.37 9.293 2.33 2.497 5.624 3.958 9.039 4.007zm6.404-30.284c3.499-3.264 9.003-3.073 12.269.426 1.581 1.695 2.408 3.905 2.327 6.222-.08 2.317-1.058 4.464-2.753 6.046-.735.675-5.105 2.479-15.507 2.596.838-10.368 2.94-14.603 3.664-15.29z"/></g></svg>