<svg height="511pt" viewBox="0 0 511.99991 511" width="511pt" xmlns="http://www.w3.org/2000/svg"><path d="m508.613281 393.898438c-3.339843-15.726563-3.523437-18.777344-3.4375-32.429688.082031-12.292969.03125-23.203125-4.28125-34.761719-1.449219-3.878906-5.769531-5.851562-9.652343-4.402343-3.878907 1.449218-5.847657 5.769531-4.398438 9.652343 3.457031 9.25 3.402344 18.992188 3.335938 29.414063-.097657 14.691406.183593 18.78125 3.757812 35.640625 4.910156 23.140625 5.167969 29.273437-8.832031 54.226562-11.09375 19.777344-15.546875 35.089844-27.621094 42.058594-12.078125 6.976563-27.585937 3.171875-50.234375 2.890625-28.226562-.351562-33.539062-3.414062-51.378906-19.464844-12.785156-11.503906-16.1875-13.800781-28.980469-21.074218-20.84375-11.851563-23.9375-15.578126-34.5-34.320313-9.042969-16.046875-11.964844-19.75-23.816406-31.753906-15.828125-16.023438-18.265625-20.390625-24.15625-41.84375-4.457031-16.222657-6.199219-20.613281-15.589844-36.5-10.855469-18.355469-12.632813-22.898438-12.476563-47.039063.097657-14.664062-.175781-18.75-3.757812-35.636718-1.894531-8.925782-3.683594-17.351563-2.859375-24.78125 1.582031-14.277344 10.410156-26.183594 16.902344-39.101563 27.292969 11.722656 58.15625-5.921875 61.679687-35.609375 14.4375.835938 29.15625-.855469 42.3125 4.914062 11.171875 4.902344 21.140625 17.148438 34.023438 26.625 11.71875 8.625 26.457031 14.074219 36.339844 24.148438 9.050781 9.230469 14.429687 24.105469 23.933593 36.785156 8.996094 12.007813 21.816407 21.191406 28.78125 33.253906 7.890625 13.671876 8.117188 29.511719 16.96875 47.023438 1.871094 3.695312 6.382813 5.179688 10.078125 3.308594 3.695313-1.867188 5.179688-6.378906 3.308594-10.078125-8.054688-15.9375-8.148438-31.785157-17.367188-47.753907-8.320312-14.414062-21.394531-23.574218-29.765624-34.75-8.832032-11.785156-14.304688-27.15625-25.230469-38.292968-11.90625-12.140625-27.132813-17.609375-38.15625-25.722656-12.386719-9.117188-22.804688-22.105469-36.890625-28.285157-16.335938-7.167969-33.226563-5.359375-46.8125-6.113281-7.320313-.40625-14.941406-1.167969-22.460938-1.046875-11.144531-20.230469-12.5625-41.167969-24.457031-57.351563-12.246094-16.664062-28.320313-22.964843-48.730469-36.675781-13.527344-9.085937-27.023437-18.113281-43.386718-18.535156-17.371094-.4492188-31.402344 8.875-45.78125 18.535156-20.414063 13.710938-36.488282 20.007813-48.734376 36.671875-6.632812 9.023438-10.25 20.144532-13.75 30.902344-5.753906 17.683594-7.347656 20.882812-15.335937 34.515625-15.476563 26.40625-17.132813 34.738281-16.847656 62.378906.207031 19.804688-.417969 23.78125-4.941407 41.101563-7.1875 27.511718-7.246093 36.019531 0 63.753906 4.519532 17.304688 5.148438 21.28125 4.941407 41.101562-.285157 27.601563 1.351562 35.941407 16.847656 62.375 5.933594 10.128907 8.382813 14.460938 11.984375 24.554688 1.390625 3.902344 5.683594 5.933594 9.582031 4.542969 3.902344-1.390625 5.9375-5.679688 4.546875-9.582031-8.648437-24.242188-21.261718-35.917969-26.035156-54.457032-3.757812-14.582031-.554688-32.578125-2.714844-50.578125-2.054687-17.117187-9.558594-33.566406-9.558594-49.835937 0-16.292969 7.496094-32.664063 9.558594-49.832032 2.167969-18.050781-1.054687-35.949218 2.714844-50.582031 4.105469-15.949219 15.679688-29.84375 22.378906-45.148437 7.402344-16.898438 10.222656-34.777344 18.714844-46.328125 10.09375-13.738281 25.820312-20.324219 41.378906-30.671875 18.671875 28.816406 61.0625 28.769531 79.703125 0 15.550781 10.34375 31.28125 16.933594 41.378907 30.675781 9.160156 12.460937 11.859374 32.78125 20.671874 50.507813-21.839843 6.074218-29.128906 24.734374-38.566406 43.40625-6.136718 12.136718-16.152344 25.863281-18.113281 43.597656-1.691406 15.285156 4.347656 30.8125 6.046875 46.089844 1.507812 13.523437-1.332031 29.621093 3.199219 45.910156 1.988281 7.140625 5.441406 13.726562 9.101562 20.070312-.367187 30.765625 1.695313 33.339844-8.132812 62.265625-4.515625 13.285157-5.609375 17.066407-8.898438 34.5-1.792969 9.503907-3.488281 18.480469-6.359375 25.21875-1.625 3.8125.148438 8.21875 3.957032 9.839844 3.824218 1.632813 8.222656-.160156 9.839843-3.957031 5.535157-12.984375 6.988281-30.085938 10.910157-45.523438 4.109374-16.171875 11.871093-30.332031 13.328124-52.363281 6.804688 22.625 7.160157 32.027344 25.140626 50.875-10.34375 19.535156-12.53125 40.289063-22.125 53.339844-7.484376 10.1875-18.386719 16.660156-28.925782 22.921875-22.527344 13.378906-35.835937 26.183594-52.304687 26.183594-16.480469 0-29.886719-12.867188-52.304688-26.183594-12.789062-7.59375-25.117187-15.023438-32.191406-28.167969-1.960937-3.648437-6.507813-5.011719-10.15625-3.050781-3.648437 1.964844-5.015625 6.511718-3.050781 10.160156 8.640625 16.054688 22.289062 24.777344 37.738281 33.957031 22.445313 13.332031 38.082031 28.289063 59.964844 28.289063 21.902343 0 37.527343-14.964844 59.964843-28.289063 11.277344-6.699219 24.058594-14.292969 33.351563-26.933593 10.753906-14.632813 13.550781-34.648438 21.105469-50.832032 13.828125 14.898438 18.105468 31.925782 30.804687 44.875 7.441407 7.585938 16.183594 12.558594 24.640625 17.367188 11.863282 6.746094 14.410156 8.429687 26.367188 19.1875 20.234375 18.207031 28.746094 22.910156 61.222656 23.3125 22.894531.289062 41.15625 4.785156 57.921875-4.894532 14.890625-8.597656 21.28125-24.757812 28.605469-39.25 6.121094-12.109374 16.152344-25.863281 18.113281-43.597656 1.089844-9.832031-1.035156-19.851562-3.089844-29.542968zm-386.34375-368.238282c21.503907-13.539062 33.160157-13.546875 54.671875 0-12.773437 19.851563-41.929687 19.808594-54.671875 0zm111.085938 125.566406c9.976562-18.890624 18.40625-23.878906 39.953125-23.070312-2.777344 18.851562-22.242188 30.089844-39.953125 23.070312zm0 0"/><path d="m131.449219 205.945312c.097656-4.140624-3.183594-7.578124-7.324219-7.671874-4.148438-.113282-7.578125 3.183593-7.671875 7.324218-.386719 16.613282-1.863281 33.042969-1.863281 50.898438 0 17.855468 1.480468 34.457031 1.863281 50.90625.402344 17.238281-.238281 35.605468.566406 51.757812.886719 17.757813 3.164063 31.621094 4.429688 46.539063.347656 4.113281 3.960937 7.1875 8.105469 6.839843 4.128906-.347656 7.191406-3.976562 6.839843-8.105468-2.199219-25.941406-4.890625-30.484375-4.800781-74.855469.105469-54.09375-3.628906-50.984375-1.015625-102.683594.351563-6.875.707031-13.984375.871094-20.949219zm0 0"/><path d="m68.324219 227.488281c-1.410157 9.304688-2.867188 18.925781-2.867188 29.007813 0 4.144531 3.355469 7.5 7.5 7.5 4.140625 0 7.5-3.355469 7.5-7.5 0-8.953125 1.371094-18.007813 2.695313-26.761719 2.585937-17.058594 3-21.75 2.882812-41.238281-.140625-23.644532.445313-29.339844 8.132813-51.960938 4.535156-13.339844 5.617187-17.101562 8.898437-34.496094 1.792969-9.503906 3.488282-18.484374 6.359375-25.222656 1.625-3.8125-.148437-8.214844-3.957031-9.839844-3.808594-1.621093-8.214844.148438-9.839844 3.957032-3.511718 8.238281-5.351562 17.996094-7.300781 28.324218-3.152344 16.699219-4.0625 19.800782-8.363281 32.449219-8.253906 24.296875-9.082032 31.640625-8.929688 56.878907.113282 18.652343-.238281 22.558593-2.710937 38.902343zm0 0"/><path d="m349.484375 202.125c2.664063-3.171875 2.253906-7.902344-.914063-10.566406-30.960937-26.035156-58.777343-34.226563-78.351562-23.089844-22.496094 12.574219-24.304688 45.402344-20.902344 71.191406 12.625 95.652344 104.667969 222.234375 168.035156 222.230469 7.488282 0 14.085938-1.878906 19.359376-5.023437 49.839843-29.1875 8.726562-160.246094-62.386719-240.054688-2.753907-3.09375-7.496094-3.367188-10.589844-.609375-3.089844 2.753906-3.363281 7.496094-.609375 10.585937 50.691406 56.890626 89.03125 146.722657 78.933594 195.542969-14.421875-65.199219-91.273438-197.207031-139.183594-241.144531 10.761719 3.578125 23.113281 10.980469 36.042969 21.851562 3.167969 2.664063 7.898437 2.253907 10.566406-.914062zm-85.296875 35.570312c-1.78125-13.480468-1.640625-25.152343.285156-34.464843 14.394532 65.078125 91.269532 197.277343 139.269532 241.222656-53.316407-17.648437-128.3125-121.550781-139.554688-206.757813zm48.375-24.09375c38.78125 46.765626 85.09375 126.949219 106.246094 184.019532 11.070312 29.871094 11.167968 42.691406 10.050781 46.09375-3.503906-.734375-14.558594-7.234375-34.890625-31.753906-38.78125-46.769532-85.09375-126.949219-106.242188-184.023438-11.070312-29.867188-11.171874-42.6875-10.054687-46.089844 3.503906.734375 14.558594 7.230469 34.890625 31.753906zm0 0"/></svg>