<?xml version="1.0" encoding="iso-8859-1"?>
<!-- Generator: Adobe Illustrator 19.0.0, SVG Export Plug-In . SVG Version: 6.00 Build 0)  -->
<svg version="1.1" id="Capa_1" xmlns="http://www.w3.org/2000/svg" xmlns:xlink="http://www.w3.org/1999/xlink" x="0px" y="0px"
	 viewBox="0 0 512.002 512.002" style="enable-background:new 0 0 512.002 512.002;" xml:space="preserve">
<g>
	<g>
		<path d="M348.126,437.999h-0.125c-5.523,0-10,4.478-10,10c0,5.522,4.477,10,10,10h0.125c5.523,0,10-4.478,10-10
			C358.126,442.477,353.649,437.999,348.126,437.999z"/>
	</g>
</g>
<g>
	<g>
		<path d="M416.713,181.196C397.207,151.202,372.162,134,348,134s-49.208,17.202-68.713,47.196
			C258.133,213.723,246,256.779,246,299.323c0,36.949,9.216,67.767,26.651,89.121C290.575,410.396,316.63,422,348,422
			s57.425-11.604,75.349-33.556C440.785,367.09,450,336.272,450,299.323C450,256.779,437.867,213.723,416.713,181.196z M348,402
			c-52.112,0-82-37.424-82-102.677c0-38.774,10.954-77.855,30.053-107.223c15.515-23.857,34.934-38.101,51.947-38.101
			s36.432,14.243,51.947,38.101C419.046,221.467,430,260.548,430,299.323C430,364.576,400.112,402,348,402z"/>
	</g>
</g>
<g>
	<g>
		<path d="M506.658,277.137c-3.893-2.049-8.668-1.313-11.764,1.814l-9.144,9.237c-0.095-2.212-0.214-4.423-0.365-6.634
			c5.348-11.152,16.979-35.821,21.006-63.293c5.059-34.519-3.12-62.879-24.31-84.295c-2.879-2.91-7.242-3.772-11.011-2.174
			c-3.77,1.598-6.184,5.331-6.095,9.424c0.414,19.089-2.35,33.005-5.494,42.532c-0.494-1-0.994-1.994-1.5-2.982
			c-0.832-69.597-40.435-129.375-42.138-131.912c-2.453-3.652-7.006-5.273-11.216-3.991c-4.209,1.282-7.086,5.166-7.086,9.566
			v57.637c-0.569-0.335-1.139-0.663-1.71-0.987c-6.411-10.471-33.493-56.982-37.878-102.049c-0.515-5.288-5.086-9.215-10.383-9.022
			c-5.309,0.23-9.511,4.57-9.569,9.882c-0.482,44.181-30.836,91.149-37.582,101.046c-0.655,0.369-1.308,0.747-1.96,1.131V54.429
			c0-4.4-2.876-8.284-7.086-9.566c-4.21-1.281-8.763,0.339-11.216,3.991c-0.72,1.072-8.211,12.373-16.684,30.314
			c-2.106-1.523-4.251-2.985-6.442-4.374c2.344-9.894,4.635-30.268-7.008-54.174c-1.667-3.422-5.132-5.602-8.938-5.621
			c-0.018,0-0.035,0-0.053,0c-3.786,0-7.25,2.139-8.944,5.528c-12.385,24.769-43.937,31.916-49.095,32.931
			c-5.139-0.987-36.594-7.974-49.073-32.931c-1.703-3.405-5.174-5.534-8.997-5.528c-3.806,0.02-7.271,2.199-8.938,5.621
			c-11.312,23.226-9.471,43.109-7.207,53.295c-0.694,0.426-1.396,0.84-2.08,1.279c-22.801,14.629-40.083,35.693-51.366,62.607
			c-0.092,0.219-0.582,1.374-0.72,1.751c-9.883,26.938-31.815,72.386-48.592,79.665c-3.852,1.671-6.249,5.569-6.003,9.761
			c0.247,4.19,3.084,7.781,7.105,8.99c3.997,1.201,8.142,1.8,12.436,1.8c6.953,0,14.292-1.586,21.985-4.722
			c0.44,6.376,1.096,12.762,1.981,19.1c1.535,10.999,3.752,21.993,6.589,32.674c0.036,0.135,0.082,0.263,0.123,0.395
			c-0.13,40.794-6.562,109.638-23.531,124.724c-3.488,3.1-4.368,8.2-2.121,12.29c1.791,3.258,5.188,5.185,8.764,5.185
			c0.912,0,1.836-0.125,2.748-0.386c22.109-6.317,38.791-30.576,53.864-58.67c15.985,20.792,34.62,36.001,54.611,44.507
			c3.85,14.358,9.08,25.604,13.865,35.864c7.373,15.812,13.741,29.466,13.741,51.271c0,5.522,4.477,10,10,10c5.523,0,10-4.478,10-10
			c0-21.804,6.368-35.459,13.741-51.27c5.339-11.45,11.392-24.428,15.287-41.545c1.226-5.385-2.146-10.744-7.532-11.97
			c-5.386-1.228-10.744,2.146-11.969,7.532c-3.422,15.035-8.754,26.471-13.912,37.529c-1.896,4.067-3.81,8.17-5.615,12.437
			c-1.805-4.267-3.718-8.369-5.615-12.437c-6.459-13.852-13.139-28.175-16.109-49.615c-2.226-16.071-1.074-32.909,3.425-50.046
			c1.402-5.342-1.791-10.809-7.133-12.211c-5.343-1.403-10.809,1.79-12.212,7.133c-4.679,17.82-6.185,35.45-4.515,52.493
			c-14.476-8.928-27.997-22.37-39.808-39.612c1.362-2.729,2.718-5.462,4.071-8.189c9.636-19.433,19.6-39.527,29.954-53.608
			c3.271-4.449,2.317-10.709-2.133-13.98c-4.449-3.271-10.708-2.316-13.98,2.133c-11.385,15.484-21.743,36.371-31.759,56.57
			c-7.847,15.826-16.197,32.663-25.05,46.566c2.211-10.188,4.041-21.87,5.504-35.091c3.383-30.573,3.422-57.725,3.422-58.865
			c0-1.212-0.723-3.991-0.796-4.266c-2.631-9.905-4.687-20.102-6.111-30.306c-1.255-8.996-2.03-18.092-2.314-27.099
			c4.331-2.975,8.749-6.354,13.263-10.184c17.684-15.006,30.365-31.24,30.896-31.924c3.387-4.359,2.599-10.637-1.759-14.026
			c-4.358-3.39-10.64-2.604-14.031,1.752c-8.107,10.412-29.282,33.308-49.982,44.057c5.423-7.63,10.948-16.982,16.617-28.111
			c10.283-20.188,17.083-38.63,17.367-39.405c0.045-0.124,0.31-0.719,0.389-0.907C92.836,100.073,132.345,74,182.176,74
			c27.961,0,53.15,8.322,73.143,24.082c-8.937,22.87-16.933,51.81-17.302,82.686c-0.519,1.012-1.031,2.03-1.536,3.054
			c-3.126-9.483-5.875-23.396-5.458-42.605c0.09-4.148-2.392-7.922-6.236-9.482s-8.254-0.585-11.082,2.453
			c-15.378,16.523-24.125,43.143-23.998,73.033c0.118,27.722,7.769,53.596,21.098,71.775c-0.255,3.267-0.45,6.538-0.583,9.809
			l-10.251-9.972c-3.139-3.054-7.902-3.71-11.751-1.616c-3.848,2.094-5.886,6.448-5.027,10.744
			c0.94,4.702,23.743,115.18,92.897,150.498c6.397,3.929,13.205,7.336,20.429,10.161c5.142,2.013,10.944-0.527,12.954-5.673
			c2.011-5.144-0.529-10.943-5.673-12.954c-46.9-18.336-73.799-65.963-73.799-130.67c0-45.56,13.075-91.794,35.874-126.85
			c13.3-20.452,28.745-35.542,45.271-44.591c0.531-0.228,1.044-0.503,1.533-0.825c11.394-5.957,23.281-9.058,35.322-9.058
			c12.05,0,23.946,3.105,35.348,9.072c0.463,0.301,0.947,0.56,1.448,0.779c16.548,9.045,32.014,24.147,45.33,44.623
			c22.799,35.056,35.874,81.29,35.874,126.85c0,66.345-28.027,114.394-76.896,131.824c-5.202,1.855-7.915,7.577-6.059,12.778
			c1.459,4.092,5.311,6.644,9.419,6.644c1.115,0,2.249-0.188,3.359-0.584c8.292-2.958,16.152-6.727,23.52-11.232
			c69.645-35.023,91.579-146.173,92.479-150.892C512.649,283.539,510.552,279.186,506.658,277.137z M127.441,64.452
			c-0.522-4.605-0.619-10.741,0.747-17.892c4.815,4.988,10.125,9.079,15.462,12.44C138.095,60.493,132.681,62.308,127.441,64.452z
			 M238.546,65.088c-5.365-2.286-10.911-4.229-16.619-5.816c5.495-3.418,10.974-7.606,15.927-12.744
			C239.317,54.056,239.145,60.427,238.546,65.088z M215.678,244.849c-7.279-21.641-7.946-47.815-1.946-69.154
			c3.206,16.525,8.536,27.1,12.226,32.856C221.715,220.245,218.268,232.417,215.678,244.849z M278.459,126.785
			c-5.544,4.95-10.896,10.502-16.018,16.649c3.969-18.364,10.062-35.094,16.018-48.671V126.785z M348.001,97.999
			c-5.813,0-11.578,0.555-17.268,1.647c6.128-11.181,12.953-25.373,18.244-41.04c5.468,15.86,12.027,30.166,17.74,41.345
			C360.556,98.667,354.308,97.999,348.001,97.999z M417.541,126.784V94.763c5.957,13.577,12.049,30.307,16.018,48.67
			C428.438,137.286,423.085,131.734,417.541,126.784z M470.042,208.549c3.995-6.229,9.909-18.098,12.973-37.056
			c8.959,23.641,3.975,50.292-3.121,71.345C477.355,231.105,474.057,219.612,470.042,208.549z"/>
	</g>
</g>
<g>
	<g>
		<path d="M353.961,171.929c-1.87-1.86-4.44-2.93-7.07-2.93s-5.21,1.069-7.07,2.93c-1.87,1.86-2.93,4.44-2.93,7.07
			s1.06,5.21,2.93,7.069c1.86,1.861,4.44,2.931,7.07,2.931s5.21-1.07,7.07-2.931c1.86-1.859,2.93-4.439,2.93-7.069
			S355.821,173.789,353.961,171.929z"/>
	</g>
</g>
<g>
	<g>
		<path d="M323.421,209.25c-1.87-1.861-4.44-2.931-7.07-2.931s-5.21,1.07-7.07,2.931c-1.86,1.859-2.93,4.439-2.93,7.069
			c0,2.631,1.07,5.211,2.93,7.07c1.86,1.86,4.43,2.93,7.07,2.93c2.63,0,5.21-1.069,7.07-2.93c1.86-1.859,2.93-4.439,2.93-7.07
			C326.351,213.689,325.281,211.109,323.421,209.25z"/>
	</g>
</g>
<g>
	<g>
		<path d="M323.421,273.519c-1.86-1.859-4.44-2.93-7.07-2.93c-2.64,0-5.21,1.07-7.07,2.93c-1.87,1.86-2.93,4.44-2.93,7.07
			s1.06,5.21,2.93,7.07c1.86,1.87,4.43,2.93,7.07,2.93c2.63,0,5.2-1.06,7.07-2.93c1.86-1.86,2.93-4.44,2.93-7.07
			S325.281,275.379,323.421,273.519z"/>
	</g>
</g>
<g>
	<g>
		<path d="M384.561,209.25c-1.87-1.86-4.45-2.931-7.08-2.931c-2.63,0-5.2,1.07-7.07,2.931c-1.86,1.859-2.92,4.439-2.92,7.069
			c0,2.631,1.06,5.211,2.92,7.07c1.87,1.86,4.44,2.93,7.07,2.93c2.64,0,5.21-1.069,7.08-2.93c1.86-1.859,2.92-4.439,2.92-7.07
			C387.481,213.689,386.421,211.109,384.561,209.25z"/>
	</g>
</g>
<g>
	<g>
		<path d="M384.561,273.519c-1.86-1.859-4.44-2.93-7.07-2.93c-2.64,0-5.21,1.07-7.08,2.93c-1.86,1.86-2.92,4.44-2.92,7.07
			s1.06,5.21,2.92,7.07c1.87,1.871,4.45,2.93,7.08,2.93s5.2-1.06,7.07-2.93c1.86-1.86,2.93-4.44,2.93-7.07
			S386.421,275.379,384.561,273.519z"/>
	</g>
</g>
<g>
	<g>
		<path d="M323.421,342.979c-1.86-1.87-4.44-2.93-7.07-2.93c-2.64,0-5.21,1.06-7.08,2.93c-1.86,1.86-2.92,4.44-2.92,7.07
			s1.06,5.2,2.92,7.07c1.87,1.859,4.45,2.93,7.08,2.93s5.2-1.07,7.07-2.93c1.86-1.86,2.93-4.44,2.93-7.07
			C326.351,347.409,325.281,344.839,323.421,342.979z"/>
	</g>
</g>
<g>
	<g>
		<path d="M384.561,342.979c-1.87-1.87-4.44-2.93-7.07-2.93c-2.64,0-5.21,1.06-7.08,2.93c-1.86,1.86-2.93,4.431-2.93,7.07
			c0,2.63,1.07,5.21,2.93,7.07c1.87,1.86,4.45,2.93,7.08,2.93s5.2-1.07,7.07-2.93c1.86-1.87,2.92-4.44,2.92-7.07
			S386.421,344.839,384.561,342.979z"/>
	</g>
</g>
<g>
	<g>
		<path d="M410.071,240.349c-1.86-1.859-4.44-2.93-7.07-2.93s-5.21,1.07-7.07,2.93c-1.86,1.86-2.93,4.44-2.93,7.07
			s1.07,5.21,2.93,7.07c1.86,1.86,4.44,2.93,7.07,2.93s5.21-1.07,7.07-2.93s2.93-4.44,2.93-7.07S411.931,242.209,410.071,240.349z"
			/>
	</g>
</g>
<g>
	<g>
		<path d="M300.071,240.349c-1.86-1.859-4.44-2.93-7.07-2.93s-5.21,1.07-7.07,2.93c-1.86,1.86-2.93,4.44-2.93,7.07
			s1.07,5.21,2.93,7.07c1.86,1.859,4.44,2.93,7.07,2.93s5.21-1.07,7.07-2.93s2.93-4.44,2.93-7.07S301.931,242.209,300.071,240.349z"
			/>
	</g>
</g>
<g>
	<g>
		<path d="M354.341,240.349c-1.86-1.859-4.44-2.93-7.07-2.93s-5.21,1.07-7.07,2.93s-2.93,4.44-2.93,7.07s1.07,5.21,2.93,7.07
			c1.86,1.859,4.44,2.93,7.07,2.93s5.21-1.07,7.07-2.93c1.86-1.86,2.93-4.44,2.93-7.07S356.201,242.209,354.341,240.349z"/>
	</g>
</g>
<g>
	<g>
		<path d="M410.071,309.109c-1.86-1.859-4.44-2.93-7.07-2.93s-5.21,1.07-7.07,2.93c-1.86,1.87-2.93,4.44-2.93,7.07
			s1.07,5.21,2.93,7.07c1.86,1.86,4.44,2.93,7.07,2.93c2.64,0,5.21-1.07,7.07-2.93c1.86-1.851,2.93-4.431,2.93-7.07
			C413.001,313.549,411.931,310.969,410.071,309.109z"/>
	</g>
</g>
<g>
	<g>
		<path d="M300.071,309.109c-1.86-1.86-4.44-2.93-7.07-2.93c-2.64,0-5.21,1.07-7.07,2.93c-1.86,1.87-2.93,4.44-2.93,7.07
			s1.07,5.21,2.93,7.07c1.86,1.859,4.43,2.93,7.07,2.93c2.63,0,5.21-1.07,7.07-2.93s2.93-4.44,2.93-7.07
			S301.931,310.979,300.071,309.109z"/>
	</g>
</g>
<g>
	<g>
		<path d="M354.341,309.109c-1.86-1.86-4.44-2.93-7.07-2.93s-5.21,1.07-7.07,2.93s-2.93,4.44-2.93,7.07c0,2.64,1.07,5.21,2.93,7.07
			c1.86,1.859,4.44,2.93,7.07,2.93s5.21-1.07,7.07-2.93c1.86-1.86,2.93-4.44,2.93-7.07S356.201,310.979,354.341,309.109z"/>
	</g>
</g>
<g>
	<g>
		<path d="M354.341,369.929c-1.86-1.86-4.44-2.93-7.07-2.93s-5.21,1.069-7.07,2.93c-1.86,1.86-2.93,4.44-2.93,7.07
			s1.07,5.21,2.93,7.069c1.86,1.86,4.44,2.931,7.07,2.931s5.21-1.07,7.07-2.931c1.86-1.859,2.93-4.439,2.93-7.069
			S356.201,371.789,354.341,369.929z"/>
	</g>
</g>
<g>
	<g>
		<path d="M161.323,257.516c-1.782-5.223-7.468-8.012-12.694-6.235v0.001c-0.123,0.04-0.245,0.082-0.367,0.126
			c-5.188,1.889-7.83,7.611-5.944,12.799c1.475,4.062,5.328,6.577,9.421,6.577c1.065,0,2.146-0.17,3.206-0.527
			c0.054-0.018,0.107-0.036,0.161-0.054C160.328,268.416,163.105,262.74,161.323,257.516z"/>
	</g>
</g>
<g>
	<g>
		<path d="M227.13,101.484c-2.781-4.774-8.904-6.386-13.675-3.606c-0.415,0.242-10.268,5.987-19.409,11.646
			c-5.018,3.107-8.887,7.016-11.87,11.158c-2.983-4.143-6.852-8.051-11.87-11.158c-9.141-5.658-18.994-11.403-19.409-11.646
			c-4.772-2.778-10.895-1.166-13.675,3.606c-2.781,4.771-1.167,10.894,3.605,13.675c0.1,0.058,10.043,5.855,18.951,11.37
			c11.317,7.005,12.403,23.318,12.41,23.427c0.254,5.332,4.649,9.552,9.987,9.552s9.733-4.166,9.987-9.497
			c0.01-0.164,1.096-16.478,12.412-23.482c8.908-5.515,18.851-11.313,18.951-11.37C228.297,112.378,229.911,106.256,227.13,101.484z
			"/>
	</g>
</g>
<g>
</g>
<g>
</g>
<g>
</g>
<g>
</g>
<g>
</g>
<g>
</g>
<g>
</g>
<g>
</g>
<g>
</g>
<g>
</g>
<g>
</g>
<g>
</g>
<g>
</g>
<g>
</g>
<g>
</g>
</svg>
