<svg id="Layer_1" height="512" viewBox="0 0 512 512" width="512" xmlns="http://www.w3.org/2000/svg" data-name="Layer 1"><path d="m369.053 204.493c-5.118-57.638 11.109-106.924 16.221-120.693a4.278 4.278 0 0 0 -6.777-4.749c-35.429 30.1-46.38 116.7-49.335 149.969-5.471-10.488-13.376-19.342-20.724-27.562-6.77-7.573-13.163-14.726-16.025-21.685-12.038-29.273-9.29-71.753-7.284-102.773.688-10.636 1.283-19.822 1.151-26.66-.542-28.191-25.871-37.1-26.127-37.184a3 3 0 0 0 -3.906 3.42c.158.8 15.62 80.757.138 121.571-2.594 6.84-5.5 13.455-8.307 19.853-4.352 9.911-8.565 19.511-11.032 28.77-23.021-31.737-22.375-54.936-21.472-86.422.158-5.523.321-11.234.37-17.309.262-32.813-12.1-38.442-19.5-38.876a6.345 6.345 0 0 0 -5.292 2.284 6.538 6.538 0 0 0 -1.354 5.681c15.312 65.025 9.53 99.746 7.392 108.839q-.2.838-.344 1.65l-1.668 8.883c-8.846-48.055-22.6-107.935-30.979-130.059-5.047-13.318-10.556-21.021-16.845-23.541a11.342 11.342 0 0 0 -9.333.282 7.341 7.341 0 0 0 -3.658 9.224c4.885 12.689 15.609 46.624 21.229 84.234q5.245 35.1 3.434 63.747h-.052c0 .081.005.249.02.5q-.141 2.144-.322 4.25a2.973 2.973 0 0 0 -.12.942c0 .019 0 .1.009.229-1.823 19.967-6.341 37.361-13.561 52.031-20.265 41.182-34.027 81.208-39.8 115.751-6.955 41.635-2.625 75.368 12.87 100.264 20.506 32.938 60.13 49.646 117.763 49.646h.007c34.716 0 55.092-14.552 58.958-17.585 49.488-6.4 83.523-26.714 101.154-60.405 22.379-42.766 13.742-99.6 2.555-139.755a448.324 448.324 0 0 0 -29.454-76.762zm8.167-115.848c-6.623 19.931-18.8 65.137-14.105 116.863a74.555 74.555 0 0 1 -2.324 19.544c-.014.046-.025.092-.037.139-.267 1.007-.561 2.022-.89 3.04a40.183 40.183 0 0 1 -8.555 15.348h-.005a28.21 28.21 0 0 1 -15.377 8.466 55.854 55.854 0 0 0 -1.71-10.15c.493-8.242 7.52-114.195 43.003-153.25zm-115.049 51.134c6.634-17.864 8.656-44.157 6-78.189-1.356-17.352-3.653-32.431-4.988-40.321 6.4 3.807 16.781 12.53 17.1 29.189.127 6.586-.46 15.656-1.139 26.158-2.044 31.6-4.844 74.881 7.722 105.441a36.888 36.888 0 0 0 1.591 3.342c-25.657-22.242-26.325-42.788-26.286-45.62zm-8.6 20.636c1.376-3.134 2.774-6.322 4.152-9.568 3.277 12.245 13.277 32.164 43.268 51.272q1.467 1.659 2.973 3.339c11.591 12.968 24.655 27.6 26.009 47.468-.069.01-.141.017-.21.027a2.951 2.951 0 0 0 -.794.12c-16.73 2.693-25.8 10.256-30.525 16.354a35.655 35.655 0 0 0 -3.9 6.283c-15.955-35.87-36.2-56.326-53.52-70.1-1.368-13.451 5.083-28.193 12.547-45.195zm-57.933-109.659a.5.5 0 0 1 .106-.445.4.4 0 0 1 .348-.156c8.966.527 14.015 12.5 13.852 32.839-.048 6.013-.211 11.692-.368 17.185-.94 32.815-1.667 58.806 25.84 94.425a51.852 51.852 0 0 0 -.557 6.266c-3.449-2.568-6.735-4.9-9.783-7.054-17.5-12.388-25.114-18.415-22.045-31.473 8.753-37.243-3.446-94.825-7.393-111.587zm4.162 128.644c4.306 6.92 12.3 12.584 21.811 19.317 19.477 13.785 45.634 32.318 65.914 76.026a135.55 135.55 0 0 0 -24.708-14.378c-1.888-.814-5.627-2.29-9.955-4-6.38-2.517-14.32-5.651-17.069-6.991a205.052 205.052 0 0 1 -32.236-19.356c-.373-8.921-2.4-23.916-5.418-41.774zm-59.838-154.153a1.313 1.313 0 0 1 .644-1.654 5.346 5.346 0 0 1 4.513-.129c3.149 1.264 8.041 5.778 13.468 20.105 11.71 30.914 35.234 142.741 38.621 181.464-8.858-7.345-17-15.871-23.089-25.594-7.694-12.277-8.924-21.491-9.114-23.672q1.853-29.254-3.479-65.018a443.937 443.937 0 0 0 -21.564-85.502zm151.656 451.024c-.2.166-19.834 16.455-54.932 16.717-10.35-6.433-16.057-16.4-16.941-29.656a58.4 58.4 0 0 1 2-19.121 3 3 0 0 0 -5.721-1.81c-.108.344-9.579 31.292 10.65 50.442q-7.273-.24-14.111-.872c-19.677-12.474-31.139-32.856-34.069-60.577a135.206 135.206 0 0 1 1.6-38.642 3 3 0 0 0 -5.859-1.3 138.721 138.721 0 0 0 -1.723 40.393c2.606 24.987 12.275 45.034 28.108 58.678a148.351 148.351 0 0 1 -34.262-9.137 130.2 130.2 0 0 1 -16.124-89.143c4.169-23.572 13.365-39.093 13.519-39.35a3 3 0 1 0 -5.135-3.1c-.4.661-9.839 16.479-14.248 41.16a135.789 135.789 0 0 0 12.841 86.175q-21.831-11.413-34.041-30.952c-14.7-23.618-18.752-55.953-12.045-96.105 5.676-33.974 19.253-73.426 39.264-114.089a128.061 128.061 0 0 0 7.185-18.149 446.306 446.306 0 0 1 -15.28 88.751 3 3 0 1 0 5.771 1.641 453.985 453.985 0 0 0 15.706-93.211l16.055 90.345a3 3 0 0 0 2.95 2.476 3.077 3.077 0 0 0 .529-.047 3 3 0 0 0 2.428-3.48l-17.751-99.891c6.357 17.169 22.344 53.618 52.057 82.767a3 3 0 1 0 4.2-4.283c-22-21.583-36.42-47.848-44.741-66.4 10.975 12.193 27.81 25.654 53.668 38.263 2.958 1.442 10.681 4.49 17.495 7.179 4.1 1.62 7.98 3.15 9.783 3.927 17.114 7.378 36.2 21.745 51.054 38.431 12.628 14.185 28.511 37.025 32.459 65.277 5.319 38.096-12.273 73.979-52.339 106.693zm99.018-58.043c-15.54 29.7-44.847 48.435-87.175 55.807 17.693-15.868 30.583-32.7 38.376-50.151a99.54 99.54 0 0 0 8.058-55.135c-5.022-35.941-28.09-65.794-51.729-85.712 1.22-4.633 6.766-18.982 29.122-23.559.157 3.967-.415 12.582-5.636 27.265a3 3 0 1 0 5.654 2.01c5.722-16.094 6.27-25.571 5.961-30.212.051-.006.1-.014.148-.019a35.488 35.488 0 0 0 17.395-6.543c-.088 8.069-1.213 23.474-7.215 43.022a3 3 0 1 0 5.735 1.762c8.1-26.375 7.687-45.225 7.383-50.267a44.4 44.4 0 0 0 7.217-12.012c4.05 11.548 10.276 36.878 4.78 73.746a3 3 0 0 0 2.525 3.41 3.074 3.074 0 0 0 .446.033 3 3 0 0 0 2.964-2.558c7.232-48.521-4.974-77.569-7.812-83.488a77.473 77.473 0 0 0 1.611-8.57 450.842 450.842 0 0 1 24.283 65.808c19.74 70.853 9.758 112.718-2.091 135.363z"/><path d="m313.887 414.34a3 3 0 0 0 2.325 3.549 3.079 3.079 0 0 0 .615.063 3 3 0 0 0 2.934-2.39c14.46-69.467-25.384-101.621-33.828-105.073a3 3 0 1 0 -2.27 5.553c1.832.75 13.05 8.029 22.121 24.533 7.761 14.125 15.467 38.382 8.103 73.765z"/></svg>