<svg id="Capa_1" enable-background="new 0 0 512.071 512.071" height="512" viewBox="0 0 512.071 512.071" width="512" xmlns="http://www.w3.org/2000/svg"><path d="m509.222 245.173c-13.087-54.95-67.161-76.919-110.609-94.571-20.077-8.157-39.04-15.861-47.257-24.799-7.168-7.797-18.101-11.1-28.53-8.614-10.43 2.484-18.7 10.359-21.584 20.551-3.306 11.682-16.76 27.107-31.003 43.438-4.409 5.055-8.972 10.287-13.516 15.703-1.272-1.984-2.538-3.952-3.781-5.881-11.736-18.217-22.82-35.423-24.404-47.46-1.382-10.501-8.429-19.488-18.39-23.452-9.962-3.964-21.255-2.277-29.476 4.403-9.421 7.657-29.298 12.542-50.342 17.714-45.544 11.192-102.223 25.121-123.109 77.605-12.629 31.733-8.638 64.266 11.541 94.081 18.307 27.05 49.598 50.387 88.107 65.712 27.028 10.756 53.5 16.093 77.704 16.093 27.625 0 52.283-6.968 71.419-20.759 6.569 4.226 13.8 7.862 21.68 10.857 16.781 6.379 36.12 9.584 56.835 9.584 16.975 0 34.875-2.154 53.034-6.479 40.319-9.603 74.652-28.176 96.674-52.299 24.273-26.588 32.92-58.203 25.007-91.427zm-262.461-36.003c-1.71 2.2-3.397 4.429-5.054 6.686-2.609-10.078-5.764-19.537-8.78-28.317 2.365 3.76 4.849 7.618 7.404 11.584 2.106 3.268 4.268 6.64 6.43 10.047zm-215.577 96.314c-17.267-25.513-20.734-53.221-10.026-80.128 18.03-45.307 70.55-58.214 112.75-68.585 4.58-1.126 9.035-2.222 13.336-3.328-18.29 9.578-38.561 20.664-56.464 38.418-2.941 2.917-2.961 7.666-.044 10.607s7.665 2.961 10.606.044c17.435-17.29 38.094-28.074 56.321-37.589 16.665-8.699 31.057-16.212 40.309-26.987 2.89-3.366 5.616-4.313 6.627-3.911s2.34 2.962 2.127 7.395c-.682 14.186 4.613 29.533 10.744 47.303 4.591 13.308 9.771 28.347 12.705 44.362-14.569 24.294-23.365 51.615-16.04 82.372.528 2.217 1.124 4.392 1.776 6.529-16.786 30.586-42.57 48.022-70.581 49.388 3.744-2.801 7.489-6.155 11.199-10.058 2.854-3.002 2.734-7.75-.268-10.603-3.001-2.854-7.749-2.735-10.603.268-12.416 13.061-24.225 18.275-33.244 14.687-11.462-4.562-16.345-22.74-13.061-48.627.521-4.109-2.388-7.863-6.497-8.384-4.117-.521-7.863 2.388-8.384 6.497-1.875 14.786-1.334 27.603 1.424 37.96-23.467-13.07-42.422-29.472-54.712-47.63zm142.947 74.89c.208-.081.418-.15.625-.233 18.964-7.571 35.442-21.604 48.23-40.887 5.209 9.902 12.046 18.645 20.408 26.12-18.457 11.788-42.431 16.813-69.263 15zm299.006-53.887c-20.015 21.924-51.648 38.907-89.071 47.82s-73.315 8.013-101.064-2.534c-28.796-10.946-47.564-31.622-54.274-59.793-11.298-47.436 24.25-88.193 52.814-120.943 16.05-18.401 29.911-34.293 34.133-49.214 1.406-4.968 5.478-8.816 10.626-10.043 5.148-1.229 10.518.373 14.012 4.174 10.495 11.416 30.032 19.353 52.653 28.544 40.26 16.357 90.365 36.714 101.663 84.15 6.711 28.172-.721 55.088-21.492 77.839z"/><path d="m423.903 196.764c-3.7-1.862-8.208-.37-10.071 3.33-1.861 3.7-.371 8.209 3.33 10.071 28.166 14.169 42.013 27.898 46.302 45.907 10.337 43.401-36.157 75.003-86.821 87.071-70.313 16.748-109.301-7.311-116.75-38.584-6.925-29.076 15.611-57.857 45.801-92.47l.403-.463c18.427-21.128 48.259-28.232 74.237-17.677l.573.232c2.854 1.16 5.667 2.312 8.434 3.462 3.826 1.592 8.214-.221 9.804-4.046s-.222-8.214-4.046-9.804c-2.805-1.166-5.655-2.334-8.544-3.508l-.581-.236c-31.904-12.962-68.546-4.234-91.227 21.77l-.365.418c-33.058 37.902-57.664 69.76-49.081 105.797 9.407 39.497 46.856 55.288 89.131 55.288 14.967 0 30.54-1.979 45.686-5.587 30.081-7.165 56.439-20.133 74.221-36.517 21.491-19.802 29.692-43.531 23.716-68.622-3.601-15.123-13.011-35.135-54.152-55.832z"/><path d="m332.016 289.227c1.313 0 2.643-.345 3.851-1.069 3.552-2.131 4.704-6.738 2.573-10.29l-3.003-5.006c-2.131-3.552-6.738-4.705-10.29-2.573-3.552 2.131-4.704 6.738-2.573 10.29l3.003 5.006c1.406 2.343 3.891 3.642 6.439 3.642z"/><path d="m434.455 270.038c.487 0 .982-.048 1.479-.147l5.006-1.001c4.062-.813 6.696-4.764 5.883-8.826s-4.758-6.692-8.826-5.883l-5.006 1.001c-4.062.813-6.696 4.764-5.883 8.826.714 3.565 3.845 6.03 7.347 6.03z"/><path d="m384.397 229.492c2.485-3.314 1.813-8.015-1.5-10.5l-4.005-3.003c-3.314-2.486-8.015-1.813-10.5 1.5-2.485 3.314-1.813 8.015 1.5 10.5l4.005 3.003c1.35 1.012 2.928 1.5 4.494 1.5 2.28.001 4.533-1.035 6.006-3z"/><path d="m304.96 318.783c1.481 1.852 3.661 2.815 5.861 2.815 1.643 0 3.297-.538 4.681-1.644l5.006-4.005c3.234-2.588 3.758-7.308 1.171-10.542-2.588-3.234-7.307-3.76-10.542-1.171l-5.006 4.005c-3.234 2.588-3.758 7.308-1.171 10.542z"/><path d="m387.558 290.87c-3.705 1.852-5.207 6.357-3.354 10.062l2.503 5.006c1.314 2.628 3.962 4.147 6.714 4.147 1.127 0 2.271-.255 3.348-.793 3.705-1.852 5.207-6.357 3.354-10.062l-2.503-5.006c-1.852-3.704-6.358-5.208-10.062-3.354z"/><path d="m342.879 236.14c4.142-.018 7.486-3.39 7.468-7.532l-.029-6.813c-.018-4.131-3.372-7.468-7.5-7.468-.01 0-.021 0-.032 0-4.142.018-7.486 3.39-7.468 7.532l.029 6.813c.018 4.131 3.372 7.468 7.5 7.468z"/><path d="m375.06 266.866c4.142 0 7.5-3.358 7.5-7.5s-3.358-7.5-7.5-7.5h-.08c-4.142 0-7.46 3.358-7.46 7.5s3.397 7.5 7.54 7.5z"/><path d="m367.875 291.571c0-4.142-3.358-7.5-7.5-7.5h-.08c-4.142 0-7.46 3.358-7.46 7.5s3.398 7.5 7.54 7.5 7.5-3.358 7.5-7.5z"/><path d="m321.901 248.02c0-4.142-3.358-7.5-7.5-7.5h-.08c-4.142 0-7.46 3.358-7.46 7.5s3.398 7.5 7.54 7.5 7.5-3.358 7.5-7.5z"/><path d="m408.933 246.509c4.142 0 7.5-3.358 7.5-7.5s-3.358-7.5-7.5-7.5h-.08c-4.142 0-7.46 3.358-7.46 7.5s3.398 7.5 7.54 7.5z"/><path d="m289.792 279.566c-4.142 0-7.46 3.358-7.46 7.5s3.398 7.5 7.54 7.5 7.5-3.358 7.5-7.5-3.358-7.5-7.5-7.5z"/><path d="m349.863 333.111c4.142 0 7.5-3.358 7.5-7.5s-3.358-7.5-7.5-7.5h-.08c-4.142 0-7.46 3.358-7.46 7.5s3.398 7.5 7.54 7.5z"/><path d="m423.871 289.577c-4.142 0-7.46 3.358-7.46 7.5s3.398 7.5 7.54 7.5 7.5-3.358 7.5-7.5-3.358-7.5-7.5-7.5z"/></svg>