<svg id="Capa_1" enable-background="new 0 0 512 512" height="512" viewBox="0 0 512 512" width="512" xmlns="http://www.w3.org/2000/svg"><g><path d="m494.187 354.766c-5.286-30.423-19.19-58.465-40.207-81.096-2.819-3.034-7.564-3.21-10.598-.392-3.035 2.819-3.21 7.564-.392 10.598 19.038 20.498 31.632 45.899 36.42 73.457 2.967 17.076-.092 34.792-8.615 49.886l-.456.808c-9.297 16.463-24.344 28.601-41.932 34.417 12.904-21.919 17.294-48.017 11.753-73.744-10.946-50.821-37.932-97.313-76.435-132.078l29.725 12.557c9.28 3.92 18.167 8.827 26.414 14.582 1.307.913 2.803 1.35 4.285 1.35 2.368 0 4.698-1.119 6.156-3.208 2.371-3.396 1.539-8.071-1.858-10.441-9.105-6.354-18.916-11.77-29.16-16.098l-75.33-31.823-32.686-26.912c-.526-6.539-.797-98.735-.797-98.735 0-4.142-3.358-7.499-7.499-7.499-4.142 0-7.499 3.358-7.499 7.499v37.237l-.193-.327c-4.075-6.886-11.283-10.997-19.283-10.997s-15.208 4.111-19.281 10.997l-.193.327v-65.649c0-8.941 4.506-17.141 12.055-21.934l18.327-11.637c2.513-1.596 4.807-.658 5.676-.179.869.477 2.891 1.91 2.891 4.888v24.878c0 4.142 3.358 7.499 7.499 7.499 4.142 0 7.499-3.358 7.499-7.499v-24.879c0-7.621-3.987-14.361-10.665-18.032-6.679-3.671-14.506-3.423-20.939.662l-18.329 11.637c-11.905 7.56-19.013 20.493-19.013 34.596 0 0-.271 120.608-.797 127.147l-32.686 26.911-75.33 31.823c-50.111 21.169-85.588 65.806-94.901 119.402-3.558 20.48.111 41.727 10.332 59.828l.457.809c14.261 25.253 39.875 42.121 68.689 45.324 1.265 1.35 2.56 2.678 3.906 3.97 19.414 18.642 44.972 28.723 71.271 28.723 7.377 0 14.814-.794 22.188-2.414l2.031-.446c3.538 2.943 7.305 5.644 11.299 8.051 14.808 8.927 31.411 13.39 48.014 13.39s33.206-4.463 48.013-13.39c3.994-2.407 7.761-5.108 11.299-8.051l2.031.446c7.376 1.621 14.809 2.414 22.188 2.414 26.297-.001 51.858-10.082 71.271-28.723 1.345-1.292 2.64-2.62 3.905-3.969 28.83-3.202 54.408-20.032 68.691-45.326l.457-.808c10.22-18.1 13.89-39.348 10.332-59.827zm-452.525 53.262-.457-.809c-8.522-15.092-11.582-32.809-8.615-49.885 8.435-48.547 40.57-88.978 85.96-108.154l29.726-12.558c-38.504 34.766-65.489 81.258-76.435 132.079-5.543 25.737-1.148 51.844 11.767 73.769-17.598-5.823-32.661-17.999-41.946-34.442zm254.608 77.737c-24.84 14.974-55.701 14.974-80.541 0-23.275-14.03-37.733-39.628-37.733-66.804v-24.888c0-15.546 1.48-31.168 4.398-46.434.778-4.068-1.889-7.997-5.957-8.774-4.07-.778-7.996 1.889-8.774 5.958-3.096 16.192-4.665 32.762-4.665 49.251v24.888c0 21.575 7.651 42.31 20.951 58.7-26.377 3.462-52.962-5.153-72.364-23.782-22.181-21.298-31.557-51.96-25.083-82.021 11.023-51.176 39.35-97.685 79.765-130.96l51.756-42.613c-4.367 25.678-12.764 50.659-24.899 73.744-6.848 13.025-12.633 26.721-17.195 40.709-1.285 3.938.866 8.17 4.804 9.455.772.252 1.555.372 2.327.372 3.157 0 6.095-2.011 7.128-5.176 4.301-13.187 9.756-26.1 16.211-38.381 19.709-37.489 30.126-79.691 30.126-122.044v-12.372l13.102-22.152c1.94-3.28 5.103-3.634 6.372-3.634 1.27 0 4.432.354 6.372 3.634l13.102 22.152v12.372c0 42.353 10.417 84.556 30.126 122.045 18.582 35.344 28.403 75.133 28.403 115.065v24.888c.001 27.175-14.457 52.772-37.732 66.802zm104.144-31.886c-19.402 18.629-45.988 27.246-72.364 23.783 13.3-16.39 20.951-37.125 20.951-58.7v-24.888c0-42.353-10.417-84.556-30.125-122.045-12.137-23.085-20.534-48.066-24.9-73.744l51.757 42.613c40.414 33.275 68.742 79.784 79.764 130.96 6.474 30.061-2.903 60.723-25.083 82.021z"/></g></svg>