<svg id="Capa_1" enable-background="new 0 0 511.995 511.995" height="512" viewBox="0 0 511.995 511.995" width="512" xmlns="http://www.w3.org/2000/svg"><g><path d="m419.356 240.098-16.357-16.356c-17.415-17.415-45.384-16.9-62.24.431-4.68 4.812-11.944 12.281-16.539 17.005-.174.178-.701.719-1.63.341-.931-.379-.93-1.136-.929-1.384.051-24.131 10.198-47.413 27.841-63.88l.928-.866c12.139-11.331 13.139-31.075-.91-43.443-7.936-6.982-12.486-17.05-12.486-27.62 0-25.201 0-11.723 0-36.995 0-4.143-3.357-7.5-7.5-7.5s-7.5 3.357-7.5 7.5v1.037c-27.39.53-54.623-7.092-77.759-21.798v-15.765c0-8.715 7.09-15.805 15.805-15.805h46.149c8.715 0 15.805 7.09 15.805 15.805v1.524c0 4.143 3.357 7.5 7.5 7.5s7.5-3.357 7.5-7.5v-1.524c-.001-16.986-13.821-30.805-30.806-30.805h-46.149c-16.985 0-30.805 13.819-30.805 30.805l-.004 23.995-1.663-1.664c-10.186-10.184-26.665-10.183-36.851 0l-9.55 9.55c-12.301 12.301-12.472 32.483-.381 44.991 46.602 48.209 39.308 40.544 42.347 44.156 6.057 7.735 9.348 17.224 9.348 27.173v58.113c0 5.635 1.264 11.312 3.654 16.416l15.208 32.462c7.352 15.684-4.155 33.75-21.459 33.75-11.127 0-20.18-9.053-20.18-20.18 0-.102 0-110.441 0-112.346 0-14.812-12.05-26.861-26.861-26.861h-25.998c-14.812 0-26.861 12.05-26.861 26.861l-.003 20.916c-9-8.511-23.368-8.326-32.146.45l-10.124 10.126c-10.544 10.544-10.521 27.616.055 38.133 51.702 51.41 48.841 48.564 49.134 48.861 7.984 8.116 12.561 19.268 12.561 30.673 0 19.658 9.759 37.915 26.105 48.836l31.073 20.76c8.524 5.694 14.631 14.08 17.503 23.625.051.208.111.415.182.621 1.092 3.836 1.665 7.853 1.665 11.951v43.333c0 6.176 3.677 11.719 9.367 14.121 23.617 9.966 50.234 14.299 77.078 11.563 4.121-.419 7.121-4.1 6.701-8.221-.419-4.121-4.109-7.108-8.221-6.702-23.684 2.414-47.796-1.207-69.726-10.46-.121-.052-.2-.17-.2-.302v-18.537c36.995 1.693 74.271.079 111.032-4.824v23.356c0 .132-.078.249-.251.322-1.659.718-5.001 2.04-8.143 3.143-3.908 1.371-5.965 5.651-4.594 9.561 1.374 3.915 5.658 5.963 9.561 4.594 3.373-1.184 7.172-2.679 9.047-3.494 5.698-2.398 9.38-7.942 9.38-14.125 0-31.165-.077-27.905.173-31.474.834-9.224 4.674-17.903 11.022-24.766 11.974-12.945 10.164-33.515-4.076-44.12-6.655-4.957-7.933-14.392-2.841-20.941 53.974-69.392-3.64 4.68 51.613-66.359 13.594-17.478 11.86-42.289-3.594-57.743zm-26.964-5.75 16.357 16.357c7.91 7.909 10.304 19.468 6.867 29.577-22.992-12.74-44.094-28.454-62.887-46.833 11.392-10.436 28.897-9.867 39.663.899zm-144.872-36.382c23.768-7.181 48.224-10.185 72.926-8.966-4.921 8.537-8.608 17.756-10.924 27.349-26.479 7.158-38.649 8.436-62.002 11.155zm92.588-54.322c6.158 5.417 6.323 14.956.086 20.78-3.415 3.185-6.297 6.055-9.767 10.233-28.062-2.5-55.882.083-82.906 7.685v-3.336c0-10.354-2.661-20.338-7.652-29.136 27.197-13.23 56.11-21.842 86.14-25.651 3.248 7.807 7.95 14.011 14.099 19.425zm-148.497-46.393c-6.438-6.66-6.348-17.408.203-23.958l9.55-9.55c4.32-4.322 11.315-4.323 15.636 0l1.707 1.707c6.947 6.948 18.35 5.356 23.335-2.707 23.702 13.626 51.439 21.121 79.991 20.625 0 21.729-.102 22.59.267 26.205-31.973 4.259-62.73 13.69-91.615 28.099zm58.147 149.921c-.694-1.482-1.233-3.042-1.608-4.641 18.518-2.156 34.681-3.709 58.807-9.968-.192 2.502-.292 5.018-.297 7.541-.014 6.751 4.018 12.76 10.27 15.306 6.254 2.549 13.336 1.065 18.041-3.773l7.264-7.468c19.578 19.145 41.537 35.54 65.452 48.868l-8.756 11.258c-42.337-17.117-88.477-25.721-134.135-25.023zm-104.819 45.333-21.428-21.307c25.133-4.611 49.39-13.834 71.233-27.108v42.012zm11.945-117.145h25.998c6.369 0 11.861 5.111 11.861 11.962-16.455 2.412-33.139 3.004-49.721 1.771v-1.872c.001-6.539 5.322-11.861 11.862-11.861zm-58.527 53.96 10.125-10.125c3.087-3.089 8.154-3.132 11.295-.099 4.309 4.159 10.657 5.334 16.171 2.994 5.513-2.341 9.075-7.724 9.075-13.713v-4.245c16.089 1.122 32.758.666 49.721-1.66v23.807c-26.153 17.507-54.849 28.035-84.432 31.794l-11.932-11.864c-4.681-4.656-4.695-12.218-.023-16.889zm116.653 164.183c-33.726-22.533-31.827-21.216-33.462-22.474 12.568-1.822 25.234-3.346 37.813-4.547 4.123-.394 7.146-4.056 6.753-8.179s-4.056-7.156-8.179-6.753c-15.969 1.524-32.075 3.559-47.952 6.056-3.548-6.392-5.484-13.67-5.484-21.226 0-10.642-2.967-21.124-8.381-30.189l38.664-4.971c.866 18.634 16.296 33.527 35.141 33.527 22.04 0 39.708-18.496 38.653-40.516 41.073-.179 82.47 7.499 120.763 22.393l-26.713 34.345c-36.374-3.177-73.257-3.844-109.704-1.983-4.137.211-7.318 3.736-7.107 7.873s3.7 7.333 7.873 7.107c33.407-1.707 67.193-1.246 100.596 1.364-1.78 6.431-1.265 13.179 1.059 19.023-40.742 7.484-80.857 18.79-119.507 33.685-4.438-9.815-11.573-18.354-20.826-24.535zm152.234 25.573c-7.265 7.854-12.107 17.462-14.123 27.787-37.063 5.134-74.708 6.844-112.093 5.089 0-9.982.194-13.542-.812-19.526 40.573-15.715 82.808-27.379 125.69-34.711 6.386 5.342 7.153 15.074 1.338 21.361z"/></g></svg>