<svg id="Layer_1" height="512" viewBox="0 0 512 512" width="512" xmlns="http://www.w3.org/2000/svg" data-name="Layer 1"><path d="m101.431 91.967c-6.187 0-10.822-1.057-14.586-3.325a6 6 0 0 0 -6.195 10.277c5.714 3.444 12.317 5.048 20.781 5.048a6 6 0 0 0 0-12z"/><path d="m113.737 242.875a6.091 6.091 0 0 0 1.035.09 6 6 0 0 0 5.9-4.973c.724-4.162 1.592-8.391 2.579-12.569a6 6 0 1 0 -11.678-2.76c-1.042 4.41-1.959 8.876-2.723 13.272a6 6 0 0 0 4.887 6.94z"/><path d="m118.646 252.948a6 6 0 0 0 -11.943-1.162c-5.353 55.037 13.585 87.947 14.393 89.321a6 6 0 0 0 10.342-6.087c-.178-.303-17.771-30.879-12.792-82.072z"/><path d="m360.419 259.737a6 6 0 0 0 5.935 5.172 6.092 6.092 0 0 0 .837-.058 6 6 0 0 0 5.113-6.772l-.485-3.478a6 6 0 1 0 -11.885 1.658z"/><path d="m380.634 267.1a6 6 0 0 0 8.056-2.664l1.579-3.138a6 6 0 0 0 -10.721-5.393l-1.578 3.138a6 6 0 0 0 2.664 8.057z"/><path d="m432.494 279.508a5.961 5.961 0 0 0 2.8-.7l4.451-2.353a6 6 0 1 0 -5.609-10.607l-4.451 2.353a6 6 0 0 0 2.81 11.305z"/><path d="m437.078 285.473a6 6 0 1 0 2.785 11.672l4.952-1.182a6 6 0 0 0 -2.785-11.672z"/><path d="m409.415 291.457a6 6 0 0 0 5.928 5.123 6.063 6.063 0 0 0 .886-.065l3.392-.5a6 6 0 0 0 -1.757-11.871l-3.392.5a6 6 0 0 0 -5.057 6.813z"/><path d="m425.982 239.235a14.089 14.089 0 0 0 -3.567-.222c-1.464-5.324-5.326-10.428-11.332-14.756-16.421-11.836-46.342-16.305-66.047-2.884a14.5 14.5 0 0 0 -3.378 3.282c-4.289-2.45-9.825-3.544-16.238-3.086-19.772 1.411-45.172 17.154-51.733 40.126a15.571 15.571 0 0 0 -.137 7.435c-6.529 1.5-12.546 5.907-17.571 13.019-5.644 7.988-9.689 19.061-11.1 30.381-.871 7-1.409 20.02 4.769 28.614a19.159 19.159 0 0 0 8.394 6.406 29.227 29.227 0 0 0 -1.685 14.975c2.38 18.873 19.625 42.833 43.335 48.635a13.976 13.976 0 0 0 3.319.386c.187 0 .375-.012.562-.019 1.048 3.329 3.368 7.032 7.936 10.729 7.785 6.3 20.928 11.439 35.159 13.747a93.864 93.864 0 0 0 14.583 1.213c7.232 0 15.308-1.016 21.38-4.576a15.369 15.369 0 0 0 5.858-6.507 33.885 33.885 0 0 0 13.3 2.486 49.408 49.408 0 0 0 9.813-1.028c18.073-3.674 38.393-17.584 43.05-40.375a15.96 15.96 0 0 0 -.012-6.106c7.341-4.193 13.121-11.469 16.578-21.045 6.058-16.786 4.157-37.515-4.729-51.584a14.776 14.776 0 0 0 -3.814-3.979c2.885-4.186 4.366-9.587 4.178-15.833-.584-19.662-17.518-44.8-40.871-49.434zm-7.738 14.508a6.084 6.084 0 0 1 2.21-1.91l-3.06 3.606a6 6 0 0 0 9.148 7.765l3.3-3.892a5.989 5.989 0 0 0 1.108-5.788c13.5 6.628 23.533 22.889 23.912 35.506.076 2.53.3 10.217-7.557 12.315l-64.942 13.36a19.734 19.734 0 0 0 -1.28-1.972l23.179-36.8a6 6 0 0 0 10.878 4.655l1.506-2.353a6 6 0 0 0 -8.892-7.846zm-66.453-22.452c.147-.1.3-.19.449-.287a5.965 5.965 0 0 0 .147 2.159l1.3 5.049a6 6 0 0 0 11.621-2.992l-1.3-5.049a5.974 5.974 0 0 0 -2.344-3.4 47.668 47.668 0 0 1 15.526-1.6 6 6 0 0 0 -4.964 5.151l-.658 5.109a6 6 0 1 0 11.9 1.534l.658-5.11a6 6 0 0 0 -4.039-6.453 54.666 54.666 0 0 1 18.837 5.468 6 6 0 0 0 -6.686 3.674l-1.93 4.843a6 6 0 1 0 11.147 4.441l1.93-4.843a5.994 5.994 0 0 0 -1.063-6.171c.6.381 1.184.769 1.744 1.172 2.232 1.609 6.966 5.544 6.984 9.894a16.613 16.613 0 0 0 -2.961 3.463l-36.7 58.264a19.725 19.725 0 0 0 -4.985-.978l-16.404-67.629c-.469-1.948.628-4.916 1.791-5.709zm21.088 93.009a7.8 7.8 0 1 1 -7.8-7.732 7.773 7.773 0 0 1 7.8 7.732zm-87.653-59.308c4.974-17.417 25.24-30.324 41.048-31.452 3.419-.247 9.242-.055 11.664 3.6a15.923 15.923 0 0 0 .4 2.693l16.415 67.667a19.86 19.86 0 0 0 -4.283 3.536l-63.058-40.613c-1.553-1.255-2.561-4.123-2.186-5.432zm-25.826 69.147c-5.6-7.8-3.517-31.052 6.385-45.066 4.761-6.738 10.062-9.469 15.76-8.159l63.885 41.146a19.7 19.7 0 0 0 -.137 2.239c0 .152.02.3.023.451l-79.966 12.14c-1.807.283-4.75-1.08-5.95-2.751zm48.667 62.861c-1.154 1.665-4.143 2.837-5.519 2.5-17.895-4.379-32.429-23.794-34.281-38.48-.554-4.391-.2-10.111 4.359-13.1l76.757-11.653c.163.211.316.43.487.635zm68.5 25.284c-11.45 6.718-44.233 1.38-57.5-9.36-2.6-2.105-3.989-4.049-4.174-5.8a16.546 16.546 0 0 0 3.035-3.274l5.759-8.279-.58 1.167a6 6 0 1 0 10.746 5.34l2.319-4.669a6 6 0 0 0 -8.246-7.933l32.085-46.128a19.783 19.783 0 0 0 5.078.682h.023l13.379 72.7c.382 1.97-.798 4.896-1.927 5.558zm66.333-37.47c-3.56 17.419-19.482 28.13-33.684 31.017-8.469 1.722-15.962.578-19.218-2.827l-13.376-72.704a19.969 19.969 0 0 0 3.045-2.7l45.6 31.244a6 6 0 0 0 -3.052 10.667l4.09 3.233a5.995 5.995 0 0 0 9.342-6.787l4.75 3.255c1.528 1.029 2.84 3.963 2.503 5.602zm17.035-28.824c-1.8 5-5.145 11.194-11.108 14.629a15.538 15.538 0 0 0 -1.686-1.333l-62.4-42.758c0-.021.007-.041.01-.062l37.21-7.656a6 6 0 0 0 4.324 10.147 5.918 5.918 0 0 0 .825-.057l3.116-.428a6 6 0 0 0 1.168-11.6l10.316-2.123a5.99 5.99 0 0 0 5.538 8.282c.1 0 .2 0 .305-.008l4.663-.233a6 6 0 0 0 5.644-5.208c5.574 10.878 6.492 26.178 2.078 38.408z"/><path d="m358.937 370.673a6 6 0 0 0 5.883-4.853l.96-4.922a6 6 0 0 0 -11.78-2.298l-.959 4.921a6 6 0 0 0 4.741 7.037 5.922 5.922 0 0 0 1.155.115z"/><path d="m329.858 313.732-3.776-.985a6 6 0 0 0 -3.03 11.611l3.776.986a6 6 0 0 0 3.03-11.612z"/><path d="m328.629 343.239-3.329 1.961a6 6 0 1 0 6.082 10.344l3.327-1.956a6 6 0 1 0 -6.082-10.344z"/><path d="m337.068 287.693a6 6 0 0 0 -.49 8.472l2.818 3.164a6 6 0 0 0 8.961-7.982l-2.818-3.164a6 6 0 0 0 -8.471-.49z"/><path d="m396.239 294.9-3.239 2.441a6 6 0 0 0 7.222 9.584l3.239-2.441a6 6 0 0 0 -7.222-9.584z"/><path d="m366.894 284.472-.112 3.838a6 6 0 0 0 5.822 6.172h.179a6 6 0 0 0 5.994-5.824l.112-3.838a6 6 0 1 0 -12-.351z"/><path d="m390.53 364.374a6 6 0 0 0 5.044-9.241l-2.629-4.1a6 6 0 0 0 -10.1 6.481l2.629 4.1a6 6 0 0 0 5.056 2.76z"/><path d="m411.009 325.517-4.128-1.147a6 6 0 0 0 -3.212 11.563l4.128 1.146a6 6 0 0 0 3.212-11.562z"/><path d="m296.628 274.172 4.724 2.049a6 6 0 1 0 4.774-11.01l-4.724-2.049a6 6 0 0 0 -4.774 11.01z"/><path d="m310.03 260.626a6 6 0 0 0 8.515-8.455l-3.582-3.606a6 6 0 1 0 -8.514 8.455z"/><path d="m324.485 248.44a6 6 0 1 0 10.35-6.074l-2.6-4.433a6 6 0 0 0 -10.35 6.074z"/><path d="m328.2 273.626-3.006-1.73a6 6 0 0 0 -5.987 10.4l3.006 1.73a6 6 0 0 0 5.987-10.4z"/><path d="m330.812 266.8 1.488 3.128a6 6 0 1 0 10.837-5.153l-1.488-3.128a6 6 0 0 0 -10.837 5.153z"/><path d="m276.59 321.481-4.988 1.284a6 6 0 1 0 2.991 11.621l4.988-1.283a6 6 0 0 0 -2.991-11.622z"/><path d="m271.761 314.838 5.049.646a5.886 5.886 0 0 0 .769.05 6 6 0 0 0 .755-11.952l-5.048-.647a6 6 0 0 0 -1.525 11.9z"/><path d="m285.123 285.856-4.786-1.9a6 6 0 0 0 -4.426 11.154l4.786 1.9a6 6 0 0 0 4.426-11.155z"/><path d="m301.158 316.547-3.437.48a6 6 0 0 0 .823 11.944 6.12 6.12 0 0 0 .838-.059l3.437-.48a6 6 0 1 0 -1.661-11.885z"/><path d="m307.465 300.4-3.1-1.553a6 6 0 1 0 -5.375 10.728l3.1 1.554a6 6 0 1 0 5.375-10.729z"/><path d="m308.707 379.82a6 6 0 0 0 -8.435.923l-3.219 4.01a6 6 0 1 0 9.357 7.512l3.219-4.01a6 6 0 0 0 -.922-8.435z"/><path d="m299.083 367.646a6 6 0 0 0 -8.175-2.273l-4.429 2.5a6 6 0 1 0 5.9 10.447l4.428-2.5a6 6 0 0 0 2.276-8.174z"/><path d="m288.81 358.714a6 6 0 0 0 -3.129-11.586l-4.973 1.343a6 6 0 0 0 1.561 11.8 6.07 6.07 0 0 0 1.568-.209z"/><path d="m314.2 361.7-2.462 2.441a6 6 0 0 0 8.45 8.521l2.461-2.44a6 6 0 0 0 -8.449-8.522z"/><path d="m307.173 357.527a6.143 6.143 0 0 0 1.065-.094l3.416-.613a6 6 0 0 0 -2.117-11.812l-3.416.612a6 6 0 0 0 1.052 11.907z"/><path d="m372.57 401.583a6 6 0 1 0 -11.827 2.031l.882 5.138a6 6 0 0 0 5.906 4.985 6.008 6.008 0 0 0 5.921-7.016z"/><path d="m349.905 395.766a6 6 0 0 0 -7.119 4.617l-1.075 5.038a6 6 0 1 0 11.737 2.5l1.074-5.038a6 6 0 0 0 -4.617-7.117z"/><path d="m362.171 389.416a6 6 0 0 0 5.65-6.33l-.2-3.507a6 6 0 1 0 -11.98.68l.2 3.507a6 6 0 0 0 5.985 5.66c.114 0 .23-.003.345-.01z"/><path d="m348.244 381.834 1.83-3a6 6 0 1 0 -10.243-6.252l-1.83 3a6 6 0 1 0 10.243 6.252z"/><path d="m402.63 395.6a6 6 0 1 0 -11.563 3.2l1.392 5.023a6 6 0 1 0 11.564-3.2z"/><path d="m417.5 385.019a6 6 0 1 0 -9.548 7.269l3.12 4.1a6 6 0 0 0 9.548-7.27z"/><path d="m395.283 383.365a6 6 0 0 0 3.317-7.809l-1.315-3.257a6 6 0 1 0 -11.127 4.492l1.315 3.257a5.991 5.991 0 0 0 7.81 3.317z"/><path d="m412.958 368.856a6 6 0 0 0 -1.711-8.31l-2.934-1.932a6 6 0 1 0 -6.6 10.022l2.933 1.931a5.995 5.995 0 0 0 8.311-1.711z"/><path d="m448.068 346.827-3.9-2.563a6 6 0 0 0 -6.59 10.029l3.9 2.563a6 6 0 1 0 6.59-10.029z"/><path d="m452.243 329.2-4.52-.922a6 6 0 1 0 -2.4 11.758l4.52.922a6 6 0 0 0 2.4-11.758z"/><path d="m429.294 334.218-2.807-1.419a6 6 0 1 0 -5.413 10.709l2.807 1.419a6 6 0 1 0 5.413-10.709z"/><path d="m422.012 200.277c-9.9-30.368-29.978-56.006-58.2-74.266-26.886-17.4-59.549-26.94-94.971-27.834l-.441-24.512a6 6 0 0 0 -5.821-5.889l-24.767-.734a6 6 0 0 0 -5.5 8.775l8.2 15.693a354.924 354.924 0 0 0 -37.7-20.964c-44.663-21.246-81.828-26.104-110.464-14.446-56.248 22.894-71.471 18.968-72.584 18.624a6 6 0 0 0 -7.512 8.993c2.168 2.807 48.972 62.534 106.473 69.612-27.977 30.732-43.238 73.828-43.238 122.971 0 49.654 18.782 95.434 52.885 128.9 34.007 33.378 81.021 51.626 132.765 51.626 1.356 0 2.72-.012 4.082-.038 1.7 0 24.157-.171 40.242-7.238a137.791 137.791 0 0 0 57.43 12.468c76.153 0 138.109-61.681 138.109-137.5 0-54.763-32.332-102.147-78.988-124.241zm-165.512-120.677.31 17.2-9.12-17.459zm-225.642 7.28c12.274-1.218 32.614-6.073 66.015-19.668 45.965-18.712 110.685 17.227 140.414 36.55-32.675 1.69-91.128.391-116.153-9.071a6 6 0 1 0 -4.243 11.225c20.688 7.821 61 10.48 94.031 10.48 7.039 0 13.74-.122 19.858-.339-22.011 9.5-57.089 22.154-94.2 25.643-45.029 4.234-87.632-35.3-105.722-54.82zm332.033 363.138a126.165 126.165 0 0 1 -123.713-101.1 6 6 0 0 0 -5.873-4.854h-.018a6 6 0 0 0 -5.876 7.182 137.9 137.9 0 0 0 63.423 90.526 126.72 126.72 0 0 1 -25.664 3.015c-.039 0-.081 0-.122 0-50.092.943-95.676-16.162-128.27-48.153-31.786-31.194-49.291-73.934-49.291-120.334 0-50.352 16.891-93.741 47.591-122.464.874-.055 1.747-.1 2.623-.184 42.282-3.974 81.15-18.891 103.261-28.892-2.1 2.673-3.987 4.654-5.208 5.226a6 6 0 0 0 3.679 11.422c7.565-2.379 17.53-17.37 22.578-27.926a5.965 5.965 0 0 0 .756-1.623c4.614 2.285 11.725 7.166 17.657 17.133a6 6 0 1 0 10.312-6.136 60.794 60.794 0 0 0 -9.2-11.932c28.167 2.561 54.04 11.113 75.761 25.167 22.769 14.731 39.735 34.652 49.645 58.109a138.1 138.1 0 0 0 -44.048-7.172c-71.732 0-130.86 54.728-137.486 124.444a6.006 6.006 0 0 0 5.963 6.6h.012a6.016 6.016 0 0 0 5.968-5.486c6.062-63.62 60.053-113.556 125.543-113.556 69.537 0 126.109 56.3 126.109 125.5s-56.575 125.488-126.112 125.488z"/></svg>