<svg id="Layer_1" height="512" viewBox="0 0 512 512" width="512" xmlns="http://www.w3.org/2000/svg" data-name="Layer 1"><path d="m299.485 440.6a64.851 64.851 0 0 0 6.867 4.215 3 3 0 0 0 2.815-5.3 58.94 58.94 0 0 1 -6.228-3.823 3 3 0 1 0 -3.454 4.907z"/><path d="m292.828 435.218a3 3 0 1 0 4.074-4.4c-19.875-18.386-21.8-45.965-21.814-46.242a3 3 0 0 0 -5.989.361c.073 1.22 2.041 30.217 23.729 50.281z"/><path d="m471.717 315.5a61.153 61.153 0 0 0 -21.657-39.953c-21.744-18.234-56.446-23.46-103.14-15.534-30.839 5.236-68.307-2.456-111.37-22.845a488.227 488.227 0 0 1 -23.476-62.628c-18.507-60.724-25.858-118.464-27.674-134.714a8.451 8.451 0 0 0 -6.94-7.423l-10.9-1.978a8.512 8.512 0 0 0 -10.037 8.15c-.148 5.744.789 13.5 2.311 21.961l-15.313-34.736a7.793 7.793 0 0 0 -9.833-4.153l-10.356 3.853a7.777 7.777 0 0 0 -4.417 10.409l25.126 57.391q-1.583.743-3.272 1.695a9.478 9.478 0 0 0 -4.437 10.914c4.5 15.631 17.248 57.185 35.455 94.468-50.28-33.75-90.139-70.79-101.666-81.845a8.46 8.46 0 0 0 -10.084-1.26l-9.637 5.447a8.5 8.5 0 0 0 -2.49 12.681c3.565 4.5 9.251 9.859 15.839 15.382l-34.017-16.872a7.793 7.793 0 0 0 -10.213 3.1l-5.489 9.58a7.777 7.777 0 0 0 3.275 10.824l56.08 28.008q-.74 1.583-1.426 3.394a9.479 9.479 0 0 0 3.585 11.223c8.45 5.725 83.562 55.861 137.8 66.809 18.959 34.642 37.128 88.331 37.861 116.742.373 14.478 6.638 43.893 27.756 62.3 12.4 10.808 27.947 16.253 46.341 16.253q4.188 0 8.575-.378a76.656 76.656 0 0 0 2.348 8.636c2.876 8.443 6.644 13.344 11.2 14.57a6.643 6.643 0 0 0 1.712.236 4.8 4.8 0 0 0 2.868-.9 15.533 15.533 0 0 0 6.019 5.774 6.9 6.9 0 0 0 3.01.759 5.324 5.324 0 0 0 4.581-2.724c1.345-2.245 1.641-6.4 1.224-11.343a9.661 9.661 0 0 0 4.364 3.083 5.847 5.847 0 0 0 1.538.206c1.5 0 3.565-.587 5.3-3.2 6.447-9.744-6.114-23.655-11.39-28.826a61.137 61.137 0 0 0 8.965-44.563c-5.026-27.911-28.33-54.12-69.267-77.9q-22.556-13.1-41.837-38.8c32.9 16.627 63.707 37.676 77.237 53.07 9.571 10.888 33.247 29.48 61.277 30.1q.731.016 1.457.017c18.375 0 35.463-7.735 50.855-22.967a76.86 76.86 0 0 0 7.354 5.145c5.356 3.264 9.93 4.9 13.662 4.9a10.1 10.1 0 0 0 4.273-.878 5.261 5.261 0 0 0 3.082-3.434 18.516 18.516 0 0 0 5.453.918 11.936 11.936 0 0 0 2.882-.337c3.95-.978 4.953-3.927 4.574-6.362-.4-2.584-2.834-5.966-6.314-9.493a14.71 14.71 0 0 0 2.113.17 7.723 7.723 0 0 0 3.2-.6c1.164-.529 3.819-2.24 3.325-6.674-1.295-11.601-19.861-14.248-27.225-14.848zm-347.306-282a1.778 1.778 0 0 1 1.011-2.379l10.355-3.847a1.789 1.789 0 0 1 2.254.95l27.869 63.176c2.4 8.978 4.8 17.007 6.588 22.451 5.491 16.709 26.639 88.043 36.271 120.635-20.226-32.441-33.052-84.531-40.4-114.368-4.579-18.6-6.271-25.133-8.405-27.14-2.394-2.252-5.874-2.827-10.265-1.749zm-71.8 98.18a2.505 2.505 0 0 1 .739-3.738l9.638-5.452a2.5 2.5 0 0 1 2.977.368c12.286 11.784 56.511 52.86 111.334 88.338 2.961 5.562 6.046 10.951 9.243 16.06-30.578-20.341-64.29-42.661-74.961-49.325-17.829-11.139-48.904-33.539-58.967-46.252zm-32.625 20.367a1.775 1.775 0 0 1 -.75-2.472l5.489-9.581a1.784 1.784 0 0 1 2.341-.709l61.891 30.7c7.6 5.363 14.585 9.993 19.449 13.031 12.077 7.542 53.979 35.348 87.187 57.467 1.19 1.58 2.392 3.118 3.608 4.6q1.083 1.32 2.181 2.778c-33.249-14.084-69.634-40.844-92.129-57.394-15.436-11.354-20.923-15.291-23.848-15.467-3.28-.195-6.321 1.588-9 5.223zm58.924 43.026a3.5 3.5 0 0 1 -1.337-4.135c2.292-6.071 5.165-9.948 7.358-9.952 2.214.666 11.229 7.3 20.766 14.316 24.593 18.093 65.608 48.26 101.709 61.384q.957 1.526 1.917 3.127c-52.592-12.705-122.335-59.266-130.413-64.74zm124.929 46.206c-31.862-38.815-55.313-114.7-61.741-137.034a3.5 3.5 0 0 1 1.625-4.032c4.053-2.293 7.611-3.528 9.923-3.528a3.266 3.266 0 0 1 2.109.589c1.273 1.93 3.947 12.79 6.775 24.279 9.214 37.422 24.634 100.053 51.689 130.435a3 3 0 0 0 5.118-2.843c-.339-1.151-33.984-115.35-41.154-137.166-6.56-19.963-16.073-57.049-15.656-73.25a2.513 2.513 0 0 1 2.968-2.4l10.9 1.978a2.488 2.488 0 0 1 2.047 2.184c1.827 16.38 9.238 74.581 27.894 135.8q15.541 50.993 35.732 86.82l-16.863 13.889c-7.022-14.6-14.431-27.272-21.366-35.721zm135.52 217.265a11.939 11.939 0 0 1 .515-1.695c3.9 6.1 8.531 17.96 8.419 22.066-4.168-2.11-7.644-12.765-8.934-20.371zm8.654-13.578c-1.09 1.457-1.747 2.337-4.156 2.337-5.785 0-8.772 4.689-9.968 8.445-1.138.1-2.26.178-3.377.242-1.459-.574-3.983-2-4.4-3.661-.4-1.614 1.326-3.694 2.391-4.79 3.485-3.585 4.429-3.383 5.052-3.244 3.392.735 5.534-.558 8.818-5.343 6.464-9.416 10.059-7.927 11.592-7.3s3.076 1.13 4.427 1.563c5.217 1.672 6.735 2.174 5.916 6.9-.73 1.413-1.427 2.615-2.027 3.578a11.137 11.137 0 0 0 -9.931-2.122 7.865 7.865 0 0 0 -4.337 3.395zm12.623 39.72c-6.438-3.131-10.232-20.883-11.343-32.725a11.5 11.5 0 0 0 3.429-3.275c2.663 4.443 6.571 15.719 7.963 26.438.744 5.73.324 8.538-.049 9.562zm12.395-11.129a2.79 2.79 0 0 1 -.377.473c-.916-.408-3.706-3.115-7.243-11.755a88.877 88.877 0 0 1 -3.535-10.5c5.791 5.535 14.642 16.512 11.155 21.782zm-69.7-142.789c39.279 22.816 61.6 47.6 66.353 73.65a55.345 55.345 0 0 1 -1.75 26.952c-2.063-2.054-5.049-3.012-7.709-3.864-1.3-.417-2.647-.849-3.966-1.394-6.474-2.677-12.632.414-18.831 9.446a13.374 13.374 0 0 1 -2.405 2.918c-.062-.014-.124-.03-.188-.043-3.054-.668-5.773-.074-10.631 4.923-3.439 3.537-4.755 7.044-3.911 10.425a8.464 8.464 0 0 0 .937 2.246c-15.132-.749-27.986-5.641-38.324-14.654-19.549-17.042-25.354-44.437-25.7-57.935-.629-24.353-13.733-66.8-29.366-100.836l17.268-14.221c17.107 28.924 36.559 49.804 58.222 62.387zm-24.6-43.249c-7.4-4.042-14.666-7.739-21.429-10.934a281.479 281.479 0 0 1 -17.7-30.937 284.777 284.777 0 0 0 42.581 15.465zm124.423 76.434c-25.95-.573-47.978-17.909-56.9-28.061-12.909-14.687-37.658-31.574-61.879-45.244l3.666-28.043c21.9 5.247 41.929 6.372 59.887 3.326 44.805-7.607 77.841-2.85 98.185 14.135a55.409 55.409 0 0 1 15.913 21.806c-2.9-.257-5.805.918-8.394 1.966-1.267.512-2.577 1.041-3.939 1.466-6.689 2.086-9.441 8.4-8.414 19.305a13.331 13.331 0 0 1 .024 3.777c-.056.029-.114.056-.171.087-2.774 1.442-4.483 3.637-5.013 10.587-.375 4.916.862 8.451 3.675 10.507a8.525 8.525 0 0 0 2.147 1.136c-12.093 9.09-25.086 13.553-38.789 13.25zm52.284-38.889c.1 1.876.155 2.911-1.693 4.451-4.445 3.7-3.735 9.214-2.246 12.865-.805.8-1.616 1.576-2.429 2.336-1.528.5-4.358 1.024-5.743 0-1.338-.987-1.343-3.684-1.227-5.2.379-4.983 1.234-5.427 1.8-5.722 3.082-1.6 3.9-3.971 3.352-9.748-1.071-11.363 2.641-12.521 4.226-13.015s3.087-1.1 4.4-1.632c5.082-2.054 6.571-2.641 8.973 1.519.344 1.55.579 2.918.735 4.04a11.138 11.138 0 0 0 -8.987 4.725 7.859 7.859 0 0 0 -1.163 5.381zm2.052 15.959a11.894 11.894 0 0 1 -.688-1.626c6.9 2.194 18.055 8.335 20.606 11.561-4.558 1.042-14.055-4.919-19.92-9.935zm33.1 6.473c-6.946 1.711-21.243-9.5-29.685-17.883a11.471 11.471 0 0 0 .535-4.7c4.888 1.7 15.116 7.856 23.064 15.21 4.233 3.923 5.71 6.346 6.082 7.377zm2.4-15.874c-.972.269-4.85-.026-13.1-4.4a88.953 88.953 0 0 1 -9.437-5.8c8 .558 21.825 3.336 22.522 9.6a2.881 2.881 0 0 1 .015.6z"/><path d="m420.57 346.291a58.864 58.864 0 0 1 -7.2 1.235 3 3 0 0 0 .317 5.983 2.945 2.945 0 0 0 .324-.018 64.926 64.926 0 0 0 7.942-1.36 3 3 0 1 0 -1.378-5.84z"/><path d="m405.606 347.839c-27.079-.712-46.738-20.169-46.934-20.365a3 3 0 0 0 -4.26 4.224c.863.872 21.492 21.362 51.037 22.139h.08a3 3 0 0 0 .077-6z"/></svg>