<?xml version="1.0" encoding="iso-8859-1"?>
<!-- Generator: Adobe Illustrator 19.0.0, SVG Export Plug-In . SVG Version: 6.00 Build 0)  -->
<svg version="1.1" id="Capa_1" xmlns="http://www.w3.org/2000/svg" xmlns:xlink="http://www.w3.org/1999/xlink" x="0px" y="0px"
	 viewBox="0 0 497.496 497.496" style="enable-background:new 0 0 497.496 497.496;" xml:space="preserve">
<g>
	<g>
		<path d="M302.052,333.776c-13.936-25.096-21.304-53.528-21.304-82.232c0-36.264,11.336-70.888,32.784-100.136l60.16-82.032
			l-47.888-15.96l24-32L285.564,0l-27.96,40.664c-3.064,4.464-6.008,9.04-8.888,13.648c-2.872-4.592-5.76-9.176-8.832-13.648
			L211.924,0l-64.24,21.416l24,32l-47.88,15.96l60.16,82.032c20.504,27.96,34.28,72,34.28,109.584h0.352
			c-1.12,11.392-1.784,22.864-1.848,34.416l-31.008,55.816c-5.88,10.592-8.992,22.608-8.992,34.736
			c0,24.832,12.736,46.736,32,59.568v35.968h16v-28.064c5.104,1.784,10.448,3.072,16,3.656v40.408h16v-40.408
			c5.552-0.584,10.896-1.872,16-3.656v28.064h16V445.52c19.264-12.832,32-34.736,32-59.568c0-12.128-3.112-24.144-9-34.736
			L302.052,333.776z M258.108,69.576c3.976-6.712,8.248-13.392,12.688-19.84l21.136-30.744l31.76,10.584l-13.88,18.512l-0.24-0.08
			l-27.96,40.664c-2.824,4.104-5.544,8.264-8.184,12.456C268.644,90.24,263.324,79.6,257.5,69.208L258.108,69.576z M196.876,141.952
			l-47.184-64.336l31.88-10.624l21.136,30.744c4.024,5.856,7.92,11.896,11.568,17.96l13.704-8.256
			c-3.816-6.336-7.88-12.648-12.088-18.768l-27.96-40.664l-0.24,0.08l-13.88-18.512l31.76-10.584l21.136,30.744
			c14.704,21.384,27.008,44.408,36.656,68.44c-5.312,9.52-10.224,19.224-14.648,29.12c-2.12-4.736-4.304-9.472-6.672-14.216
			l-6.112-10.696l-13.888,7.936l5.888,10.288c4.464,8.992,8.528,18.28,12.216,27.632c-5.096,13.592-9.392,27.472-12.832,41.576
			C220.82,184.496,210.196,160.128,196.876,141.952z M249.212,441.496h-0.92c-30.632,0-55.544-24.912-55.544-55.536
			c0-9.416,2.416-18.744,6.984-26.968l33.016-59.424v-2.072c0-71.648,21.456-140.72,62.048-199.76l21.136-30.744l31.88,10.624
			l-47.184,64.336c-23.472,32-35.872,69.904-35.872,109.592c0,31.408,8.064,62.536,23.32,90l9.696,17.448
			c4.56,8.224,6.976,17.552,6.976,26.968C304.748,416.584,279.836,441.496,249.212,441.496z"/>
	</g>
</g>
<g>
	<g>
		<path d="M224.748,385.96c0-3.984,1.024-7.936,2.96-11.432l-13.984-7.768c-3.256,5.864-4.976,12.504-4.976,19.2
			c0,13.832,7.056,26.44,18.88,33.704l8.376-13.624C228.956,401.696,224.748,394.192,224.748,385.96z"/>
	</g>
</g>
<g>
	<g>
		<path d="M283.78,366.768l-9.704-17.456l-13.984,7.784l9.696,17.448c1.936,3.488,2.96,7.44,2.96,11.424
			c0,6.576-2.664,12.688-7.504,17.208l10.92,11.688c8-7.48,12.584-18.008,12.584-28.904
			C288.748,379.264,287.028,372.632,283.78,366.768z"/>
	</g>
</g>
<g>
</g>
<g>
</g>
<g>
</g>
<g>
</g>
<g>
</g>
<g>
</g>
<g>
</g>
<g>
</g>
<g>
</g>
<g>
</g>
<g>
</g>
<g>
</g>
<g>
</g>
<g>
</g>
<g>
</g>
</svg>
