<?xml version="1.0"?>
<svg xmlns="http://www.w3.org/2000/svg" viewBox="0 0 64 64" width="512" height="512"><g id="Outline"><g><circle cx="9" cy="43" r="1"/><circle cx="10" cy="36" r="1"/><circle cx="16" cy="36" r="1"/><path d="M23.41,59.91a18,18,0,0,1-11.47-2.55,1,1,0,0,0-1.19.07c-1.54,1.28-3.51,1.44-4.57.38s-.89-3,.39-4.57c0,0,0,0,0-.05s.19-.22.3-.32a5.14,5.14,0,0,1,1.38-1,1,1,0,0,0,.47-1.33,1,1,0,0,0-1.34-.47A7,7,0,0,0,6,51C1.86,43.27,4.31,31.4,11.84,23.87s19.41-10,27.13-5.8a6.91,6.91,0,0,0-.92,1.4,1,1,0,0,0,.47,1.33.94.94,0,0,0,.43.1,1,1,0,0,0,.9-.56,5.17,5.17,0,0,1,1-1.38c.13-.13.25-.24.38-.35l0,0c1.54-1.26,3.5-1.43,4.55-.37s.89,3-.39,4.57A1,1,0,0,0,45.33,24a18.71,18.71,0,0,1,2.38,12.89,1,1,0,0,0,2,.28,21,21,0,0,0-2.32-13.67,5.6,5.6,0,0,0,.58-5.6l7.73-7.14A1,1,0,0,0,56,10a1.05,1.05,0,0,0-.29-.73l-4-4A1,1,0,0,0,51,5a1,1,0,0,0-.72.35s-1.78,2.07-4,4.68a1,1,0,0,0,1.54,1.29c1.34-1.61,2.53-3,3.25-3.85l2.5,2.5-6.92,6.38A4.23,4.23,0,0,0,45,15.64V15A13,13,0,0,0,32,2H24a1,1,0,0,0-1,1V5a12.86,12.86,0,0,0,2.49,7.64,1,1,0,1,0,1.61-1.18A10.94,10.94,0,0,1,25,5V4h7A11,11,0,0,1,43,15v.05A13,13,0,0,0,31,7a1,1,0,0,0,0,2,11,11,0,0,1,10.31,7.18,6.06,6.06,0,0,0-.78.45c-8.45-5-21.78-2.49-30.1,5.83S-.42,44.11,4.59,52.56c-1.5,2.26-1.46,5,.18,6.67s4.41,1.69,6.67.18A19.57,19.57,0,0,0,21.51,62c.68,0,1.37,0,2.06-.09a1,1,0,1,0-.16-2Z"/><path d="M60,40H16a1,1,0,0,0-1,1c0,11.58,10.32,21,23,21a24.21,24.21,0,0,0,15.53-5.51A1,1,0,1,0,52.25,55,22.16,22.16,0,0,1,38,60c-11.21,0-20.39-8-21-18h2c.34,3.67,2.49,7.6,5.93,10.7A19.86,19.86,0,0,0,38,58a19.86,19.86,0,0,0,13-5.3c3.44-3.1,5.59-7,5.93-10.7h2a17.76,17.76,0,0,1-4,10.24,1,1,0,1,0,1.55,1.26A19.64,19.64,0,0,0,61,41,1,1,0,0,0,60,40ZM37,56a17.88,17.88,0,0,1-9.81-4l4.38-3.89L37,43.23ZM21.07,42h14.3l-9.68,8.6A14.92,14.92,0,0,1,21.07,42ZM39,43.23l5.43,4.82,4.38,3.89A17.88,17.88,0,0,1,39,56ZM50.31,50.6,40.63,42h14.3A14.92,14.92,0,0,1,50.31,50.6Z"/></g></g></svg>
