<?xml version="1.0"?>
<svg xmlns="http://www.w3.org/2000/svg" id="Layer_3" data-name="Layer 3" viewBox="0 0 64 64" width="512" height="512"><path d="M62.993,34a.991.991,0,0,0-1.207-.977L36.53,38.548A22.236,22.236,0,0,0,37,34c0-10-6.714-18.523-15.62-19.818l-.014,0a1.407,1.407,0,0,1-.49-.179h1.295A7.829,7.829,0,0,0,30,6.172V6a1,1,0,0,0-1-1H27.927a9.777,9.777,0,0,0-8.438,4.835,7.723,7.723,0,0,0-2.934-3.667l-1.11,1.664A5.724,5.724,0,0,1,18,12.605v.158l-.353.7a1.338,1.338,0,0,1-.991.712l-.038.006C7.714,15.478,1,24,1,34c0,9.741,6.367,18.074,14.922,19.7l.1.491A1,1,0,0,0,17,55h4a1,1,0,0,0,.981-.807l.1-.492a17.311,17.311,0,0,0,8.7-4.578A16.875,16.875,0,0,0,46.119,59h0A16.9,16.9,0,0,0,63,42.12V34ZM34.856,45.858c-.252-.294-.51-.582-.74-.9l-2.407-3.311,10.165-2.223Zm9.081-5.61-3.07,9.826a14.735,14.735,0,0,1-4.613-2.784Zm1.956.446,2.523,10.093A14.744,14.744,0,0,1,45.978,51a14.585,14.585,0,0,1-3.191-.367Zm4.469,9.628L48.031,41l6.2,7.445A14.6,14.6,0,0,1,50.362,50.322Zm5.452-3.107-6.8-8.155,10.264,3.421A14.616,14.616,0,0,1,55.814,47.215Zm4.741-9.262a14.82,14.82,0,0,1-.548,2.662L50.668,37.5l10.184-2.228ZM20.967,11.3A7.779,7.779,0,0,1,27.927,7h.015a5.831,5.831,0,0,1-5.771,5H20.618Zm.119,40.539a1,1,0,0,0-.837.8L20.177,53H17.823l-.072-.363a1,1,0,0,0-.837-.8C8.981,50.689,3,43.02,3,34S8.981,17.311,16.931,16.157A3.388,3.388,0,0,0,19,15.017a3.3,3.3,0,0,0,2,1.128l.065.011.02,0C29.019,17.311,35,24.98,35,34a20.077,20.077,0,0,1-.644,5.024l-4.57,1a1,1,0,0,0-.721.622.99.99,0,0,0-.056.472h0l.35,2.976a16.912,16.912,0,0,0,.628,2.973A15.342,15.342,0,0,1,21.086,51.841ZM46.121,57h0A14.873,14.873,0,0,1,31.49,44.749L32.5,46.136a16.66,16.66,0,0,0,28.412-2.417A14.9,14.9,0,0,1,46.121,57Z"/><path d="M46,32a3,3,0,1,0-3-3A3,3,0,0,0,46,32Zm0-4a1,1,0,1,1-1,1A1,1,0,0,1,46,28Z"/><path d="M58,24a3,3,0,1,0-3-3A3,3,0,0,0,58,24Zm0-4a1,1,0,1,1-1,1A1,1,0,0,1,58,20Z"/><path d="M55,34a3,3,0,1,0-3-3A3,3,0,0,0,55,34Zm0-4a1,1,0,1,1-1,1A1,1,0,0,1,55,30Z"/><circle cx="15" cy="48" r="2"/><circle cx="10" cy="44" r="2"/><circle cx="15" cy="43" r="2"/><circle cx="10" cy="38" r="2"/></svg>
