<svg height="511pt" viewBox="-7 0 511 511.99989" width="511pt" xmlns="http://www.w3.org/2000/svg"><path d="m488.484375 221.472656c-29.636719-86.261718-122.789063-133.03125-209.3125-106.0625-30.40625-33.398437-62.582031-109.941406-62.914063-110.734375-1.621093-3.878906-6.074218-5.703125-9.949218-4.085937-3.875 1.617187-5.703125 6.070312-4.085938 9.945312.472656 1.128906 4.429688 10.542969 10.695313 23.882813-30.867188 2.835937-61.089844 12.238281-87.933594 27.453125-3.65625 2.070312-4.9375 6.710937-2.867187 10.367187 1.402343 2.46875 3.972656 3.855469 6.621093 3.855469 1.269531 0 2.558594-.320312 3.742188-.992188 18.152343-10.289062 37.972656-17.710937 58.476562-22.023437-33.757812 26.121094-59.273437 61.636719-73.21875 102.605469-6.175781 18.136718-9.894531 36.8125-11.195312 55.582031-23.816407 12.597656-49.542969 20.246094-76.570313 22.71875-.027344 0-.054687.003906-.078125.007813 4.324219-47.425782 25.035157-91.738282 58.871094-125.570313 6.863281-6.855469 14.203125-13.230469 21.8125-18.953125 3.359375-2.523438 4.035156-7.289062 1.511719-10.644531-2.523438-3.359375-7.289063-4.035157-10.648438-1.511719-8.179687 6.148438-16.058594 12.992188-23.425781 20.351562-38.542969 38.539063-61.238281 89.738282-63.910156 144.15625-.105469 2.144532.699219 4.234376 2.222656 5.753907.519531.515625 1.105469.949219 1.738281 1.292969-11.511718 23.171874-17.566406 48.816406-17.566406 74.910156 0 39.003906 13.644531 77.03125 38.421875 107.074218 23.570313 28.582032 56.09375 48.714844 91.9375 57.007813 6.871094 14.601563 21.652344 24.140625 38.042969 24.140625 16.386718 0 31.167968-9.539062 38.046875-24.140625 32.09375-7.390625 60.871093-23.816406 83.707031-47.757813 18.246094 4.304688 37.167969 5.585938 55.902344 3.640626 8 8.234374 18.945312 12.746093 30.179687 12.746093 4.5625 0 9.171875-.746093 13.648438-2.285156 15.507812-5.324219 26.386719-19.144531 28.136719-35.1875 10.046874-6.269531 19.433593-13.621094 27.957031-21.894531 3.015625-2.921875 3.085937-7.738282.160156-10.75-2.925781-3.015625-7.738281-3.085938-10.753906-.160156-8.636719 8.382812-18.257813 15.730468-28.589844 21.832031-2.304687 1.363281-3.726563 3.839843-3.738281 6.519531-.039063 11.402344-7.320313 21.554688-18.117188 25.261719-10.792968 3.710937-22.773437.175781-29.820312-8.792969-1.652344-2.105469-4.296875-3.183594-6.949219-2.84375-34.449219 4.445312-69.832031-3.175781-99.628906-21.449219-30.191407-18.519531-53.167969-47.199219-64.695313-80.753906-4.367187-12.71875-7.023437-25.855469-7.953125-39.097656 26.9375-24.648438 47.449219-55.816407 59.425781-91.003907 5.410157-15.882812 8.933594-32.179687 10.601563-48.589843 10.289063-6.597657 21.375-11.976563 33.019531-15.972657 79.890625-27.445312 167.214844 15.214844 194.660156 95.09375 16.238282 47.257813 8.347657 99.625-21.109374 140.085938-2.46875 3.394531-1.722657 8.148438 1.671874 10.621094 1.351563.984375 2.917969 1.457031 4.46875 1.457031 2.351563 0 4.667969-1.085937 6.15625-3.128906 32.371094-44.472657 41.042969-102.035157 23.195313-153.976563zm-318.519531 109.449219c12.671875 36.886719 37.933594 68.414063 71.125 88.773437 10.417968 6.394532 21.464844 11.589844 32.898437 15.558594-20.679687 19.566406-46.0625 32.824219-74.082031 38.578125-2.621094.539063-4.765625 2.417969-5.648438 4.945313-3.761718 10.773437-13.949218 18.015625-25.355468 18.015625s-21.59375-7.238281-25.34375-18.011719c-.878906-2.53125-3.027344-4.410156-5.652344-4.949219-34.027344-6.988281-65.011719-25.6875-87.253906-52.65625-22.535156-27.328125-34.945313-61.917969-34.945313-97.398437 0-26.375 6.792969-52.242188 19.644531-75.066406 24.726563-2.707032 48.433594-9.472657 70.683594-20.164063.289063 28.890625 6.304688 57.664063 17.996094 84.699219.851562 1.96875 2.496094 3.488281 4.527344 4.179687.796875.273438 1.625.40625 2.453125.40625 1.273437 0 2.546875-.320312 3.6875-.953125 9.71875-5.390625 18.945312-11.484375 27.632812-18.1875 1.484375 10.910156 4.019531 21.703125 7.632813 32.230469zm51.460937-139.941406c-15.425781 45.308593-46.039062 83.460937-86.679687 108.277343-17.058594-44.460937-18.035156-93.367187-2.609375-138.675781 15.421875-45.308593 46.039062-83.460937 86.679687-108.273437 17.058594 44.457031 18.035156 93.363281 2.609375 138.671875zm24.019531-95.910157c5.941407 9.449219 12.160157 18.367188 18.4375 25.917969-5.609374 2.355469-11.074218 5.023438-16.382812 7.960938.195312-11.328125-.488281-22.652344-2.054688-33.878907zm0 0"/><path d="m354.105469 187.636719c3.582031 0 6.738281-2.605469 7.449219-6.113281 1.34375-6.636719-6.394532-11.570313-11.871094-7.679688-2.722656 1.9375-3.882813 5.601562-2.742188 8.75 1.089844 2.992188 3.972656 5.042969 7.164063 5.042969zm0 0"/><path d="m370.652344 156.160156c-2.566406 1.921875-3.640625 5.410156-2.628906 8.445313 1.027343 3.082031 3.964843 5.214843 7.21875 5.214843 3.667968 0 6.84375-2.703124 7.488281-6.296874 1.191406-6.683594-6.695313-11.402344-12.078125-7.363282zm0 0"/><path d="m360.324219 153.21875c.816406-6.761719-7.316407-11.109375-12.507813-6.683594-5.230468 4.460938-1.925781 13.359375 4.960938 13.359375 3.777344 0 7.09375-2.917969 7.546875-6.675781zm0 0"/><path d="m58.652344 400.269531c-2.351563 2.070313-3.183594 5.511719-2.050782 8.425781 1.121094 2.90625 3.972657 4.867188 7.089844 4.867188 3.9375 0 7.285156-3.125 7.582032-7.042969.503906-6.652343-7.632813-10.644531-12.621094-6.25zm0 0"/><path d="m79.78125 382.464844c-5.082031 4.546875-1.808594 13.285156 5.050781 13.285156 3.730469 0 6.960938-2.804688 7.519531-6.480469 1.039063-6.855469-7.390624-11.4375-12.570312-6.804687zm0 0"/><path d="m62.375 385.824219c3.328125 0 6.324219-2.253907 7.273438-5.433594.941406-3.144531-.308594-6.679687-3.054688-8.496094-2.867188-1.894531-6.777344-1.625-9.328125.6875-5.058594 4.589844-1.691406 13.242188 5.109375 13.242188zm0 0"/></svg>