<svg height="512" viewBox="0 0 60 60" width="512" xmlns="http://www.w3.org/2000/svg"><g id="Page-1" fill="none" fill-rule="evenodd"><g id="048---Mango" fill="rgb(0,0,0)" fill-rule="nonzero"><path id="Shape" d="m26.9 11.142c-9.95.982-11.826 7.116-14.666 16.4-.1161382.3449876-.03564.7258343.2101657.9943191.2458057.2684849.6180881.3821946.9719596.2968747.3538716-.0853198.63343-.356191.7298747-.7071938 2.791-9.12 4.327-14.145 12.952-15 .2646032-.0252873.5082513-.1548808.6771226-.3601532.1688713-.2052725.249069-.4693316.2228774-.7338468-.0251333-.2646572-.1556524-.5080852-.3621761-.6754861-.2065238-.1674008-.471696-.2447062-.7358239-.2145139z"/><path id="Shape" d="m59.438 4.5c-.245-.12-6.042-2.9-10.322-.583-.7626575.41814487-1.4473836.96484324-2.024 1.616-.5222363-2.10419971-1.7379046-3.97120685-3.451-5.3-.424707-.35401453-1.0559855-.29670697-1.41.128s-.296707 1.05598548.128 1.41c2.1603063 1.55494944 3.2635072 4.19196294 2.854 6.822-.0900617.55023016-.2375337 1.08950821-.44 1.609-3.832-2.13-8.736-3.202-14.773-3.202-15.664 0-18.41 8.979-21.59 19.374-.431 1.409-.873 2.853-1.358 4.31-1.1686597 3.6068983-2.67744196 7.0945761-4.506 10.416-1.533 2.87-2.546 4.766-2.546 8.9 0 6.729 6.215 10 19 10 9.612 0 36-6.636 36-28 0-7.052-1.457-12.564-4.365-16.612.062 0 .128.011.19.011 1.3857869.0296663 2.7571167-.28653 3.99-.92 4.285-2.317 5.142-8.679 5.177-8.952.0549142-.42575885-.1680379-.8390654-.554-1.027zm-40.438 53.5c-11.439 0-17-2.617-17-8 0-3.633.82-5.17 2.311-7.96 1.87818584-3.4215192 3.43067773-7.0119706 4.637-10.724.491-1.473.938-2.932 1.374-4.357 3.07-10.034 5.494-17.959 19.678-17.959 15.691 0 23 7.309 23 23 0 19.6-25.286 26-34 26zm34.865-45.28c-1.584692.7170983-3.3636065.8839375-5.054.474-.7186783-.7027933-1.4961816-1.342795-2.324-1.913.301502-.7008378.5229045-1.43347888.66-2.184.5792678-1.42354427 1.6027053-2.62199725 2.918-3.417 2.634-1.427 6.3-.263 7.81.328-.334 1.583-1.375 5.286-4.01 6.712z"/><circle id="Oval" cx="31" cy="12" r="1"/></g></g></svg>