<?xml version="1.0" encoding="UTF-8"?>
<svg xmlns="http://www.w3.org/2000/svg" id="Layer_1" data-name="Layer 1" viewBox="0 0 512 512" width="512" height="512"><path d="M469.636,303.271a3.39,3.39,0,0,0-3.638-5.16c-3.735.912-6.678,1.482-8.942,1.821,11.531-10.155,10.695-21.983,10.059-25.754a3.567,3.567,0,0,0-2-2.636,3.6,3.6,0,0,0-3.335.142,14.74,14.74,0,0,1-4.357,1.612c5.311-7.911,6.16-17.5,6.291-20.675a3.6,3.6,0,0,0-4.951-3.5l-4.991,2.047c2.066-9.317-.716-20.468-1.779-24.153a3.584,3.584,0,0,0-6.186-1.316l-2.38,2.819a85.338,85.338,0,0,0-6.641-21.3,3.442,3.442,0,0,0-4.6-1.648,81.647,81.647,0,0,0-18.081,11.9L414,213.787a3.591,3.591,0,0,0-5.622-2.853c-3.9,2.684-12.185,9.05-16.135,17.042l-2.576-4.679a3.589,3.589,0,0,0-6.03-.408c-1.831,2.472-6.992,10.188-7.805,19.47a15.164,15.164,0,0,1-2.309-3.917,3.573,3.573,0,0,0-5.689-1.409c-2.789,2.444-10.615,10.8-8.093,25.654-1.519-1.683-3.393-3.936-5.643-6.9a3.377,3.377,0,0,0-6.058,1.745c-.289,3.375-.521,12,2.825,23.663A59.12,59.12,0,0,1,344,276.672a4.34,4.34,0,0,0-6.846,2.413c-2.007,8.057,1.778,18.615,4.712,25.083a17.564,17.564,0,0,1-5.8-2.457,3.872,3.872,0,0,0-5.9,4.166c.21.829.363,1.836.541,3,.675,4.43,1.646,10.8,7.234,20.959l-.57-.233a3.937,3.937,0,0,0-5.425,3.638,36.235,36.235,0,0,0,5.824,20.282,19.723,19.723,0,0,0-2.007-.148,4.332,4.332,0,0,0-4.143,5.847c10,26.759,37.306,44.753,49.416,49.541.761,6.543,1.733,13.111,2.9,19.648-7.141-8.375-15.12-16.994-23.894-25.447a2.986,2.986,0,0,0-.586-.564,292.746,292.746,0,0,0-34.55-28.557c-27.944-19.564-44.017-45.211-53.256-67.693-3.407-30.862-3.238-59.554.3-85.175a50.579,50.579,0,0,0,9.525.9A84.7,84.7,0,0,0,301.2,219.1a4.391,4.391,0,0,0,2.632-6.707,19.9,19.9,0,0,0-1.339-1.77c8.68-.139,19.138-1.507,26.294-6.412a3.966,3.966,0,0,0,.036-6.524l-.732-.512c11.72-.981,17.637-3.8,21.741-5.762,1.069-.511,1.994-.952,2.8-1.244a3.867,3.867,0,0,0,2.557-3.529,3.907,3.907,0,0,0-2.351-3.723,17.4,17.4,0,0,1-5.357-3.7c7-1.154,18.029-3.915,23.709-10.251a4.42,4.42,0,0,0,1-4.054,4.345,4.345,0,0,0-2.758-3.031,57.549,57.549,0,0,1-7.709-3.39c11.719-3.78,18.878-8.94,21.561-11.123a3.39,3.39,0,0,0-1.935-6.008c-3.84-.244-6.82-.58-9.083-.933,14.034-6.25,16.759-17.791,17.275-21.579a3.58,3.58,0,0,0-4.346-3.97,14.733,14.733,0,0,1-4.642.236c7.429-5.965,11.1-14.867,12.164-17.856a3.6,3.6,0,0,0-.534-3.428,3.553,3.553,0,0,0-3.149-1.386l-5.375.463c4.747-8.277,5.412-19.753,5.5-23.586a3.584,3.584,0,0,0-5.511-3.1l-3.114,1.98a85.4,85.4,0,0,0,.006-22.324,3.444,3.444,0,0,0-3.9-2.937A81.646,81.646,0,0,0,355.828,48.9l.991-3.56a3.588,3.588,0,0,0-4.513-4.4c-3.552,1.1-14.03,4.763-20.473,11.469l-1.069-5.257a3.591,3.591,0,0,0-5.634-2.191c-2.484,1.813-9.708,7.633-13.249,16.253a15.134,15.134,0,0,1-1.038-4.427,3.6,3.6,0,0,0-1.725-2.838,3.562,3.562,0,0,0-3.283-.207c-3.391,1.5-13.352,7.143-15.367,22.068-.949-2.06-2.067-4.767-3.328-8.266a3.377,3.377,0,0,0-6.306-.147c-1.281,3.135-4.071,11.3-4.351,23.426a59.648,59.648,0,0,1-5.2-6.359,4.338,4.338,0,0,0-7.255.258c-4.314,7.089-3.847,18.293-2.973,25.346a17.6,17.6,0,0,1-4.8-4.078,3.871,3.871,0,0,0-6.873,2.217c-.048.854-.2,1.861-.379,3.027-.676,4.429-1.647,10.8.662,22.163l-.473-.392a3.935,3.935,0,0,0-6.262,1.855,36.249,36.249,0,0,0-.483,21.1,19.7,19.7,0,0,0-1.866-.738,4.331,4.331,0,0,0-5.7,4.344c1.6,28.879,21.908,51.343,31.262,59.052a324.458,324.458,0,0,0-2.5,63.115,169.765,169.765,0,0,1-3.455-17.619,268.169,268.169,0,0,0-14.647-58.258,275.1,275.1,0,0,0-25.292-50.411c7.417-12.137,12.006-35.758,5.166-61.433a4.331,4.331,0,0,0-6.769-2.358A19.31,19.31,0,0,0,217.1,92.93a36.235,36.235,0,0,0-7.008-19.9,3.937,3.937,0,0,0-6.53.185l-.326.517C201.9,62.221,199,56.468,196.986,52.469c-.531-1.053-.99-1.962-1.3-2.76a3.834,3.834,0,0,0-3.595-2.461h0a3.868,3.868,0,0,0-3.625,2.492,17.612,17.612,0,0,1-3.3,5.369c-1.358-6.973-4.393-17.765-10.694-23.162a4.34,4.34,0,0,0-6.977,2.009,59.233,59.233,0,0,1-2.967,7.665c-4.03-11.442-9.216-18.329-11.408-20.91a3.376,3.376,0,0,0-5.945,2.094c-.114,3.724-.335,6.649-.6,8.9-6.55-13.561-17.769-15.821-21.459-16.192a3.568,3.568,0,0,0-3.051,1.213,3.606,3.606,0,0,0-.763,3.233,15.2,15.2,0,0,1,.388,4.537c-6.042-7.088-14.714-10.372-17.64-11.322a3.59,3.59,0,0,0-4.672,3.832l.613,5.312C92.146,18.1,81.7,17.735,76.973,17.812a3.589,3.589,0,0,0-2.92,5.584L76.1,26.475a81.548,81.548,0,0,0-21.631.808,3.443,3.443,0,0,0-2.788,4.008,85.334,85.334,0,0,0,6.935,21.214L55.04,51.59a3.585,3.585,0,0,0-4.273,4.66c1.27,3.62,5.467,14.322,12.548,20.71L58.06,78.194a3.567,3.567,0,0,0-2.56,2.29,3.606,3.606,0,0,0,.552,3.428C58,86.421,64.247,93.742,73.16,97.1a14.76,14.76,0,0,1-4.491,1.221,3.581,3.581,0,0,0-2.893,5.124c1.667,3.44,7.837,13.56,23.116,15.133-2.042,1.042-4.77,2.288-8.342,3.716a3.389,3.389,0,0,0,.031,6.312c3.222,1.239,11.6,3.905,23.941,3.86a58.049,58.049,0,0,1-6.276,5.623,4.348,4.348,0,0,0-1.68,3.738,4.428,4.428,0,0,0,2.206,3.544c7.366,4.251,18.7,3.444,25.714,2.363a17.417,17.417,0,0,1-3.943,5.185,3.911,3.911,0,0,0-1.075,4.273A3.863,3.863,0,0,0,123,159.748c.857.027,1.872.159,3.048.311,4.509.585,11.006,1.425,22.448-1.289l-.537.714a3.967,3.967,0,0,0,2.064,6.189c8.326,2.436,18.687.48,26.977-2.09a20.347,20.347,0,0,0-.722,2.1,4.393,4.393,0,0,0,4.228,5.572c.118,0,.238,0,.357-.015,12.609-1.035,25.806-6.494,34.874-11.748a270.039,270.039,0,0,1,24.2,48.5,262.124,262.124,0,0,1,14.31,56.952c.3,2.19.709,4.713,1.229,7.5q-3.442-2.4-6.827-4.615c.527-14.779-5.442-42.979-24.508-61.807a4.33,4.33,0,0,0-7.029,1.4,19.556,19.556,0,0,0-.683,1.89,36.173,36.173,0,0,0-16.113-13.59,3.937,3.937,0,0,0-5.534,3.469l-.02.616c-6.978-9.247-12.391-12.732-16.154-15.155-.991-.639-1.846-1.189-2.516-1.718a3.872,3.872,0,0,0-6.212,3.686,17.622,17.622,0,0,1-.125,6.307c-4.7-5.321-12.783-13.083-20.945-14.534a4.341,4.341,0,0,0-5,5.268,59.371,59.371,0,0,1,1.324,8.119c-9.27-7.817-17.227-11.12-20.421-12.231a3.376,3.376,0,0,0-4.064,4.817c1.788,3.272,3.08,5.908,4,7.984-12.514-8.366-23.331-4.619-26.7-3.066a3.566,3.566,0,0,0-2.016,2.6,3.6,3.6,0,0,0,.982,3.171,15.108,15.108,0,0,1,2.634,3.719c-8.8-3.048-17.942-1.473-20.945-.806a3.591,3.591,0,0,0-2.083,5.67l3.221,4.272c-8.9.35-18.091,5.331-22.13,7.8a3.591,3.591,0,0,0,.315,6.294l3.325,1.613A81.707,81.707,0,0,0,43,235.29a3.452,3.452,0,0,0-.364,4.861,85.107,85.107,0,0,0,16.721,14.767L55.8,255.949a3.586,3.586,0,0,0-1.322,6.182c2.929,2.474,11.964,9.567,21.3,11.481l-3.912,3.738a3.6,3.6,0,0,0,1.174,5.941c2.948,1.175,12.039,4.316,21.419,2.685a14.842,14.842,0,0,1-3.25,3.332,3.581,3.581,0,0,0,.1,5.883c3.179,2.119,13.62,7.708,27.583,1.313-1.233,1.935-2.953,4.394-5.309,7.437a3.39,3.39,0,0,0,3.231,5.423c3.406-.569,12-2.528,22.583-8.824a57.991,57.991,0,0,1-2.562,8.03,4.345,4.345,0,0,0,.451,4.076,4.464,4.464,0,0,0,3.695,1.932c8.5-.073,17.858-6.518,23.357-11.013a17.432,17.432,0,0,1-.775,6.466,3.91,3.91,0,0,0,1.241,4.23,3.866,3.866,0,0,0,4.336.412c.751-.412,1.694-.814,2.784-1.28,4.18-1.785,10.206-4.358,18.69-12.5l-.1.88a3.966,3.966,0,0,0,4.918,4.289c8.4-2.128,16.343-9.07,22.19-15.494a19.907,19.907,0,0,0,.438,2.167,4.389,4.389,0,0,0,6.77,2.465c10.529-7.424,17.217-14.019,21.759-21.54q5.286,3.5,10.725,7.478a185.079,185.079,0,0,0,8.482,26.526,2.969,2.969,0,0,0,.423,1.054c9.606,23.262,26.291,49.774,55.244,70.044a280.6,280.6,0,0,1,27.591,22.132c-7.657-.685-15.34-1.1-22.962-1.233-6.44-12.1-26.906-37.21-53.889-44.414a4.332,4.332,0,0,0-5.414,4.7,19.346,19.346,0,0,0,.343,1.986,36.129,36.129,0,0,0-20.723-3.822,3.938,3.938,0,0,0-3.091,5.753l.291.552c-10.637-4.578-17.066-4.924-21.535-5.164-1.176-.063-2.191-.118-3.035-.245a3.872,3.872,0,0,0-3.571,6.277,17.641,17.641,0,0,1,3.009,5.548c-6.715-2.292-17.576-5.032-25.389-2.246a4.342,4.342,0,0,0-1.731,7.049,59.232,59.232,0,0,1,5.167,6.4c-11.92-2.2-20.471-1.123-23.793-.507a3.378,3.378,0,0,0-1.148,6.2c3.175,1.957,5.6,3.608,7.423,4.959-15.011-1.072-22.564,7.55-24.722,10.569a3.574,3.574,0,0,0,1.957,5.521,15.148,15.148,0,0,1,4.128,1.927c-9.155,1.713-16.322,7.614-18.6,9.68a3.592,3.592,0,0,0,1,5.961l4.929,2.123c-7.873,4.95-13.595,14.48-15.392,17.739a3.59,3.59,0,0,0,3.388,5.315l3.681-.246A81.877,81.877,0,0,0,129.3,470.467a3.455,3.455,0,0,0,2.09,4.409,85.09,85.09,0,0,0,21.825,4.54l-2.581,2.659a3.586,3.586,0,0,0,1.915,6.024c3.767.7,15.122,2.382,24.18-.581l-1.547,5.174a3.6,3.6,0,0,0,3.958,4.591c3.141-.44,12.587-2.219,19.932-8.281a14.822,14.822,0,0,1-1.177,4.5,3.579,3.579,0,0,0,3,5.062c3.8.267,15.642-.053,24.61-12.524-.114,2.291-.394,5.276-.936,9.084a3.386,3.386,0,0,0,5.492,3.113c2.676-2.181,9.174-8.143,15.258-18.859a58.156,58.156,0,0,1,1.742,8.24,4.345,4.345,0,0,0,2.409,3.322,4.418,4.418,0,0,0,4.168-.153c7.349-4.278,12.292-14.516,14.847-21.147a17.422,17.422,0,0,1,2.522,6,3.908,3.908,0,0,0,3.167,3.065,3.857,3.857,0,0,0,3.974-1.788c.451-.731,1.071-1.547,1.788-2.493,2.75-3.623,6.712-8.845,10.058-20.128l.346.808a3.964,3.964,0,0,0,6.4,1.294c6.251-6.014,9.717-15.983,11.621-24.462a20.354,20.354,0,0,0,1.449,1.663,4.388,4.388,0,0,0,7.1-1.21c1.2-2.552,2.313-4.8,3.39-6.981,3.646-7.367,6.412-12.966,6.879-19.683,9.712.19,19.485.827,29.1,1.938a359.407,359.407,0,0,1,30.3,33.344,2.984,2.984,0,0,0,.653.815c22.469,28.137,34.582,51.308,34.788,51.709a3,3,0,0,0,5.333-2.75c-.21-.407-12.521-23.978-35.382-52.62-2.071-9.566-3.676-19.341-4.822-29.1,6.652-1.128,11.979-4.444,18.985-8.813,2.033-1.268,4.134-2.579,6.518-4a4.392,4.392,0,0,0,.511-7.186,19.9,19.9,0,0,0-1.806-1.29c8.243-2.725,17.819-7.153,23.188-13.97a3.968,3.968,0,0,0-1.909-6.24l-.851-.27c10.9-4.437,15.7-8.9,19.038-11.995.869-.807,1.62-1.5,2.3-2.023a3.866,3.866,0,0,0,1.389-4.13,3.906,3.906,0,0,0-3.355-2.853,17.345,17.345,0,0,1-6.213-1.933c6.341-3.192,16.041-9.119,19.578-16.865a4.424,4.424,0,0,0-.26-4.168,4.341,4.341,0,0,0-3.537-2.068,57.7,57.7,0,0,1-8.365-.933C462.432,313.215,467.729,306.153,469.636,303.271ZM208.988,139.213l2.214-34.482a3,3,0,0,0-5.988-.385l-1.783,27.771q-5.195-6.4-10.506-12.1l.683-45.459a3,3,0,0,0-6-.09l-.591,39.405q-5.778-5.77-11.541-10.72L171.445,61.1a3,3,0,1,0-5.972.572L168.93,97.74A169.815,169.815,0,0,0,152.7,86.351L138.253,42.635a3,3,0,1,0-5.7,1.883L144.9,81.884q-3.358-1.771-6.551-3.2-7.227-3.229-13.7-6.441l-19.12-35.989a3,3,0,0,0-5.3,2.815l15.094,28.41C90.286,54.251,76.152,43.2,75.975,43.059a3,3,0,0,0-3.718,4.709c.717.566,13.922,10.9,37.663,23.647l-33.907-.253H75.99a3,3,0,0,0-.022,6l45.77.341q6.671,3.294,14.167,6.659c1.289.576,2.61,1.213,3.946,1.878L94.613,89.133a3,3,0,0,0,.2,5.993c.069,0,.138,0,.208-.007L149.476,91.4a162.641,162.641,0,0,1,15.143,10.557l-58.82,2.1a3,3,0,0,0,.1,6c.036,0,.073,0,.11,0l65.606-2.343q5.858,5.049,11.769,10.977l-51.149,4.023a3,3,0,0,0,.233,5.99c.078,0,.158,0,.238-.009l56.038-4.406q5.754,6.21,11.4,13.264l-37.561,2.8a3,3,0,0,0,.22,5.992q.111,0,.225-.009l41.5-3.088q4.03,5.379,7.923,11.218c-7.82,4.5-18.8,9.118-29.525,10.528a14.764,14.764,0,0,1,1.013-1.774,4.395,4.395,0,0,0-.188-5.148,4.349,4.349,0,0,0-4.895-1.422c-5.749,2.045-15.972,5.026-24.2,3.9l2.184-2.907a3.958,3.958,0,0,0-4.307-6.166c-13.247,3.982-20.336,3.332-25.051,2.733a24.445,24.445,0,0,0,4.041-8.122,3.9,3.9,0,0,0-4.524-4.883c-7.431,1.512-16.929,2.179-23.041-.013a59.242,59.242,0,0,0,7.6-7.616,4.4,4.4,0,0,0-3.624-7.186,71.4,71.4,0,0,1-18.423-1.418c8.306-3.918,9.433-6.067,9.912-6.98a3.628,3.628,0,0,0-3.484-5.3c-13.4.986-20.107-4.979-23.1-9.082A25.616,25.616,0,0,0,81.481,99a3.592,3.592,0,0,0-1.748-6.355c-7.231-1.011-13.1-5.983-16.444-9.51l6.6-1.55a3.562,3.562,0,0,0,2.747-3.071,3.621,3.621,0,0,0-1.958-3.645c-5.176-2.62-9.61-9.541-12.559-16.293l4.507,1.151a3.59,3.59,0,0,0,3.891-5.447c-4.825-7.4-7.364-16.784-8.412-21.486,4.651-.628,13.966-1.451,22.258.484a3.592,3.592,0,0,0,3.815-5.487L81.6,23.911c7.1.427,14.831,2.173,18.917,6.081a3.589,3.589,0,0,0,6.053-3l-.776-6.719c4.319,1.925,10.692,5.682,13.981,12.033a3.579,3.579,0,0,0,6.575-.529,26.3,26.3,0,0,0,1.328-9.652c4.726,1.407,12.291,5.659,15.813,18.468a3.608,3.608,0,0,0,6.191,1.429c.667-.76,2.227-2.54,3.05-11.49A72.241,72.241,0,0,1,160.007,47.1a4.357,4.357,0,0,0,7.946.924,60.375,60.375,0,0,0,4.391-9.643c3.963,5.008,6.47,14.055,7.546,21.488a3.834,3.834,0,0,0,2.341,3.014,3.9,3.9,0,0,0,3.8-.468,24.437,24.437,0,0,0,5.985-6.461c2.109,4.225,4.995,10.673,5.748,24.328a3.927,3.927,0,0,0,7.241,1.889l1.912-3.029c3.491,5.893,4.279,11.395,4.323,18.043a4.312,4.312,0,0,0,3.013,4.095,4.357,4.357,0,0,0,4.871-1.631,14.99,14.99,0,0,1,1.144-1.411c3.135,13.914,4.212,36.417-3.715,51.594Q212.836,144.325,208.988,139.213Zm2.855,85.7,11.04,28.276q-7.079-3.416-13.8-6.026l-22.169-41.7a3,3,0,0,0-5.3,2.816l19.053,35.838c-5.3-1.765-10.4-3.18-15.306-4.293l-24.379-34.744a3,3,0,0,0-4.912,3.446l20.782,29.617a135.6,135.6,0,0,0-19.492-1.85L123,205.989a3,3,0,0,0-3.969,4.5l29.407,25.941c-2.481.128-4.858.321-7.11.574-5.243.591-10.272,1.049-15.068,1.4L91.565,217.1a3,3,0,0,0-3.14,5.113l27.4,16.826C87.534,240.347,69.753,238,69.53,237.966a3,3,0,0,0-.815,5.945c.906.124,17.516,2.328,44.432,1.261l-29.357,17a3,3,0,1,0,3.006,5.192l39.623-22.943q7.418-.547,15.585-1.454c1.325-.149,2.7-.272,4.11-.378l-37.2,25.633a3,3,0,1,0,3.4,4.941l44.8-30.869a129.435,129.435,0,0,1,18.574,1.742l-49.563,31.358a3,3,0,1,0,3.208,5.07l54.91-34.741a157.456,157.456,0,0,1,16.173,4.648L158.424,278a3,3,0,0,0,3.3,5.013l45.689-30.064c4.883,1.922,9.915,4.142,15.1,6.723l-28.952,18.09a3,3,0,1,0,3.179,5.089l31.946-19.961q6.3,3.4,12.864,7.511c-3.806,6.349-9.407,12.043-18.087,18.4a14.716,14.716,0,0,1-.029-2.087,4.395,4.395,0,0,0-2.77-4.344,4.347,4.347,0,0,0-4.94,1.258c-3.92,4.681-11.223,12.44-18.88,15.644l.411-3.613a3.956,3.956,0,0,0-6.838-3.129c-9.4,10.154-15.838,13.195-20.2,15.073a24.459,24.459,0,0,0-.63-9.049,3.9,3.9,0,0,0-6.376-1.913c-5.636,5.072-13.483,10.469-19.861,11.686a59.282,59.282,0,0,0,2.689-10.417,4.4,4.4,0,0,0-6.764-4.359,71.514,71.514,0,0,1-16.592,8.131c5.173-7.591,5.056-10.014,5.008-11.043a3.629,3.629,0,0,0-5.694-2.807c-11.046,7.648-19.847,5.917-24.5,3.9a25.689,25.689,0,0,0,5.112-8.345,3.592,3.592,0,0,0-4.73-4.592c-6.744,2.8-14.316,1.5-18.984.152l4.91-4.691a3.559,3.559,0,0,0,.809-4.041,3.628,3.628,0,0,0-3.536-2.146C75.3,268.436,67.959,264.724,62,260.4l4.476-1.3a3.591,3.591,0,0,0,.587-6.667c-7.907-3.933-14.841-10.727-18.126-14.25,3.689-2.9,11.3-8.342,19.433-10.886a3.593,3.593,0,0,0,.506-6.664l-4.185-2.03c6.336-3.238,13.886-5.659,19.387-4.365a3.59,3.59,0,0,0,3.7-5.654l-4.074-5.4c4.7-.535,12.1-.533,18.147,3.272a3.579,3.579,0,0,0,5.4-3.787,26.239,26.239,0,0,0-3.745-9c4.785-1.189,13.457-1.367,22.98,7.885a3.608,3.608,0,0,0,6.063-1.9c.19-.994.635-3.322-3.191-11.459a72.1,72.1,0,0,1,14.656,10.586,4.357,4.357,0,0,0,7.317-3.231,60.4,60.4,0,0,0-1.1-10.547c5.949,2.3,12.69,8.829,17.381,14.687a3.839,3.839,0,0,0,3.542,1.415,3.907,3.907,0,0,0,3.047-2.334,24.441,24.441,0,0,0,1.887-8.611c3.957,2.571,9.709,6.664,17.269,18.049a3.927,3.927,0,0,0,7.2-2.039l.115-3.589c5.991,3.307,9.455,7.649,12.86,13.357a4.309,4.309,0,0,0,4.671,2,4.356,4.356,0,0,0,3.373-3.875,14.823,14.823,0,0,1,.272-1.794c15.124,16.318,20.209,38.986,20.765,51.717-3.966-2.432-7.858-4.65-11.686-6.7l-13.491-34.554a3,3,0,0,0-5.59,2.183Zm29.247-62.928a15.045,15.045,0,0,1,1.514.979,4.339,4.339,0,0,0,6.727-4.793c-2.022-6.335-2.981-11.81-1.492-18.5l2.758,2.284a3.928,3.928,0,0,0,6.3-4.046C253.368,124.7,254.11,117.67,254.8,113a24.325,24.325,0,0,0,7.693,4.277,3.9,3.9,0,0,0,3.764-.738,3.836,3.836,0,0,0,1.286-3.592c-1.284-7.4-1.71-16.779.5-22.773a60.034,60.034,0,0,0,7.167,7.8,4.357,4.357,0,0,0,7.264-3.347,72.281,72.281,0,0,1,1.77-18.009c3.559,8.248,5.6,9.455,6.467,9.97a3.609,3.609,0,0,0,5.439-3.286c-.629-13.268,5.241-19.664,9.3-22.474a26.284,26.284,0,0,0,4.259,8.758,3.579,3.579,0,0,0,6.413-1.538c1.155-7.062,6.045-12.616,9.553-15.79l1.348,6.625a3.589,3.589,0,0,0,6.687.965c2.67-4.985,9.473-9.05,16.089-11.666l-1.249,4.483a3.593,3.593,0,0,0,5.334,4.028c7.276-4.416,16.385-6.536,21-7.387.464,4.8.962,14.5-1.324,23.038a3.59,3.59,0,0,0,5.39,3.968l3.924-2.5c-.7,7.336-2.772,15.291-6.881,19.395a3.625,3.625,0,0,0-.725,4.075,3.565,3.565,0,0,0,3.568,2.06l6.751-.582c-2.083,4.4-6.118,10.947-12.68,14.16a3.592,3.592,0,0,0,.32,6.583,25.79,25.79,0,0,0,9.625,1.683c-1.567,4.831-6.094,12.588-19.132,15.822a3.629,3.629,0,0,0-1.665,6.124c.74.719,2.48,2.411,11.588,3.549a71.491,71.491,0,0,1-17.073,7.084,4.4,4.4,0,0,0-1.21,7.957,59.137,59.137,0,0,0,9.583,4.874c-5.13,3.987-14.367,6.31-21.9,7.186a3.9,3.9,0,0,0-2.785,6.045,24.427,24.427,0,0,0,6.365,6.465c-4.3,2.036-10.833,4.861-24.662,5.2a3.959,3.959,0,0,0-2.178,7.2l2.981,2.084c-7.466,3.632-18.117,3.982-24.212,3.829h-.112a4.35,4.35,0,0,0-4.1,2.875,4.394,4.394,0,0,0,1.422,4.951,14.806,14.806,0,0,1,1.548,1.407c-10.127,2.24-17.231,2.595-24.476,1.2q1.171-7.251,2.721-14.138L310.6,189.819a3,3,0,0,0-1.809-5.721L277.2,194.086q2.137-8.319,4.828-16.05l51.82-14.391a3,3,0,1,0-1.606-5.782L284.621,171.09a158.724,158.724,0,0,1,7-15.327l61.732-18.122a3,3,0,1,0-1.689-5.757l-55.822,16.387a123.358,123.358,0,0,1,10.64-15.018l52.662-13.219a3,3,0,0,0-1.46-5.82l-43.808,11c.992-.975,1.992-1.938,3.016-2.866q6.083-5.515,11.4-10.74l43.4-14.572a3,3,0,0,0-1.91-5.688l-32.144,10.794c18.608-19.5,27.949-33.437,28.455-34.2a3,3,0,0,0-5-3.32c-.125.189-10.127,15.091-29.82,35.458L336.8,68.384a3,3,0,0,0-5.91-1.03l-7,40.158q-5.158,5.051-11.023,10.387c-1.6,1.451-3.282,3.077-5.019,4.877l-.076-39.169a3,3,0,0,0-3-2.994h-.006a3,3,0,0,0-2.994,3.006l.089,45.876a132.781,132.781,0,0,0-11.125,15.785l-8.946-35.192a3,3,0,1,0-5.814,1.479l10.49,41.267c-2.334,4.422-4.6,9.236-6.746,14.465L264.7,129.1a3,3,0,0,0-5.584,2.2l17.428,44.314q-1.557,4.387-2.991,9.117c-.559,1.855-1.085,3.739-1.6,5.633L257.143,162.8a3,3,0,0,0-5.286,2.84l17.932,33.374q-1.418,6.191-2.542,12.626C256.827,202.02,243.282,183.09,241.09,161.987Zm73.837,260.757c-.727,1.468-1.522,3.074-2.352,4.8a14.98,14.98,0,0,1-1.077-1.829,4.372,4.372,0,0,0-8.227,1.135c-1.092,6.011-3.6,16.373-8.669,22.952l-1.427-3.336a3.957,3.957,0,0,0-7.492.663c-3.147,13.481-7.238,19.315-10.1,23.113a24.474,24.474,0,0,0-5.02-7.547,3.9,3.9,0,0,0-6.488,1.5c-2.388,7.2-6.538,15.778-11.477,20a59.226,59.226,0,0,0-2.813-10.379,4.4,4.4,0,0,0-8.035-.437,71.67,71.67,0,0,1-10.393,15.286c.741-9.154-.558-11.2-1.111-12.072a3.627,3.627,0,0,0-6.335.381c-5.815,12.118-14.314,14.981-19.357,15.536a25.676,25.676,0,0,0,.314-9.779,3.589,3.589,0,0,0-6.382-1.652c-4.474,5.774-11.695,8.4-16.416,9.543l1.946-6.5a3.562,3.562,0,0,0-1.3-3.915,3.62,3.62,0,0,0-4.137-.114c-4.845,3.191-13.042,3.6-20.358,2.793l3.247-3.347a3.59,3.59,0,0,0-2.79-6.084c-8.805.5-18.195-1.963-22.789-3.394,1.771-4.352,5.7-12.856,11.5-19.094a3.592,3.592,0,0,0-2.86-6.04l-4.635.31c3.906-5.955,9.269-11.8,14.691-13.4a3.59,3.59,0,0,0,.412-6.743l-6.208-2.674c3.815-2.793,10.255-6.468,17.391-6.154A3.581,3.581,0,0,0,169,410.284a26.257,26.257,0,0,0-7.7-5.963c3.57-3.4,11.02-7.864,23.869-4.542a3.609,3.609,0,0,0,4.324-4.656c-.327-.958-1.091-3.2-8.444-8.379a71.965,71.965,0,0,1,17.976,1.933,4.358,4.358,0,0,0,4.758-6.43,60.045,60.045,0,0,0-6.171-8.624c6.307-.952,15.394,1.378,22.369,4.145a3.834,3.834,0,0,0,3.778-.527,3.9,3.9,0,0,0,1.49-3.533,24.444,24.444,0,0,0-2.619-8.423c4.709.273,11.729.976,23.931,7.123a3.928,3.928,0,0,0,5.246-5.337l-1.676-3.179c6.806-.107,12,1.957,17.779,5.229a4.31,4.31,0,0,0,5.049-.572,4.359,4.359,0,0,0,1.015-5.037,14.636,14.636,0,0,1-.65-1.688c20.932,6.727,38.455,25.723,45.857,37.794-4.688.016-9.343.124-13.94.34l-30.491-26.786a3,3,0,0,0-3.96,4.508l25.954,22.8c-5.455.4-10.811.944-16.022,1.622l-41-28.8a3,3,0,1,0-3.449,4.909l35.818,25.164c-5.7.935-11.181,2.037-16.407,3.3l-38.659-20.855a3,3,0,1,0-2.849,5.28l33.039,17.824a137.189,137.189,0,0,0-17.339,6.245l-45.524-9.8a3,3,0,1,0-1.264,5.865l38.3,8.247a65.609,65.609,0,0,0-5.8,3.745q-6.4,4.668-12.4,8.688L162.5,430.589a3.034,3.034,0,0,0-3.095,2.9,3,3,0,0,0,2.9,3.1l32.118,1.039c-23.931,15.164-40.543,21.936-40.753,22.021a3,3,0,1,0,2.238,5.567c.847-.341,16.367-6.66,39.222-20.925l-17.1,29.318a3,3,0,0,0,5.184,3.023L206.3,437.05q6.174-4.152,12.821-8.986c1.333-.973,2.785-1.913,4.313-2.83l-20.564,41.137a3,3,0,1,0,5.367,2.682l24.22-48.448a131.617,131.617,0,0,1,16.74-5.951l-27.81,49.39a3,3,0,1,0,5.228,2.944l30.659-54.45c5.385-1.283,11.064-2.4,16.975-3.336l-23.476,41.036a3,3,0,1,0,5.209,2.979l25.805-45.107c5.367-.693,10.893-1.237,16.518-1.64l-17.059,26.053a3,3,0,1,0,5.02,3.287l19.506-29.79c5.08-.242,10.225-.364,15.4-.36C320.726,411.027,318.414,415.7,314.927,422.744ZM446.05,317.351a4.4,4.4,0,0,0,1.22,7.955,59.039,59.039,0,0,0,10.594,1.79c-3.71,5.339-11.835,10.315-18.761,13.4a3.9,3.9,0,0,0-.854,6.6,24.394,24.394,0,0,0,8,4.27c-3.494,3.227-8.892,7.877-21.99,12.331a3.958,3.958,0,0,0,.067,7.521l3.463,1.1c-6.044,5.7-16.1,9.211-21.971,10.886a4.375,4.375,0,0,0-.326,8.3,14.778,14.778,0,0,1,1.93.9c-1.6.975-3.09,1.9-4.453,2.755-6.7,4.179-11.149,6.947-16.458,7.927-.508-5.153-.887-10.286-1.143-15.366l27.706-22.347a3,3,0,0,0-3.767-4.67l-24.219,19.534c-.148-5.647-.147-11.208.019-16.626l42.313-30.116a3,3,0,0,0-3.479-4.889L385.456,356c.355-5.985.91-11.755,1.66-17.249l51.124-35.864a3,3,0,1,0-3.445-4.912L388.43,330.5a132.215,132.215,0,0,1,4.283-17.27L438.5,284.366a3,3,0,1,0-3.2-5.076l-38.872,24.5c.763-1.615,1.556-3.156,2.394-4.581q4.164-7.082,7.683-13.656l37.082-26.869a3,3,0,1,0-3.52-4.858l-27.463,19.9c11.95-24.171,16.716-40.256,16.972-41.134a3,3,0,0,0-5.76-1.68c-.063.218-5.171,17.428-17.9,42.75l-4.165-31.9a3,3,0,1,0-5.949.776l5.278,40.422q-3.42,6.363-7.428,13.207a66.177,66.177,0,0,0-3.15,6.129L378.573,264.95a3,3,0,0,0-5.715,1.825l14.186,44.417a137.723,137.723,0,0,0-4.514,17.882L361.6,297.9a3,3,0,0,0-4.983,3.344l24.5,36.5c-.743,5.33-1.3,10.9-1.676,16.668L350.95,321.176a3,3,0,0,0-4.554,3.906l32.625,38.048c-.166,5.26-.18,10.65-.05,16.125l-25.181-23.63A3,3,0,0,0,349.685,360l29.6,27.774c.238,4.672.59,9.395,1.041,14.142C367.9,396,347.137,380.3,338.272,359.688a14.548,14.548,0,0,1,1.738.481,4.339,4.339,0,0,0,4.992-6.58c-3.817-5.444-6.363-10.385-6.933-17.216l3.316,1.358a3.929,3.929,0,0,0,4.8-5.74c-7.3-11.564-8.686-18.493-9.416-23.161a24.351,24.351,0,0,0,8.622,1.787,3.874,3.874,0,0,0,3.526-5.64c-3.43-6.68-6.63-15.508-6.3-21.89a60.118,60.118,0,0,0,9.164,5.3,4.358,4.358,0,0,0,5.936-5.362,72.276,72.276,0,0,1-3.674-17.721c5.854,6.81,8.159,7.354,9.141,7.586a3.609,3.609,0,0,0,4.213-4.758c-4.551-12.478-.852-20.337,2.182-24.23a26.239,26.239,0,0,0,6.671,7.086,3.579,3.579,0,0,0,5.664-3.38c-1-7.085,2.015-13.849,4.417-17.926l3.258,5.917a3.589,3.589,0,0,0,6.671-1.069c1.063-5.555,6.345-11.468,11.882-15.941l.142,4.646a3.592,3.592,0,0,0,6.292,2.257c5.632-6.391,13.693-11.132,17.846-13.323,1.871,4.439,5.235,13.548,5.6,22.378a3.589,3.589,0,0,0,6.328,2.186l3-3.554c1.509,7.212,1.906,15.42-.792,20.563a3.621,3.621,0,0,0,.522,4.107,3.56,3.56,0,0,0,4.021.9l6.267-2.57c-.681,4.817-2.582,12.274-7.885,17.3a3.592,3.592,0,0,0,2.267,6.19,25.616,25.616,0,0,0,9.686-1.266c-.058,5.08-2.072,13.836-13.553,20.816a3.629,3.629,0,0,0,.239,6.34c.92.465,3.081,1.562,12.116-.072A71.587,71.587,0,0,1,446.05,317.351Z"/></svg>
