<svg id="Layer_1" enable-background="new 0 0 512 512" height="512" viewBox="0 0 512 512" width="512" xmlns="http://www.w3.org/2000/svg"><g><path d="m444.315 118.722c-16.624-33.498-40.965-62.038-70.389-82.533-34.473-24.013-74.15-36.189-117.926-36.189s-83.453 12.176-117.927 36.188c-29.424 20.496-53.765 49.035-70.389 82.533-27.308 55.024-29.068 113.837-4.381 146.35 13.444 17.706 30.207 26.631 49.95 26.63 3.568 0 7.238-.292 10.999-.876 19.604-3.046 39.07-13.323 59.68-24.203 4.305-2.273 8.636-4.558 12.98-6.78.927 21.264-6.807 51.253-14.345 80.474-13.791 53.453-28.05 108.725-1.32 143.226 14.836 19.149 39.288 28.458 74.753 28.458s59.917-9.309 74.753-28.458c26.729-34.501 12.471-89.773-1.32-143.226-7.538-29.221-15.272-59.21-14.345-80.474 4.344 2.222 8.675 4.508 12.98 6.78 20.609 10.88 40.075 21.157 59.68 24.203 3.762.585 7.429.876 10.999.876 19.741 0 36.507-8.925 49.95-26.63 24.687-32.512 22.926-91.325-4.382-146.349zm-143.931 229.088c11.426 44.288 24.376 94.484 6.654 117.358-8.653 11.169-25.824 16.832-51.038 16.832s-42.385-5.663-51.038-16.832c-17.722-22.875-4.771-73.071 6.654-117.358 9.647-37.394 18.841-73.039 14.025-100.867 10.271-3.695 20.451-6.068 30.359-6.068s20.087 2.373 30.359 6.068c-4.816 27.828 4.378 63.473 14.025 100.867zm124.42-100.881c-18.163 23.919-38.134 16.708-82.73-6.837-25.941-13.695-55.344-29.217-86.073-29.217s-60.132 15.522-86.073 29.217c-44.598 23.544-64.567 30.756-82.73 6.837-17.397-22.911-14.302-71.222 7.36-114.871 31.714-63.906 92.067-102.058 161.442-102.058s129.728 38.152 161.443 102.058c21.662 43.649 24.758 91.96 7.361 114.871z"/></g></svg>