<?xml version="1.0" encoding="iso-8859-1"?>
<!-- Generator: Adobe Illustrator 19.0.0, SVG Export Plug-In . SVG Version: 6.00 Build 0)  -->
<svg version="1.1" id="Layer_1" xmlns="http://www.w3.org/2000/svg" xmlns:xlink="http://www.w3.org/1999/xlink" x="0px" y="0px"
	 viewBox="0 0 512 512" style="enable-background:new 0 0 512 512;" xml:space="preserve">
<g>
	<g>
		<path d="M190.765,158.071c-21.064-26.916-49.297-41.739-79.498-41.739S52.834,131.156,31.77,158.07
			C11.282,184.248,0,218.911,0,255.674c0,36.763,11.282,71.426,31.769,97.603c21.064,26.916,49.297,41.738,79.498,41.738
			s58.433-14.823,79.498-41.738c20.487-26.177,31.769-60.84,31.769-97.603C222.534,218.912,211.252,184.249,190.765,158.071z
			 M111.267,374.617c-50.106,0-90.869-53.358-90.869-118.943s40.763-118.943,90.869-118.943c50.106,0,90.869,53.357,90.869,118.943
			C202.136,321.259,161.372,374.617,111.267,374.617z"/>
	</g>
</g>
<g>
	<g>
		<path d="M53.594,269.744c-0.46-4.058-0.694-8.213-0.694-12.349c0-5.633-4.566-10.199-10.199-10.199
			c-5.633,0-10.199,4.566-10.199,10.199c0,4.901,0.277,9.829,0.824,14.649c0.591,5.206,5.003,9.051,10.122,9.051
			c0.383-0.001,0.771-0.022,1.162-0.067C50.206,280.392,54.228,275.341,53.594,269.744z"/>
	</g>
</g>
<g>
	<g>
		<path d="M115.697,340.468c-22.322,0-43.178-15.998-54.432-41.753c-2.255-5.162-8.265-7.518-13.429-5.263
			c-5.162,2.255-7.518,8.268-5.263,13.429c14.55,33.298,42.569,53.983,73.124,53.983c5.633,0,10.199-4.566,10.199-10.199
			C125.896,345.033,121.329,340.468,115.697,340.468z"/>
	</g>
</g>
<g>
	<g>
		<path d="M112.016,146.021c-25.03,0-44.637,14.017-44.637,31.91s19.607,31.91,44.637,31.91s44.637-14.017,44.637-31.91
			S137.046,146.021,112.016,146.021z M112.016,189.442c-14.572,0-24.238-6.928-24.238-11.512c0-4.584,9.668-11.512,24.238-11.512
			s24.238,6.928,24.238,11.512C136.254,182.514,126.586,189.442,112.016,189.442z"/>
	</g>
</g>
<g>
	<g>
		<path d="M470.262,204.903c-26.178-20.487-60.84-31.769-97.603-31.769s-71.425,11.282-97.603,31.769
			c-26.916,21.064-41.738,49.297-41.738,79.498c0,30.201,14.823,58.433,41.738,79.498c26.178,20.487,60.84,31.769,97.603,31.769
			s71.425-11.282,97.603-31.769C497.178,342.834,512,314.602,512,284.401C512,254.2,497.178,225.967,470.262,204.903z
			 M372.659,375.269c-65.585,0-118.943-40.763-118.943-90.869c0-50.106,53.357-90.869,118.943-90.869s118.943,40.764,118.943,90.869
			S438.244,375.269,372.659,375.269z"/>
	</g>
</g>
<g>
	<g>
		<path d="M294.617,239.015c-17.893,0-31.91,19.607-31.91,44.638c0,25.03,14.017,44.637,31.91,44.637
			c17.893,0,31.91-19.607,31.91-44.637C326.527,258.622,312.511,239.015,294.617,239.015z M294.617,307.89
			c-4.583,0-11.512-9.668-11.512-24.238c0-14.572,6.928-24.239,11.512-24.239s11.512,9.668,11.512,24.239
			C306.129,298.224,299.2,307.89,294.617,307.89z"/>
	</g>
</g>
<g>
</g>
<g>
</g>
<g>
</g>
<g>
</g>
<g>
</g>
<g>
</g>
<g>
</g>
<g>
</g>
<g>
</g>
<g>
</g>
<g>
</g>
<g>
</g>
<g>
</g>
<g>
</g>
<g>
</g>
</svg>
