<svg id="Layer_1" enable-background="new 0 0 512 512" height="512" viewBox="0 0 512 512" width="512" xmlns="http://www.w3.org/2000/svg"><g><g><path d="m56.854 363.498-7.69 2.292c-3.97 1.184-6.228 5.361-5.044 9.331.97 3.255 3.953 5.359 7.184 5.359.709 0 1.432-.102 2.146-.315l7.69-2.292c3.97-1.184 6.228-5.361 5.044-9.331s-5.365-6.23-9.33-5.044z"/><path d="m146.405 462.917c3.654 0 6.856-2.675 7.409-6.399l1.179-7.937c.609-4.097-2.219-7.912-6.317-8.521-4.096-.61-7.912 2.219-8.521 6.316l-1.179 7.937c-.609 4.097 2.219 7.912 6.317 8.521.375.056.746.083 1.112.083z"/><path d="m95.397 425.677c2.099 0 4.187-.876 5.67-2.587l5.669-6.538c2.713-3.129 2.377-7.866-.753-10.58-3.129-2.714-7.866-2.376-10.58.753l-5.669 6.538c-2.713 3.129-2.377 7.866.753 10.58 1.419 1.231 3.168 1.834 4.91 1.834z"/><path d="m503.394 268.973c-8.724-27.256-23.432-51.36-43.716-71.644-2.929-2.929-7.678-2.929-10.607 0l-39.353 39.351c-14.401-33.819-38.217-63.183-69.333-85.333-5.837-4.155-11.866-7.997-18.059-11.534.429-9.466-.654-21.459-3.037-33.036-.835-4.057-4.801-6.667-8.859-5.834-4.057.835-6.669 4.801-5.834 8.858 1.723 8.37 2.521 16.008 2.744 22.212-22.283-10.508-46.359-17.207-71.332-19.795v-16.199c.045-1.211.04-2.417 0-3.619v-47.673c14.982-3.356 31.298 2.956 46.488 18.146 4.745 4.745 8.986 10.891 12.605 18.267 1.303 2.656 3.967 4.198 6.739 4.198 1.109 0 2.235-.247 3.298-.768 3.719-1.825 5.255-6.318 3.43-10.037-4.347-8.86-9.551-16.352-15.465-22.266-17.753-17.753-38.059-25.728-57.095-22.789v-5.978c0-6.27-2.439-12.17-6.886-16.632-4.444-4.429-10.344-6.868-16.615-6.868-12.958 0-23.501 10.542-23.501 23.5v16.23c-3.433-.54-6.925-.747-10.447-.579-16.007.767-32.136 8.841-46.644 23.348-17.651 17.65-24.547 44.692-27.087 59.24-.294 1.683-1.562 9.322-2.045 18.021-8.021 4.573-15.769 9.673-23.079 15.2-3.304 2.499-3.957 7.202-1.459 10.506 1.475 1.951 3.718 2.977 5.988 2.977 1.575 0 3.164-.495 4.518-1.518 4.688-3.545 9.573-6.897 14.6-10.035.736 4.476 2.082 8.281 4.351 10.55 3.953 3.953 12.558 5.109 21.272 5.109 11.082 0 22.342-1.87 24.431-2.235 14.549-2.54 41.591-9.436 59.242-27.086 5.402-5.402 9.909-11.029 13.482-16.791 78.315 4.986 145.263 52.295 172.077 121.755l-74.515 74.512c-.012.011-.025.02-.037.031-.008.008-.014.017-.022.025-.021.021-.041.044-.063.065l-126.237 126.235c-1.407 1.406-2.197 3.314-2.197 5.303s.79 3.897 2.197 5.303c14.422 14.422 30.785 26.009 48.83 34.646-11.069 1.784-22.325 2.688-33.655 2.688-108.906 0-197.507-83.215-197.507-185.5 0-45.938 18.015-90.017 50.727-124.117 2.867-2.989 2.769-7.737-.221-10.604s-7.737-2.768-10.605.221c-35.403 36.906-54.901 84.672-54.901 134.5 0 53.641 22.162 104.047 62.404 141.932 40.117 37.768 93.425 58.568 150.103 58.568 19.922 0 39.643-2.599 58.617-7.726.125-.034.244-.079.365-.119 17.093 5.19 35.085 7.827 53.128 7.827 8.628 0 17.269-.602 25.825-1.813 32.616-4.606 63.599-17.881 89.601-38.389 3.253-2.565 3.81-7.281 1.244-10.533s-7.282-3.809-10.534-1.244c-23.921 18.867-52.418 31.079-82.412 35.314-49.881 7.059-98.65-7.874-134.981-41.074l10.627-10.626c27.54 24.932 62.872 38.354 100.129 38.354 7.53 0 15.139-.548 22.778-1.661 33.723-4.904 64.411-20.358 88.748-44.694 24.331-24.33 39.784-55.015 44.688-88.735 6.618-45.441-6.731-89.8-36.698-122.902l10.622-10.622c33.199 36.327 48.137 85.089 41.082 134.971-4.766 33.705-19.369 65.049-42.232 90.643-2.76 3.089-2.492 7.83.597 10.589 3.09 2.76 7.831 2.493 10.59-.597 24.845-27.812 40.716-61.885 45.898-98.535 3.865-27.324 1.515-55.49-6.795-81.455zm-299.387-245.473c0-4.687 3.813-8.5 8.5-8.5 2.273 0 4.413.885 6.008 2.475 1.607 1.613 2.492 3.752 2.492 6.025v33.749c-.498-.535-.996-1.07-1.518-1.592-4.683-4.683-9.91-8.415-15.483-11.153v-21.004zm-1.966 109.122c-14.082 14.081-36.554 20.112-48.695 22.454-17.766 3.427-30.717 2.608-34.798 1.521-1.088-4.081-1.905-17.032 1.521-34.797 2.341-12.141 8.372-34.612 22.454-48.693 11.826-11.826 24.536-18.386 36.755-18.972 8.556-.413 16.684 2.089 23.873 7.255l-25.717 25.717h-22.826c-4.142 0-7.5 3.358-7.5 7.5s3.358 7.5 7.5 7.5h7.825l-20.843 20.842c-2.929 2.929-2.929 7.678 0 10.606 1.464 1.464 3.384 2.197 5.303 2.197s3.839-.732 5.303-2.197l22.026-22.025.533 7.502c.28 3.951 3.573 6.969 7.473 6.969.178 0 .358-.006.539-.02 4.131-.293 7.243-3.88 6.95-8.012l-1.454-20.48 25.499-25.498c4.732 6.574 7.137 13.824 7.245 21.385v.605c-.023 12.623-6.398 26.073-18.966 38.641zm115.148 217.798-20.861 113.71c-22.843-4.736-44.047-15.318-61.718-31.134zm27.546 115.047c-11.329 1.65-22.582 1.922-33.564.888l20.728-112.987 45.68 103.219c-10.464 4.237-21.463 7.225-32.844 8.88zm80.301-40.456c-10.167 10.166-21.566 18.596-33.88 25.189l-47.323-106.931 105.772 49.031c-6.498 11.868-14.724 22.866-24.569 32.711zm40.45-80.289c-1.719 11.823-4.891 23.227-9.393 34.052l-102.619-47.569 112.838-20.698c1.108 11.187.857 22.661-.826 34.215zm-114.238-28.359 81.773-81.77c15.668 17.506 26.194 38.482 30.992 61.086z"/></g></g></svg>