<?xml version="1.0" encoding="UTF-8"?>
<svg xmlns="http://www.w3.org/2000/svg" id="Layer_1" data-name="Layer 1" viewBox="0 0 512 512" width="512" height="512"><path d="M47.712,327.515a36.334,36.334,0,0,0-3.392,4.143l-.136.192a4.062,4.062,0,0,0,.66,5.452c3.44,2.972,12.5,4,20.974,2.538-.746.789-1.487,1.535-1.973,2.024-1.869,1.878-2.643,2.656-2.972,3.674a4.1,4.1,0,0,0,1.082,4.227c20.41,19.3,38.644,13.094,50.711,8.986,3.985-1.357,8.109-2.76,9.669-1.992a5.45,5.45,0,0,1,1.02.618,13.569,13.569,0,0,1-4.506,3.133,5.259,5.259,0,0,1-2.123.549c-5.69.261-24.933,2.055-33.681,14.148a4.926,4.926,0,0,0,1.078,6.819,12.794,12.794,0,0,0,7.887,2.585,41.159,41.159,0,0,0-.372,22.487,4.878,4.878,0,0,0,5.729,3.628c4.613-.952,15.214-4.2,21.785-14.529,1.639,4.238,3.615,6.519,6.089,7.087,4.366,1,5.8-3.106,6.747-5.824a34.247,34.247,0,0,1,7.866-13.4c8.057-8.559,50.458-8.636,76.811,11.408a10.752,10.752,0,0,1,4.181,7.645c2.89,34.178,12.976,67.3,27.671,90.861a8.7,8.7,0,1,0,14.364-9.789c-6.986-9.748-13.633-23.067-18.237-36.541a1.284,1.284,0,0,1,.771-1.6l22.637-8.437c31.463-11.231,47.987,12.607,51.295,21.843a31.742,31.742,0,0,1,1.718,14.27c-.206,2.739-.516,6.879,3.75,7.693,2.315.44,4.816-.689,7.713-3.525,1.9,11.084,9.621,17.723,13.176,20.245a4.749,4.749,0,0,0,6.532-1,38.5,38.5,0,0,0,8.023-19.084,12.118,12.118,0,0,0,7.565.627,4.765,4.765,0,0,0,3.591-5.622c-3.184-14.659-20.886-23.579-24.405-25.22a17.161,17.161,0,0,1-3.268-4.854,5.827,5.827,0,0,1,.842-.09c1.528-.057,4.484,2.641,7.344,5.258,8.254,7.553,22.07,20.192,46.723,11.347a4.024,4.024,0,0,0,2.637-3.377c.1-1.042-.274-2.007-1.182-4.336-.181-.466-.437-1.126-.7-1.845,6.613,4.222,14.453,6.574,18.431,5.345a3.98,3.98,0,0,0,2.734-4.646l-.044-.213a34.784,34.784,0,0,0-1.249-4.532c.147,0,.284.009.436.009,5.914,0,15.439-1.936,23.387-12.5a3,3,0,0,0-.3-3.948c-.511-.5-12.5-12.014-29.83-9.928.669-.264,1.3-.541,1.882-.825a6.338,6.338,0,0,0,3.422-7.149c.209-2,.468-7.822-2.883-12.174a12.218,12.218,0,0,0-6.937-4.428.731.731,0,0,1,.062-.23c.007,0,.781-.308,3.145.587a21.284,21.284,0,0,1,7.02,4.762c3.092,2.819,6.6,6.012,13.192,4.464a4.375,4.375,0,0,0,3.348-4.619,16,16,0,0,0-.889-4.129c5.429-1.166,13.561-3.429,19.077-7.306a3.509,3.509,0,0,0,1.492-3.141,3.563,3.563,0,0,0-1.927-2.908,42.6,42.6,0,0,0-14.147-4.485,13.061,13.061,0,0,0,1.368-4.713,42.241,42.241,0,0,0,10.965-6.5,7.09,7.09,0,0,0-.49-11.381q-.459-.312-.932-.6c6.4.825,13.867.5,19.064-5.129a4.863,4.863,0,0,0,1.153-4.5,10.936,10.936,0,0,0-2.251-4.365,58.45,58.45,0,0,0,13.281-9.648,5.454,5.454,0,0,0-2.031-9.128,36.9,36.9,0,0,0-17.276-1.554,27.465,27.465,0,0,0,.253-9.09,5.449,5.449,0,0,0-7.167-4.521c-5.85,1.987-16.3,6.512-20.572,14.491-1.925,3.595-4.243,5.753-6.889,6.413a8.614,8.614,0,0,1-4.338-.123,23.306,23.306,0,0,0,3.246-8.171,32.416,32.416,0,0,0-.089-12.082,5.866,5.866,0,0,0-4.873-4.716,24.162,24.162,0,0,0-18.872,5.329,13.42,13.42,0,0,0-2.532-8.351,4.647,4.647,0,0,0-5.688-1.59c-8.676,3.836-12.33,12.006-13.8,19.408a10.445,10.445,0,0,0-14.113,7.653c-1.841,9.243-6.38,14.354-8.431,16.263a24.25,24.25,0,0,0-9.7-.575c5.379-2.278,12.681-5.4,16.062-11.921a4.945,4.945,0,0,0-.189-4.925,4.888,4.888,0,0,0-4.328-2.369l-2.644.043c3.441-5.844,6.762-16.227,1.611-31.408a4.908,4.908,0,0,0-7.116-2.671,36.014,36.014,0,0,0-10.543,9.133,5.387,5.387,0,0,0-.742-2.438,4.769,4.769,0,0,0-3.075-2.2,5.055,5.055,0,0,0-3.89.724c-6.787,4.535-10.088,9.055-11.643,12.749-.646-.657-1.333-1.307-2.08-1.947a6.411,6.411,0,0,0-9.211.877c-4.705,5.926-7.152,13.3-8.424,19.361-6.658-12.4-14.3-15.1-18.622-15.523a7.223,7.223,0,0,0-6.776,3.291c-7.025,10.847-5.818,20.631-3.564,26.935a7.405,7.405,0,0,0-5.25,11.011c.525.908,1.161,1.951,1.915,3.187a319.388,319.388,0,0,1,17.053,31.748c2.193,4.59,2.327,8.89.412,13.145-1.717,3.818-10.123,17.08-46.141,27.416a1.228,1.228,0,0,1-1.039-.165,1.261,1.261,0,0,1-.555-.926c-2.586-24.6-1.789-76.7,32.6-149.17a214.574,214.574,0,0,0,11.969-31.2c1.694-5.747,5.066-13.251,11.507-16.368,4.739-2.294,10.739-2.007,17.833.847a341.373,341.373,0,0,1,35.174,16.143c1.373.724,2.531,1.334,3.537,1.835a7.731,7.731,0,0,0,11.147-6.519c6.856,2.024,17.452,2.73,28.61-5.665a7.562,7.562,0,0,0,2.937-7.284c-.765-4.648-4.251-12.788-18.407-19.084,6.5-1.764,14.5-4.941,20.675-10.6a6.7,6.7,0,0,0,.276-9.609q-1.245-1.282-2.511-2.356c3.869-1.864,8.569-5.711,13.039-13.532a5.229,5.229,0,0,0,.47-4.049,4.905,4.905,0,0,0-2.454-3,5.835,5.835,0,0,0-3.235-.579,38.332,38.332,0,0,0,9.492-12.4,5.068,5.068,0,0,0-3.219-7.131c-16.811-4.534-27.712-.013-33.616,4.154l-.162-3.264a5.142,5.142,0,0,0-7.8-4.152c-6.708,4.1-9.508,12.231-11.553,18.171-.209.605-.409,1.185-.6,1.732-.007.018-.014.036-.019.054a25.774,25.774,0,0,0-1.088-12.473c1.843-2.311,7.048-7.742,16.988-10.436a10.977,10.977,0,0,0,7.522-7.084,11.121,11.121,0,0,0-.63-8.63c10.166-2.681,17.049-8.251,19.912-16.159a4.788,4.788,0,0,0-2-5.715,13.9,13.9,0,0,0-9.522-2.027,26.05,26.05,0,0,0,4.661-21,6.076,6.076,0,0,0-5.2-4.735,34.233,34.233,0,0,0-12.853.757,24.716,24.716,0,0,0-8.661,4.211,9.826,9.826,0,0,1-.551-5.046c.518-2.988,2.7-5.708,6.478-8.085C378.229,59.305,382.3,47.778,384,41.364a5.645,5.645,0,0,0-5.147-7.1,28.588,28.588,0,0,0-9.934.99,39.772,39.772,0,0,0-2.842-18.735,5.621,5.621,0,0,0-9.552-1.476,62.7,62.7,0,0,0-9.446,15.207,11.462,11.462,0,0,0-4.941-2.241,4.976,4.976,0,0,0-4.55,1.5c-5.893,6.263-5.356,14.836-3.83,21.855a20.314,20.314,0,0,0-1.314-1.911,7.362,7.362,0,0,0-11.874.271,45.446,45.446,0,0,0-6.18,12.369,13.851,13.851,0,0,0-5.261,1.944c-.934-6.291-4.2-12.436-5.82-15.174a3.6,3.6,0,0,0-3.07-1.758,3.65,3.65,0,0,0-3.07,1.725c-3.788,6.278-5.621,15.346-6.462,21.26a16.648,16.648,0,0,0-4.654-.729,4.5,4.5,0,0,0-4.487,3.74c-1.167,7.088,2.448,10.592,5.637,13.684a23.187,23.187,0,0,1,5.643,7.3c1.22,2.7.855,3.563.857,3.563a1.265,1.265,0,0,1-.59.223,13,13,0,0,0-5.231-7.233c-4.848-3.246-10.991-2.54-13.059-2.178a6.579,6.579,0,0,0-7.215,4.057c-.349.868-.677,1.821-.973,2.834-.071.238-.139.435-.2.6a1.155,1.155,0,0,1-.051-.436c1.536-19.293-12.007-31.763-12.584-32.284a3,3,0,0,0-3.979-.038C238.7,72.862,237.686,83.687,238.272,89.9a36.268,36.268,0,0,0-5.2-1.109l-.231-.032a4.051,4.051,0,0,0-4.541,3.1c-1.044,4.43,2.215,12.981,7.411,19.857-1.031-.3-2.022-.615-2.672-.822-2.525-.8-3.569-1.137-4.633-.959a4.094,4.094,0,0,0-3.251,2.917c-7.666,27.065,6.206,40.459,15.386,49.322,3.037,2.933,6.178,5.966,6.219,7.725a5.707,5.707,0,0,1-.078,1.205c-1.176-.19-3.695-1.627-5.755-3.3-1.929-3.548-12.652-21.987-28.463-24.437a4.935,4.935,0,0,0-5.628,4.1,12.862,12.862,0,0,0,1.353,8.211A40.788,40.788,0,0,0,188.144,165.7a4.908,4.908,0,0,0-.584,6.767c2.965,3.677,10.72,11.639,22.892,12.735-3.008,3.419-4.122,6.234-3.485,8.7,1.121,4.344,5.417,3.729,8.259,3.324a33.88,33.88,0,0,1,15.457.844c6.032,1.736,15.381,7.038,21.879,16.266,5.161,7.327,10.26,19.774,5.351,37.534a395.383,395.383,0,0,0-16.743,40.24,7.922,7.922,0,0,0-.394-2.758,7.569,7.569,0,0,0-3.427-4.271c4.949-5.174,10.477-14.3,8.183-28.136a7.545,7.545,0,0,0-5.11-5.969c-4.457-1.451-13.253-2.086-25.314,7.607,1.425-6.59,2.294-15.163.144-23.257a6.685,6.685,0,0,0-8.424-4.69q-1.679.512-3.187,1.136c.13-4.3-1.109-10.255-5.961-17.831a5.208,5.208,0,0,0-3.378-2.293,4.891,4.891,0,0,0-3.8.807,5.831,5.831,0,0,0-1.98,2.576,38.464,38.464,0,0,0-6.587-14.122,5.054,5.054,0,0,0-7.816-.42c-11.75,12.91-12.756,24.708-11.787,31.881l-2.949-1.353a5.144,5.144,0,0,0-7.275,5.02c.536,7.86,6.438,14.1,10.747,18.657.439.464.861.909,1.254,1.335.035.036.067.071.1.106a25.517,25.517,0,0,0-11.567-4.8c-1.2-2.713-3.6-9.855-1.405-19.958A11.036,11.036,0,0,0,140.512,218c2.309-10.292.552-18.99-5.121-25.182a4.769,4.769,0,0,0-6-.848,13.991,13.991,0,0,0-6.16,7.527,25.889,25.889,0,0,0-16.416-13.79,6.072,6.072,0,0,0-6.592,2.455,34.569,34.569,0,0,0-5.24,11.8,24.947,24.947,0,0,0-.258,9.669A9.665,9.665,0,0,1,90,207.792c-2.389-1.839-3.783-5.03-4.144-9.485-.78-9.633-9.1-18.568-13.985-23.036a5.628,5.628,0,0,0-8.666,1.312,28.859,28.859,0,0,0-3.692,9.311,39.367,39.367,0,0,0-17.867-6.08,5.634,5.634,0,0,0-5.705,7.807,62.744,62.744,0,0,0,9.111,15.439,11.5,11.5,0,0,0-4.275,3.383,5,5,0,0,0-.765,4.721c2.835,8.162,10.7,11.627,17.629,13.494a19.965,19.965,0,0,0-2.369.3,7.4,7.4,0,0,0-5.221,10.682,45.315,45.315,0,0,0,8.1,11.208,13.947,13.947,0,0,0-.707,5.608c-5.994-2.061-12.931-1.974-16.092-1.791a3.6,3.6,0,0,0-2.966,1.912,3.541,3.541,0,0,0,.109,3.517c3.812,6.274,10.994,12.086,15.834,15.555a16.735,16.735,0,0,0-2.8,3.828,4.489,4.489,0,0,0,1.248,5.7c5.741,4.309,10.508,2.7,14.715,1.275a22.975,22.975,0,0,1,9.047-1.668c2.927.152,3.522.867,3.524.867h0a1.3,1.3,0,0,1-.078.656,12.931,12.931,0,0,0-8.76,1.313c-5.13,2.817-7.341,8.642-7.974,10.654a6.609,6.609,0,0,0,.267,8.28c.6.711,1.3,1.443,2.058,2.174.2.188.346.351.465.489a1.144,1.144,0,0,1-.421-.157c-16.36-10.255-33.629-3.916-34.356-3.641a3,3,0,0,0-1.857,3.5C32.83,319.292,41.942,325.176,47.712,327.515ZM315.434,83.481c2.2,10.712,2.545,17.687-3.862,21.709a5.678,5.678,0,0,1-1.721.808c-.87-1.54-.517-7.687.789-13.1.007-.032.015-.065.022-.1C311.337,89.524,313.469,86.094,315.434,83.481Zm-77.415,214.5a7.946,7.946,0,0,0,1.663-1.647c-7.126,20.559-14.382,46.343-17.783,73.288a4.083,4.083,0,0,1-7.019,2.316c-8.448-8.876-18.4-21.949-17.823-33.823.258-5.347,2.631-9.891,7.253-13.892a342.36,342.36,0,0,1,30.462-23.937C236.042,299.4,237.113,298.644,238.019,297.979ZM62.429,310.142a6.789,6.789,0,0,0,8-.44,5.22,5.22,0,0,0,1.987-3.891c.06-1.813-.844-3.632-2.687-5.406-.619-.6-1.174-1.182-1.651-1.741a.611.611,0,0,1-.109-.668.6.6,0,0,1,.539-.4c6.89-.64,20.241.082,32.214,12.059a8.874,8.874,0,0,0,11.531,1.1,7.525,7.525,0,0,0,3.131-7.382c6.135,2.648,20.816,12.922,28,27.763,2.4,4.953,5.108,8.611,8.064,10.875a9.252,9.252,0,0,0,5.673,2.031,9.571,9.571,0,0,0,7.367-3.693c2.937-3.683,3.433-9.466-1.3-13.392-5.7-4.725-13.007-8.035-21.745-9.846-10.486-13.048-25.312-22.239-30.39-20.024-1.792.78-3.092,2.882-1.953,5.821.823,2.124.1,2.648-.374,2.994a2.949,2.949,0,0,1-3.759-.487A45.741,45.741,0,0,0,71.29,291.442a8.954,8.954,0,0,1,2.841-2.576,7.8,7.8,0,0,1,6.452-.221,3,3,0,0,0,3.333-1.026c.352-.461,3.382-4.611,1.588-8.486-1.226-2.647-4.139-4.108-8.659-4.342a28.715,28.715,0,0,0-11.28,1.977c-3.479,1.176-5.444,1.843-8.035.375a6.964,6.964,0,0,1,1.743-1.835,4.483,4.483,0,0,0,.1-7.45,72.9,72.9,0,0,1-13.063-11.242c4.489.183,9.26,1.025,12.3,2.971a3.573,3.573,0,0,0,5.408-3.87,17.585,17.585,0,0,1-.6-4.733,22.283,22.283,0,0,0,5.319,2.363q.725.21,1.453.413c1.216,3.319,4.434,10.975,9.56,15.184,3.086,2.695,9.972,8.135,15.247,8.135a5.939,5.939,0,0,0,2.7-.6c1.687-.848,3.614-2.885,3.222-7.77-1.063-13.228-14.023-16.687-25.457-19.739q-1.044-.278-2.086-.559c-.057-.017-.113-.033-.171-.046-.939-.255-1.875-.515-2.8-.783-7.561-2.191-12.667-10.161-15.038-14.717a1.357,1.357,0,0,1-.017-1.245,1.385,1.385,0,0,1,1.011-.768,13.7,13.7,0,0,1,8.828,1.26,5.917,5.917,0,0,0,4.719.263,5.79,5.79,0,0,0,3.317-3.225l.058-.14a5.815,5.815,0,0,0-3.655-7.759c-1.218-.377-2.756-.69-4.536-1.052-6.529-1.328-16.318-3.32-19.225-10.491,1.37-1.413,4.856-3.334,12.494.444a3,3,0,1,0,2.66-5.379,26,26,0,0,0-8.844-2.765c-1.712-1.657-6.4-6.744-10.474-16.159,4.949.545,13.53,2.536,19.718,9.6l.01-.01a2.993,2.993,0,0,0,4.646-3.768c-1.634-2.176-.856-6.518,2.073-11.668,3.573,3.319,11.1,11.161,11.72,18.784.506,6.253,2.7,10.9,6.534,13.809a16.34,16.34,0,0,0,9.8,3.123c-.926,10.524,6.514,24.212,7.2,25.444,1.012,2.022,3.692,6.56,7.4,6.729.065,0,.135,0,.208,0a5.1,5.1,0,0,0,4.417-2.729c3.661-5.954-3.182-18.872-9.312-25.525a22.283,22.283,0,0,1-3.964-5.99c-.034-.088-.071-.174-.113-.258a19.568,19.568,0,0,1-1.215-12.1,28.235,28.235,0,0,1,4.409-9.8,19.821,19.821,0,0,1,13.521,12.792,5.124,5.124,0,0,0,7.891,2.358,5.058,5.058,0,0,0,2.034-3.8,7.024,7.024,0,0,1,2.978-5.164c9.6,11.914-1.805,31.618-1.924,31.821a3,3,0,0,0,5.166,3.052,53.277,53.277,0,0,0,3.8-8.345l.838-.148a5.064,5.064,0,0,1,5.834,6.038,39.954,39.954,0,0,0,.762,20.936c-.226.016-.441.033-.636.051a4.373,4.373,0,0,0-3.912,5.081c.565,3.366,2.823,9.985,11.291,19.26-2.548,20.659,13.429,42.494,14.154,43.472,1.484,1.936,5.058,6.014,8.833,6.014a5.018,5.018,0,0,0,1.547-.242c4.1-1.324,4.263-6.907,4.317-8.741.379-12.966-2.756-23.66-19.907-39.959-9.569-9.095-12.793-15.564-13.875-19a20.443,20.443,0,0,1,13.946,5.041,5.125,5.125,0,0,0,6.475.35,6.129,6.129,0,0,0,2.654-4.384c.191-1.994-.654-4.02-2.51-6.024-.407-.44-.843-.9-1.3-1.38-3.362-3.555-7.858-8.308-8.915-13.449l4.016,1.843a4.575,4.575,0,0,0,6.364-5.2c-1.246-5.337-1.67-16.016,9.089-28.351,5.546,8.134,5.816,15.243,5.461,18.836a3.853,3.853,0,0,0,6.961,2.623,21.159,21.159,0,0,0,3.3-7.654c.036-.14.075-.291.115-.444,6.392,10.883,3.542,16.368,2.929,17.33a14.715,14.715,0,0,0-5.071,9.665,3,3,0,0,0,5.973.574c.566-5.889,7.222-8.773,11.14-9.967a.673.673,0,0,1,.541.053.689.689,0,0,1,.334.438c2.651,9.981-.08,21.135-1.944,26.894a3.872,3.872,0,0,0,6.416,3.939c4.348-4.309,15.447-14.008,24.64-11.018a1.584,1.584,0,0,1,1.047,1.245c2.251,13.571-4.585,21.561-8.858,25.115a3.927,3.927,0,0,0-1.187,4.433,4.015,4.015,0,0,0,3.755,2.618h.243a1.517,1.517,0,0,1,1.507,1.122,1.683,1.683,0,0,1-.606,1.935c-.874.643-1.909,1.367-3.136,2.227a347.45,347.45,0,0,0-30.946,24.314c-5.848,5.061-8.984,11.163-9.32,18.139-.677,14,10.214,28.525,19.47,38.25a10.012,10.012,0,0,0,7.276,3.15,10.193,10.193,0,0,0,3.182-.514,10.022,10.022,0,0,0,6.861-8.338c7.662-60.719,35.267-115.513,35.545-116.06a2.888,2.888,0,0,0,.214-.547C273.93,217.093,247,196.519,232.343,192.3a39.753,39.753,0,0,0-17.965-1.018c-.357.051-.747.107-1.115.154a23.706,23.706,0,0,1,4.421-5.021,4.107,4.107,0,0,0-3-7.128c-11.159.6-18.567-6.092-21.774-9.779,7.787-6.565,15.221-7.987,19.028-8.243a4.107,4.107,0,0,0,2.636-7,6.353,6.353,0,0,1-1.907-4.749c13.512,3,23.12,21.4,23.218,21.592a3,3,0,0,0,.716.909c2.41,2.068,8.486,6.651,12.863,4.579,1.558-.738,3.394-2.522,3.295-6.827-.1-4.225-3.607-7.614-8.05-11.9-8.405-8.116-19.833-19.15-14.278-41.5l.791.25c5.489,1.746,10.232,3.254,12.318.127,1.85-2.772-.811-5.919-1.812-7.1-4.663-5.515-6.947-11.457-7.5-14.572,5.022.984,7.8,2.72,8.265,5.17a3,3,0,0,0,5.9-1.12,10.025,10.025,0,0,0-3.623-6l.178-.062c-.177-.526-4-12.329,6.716-23.356,3.309,3.89,9.717,13.118,8.744,25.338a6.825,6.825,0,0,0,4.066,6.908,5.2,5.2,0,0,0,4.368-.018c1.64-.782,2.836-2.427,3.557-4.891.241-.824.5-1.589.779-2.272a.587.587,0,0,1,.518-.4.617.617,0,0,1,.6.3c4.077,6.388,9.9,19.739,3.084,37.376a3,3,0,0,0,.209,2.6c.327.559,3.33,5.473,8.049,5.922a7.532,7.532,0,0,0,5.126-1.437c.489,6.694-1.83,24.5-11.661,37.755-3.277,4.415-5.262,8.517-5.9,12.192a9.148,9.148,0,0,0,7.519,10.83,10.4,10.4,0,0,0,1.971.189,9.173,9.173,0,0,0,9.249-7.54c1.547-7.241,1.107-15.269-1.308-23.875,6.735-15.38,8.02-32.832,3.7-36.316-1.516-1.224-3.977-1.4-6.051.963-.538.615-1.359,1.333-2.068,1.267a4.972,4.972,0,0,1-2.671-1.907c6.046-17.052,1.731-30.518-2.5-38.374a8.9,8.9,0,0,1,3.535,1.325,7.888,7.888,0,0,1,3.2,5.684,3,3,0,0,0,2.436,2.484,11.4,11.4,0,0,0,1.907.152c1.861,0,4.619-.422,6.33-2.623,1.8-2.306,1.754-5.578-.122-9.724a28.914,28.914,0,0,0-6.934-9.139c-2.565-2.487-4.123-4-4.034-7.009a6.853,6.853,0,0,1,2.392.705,4.47,4.47,0,0,0,6.66-3.343,73.537,73.537,0,0,1,3.914-16.789c1.9,4.086,3.348,8.724,3.027,12.329a3.573,3.573,0,0,0,5.93,3.012,17.4,17.4,0,0,1,3.892-2.7,22.474,22.474,0,0,0,.356,5.843c.1.5.2,1,.306,1.5-2.374,2.609-7.664,9-9.027,15.51-1.14,4.73-3.23,15.979,1.618,19.466a5.4,5.4,0,0,0,3.221,1.023,9.76,9.76,0,0,0,5.129-1.75c11.206-7.036,8.3-20.177,5.738-31.771-.155-.7-.311-1.4-.463-2.1-.012-.066-.026-.131-.043-.2q-.309-1.428-.595-2.847c-1.544-7.759,3.155-15.984,6.092-20.2a1.319,1.319,0,0,1,1.069-.579,1.34,1.34,0,0,1,1.139.549,13.878,13.878,0,0,1,2.955,8.47,5.952,5.952,0,0,0,1.949,4.323,5.73,5.73,0,0,0,4.373,1.459l.149-.013a5.809,5.809,0,0,0,5.194-6.824c-.226-1.258-.657-2.772-1.156-4.526-1.83-6.434-4.575-16.078.416-21.972,1.883.578,5.172,2.815,5.348,11.359a3,3,0,1,0,6-.123,26.222,26.222,0,0,0-1.624-9.147c.691-2.3,3.065-8.884,9.446-16.771,1.8,4.67,3.982,13.241.583,22.012l.013,0a2.993,2.993,0,0,0,5.492,2.37c1.675-3.511,8.55-3.617,11.254-3.51-1.284,4.7-4.753,15.054-11.216,19.118-5.281,3.32-8.375,7.4-9.2,12.138a16.492,16.492,0,0,0,1.748,10.216c-9.734,4.022-18.411,16.952-19.189,18.133-1.321,1.833-4.1,6.309-2.541,9.679a5.064,5.064,0,0,0,4.533,2.853c.149.011.3.017.446.017,6.866,0,14.862-11.723,17.858-20.073A20.408,20.408,0,0,1,374.31,79.164a27.615,27.615,0,0,1,10.681-.563A19.956,19.956,0,0,1,379.9,96.559a5.143,5.143,0,0,0,1.561,8.1,5.045,5.045,0,0,0,4.3.051,6.941,6.941,0,0,1,5.93.288c-6.1,14.053-28.77,12.956-29,12.942l-.171,3-.174,3c.083,0,.719.039,1.768.039a57.2,57.2,0,0,0,7.353-.494l.517.679a5.077,5.077,0,0,1,.773,4.777,4.922,4.922,0,0,1-3.409,3.224,39.63,39.63,0,0,0-18.15,10.3c-.116-.192-.228-.374-.333-.538a4.365,4.365,0,0,0-6.314-1.137c-2.718,2.053-7.531,7.114-11.833,18.93-19.439,7.243-31.388,31.531-31.919,32.628-3.513,7.56-1.388,10.842-.311,11.9a5.292,5.292,0,0,0,3.853,1.475,14.271,14.271,0,0,0,5.861-1.673c11.642-5.629,19.656-13.348,26.173-36.14,3.627-12.688,7.85-18.541,10.393-21.1a20.594,20.594,0,0,1,1.959,14.77,5.151,5.151,0,0,0,2.663,5.905,6.1,6.1,0,0,0,5.113.349c1.858-.748,3.267-2.436,4.185-5.018.2-.565.408-1.165.622-1.789,1.593-4.626,3.722-10.81,7.767-14.121l.22,4.437a4.571,4.571,0,0,0,7.546,3.256c4.141-3.565,13.387-8.857,29.238-4.933-4.639,8.7-10.8,12.219-14.14,13.555a3.858,3.858,0,0,0,.869,7.391,20.986,20.986,0,0,0,8.3-.578c.145-.033.3-.069.459-.1-6.671,10.715-12.823,10.715-13.964,10.611a14.6,14.6,0,0,0-10.9-.073,3,3,0,0,0,2.244,5.565c5.455-2.2,11.071,2.414,13.932,5.364a.7.7,0,0,1,.2.515.678.678,0,0,1-.227.491c-7.605,6.968-18.735,9.665-24.692,10.652a3.871,3.871,0,0,0-.551,7.5c5.821,1.9,19.53,7.339,21.109,16.93A1.6,1.6,0,0,1,388.1,229c-10.952,8.24-21.147,5.822-26.248,3.648a3.987,3.987,0,0,0-5.063,5.557l.133.256a1.488,1.488,0,0,1-.317,1.807,1.666,1.666,0,0,1-1.977.342c-.972-.484-2.09-1.074-3.416-1.774a347.049,347.049,0,0,0-35.733-16.4c-8.728-3.515-16.361-3.744-22.686-.682-6.663,3.223-11.729,10.164-14.649,20.071a208.713,208.713,0,0,1-11.634,30.325c-15.033,31.677-39.327,93.594-33.149,152.369a7.251,7.251,0,0,0,9.216,6.232,158.94,158.94,0,0,0,26.224-10.02c12.367-6.221,20.352-13.186,23.734-20.7,2.647-5.88,2.488-12-.47-18.193a324.775,324.775,0,0,0-17.344-32.286c-.727-1.191-1.34-2.2-1.847-3.071a1.333,1.333,0,0,1,.176-1.624,1.191,1.191,0,0,1,1.436-.339l.151.067a3.948,3.948,0,0,0,4.474-.843,3.858,3.858,0,0,0,.678-4.462c-2.3-4.583-5.135-13.855,1.744-24.477a1.249,1.249,0,0,1,1.15-.58c2.938.291,10.451,2.674,16.731,18.475a3.808,3.808,0,0,0,7.332-1.025c.546-5.583,2.345-16.063,8.273-23.528a.4.4,0,0,1,.285-.161.408.408,0,0,1,.32.107c2.857,2.45,7.4,7.323,5.738,12.438a3,3,0,1,0,5.705,1.857,13.907,13.907,0,0,0-.74-10.269c-.118-.882-.432-6.48,8.428-13.1a19.781,19.781,0,0,0-.011,7.753,3.814,3.814,0,0,0,3.533,2.986,3.752,3.752,0,0,0,3.781-2.617c1.007-3.128,3.8-8.937,11.3-13.725,4.431,14.289.181,23.072-2.817,27.092a4.468,4.468,0,0,0,3.657,7.138l3.689-.06c-2.841,3.731-8.2,6-12.234,7.708-.564.239-1.106.469-1.618.691-2.38,1.037-3.891,2.489-4.489,4.315a5.908,5.908,0,0,0,.645,4.9,4.981,4.981,0,0,0,5.894,2.211,18.562,18.562,0,0,1,13.319.8c-2.206,2.413-7.364,6.669-18.563,10.719-20.724,7.5-27.387,15.469-31.892,26.709-.648,1.617-2.621,6.538.492,9.289a5.54,5.54,0,0,0,3.785,1.3,17.058,17.058,0,0,0,7.475-2.334c.944-.541,22.639-13.16,28.2-31.733,10.636-4.743,15.02-9.551,16.758-12.221a4.28,4.28,0,0,0-1.516-6.078c-.094-.052-.2-.108-.3-.163a37.333,37.333,0,0,0,8.288-17.442,4.372,4.372,0,0,1,2.657-3.231,4.423,4.423,0,0,1,4.213.413l.551.368a49.876,49.876,0,0,0,.16,8.455l5.955-.739c-.027-.214-2.436-20.878,9.852-27.492a6.269,6.269,0,0,1,.513,5.161,4.921,4.921,0,0,0,.332,4.173,4.974,4.974,0,0,0,7.936.976,18.122,18.122,0,0,1,15.941-5.788,26.384,26.384,0,0,1,.071,9.77A18.783,18.783,0,0,1,409.132,331.8c-7.748,3.4-18.447,11.939-17.521,18.482a4.778,4.778,0,0,0,4.833,4.525c2.875,0,5.872-2.186,7.231-3.317,1.063-.813,12.317-9.574,15.557-18.847a16.366,16.366,0,0,0,6.218,1.3,13.579,13.579,0,0,0,3.214-.38c4.4-1.065,8.036-4.236,10.813-9.423,3.252-6.073,12.217-9.877,16.566-11.418.521,5.26-.39,9.065-2.474,10.242a2.993,2.993,0,0,0,2.744,5.315l.006.013c7.625-3.579,15.4-2.241,19.853-.9a47.05,47.05,0,0,1-14.5,9.52,24.427,24.427,0,0,0-8.554-.935,3,3,0,0,0,.274,5.994c5.648-.259,9.438,1.207,10.554,4.031-5.064,4.815-13.991,2.883-19.956,1.591-1.655-.358-3.085-.667-4.273-.8a5.606,5.606,0,0,0-6.235,5.459l0,.136a5.6,5.6,0,0,0,1.69,4.134,5.717,5.717,0,0,0,4.27,1.6,12.511,12.511,0,0,1,7.854,2.191,1.1,1.1,0,0,1,.489.876,1.046,1.046,0,0,1-.393.874c-3.681,2.97-10.915,7.81-18.091,6.861-.883-.116-1.771-.245-2.661-.379-.06-.01-.12-.019-.181-.027q-.987-.149-1.976-.3c-10.937-1.686-23.337-3.6-29.219,7.406-2.2,4.117-1.278,6.651-.115,8.051,1.491,1.8,4.118,2.406,7,2.406a40.992,40.992,0,0,0,11.3-2.051c5.9-1.664,11.456-6.906,13.785-9.332q.642.092,1.281.177a20.793,20.793,0,0,0,5.1.024,16.72,16.72,0,0,1-2.083,3.427,3.534,3.534,0,0,0,3.361,5.648c3.15-.492,7.274.466,11.017,1.884a68.4,68.4,0,0,1-14.788,4.458,4.376,4.376,0,0,0-2.826,6.707,5.912,5.912,0,0,1,.726,1.908c-2.368.17-3.749-.974-6.294-3.294a26.919,26.919,0,0,0-8.936-5.939c-4.012-1.519-7.11-1.353-9.2.5-3.063,2.713-2,7.5-1.864,8.033a3,3,0,0,0,2.637,2.271,7.076,7.076,0,0,1,5.266,2.52,7.862,7.862,0,0,1,1.319,2.748c-7.583-3.4-20.112-6.361-35.224.154a4.341,4.341,0,0,1-1.739-2.16c-.095-.605.484-1.337.987-1.844,2.161-2.179,1.81-4.573.5-5.979-3.544-3.809-19.636-1.566-33.468,5.618-8.106-1.715-15.563-1.626-22.177.264-5.617,1.607-7.39,6.837-6.24,11.172a8.689,8.689,0,0,0,10.727,6.449c3.388-.831,7.087-2.948,10.991-6.293,11.258-9.647,27.217-13,33.616-13.107a7.2,7.2,0,0,0-.86,4.69c.725,4.454,5.526,6.991,6.072,7.266a3,3,0,0,0,2.621.038c15.773-7.382,28.37-2.809,34.478.572a.375.375,0,0,1,.211.366.345.345,0,0,1-.215.334c-.6.294-1.285.581-2.028.855-2.286.843-3.773,2.094-4.42,3.718a5.067,5.067,0,0,0,.251,4.23,6.529,6.529,0,0,0,6.87,3.478c10.972-1.62,19.731,3.572,23.582,6.419-9.39,10.358-20.286,7.6-20.774,7.466l-.037.134a9.454,9.454,0,0,0-5.8-2.976,3,3,0,1,0-.736,5.954c2.149.266,3.835,2.6,5.022,6.956a31.928,31.928,0,0,1-13.48-6.018c-1.188-.885-4.347-3.237-6.937-1.266-2.907,2.215-1.2,6.61.786,11.7.065.168.135.348.207.532-20.024,6.364-30.805-3.5-38.744-10.77-4.272-3.909-7.646-7.007-11.653-6.825-4.09.176-5.68,2.054-6.294,3.6-1.711,4.3,2.961,9.767,5.049,11.917a3.04,3.04,0,0,0,.951.659c.181.079,17.459,7.764,21.176,19.938a5.5,5.5,0,0,1-4.062-1.452,4.022,4.022,0,0,0-6.683,3.023c0,3.511-.837,10.391-6.266,17.93-3.611-2.819-9.961-9.215-10.093-19.381a4.044,4.044,0,0,0-2.728-3.769,3.971,3.971,0,0,0-4.442,1.3,24.31,24.31,0,0,1-3.93,4.1c.015-.2.029-.4.044-.592A37.576,37.576,0,0,0,325,457.422c-2.4-6.7-8.593-16.1-18.779-22.361-8.19-5.037-21.811-9.667-40.221-3.1l-22.676,8.452a7.237,7.237,0,0,0-4.353,9.165c2.812,8.229,9.025,24.123,19.038,38.095a2.805,2.805,0,0,1,.518,2.2,2.721,2.721,0,0,1-4.914.918c-14.209-22.785-23.97-54.929-26.784-88.192a16.756,16.756,0,0,0-6.526-11.914c-27.983-21.285-73.98-22.253-84.814-10.745a40.12,40.12,0,0,0-9.161,15.54c-.118.338-.246.706-.372,1.052a23.968,23.968,0,0,1-2.379-6.2,4.129,4.129,0,0,0-3.646-3.04,4.058,4.058,0,0,0-4.067,2.4c-4.6,10.209-13.9,13.746-18.644,14.915-2.219-9.972-.051-17.26,1.479-20.777a4.1,4.1,0,0,0-5.006-5.55,6.258,6.258,0,0,1-5.065-.484c7.525-9.089,23.526-10.523,28.378-10.745a11.235,11.235,0,0,0,4.532-1.177c5.379-2.691,7.988-5.518,7.977-8.641-.006-1.661-.8-4.027-4.529-5.861-3.791-1.862-8.407-.292-14.249,1.7-11.038,3.758-26.047,8.87-43.237-6.367.206-.21.415-.419.6-.609,4.072-4.094,7.589-7.63,5.761-10.917-1.616-2.91-5.62-1.986-7.13-1.639-7.019,1.62-13.319.92-16.317-.016,3.187-4.041,6-5.727,8.377-5.017a3,3,0,0,0,1.719-5.748,9.952,9.952,0,0,0-6.972.467l.027-.185c-.547-.083-12.745-2.111-17.551-16.765C40.942,305.106,52.016,303.615,62.429,310.142Zm84.327,14.6a39.266,39.266,0,0,1,12.6,6.829,3.476,3.476,0,0,1,.439,5.034,3.209,3.209,0,0,1-4.7.639c-2.205-1.688-4.328-4.623-6.313-8.724Q147.86,326.612,146.756,324.746ZM77.535,255.758c10.481,2.966,16.8,5.869,17.409,13.433a5.7,5.7,0,0,1-.083,1.931H94.81c-1.807,0-7.008-3.116-11.145-6.728-.025-.022-.052-.044-.078-.065C81,262.216,78.941,258.72,77.535,255.758Zm25.946-29.965c4.741,6,7.032,12.677,7.007,15.326a15.219,15.219,0,0,1-1.739-2.686c-.022-.045-.047-.091-.071-.135A65.622,65.622,0,0,1,103.481,225.793Zm55.141,55.419c14.78,14.3,17.438,23.233,17.107,34.538a11.773,11.773,0,0,1-.366,2.919,15.591,15.591,0,0,1-3.542-3.385C171.68,315.092,159.205,298.054,158.622,281.212Zm127.444-89.9a3.44,3.44,0,0,1-4.211,2.714,3.232,3.232,0,0,1-2.75-3.91c.479-2.744,2.1-5.989,4.81-9.646.836-1.126,1.631-2.3,2.386-3.512A39.7,39.7,0,0,1,286.066,191.307Zm67.809-98.5c-3.117,6.99-7.979,12.124-10.326,13.32a15.089,15.089,0,0,1,1.587-2.817q.045-.061.087-.126A65.469,65.469,0,0,1,353.875,92.807Zm-23.622,74.67c-5.844,19.779-12.515,26.259-22.661,31.166a11.729,11.729,0,0,1-2.736,1.014,15.571,15.571,0,0,1,1.365-4.743C306.325,194.7,315.671,175.741,330.253,167.477Zm11.016,197.688c-6.847,13.781-23.356,23.4-23.5,23.49a15.352,15.352,0,0,1-3.96,1.512,12.188,12.188,0,0,1,.715-2.3C318.369,378.267,323.849,371.727,341.269,365.165ZM408.3,338.924a61.115,61.115,0,0,1-8.31,7.829c-.04.03-.081.063-.12.1a13.888,13.888,0,0,1-1.794,1.257C399.347,345.937,402.871,342.016,408.3,338.924Zm11.369,34.648a23.03,23.03,0,0,1-7.888,4.687l-.1.03c-4.663,1.47-10.077,2.191-11.726,1.6a5.979,5.979,0,0,1,.592-1.446C403.758,372.45,410.008,372.26,419.673,373.572Zm-84.592,32.881q-1.392,1.029-2.688,2.137c-3.183,2.727-6.048,4.416-8.515,5.02a2.742,2.742,0,0,1-3.5-2.159,2.981,2.981,0,0,1,2.092-3.864,34.151,34.151,0,0,1,9.423-1.257Q333.458,406.33,335.081,406.453Z"/></svg>
