<svg height="512pt" viewBox="0 -13 512.1534 512" width="512pt" xmlns="http://www.w3.org/2000/svg"><path d="m119.464844 432.453125c15.03125-.136719 29.769531-4.15625 42.789062-11.664063 12.929688 7.511719 27.589844 11.539063 42.546875 11.691407 8.730469-.027344 17.402344-1.421875 25.703125-4.132813 5.847656 1.761719 11.921875 2.652344 18.03125 2.636719.851563 0 1.824219-.125 2.71875-.160156 5.539063 11.792969 14.28125 21.792969 25.226563 28.859375 3.414062 2.101562 7.011719 3.886718 10.75 5.332031 21.992187 13.613281 47.234375 21.070313 73.089843 21.597656 34.59375 0 74.761719-14.898437 114.609376-62.675781 46.261718-55.519531 45.707031-136.535156 18.542968-183.605469-3.796875-16.171875-13.160156-30.496093-26.453125-40.464843-17.089843-11.910157-36.921875-19.296876-57.640625-21.476563-8.023437-10.351563-24.527344-20.078125-58.488281-15.359375-15.234375 2.203125-30.105469 6.433594-44.21875 12.578125-19.953125-38.027344-55.792969-58.863281-101.871094-58.863281-11.96875-.003906-23.875 1.679687-35.371093 5-4.65625-18.621094-11.574219-36.601563-20.601563-53.539063 9.070313 1.964844 18.34375 2.796875 27.617187 2.484375 18.824219 25.058594 48.214844 39.960938 79.554688 40.335938 21.425781-.0625 42.539062-5.152344 61.644531-14.855469 21.273438-10.066406 44.042969-16.597656 67.414063-19.34375.972656-.132813 1.910156-.441406 2.773437-.90625.210938-.113281.417969-.238281.613281-.375.652344-.40625 1.25-.898437 1.765626-1.46875.1875-.195313.367187-.375.539062-.589844.621094-.78125 1.097656-1.671875 1.40625-2.625v-.09375c0-.078125 0-.15625 0-.230469.230469-.898437.308594-1.828124.242188-2.75 0-.296874-.070313-.589843-.121094-.851562-.101563-.742188-.304688-1.46875-.597656-2.160156-.109376-.222656-.179688-.453125-.296876-.675782-.449218-.808593-1.023437-1.535156-1.707031-2.15625l-.214843-.1875c-4.285157-3.636718-71.894532-61.664062-133.460938-61.664062-36.117188-.726562-69.097656 20.4375-83.480469 53.574219-13.871093.457031-27.609375-2.8125-39.785156-9.472657-3.457031-2.308593-8.078125-1.789062-10.933594 1.230469-2.859375 3.023438-3.125 7.664063-.628906 10.988281 13.808594 19.449219 24.0625 41.191407 30.285156 64.214844-10.460937-2.613281-21.207031-3.925781-31.992187-3.910156-57.75 0-119.464844 36.984375-119.464844 140.800781 0 96.453125 53.589844 174.933594 119.464844 174.933594zm191.335937-351.914063c-16.9375 8.773438-35.726562 13.375-54.800781 13.421876-22.34375-.140626-43.660156-9.386719-59.035156-25.597657.335937-.0625.640625-.105469.972656-.171875 8.316406-1.761718 16.480469-4.1875 24.40625-7.253906 21.726562-7.851562 42.445312-15.300781 124.734375 6.023438-12.410156 3.628906-24.535156 8.167968-36.277344 13.578124zm-54.800781-63.378906c29.304688 0 61.378906 15.746094 85.332031 30.773438-79.308593-19.457032-101.546875-11.460938-124.816406-3.046875-7.132813 2.769531-14.476563 4.96875-21.957031 6.578125-.699219.136718-1.347656.214844-2.03125.34375 13.226562-22.292969 37.570312-35.582032 63.472656-34.648438zm205.808594 395.855469c-44.101563 52.855469-87.894532 61.941406-124.265625 54.160156 41.335937-10.121093 86.835937-46.039062 120.695312-99.925781 15.589844-24.089844 27.164063-50.546875 34.273438-78.34375 7.988281 43.855469-3.1875 89.035156-30.703125 124.109375zm-18.074219-54.835937c-46.292969 73.71875-117.292969 112.757812-158.234375 87.039062-8.492188-5.558594-15.214844-13.433594-19.378906-22.691406l25.898437-41.238282c7.324219 3.15625 15.222657 4.769532 23.203125 4.742188 8.335938-.0625 16.59375-1.582031 24.402344-4.496094 40.679688-16.410156 66.222656-57.085937 63.335938-100.855468-1.191407-16.414063-8.6875-31.730469-20.921876-42.734376l26.707032-42.4375c17.148437 1.953126 33.558594 8.082032 47.789062 17.851563 47.476563 36.761719 6.894532 113.511719-12.800781 144.820313zm-77.65625-110.933594c11.757813 7.953125 19.105469 20.957031 19.851563 35.132812 2.125 36-18.832032 69.378906-52.183594 83.105469-12.992188 5.941406-28.105469 4.945313-40.203125-2.652344-12.101563-7.59375-19.566407-20.773437-19.863281-35.058593-2.109376-35.996094 18.847656-69.371094 52.191406-83.105469 5.921875-2.207031 12.183594-3.359375 18.5-3.414063 7.683594-.101562 15.238281 1.984375 21.777344 6.015625zm-12.796875-67.285156c13.949219-1.945313 31.570312-2.058594 40.78125 6.878906l-26.414062 42.050781c-15.222657-6.246094-32.273438-6.347656-47.570313-.28125-40.699219 16.402344-66.257813 57.089844-63.371094 100.871094 1.1875 16.410156 8.683594 31.726562 20.917969 42.726562l-26.054688 41.488281c-8.886718.765626-17.789062-1.265624-25.460937-5.808593-19.832031-12.441407-22.46875-40.363281-22.273437-55.902344 1.050781-83.535156 68.078124-160.691406 149.445312-172.023437zm-62.167969 3.226562c-62.105469 33.820312-101.769531 97.894531-104.34375 168.566406-.34375 27.722656 7.277344 49.730469 21.496094 63.511719-1.152344.050781-2.296875.148437-3.464844.148437-56.464843 0-102.402343-70.828124-102.402343-157.867187 0-77.484375 38.28125-123.734375 102.402343-123.734375 35.902344-1.679688 69.535157 17.566406 86.269531 49.375zm-171.648437-49.402344c6.691406-.007812 13.367187.546875 19.960937 1.664063-31.050781 20.351562-54.09375 58.726562-54.09375 122.097656 0 65.246094 24.570313 122.171875 60.828125 152.234375-8.433594 3.632812-17.511718 5.539062-26.695312 5.605469-56.464844 0-102.398438-70.828125-102.398438-157.867188 0-77.480469 38.28125-123.734375 102.398438-123.734375zm0 0"/><path d="m136.535156 236.1875c4.710938 0 8.53125-3.820312 8.53125-8.535156 0-57.460938 38.289063-59.671875 42.667969-59.730469 4.710937 0 8.53125-3.824219 8.53125-8.535156 0-4.714844-3.820313-8.535157-8.53125-8.535157-.597656 0-59.734375.855469-59.734375 76.800782 0 4.714844 3.820312 8.535156 8.535156 8.535156zm0 0"/><path d="m230.398438 159.386719c0 4.710937-3.820313 8.535156-8.53125 8.535156-4.714844 0-8.535157-3.824219-8.535157-8.535156 0-4.714844 3.820313-8.535157 8.535157-8.535157 4.710937 0 8.53125 3.820313 8.53125 8.535157zm0 0"/><path d="m290.296875 319.386719c-.539063 2.199219-.179687 4.519531.992187 6.457031 1.175782 1.933594 3.070313 3.324219 5.269532 3.859375.664062.160156 1.347656.238281 2.03125.238281 3.933594 0 7.355468-2.691406 8.285156-6.511718 10.804688-44.371094 34.296875-46.667969 35.601562-46.761719 4.660157-.199219 8.296876-4.101563 8.167969-8.761719-.027343-2.273438-.976562-4.441406-2.628906-6.003906s-3.863281-2.390625-6.136719-2.292969c-1.519531.042969-37.433594 1.683594-51.582031 59.777344zm0 0"/></svg>