<svg id="Capa_1" enable-background="new 0 0 512.009 512.009" height="512" viewBox="0 0 512.009 512.009" width="512" xmlns="http://www.w3.org/2000/svg"><g><path d="m479.893 303.966c-29.773-38.32-49.822-82.812-57.981-128.664-7.545-42.393-44.273-73.161-87.332-73.161h-10.333c-31.533 0-59.654 16.513-75.422 41.996-2.297-5.2-5.182-10.055-8.583-14.474 24.149-10.907 38.746-29.026 43.424-53.984 4.294-22.906-1.044-46.844-6.277-62.891-2.099-6.436-7.315-11.075-13.953-12.41-6.657-1.338-13.282.933-17.72 6.074-7.343 8.505-21.507 21.974-47.284 37.837-29.736 18.3-41.109 42.379-45.297 60.514-25.493 7.19-45.427 28.361-50.265 55.552-5.559 31.235-15.371 61.891-29.164 91.113-1.769 3.746-.165 8.216 3.581 9.983 1.034.488 2.123.72 3.196.72 2.812 0 5.508-1.589 6.787-4.301 14.359-30.422 24.576-62.347 30.367-94.888 4.727-26.561 27.738-45.839 54.716-45.839h11.944c26.978 0 49.989 19.278 54.716 45.843.123.688.249 1.376.376 2.064-1.009 3.334-1.85 6.749-2.474 10.252-8.16 45.854-28.21 90.345-57.982 128.663-17.716 22.804-27.08 50.146-27.08 79.074 0 49.337 27.853 92.286 68.656 113.967h-98.353c-56.309 0-102.119-45.811-102.119-102.119 0-22.908 7.409-44.552 21.427-62.593 10.326-13.291 19.9-27.345 28.454-41.772 2.112-3.563.937-8.164-2.626-10.276-3.563-2.113-8.164-.938-10.276 2.626-8.235 13.891-17.453 27.422-27.397 40.22-16.081 20.697-24.581 45.523-24.581 71.796 0 64.58 52.539 117.119 117.119 117.119h112.339c7.608 0 15.219-.739 22.629-2.189 7.685 1.433 15.604 2.19 23.698 2.19h97.184c71.113 0 128.969-57.855 128.969-128.969-.003-28.929-9.367-56.272-27.083-79.073zm-310.499-201.757c4.561-14.287 14.721-31.498 36.899-45.146 22.007-13.543 39.09-27.273 50.777-40.811 1.231-1.426 2.793-1.291 3.408-1.17.752.151 2.096.658 2.649 2.354 4.69 14.385 9.505 35.686 5.795 55.477-4.014 21.411-17.441 36.599-39.918 45.181-7.254-5.937-15.691-10.428-24.866-13.108 23.578-14.249 41.105-26.839 51.104-48.892 1.71-3.772.038-8.217-3.734-9.928-3.775-1.709-8.218-.039-9.928 3.734-3.552 7.834-8.176 14.234-14.565 20.336.09-1.239.138-2.494.131-3.755-.022-4.129-3.376-7.46-7.499-7.46-.014 0-.027 0-.041 0-4.143.022-7.482 3.398-7.46 7.54.039 7.285-2.495 14.706-3.808 18.057-4.887 3.224-10.37 6.601-16.549 10.282-3.909 2.329-7.653 4.763-11.171 7.242h-8.266c-.991.001-1.976.027-2.958.067zm208.61 394.8h-97.184c-62.843 0-113.969-51.126-113.969-113.969 0-25.563 8.273-49.725 23.926-69.871 31.259-40.232 52.32-86.997 60.904-135.237 6.269-35.225 36.786-60.791 72.564-60.791h10.333c35.777 0 66.295 25.565 72.564 60.789 8.583 48.239 29.644 95.004 60.903 135.239 15.652 20.145 23.926 44.306 23.926 69.871.002 62.843-51.124 113.969-113.967 113.969z"/><path d="m458.857 320.309c-32.414-41.721-54.259-90.249-63.173-140.34-4.333-24.353-22.679-43.783-46.737-49.502-4.025-.957-8.073 1.532-9.031 5.563s1.532 8.073 5.563 9.031c18.241 4.336 32.152 19.069 35.439 37.536 9.338 52.477 32.192 103.279 66.094 146.915 11.987 15.428 18.323 33.937 18.323 53.526 0 48.154-39.176 87.331-87.33 87.331h-97.184c-41.79 0-77.851-29.736-85.744-70.706-.783-4.066-4.706-6.731-8.783-5.945-4.067.783-6.729 4.716-5.945 8.783 9.251 48.017 51.506 82.868 100.473 82.868h97.184c56.425 0 102.33-45.905 102.33-102.331-.002-22.953-7.428-44.645-21.479-62.729z"/><path d="m186.331 372.154c.485.095.968.14 1.443.14 3.517 0 6.655-2.485 7.354-6.065 2.595-13.311 8.365-26.007 16.687-36.717 33.9-43.633 56.756-94.435 66.095-146.913 3.239-18.202 16.916-32.878 34.844-37.389 4.017-1.011 6.454-5.087 5.443-9.104-1.011-4.018-5.089-6.449-9.104-5.443-23.643 5.949-41.68 25.303-45.951 49.307-8.914 50.093-30.759 98.621-63.173 140.339-9.756 12.558-16.521 27.443-19.563 43.049-.794 4.065 1.859 8.003 5.925 8.796z"/><path d="m357.975 357.176c12.632 0 22.908-10.276 22.908-22.907 0-12.632-10.276-22.908-22.908-22.908h-7.242c-8.638 0-15.665 7.027-15.665 15.666v7.242c0 12.63 10.276 22.907 22.907 22.907zm-7.907-30.15c0-.367.299-.666.665-.666h7.242c4.36 0 7.908 3.548 7.908 7.908s-3.548 7.907-7.908 7.907-7.907-3.547-7.907-7.907z"/><path d="m300.85 311.36c-12.631 0-22.907 10.276-22.907 22.908 0 12.631 10.276 22.907 22.907 22.907s22.907-10.276 22.907-22.907v-7.242c0-8.639-7.027-15.666-15.665-15.666zm7.907 15.666v7.242c0 4.36-3.547 7.907-7.907 7.907s-7.907-3.547-7.907-7.907 3.547-7.908 7.907-7.908h7.242c.366 0 .665.299.665.666z"/></g></svg>