<svg height="511pt" viewBox="-73 0 511 511.99933" width="511pt" xmlns="http://www.w3.org/2000/svg"><path d="m69.675781 150.46875c24.222657 0 43.929688-19.707031 43.929688-43.925781 0-24.222657-19.707031-43.929688-43.929688-43.929688-24.222656 0-43.929687 19.707031-43.929687 43.929688 0 24.21875 19.707031 43.925781 43.929687 43.925781zm0-72.707031c15.871094 0 28.78125 12.910156 28.78125 28.78125 0 15.867187-12.910156 28.78125-28.78125 28.78125-15.871093 0-28.78125-12.914063-28.78125-28.78125 0-15.871094 12.910157-28.78125 28.78125-28.78125zm0 0"/><path d="m172.679688 114.117188c24.222656 0 43.929687-19.707032 43.929687-43.929688s-19.707031-43.929688-43.929687-43.929688c-24.222657 0-43.929688 19.707032-43.929688 43.929688s19.707031 43.929688 43.929688 43.929688zm0-72.710938c15.871093 0 28.78125 12.910156 28.78125 28.78125 0 15.867188-12.910157 28.78125-28.78125 28.78125-15.867188 0-28.78125-12.914062-28.78125-28.78125 0-15.871094 12.914062-28.78125 28.78125-28.78125zm0 0"/><path d="m44.429688 269.632812c24.222656 0 43.929687-19.707031 43.929687-43.925781 0-24.222656-19.707031-43.929687-43.929687-43.929687-24.222657 0-43.929688 19.707031-43.929688 43.929687 0 24.21875 19.707031 43.925781 43.929688 43.925781zm0-72.707031c15.867187 0 28.78125 12.910157 28.78125 28.78125 0 15.867188-12.914063 28.78125-28.78125 28.78125-15.871094 0-28.78125-12.914062-28.78125-28.78125 0-15.871093 12.910156-28.78125 28.78125-28.78125zm0 0"/><path d="m358.496094 241.800781c4.183594 0 7.574218-3.390625 7.574218-7.574219v-49.925781c0-7.15625-2.160156-16.757812-6.417968-28.539062-4.183594-11.554688-10.011719-22.519531-17.328125-32.582031l-7.390625-10.164063c-4.738282-6.507813-7.238282-14.203125-7.238282-22.25v-.160156c0-13.65625-9.488281-25.128907-22.21875-28.195313v-21.894531c10.257813 2.074219 21.601563 3.839844 34.097657 5.074219 4.109375.402344 7.875-2.683594 8.28125-6.792969s-2.6875-7.878906-6.792969-8.28125c-66.054688-6.515625-98.917969-28.808594-99.40625-29.144531-3.421875-2.398438-8.136719-1.570313-10.539062 1.847656-2.40625 3.421875-1.582032 8.144531 1.839843 10.550781 1.050781.738281 19.824219 13.660157 57.375 23.289063v25.277344c-.414062.09375-.824219.199218-1.230469.3125-10.855468-.355469-21.09375 5.53125-26.386718 15.347656-3.839844 7.101562-9.71875 12.695312-17 16.175781l-11.355469 5.414063c-11.253906 5.378906-21.613281 12.25-30.800781 20.421874-9.359375 8.355469-15.824219 15.765626-19.207032 22.019532l-46.628906 86.097656c-1.8125 3.347656-.796875 7.652344 2.332032 9.824219 3.664062 2.542969 8.867187 1.308593 10.988281-2.609375l46.628906-86.101563c1.75-3.238281 5.945313-8.976562 15.964844-17.921875 8.113281-7.21875 17.28125-13.296875 27.246093-18.0625l11.359376-5.414062c5.851562-2.796875 11.054687-6.574219 15.445312-11.164063-.925781 5.871094-3.222656 11.425781-6.78125 16.316407l-7.398438 10.167968c-7.335937 10.074219-13.175781 21.050782-17.355468 32.621094-4.257813 11.769531-6.414063 21.363281-6.414063 28.519531v128.390625l-29 53.542969c-32.355469 59.742187-107.277343 82.023437-167.011719 49.671875l-.792968-.429688 24.191406-26.421874c17.320312-18.925782 32.308594-39.96875 44.546875-62.554688l32.605469-60.203125c1.992187-3.675781.625-8.273437-3.054688-10.265625-3.679687-1.996094-8.273437-.625-10.265625 3.050781l-32.601562 60.203125c-11.652344 21.496094-25.917969 41.527344-42.402344 59.539063l-30.742187 33.578125c-1.574219 1.722656-2.265626 4.070312-1.882813 6.371094.386719 2.300781 1.8125 4.292968 3.863281 5.402343l9.320313 5.050781c20.519531 11.113282 42.996093 16.757813 65.695312 16.757813 13.246094 0 26.574219-1.921875 39.628907-5.804687 35.421874-10.535157 64.625-34.234376 82.222656-66.730469l15.679687-28.949219v41.382812c0 24.433594-3.003906 48.839844-8.929687 72.542969l-11.042969 44.164063c-.566406 2.261718-.058594 4.660156 1.378906 6.496094 1.433594 1.839843 3.636719 2.914062 5.96875 2.914062h10.605469c76.285156 0 138.351562-62.066406 138.351562-138.351562v-104.015626c0-4.179687-3.390624-7.574218-7.574218-7.574218s-7.574219 3.394531-7.574219 7.574218v104.015626c0 67.9375-54.859375 123.203124-122.792969 123.203124h-1.3125l8.6875-34.75c6.226563-24.902343 9.382813-50.546874 9.382813-76.21875v-201.582031c0-3.707031.953125-10.773437 5.507812-23.371093 3.699219-10.226563 8.867188-19.933594 15.359375-28.855469l7.402344-10.167969c6.648438-9.140625 10.15625-19.945312 10.144531-31.25-.007812-3.828125 1.441407-7.390625 4.070313-10.023438 2.5-2.503906 5.835937-3.882812 9.394531-3.882812h1.925781c7.640625 0 13.855469 6.214844 13.855469 13.855469v.160156c0 11.269531 3.503906 22.046875 10.132813 31.160156l7.390624 10.164063c6.480469 8.910156 11.640626 18.609375 15.335938 28.824218 4.558594 12.609376 5.515625 19.675782 5.515625 23.386719v49.925781c0 4.183594 3.390625 7.574219 7.574219 7.574219zm0 0"/></svg>