<svg id="outline" height="512" viewBox="0 0 64 64" width="512" xmlns="http://www.w3.org/2000/svg"><path d="m43.15723 32.39062a10.96034 10.96034 0 0 0 -4.22168-4.86035l-4.665-2.915a9.11874 9.11874 0 0 1 -1.251-.94238l-6.49805-5.84863a10.98189 10.98189 0 0 0 -7.35841-2.82426h-3.02051a10.92887 10.92887 0 0 0 -7.77832 3.22168l-3.14258 3.14258a10.92887 10.92887 0 0 0 -3.22168 7.77832v4.66113a11.08747 11.08747 0 0 0 1.01172 4.60938l3.61035 7.82129a11.03122 11.03122 0 0 0 5.06836 5.22851l2.751 1.376a11.05574 11.05574 0 0 0 4.91892 1.16111h14.49707a10.92887 10.92887 0 0 0 7.77832-3.22168l1.14258-1.14258a10.92887 10.92887 0 0 0 3.22168-7.77832v-.73535a10.93831 10.93831 0 0 0 -.94824-4.46777zm.84277 9.4668a8.94422 8.94422 0 0 1 -2.63574 6.36426l-1.14258 1.14258a8.94422 8.94422 0 0 1 -6.36426 2.63574h-14.49707a9.038 9.038 0 0 1 -4.02441-.9502l-2.751-1.376a9.01921 9.01921 0 0 1 -4.14648-4.27735l-3.61034-7.82125a9.06679 9.06679 0 0 1 -.82812-3.77149v-4.66113a8.94422 8.94422 0 0 1 2.63574-6.36426l3.14258-3.14258a8.94422 8.94422 0 0 1 6.36426-2.63574h3.02051a8.98457 8.98457 0 0 1 6.0205 2.31055l6.499 5.84961a11.086 11.086 0 0 0 1.52741 1.15039l4.665 2.915a8.96592 8.96592 0 0 1 3.4541 3.97753l1.89453 4.26368a8.92932 8.92932 0 0 1 .77637 3.65531z"/><path d="m21 35h2v2h-2z"/><path d="m32 43h2v2h-2z"/><path d="m27 47h2v2h-2z"/><path d="m8 25h2v2h-2z"/><path d="m18 21h2v2h-2z"/><path d="m32 34h2v2h-2z"/><path d="m15 37h2v2h-2z"/><path d="m14 30h2v2h-2z"/><path d="m35 47h2v2h-2z"/><path d="m21 47h2v2h-2z"/><path d="m39 41h2v2h-2z"/><path d="m57.499 13.085a10.46273 10.46273 0 0 0 -7.44724-3.085h-11.05176a11.04131 11.04131 0 0 0 -9.52734 5.499l1.73046 1.002a9.036 9.036 0 0 1 7.79688-4.501 8.69673 8.69673 0 0 1 3.44434.707l3.04492 1.30469a10.95073 10.95073 0 0 1 5.4834 5.1709l.0791.1582a9.01521 9.01521 0 0 1 .94824 4.01468v6.23633a8.42851 8.42851 0 0 1 -3.5752 6.88183l1.1504 1.63477a10.42631 10.42631 0 0 0 4.4248-8.5166v-6.23633a11.02659 11.02659 0 0 0 -1.15918-4.90918l-.0791-.1582a12.95407 12.95407 0 0 0 -6.48438-6.11426l-.4057-.17383h4.18012a8.47646 8.47646 0 0 1 6.0332 2.499l1.416 1.416a8.47646 8.47646 0 0 1 2.49904 6.03324v7.52051a8.53087 8.53087 0 0 1 -7.16016 8.41992l.32032 1.97461a10.53225 10.53225 0 0 0 8.83984-10.39453v-7.52051a10.46273 10.46273 0 0 0 -3.085-7.44724z"/></svg>