<svg height="512" viewBox="0 0 64 64" width="512" xmlns="http://www.w3.org/2000/svg"><g id="outline"><path d="m49.15 13.011a14.586 14.586 0 0 0 -4.991-.06 27.435 27.435 0 0 0 -5.128-2.088c.619-.863 1.258-1.64 1.769-2.263a2.4 2.4 0 0 0 .282-2.613 3.529 3.529 0 0 0 -3.082-1.987h-3a4.543 4.543 0 0 0 -3.144 1.641 14.206 14.206 0 0 0 -2.856 4.966 13.311 13.311 0 0 0 -1.375.464 14.7 14.7 0 0 0 -1.69.808c-1.749-.733-6.582-2.337-10.5.3a8.666 8.666 0 0 0 -2.083 2.012c-7.175 3.035-9.533 7.238-10.3 9.493-.787 2.329-.883 5.205-1.028 9.558l-.024 6.758c0 5.192 4.276 11 10 11 .114 0 .229 0 .344-.007a9.936 9.936 0 0 0 8.656 5.007h2.441c1.7 2.55 4.782 4 8.559 4a9.554 9.554 0 0 0 7.229-2.737 11.45 11.45 0 0 0 4.771.737 10.241 10.241 0 0 0 9.8-7.135c4.76-.822 8.154-5.617 8.2-11.732 0 0 .039-1.683.079-2.608.303-6.964.935-21.458-12.929-23.514zm-7.45.97a17.5 17.5 0 0 0 -4.776 3.629c-.579-1.522.012-3.31.962-4.98a23.949 23.949 0 0 1 3.814 1.351zm-11.7 2.977a14.417 14.417 0 0 1 3.3-9.933 2.8 2.8 0 0 1 1.7-1.025h3a1.553 1.553 0 0 1 1.276.835.417.417 0 0 1 -.048.53c-2 2.436-5.731 6.97-4.16 11a6.019 6.019 0 0 0 1.932 2.5c-.318.227-.624.468-.922.725a12.433 12.433 0 0 0 -1.486-1.4 7.61 7.61 0 0 0 -4.954-1.49 5.136 5.136 0 0 0 .362-1.742zm-13.443-3.127c3.564-2.39 8.467-.186 9.015.073a1 1 0 0 0 .945-.048 12.828 12.828 0 0 1 1.846-.924 16.745 16.745 0 0 0 -.363 4.11 7.423 7.423 0 0 1 -.7 2.092 9.062 9.062 0 0 0 -1.872.671c-1.257-1.905-3.962-5.1-8.274-5.792-.237-.039-.477-.065-.717-.086.045-.027.078-.068.12-.096zm-11.611 10.492c.664-1.947 2.758-5.606 9.307-8.343a8.672 8.672 0 0 1 2.589.007 9.814 9.814 0 0 1 5.705 3.335 17.744 17.744 0 0 0 -3.556-.322 18.942 18.942 0 0 0 -8.476 2.125 15.38 15.38 0 0 0 -6.223 6.758 15.593 15.593 0 0 1 .654-3.56zm16.054 29.677a7.956 7.956 0 0 1 -7.156-4.446 35.469 35.469 0 0 1 -1.856-5.707 18.906 18.906 0 0 1 1.905-11.4l-1.786-.9a20.9 20.9 0 0 0 -2.095 12.6 19.857 19.857 0 0 0 1.388 4.814c-4.275-.395-7.4-4.902-7.4-8.961 0 0-.04-2.986-.035-3.924 0 0 .962-9.565 7.519-13.2a17.15 17.15 0 0 1 7.525-1.876 15.937 15.937 0 0 1 4.057.475 10.4 10.4 0 0 0 -.837.888 10.9 10.9 0 0 0 -2.219 5.5 63.934 63.934 0 0 0 2.632 26.137zm17.092 1.519a7.481 7.481 0 0 1 -6.092 2.481c-3.247 0-5.821-1.251-7.087-3.429a61.944 61.944 0 0 1 -2.923-26.434 9.008 9.008 0 0 1 1.781-4.5 7.4 7.4 0 0 1 4.408-2.653c.035-.006.155-.038.189-.048a5.679 5.679 0 0 1 5.043.873 14.577 14.577 0 0 1 1.825 1.837 19.631 19.631 0 0 1 3.786 8.566 43.2 43.2 0 0 1 .978 9.777 53.669 53.669 0 0 1 -1.908 13.53zm13.987-5.914a.956.956 0 0 0 -.055.137 8.3 8.3 0 0 1 -8.024 6.258 10.034 10.034 0 0 1 -3.833-.516 55.637 55.637 0 0 0 1.833-13.473 45.288 45.288 0 0 0 -1.022-10.224 22.5 22.5 0 0 0 -3.635-8.676 10.2 10.2 0 0 1 3.928-2.149 10.549 10.549 0 0 1 9.1 1.813c1.666 1.36 2.9 3.861 3.653 7.433a34.384 34.384 0 0 1 -1.945 19.397zm8-13.167c-.042.978-.079 1.846-.079 2.562 0 4.665-2.214 8.413-5.45 9.594a35.787 35.787 0 0 0 1.429-18.8c-.868-4.085-2.29-6.888-4.346-8.566-4.654-3.8-10.278-2.365-10.9-2.188a11.812 11.812 0 0 0 -1.845.712 6.194 6.194 0 0 1 -.733-.524 16.221 16.221 0 0 1 6.141-4.262 12.468 12.468 0 0 1 4.562.025c12.079 1.79 11.542 14.095 11.222 21.447z"/><path d="m48.663 25.251a9.9 9.9 0 0 0 -4.449-2.228l-.428 1.954a7.89 7.89 0 0 1 3.551 1.772c2.863 2.539 2.724 6.422 2.663 7.175l2 .152c.067-.918.235-5.659-3.337-8.825z"/><path d="m50 36h2v2h-2z"/><path d="m28 48h2v2h-2z"/><path d="m25 43h2v2h-2z"/></g></svg>