<?xml version="1.0" encoding="iso-8859-1"?>
<!-- Generator: Adobe Illustrator 19.0.0, SVG Export Plug-In . SVG Version: 6.00 Build 0)  -->
<svg version="1.1" id="Capa_1" xmlns="http://www.w3.org/2000/svg" xmlns:xlink="http://www.w3.org/1999/xlink" x="0px" y="0px"
	 viewBox="0 0 463 463" style="enable-background:new 0 0 463 463;" xml:space="preserve">
<path d="M303.566,135.121c6.055-6.502,11.773-12.644,16.963-18.776c17.872-21.121,25.638-44.153,21.307-63.192
	c-2.703-11.882-9.885-20.976-20.222-25.606c-15.573-6.976-32.544-3.525-47.231,9.089c-2.047-6.484-4.75-12.275-8.1-17.227
	C257.814,6.893,245.461,0,231.5,0s-26.314,6.893-34.783,19.408c-3.352,4.953-6.055,10.748-8.102,17.235
	c-14.688-12.598-31.699-16.052-47.229-9.097c-10.337,4.631-17.519,13.725-20.222,25.606c-4.331,19.039,3.435,42.071,21.307,63.192
	c5.189,6.133,10.908,12.274,16.963,18.776c18.714,20.097,39.691,42.625,57.882,77.743c0.359,1.4,0.706,2.771,1.043,4.122
	C176.323,223.345,144,259.718,144,303.5c0,42.685,35.678,72.138,59.286,91.628c8.087,6.677,20.31,16.767,20.714,20.372
	c0,0.004,0,0.008,0,0.012V455.5c0,4.143,3.357,7.5,7.5,7.5s7.5-3.357,7.5-7.5v-39.97c0.436-3.662,12.637-13.734,20.714-20.402
	C283.322,375.638,319,346.185,319,303.5c0-43.782-32.323-80.155-74.359-86.513c0.338-1.352,0.685-2.724,1.044-4.124
	C263.876,177.745,284.853,155.217,303.566,135.121z M315.481,41.235c6.018,2.695,10.072,7.967,11.729,15.244
	c3.228,14.188-3.551,32.944-18.132,50.176c-4.959,5.861-10.56,11.876-16.489,18.244c-10.299,11.06-21.873,23.494-33.435,38.764
	C269.38,126.842,279,90.446,279,69.723c0-5.447-0.316-10.661-0.92-15.624C289.856,40.504,303.367,35.809,315.481,41.235z M231.5,15
	c19.743,0,32.5,21.479,32.5,54.723c0,20.791-11.924,63.518-22.444,101.214c-0.862,3.09-1.716,6.148-2.556,9.17v-76.602
	c0-0.003,0-0.007,0-0.01V74.607l13.804-13.804c2.929-2.93,2.929-7.678,0-10.607c-2.93-2.928-7.678-2.928-10.607,0L239,53.393V39.5
	c0-4.143-3.357-7.5-7.5-7.5s-7.5,3.357-7.5,7.5v31.995c0,0.003,0,0.007,0,0.01v13.887l-3.196-3.196
	c-2.93-2.928-7.678-2.928-10.607,0c-2.929,2.93-2.929,7.678,0,10.607L224,106.607v73.501c-0.841-3.024-1.695-6.084-2.558-9.176
	C210.923,133.237,199,90.513,199,69.723C199,36.479,211.757,15,231.5,15z M153.922,106.655
	c-14.581-17.231-21.359-35.988-18.132-50.176c1.656-7.277,5.711-12.549,11.729-15.244c12.081-5.414,25.635-0.724,37.402,12.859
	C184.316,59.059,184,64.274,184,69.723c0,20.724,9.62,57.119,19.846,93.941c-11.562-15.271-23.136-27.705-33.435-38.764
	C164.481,118.531,158.881,112.517,153.922,106.655z M304,303.5c0,35.616-31.115,61.304-53.835,80.061
	c-7.533,6.219-14.03,11.582-18.665,16.669c-4.635-5.087-11.132-10.45-18.665-16.669C190.115,364.804,159,339.116,159,303.5
	c0-39.977,32.523-72.5,72.5-72.5S304,263.523,304,303.5z"/>
<g>
</g>
<g>
</g>
<g>
</g>
<g>
</g>
<g>
</g>
<g>
</g>
<g>
</g>
<g>
</g>
<g>
</g>
<g>
</g>
<g>
</g>
<g>
</g>
<g>
</g>
<g>
</g>
<g>
</g>
</svg>
