<?xml version="1.0" encoding="UTF-8"?>
<svg xmlns="http://www.w3.org/2000/svg" id="Layer_1" data-name="Layer 1" viewBox="0 0 64 64" width="512" height="512"><path d="M46.386,28.92a.989.989,0,0,0,.321-.213l3-3a1,1,0,0,0-1.414-1.414l-1.422,1.422c.083-.894.129-1.8.129-2.715a29.09,29.09,0,0,0-.314-4.273,1.012,1.012,0,0,0,.171-.212l3-5a1,1,0,0,0-1.714-1.03L46.1,15.894C44.01,7.807,38.488,2,32,2c-8.271,0-15,9.421-15,21,0,6.821,2.372,13.232,6.344,17.15A18.5,18.5,0,0,1,29,53.362V61a1,1,0,0,0,1,1h4a1,1,0,0,0,1-1V53.362A18.5,18.5,0,0,1,40.656,40.15,22.161,22.161,0,0,0,46.386,28.92ZM33,53.362V60H31V53.362a20.476,20.476,0,0,0-6.252-14.635C21.149,35.177,19,29.3,19,23,19,12.523,24.832,4,32,4s13,8.523,13,19c0,6.3-2.149,12.177-5.748,15.727A20.476,20.476,0,0,0,33,53.362Z"/><path d="M40.752,28.342a1,1,0,0,0-1.411-.095L38,29.421V28a1,1,0,0,0-2,0v3a.979.979,0,0,0,.029.145L33,33.8V23.414l5.707-5.707a1,1,0,0,0-1.414-1.414L33,20.586V10a1,1,0,0,0-2,0v4l-2.4-1.8a1,1,0,0,0-1.2,1.6L31,16.5V27l-2-1.5V21a1,1,0,0,0-2,0v3l-2.4-1.8a1,1,0,0,0-1.2,1.6L25,25H24a1,1,0,0,0,0,2h3.667L31,29.5V45a1,1,0,0,0,2,0V36.454l7.659-6.7A1,1,0,0,0,40.752,28.342Z"/><path d="M27,60V53.362a20.476,20.476,0,0,0-6.252-14.635C17.149,35.177,15,29.3,15,23c0-7.882,3.408-15.038,8.479-17.809a1,1,0,0,0-.958-1.755C16.737,6.6,13,14.274,13,23c0,6.821,2.372,13.232,6.344,17.15A18.5,18.5,0,0,1,25,53.362V61a1,1,0,0,0,1,1h1a1,1,0,0,0,0-2Z"/><path d="M41.96,2.141a10.968,10.968,0,0,0-2.05-.007,1,1,0,1,0,.18,1.992,9.045,9.045,0,0,1,1.678,0c7.134.693,12.114,9.741,11.1,20.168-.609,6.267-3.317,11.912-7.243,15.1A20.484,20.484,0,0,0,37.99,53.359l-.641,6.607L36.1,59.844a1,1,0,1,0-.194,1.99l2.247.219c.033,0,.065.005.1.005a1,1,0,0,0,.995-.9l.738-7.6a18.5,18.5,0,0,1,6.908-12.6c4.332-3.515,7.313-9.668,7.972-16.457C55.979,12.968,50.193,2.94,41.96,2.141Z"/></svg>
