<svg id="Capa_1" enable-background="new 0 0 512 512" height="512" viewBox="0 0 512 512" width="512" xmlns="http://www.w3.org/2000/svg"><g><g><path d="m66.767 222.743c-4.143 0-7.5 3.358-7.5 7.5v13.145c0 4.142 3.357 7.5 7.5 7.5s7.5-3.358 7.5-7.5v-13.145c0-4.142-3.357-7.5-7.5-7.5z"/><path d="m130.235 222.743c-4.143 0-7.5 3.358-7.5 7.5v13.145c0 4.142 3.357 7.5 7.5 7.5s7.5-3.358 7.5-7.5v-13.145c0-4.142-3.358-7.5-7.5-7.5z"/><path d="m193.704 222.743c-4.143 0-7.5 3.358-7.5 7.5v13.145c0 4.142 3.357 7.5 7.5 7.5s7.5-3.358 7.5-7.5v-13.145c0-4.142-3.358-7.5-7.5-7.5z"/><path d="m98.501 173.922c-4.143 0-7.5 3.358-7.5 7.5v13.144c0 4.142 3.357 7.5 7.5 7.5s7.5-3.358 7.5-7.5v-13.144c0-4.142-3.357-7.5-7.5-7.5z"/><path d="m161.969 173.922c-4.143 0-7.5 3.358-7.5 7.5v13.144c0 4.142 3.357 7.5 7.5 7.5s7.5-3.358 7.5-7.5v-13.144c0-4.142-3.357-7.5-7.5-7.5z"/><path d="m225.437 173.922c-4.143 0-7.5 3.358-7.5 7.5v13.144c0 4.142 3.357 7.5 7.5 7.5s7.5-3.358 7.5-7.5v-13.144c0-4.142-3.357-7.5-7.5-7.5z"/><path d="m98.501 277.667c-4.143 0-7.5 3.358-7.5 7.5v13.144c0 4.142 3.357 7.5 7.5 7.5s7.5-3.358 7.5-7.5v-13.144c0-4.142-3.357-7.5-7.5-7.5z"/><path d="m161.969 277.667c-4.143 0-7.5 3.358-7.5 7.5v13.144c0 4.142 3.357 7.5 7.5 7.5s7.5-3.358 7.5-7.5v-13.144c0-4.142-3.357-7.5-7.5-7.5z"/><path d="m129.014 329.212c-4.143 0-7.5 3.358-7.5 7.5v13.144c0 4.142 3.357 7.5 7.5 7.5s7.5-3.358 7.5-7.5v-13.144c0-4.142-3.357-7.5-7.5-7.5z"/><path d="m192.483 329.212c-4.143 0-7.5 3.358-7.5 7.5v13.144c0 4.142 3.357 7.5 7.5 7.5s7.5-3.358 7.5-7.5v-13.144c0-4.142-3.358-7.5-7.5-7.5z"/><path d="m160.749 385.074c-4.143 0-7.5 3.358-7.5 7.5v13.145c0 4.142 3.357 7.5 7.5 7.5s7.5-3.358 7.5-7.5v-13.145c0-4.142-3.358-7.5-7.5-7.5z"/><path d="m509.969 289.324c-12.073-16.273-33.116-27.651-57.386-31.669 6.68-14.814 9.39-30.194 7.319-44.173 0 0 0 0 0-.001-.667-4.495-4.135-7.962-8.63-8.629-13.974-2.07-29.354.64-44.169 7.319-.118-.713-.237-1.425-.368-2.133-.752-4.074-4.662-6.768-8.736-6.015-4.073.751-6.767 4.662-6.016 8.736 1.141 6.183 1.719 12.57 1.719 18.985 0 9.146-1.161 17.983-3.306 26.178l-10.485-10.485c1.296-14.406-2.296-30.609-10.465-45.327-3.597-6.48-7.907-12.362-12.707-17.474 3.523-6.075 7.747-11.349 12.585-15.528 4.134 3.585 7.893 8.048 11.204 13.31 2.207 3.505 6.836 4.56 10.343 2.352 3.506-2.206 4.559-6.837 2.353-10.342-5.048-8.019-11.034-14.628-17.794-19.642-3.647-2.707-8.551-2.709-12.204 0-6.915 5.13-12.932 11.893-17.885 19.826-7.91-5.67-16.513-9.418-25.112-10.689-4.279-.632-8.476 1.509-10.5 5.263-4.417-6.892-9.655-13.022-15.542-18.309 11.345-8.456 19.994-18.982 24.508-30.454 1.778-4.527.294-9.714-3.612-12.616-8.613-6.395-19.503-10.532-31.478-12.275 2.809-11.347 3.561-22.617 1.991-33.203-.702-4.744-4.361-8.404-9.106-9.107-6.936-1.027-14.321-1.063-21.95-.106-4.11.516-7.023 4.266-6.508 8.375.515 4.11 4.273 7.026 8.375 6.508 5.115-.642 10.056-.747 14.733-.316.813 8.6-.167 17.724-2.739 26.928-8.686.173-17.652 1.496-26.518 4.032-19.5 5.579-36.306 16.382-47.278 29.793h-21.285c5.409-9.763 12.505-19.211 21.08-27.786 9.413-9.414 19.881-17.087 31.11-22.806 3.691-1.88 5.16-6.396 3.28-10.087-1.881-3.691-6.397-5.158-10.087-3.279-6.478 3.299-12.717 7.176-18.683 11.581-6.793-18.885-17.689-34.778-31.613-45.108h-.001c-3.852-2.856-9.026-2.856-12.878 0-13.924 10.33-24.821 26.225-31.614 45.111-24.18-17.856-52.129-26.45-76.464-22.842 0 0 0 0-.001 0-4.743.704-8.402 4.364-9.104 9.106-1.569 10.586-.818 21.856 1.991 33.203-11.975 1.743-22.866 5.881-31.479 12.277-3.904 2.9-5.389 8.088-3.609 12.618 4.513 11.471 13.161 21.996 24.507 30.451-6.737 6.051-12.624 13.204-17.403 21.339-16.105 27.414-16.479 60.361-1.001 88.133l101.815 182.683c10.006 17.954 28.251 28.672 48.805 28.672 10.507 0 20.403-2.812 28.91-7.95 1.412 1.898 2.963 3.722 4.681 5.44 9.136 9.136 21.028 14 33.403 14 4.398 0 8.858-.615 13.275-1.87l87.674-24.921c3.984-1.133 6.296-5.281 5.163-9.265s-5.279-6.297-9.265-5.164l-87.674 24.921c-11.537 3.281-23.49.173-31.971-8.308s-11.587-20.433-8.308-31.97l47.408-166.787c5.863-20.627 21.755-36.162 42.51-41.555 20.756-5.395 42.199.439 57.362 15.603l85.736 85.736c15.164 15.164 20.997 36.607 15.604 57.363-5.394 20.755-20.928 36.646-41.555 42.509l-45.424 12.912c-3.984 1.133-6.296 5.281-5.163 9.265 1.132 3.984 5.277 6.295 9.265 5.164l45.424-12.912c25.798-7.333 45.226-27.208 51.971-53.165 1.867-7.182 2.653-14.43 2.42-21.559 3.011.379 5.996.578 8.926.578 8.064 0 15.727-1.437 22.452-4.365 4.229-1.841 6.712-6.314 6.037-10.877-1.271-8.599-5.019-17.201-10.688-25.111 7.932-4.954 14.696-10.97 19.826-17.885 2.706-3.649 2.707-8.554-.001-12.205zm-263.961-176.261c21.313-6.098 42.922-4.18 57.388 4.911-4.33 8.909-11.976 17.038-21.786 23.488-13.681-8.419-29.649-13.027-46.517-13.027h-19.35c8.283-6.681 18.68-12.057 30.265-15.372zm-84.039-68.108c11.607 9.602 20.493 24.167 25.706 41.348-1.311 1.219-2.606 2.463-3.882 3.739-8.665 8.665-15.995 18.183-21.824 28.099-5.83-9.916-13.159-19.434-21.824-28.099-1.275-1.275-2.574-2.512-3.885-3.729 5.213-17.185 14.101-31.755 25.709-41.358zm-109.169 22.721c24.758-2.332 53.848 10.083 76.737 32.973 8.576 8.576 15.671 18.023 21.081 27.786h-21.284c-10.972-13.411-27.777-24.214-47.277-29.793-8.866-2.537-17.832-3.86-26.518-4.033-2.572-9.206-3.552-18.331-2.739-26.933zm-32.258 50.298c14.468-9.092 36.077-11.008 57.389-4.912 11.585 3.315 21.982 8.691 30.266 15.372h-19.35c-16.868 0-32.837 4.608-46.517 13.027-9.813-6.449-17.459-14.578-21.788-23.487zm263.463 85.783c-25.957 6.745-45.832 26.174-53.165 51.971l-6.251 21.991c-3.743.422-6.652 3.594-6.652 7.449v13.144c0 .662.094 1.3.255 1.911l-34.761 122.292c-2.682 9.432-2.436 19.053.47 27.869-6.394 4.075-13.917 6.319-21.932 6.319-15.036 0-28.383-7.841-35.703-20.975l-101.815-182.683c-12.861-23.077-12.55-50.454.832-73.232 13.383-22.779 37.145-36.378 63.563-36.378h146.246c26.419 0 50.181 13.599 63.563 36.378 2.626 4.47 4.739 9.12 6.357 13.878.048 2.519.227 5.072.549 7.648-7.128-.234-14.375.552-21.556 2.418zm71.742 19.514c-9.855-9.856-21.835-16.55-34.71-19.77-1.669-8.577-1.465-16.875.739-23.974 13.082 3.428 26.053 14.543 34.555 29.861 4.08 7.35 6.778 15.058 8.051 22.517zm52.956 8.472c0-1.236-.026-2.471-.063-3.705 12.318-6.45 25.14-9.599 36.822-8.747.857 11.685-2.293 24.505-8.742 36.822-1.232-.037-2.468-.063-3.709-.063-9.512 0-18.78 1.118-27.516 3.209 2.09-8.736 3.208-18.004 3.208-27.516zm52.55 111.974c-3.22-12.875-9.915-24.854-19.77-34.709l-8.635-8.635c7.46 1.272 15.167 3.97 22.518 8.05 15.316 8.502 26.432 21.472 29.859 34.555-7.097 2.203-15.394 2.408-23.972.739zm18.867-35.701c-5.112-4.8-10.994-9.111-17.475-12.708-14.717-8.169-30.921-11.762-45.328-10.466l-10.485-10.485c8.194-2.145 17.031-3.306 26.178-3.306 26 0 49.588 9.261 62.64 24.376-4.179 4.84-9.454 9.065-15.53 12.589z"/><path d="m287.513 276.222c2.93-2.929 2.93-7.677.001-10.606s-7.678-2.93-10.606 0l-7.706 7.705c-2.93 2.929-2.93 7.678-.001 10.607 1.465 1.464 3.384 2.197 5.304 2.197 1.919 0 3.839-.732 5.303-2.196z"/><path d="m324.722 313.43c2.929-2.929 2.929-7.678 0-10.606-2.93-2.929-7.678-2.929-10.607 0l-7.706 7.706c-2.929 2.929-2.929 7.678 0 10.606 1.465 1.464 3.385 2.197 5.304 2.197s3.839-.732 5.304-2.197z"/><path d="m343.618 347.738c-2.929 2.929-2.929 7.678.001 10.606 1.464 1.465 3.384 2.197 5.303 2.197s3.839-.732 5.304-2.197l7.705-7.706c2.929-2.929 2.929-7.678-.001-10.607-2.928-2.929-7.677-2.928-10.606 0z"/><path d="m380.826 384.946c-2.929 2.929-2.929 7.678 0 10.606 1.465 1.464 3.385 2.197 5.304 2.197s3.839-.732 5.304-2.197l7.706-7.706c2.929-2.929 2.929-7.678 0-10.606-2.93-2.929-7.678-2.929-10.607 0z"/><path d="m334.74 266.204c2.929-2.929 2.929-7.678 0-10.606-2.93-2.929-7.678-2.929-10.607 0l-7.706 7.706c-2.929 2.929-2.929 7.678 0 10.606 1.465 1.464 3.385 2.197 5.304 2.197s3.839-.732 5.304-2.197z"/><path d="m364.242 311.118 7.706-7.706c2.929-2.929 2.929-7.678 0-10.606-2.93-2.929-7.678-2.929-10.607 0l-7.706 7.706c-2.929 2.929-2.929 7.678 0 10.606 1.465 1.464 3.385 2.197 5.304 2.197s3.838-.732 5.303-2.197z"/><path d="m401.451 348.326 7.705-7.706c2.929-2.929 2.929-7.678-.001-10.607-2.928-2.929-7.677-2.928-10.606 0l-7.705 7.706c-2.929 2.929-2.929 7.678.001 10.606 1.464 1.465 3.384 2.197 5.303 2.197s3.838-.731 5.303-2.196z"/><path d="m273.919 327.025c2.929-2.929 2.929-7.678-.001-10.606-2.928-2.929-7.677-2.929-10.606.001l-7.705 7.706c-2.929 2.929-2.929 7.678.001 10.606 1.464 1.464 3.384 2.196 5.303 2.196s3.839-.732 5.304-2.197z"/><path d="m311.127 364.234c2.93-2.929 2.93-7.677.001-10.606s-7.678-2.93-10.606 0l-7.706 7.705c-2.93 2.929-2.93 7.678-.001 10.607 1.465 1.464 3.384 2.197 5.304 2.197 1.919 0 3.839-.732 5.303-2.196z"/><path d="m337.728 390.835-7.706 7.706c-2.929 2.929-2.929 7.678 0 10.606 1.465 1.464 3.385 2.197 5.304 2.197s3.839-.732 5.304-2.197l7.706-7.706c2.929-2.929 2.929-7.678 0-10.606-2.93-2.929-7.678-2.929-10.608 0z"/><path d="m261.589 375.132c2.929-2.929 2.929-7.678 0-10.606-2.93-2.929-7.678-2.929-10.607 0l-7.706 7.706c-2.929 2.929-2.929 7.678 0 10.606 1.465 1.464 3.385 2.197 5.304 2.197s3.839-.732 5.304-2.197z"/><path d="m285.788 422.242c1.919 0 3.839-.732 5.303-2.196l7.706-7.706c2.93-2.929 2.93-7.677.001-10.606-2.93-2.929-7.679-2.93-10.606 0l-7.706 7.705c-2.93 2.929-2.93 7.678-.001 10.607 1.464 1.464 3.383 2.196 5.303 2.196z"/><path d="m236.837 415.879-7.706 7.706c-2.929 2.929-2.929 7.678 0 10.606 1.465 1.464 3.385 2.197 5.304 2.197s3.839-.732 5.304-2.197l7.706-7.706c2.929-2.929 2.929-7.678 0-10.606-2.931-2.929-7.679-2.929-10.608 0z"/></g></g></svg>