<?xml version="1.0" encoding="iso-8859-1"?>
<!-- Generator: Adobe Illustrator 19.0.0, SVG Export Plug-In . SVG Version: 6.00 Build 0)  -->
<svg version="1.1" id="Capa_1" xmlns="http://www.w3.org/2000/svg" xmlns:xlink="http://www.w3.org/1999/xlink" x="0px" y="0px"
	 viewBox="0 0 512.001 512.001" style="enable-background:new 0 0 512.001 512.001;" xml:space="preserve">
<g>
	<g>
		<path d="M381.565,50.324C370.996,17.573,296.284,0,225.674,0C149.484,0,68.515,20.457,68.515,58.367l1.397,166.539
			c0,78.068,60.17,162.295,128.519,200.637c129.386,79.269,125.759,77.054,125.944,77.147c34.312,19.242,77.591,7.713,97.794-25.855
			C464.307,406.911,440.433,182.037,381.565,50.324z M122.241,29.468c56.94-19.344,149.916-19.354,206.864,0
			c24.269,8.253,38.758,19.06,38.758,28.899c0,9.849-14.489,20.646-38.758,28.899c-56.892,19.356-149.911,19.37-206.864,0
			c-24.269-8.253-38.758-19.05-38.758-28.899C83.483,48.528,97.972,37.72,122.241,29.468z M409.355,469.11
			c-16.156,26.813-50.184,35.844-77.536,20.596l-79.213-48.528c6.924-3.006,5.477-13.361-2.096-14.28
			c-9.849-1.207-19.309-2.644-27.921-4.111c-15.518-10.93-55.081-26.841-93.992-79.762c5.776-3.166,4.9-11.816-1.457-13.721
			c-3.563-1.068-6.905-2.135-9.959-3.143C96.954,293.581,84.88,257.786,84.88,224.836l-0.419-47.659
			c3.782,2.355,8.043,4.81,12.723,7.215c3.702,1.885,8.204,0.438,10.089-3.233c1.886-3.672,0.449-8.183-3.233-10.079
			c-8.023-4.131-14.719-8.422-19.728-11.955l-0.649-74.593c59.393,46.39,253.293,41.499,292.533-8.302
			c18.142,46.043,32.921,102.633,42.061,160.571c-10.268,6.007-25.796,13.681-46.472,20.078c-8.19,2.544-6.307,14.639,2.205,14.639
			c3.82,0,28.437-8.926,46.632-18.85C428.228,306.861,437.471,422.421,409.355,469.11z"/>
	</g>
</g>
<g>
	<g>
		<path d="M165.749,187.255c-11.586-0.1-23.461-1.936-35.276-5.458c-3.962-1.177-8.133,1.068-9.31,5.029
			c-1.177,3.962,1.068,8.133,5.029,9.31c21.58,6.441,36.916,5.876,39.497,6.087c4.102,0,7.444-3.303,7.484-7.414
			C173.203,190.678,169.88,187.295,165.749,187.255z"/>
	</g>
</g>
<g>
	<g>
		<path d="M352.315,269.861c-0.788-4.051-4.71-6.706-8.771-5.918c-21.302,4.138-43.636,5.837-63.885,5.469
			c-4.111-0.08-7.524,3.243-7.584,7.384c-0.059,4.131,3.244,7.524,7.374,7.584c21.639,0.378,44.878-1.453,66.949-5.738
			C350.449,277.854,353.104,273.922,352.315,269.861z"/>
	</g>
</g>
<g>
	<g>
		<path d="M357.415,427.169c-1.507-3.852-5.858-5.748-9.7-4.231c-19.27,7.565-47.079,7.792-67.857,6.626
			c-4.101-0.22-7.654,2.924-7.883,7.055c-0.239,4.121,2.924,7.654,7.055,7.883c23.049,1.31,52.573,0.842,74.154-7.634
			C357.036,435.352,358.922,431.011,357.415,427.169z"/>
	</g>
</g>
<g>
	<g>
		<path d="M369.6,124.567c-2.285-3.443-6.935-4.371-10.378-2.076c-2.924,1.956-6.257,3.782-9.889,5.429
			c-3.772,1.706-5.439,6.147-3.732,9.909c1.743,3.832,6.253,5.404,9.909,3.722c4.371-1.986,8.422-4.201,12.025-6.606
			C370.966,132.65,371.894,128.01,369.6,124.567z"/>
	</g>
</g>
<g>
	<g>
		<path d="M331.171,142.03c-0.778-4.061-4.7-6.726-8.761-5.947c-10.993,2.105-23.251,3.113-29.388,3.113
			c-4.131,0-7.474,3.353-7.474,7.484s3.352,7.484,7.484,7.484c0.589,0,14.779-0.04,32.192-3.373
			C329.285,150.014,331.949,146.092,331.171,142.03z"/>
	</g>
</g>
<g>
	<g>
		<path d="M185.088,340.612c-8.901-0.499-18.84-1.866-29.558-4.071c-4.061-0.828-8.013,1.776-8.841,5.828s1.776,8.003,5.828,8.841
			c15.326,3.145,28.649,4.361,32.152,4.361c3.952,0,7.245-3.083,7.474-7.075C192.373,344.374,189.21,340.841,185.088,340.612z"/>
	</g>
</g>
<g>
</g>
<g>
</g>
<g>
</g>
<g>
</g>
<g>
</g>
<g>
</g>
<g>
</g>
<g>
</g>
<g>
</g>
<g>
</g>
<g>
</g>
<g>
</g>
<g>
</g>
<g>
</g>
<g>
</g>
</svg>
