<svg id="Capa_1" enable-background="new 0 0 512 512" height="512" viewBox="0 0 512 512" width="512" xmlns="http://www.w3.org/2000/svg"><g><g><path d="m489.925 215.551c-1.678-3.129-4.484-5.388-7.903-6.362-3.373-.96-7.051-.506-10.088 1.247l-7.451 4.302c-14.092-36.811-39.761-67.474-72.272-86.971.483-.306.963-.613 1.429-.925 2.078-1.392 3.326-3.729 3.326-6.231 0-2.501-1.247-4.838-3.326-6.231-13.709-9.185-34.605-15.674-58.84-18.274-4.119-.44-7.815 2.539-8.257 6.657s2.539 7.815 6.657 8.257c15.27 1.638 29.252 5.011 40.218 9.594-16.18 6.761-38.718 10.751-62.295 10.751-11.073 0-21.885-.847-32.134-2.517-3.398-.55-6.737 1.278-8.097 4.441-1.359 3.164-.39 6.847 2.351 8.931 7.106 5.404 14.063 11.498 20.678 18.113 16.673 16.672 29.791 35.436 36.451 51.658-16.223-6.659-34.986-19.777-51.659-36.451-6.11-6.109-11.786-12.522-16.871-19.059-2.028-2.607-5.522-3.58-8.606-2.398-3.084 1.183-5.031 4.245-4.794 7.539.357 4.972.538 10.047.538 15.085 0 23.579-3.992 46.122-10.754 62.302-6.762-16.18-10.754-38.723-10.754-62.302 0-5.038.181-10.114.538-15.085.236-3.294-1.71-6.356-4.794-7.539-3.083-1.183-6.579-.21-8.606 2.397-5.085 6.538-10.761 12.95-16.871 19.06-16.674 16.674-35.436 29.792-51.659 36.45 6.659-16.222 19.777-34.985 36.45-51.658 6.616-6.615 13.573-12.709 20.679-18.113 2.741-2.084 3.71-5.768 2.351-8.931s-4.7-4.997-8.097-4.441c-10.25 1.67-21.061 2.517-32.134 2.517-23.579 0-46.123-3.992-62.302-10.754 16.179-6.762 38.723-10.754 62.302-10.754 19.291 0 37.567 2.565 52.643 7.282l.566 5.21c1.095 10.07 9.559 17.665 19.688 17.665s18.594-7.594 19.688-17.665l.567-5.212c11.923-3.702 26.085-6.127 40.933-6.947 4.136-.229 7.304-3.767 7.075-7.902-.229-4.136-3.785-7.312-7.902-7.075-13.779.761-26.743 2.758-38.357 5.826l6.865-63.161c.399-3.671-.786-7.353-3.252-10.102s-5.998-4.325-9.691-4.325h-31.854c-3.693 0-7.225 1.576-9.691 4.325s-3.651 6.43-3.252 10.102l6.865 63.154c-15.196-4.015-32.689-6.174-50.892-6.174-33.423 0-64.271 7.298-82.517 19.523-2.079 1.393-3.326 3.729-3.326 6.231s1.248 4.839 3.326 6.231c.472.316.958.627 1.447.937-50.279 30.143-84.258 86.951-84.258 151.959 0 96.44 74.746 174.9 166.621 174.9 14.954 0 29.539-2.04 43.634-6.056 26.606 21.249 58.876 34.946 93.812 39.154 4.112.493 7.848-2.438 8.343-6.549.495-4.112-2.437-7.848-6.549-8.343-51.195-6.166-96.177-34.471-123.73-77.769l10.942-6.317c29.945 46.668 80.977 72.668 133.34 72.667 26.817-.001 53.983-6.817 78.829-21.163 28.547-16.481 50.885-41.023 64.599-70.971 1.724-3.766.069-8.217-3.697-9.942-3.768-1.726-8.217-.069-9.941 3.697-12.41 27.101-32.625 49.31-58.46 64.226-33.067 19.092-71.65 24.146-108.636 14.236-34.557-9.259-63.785-30.526-83.046-60.248l247.669-142.994c14.579 28.623 19.11 61.391 12.742 93.096-.816 4.061 1.815 8.015 5.876 8.83s8.015-1.815 8.83-5.876c7.088-35.285 1.95-71.766-14.444-103.558l10.928-6.309c20.215 38.782 24.758 83.251 12.777 125.465-12.193 42.962-40.214 78.924-78.899 101.259-22.336 12.896-46.612 20.432-72.152 22.398-4.13.318-7.22 3.924-6.902 8.054.303 3.934 3.589 6.925 7.47 6.925.193 0 .388-.007.584-.022 27.795-2.141 54.207-10.338 78.501-24.364 42.083-24.297 72.564-63.417 85.83-110.153 13.234-46.637 7.927-95.809-14.946-138.46zm-237.981-177.101-8.943 82.277c-.266 2.443-2.319 4.286-4.776 4.286s-4.511-1.842-4.776-4.286l-8.943-82.277zm-79.087 344.657c-3.037 1.753-5.269 4.71-6.124 8.113-.866 3.447-.313 7.008 1.558 10.025 8.08 13.034 17.607 24.836 28.31 35.273-9.775 2.066-19.782 3.12-29.98 3.12-83.604 0-151.621-71.731-151.621-159.9 0-63.24 34.996-118.013 85.633-143.936 17.688 6.741 40.516 10.563 64.694 10.563 3.447 0 6.872-.077 10.268-.23-1.235 1.181-2.459 2.378-3.673 3.592-23.633 23.633-40.285 50.606-44.544 72.153-.485 2.454.286 4.988 2.055 6.757s4.305 2.538 6.757 2.055c21.548-4.259 48.521-20.911 72.153-44.543 1.417-1.417 2.813-2.85 4.186-4.297.708 31.424 7.871 60.067 19.465 77.374 1.393 2.079 3.729 3.326 6.231 3.326s4.839-1.248 6.231-3.326c11.595-17.308 18.758-45.952 19.465-77.374 1.373 1.447 2.768 2.879 4.186 4.296 23.632 23.633 50.605 40.285 72.153 44.544 2.456.483 4.989-.286 6.757-2.055 1.769-1.769 2.54-4.303 2.054-6.758-4.259-21.547-20.911-48.52-44.543-72.152-1.214-1.213-2.438-2.411-3.673-3.592 3.396.153 6.821.23 10.268.23 24.172 0 46.994-3.82 64.681-10.558 34.445 17.632 61.646 48.609 75.526 86.525z"/><path d="m354.134 351.744c-11.877 6.857-26.829 5.441-37.203-3.527-4.17-3.603-10.19-4.166-14.983-1.399l-54.084 31.225c-3.688 2.13-6.108 5.938-6.472 10.185-.362 4.224 1.362 8.361 4.611 11.067 22.97 19.133 51.561 28.935 80.291 28.933 21.485-.001 43.05-5.484 62.386-16.648 45.169-26.078 69.567-78.179 60.71-129.645-.721-4.193-3.453-7.775-7.308-9.582-3.855-1.808-8.358-1.617-12.044.512l-54.077 31.222c-4.792 2.767-7.315 8.262-6.279 13.675 2.578 13.468-3.67 27.124-15.548 33.982zm30.533-35.362 50.387-29.091c6.454 44.377-14.943 88.824-53.873 111.3-38.936 22.479-88.118 18.785-123.325-8.995l50.388-29.091c15.144 12.296 36.409 14.034 53.391 4.229 16.98-9.803 26.108-29.091 23.032-48.352z"/><path d="m365.74 386.846c1.389 2.406 3.91 3.751 6.502 3.751 1.272 0 2.562-.324 3.743-1.006 3.587-2.071 4.816-6.658 2.745-10.245l-3.864-6.692c-2.072-3.588-6.658-4.816-10.245-2.745s-4.816 6.658-2.745 10.245z"/><path d="m296.455 375.485-6.692 3.864c-3.587 2.071-4.816 6.658-2.745 10.245 1.389 2.406 3.91 3.751 6.502 3.751 1.272 0 2.562-.324 3.743-1.006l6.692-3.864c3.587-2.071 4.816-6.658 2.745-10.245s-6.658-4.817-10.245-2.745z"/><path d="m407.289 327.66c1.272 0 2.562-.324 3.743-1.006l6.692-3.864c3.587-2.071 4.816-6.658 2.745-10.245s-6.657-4.816-10.245-2.745l-6.692 3.864c-3.587 2.071-4.816 6.658-2.745 10.245 1.39 2.406 3.911 3.751 6.502 3.751z"/><path d="m334.375 379.775c-4-1.067-8.114 1.302-9.186 5.303l-2 7.464c-1.072 4.001 1.302 8.114 5.303 9.186.65.174 1.303.257 1.946.257 3.311 0 6.342-2.21 7.24-5.561l2-7.464c1.072-4-1.302-8.113-5.303-9.185z"/><path d="m393.592 357.833 7.464 2c.65.174 1.303.258 1.946.258 3.311 0 6.341-2.21 7.239-5.561 1.072-4.001-1.302-8.113-5.303-9.186l-7.464-2c-3.999-1.071-8.113 1.301-9.186 5.303-1.071 4.001 1.303 8.113 5.304 9.186z"/></g></g></svg>