<svg id="Layer_1" height="512" viewBox="0 0 512 512" width="512" xmlns="http://www.w3.org/2000/svg" data-name="Layer 1"><path d="m208.977 501c21.384 0 44.8-4.869 66.174-13.711a181.8 181.8 0 0 0 34.282 3.259 186.69 186.69 0 0 0 23.314-1.469 183.764 183.764 0 0 0 160.813-183.756 11.292 11.292 0 0 0 -3.262-7.991 10.94 10.94 0 0 0 -10.094-2.894l-82.41 18.438a288.278 288.278 0 0 0 1.727-32.849c0-58.854-19.71-114.226-55.5-155.917-19.552-22.775-42.629-39.981-67.809-50.965-.106-.148-.205-.3-.32-.442l-.248.2a168.163 168.163 0 0 0 -41.87-11.993l6.874-35.386a8.5 8.5 0 0 0 -6.436-9.807l-18.112-4.456a8.984 8.984 0 0 0 -7.612 1.609 8.361 8.361 0 0 0 -3.264 6.578c-.095 19.405-1.042 32.889-1.659 39.7-49.038 1.575-94.891 24.5-129.628 64.961-35.789 41.691-55.5 97.063-55.5 155.917s19.71 114.227 55.5 155.917c36.01 41.957 83.969 65.057 135.04 65.057zm-134.077-83.138c.247.237.491.468.726.689a13.445 13.445 0 0 1 1.849 1.94c.246.589.517 1.146.781 1.711q-1.703-2.143-3.356-4.34zm137.92 71.082c-.05-1.51-.095-3.138-.1-4.8 0-1.444.122-3.043.253-4.736.153-1.961.31-3.989.307-6.12 0-2.174-.2-4.219-.394-6.2-.156-1.6-.3-3.113-.312-4.462q3.393 2.118 6.889 4.106a183.977 183.977 0 0 0 34.882 15.243 161.915 161.915 0 0 1 -41.525 6.969zm268.746-182.514a171.727 171.727 0 0 1 -327.227 73.213l9.645-2.158a157.822 157.822 0 0 0 64.728 68.68 161.8 161.8 0 0 0 79.688 20.855 168.861 168.861 0 0 0 21.086-1.33 163.265 163.265 0 0 0 103.113-54.7 154.51 154.51 0 0 0 38.364-102.19zm-94.045-26.4a263.992 263.992 0 0 1 -2.172 35.633l-34.75 7.775a4.625 4.625 0 0 1 -.055-1.151l.26-1.571c.447-2.692.909-5.475 1.265-8.262a12.775 12.775 0 0 1 1.212-2.4 17.387 17.387 0 0 0 2.757-7.238 24.726 24.726 0 0 0 -.539-6.777 9.922 9.922 0 0 1 .374-6.718 24.252 24.252 0 0 0 1.255-6.6 16.471 16.471 0 0 0 -2.3-7.823 16.694 16.694 0 0 1 -1-2.175 12.3 12.3 0 0 1 .786-2.705 18.282 18.282 0 0 0 1.463-7.386 23.179 23.179 0 0 0 -1.643-6.705 15.409 15.409 0 0 1 -.922-3.136c-.241-2.532-.579-5-.907-7.39q-.171-1.252-.338-2.5a12.417 12.417 0 0 1 .445-2.873 18.9 18.9 0 0 0 .559-7.4c-.587-3.483-2.931-5.908-4.644-7.68a18.821 18.821 0 0 1 -1.471-1.631c-.188-.927-.367-1.846-.544-2.761-.42-2.158-.854-4.39-1.4-6.639-.249-1.031-.485-2.053-.719-3.071-.473-2.049-.961-4.166-1.545-6.294a17.907 17.907 0 0 1 .57-2.2c.7-2.328 1.655-5.516.615-8.824-1-3.17-3.263-5.2-5.083-6.829a17.7 17.7 0 0 1 -1.624-1.569 15.872 15.872 0 0 1 .059-2.543 17.248 17.248 0 0 0 -.722-7.7c-1.168-3.024-3.446-4.914-5.276-6.433a16.115 16.115 0 0 1 -1.716-1.549 14.7 14.7 0 0 1 -.116-2.586 17.268 17.268 0 0 0 -1.2-7.6c-.506-1.1-.991-2.211-1.476-3.314-.832-1.9-1.693-3.857-2.639-5.771a57.914 57.914 0 0 0 -3-5.185c-.751-1.2-1.46-2.329-2.04-3.423a20.2 20.2 0 0 0 -4.752-5.541 12.634 12.634 0 0 1 -2.02-2.048 33.976 33.976 0 0 1 -1.676-3.655 38.745 38.745 0 0 0 -2.545-5.331c-.694-1.153-1.321-2.392-1.985-3.7a57.135 57.135 0 0 0 -2.754-5.009 31.019 31.019 0 0 1 -1.844-3.6 36.136 36.136 0 0 0 -2.778-5.224 26.921 26.921 0 0 0 -4.545-4.925 18.033 18.033 0 0 1 -2.308-2.32 12.673 12.673 0 0 1 -.561-2.621c-.013-.086-.027-.178-.041-.265 57.027 34.906 96.03 104.837 96.03 185.24zm-120.383-197.582a18.758 18.758 0 0 0 3.123 7.092c1.922 2.482 4.672 3.519 6.883 4.352a19.263 19.263 0 0 1 2.163.91c.136.492.274 1.4.371 2.032a17.08 17.08 0 0 0 2.608 7.713 26.658 26.658 0 0 0 4.066 4.312 17.407 17.407 0 0 1 2.648 2.733 26.93 26.93 0 0 1 1.838 3.55 41.27 41.27 0 0 0 2.62 5.025c.746 1.168 1.436 2.533 2.167 3.977s1.49 2.942 2.409 4.471a29.262 29.262 0 0 1 1.741 3.737 44.214 44.214 0 0 0 2.319 4.972 20.39 20.39 0 0 0 4.465 5.084 12.122 12.122 0 0 1 2.148 2.216c.784 1.48 1.645 2.852 2.477 4.178.9 1.43 1.744 2.781 2.408 4.126.825 1.671 1.6 3.423 2.409 5.279.51 1.161 1.023 2.328 1.539 3.45a13.178 13.178 0 0 1 .124 2.561 18.037 18.037 0 0 0 1.084 7.411 16.16 16.16 0 0 0 5.084 6.037 16.485 16.485 0 0 1 1.753 1.586 15.985 15.985 0 0 1 -.062 2.47 18 18 0 0 0 .61 7.471c1.033 2.948 3.188 4.878 4.92 6.429.467.418 1.117 1 1.489 1.408-.109.52-.342 1.3-.51 1.858-.717 2.392-1.609 5.368-.709 8.609.545 1.957 1 3.937 1.485 6.033.244 1.058.489 2.122.748 3.193.48 1.986.87 3.99 1.282 6.111.2 1.053.411 2.111.63 3.177.669 3.264 2.815 5.483 4.538 7.266a21.046 21.046 0 0 1 1.449 1.6 18.5 18.5 0 0 1 -.452 2.539 19.888 19.888 0 0 0 -.628 7.042q.17 1.282.348 2.567c.325 2.371.632 4.61.848 6.892a24.333 24.333 0 0 0 1.582 6.083 14.312 14.312 0 0 1 .948 3.315 12.6 12.6 0 0 1 -.772 2.626 19.192 19.192 0 0 0 -1.494 7.025 16.861 16.861 0 0 0 2.279 7.334 14.257 14.257 0 0 1 1.014 2.287 16.093 16.093 0 0 1 -.766 3.344 21.052 21.052 0 0 0 -.674 12.224 15.9 15.9 0 0 1 .4 3.54 13.029 13.029 0 0 1 -1.185 2.328 18.226 18.226 0 0 0 -2.74 6.909c-.328 2.568-.751 5.119-1.2 7.82l-.262 1.587a17.416 17.416 0 0 0 .157 5.726l-48.012 10.735c.039-.438.086-.873.119-1.313a18.769 18.769 0 0 0 -1.311-7.468 12.682 12.682 0 0 1 -.719-2.708c.063-1.129.134-2.253.2-3.373.135-2.155.276-4.383.357-6.569a13.151 13.151 0 0 1 1.078-2.413 16.966 16.966 0 0 0 2.388-7.554 23.9 23.9 0 0 0 -1.066-6.751 8.675 8.675 0 0 1 .022-6.681 23.458 23.458 0 0 0 1.086-6.67c-.058-3.24-1.55-5.818-2.749-7.889a16.288 16.288 0 0 1 -1.106-2.115 14.807 14.807 0 0 1 .829-2.545 17.8 17.8 0 0 0 1.6-7.506 22.518 22.518 0 0 0 -1.692-6.768 14.4 14.4 0 0 1 -.934-3.108c-.158-2.141-.38-4.243-.595-6.276-.129-1.231-.259-2.457-.373-3.68a12.5 12.5 0 0 1 .648-2.784 18.337 18.337 0 0 0 1.075-7.476c-.406-3.62-2.774-6.207-4.5-8.1a20.8 20.8 0 0 1 -1.433-1.672c-.153-1.2-.287-2.384-.421-3.566-.219-1.931-.444-3.926-.746-5.928-.2-1.328-.374-2.646-.548-3.956-.24-1.816-.488-3.69-.8-5.569a19.318 19.318 0 0 1 .9-2.119c1.127-2.409 2.531-5.408 1.865-8.911-.642-3.378-2.8-5.685-4.53-7.539a20.479 20.479 0 0 1 -1.44-1.645 17.943 17.943 0 0 1 .477-2.415 16.737 16.737 0 0 0 .511-7.9c-.754-3.272-2.878-5.494-4.585-7.279a18.5 18.5 0 0 1 -1.488-1.672 16.43 16.43 0 0 1 .375-2.494 16.747 16.747 0 0 0 .185-7.878c-.365-1.341-.7-2.683-1.028-4.012-.465-1.871-.946-3.806-1.5-5.706a56.405 56.405 0 0 0 -2.067-5.613c-.552-1.346-1.073-2.617-1.451-3.81a19.635 19.635 0 0 0 -3.881-6.464 12.729 12.729 0 0 1 -1.621-2.265 31.655 31.655 0 0 1 -.952-4.018 36.735 36.735 0 0 0 -1.444-5.737c-.478-1.316-.857-2.706-1.259-4.176a53.639 53.639 0 0 0 -1.689-5.417 29.351 29.351 0 0 1 -1.1-4.011 34.114 34.114 0 0 0 -1.657-5.7 26.381 26.381 0 0 0 -3.707-5.952 16.765 16.765 0 0 1 -1.772-2.578 12.653 12.653 0 0 1 .038-2.832c.177-2.3.4-5.165-.917-7.918a13.622 13.622 0 0 0 -5.4-5.613 156.838 156.838 0 0 1 25.02 7.76zm-49.954-58.563 11.031 2.715-6.4 32.961q-3.091-.235-6.2-.357c.585-6.774 1.376-18.641 1.569-35.319zm-3.717 303.072c.053-1.65.107-3.3.128-4.837a13.291 13.291 0 0 1 1.083-2.309 16.516 16.516 0 0 0 2.48-7.6 22.971 22.971 0 0 0 -1.1-6.691 14.281 14.281 0 0 1 -.663-3.22 13.945 13.945 0 0 1 .8-3.248 22.585 22.585 0 0 0 1.352-6.588c.063-3.278-1.4-5.919-2.575-8.039a18.442 18.442 0 0 1 -1.026-2.025 16.517 16.517 0 0 1 1.009-2.3 17.3 17.3 0 0 0 2.245-7.4 22.057 22.057 0 0 0 -1.2-6.835 13.183 13.183 0 0 1 -.7-3.08c.036-1.7.036-3.387.036-5.069 0-1.611 0-3.214.034-4.8a12.642 12.642 0 0 1 1.017-2.534 17.747 17.747 0 0 0 2.142-7.281c.085-3.7-2.018-6.595-3.553-8.711-.4-.546-.962-1.326-1.217-1.787.042-1.438.119-2.911.194-4.339.085-1.636.173-3.328.214-5.019.039-1.6.126-3.255.211-4.855.079-1.486.16-3.019.206-4.555a21.29 21.29 0 0 1 1.347-1.811c1.691-2.123 3.8-4.765 3.889-8.386.089-3.485-1.682-6.324-2.976-8.4-.335-.536-.806-1.292-1.039-1.769a20.681 20.681 0 0 1 1.04-2.037 16.308 16.308 0 0 0 2.574-7.557c.093-3.4-1.478-6.1-2.74-8.266-.331-.569-.805-1.382-1.009-1.861a18.794 18.794 0 0 1 1.065-2.115 16.362 16.362 0 0 0 2.555-7.518c.046-1.61.151-3.268.252-4.872.1-1.627.208-3.31.258-4.992a55.836 55.836 0 0 0 -.2-5.654c-.105-1.515-.205-2.947-.166-4.234a19.18 19.18 0 0 0 -1.582-7.388 13.21 13.21 0 0 1 -.788-2.563 28.256 28.256 0 0 1 .588-4.167 36.078 36.078 0 0 0 .754-5.669c.046-1.454.245-2.957.455-4.548.224-1.7.456-3.462.517-5.3a25.746 25.746 0 0 1 .64-4.16 32.979 32.979 0 0 0 .821-5.671 25.834 25.834 0 0 0 -.9-6.855 16.243 16.243 0 0 1 -.532-3 13.578 13.578 0 0 1 1.339-2.347c1.262-1.949 2.834-4.374 2.945-7.446.145-4.019-1.951-7.134-3.482-9.408-.268-.4-.637-.947-.867-1.334a3.2 3.2 0 0 1 .151-.789c.045-.071.233-.288.372-.447a15.6 15.6 0 0 0 1.313-1.721c1.753.14 3.5.3 5.24.5a15.234 15.234 0 0 0 1.937 6.715c1.406 2.71 3.946 4.129 5.986 5.268a18.809 18.809 0 0 1 2.226 1.377c0 .5-.058 1.3-.1 1.872-.179 2.323-.425 5.5.948 8.592a24.93 24.93 0 0 0 3.228 5.043 16.532 16.532 0 0 1 2.147 3.252 25.023 25.023 0 0 1 1.035 3.751 39.224 39.224 0 0 0 1.616 5.706c.483 1.246.879 2.7 1.3 4.234.447 1.639.91 3.334 1.555 5.112a27.621 27.621 0 0 1 .943 3.922 41.726 41.726 0 0 0 1.368 5.59 19.461 19.461 0 0 0 3.665 5.971 11.959 11.959 0 0 1 1.76 2.521c.528 1.671 1.171 3.237 1.792 4.751a46.461 46.461 0 0 1 1.654 4.439c.488 1.657.917 3.386 1.372 5.217.352 1.415.707 2.843 1.076 4.18a13.492 13.492 0 0 1 -.359 2.489 17.437 17.437 0 0 0 -.237 7.862c.774 3.084 2.812 5.214 4.449 6.926a18.377 18.377 0 0 1 1.548 1.749 18.073 18.073 0 0 1 -.465 2.321 17.361 17.361 0 0 0 -.56 7.857c.674 3.206 2.75 5.428 4.419 7.214.408.437.968 1.036 1.316 1.477-.195.5-.516 1.188-.752 1.693-1.061 2.268-2.515 5.375-1.92 8.874.3 1.777.54 3.573.792 5.476.183 1.38.367 2.768.578 4.168.268 1.784.472 3.584.688 5.49.157 1.383.314 2.775.5 4.178.455 3.474 2.658 5.88 4.427 7.813.451.492 1.091 1.192 1.41 1.634a20.234 20.234 0 0 1 -.618 2.371 18.918 18.918 0 0 0 -1.108 7.36c.118 1.273.253 2.548.387 3.829.205 1.941.417 3.948.562 5.9a22.84 22.84 0 0 0 1.654 6.406 14.078 14.078 0 0 1 .956 3.225 12.967 12.967 0 0 1 -.817 2.551 18.333 18.333 0 0 0 -1.628 7.382c.114 3.106 1.558 5.6 2.718 7.6a15.17 15.17 0 0 1 1.134 2.205 15.889 15.889 0 0 1 -.668 3.24 19.8 19.8 0 0 0 -.035 12.874 15.518 15.518 0 0 1 .673 3.375 13.319 13.319 0 0 1 -1.058 2.353 17.446 17.446 0 0 0 -2.4 7.429c-.078 2.072-.208 4.127-.344 6.3q-.109 1.721-.21 3.455a18.976 18.976 0 0 0 1.314 7.169 12.379 12.379 0 0 1 .728 2.792c-.121 1.615-.3 3.255-.5 4.966l-12.31 2.754a6 6 0 0 0 2.62 11.711l190.145-42.542a142.656 142.656 0 0 1 -35.414 91.628 152.7 152.7 0 0 1 -188.941 32.588 145.906 145.906 0 0 1 -58.547-60.92l54.762-12.252a6 6 0 0 0 4.69-5.855 6 6 0 0 0 -7.31-5.855l-12.508 2.8c0-.64 0-1.283 0-1.921.024-1.58.1-3.152.172-4.816.076-1.646.154-3.347.181-5.061a18.217 18.217 0 0 0 -1.817-7.388 13.052 13.052 0 0 1 -.888-2.536c.026-1.654.08-3.301.132-4.944zm-13.448-240.547c2.639-3.677 1.879-8.077 1.325-11.291-.045-.265-.1-.577-.149-.888a11.31 11.31 0 0 0 6.319-1.754 20.617 20.617 0 0 0 -.21 2.285c-.121 3.215 1.583 5.746 2.952 7.781a20.748 20.748 0 0 1 1.333 2.16c-.237.427-.627 1.028-.911 1.467-1.324 2.041-3.136 4.838-3.261 8.386a23.366 23.366 0 0 0 .836 6.211 16.029 16.029 0 0 1 .6 3.727 24.211 24.211 0 0 1 -.58 3.65 35.741 35.741 0 0 0 -.881 6.192c-.041 1.246-.226 2.644-.421 4.123a57.219 57.219 0 0 0 -.552 5.735 27 27 0 0 1 -.551 3.822 38.2 38.2 0 0 0 -.791 6.024 18.517 18.517 0 0 0 1.531 7.108 11.808 11.808 0 0 1 .839 2.853 53.846 53.846 0 0 0 .189 5.431c.11 1.573.214 3.059.172 4.466-.043 1.48-.139 2.992-.24 4.592-.1 1.673-.214 3.4-.267 5.181a15.06 15.06 0 0 1 -1.068 2.161 16.723 16.723 0 0 0 -2.612 7.724c-.093 3.31 1.45 5.961 2.69 8.09a20.414 20.414 0 0 1 1.061 1.976 19.948 19.948 0 0 1 -1.016 1.986 16.614 16.614 0 0 0 -2.621 7.729c-.09 3.412 1.585 6.1 2.931 8.254.291.467.683 1.1.942 1.579-.306.431-.737.973-1.061 1.379-1.626 2.041-3.852 4.837-3.944 8.53-.038 1.522-.119 3.054-.2 4.677-.089 1.684-.181 3.425-.224 5.2-.037 1.525-.117 3.059-.2 4.685-.088 1.682-.179 3.421-.221 5.191-.084 3.643 2 6.511 3.514 8.6.376.519.9 1.245 1.184 1.725a21.877 21.877 0 0 1 -.906 2.089 17.966 17.966 0 0 0 -2.167 7.393c-.037 1.683-.038 3.376-.037 5.076 0 1.6 0 3.2-.033 4.81a21.467 21.467 0 0 0 1.193 6.759 13.717 13.717 0 0 1 .712 3.121 13.255 13.255 0 0 1 -1.016 2.38 17.47 17.47 0 0 0 -2.271 7.487c-.065 3.242 1.387 5.861 2.554 7.965a16.376 16.376 0 0 1 1.066 2.137 16.031 16.031 0 0 1 -.779 3.027 18.64 18.64 0 0 0 -.274 13.3 15.055 15.055 0 0 1 .673 3.214 14.921 14.921 0 0 1 -1.059 2.221 16.637 16.637 0 0 0 -2.5 7.676c-.027 1.58-.078 3.164-.129 4.754-.055 1.706-.11 3.417-.138 5.133a18.046 18.046 0 0 0 1.8 7.337 12.669 12.669 0 0 1 .9 2.594c-.024 1.533-.094 3.072-.169 4.7-.077 1.682-.157 3.42-.184 5.186-.023 1.59-.017 3.186-.01 4.786l-53.211 11.9a10.947 10.947 0 0 0 -7.9 6.917 11.291 11.291 0 0 0 .45 8.622 182.574 182.574 0 0 0 57.91 70.988c-.014.217-.029.429-.044.655-.145 2.093-.309 4.466-.308 7.063 0 1.972.19 3.917.373 5.8.172 1.776.335 3.452.338 5.055 0 1.657-.13 3.365-.27 5.173-.144 1.849-.292 3.761-.29 5.676 0 1.62.039 3.166.085 4.613a153.774 153.774 0 0 1 -32.417-5.223c-.2-.306-.4-.609-.594-.9a25.851 25.851 0 0 1 -2.069-3.453c-.6-1.354-1.115-2.844-1.657-4.42-.525-1.527-1.068-3.107-1.74-4.694a12.413 12.413 0 0 1 -.22-2.85 19.067 19.067 0 0 0 -1.066-7.09 30.259 30.259 0 0 1 -1.163-4.067 41.824 41.824 0 0 0 -1.508-5.243 32.952 32.952 0 0 1 -1.134-4.145 44.873 44.873 0 0 0 -1.414-5.171c-1.138-3.188-3.6-5.1-5.582-6.644-.521-.405-1.268-.986-1.629-1.349a18.2 18.2 0 0 1 .076-2.57 18.882 18.882 0 0 0 -.475-7.185c-.515-1.657-1.111-3.2-1.688-4.7-.593-1.539-1.154-2.993-1.557-4.394a16.554 16.554 0 0 0 -4.368-6.7c-.439-.467-1.053-1.122-1.387-1.563.141-.527.439-1.332.653-1.91.889-2.4 2-5.388 1.191-8.717a15.354 15.354 0 0 1 -.136-3.5 25.112 25.112 0 0 0 -.383-6.233c-.766-3.511-3.367-5.817-5.267-7.5-.5-.443-1.217-1.079-1.555-1.465a24.327 24.327 0 0 0 -2.3-5.683c-.381-.743-.771-1.5-1.026-2.137.339-.508.838-1.166 1.209-1.654 1.935-2.55 4.344-5.724 3.745-9.8a19.407 19.407 0 0 0 -2.6-6.658 12.374 12.374 0 0 1 -1.193-2.512 12.41 12.41 0 0 1 .458-3.057 20.975 20.975 0 0 0 .684-6.725c-.129-1.311-.279-2.607-.428-3.9-.224-1.946-.436-3.783-.572-5.625-.126-1.7-.154-3.407-.183-5.218-.023-1.409-.047-2.866-.121-4.35-.164-3.322-1.892-5.851-3.281-7.883a18.557 18.557 0 0 1 -1.179-1.867c-.041-1.907-.018-3.887 0-5.8.012-1.032.024-2.061.027-3.083.26-.449.852-1.221 1.264-1.759 1.526-1.99 3.615-4.715 3.7-8.26a18.315 18.315 0 0 0 -1.618-7.195 13.118 13.118 0 0 1 -.8-2.466 12.3 12.3 0 0 1 1.073-2.45 17.988 17.988 0 0 0 2.337-6.932c.286-3.773-1.834-6.8-3.382-9.007-.256-.366-.586-.837-.852-1.248.306-.388.69-.835.987-1.181 1.647-1.916 3.695-4.3 4.124-7.666a17.585 17.585 0 0 0 -1.048-7.53 14.787 14.787 0 0 1 -.614-2.4c.206-1.346.386-2.694.564-4.039.241-1.818.469-3.541.761-5.214a18.294 18.294 0 0 1 1.49-1.667c1.709-1.777 3.835-3.988 4.505-7.242.857-4.167-1.541-7.545-3.467-10.259-.377-.53-.89-1.252-1.217-1.785.344-1.349.742-2.72 1.158-4.152.4-1.383.8-2.756 1.151-4.115.44-1.7.983-3.4 1.558-5.211.322-1.015.643-2.026.945-3.03.551-.319 1.4-.726 2.014-1.022 2.952-1.419 6.625-3.185 7.88-7.181 1.2-3.833-.516-7.421-1.773-10.042-.161-.336-.36-.75-.538-1.143.344-.238.718-.485 1.022-.684 2.219-1.461 4.981-3.28 6.214-6.6 1.356-3.662-.007-7.257-1-9.882-.141-.371-.316-.834-.466-1.261.389-.248.829-.511 1.18-.72 2.269-1.353 5.093-3.039 6.481-6.272.67-1.563 1.439-3.084 2.253-4.693.641-1.267 1.3-2.577 1.925-3.929a41.869 41.869 0 0 0 1.893-5.25 27.652 27.652 0 0 1 1.367-3.813c1.436-2.926 1.253-5.921 1.107-8.327a18.39 18.39 0 0 1 -.053-2.214 20.553 20.553 0 0 1 2.233-2.86 28.007 28.007 0 0 0 3.544-4.744 29.358 29.358 0 0 1 2.542-3.586 40.176 40.176 0 0 0 3.063-4.3 16.29 16.29 0 0 1 2.494-2.819 25.361 25.361 0 0 0 3.887-4.523 20.257 20.257 0 0 0 2.461-6.974c.132-.633.315-1.51.483-2.054.569-.2 1.489-.435 2.148-.6 2.662-.663 5.973-1.492 8.073-4.415zm-129.167 325.849c.012.03.027.058.039.088-25.27-36.06-40.457-82.151-40.457-132.32 0-82.966 41.525-154.79 101.525-188.508a24.193 24.193 0 0 0 -2.147 4.72 13.114 13.114 0 0 1 -1.393 3.079 18.979 18.979 0 0 1 -2.484 2.31 28.293 28.293 0 0 0 -4.784 4.757 35.81 35.81 0 0 1 -2.549 2.894 43.872 43.872 0 0 0 -4.047 4.755 21.76 21.76 0 0 1 -2.453 2.634 30.479 30.479 0 0 0 -4.352 4.935c-1.729 2.591-2.007 5.471-2.23 7.784a15.023 15.023 0 0 1 -.363 2.537 41 41 0 0 0 -2.695 5.305 36.664 36.664 0 0 1 -1.8 3.681c-.657 1.109-1.351 2.2-2.05 3.3-1 1.578-2.037 3.207-3.024 4.961a19.26 19.26 0 0 1 -1.933 1.128c-2.193 1.18-5.2 2.794-6.833 5.946-1.737 3.341-.988 6.934-.441 9.557.113.537.263 1.257.344 1.806-.432.3-1.019.651-1.459.918-2.134 1.292-5.056 3.062-6.516 6.314-1.593 3.548-.481 7.18.331 9.832.11.36.246.8.363 1.221-.4.191-.838.387-1.191.546-2.751 1.236-6.519 2.929-8 6.832-.437 1.151-.907 2.311-1.38 3.479-.782 1.934-1.591 3.933-2.3 6-.4 1.158-.83 2.326-1.263 3.5-.727 1.97-1.478 4.006-2.127 6.1-1.223 3.952.709 7.584 2.119 10.237.259.486.6 1.126.845 1.649-.34.386-.788.844-1.129 1.192-1.719 1.756-3.858 3.942-4.64 7.2-.525 2.191-.946 4.4-1.354 6.53-.215 1.125-.43 2.253-.661 3.377a18.221 18.221 0 0 0 .408 7.589 15.649 15.649 0 0 1 .415 2.644 17.959 17.959 0 0 1 -1.392 1.809c-1.607 1.933-3.607 4.338-4.065 7.719-.5 3.664 1.288 6.755 2.591 9.012.336.581.814 1.408 1.027 1.9a18.963 18.963 0 0 1 -1 2.287 15.667 15.667 0 0 0 -.993 14.469 16.071 16.071 0 0 1 .712 2.592 20.3 20.3 0 0 1 -1.172 1.847c-1.4 2.048-3.313 4.854-3.3 8.409v2.715c-.006 2.416-.011 4.914.086 7.429.127 3.27 1.739 5.808 3.034 7.848a14.942 14.942 0 0 1 1.211 2.119c.086 1.184.143 2.365.2 3.547.1 2.043.2 4.156.442 6.348.252 2.323.6 4.6.94 6.8.159 1.034.319 2.074.469 3.125a14.224 14.224 0 0 1 -.227 3.182 22.307 22.307 0 0 0 -.139 7.059 20.192 20.192 0 0 0 2.784 6.651 22.733 22.733 0 0 1 1.153 2.143c-.251.527-.68 1.274-.991 1.817-1.467 2.557-3.475 6.058-2.494 10.03a24.047 24.047 0 0 0 2.773 6.236 16.607 16.607 0 0 1 1.548 3.139c.948 3.373 3.429 5.444 5.423 7.107a18.517 18.517 0 0 1 1.707 1.536 21.533 21.533 0 0 1 .454 3.22 27.3 27.3 0 0 0 1.137 6.311 17.345 17.345 0 0 1 -.364 2.3c-.496 2.49-1.114 5.585.112 8.785zm.4-38.35a25.3 25.3 0 0 1 -1.3-2.474c.255-.538.7-1.308 1.017-1.867 1.491-2.6 3.347-5.836 2.536-9.653a21.272 21.272 0 0 0 -2.733-6.309 12.261 12.261 0 0 1 -1.343-2.721 13.412 13.412 0 0 1 .215-3.342 22.817 22.817 0 0 0 .215-6.5c-.156-1.091-.322-2.172-.487-3.247-.333-2.165-.647-4.211-.87-6.269-.2-1.842-.291-3.689-.387-5.644-.065-1.315-.13-2.628-.227-3.944-.231-3.142-1.789-5.6-3.041-7.567a16.15 16.15 0 0 1 -1.179-2.044c-.082-2.219-.076-4.532-.071-6.77q0-1.24 0-2.469a18.785 18.785 0 0 1 1.21-1.919c1.409-2.065 3.164-4.635 3.268-7.99a19.936 19.936 0 0 0 -1.316-6.952 12.1 12.1 0 0 1 -.712-2.776 11.742 11.742 0 0 1 1.095-2.711 19.576 19.576 0 0 0 2.219-6.664c.36-3.565-1.379-6.575-2.648-8.773-.27-.466-.632-1.094-.871-1.573.321-.45.816-1.046 1.18-1.484 1.532-1.842 3.438-4.135 3.979-7.306a19.06 19.06 0 0 0 -.483-7.274 12.681 12.681 0 0 1 -.4-2.721c.242-1.178.468-2.359.693-3.538.388-2.031.755-3.952 1.2-5.818a15.929 15.929 0 0 1 1.586-1.768c1.639-1.675 3.678-3.758 4.514-6.8 1.071-3.9-.749-7.318-2.211-10.067-.308-.58-.734-1.381-.972-1.93.493-1.5 1.054-3.026 1.643-4.621.464-1.258.925-2.509 1.351-3.749.608-1.764 1.323-3.531 2.08-5.4.394-.973.786-1.942 1.16-2.9.525-.3 1.391-.684 2.012-.964 2.8-1.259 6.292-2.827 7.819-6.515 1.459-3.525.364-7.1-.435-9.711-.137-.445-.312-1.02-.442-1.51.426-.287.96-.61 1.369-.858 2.156-1.3 4.839-2.93 6.309-5.966 1.617-3.339.877-6.884.337-9.473-.1-.482-.232-1.115-.315-1.628.459-.282 1.066-.608 1.524-.854 2.209-1.188 4.959-2.666 6.586-5.595.862-1.55 1.812-3.045 2.818-4.628.742-1.169 1.51-2.378 2.247-3.623a47.081 47.081 0 0 0 2.434-4.9 31.742 31.742 0 0 1 1.893-3.806 16.964 16.964 0 0 0 2.152-7.775 15.789 15.789 0 0 1 .335-2.375 21.922 21.922 0 0 1 2.668-2.894 31.169 31.169 0 0 0 3.888-4.313 33.829 33.829 0 0 1 2.982-3.452 45.349 45.349 0 0 0 3.425-3.936 18.623 18.623 0 0 1 2.874-2.739 28.094 28.094 0 0 0 4.195-4.071 22.088 22.088 0 0 0 3.249-6.4 20.363 20.363 0 0 1 .949-2.32 20.646 20.646 0 0 1 2.322-.555c2.543-.513 5.708-1.153 7.984-3.709 2.881-3.237 2.852-7.437 2.83-10.5 0-.394-.006-.9 0-1.331h.412a11.265 11.265 0 0 0 8.47-3.079l-.787-.86a154.467 154.467 0 0 1 25.78-5.645 23.193 23.193 0 0 0 .475 4.8c.088.512.209 1.211.289 1.832-.271.071-.543.139-.775.2-2.833.71-6.712 1.681-9.038 5.147a18.2 18.2 0 0 0 -2.425 6.7 11.942 11.942 0 0 1 -.869 3.026 16.43 16.43 0 0 1 -2.152 2.368 25.651 25.651 0 0 0 -4.4 5.258 30.925 30.925 0 0 1 -2.188 3.024 39.364 39.364 0 0 0 -3.576 5.144 18.9 18.9 0 0 1 -2.108 2.7 27.731 27.731 0 0 0 -3.93 5.385c-1.5 2.879-1.323 5.882-1.176 8.3a15.49 15.49 0 0 1 .036 2.441 38.018 38.018 0 0 0 -2 5.437 31.963 31.963 0 0 1 -1.331 3.776c-.527 1.147-1.111 2.3-1.729 3.523-.794 1.571-1.614 3.192-2.379 4.931-.4.313-1.223.8-1.794 1.144-2.245 1.339-5.321 3.174-6.7 6.625-1.46 3.655-.088 7.273.913 9.915.162.428.37.974.532 1.454-.366.258-.787.536-1.121.755-2.188 1.44-5.185 3.413-6.393 6.942-1.314 3.842.421 7.458 1.687 10.1.115.239.248.516.379.8-.3.149-.6.294-.864.419-2.887 1.388-6.841 3.288-8.042 7.481-.356 1.239-.755 2.49-1.155 3.75-.6 1.88-1.216 3.824-1.738 5.835-.324 1.25-.691 2.512-1.06 3.783-.551 1.9-1.12 3.859-1.59 5.881-.976 4.2 1.547 7.753 3.388 10.348.281.4.637.9.937 1.348-.278.305-.587.627-.837.887-1.683 1.748-3.986 4.143-4.6 7.576-.365 2.034-.635 4.074-.9 6.047-.167 1.264-.335 2.533-.529 3.8a16.981 16.981 0 0 0 1 7.719 19.85 19.85 0 0 1 .6 2.264c-.291.429-.885 1.121-1.3 1.608-1.618 1.883-3.834 4.462-4.192 8-.388 3.831 1.762 6.9 3.332 9.141.347.5.825 1.177 1.109 1.658-.211.546-.62 1.344-.916 1.921a14.668 14.668 0 0 0 -.787 14.713 20.592 20.592 0 0 1 .764 2.209c-.28.448-.806 1.134-1.18 1.622-1.577 2.058-3.738 4.877-3.739 8.575 0 1.135-.013 2.278-.027 3.426-.025 2.124-.051 4.32 0 6.537.084 3.4 1.846 5.973 3.261 8.045a17.234 17.234 0 0 1 1.215 1.937c.055 1.209.075 2.432.1 3.721.031 1.9.063 3.868.214 5.91.155 2.086.391 4.133.62 6.113.141 1.225.283 2.455.406 3.7a12.886 12.886 0 0 1 -.456 2.947 20.571 20.571 0 0 0 -.655 7.121 18.743 18.743 0 0 0 2.611 6.87c.323.582.7 1.255.945 1.8-.333.492-.8 1.114-1.158 1.579-1.883 2.481-4.462 5.879-3.744 10.078a22 22 0 0 0 2.444 6.446 14.545 14.545 0 0 1 1.307 3.015c.7 3.587 3.338 5.927 5.265 7.635.5.445 1.223 1.084 1.57 1.479a21.078 21.078 0 0 1 .044 2.945 25.418 25.418 0 0 0 .383 6.282 19.541 19.541 0 0 1 -.7 2.094c-.869 2.347-2.059 5.561-1.147 9 .805 3.037 2.791 5.152 4.387 6.851a14.468 14.468 0 0 1 1.606 1.887c.546 1.875 1.219 3.621 1.869 5.31.53 1.373 1.03 2.67 1.427 3.946a12.723 12.723 0 0 1 -.035 2.747 18.626 18.626 0 0 0 .56 7.5c1.088 3.26 3.587 5.2 5.595 6.765a18.135 18.135 0 0 1 1.732 1.452c.359 1.069.639 2.289.935 3.576a42.777 42.777 0 0 0 1.609 5.712 32.345 32.345 0 0 1 1.057 3.782 40.3 40.3 0 0 0 1.7 5.743 12.749 12.749 0 0 1 .2 2.768 18.855 18.855 0 0 0 1.169 7.383c.463 1.095.882 2.294 1.315 3.551a169.973 169.973 0 0 1 -46.629-27.694l.485-.267a37.064 37.064 0 0 1 -1.821-4.133 51.429 51.429 0 0 0 -2.085-4.776c-1.478-2.862-3.957-4.5-5.949-5.814a17.5 17.5 0 0 1 -1.871-1.343 14.957 14.957 0 0 1 -.434-2.908 20.594 20.594 0 0 0 -1.47-6.77c-.682-1.517-1.417-2.938-2.128-4.313-.8-1.54-1.55-3-2.144-4.421a17.869 17.869 0 0 0 -4.709-6.071 20.15 20.15 0 0 1 -1.7-1.716 19.471 19.471 0 0 1 .368-2.264c.474-2.378 1.064-5.337 0-8.4a17.345 17.345 0 0 1 -.59-3.695 28 28 0 0 0 -1.027-5.941c-1.026-3.251-3.448-5.272-5.394-6.9a19.351 19.351 0 0 1 -1.66-1.486 26.666 26.666 0 0 0 -2.588-5.514z"/><path d="m217.944 389.064c-.938 2.084-2.016 6.328 1.288 11.339 4.354 6.6 9.039 8.2 12.558 8.2a11.541 11.541 0 0 0 1.276-.07c7.284-.8 13.642-8.187 18.9-21.961a7.383 7.383 0 0 0 -7.945-9.947c-14.53 2.088-23.303 6.275-26.077 12.439zm19.142 1.191c-2.381 4.214-4.4 6.084-5.258 6.336-.239-.112-1.17-.658-2.578-2.793l-.075-.118c.911-.841 3.425-2.189 7.911-3.425z"/><path d="m402.547 353.346c8.638 6.3 15.933 9.47 21.787 9.47a13.154 13.154 0 0 0 6-1.353c3.24-1.631 7.117-5.447 7.184-14.363.046-6.008-3.171-8.98-5.092-10.217-5.686-3.66-15.32-2.383-28.637 3.795a7.385 7.385 0 0 0 -1.244 12.667zm22.972-6.472v.136c-.019 2.573-.508 3.537-.646 3.759-.857.257-3.563-.209-7.855-2.445 4.432-1.412 7.273-1.657 8.501-1.45z"/><path d="m266.721 422.269a22.827 22.827 0 0 0 6.48 1.034 12.382 12.382 0 0 0 9.331-3.715c5.065-5.3 5.184-15.051.355-28.984a7.38 7.38 0 0 0 -12.484-2.5c-9.785 10.963-13.808 19.819-11.96 26.326.624 2.194 2.53 6.133 8.278 7.839zm7.139-19.261c.884 4.763.538 7.49.038 8.232-.252.067-1.311.252-3.764-.475l-.125-.039c.158-1.233 1.214-3.884 3.851-7.718z"/><path d="m391.088 394.846a11.628 11.628 0 0 0 2.645.306c3.335 0 7.6-1.448 12.065-6.717 3.882-4.578 3.321-8.92 2.641-11.1-2.012-6.456-10.219-11.666-24.393-15.484a7.383 7.383 0 0 0 -9.083 8.92c3.564 14.306 8.989 22.407 16.125 24.075zm5.646-14.28c-.027.034-.056.069-.088.107-1.653 1.949-2.643 2.379-2.893 2.462-.824-.354-2.6-2.452-4.46-6.922 4.307 1.767 6.638 3.409 7.441 4.353z"/><path d="m313.658 423.982q.622.026 1.213.026c8.045 0 11.758-3.487 13.463-6.492 3.618-6.377 1.354-15.861-6.727-28.19a7.38 7.38 0 0 0 -12.717.622c-6.815 13.025-8.556 22.6-5.174 28.456 1.141 1.977 3.951 5.33 9.942 5.578zm2.222-20.423c2.02 4.4 2.347 7.133 2.042 7.973-.224.126-1.2.567-3.768.461l-.127-.008c-.146-1.235.232-4.065 1.853-8.426z"/><path d="m351.552 415.17a10.809 10.809 0 0 0 5.719 1.629 13 13 0 0 0 5.679-1.388c8.02-3.864 9.815-9 9.909-12.622.19-7.328-6.263-14.629-19.181-21.7a7.382 7.382 0 0 0 -10.928 6.531c.102 14.704 3.064 23.974 8.802 27.55zm9.3-12.758c-.136.214-.791 1.068-3.115 2.188l-.11.051c-.71-1.026-1.7-3.7-2.319-8.313 3.858 2.938 5.427 5.191 5.548 6.074z"/></svg>