<svg id="Capa_1" enable-background="new 0 0 512.133 512.133" height="512" viewBox="0 0 512.133 512.133" width="512" xmlns="http://www.w3.org/2000/svg"><path d="m506.793 26.183c4.277-5.182 3.897-12.648-.885-17.369l-5.145-5.079c-4.782-4.718-12.253-5.002-17.379-.656l-45.274 38.391c-.548.464-1.228.716-1.965.688l-31.853-.958c-7.061-.214-13.549 3.513-16.931 9.722-1.54 2.826-2.287 5.914-2.275 8.988-18.752 5.67-36.176 15.432-50.752 28.504l-49.955 44.802c-3.083 2.766-3.341 7.507-.575 10.591 1.48 1.652 3.528 2.493 5.586 2.493 1.782 0 3.572-.632 5.005-1.917l49.954-44.802c13.308-11.934 29.294-20.756 46.486-25.723 1.591 2.213 3.222 4.379 4.882 6.509-14.966 10.494-30.317 23.262-44.726 37.233l-110.108 106.762c-38.735 37.557-78.827 71.813-119.163 101.815l-3.761 2.798c-3.323 2.473-4.013 7.171-1.541 10.494 1.472 1.979 3.733 3.024 6.023 3.024 1.556 0 3.126-.483 4.471-1.483l3.76-2.798c40.857-30.39 81.451-65.071 120.652-103.081l110.109-106.762c14.199-13.767 29.313-26.293 43.973-36.47 4.316 4.76 8.823 9.272 13.517 13.521-9.974 14.757-22.275 29.994-35.823 44.336l-105.32 111.49c-37.495 39.691-71.645 80.732-101.502 121.983l-23.906 33.029c-18.836 26.025-43.065 51.053-68.558 70.902-12.022-5.431-23.172-13.002-32.865-22.57-9.693-9.567-17.408-20.617-22.995-32.568 19.515-25.749 44.226-50.301 70.004-69.475l3.267-2.43c3.324-2.472 4.014-7.17 1.542-10.494-2.473-3.323-7.17-4.014-10.494-1.542l-3.267 2.43c-24.402 18.15-47.876 40.925-67.226 65.057-4.898-16.993-5.8-35.159-2.254-53.117 7.361-37.27 32.742-68.12 67.895-82.524l35.404-14.508c44.73-18.329 85.657-43.987 121.646-76.262l25.866-23.197c3.083-2.766 3.341-7.507.576-10.591-2.765-3.083-7.505-3.344-10.592-.576l-25.865 23.197c-34.708 31.126-74.18 55.872-117.318 73.549l-35.404 14.508c-39.827 16.32-68.583 51.272-76.922 93.498-8.34 42.225 4.969 85.485 35.601 115.721 24.211 23.898 56.413 36.87 89.645 36.868 8.812 0 17.703-.913 26.53-2.776 42.113-8.888 76.688-38.097 92.488-78.132l14.046-35.591c6.359-16.115 13.828-31.979 22.199-47.152 2.001-3.627.684-8.189-2.943-10.19-3.624-2-8.188-.683-10.189 2.944-8.681 15.733-16.425 32.182-23.02 48.891l-14.046 35.591c-13.946 35.337-44.463 61.118-81.633 68.962-17.903 3.779-36.073 3.116-53.122-1.556 23.872-19.662 46.329-43.442 64.157-68.073l23.906-33.029c29.476-40.725 63.207-81.259 100.255-120.477l105.32-111.49c13.713-14.517 26.225-29.951 36.495-44.982 2.181 1.675 4.391 3.307 6.64 4.879-4.76 17.138-13.344 33.13-25.032 46.509l-88.269 101.038c-11.843 13.556-22.927 28.022-32.942 42.996-2.303 3.443-1.378 8.101 2.064 10.404 1.281.857 2.729 1.267 4.163 1.267 2.42 0 4.795-1.169 6.241-3.332 9.659-14.441 20.348-28.393 31.771-41.466l88.268-101.039c12.788-14.638 22.271-32.053 27.714-50.727 3.129-.002 6.269-.804 9.122-2.417 6.151-3.475 9.783-10.01 9.479-17.055l-1.388-32.207c-.031-.717.203-1.417.661-1.97zm-49.365 36.22c-2.824 3.419-4.273 7.742-4.082 12.17l1.388 32.205c.087 2.02-1.279 3.015-1.871 3.35-.705.398-2.12.914-3.666-.111-18.676-12.379-34.985-28.583-48.474-48.163-1.126-1.634-.507-3.171-.188-3.756.316-.58 1.25-1.907 3.18-1.907.042 0 .085 0 .128.002l31.854.958c4.445.138 8.733-1.373 12.115-4.24l43.797-37.137 2.384 2.353z"/></svg>