<?xml version="1.0" encoding="iso-8859-1"?>
<!-- Generator: Adobe Illustrator 19.0.0, SVG Export Plug-In . SVG Version: 6.00 Build 0)  -->
<svg version="1.1" id="Capa_1" xmlns="http://www.w3.org/2000/svg" xmlns:xlink="http://www.w3.org/1999/xlink" x="0px" y="0px"
	 viewBox="0 0 512 512" style="enable-background:new 0 0 512 512;" xml:space="preserve">
<g>
	<g>
		<path d="M504.21,119.421c-12.188,0-444.95,0-484.468,0C8.854,119.421,0,128.275,0,139.152v67.056v99.587v67.056
			c0,10.877,8.854,19.731,19.741,19.731h27.816c4.191,0,7.589-3.398,7.589-7.589c0-4.191-3.398-7.589-7.589-7.589H19.731
			c-2.514,0-4.553-2.039-4.553-4.553v-59.467h86.635c2.408,0,4.644,1.103,6,2.945c41.978,57.246,127.574,57.292,169.608,0
			c1.346-1.842,3.592-2.945,6-2.945h83.883v59.467c0,2.504-2.049,4.553-4.553,4.553c-10.893,0-282.969,0-287.873,0
			c-4.191,0-7.589,3.398-7.589,7.589c0,4.191,3.398,7.589,7.589,7.589c20.5,0,407.111,0,429.534,0c4.189,0,7.589-3.4,7.589-7.589
			V127.01C512,122.745,508.437,119.305,504.21,119.421z M486.661,134.599l-47.009,49.216l-47.009-49.216H486.661z M367.304,198.619
			h-31.368c-4.191,0-7.589,3.398-7.589,7.589s3.398,7.589,7.589,7.589h31.368v84.409h-83.883c-7.215,0-14.045,3.42-18.244,9.147
			c-35.93,48.982-109.17,49.039-145.121,0c-4.199-5.727-11.029-9.147-18.244-9.147H15.178v-84.409h84.166
			c7.548,0,14.53-3.673,18.689-9.825c35.683-52.89,113.484-52.859,149.168,0c4.159,6.152,11.141,9.825,18.689,9.825h22.726
			c4.191,0,7.589-3.398,7.589-7.589s-3.398-7.589-7.589-7.589H285.89c-2.499,0-4.776-1.174-6.112-3.137
			c-41.642-61.699-132.567-61.884-174.333,0c-1.326,1.963-3.602,3.137-6.102,3.137H15.178v-59.467c0-2.514,2.039-4.553,4.553-4.553
			c20.151,0,323.193,0,343.02,0c2.504,0,4.553,2.049,4.553,4.553V198.619z M496.822,377.404h-49.581v-111.79
			c0-4.191-3.398-7.589-7.589-7.589c-4.191,0-7.589,3.398-7.589,7.589v111.79h-50.117c0.802-3.3,0.55-216.68,0.536-231.469
			l49.581,51.908v40.45c0,4.191,3.398,7.589,7.589,7.589c4.191,0,7.589-3.398,7.589-7.589v-40.198c0-0.081-0.008-0.161-0.011-0.241
			l49.592-51.919V377.404z"/>
	</g>
</g>
<g>
	<g>
		<path d="M91.694,253.802c4.256-1.847,6.825-6.102,6.825-12.606c0-11.401-8.029-14.29-16.057-14.29H66.002
			c-2.729,0-5.459,1.285-5.459,3.854v51.062c0,2.007,2.087,3.773,5.459,3.773h17.824c9.072,0,16.137-4.577,16.137-17.261v-1.687
			C99.963,258.618,96.592,255.647,91.694,253.802z M72.987,237.824h8.43c3.052,0,4.577,2.81,4.577,5.62
			c0,2.73-1.526,5.54-4.577,5.54h-8.43V237.824z M81.015,274.675h-8.029v-16.057c5.995,0.799,14.451-2.985,14.451,7.387
			C87.312,266.462,88.489,274.675,81.015,274.675z"/>
	</g>
</g>
<g>
	<g>
		<path d="M140.428,226.905c-3.212,0-6.261,1.123-6.261,3.773v36.45c0,5.46-2.89,8.029-7.707,8.029
			c-4.817,0-7.707-2.569-7.707-8.029v-36.45c0-2.65-3.212-3.773-6.262-3.773c-3.212,0-6.261,1.123-6.261,3.773v36.45
			c0,13.809,8.831,18.948,20.232,18.948c11.321,0,20.232-5.138,20.232-18.948v-36.45
			C146.691,228.029,143.479,226.905,140.428,226.905z"/>
	</g>
</g>
<g>
	<g>
		<path d="M189.884,226.905h-34.683c-2.649,0-3.773,2.89-3.773,5.54c0,3.051,1.365,5.701,3.773,5.701h11.079v43.595
			c0,2.569,3.132,3.854,6.262,3.854s6.261-1.285,6.261-3.854v-43.595h11.08c2.408,0,3.773-2.65,3.773-5.701
			C193.658,229.795,192.533,226.905,189.884,226.905z"/>
	</g>
</g>
<g>
	<g>
		<path d="M233.399,226.905h-34.683c-2.65,0-3.773,2.89-3.773,5.54c0,3.051,1.365,5.701,3.773,5.701h11.079v43.595
			c0,2.569,3.132,3.854,6.262,3.854c3.131,0,6.261-1.285,6.261-3.854v-43.595h11.08c2.408,0,3.773-2.65,3.773-5.701
			C237.172,229.795,236.048,226.905,233.399,226.905z"/>
	</g>
</g>
<g>
	<g>
		<path d="M276.192,274.676h-21.518v-13.649h12.043c2.649,0,3.773-2.569,3.773-4.737c0-2.569-1.365-4.897-3.773-4.897h-12.043
			v-13.568h21.518v0c2.408,0,3.773-2.569,3.773-5.54c0-2.569-1.123-5.379-3.773-5.379h-28.583c-2.729,0-5.459,1.285-5.459,3.854
			v50.981c0,2.569,2.729,3.854,5.459,3.854h28.583c2.649,0,3.773-2.81,3.773-5.379C279.965,277.245,278.6,274.676,276.192,274.676z"
			/>
	</g>
</g>
<g>
	<g>
		<path d="M325.726,278.128l-9.794-17.743c5.621-2.168,9.716-7.307,9.716-16.298c0-13.086-8.751-17.18-19.751-17.18h-16.619
			c-2.329,0-3.854,1.766-3.854,3.773v51.062c0,2.569,3.131,3.854,6.261,3.854s6.261-1.285,6.261-3.854v-19.35h5.299l10.999,21.356
			c0.883,1.686,2.409,2.328,4.015,2.328c3.692,0,7.867-3.373,7.867-6.503C326.127,279.172,326.047,278.61,325.726,278.128z
			 M305.898,252.757h-7.948v-14.933h7.948c4.496,0,7.227,1.847,7.227,7.466C313.124,250.911,310.393,252.757,305.898,252.757z"/>
	</g>
</g>
<g>
</g>
<g>
</g>
<g>
</g>
<g>
</g>
<g>
</g>
<g>
</g>
<g>
</g>
<g>
</g>
<g>
</g>
<g>
</g>
<g>
</g>
<g>
</g>
<g>
</g>
<g>
</g>
<g>
</g>
</svg>
