<svg id="Capa_1" enable-background="new 0 0 512 512" height="512" viewBox="0 0 512 512" width="512" xmlns="http://www.w3.org/2000/svg"><g><path d="m475.813 280.287h36.187v-120.34l-256-104.297-256 104.297v296.403h512v-103.686h-36.188c-19.954 0-36.188-16.234-36.188-36.188s16.234-36.189 36.189-36.189zm-55.387-125.254h-234.93v34.552c0 10.398-8.46 18.858-18.858 18.858s-18.858-8.46-18.858-18.858v-34.552h-56.206l164.426-66.988zm55.387 227.631h6.187v43.686h-452v-241.317h87.779v4.552c0 26.94 21.918 48.858 48.858 48.858s48.858-21.918 48.858-48.858v-4.552h266.505v65.254h-6.188c-36.496 0-66.188 29.692-66.188 66.188s29.692 66.189 66.189 66.189z"/><path d="m346.746 208.166c-25.207 0-45.715 20.508-45.715 45.716s20.508 45.716 45.715 45.716c25.208 0 45.716-20.508 45.716-45.716s-20.508-45.716-45.716-45.716zm0 61.432c-8.665 0-15.715-7.05-15.715-15.716s7.05-15.716 15.715-15.716c8.666 0 15.716 7.05 15.716 15.716s-7.05 15.716-15.716 15.716z"/><path d="m113.533 303.684c-25.208 0-45.716 20.508-45.716 45.715 0 25.208 20.508 45.716 45.716 45.716s45.716-20.508 45.716-45.716-20.508-45.715-45.716-45.715zm0 61.43c-8.666 0-15.716-7.05-15.716-15.716 0-8.665 7.05-15.715 15.716-15.715s15.716 7.05 15.716 15.715c0 8.666-7.05 15.716-15.716 15.716z"/><path d="m336.07 364.399h30v30.002h-30z"/><path d="m306.068 334.397h30v30.002h-30z"/><path d="m63.9 223.166h30v30.002h-30z"/><path d="m198.204 344.398h30v30.002h-30z"/></g></svg>