<?xml version="1.0" encoding="iso-8859-1"?>
<!-- Generator: Adobe Illustrator 19.0.0, SVG Export Plug-In . SVG Version: 6.00 Build 0)  -->
<svg version="1.1" id="Capa_1" xmlns="http://www.w3.org/2000/svg" xmlns:xlink="http://www.w3.org/1999/xlink" x="0px" y="0px"
	 viewBox="0 0 512 512" style="enable-background:new 0 0 512 512;" xml:space="preserve">
<g>
	<g>
		<g>
			<circle cx="266.667" cy="416" r="10.667"/>
			<circle cx="309.333" cy="437.333" r="10.667"/>
			<circle cx="277.333" cy="458.667" r="10.667"/>
			<path d="M341.333,280.483v-82.025c0-26.698-13-51.865-34.792-67.313c-18.563-13.177-29.208-32.104-29.208-51.938V64
				C283.229,64,288,59.229,288,53.333V10.667C288,4.771,283.229,0,277.333,0h-128c-5.896,0-10.667,4.771-10.667,10.667v42.667
				c0,5.896,4.771,10.667,10.667,10.667v15.208c0,19.833-10.646,38.76-29.208,51.938c-21.792,15.448-34.792,40.615-34.792,67.313
				v270.875C85.333,492.865,104.479,512,128,512c0,0,188.275,0,192,0c64.792,0,106.667-38.771,106.667-98.781
				C426.667,358.049,390.742,295.053,341.333,280.483z M160,21.333h106.667v21.333H160V21.333z M132.458,148.542
				c24.292-17.229,38.208-42.5,38.208-69.333V64H256v15.208c0,26.833,13.917,52.104,38.208,69.333
				C310.354,160,320,178.656,320,198.458v4.089c-50.408-0.605-77.031-5.328-104.75-10.37c-26.99-4.91-55.126-9.917-105.914-10.688
				C113.154,168.372,121.072,156.622,132.458,148.542z M128,490.667c-11.771,0-21.333-9.573-21.333-21.333V202.786
				c50.408,0.605,77.031,5.328,104.75,10.37c27.454,4.995,56.111,10.086,108.583,10.719v53.458
				c-60.063,0-106.667,73.042-106.667,135.885c0,33.642,13.526,60.245,36.507,77.448H128z M320,490.667
				c-41.25,0-85.333-20.344-85.333-77.448c0-51.885,38.063-114.552,85.333-114.552c47.271,0,85.333,62.667,85.333,114.552
				C405.333,470.323,361.25,490.667,320,490.667z"/>
		</g>
	</g>
</g>
<g>
</g>
<g>
</g>
<g>
</g>
<g>
</g>
<g>
</g>
<g>
</g>
<g>
</g>
<g>
</g>
<g>
</g>
<g>
</g>
<g>
</g>
<g>
</g>
<g>
</g>
<g>
</g>
<g>
</g>
</svg>
