<?xml version="1.0" encoding="iso-8859-1"?>
<!-- Generator: Adobe Illustrator 19.0.0, SVG Export Plug-In . SVG Version: 6.00 Build 0)  -->
<svg version="1.1" id="Capa_1" xmlns="http://www.w3.org/2000/svg" xmlns:xlink="http://www.w3.org/1999/xlink" x="0px" y="0px"
	 viewBox="0 0 512 512" style="enable-background:new 0 0 512 512;" xml:space="preserve">
<g>
	<g>
		<path d="M261.268,359.751c-1.87-1.861-4.44-2.931-7.08-2.931c-2.63,0-5.21,1.07-7.07,2.931c-1.86,1.859-2.92,4.43-2.92,7.069
			c0,2.631,1.06,5.211,2.92,7.07c1.87,1.86,4.44,2.93,7.07,2.93c2.64,0,5.21-1.069,7.08-2.93c1.859-1.859,2.93-4.439,2.93-7.07
			C264.198,364.19,263.128,361.61,261.268,359.751z"/>
	</g>
</g>
<g>
	<g>
		<path d="M438.962,27H126.978c-40.273,0-73.039,32.765-73.039,73.039v123.976c-4.234,3.965-8.275,8.468-12.069,13.497
			c-14.68,19.453-24.47,45.395-26.988,71.359C5.842,315.824,0,326.74,0,339c0,16.738,10.834,31.136,26.189,36.128l13.381,73.573
			C43.396,469.735,61.69,485,83.068,485h48.563c21.379,0,39.672-15.267,43.497-36.299l6.515-35.818l6.516,35.817
			c3.825,21.033,22.118,36.3,43.497,36.3h48.563c21.378,0,39.672-15.266,43.498-36.3l6.515-35.82l6.515,35.821
			c3.826,21.033,22.12,36.299,43.498,36.299h48.563c21.379,0,39.672-15.267,43.497-36.299l13.373-73.525
			C501.113,370.232,512,355.817,512,339V100.04C512.001,59.766,479.235,27,438.962,27z M68.389,237.945
			c1.457-0.726,2.708-1.794,3.654-3.103c9.116-7.179,19.188-11.312,29.405-11.312c29.532,0,57.865,34.488,65.354,77.47H38h-1.903
			C40.642,274.907,52.875,251.962,68.389,237.945z M476.434,356.819H290.688c-5.522,0-10,4.478-10,10c0,5.522,4.478,10,10,10
			h174.363l-12.424,68.304C450.533,456.64,440.516,465,428.809,465h-48.563c-11.707,0-21.726-8.36-23.82-19.878l-6.847-37.646
			c-1.702-9.354-9.839-16.144-19.346-16.144s-17.644,6.789-19.346,16.145l-6.847,37.644C301.945,456.64,291.927,465,280.22,465
			h-48.563c-11.707,0-21.725-8.36-23.819-19.879l-6.848-37.643c-1.7-9.355-9.836-16.146-19.345-16.146
			c-9.509,0-17.646,6.79-19.346,16.144l-6.848,37.646C153.356,456.64,143.339,465,131.632,465H83.068
			c-11.707,0-21.726-8.36-23.82-19.878l-12.423-68.304h168.611c5.522,0,10-4.478,10-10c0-5.522-4.478-10-10-10H35.567
			C26.667,355.621,20,348.039,20,339c0-9.925,8.075-18,18-18h436.001c9.925,0,18,8.075,18,18
			C492.001,348.054,485.339,355.623,476.434,356.819z M190.586,301c7.488-42.982,35.821-77.47,65.353-77.47
			c29.532,0,57.864,34.488,65.352,77.47H190.586z M345.075,301c7.488-42.982,35.821-77.47,65.353-77.47
			c29.532,0,57.865,34.488,65.353,77.47h-1.78H345.075z M492.001,282.689c-4.748-16.646-12.299-32.33-21.993-45.177
			c-16.537-21.914-37.696-33.982-59.58-33.982s-43.043,12.068-59.579,33.982c-7.139,9.461-13.109,20.466-17.665,32.252
			c-4.556-11.786-10.526-22.791-17.665-32.252c-16.537-21.914-37.696-33.982-59.58-33.982s-43.043,12.068-59.58,33.982
			c-7.139,9.461-13.109,20.466-17.665,32.252c-4.556-11.786-10.526-22.791-17.665-32.252c-16.537-21.914-37.696-33.982-59.58-33.982
			c-9.407,0-18.68,2.236-27.51,6.52V100.04h-0.001c0-29.246,23.793-53.04,53.04-53.04h311.984c29.246,0,53.039,23.793,53.039,53.039
			V282.689z"/>
	</g>
</g>
<g>
	<g>
		<path d="M411.422,91c-5.522,0-10,4.477-10,10s4.477,10,10,10c14.621,0,26.517,11.896,26.517,26.517v34.306c0,5.523,4.478,10,10,10
			c5.522,0,10-4.477,10-10v-34.306C457.939,111.868,437.072,91,411.422,91z"/>
	</g>
</g>
<g>
	<g>
		<path d="M300.538,93.93c-1.859-1.86-4.439-2.93-7.07-2.93c-2.63,0-5.21,1.07-7.069,2.93c-1.86,1.86-2.931,4.44-2.931,7.07
			c0,2.64,1.07,5.21,2.931,7.07c1.859,1.86,4.439,2.93,7.069,2.93c2.631,0,5.211-1.07,7.07-2.93c1.86-1.86,2.93-4.44,2.93-7.07
			S302.399,95.79,300.538,93.93z"/>
	</g>
</g>
<g>
	<g>
		<path d="M245.939,91H154.44c-25.649,0-46.517,20.867-46.517,46.517v35.616c0,5.523,4.477,10,10,10c5.522,0,10-4.477,10-10v-35.616
			c0-14.621,11.896-26.517,26.517-26.517h91.499c5.522,0,10-4.477,10-10S251.461,91,245.939,91z"/>
	</g>
</g>
<g>
</g>
<g>
</g>
<g>
</g>
<g>
</g>
<g>
</g>
<g>
</g>
<g>
</g>
<g>
</g>
<g>
</g>
<g>
</g>
<g>
</g>
<g>
</g>
<g>
</g>
<g>
</g>
<g>
</g>
</svg>
