<svg id="Capa_1" enable-background="new 0 0 512 512" height="512" viewBox="0 0 512 512" width="512" xmlns="http://www.w3.org/2000/svg"><g><path d="m417.214 152.372v292.128c0 37.22-30.28 67.5-67.5 67.5h-187.428c-37.22 0-67.5-30.28-67.5-67.5v-188.809c0-4.143 3.357-7.5 7.5-7.5s7.5 3.357 7.5 7.5v188.809c0 28.948 23.552 52.5 52.5 52.5h187.428c28.948 0 52.5-23.552 52.5-52.5v-292.128c0-19.803-10.95-37.71-28.578-46.733l-50.955-26.084c-7.917-4.052-13.507-11.199-15.616-19.555h-102.129c-2.109 8.355-7.7 15.503-15.617 19.556l-50.954 26.083c-17.628 9.023-28.578 26.931-28.578 46.733v73.319c0 4.143-3.357 7.5-7.5 7.5s-7.5-3.357-7.5-7.5v-73.319c0-25.46 14.079-48.483 36.742-60.085l50.955-26.084c2.819-1.443 5.056-3.66 6.506-6.319-7.39-.926-13.126-7.247-13.126-14.884v-22.5c0-12.406 10.094-22.5 22.5-22.5h60.286c4.143 0 7.5 3.357 7.5 7.5s-3.357 7.5-7.5 7.5h-60.286c-4.136 0-7.5 3.364-7.5 7.5v22.5h130.273v-22.5c0-4.136-3.364-7.5-7.5-7.5h-24.987c-4.143 0-7.5-3.357-7.5-7.5s3.357-7.5 7.5-7.5h24.987c12.406 0 22.5 10.094 22.5 22.5v22.5c0 7.637-5.736 13.958-13.126 14.884 1.45 2.659 3.687 4.876 6.505 6.318l50.956 26.085c22.663 11.602 36.742 34.625 36.742 60.085zm-186.777 172.611v15.405c0 4.143 3.357 7.5 7.5 7.5s7.5-3.357 7.5-7.5v-15.405c0-4.143-3.357-7.5-7.5-7.5s-7.5 3.358-7.5 7.5zm-64.574-29.712c7.423-.647 19.542-1.705 31.001-3.365-.113-.056-.226-.112-.339-.17-9.426-4.775-20.662-14.906-20.662-36.045 0-4.143 3.357-7.5 7.5-7.5s7.5 3.357 7.5 7.5c0 11.009 4.07 18.423 12.442 22.665 3.884 1.969 7.795 2.789 10.335 3.133 10.858-10.147 25.083-15.298 42.359-15.298 4.143 0 7.5 3.357 7.5 7.5s-3.357 7.5-7.5 7.5c-14.603 0-25.744 4.311-34.062 13.18-12.131 12.933-19.666 36.724-19.666 62.087 0 12.477 1.545 23.286 4.58 32.388 8.293-7.701 23.41-16.555 49.147-16.555s40.854 8.854 49.147 16.555c3.036-9.102 4.58-19.911 4.58-32.388 0-25.363-7.535-49.154-19.666-62.087-3.064-3.269-6.558-5.951-10.383-7.976-3.661-1.937-5.059-6.475-3.121-10.137 1.936-3.661 6.474-5.06 10.137-3.121 4.217 2.231 8.123 5.036 11.663 8.345 2.644-.361 6.748-1.229 10.731-3.331 8.107-4.278 12.048-11.625 12.048-22.461 0-4.143 3.357-7.5 7.5-7.5s7.5 3.357 7.5 7.5c0 21.139-11.236 31.27-20.662 36.045-.113.058-.226.114-.339.17 11.459 1.66 23.578 2.718 31.001 3.365 3.662.319 6.308.55 7.793.749 11.367 1.523 17.887 8.927 17.887 20.313 0 12.96-9.461 23.814-23.541 27.01-2.627.596-5.313.891-8.001.891-5.552 0-11.115-1.258-16.209-3.717-.091-.044-.179-.094-.269-.138.613 5.267.931 10.651.931 16.08 0 27.272-6.713 48.286-19.953 62.457-11.842 12.676-28.708 19.376-48.774 19.376s-36.933-6.7-48.774-19.376c-13.24-14.171-19.953-35.185-19.953-62.457 0-5.43.318-10.814.932-16.082-.091.045-.178.096-.27.14-5.093 2.459-10.657 3.717-16.209 3.717-2.688 0-5.373-.294-8.001-.891-14.08-3.195-23.541-14.05-23.541-27.01 0-11.386 6.52-18.789 17.887-20.313 1.487-.198 4.132-.428 7.794-.748zm178.97 14.944c-7.562-.66-18.582-1.623-29.526-3.131.827 1.972 1.608 3.997 2.335 6.075 4.362 9.063 14.12 18.543 27.313 15.556 5.472-1.242 11.861-5.229 11.861-12.382 0-3.896-.912-4.914-4.879-5.445-1.141-.154-3.905-.394-7.104-.673zm-130.997 92.986c1.34 1.956 2.781 3.793 4.351 5.473 9.061 9.699 21.783 14.616 37.813 14.616s28.753-4.917 37.813-14.616c1.57-1.681 3.011-3.517 4.351-5.474-4.332-5.427-16.074-15.91-42.164-15.91-26.091.001-37.832 10.484-42.164 15.911zm-46.669-92.986c-3.199.279-5.963.52-7.104.673-3.967.531-4.879 1.549-4.879 5.445 0 7.152 6.39 11.14 11.861 12.382 13.191 2.994 22.949-6.492 27.313-15.555.727-2.078 1.508-4.103 2.335-6.075-10.944 1.507-21.964 2.47-29.526 3.13zm114.396 30.174v-15.405c0-4.143-3.357-7.5-7.5-7.5s-7.5 3.357-7.5 7.5v15.405c0 4.143 3.357 7.5 7.5 7.5s7.5-3.358 7.5-7.5zm39.574-136.62v-71.061c0-7.898 4.023-15.075 10.762-19.195 6.739-4.121 14.96-4.433 21.99-.833l12.913 6.61c12.591 6.444 20.412 19.234 20.412 33.38v71.061c0 7.898-4.023 15.075-10.762 19.195-6.738 4.121-14.96 4.433-21.99.833l-12.913-6.61c-12.591-6.445-20.412-19.235-20.412-33.38zm15 0c0 8.487 4.693 16.161 12.247 20.027l12.913 6.611c3.378 1.729 6.251.382 7.33-.278 1.078-.659 3.587-2.604 3.587-6.398v-71.061c0-8.487-4.693-16.161-12.247-20.027l-12.913-6.611c-3.378-1.729-6.251-.382-7.33.278-1.078.659-3.587 2.604-3.587 6.398z"/></g></svg>