<?xml version="1.0" encoding="iso-8859-1"?>
<!-- Generator: Adobe Illustrator 19.0.0, SVG Export Plug-In . SVG Version: 6.00 Build 0)  -->
<svg version="1.1" id="Capa_1" xmlns="http://www.w3.org/2000/svg" xmlns:xlink="http://www.w3.org/1999/xlink" x="0px" y="0px"
	 viewBox="0 0 511.999 511.999" style="enable-background:new 0 0 511.999 511.999;" xml:space="preserve">
<g>
	<g>
		<path d="M215.808,223.135c-4.197,0-6.162,0.893-9.109,6.162l-10.985,20.005l-10.985-20.005c-2.948-5.269-4.822-6.162-9.02-6.162
			c-2.948,0-5.806,1.518-5.806,5.805v55.818c0,2.411,2.859,3.661,5.806,3.661c2.858,0,5.805-1.25,5.805-3.661v-39.117l10.271,19.29
			c0.982,1.786,2.411,2.322,3.84,2.322s2.947-0.536,3.929-2.322l10.449-18.576v38.403c0,2.411,2.858,3.661,5.805,3.661
			c2.859,0,5.806-1.25,5.806-3.661V228.94C221.614,224.653,218.755,223.135,215.808,223.135z"/>
	</g>
</g>
<g>
	<g>
		<path d="M238.138,223.135c-2.948,0-5.806,1.071-5.806,3.571v58.051c0,2.411,2.859,3.661,5.806,3.661
			c2.858,0,5.805-1.25,5.805-3.661v-58.051C243.943,224.207,240.995,223.135,238.138,223.135z"/>
	</g>
</g>
<g>
	<g>
		<path d="M288.063,278.238h-21.791v-51.531c0-2.499-2.948-3.571-5.805-3.571c-2.948,0-5.806,1.071-5.806,3.571v58.051
			c0,2.411,2.501,3.661,5.091,3.661v0.001h28.311c2.322,0,3.484-2.59,3.484-5.091C291.547,280.739,290.385,278.238,288.063,278.238z
			"/>
	</g>
</g>
<g>
	<g>
		<path d="M341.471,281.005l-19.469-29.65l15.987-20.006c0.625-0.803,0.714-1.607,0.714-2.232c0-2.947-3.751-5.983-6.698-5.983
			c-1.25,0-2.321,0.447-3.215,1.697l-19.29,26.257v-24.382c0-2.499-2.948-3.571-5.805-3.571c-2.948,0-5.806,1.071-5.806,3.571
			h-0.002v58.05c0,2.411,2.859,3.661,5.806,3.661c2.858,0,5.805-1.25,5.805-3.661v-17.505l4.823-6.073l16.79,25.454
			c0.983,1.607,2.501,2.232,4.019,2.232c3.394,0,6.966-2.948,6.966-5.805C342.096,282.344,341.917,281.63,341.471,281.005z"/>
	</g>
</g>
<g>
	<g>
		<path d="M443.973,131.635c-0.011-0.087-0.037-0.172-0.052-0.258c-0.04-0.235-0.078-0.471-0.14-0.703
			c-0.038-0.139-0.094-0.273-0.139-0.41c-0.058-0.174-0.107-0.351-0.178-0.521c-0.126-0.304-0.273-0.601-0.439-0.888l-41.951-72.367
			V12.586c0-6.94-5.646-12.586-12.585-12.586H123.51c-6.94,0-12.585,5.646-12.585,12.586v43.902l-41.951,72.367
			c-0.011,0.019-0.018,0.04-0.029,0.059c-0.152,0.267-0.291,0.543-0.41,0.83c-0.004,0.009-0.006,0.018-0.01,0.026
			c-0.109,0.265-0.199,0.54-0.278,0.819c-0.02,0.072-0.038,0.145-0.056,0.218c-0.055,0.223-0.1,0.449-0.135,0.679
			c-0.012,0.078-0.026,0.154-0.036,0.232c-0.034,0.284-0.056,0.572-0.057,0.865c0,0.009-0.001,0.018-0.001,0.027
			c0,0.002,0,0.004,0,0.007v360.794c0,10.25,8.339,18.588,18.588,18.588h338.898c10.25,0,18.588-8.339,18.588-18.588V438.35
			c0-4.144-3.359-7.502-7.502-7.502c-4.144,0-7.502,3.358-7.502,7.502v55.062c0,1.976-1.607,3.583-3.583,3.583h-67.338V140.121
			h70.921v263.322c-0.001,4.143,3.358,7.502,7.502,7.502c4.144,0,7.502-3.359,7.502-7.502V132.618c0-0.002,0-0.004,0-0.006
			C444.037,132.286,444.016,131.96,443.973,131.635z M125.931,15.005h260.138v35.998H125.931V15.005z M343.106,496.995H86.551
			c-1.976,0-3.583-1.607-3.583-3.583V309.253c23.188,1.259,35.754,8.36,48.983,15.837c15.637,8.838,31.806,17.977,63.867,17.977
			c32.063,0,48.233-9.139,63.871-17.977c14.59-8.246,28.371-16.034,56.487-16.034c10.811,0,19.497,1.155,26.93,3.041V496.995z
			 M346.286,125.116H159.872c-4.144,0-7.502,3.359-7.502,7.502s3.359,7.502,7.502,7.502h183.233v156.545
			c-7.633-1.63-16.425-2.616-26.93-2.616c-32.062,0-48.232,9.139-63.87,17.977c-14.59,8.246-28.371,16.035-56.488,16.035
			c-28.115,0-41.894-7.789-56.484-16.035c-14.366-8.119-29.191-16.487-56.366-17.794V140.121h41.997
			c4.144,0,7.502-3.359,7.502-7.502s-3.359-7.502-7.502-7.502H88.486l34.265-59.108h257.8L346.286,125.116z M363.629,125.117v-0.001
			l29.942-51.651l14.877,25.663l15.065,25.989H363.629z"/>
	</g>
</g>
<g>
</g>
<g>
</g>
<g>
</g>
<g>
</g>
<g>
</g>
<g>
</g>
<g>
</g>
<g>
</g>
<g>
</g>
<g>
</g>
<g>
</g>
<g>
</g>
<g>
</g>
<g>
</g>
<g>
</g>
</svg>
