<svg id="Layer_1" height="512" viewBox="0 0 512 512" width="512" xmlns="http://www.w3.org/2000/svg" data-name="Layer 1"><path d="m200.95 321.181a6.928 6.928 0 1 0 6.931 6.928 6.936 6.936 0 0 0 -6.931-6.928z"/><path d="m242.961 345.213a8.66 8.66 0 1 0 8.661-8.653 8.666 8.666 0 0 0 -8.661 8.653z"/><path d="m242.112 302.023a7.658 7.658 0 1 0 -7.662-7.658 7.669 7.669 0 0 0 7.662 7.658z"/><path d="m287.116 313.776a7.45 7.45 0 1 0 7.449-7.445 7.456 7.456 0 0 0 -7.449 7.445z"/><ellipse cx="285.003" cy="277.195" rx="9.591" ry="9.58"/><path d="m334.877 279.615a7.856 7.856 0 1 0 -7.862-7.855 7.867 7.867 0 0 0 7.862 7.855z"/><circle cx="394.924" cy="330.297" r="7.26" transform="matrix(.003 -1 1 .003 63.363 724.16)"/><path d="m397.617 289.626a7.426 7.426 0 1 0 -7.429-7.425 7.435 7.435 0 0 0 7.429 7.425z"/><path d="m432.207 305.692a7.835 7.835 0 1 0 -7.84-7.835 7.846 7.846 0 0 0 7.84 7.835z"/><path d="m128.516 239.969a6.881 6.881 0 1 0 -6.881 6.878 6.887 6.887 0 0 0 6.881-6.878z"/><path d="m164.953 174.754a7.4 7.4 0 1 0 -7.405-7.4 7.409 7.409 0 0 0 7.405 7.4z"/><path d="m183.636 235.381a7.168 7.168 0 1 0 -7.172-7.168 7.178 7.178 0 0 0 7.172 7.168z"/><path d="m241.152 173.354a6.7 6.7 0 1 0 -6.7-6.7 6.708 6.708 0 0 0 6.7 6.7z"/><path d="m282.605 218.959a7.189 7.189 0 1 0 -7.192-7.188 7.2 7.2 0 0 0 7.192 7.188z"/><path d="m133.655 288.83a7.193 7.193 0 1 0 7.2 7.193 7.2 7.2 0 0 0 -7.2-7.193z"/><path d="m499.183 167.443c-19.151-11.984-36.306-12.7-47.894-10.9a6 6 0 0 0 -4.036-6.952c-8.977-2.885-21.763 2.191-31.575 7.429a6 6 0 0 0 -5.96-4.993 42.356 42.356 0 0 0 -17.734 4.2c.051-.245.109-.486.158-.733a6.041 6.041 0 0 0 .111-1.154c0-15.4 11.948-20.781 12.41-20.983a6 6 0 0 0 -.929-11.383c-22.012-5.169-38.481-.312-48.865 5.128a6 6 0 0 0 -6.062-5.286c-9.429.164-19.888 9.09-27.476 17.21a6 6 0 0 0 -7.954-2.513c-6.7 3.341-12.943 9.827-17.133 14.882a107.851 107.851 0 0 1 6.956 10.505 52.318 52.318 0 0 1 6.8-7.882v.782a6.028 6.028 0 0 0 10.893 3.529c4.912-6.749 13.013-15.75 19.9-20.755l-.349 1.724a6.008 6.008 0 0 0 10.254 5.308c.618-.649 13.366-13.713 37.179-12.776a34.645 34.645 0 0 0 -7.616 21.89c-4.815 23.331-23.706 38.16-23.888 38.3a6 6 0 0 0 4.82 10.647l6.124-1.219a62.038 62.038 0 0 1 -16.543 13.081 6.09 6.09 0 0 0 2.766 11.471h9.042a23.124 23.124 0 0 1 -13.494 9.553 128.4 128.4 0 0 0 -32.349-1.545c6.318-17.542 23.8-58.506 57.276-86.09a6 6 0 0 0 -7.631-9.274c-23.642 19.48-39.641 44.64-49.739 64.938a92.756 92.756 0 0 0 -2.74-16.077c-18.243-67.548-100.43-104.426-183.212-82.2-45.311 12.159-83.293 39.97-104.209 76.295-15.9 27.608-20.456 58.336-12.843 86.522 7.11 26.324 24.281 48.748 49.658 64.846 22.887 14.52 51.566 22.877 81.212 23.765 3.272 11.26 10.232 26.779 24.944 38.795 14.4 11.759 33.089 17.673 55.752 17.673a152.693 152.693 0 0 0 21.452-1.6c23.49-3.336 44.8-9.44 63.352-17.964 6.628 5.439 23.152 16.088 50.958 16.086 16.063 0 35.892-3.558 59.736-13.732 33.8-14.423 43.694-40.5 46.042-59.843a99.454 99.454 0 0 0 -2.977-38.041c-2.879-14.653-15.65-26.153-34.334-32.708a46.419 46.419 0 0 0 12.874-12 6 6 0 0 0 -2.9-9.229l-.018-.006c6.757-3.07 13.767-7.651 17.988-14.339a6 6 0 0 0 -4.191-9.137 77.481 77.481 0 0 0 24.167-25.258 6.035 6.035 0 0 0 .479-1.055c5-14.58 18.056-15.824 18.56-15.866a6 6 0 0 0 2.792-11.074zm-429.456 155.396c-22.8-14.463-38.187-34.465-44.5-57.842-6.874-25.452-2.843-52.218 11.658-77.406 19.337-33.588 54.663-59.357 96.92-70.7 34.413-9.238 68.659-7.6 97.421 2.579a164.148 164.148 0 0 0 -68.373 11.339c-36.953 14.681-65.176 41.509-81.607 77.583-14.1 30.947-16.288 59.829-6.517 85.84 7.581 20.178 21 35.022 33.072 45.08a138.661 138.661 0 0 1 -38.074-16.473zm71.942 19.252c.029.4.1 1.279.267 2.536-1.692-.084-3.381-.187-5.065-.32-6.559-3.309-38.312-20.765-50.908-54.3-8.609-22.918-6.522-48.706 6.2-76.647 15.121-33.2 41.1-57.889 75.116-71.4a151.822 151.822 0 0 1 97.452-4.9c18.28 13.514 31.693 31.755 37.585 53.573 3.428 12.691 3.683 29.2.785 44.893-55.528 8.474-113.043 42.708-140.163 60.674-15.415 10.211-23.738 28.2-21.269 45.891zm11.912-1.435c-1.936-13.215 4.338-26.739 15.984-34.454 15.873-10.514 47.833-30.246 83.537-44.251q30.2-11.843 55.466-15.136a5.764 5.764 0 0 0 .767-.1c18-2.264 34.028-1.245 47.945 3.093 7.452 2.322 16.14 8.3 15.2 23.6-1.014 16.589-12.668 36.834-31.173 54.155-21.778 20.383-51.075 34.756-82.494 40.471-54.894 9.985-80.54 1.943-92.389-6.565a30.253 30.253 0 0 1 -12.843-20.813zm91.391 59.071c-29 4.121-51.809-.39-67.815-13.4a59.012 59.012 0 0 1 -10.057-10.506c11.828 5.9 27.275 8.864 46.222 8.864q20.983 0 47.64-4.842c33.658-6.123 65.105-21.577 88.546-43.518a133.5 133.5 0 0 0 23.2-28.3 92.726 92.726 0 0 1 -13.851 31.432c-21.389 31.471-61.837 52.876-113.885 60.27zm210.328-70.471c-.091 1.778-.24 3.6-.465 5.451-2.861 23.569-15.929 40.477-38.839 50.253-28.817 12.294-55.361 15.73-76.765 9.928a63.007 63.007 0 0 1 -17.119-7.367 150.775 150.775 0 0 0 25-17.271c2.4.093 4.805.154 7.193.154a158.249 158.249 0 0 0 27.215-2.206c32.017-5.712 60.049-20.553 73.78-38.942zm-3.226-28.5c1.156 6.437-.7 13.209-5.52 20.128-11.54 16.57-37.268 30.175-67.142 35.5a139.362 139.362 0 0 1 -20.111 1.943 117.269 117.269 0 0 0 9.487-12.128c15.424-22.689 21.213-49.035 16.554-74.766 35.246-1.304 63.406 10.794 66.731 29.32zm14.61-110.843c-12.124 20.532-34.816 28.481-35.034 28.555a6 6 0 0 0 1.129 11.634l6.168.817a62.208 62.208 0 0 1 -19.9 7.045 6 6 0 0 0 -1.03 11.611l8.762 2.984a34.348 34.348 0 0 1 -18.948 7.87 140.569 140.569 0 0 0 -24.963-.891 31.037 31.037 0 0 0 -5.485-10.389c9.466-12.287 41.265-50.149 85.287-66.749a6 6 0 0 0 -4.234-11.229c-46.845 17.662-79.79 56.592-90.3 70.278q-1.232-.685-2.551-1.287a37.881 37.881 0 0 0 12.191-18.517 5.85 5.85 0 0 0 -.892-5.272 5.931 5.931 0 0 0 -4.833-2.373h-.037c5.4-5 10.55-11.752 12.377-19.445a6.07 6.07 0 0 0 -1.519-5.587 6.009 6.009 0 0 0 -5.415-1.753 85.512 85.512 0 0 0 7.245-11.226 41.789 41.789 0 0 1 16.139-10.426l-.943 2.747a6 6 0 0 0 9.128 6.851c6.833-4.8 17.4-10.707 25.539-13.228l-.882 1.5a6.006 6.006 0 0 0 7.984 8.34c.8-.415 17.092-8.669 39.316-.118a34.72 34.72 0 0 0 -14.3 18.255z"/></svg>