<svg id="Capa_1" enable-background="new 0 0 512.037 512.037" height="512" viewBox="0 0 512.037 512.037" width="512" xmlns="http://www.w3.org/2000/svg"><g><g id="XMLID_1_"><path d="m491.11 226.19c6.52 0 11.75 5.41 11.53 11.92-4.02 118.1-5.8 170.23-8.95 262.79-.21 6.24-5.27 11.14-11.52 11.14h-127.59c-6.25 0-11.32-4.9-11.53-11.14-.51-15.23-8.4-246.7-8.95-262.79-.21-6.52 5.02-11.93 11.53-11.92zm-5.89 82.76 2.31-67.77h-138.31l2.31 67.77h24.41c4.14 0 7.5 3.36 7.5 7.5s-3.36 7.5-7.5 7.5h-23.9l4.81 141.43h123.04l4.82-141.43h-73.77c-4.15 0-7.5-3.36-7.5-7.5s3.35-7.5 7.5-7.5zm-6.41 188.09.57-16.66h-122.02l.57 16.66z"/><path d="m375.93 291.19c.15 4.24-3.24 7.76-7.5 7.76-4.02 0-7.35-3.19-7.49-7.25l-1.11-32.76c-.14-4.14 3.1-7.61 7.24-7.75 4.11-.13 7.61 3.1 7.75 7.24z"/><path d="m319.1 123.4v378.44c0 5.6-4.56 10.16-10.16 10.16h-289.39c-5.6 0-10.16-4.56-10.16-10.16v-378.44c0-2.14.66-4.19 1.91-5.93l47.21-65.79v-27.95c0-13.08 10.64-23.73 23.73-23.73h23.06c4.14 0 7.5 3.36 7.5 7.5s-3.36 7.5-7.5 7.5h-23.06c-4.82 0-8.73 3.92-8.73 8.73v22.86h181.47v-22.86c0-4.81-3.92-8.73-8.73-8.73h-105.95c-4.14 0-7.5-3.36-7.5-7.5s3.36-7.5 7.5-7.5h105.95c13.09 0 23.73 10.64 23.73 23.73v27.95l47.21 65.79c1.25 1.74 1.91 3.79 1.91 5.93zm-15 373.6v-372.04l-45.47-63.37h-11.74c12.95 15.5 12.93 37.98 0 53.45h10.88c4.14 0 7.5 3.36 7.5 7.5s-3.36 7.5-7.5 7.5h-135.15v366.96zm-62.51-408.68c0-14.74-11.99-26.73-26.72-26.73-14.74 0-26.73 11.99-26.73 26.73 0 14.73 11.99 26.72 26.73 26.72 14.73 0 26.72-11.99 26.72-26.72zm-59.72 25.5c-11.77-15.19-11.5-36.16 0-51-10.84 3.41-18.73 13.55-18.73 25.5s7.89 22.09 18.73 25.5zm-24.02-52.23h-77.23l38.35 53.45h38.88c-12.95-15.5-12.93-37.98 0-53.45zm-50.23 435.41v-372.04l-41.61-58-41.62 57.99v372.05z"/><path d="m279.1 175.35v27.89c0 5.55-4.52 10.07-10.08 10.07h-111.32c-5.56 0-10.08-4.52-10.08-10.07v-27.89c0-5.55 4.52-10.07 10.08-10.07h111.32c5.56 0 10.08 4.52 10.08 10.07zm-15 22.96v-18.03h-101.48v18.03z"/><path d="m271.6 419.09c4.14 0 7.5 3.36 7.5 7.5s-3.36 7.5-7.5 7.5h-116.48c-4.14 0-7.5-3.36-7.5-7.5s3.36-7.5 7.5-7.5z"/><path d="m213.36 238.13c43.24 0 78.42 35.18 78.42 78.42s-35.18 78.42-78.42 78.42c-10.5 0-20.69-2.04-30.3-6.07-3.82-1.6-5.62-6-4.01-9.82 1.6-3.82 5.99-5.62 9.81-4.01 7.76 3.25 16.01 4.9 24.5 4.9 34.97 0 63.42-28.45 63.42-63.42s-28.45-63.42-63.42-63.42-63.42 28.45-63.42 63.42c0 14.67 4.86 28.44 14.07 39.83 2.6 3.22 2.1 7.94-1.12 10.55-3.22 2.6-7.94 2.1-10.55-1.12-11.22-13.88-17.4-31.38-17.4-49.26 0-43.24 35.18-78.42 78.42-78.42z"/><path d="m249.29 278.3c10.37 10.37 13.65 25.91 8.34 39.59-7.71 19.87-23.53 35.69-43.4 43.4-13.8 5.35-29.31 1.94-39.59-8.34-14.03-14.03-9.02-37.88 9.49-45.06 9.2-3.57 16.53-10.9 20.1-20.1 7.18-18.5 31.02-23.53 45.06-9.49zm-5.64 34.16c3.16-8.14 1.21-17.38-4.96-23.56-6.44-6.43-17.23-4.04-20.47 4.31-5.1 13.12-15.54 23.57-28.66 28.66-8.45 3.28-10.69 14.1-4.32 20.47 6.18 6.18 15.42 8.12 23.57 4.97 15.95-6.19 28.65-18.89 34.84-34.85z"/><path d="m246.54 446.09c4.14 0 7.5 3.36 7.5 7.5s-3.36 7.5-7.5 7.5h-66.36c-4.14 0-7.5-3.36-7.5-7.5s3.36-7.5 7.5-7.5z"/><path d="m231.2 303.73c3.52 2.18 4.61 6.8 2.43 10.32-5.96 9.63-14.22 17.83-23.9 23.71-3.54 2.15-8.15 1.03-10.31-2.52-2.15-3.54-1.02-8.15 2.52-10.3 7.67-4.66 14.22-11.15 18.94-18.78 2.17-3.52 6.8-4.61 10.32-2.43z"/><path d="m96.2 177.08v45.39c0 4.15-3.35 7.5-7.5 7.5h-45.39c-4.14 0-7.5-3.35-7.5-7.5v-45.39c0-4.14 3.36-7.5 7.5-7.5h45.39c4.14 0 7.5 3.36 7.5 7.5zm-15 37.89v-30.39h-30.39v30.39z"/><path d="m88.57 249.38c4.14 0 7.5 3.36 7.5 7.5 0 4.15-3.36 7.5-7.5 7.5h-45.13c-4.14 0-7.5-3.35-7.5-7.5 0-4.14 3.36-7.5 7.5-7.5z"/><path d="m88.57 283.23c4.14 0 7.5 3.35 7.5 7.5 0 4.14-3.36 7.5-7.5 7.5h-45.13c-4.14 0-7.5-3.36-7.5-7.5 0-4.15 3.36-7.5 7.5-7.5z"/><path d="m88.57 317.07c4.14 0 7.5 3.36 7.5 7.5s-3.36 7.5-7.5 7.5h-45.13c-4.14 0-7.5-3.36-7.5-7.5s3.36-7.5 7.5-7.5z"/><path d="m88.57 350.91c4.14 0 7.5 3.36 7.5 7.5s-3.36 7.5-7.5 7.5h-45.13c-4.14 0-7.5-3.36-7.5-7.5s3.36-7.5 7.5-7.5z"/></g></g></svg>