<?xml version="1.0" encoding="iso-8859-1"?>
<!-- Generator: Adobe Illustrator 19.0.0, SVG Export Plug-In . SVG Version: 6.00 Build 0)  -->
<svg xmlns="http://www.w3.org/2000/svg" xmlns:xlink="http://www.w3.org/1999/xlink" version="1.1" id="Layer_1" x="0px" y="0px" viewBox="0 0 512 512" style="enable-background:new 0 0 512 512;" xml:space="preserve" width="512" height="512">
<g>
	<g>
		<g>
			<g>
				<g>
					<path d="M248,234.68c-2.63,0-5.21-1.07-7.07-2.93c-0.46-0.471-0.88-0.98-1.25-1.53c-0.36-0.54-0.66-1.12-0.91-1.72       c-0.26-0.61-0.45-1.23-0.58-1.87c-0.13-0.65-0.19-1.3-0.19-1.96c0-0.65,0.06-1.311,0.19-1.95c0.13-0.64,0.32-1.27,0.57-1.87       c0.25-0.6,0.56-1.189,0.92-1.729c0.37-0.54,0.79-1.061,1.25-1.521c1.86-1.859,4.44-2.93,7.07-2.93c2.63,0,5.21,1.07,7.07,2.93       c0.46,0.46,0.88,0.98,1.24,1.521c0.36,0.54,0.67,1.13,0.92,1.729c0.25,0.601,0.44,1.23,0.57,1.87c0.13,0.65,0.2,1.3,0.2,1.95       c0,0.66-0.07,1.31-0.2,1.96c-0.13,0.64-0.32,1.26-0.57,1.87c-0.25,0.6-0.56,1.18-0.92,1.72c-0.36,0.55-0.78,1.06-1.24,1.53       C253.21,233.609,250.63,234.68,248,234.68z"/>
				</g>
			</g>
		</g>
	</g>
	<g>
		<g>
			<g>
				<g>
					<g>
						<g>
							<path d="M374.273,112.095H239.667c-54.644,0-99.101-44.456-99.101-99.101c0-5.522-4.477-10-10-10c-5.523,0-10,4.478-10,10         c0,41.281,21.111,77.725,53.105,99.101H10c-5.523,0-10,4.478-10,10v42.543c0,5.523,4.477,10,10,10h13.256l6.113,51.064         l18.627,214.065l4.177,59.934c0.365,5.24,4.723,9.305,9.976,9.305h259.976c5.253,0,9.61-4.064,9.976-9.305l4.177-59.934         l18.627-214.065l6.113-51.064h13.256c5.523,0,10-4.477,10-10v-42.543C384.273,116.572,379.796,112.095,374.273,112.095z          M312.797,489.006H71.476l-2.79-40.036h246.903L312.797,489.006z M336.082,214.674H295c-5.523,0-10,4.478-10,10         c0,5.523,4.477,10,10,10h39.048L317.142,428.97H67.131L50.225,234.674h154.108c5.523,0,10-4.477,10-10         c0-5.522-4.477-10-10-10H48.191l-4.792-40.036h297.475L336.082,214.674z M364.273,154.638H20v-22.543h344.273V154.638z"/>
							<path d="M203.18,299.903c-1.77,1.772-3.476,3.791-5.064,5.997c-2.163,3-4.17,6.44-5.979,10.204         c-1.809-3.763-3.814-7.202-5.977-10.2c-1.594-2.213-3.298-4.231-5.068-6.002c-10.522-10.522-22.741-15.312-35.42-14.122         c-3.25-15.033-18.638-25.292-20.575-26.531c-3.285-2.102-7.491-2.102-10.776,0c-2.107,1.347-20.13,13.368-21.133,30.596         c-17.228,1.003-29.248,19.025-30.596,21.131c-2.102,3.285-2.102,7.492,0,10.777c1.239,1.936,11.498,17.325,26.531,20.575         c-1.19,12.679,3.6,24.898,14.122,35.42c1.721,1.72,3.685,3.386,5.838,4.95c10.731,7.797,27.141,13.579,43.896,15.468         c3.106,0.35,6.944,0.643,11.074,0.643c9.648,0,20.885-1.605,28.083-7.847c7.199,6.243,18.435,7.848,28.084,7.847         c4.129,0,7.969-0.294,11.074-0.643c16.755-1.889,33.165-7.671,43.895-15.467c2.154-1.565,4.119-3.232,5.839-4.951         c10.523-10.523,15.313-22.741,14.123-35.42c15.033-3.249,25.292-18.638,26.531-20.575c2.101-3.285,2.101-7.492,0-10.777         c-1.348-2.107-13.368-20.129-30.596-21.131c-1.003-17.228-19.025-29.249-21.132-30.596c-3.286-2.103-7.493-2.103-10.777,0         c-1.937,1.238-17.326,11.498-20.575,26.53C225.922,284.59,213.703,289.381,203.18,299.903z M119.706,280.455         c3.385,3.268,6.568,7.452,6.568,10.885c0,3.347-3.082,7.524-6.559,10.881c-0.376-0.387-0.766-0.777-1.168-1.167         c-2.916-3.057-5.404-6.679-5.404-9.714C113.143,287.991,116.227,283.813,119.706,280.455z M83.797,316.369         c3.269-3.385,7.453-6.567,10.885-6.567c2.951,0,6.547,2.396,9.657,5.345c0.409,0.422,0.817,0.83,1.221,1.224         c-3.268,3.382-7.449,6.561-10.879,6.561C91.333,322.932,87.155,319.848,83.797,316.369z M155.219,378.294         c-13.27-1.496-26.443-6.007-34.38-11.774c-1.309-0.95-2.47-1.931-3.452-2.912c-8.085-8.085-10.321-16.251-6.932-25.528         c8.059-4.992,13.662-12.434,15.649-15.32c2.888-1.987,10.326-7.59,15.318-15.646c9.278-3.39,17.444-1.154,25.528,6.931         c1.011,1.011,2.015,2.205,2.986,3.554c5.739,7.959,10.222,21.128,11.698,34.368c0.323,2.896,0.477,5.524,0.504,7.89         c-0.005,0.532-0.006,1.07-0.001,1.613c-0.11,8.447-1.875,13.165-3.018,14.309C177.59,377.306,169.74,379.931,155.219,378.294         z M300.476,316.364c-3.269,3.385-7.453,6.567-10.885,6.567c-3.347,0-7.524-3.082-10.882-6.559         c0.387-0.376,0.777-0.766,1.169-1.169c3.057-2.915,6.679-5.402,9.713-5.402C292.94,309.802,297.118,312.886,300.476,316.364z          M264.563,280.454c3.484,3.362,6.566,7.539,6.566,10.886c0,2.954-2.4,6.552-5.353,9.665c-0.42,0.406-0.825,0.812-1.216,1.214         c-3.383-3.268-6.562-7.448-6.562-10.879C257.999,287.991,261.085,283.813,264.563,280.454z M242.852,307.113         c4.991,8.056,12.43,13.659,15.318,15.646c1.986,2.886,7.59,10.327,15.649,15.32c3.389,9.278,1.152,17.444-6.933,25.529         c-0.981,0.982-2.142,1.962-3.453,2.913c-7.936,5.767-21.109,10.277-34.379,11.773c-14.519,1.638-22.371-0.989-23.899-2.517         c-1.143-1.143-2.908-5.863-3.018-14.312c0.005-0.541,0.004-1.078-0.001-1.609c0.027-2.366,0.181-4.995,0.504-7.891         c1.477-13.24,5.959-26.409,11.702-34.374c0.966-1.342,1.969-2.535,2.98-3.547         C225.407,305.96,233.575,303.724,242.852,307.113z"/>
						</g>
					</g>
				</g>
			</g>
		</g>
	</g>
	<g>
		<g>
			<g>
				<path d="M443.579,509.006c-13.871-0.002-27.08-5.882-38.2-17.003c-18.924-18.925-30.221-51.927-30.221-88.281      c0-14.631,5.36-28.81,15.501-41.003c7.606-9.146,17.514-16.549,28.442-21.351l-15.144-192.485      c-0.09-1.129-0.132-2.181-0.128-3.215c0-21.888,17.832-39.72,39.751-39.72c10.616,0,20.598,4.135,28.107,11.644      c7.506,7.505,11.641,17.486,11.645,28.105c-0.003,1.108-0.047,2.154-0.136,3.227l-15.125,192.26      c8.365,3.237,17.608,7.892,23.896,14.181C504.886,368.282,512,385.456,512,403.722c0,27.319-6.301,52.91-17.743,72.058      C481.447,497.206,463.449,509.006,443.579,509.006z M443.581,125.948c-10.891,0-19.751,8.86-19.751,19.751      c-0.001,0.513,0.02,1.027,0.066,1.605c0.001,0.003,0.001,0.007,0.001,0.007l15.732,199.963      c0.365,4.638-2.517,8.915-6.952,10.318c-18.644,5.899-37.518,23.639-37.518,46.129c0,31.167,9.108,58.883,24.363,74.139      c7.289,7.29,15.609,11.143,24.06,11.145c12.553,0,24.454-8.342,33.509-23.488c9.615-16.089,14.91-38.036,14.91-61.796      c0-12.924-5.034-25.075-14.175-34.216c-4.114-4.114-12.846-8.567-23.358-11.913c-4.427-1.409-7.301-5.682-6.937-10.314      l15.731-199.965c0.048-0.577,0.07-1.1,0.071-1.641c-0.001-5.25-2.057-10.21-5.786-13.939      C453.815,128.003,448.855,125.948,443.581,125.948z"/>
			</g>
		</g>
	</g>
</g>















</svg>
