<svg id="Capa_1" enable-background="new 0 0 511.994 511.994" height="512" viewBox="0 0 511.994 511.994" width="512" xmlns="http://www.w3.org/2000/svg"><g><ellipse cx="110.775" cy="62.147" fill="#f1f1f4" rx="103.275" ry="47.7"/><path d="m110.774 84.846c-21.656 0-42.31-3.476-58.155-9.785-6.832-2.721-11.539-5.492-14.681-7.828-3.4-2.528-3.4-7.646 0-10.174 3.142-2.336 7.849-5.107 14.682-7.828 15.846-6.31 36.498-9.785 58.154-9.785s42.309 3.476 58.155 9.785c6.833 2.721 11.54 5.492 14.682 7.828 3.4 2.528 3.4 7.646 0 10.174-3.142 2.336-7.848 5.107-14.681 7.828-15.846 6.31-36.499 9.785-58.156 9.785z" fill="#a298a5"/><path d="m7.5 449.848c0 26.344 46.238 47.7 103.275 47.7s103.275-21.356 103.275-47.7v-387.701c0 26.344-46.238 47.7-103.275 47.7s-103.275-21.356-103.275-47.7z" fill="#c6c1c8"/><path d="m489.181 416.642 15.109-30.506c.281-.567.281-1.233 0-1.8l-15.109-30.508c-.281-.567-.281-1.233 0-1.8l15.109-30.509c.281-.567.281-1.233 0-1.8l-15.108-30.503c-.281-.567-.281-1.233 0-1.8l15.108-30.504c.281-.567.281-1.233 0-1.8l-15.109-30.508c-.281-.567-.281-1.233 0-1.8l15.109-30.509c.281-.567.281-1.233 0-1.8l-15.109-30.51c-.281-.567-.281-1.233 0-1.8l15.109-30.509c.281-.567.281-1.233 0-1.8l-15.109-30.516c-.281-.567-.281-1.233 0-1.8l14.705-29.699c.364-.734-.14-1.6-.958-1.641-5.753-.288-23.968-1.199-25.329-1.267-.059-.003-.11-.001-.169.005l-47.694 5.071c-.078.008-.157.008-.236.001l-47.538-4.84c-.158-.016-.318.001-.469.05l-23.242 7.599c-.305.1-.637.066-.916-.092l-23.092-13.121c-.27-.153-.591-.19-.889-.101l-23.325 6.982c-.107.032-.219.048-.331.048l-95.65-.408v387.701l47.741 2.952c.105.007.211-.002.313-.024l23.627-5.168c.111-.024.226-.032.339-.022l47.724 4.045 47.664 3.149c.157.01.314-.012.462-.065l23.465-8.486c.173-.063.358-.082.54-.057l23.675 3.221 47.661 6.017c.164.021.331.005.489-.045l24.396-7.794c.663-.212.983-.965.673-1.589l-13.638-27.537c-.279-.57-.279-1.236.002-1.803z" fill="#f1f1f4"/><path d="m53.212 489.457c9.103 2.828 19.234 5.004 30.079 6.383v-387.701c-10.845-1.38-20.976-3.555-30.079-6.383z" fill="#dfdde2"/><path d="m33.463 73.251c4.331 3.22 9.842 6.173 16.382 8.778 34.587 13.773 87.351 13.74 121.861 0 6.541-2.605 12.052-5.559 16.38-8.777 3.544-2.635 5.576-6.683 5.576-11.105s-2.032-8.471-5.575-11.105c-4.332-3.221-9.844-6.174-16.383-8.777-34.517-13.744-87.28-13.77-121.858 0-6.539 2.604-12.051 5.557-16.381 8.776-3.544 2.634-5.576 6.682-5.576 11.105 0 4.424 2.032 8.472 5.574 11.105zm21.932-17.052c30.985-12.337 79.749-12.347 110.761 0 5.505 2.192 9.255 4.325 11.663 5.947-2.407 1.621-6.156 3.754-11.662 5.947-30.985 12.337-79.753 12.348-110.762 0-5.504-2.192-9.254-4.325-11.662-5.948 2.408-1.621 6.158-3.754 11.662-5.946z"/><path d="m511.01 251.783-13.905-28.08 13.904-28.078c1.314-2.651 1.313-5.816.001-8.459l-13.905-28.082 13.904-28.079c1.313-2.649 1.313-5.812.002-8.459l-13.906-28.085 13.5-27.267c1.299-2.619 1.192-5.688-.285-8.209-1.477-2.519-4.1-4.11-7.017-4.256l-25.329-1.268c-.478-.024-.937-.009-1.337.038l-47.032 5.001-46.905-4.774c-1.211-.118-2.411.014-3.537.386l-20.568 6.725-20.652-11.735c-2.034-1.153-4.487-1.435-6.737-.761l-22.42 6.711-88.169-.376c-3.252-12.861-14.923-24.407-33.67-33.066-20.472-9.455-47.523-14.662-76.172-14.662-22.884 0-44.772 3.308-63.3 9.566-3.924 1.325-6.031 5.581-4.705 9.506 1.325 3.924 5.581 6.028 9.506 4.705 16.999-5.742 37.228-8.777 58.499-8.777 54.178 0 95.775 20.22 95.775 40.194 0 20.308-42.417 40.207-95.775 40.207-52.988-.001-95.775-20.028-95.775-40.202 0-5.408 2.939-10.814 8.736-16.069 3.069-2.781 3.302-7.524.52-10.594s-7.525-3.301-10.594-.52c-8.937 8.102-13.662 17.501-13.662 27.183v387.701c0 15.835 12.289 30.231 34.604 40.538 20.471 9.455 47.522 14.662 76.171 14.662s55.7-5.207 76.172-14.662c18.533-8.56 30.15-19.942 33.555-32.625l40.872 2.527c.784.042 1.57-.02 2.332-.186l22.689-4.963 46.765 3.964c.047.004.093.007.14.01l47.69 3.151c1.181.075 2.342-.09 3.48-.498l21.994-7.954 22.196 3.02 47.67 6.019c1.234.153 2.522.037 3.701-.344l24.394-7.794c2.4-.766 4.341-2.535 5.325-4.854s.908-4.945-.211-7.208l-12.436-25.108 13.904-28.075c1.313-2.649 1.313-5.812.001-8.459l-13.905-28.08 13.904-28.077c1.313-2.649 1.313-5.813.001-8.461l-13.905-28.074 13.904-28.073c1.315-2.651 1.315-5.814.003-8.461zm-496.01 198.065v-359.336c8.706 7.431 19.918 12.858 30.712 16.665v239.48c0 4.143 3.357 7.5 7.5 7.5s7.5-3.357 7.5-7.5v-235.039c4.859 1.189 9.898 2.201 15.079 3.028v372.496c-5.31-.923-10.347-2.044-15.079-3.331v-102.154c0-4.143-3.357-7.5-7.5-7.5s-7.5 3.357-7.5 7.5v97.135c-19.32-7.85-30.712-18.712-30.712-28.944zm75.791 39.284v-372.646c7.86.685 15.908.964 23.965.827v372.699c-8.068.144-16.118-.146-23.965-.88zm391.669-325.82 13.905 28.082-13.904 28.078c-1.314 2.651-1.313 5.816-.001 8.459l13.905 28.08-13.909 28.083c-1.306 2.644-1.306 5.8.004 8.451l13.905 28.074-13.902 28.073c-1.315 2.65-1.316 5.815-.003 8.464l13.905 28.079-13.904 28.075c-1.313 2.649-1.313 5.813-.001 8.461l10.354 20.904-16.009 5.115-46.193-5.832-23.691-3.223c-1.377-.186-2.786-.032-4.086.438l-22.212 8.033-46.264-3.058-47.644-4.038c-.867-.072-1.737-.019-2.586.168l-22.763 4.979-39.816-2.461v-278.892c0-4.143-3.357-7.5-7.5-7.5s-7.5 3.357-7.5 7.5c0 93.361-.001 285.874 0 285.975-.039 16.792-30.738 35.267-76.794 39.344v-372.652c21.472-1.775 41.311-6.552 57.19-13.887 7.788-3.597 14.354-7.692 19.604-12.173v38.393c0 4.143 3.357 7.5 7.5 7.5s7.5-3.357 7.5-7.5v-59.225l88.084.376c.902-.003 1.722-.115 2.547-.363l20.722-6.202 20.737 11.783c2.107 1.194 4.638 1.447 6.943.695l21.961-7.181 46.219 4.706c.567.057 1.142.056 1.767-.006l47.2-5.02 15.132.758-10.398 20.999c-1.315 2.65-1.316 5.815-.004 8.464l13.906 28.085-13.904 28.079c-1.315 2.65-1.315 5.813-.002 8.46z"/><path d="m246.85 209.223 24.008-33.342c2.598-3.607 2.819-8.413.567-12.238l-13.277-22.584 23.399-33.603c2.366-3.399 1.529-8.074-1.869-10.441-3.401-2.366-8.074-1.53-10.441 1.869l-24.784 35.594c-2.496 3.584-2.678 8.332-.465 12.093l13.256 22.547-22.565 31.34c-2.421 3.362-1.658 8.049 1.703 10.469 3.354 2.415 8.043 1.664 10.468-1.704z"/><path d="m294.18 333.486 13.33-24.715c1.966-3.646.604-8.195-3.041-10.162-3.647-1.966-8.196-.604-10.162 3.041l-14.554 26.986c-2.211 4.095-1.694 9.032 1.313 12.578l13.397 15.806-42.239 52.722c-2.59 3.232-2.068 7.953 1.164 10.543 3.233 2.589 7.953 2.068 10.543-1.164l44.188-55.154c3.35-4.179 3.268-10.178-.195-14.265z"/><path d="m420.969 416.429-36.69-16.249 17.832-29.559c2.347-3.892 2.124-8.771-.565-12.431l-28.163-38.346c-2.451-3.338-7.146-4.058-10.484-1.605-3.339 2.452-4.058 7.146-1.605 10.484l26.67 36.312-18.744 31.069c-1.663 2.756-2.062 6.097-1.095 9.167s3.211 5.58 6.155 6.884l40.616 17.987c3.778 1.674 8.215-.025 9.895-3.82 1.676-3.786-.035-8.216-3.822-9.893z"/><path d="m459.836 122.364-32.879 30.459c-2.217 2.053-3.492 4.847-3.589 7.867-.098 3.021.995 5.891 3.074 8.082l15.046 15.854v20.213c0 4.143 3.357 7.5 7.5 7.5s7.5-3.357 7.5-7.5v-21.723c0-2.886-1.094-5.628-3.08-7.721l-13.448-14.172 30.069-27.856c3.039-2.815 3.22-7.561.405-10.599-2.814-3.038-7.56-3.219-10.598-.404z"/><path d="m319.765 101.438 23.894 7.32 19.728 39.319c1.913 3.816 5.801 6.189 10.03 6.189 2.347 0 4.654-.738 6.594-2.148l37.116-27.01c3.349-2.438 4.089-7.128 1.651-10.478s-7.128-4.087-10.478-1.651l-33.508 24.384-18.452-36.779c-1.368-2.728-3.826-4.804-6.739-5.694l-25.441-7.794c-3.962-1.217-8.154 1.013-9.368 4.974s1.013 8.155 4.973 9.368z"/><path d="m408.696 278.513 21.162-19.95c3.94-3.714 4.665-9.708 1.724-14.254l-26.701-41.266c-2.251-3.479-6.896-4.472-10.371-2.223-3.478 2.25-4.473 6.894-2.223 10.371l24.988 38.619-21.375 20.15c-4.235 3.992-4.73 10.465-1.152 15.058l42.013 53.896c2.547 3.267 7.259 3.849 10.526 1.304 3.267-2.547 3.851-7.259 1.304-10.526z"/><path d="m316.517 162.274c-2.253-3.476-6.897-4.466-10.373-2.213s-4.467 6.897-2.213 10.373l30.528 47.09-16.032 17.646-38.903 2.841c-2.461.182-4.813 1.048-6.803 2.503l-32.996 24.143c-3.343 2.446-4.07 7.139-1.624 10.481 2.441 3.336 7.13 4.076 10.481 1.624l32.569-23.83 39.102-2.854c3.383-.247 6.501-1.765 8.779-4.274l17.484-19.245c4.011-4.414 4.546-10.992 1.302-16.001z"/></g></svg>