<svg id="Capa_1" enable-background="new 0 0 512.002 512.002" height="512" viewBox="0 0 512.002 512.002" width="512" xmlns="http://www.w3.org/2000/svg"><path d="m477.001 271h-7v-10c0-53.72-37.682-98.799-88-110.208v-28.292c0-26.191-21.309-47.5-47.5-47.5h-11c-6.893 0-12.5-5.607-12.5-12.5v-15.5-2.056c11.709-.775 21-10.543 21-22.444 0-12.406-10.094-22.5-22.5-22.5h-13.5c-4.143 0-7.5 3.357-7.5 7.5s3.357 7.5 7.5 7.5h13.5c4.136 0 7.5 3.364 7.5 7.5s-3.364 7.5-7.5 7.5h-237c-4.136 0-7.5-3.364-7.5-7.5s3.364-7.5 7.5-7.5h188.5c4.143 0 7.5-3.357 7.5-7.5s-3.357-7.5-7.5-7.5h-188.5c-12.406 0-22.5 10.094-22.5 22.5 0 11.902 9.291 21.669 21 22.444v2.056 15.5c0 6.893-5.607 12.5-12.5 12.5h-11c-26.191 0-47.5 21.309-47.5 47.5v51c0 4.143 3.357 7.5 7.5 7.5h269.772c-10.545 10.51-19.026 23.087-24.788 37.061-8.076-4.023-16.966-6.061-26.483-6.061-10.912 0-21.691 2.805-31.174 8.109-2.396 1.341-5.257 1.34-7.651.001-9.482-5.306-20.263-8.11-31.175-8.11-34.206 0-60 27.514-60 64s25.794 64 60 64c10.912 0 21.692-2.805 31.174-8.109 2.398-1.339 5.259-1.338 7.651-.001 9.483 5.306 20.263 8.11 31.175 8.11.628 0 1.234-.085 1.817-.231 2.929.797 6.005 1.231 9.183 1.231h7.637c.691 6.512 1.933 12.863 3.686 19h-118.324c-4.143 0-7.5 3.357-7.5 7.5s3.357 7.5 7.5 7.5h122c.588 0 1.158-.074 1.707-.203 4.952 11.126 11.646 21.312 19.74 30.203h-258.447v-196.5c0-4.143-3.357-7.5-7.5-7.5s-7.5 3.357-7.5 7.5v256c0 26.191 21.309 47.5 47.5 47.5 0 0 246.993.002 247.002.002.014 0 39.998-.002 39.998-.002 26.191 0 47.5-21.309 47.5-47.5v-25.292c46.522-10.548 82.237-49.878 87.363-98.208h7.637c19.299 0 35-15.701 35-35s-15.701-35-35-35zm-196-209c-8.271 0-15-6.729-15-15v-2h30v2c0 8.271-6.729 15-15 15zm-195-17h30v2c0 8.271-6.729 15-15 15s-15-6.729-15-15zm45 0h30v2c0 8.271-6.729 15-15 15s-15-6.729-15-15zm45 0h30v2c0 8.271-6.729 15-15 15s-15-6.729-15-15zm45 0h30v2c0 8.271-6.729 15-15 15s-15-6.729-15-15zm-206 121v-43.5c0-17.921 14.579-32.5 32.5-32.5h11c11.852 0 21.977-7.537 25.834-18.069 4.77 3.199 10.503 5.069 16.666 5.069 8.954 0 16.999-3.948 22.5-10.188 5.501 6.24 13.546 10.188 22.5 10.188s16.999-3.948 22.5-10.188c5.501 6.24 13.546 10.188 22.5 10.188s16.999-3.948 22.5-10.188c5.501 6.24 13.546 10.188 22.5 10.188s16.999-3.948 22.5-10.188c5.501 6.24 13.546 10.188 22.5 10.188 6.163 0 11.896-1.87 16.667-5.069 3.856 10.532 13.981 18.069 25.833 18.069h11c17.921 0 32.5 14.579 32.5 32.5v25.948c-3.296-.29-6.63-.448-10-.448-22.505 0-43.492 6.615-61.125 18zm164.851 152.8c-7.25 4.056-15.497 6.2-23.851 6.2-26.075 0-45-20.607-45-49s18.925-49 45-49c8.354 0 16.601 2.145 23.852 6.201 6.98 3.904 15.315 3.905 22.298-.001 7.25-4.056 15.497-6.2 23.851-6.2 7.907 0 15.18 1.858 21.646 5.489-2.377 9.111-3.646 18.665-3.646 28.511v10h-7c-19.299 0-35 15.701-35 35 0 5.092 1.102 9.928 3.066 14.297-.988-.468-1.962-.964-2.917-1.499-6.982-3.903-15.317-3.904-22.299.002zm37.149-12.8c0-11.028 8.972-20 20-20h7v12.5h-5c-4.143 0-7.5 3.357-7.5 7.5s3.357 7.5 7.5 7.5h5v12.5h-7c-11.028 0-20-8.972-20-20zm-118.423 191 .856-2.142c1.91-4.773 6.467-7.858 11.607-7.858h159.919c5.141 0 9.697 3.085 11.606 7.857l.857 2.143zm268.423-32.5c0 17.921-14.579 32.5-32.5 32.5h-34.922l-3.086-7.714c-4.201-10.501-14.223-17.286-25.533-17.286h-159.918c-11.31 0-21.332 6.785-25.534 17.287l-3.085 7.713h-34.922c-17.921 0-32.5-14.579-32.5-32.5v-44.5h275.089c18.745 13.82 41.889 22 66.911 22 3.37 0 6.704-.157 10-.448zm-10-37.5c-54.037 0-98-43.963-98-98v-68c0-54.037 43.963-98 98-98s98 43.963 98 98v68c0 54.037-43.963 98-98 98zm120-101h-7v-12.5h5c4.143 0 7.5-3.357 7.5-7.5s-3.357-7.5-7.5-7.5h-5v-12.5h7c11.028 0 20 8.972 20 20s-8.972 20-20 20z"/><path d="m357.001 321c-18.748 0-34 15.252-34 34s15.252 34 34 34 34-15.252 34-34-15.252-34-34-34zm0 53c-10.477 0-19-8.523-19-19s8.523-19 19-19 19 8.523 19 19-8.523 19-19 19z"/><path d="m409.501 302.5c-4.143 0-7.5 3.357-7.5 7.5v12c0 4.143 3.357 7.5 7.5 7.5s7.5-3.357 7.5-7.5v-12c0-4.143-3.357-7.5-7.5-7.5z"/><path d="m304.501 302.5c-4.143 0-7.5 3.357-7.5 7.5v12c0 4.143 3.357 7.5 7.5 7.5s7.5-3.357 7.5-7.5v-12c0-4.143-3.357-7.5-7.5-7.5z"/><circle cx="357.001" cy="355" r="8.5"/></svg>