<svg id="Capa_1" enable-background="new 0 0 512.007 512.007" height="512" viewBox="0 0 512.007 512.007" width="512" xmlns="http://www.w3.org/2000/svg"><g><path d="m85.424 402.467c4.142 0 7.5-3.357 7.5-7.5v-90.35c0-26.262 12.396-51.536 33.162-67.609l72.727-56.306c22.317-17.325 24.316-51.107 4.485-70.938l-25.345-25.345 33.323-33.323 43.286 43.286c6.107 6.106 9.475 14.23 9.483 22.871l.08 122.44c.003 4.141 3.36 7.495 7.5 7.495h.005c4.142-.003 7.498-3.362 7.495-7.505l-.08-122.442c-.012-12.645-4.94-24.529-13.876-33.467l-44.178-44.178c4.174-8.597 2.697-19.269-4.432-26.397-8.991-8.99-23.621-8.99-32.612 0l-5.658 5.658-16.663-16.661c-2.929-2.928-7.678-2.928-10.606 0l-21.965 21.964c-2.929 3.536-2.929 7.072 0 10.607l16.661 16.661-5.658 5.658c-8.991 8.991-8.991 23.621 0 32.613 8.326 7.138 17.126 8.618 26.401 4.44l26.231 26.231c13.555 13.552 12.185 36.638-3.068 48.476l-72.719 56.3c-24.408 18.894-38.979 48.603-38.979 79.471v90.35c0 4.143 3.358 7.5 7.5 7.5zm59.541-373.004 11.358-11.357 11.358 11.357c-3.786 3.786-7.572 7.572-11.358 11.358zm5.701 49.63c-3.143-3.144-3.143-8.258 0-11.4l43.887-43.887c3.8-3.143 7.599-3.143 11.399-.001 3.001 5.028 2.994 8.808-.021 11.339l-43.93 43.93c-2.873 2.875-8.395 2.961-11.335.019z"/><path d="m271.644 264.868h-.005c-4.142.003-7.498 3.362-7.495 7.505l.13 201.114c-1.333 14.327-9.163 22.164-23.49 23.511l-124.36.01c-12.958 0-23.5-10.542-23.5-23.5v-45.859c0-4.143-3.358-7.5-7.5-7.5s-7.5 3.357-7.5 7.5v45.859c0 21.229 17.271 38.5 38.5 38.5l124.36-.01c21.01 0 38.515-17.511 38.49-38.524l-.13-201.11c-.002-4.142-3.36-7.496-7.5-7.496z"/><path d="m235.084 201.815c-17.168-8.103-44.371 4.778-58.314 16.566l-39.503 30.582c-17.559 13.593-28.042 34.966-28.042 57.172v136.363c0 21.524 17.891 36.789 38.212 38.209l62.309-.006c20.857-.002 38.223-17.384 38.205-38.241l-.184-217.47c.213-14.854-7.852-20.895-12.683-23.175zm-25.339 263.887-62.309.006c-14.147-1.326-21.884-9.063-23.211-23.209v-136.363c0-17.6 8.308-34.538 22.224-45.311l39.635-30.684c.09-.07.18-.143.267-.217 13.42-11.412 33.989-18.479 42.331-14.545 1.15.543 4.205 1.985 4.087 9.438 0 .041-.001.083-.001.124l.184 217.532c0 12.191-10.121 23.229-23.207 23.229z"/><path d="m178.612 310.622c-21.264 0-38.562 17.299-38.562 38.562s17.299 38.562 38.562 38.562 38.562-17.299 38.562-38.562-17.299-38.562-38.562-38.562zm0 62.125c-12.992 0-23.562-10.57-23.562-23.562s10.57-23.562 23.562-23.562 23.562 10.57 23.562 23.562-10.57 23.562-23.562 23.562z"/><path d="m209.674 403.809h-62.125c-4.142 0-7.5 3.357-7.5 7.5s3.358 7.5 7.5 7.5h62.125c4.142 0 7.5-3.357 7.5-7.5s-3.358-7.5-7.5-7.5z"/><path d="m194.143 434.871h-31.062c-4.142 0-7.5 3.357-7.5 7.5s3.358 7.5 7.5 7.5h31.062c4.142 0 7.5-3.357 7.5-7.5s-3.358-7.5-7.5-7.5z"/><path d="m426.583 326.153h-54.56v-23.615c0-4.143-3.358-7.5-7.5-7.5-12.93 0-23.45-10.52-23.45-23.45v-132.99c0-4.143-3.358-7.5-7.5-7.5s-7.5 3.357-7.5 7.5v78.838h-15.65v-163.554c0-4.314 3.51-7.825 7.825-7.825s7.825 3.511 7.825 7.825v52.035c0 4.143 3.358 7.5 7.5 7.5s7.5-3.357 7.5-7.5v-52.035c0-12.586-10.239-22.825-22.825-22.825s-22.825 10.239-22.825 22.825v419.655c0 21.207 17.253 38.46 38.46 38.46h30.64c4.142 0 7.5-3.357 7.5-7.5v-8.033h54.56c4.142 0 7.5-3.357 7.5-7.5v-155.311c0-4.143-3.357-7.5-7.5-7.5zm-54.554 77.125h47.055v16.062h-47.055zm47.054-15h-47.055v-16.062h47.055zm-47.054 46.062h47.055v16.062h-47.055zm47.054-93.187v16.062h-47.055v-16.062zm-108.656-108.718h15.646v16.093h-15.646zm46.597 264.563h-23.14c-12.936 0-23.46-10.524-23.46-23.46v-210.01h15.65v8.06c0 18.636 13.327 34.217 30.95 37.716zm15.005-15.534v-16.062h47.055v16.062z"/></g></svg>