<?xml version="1.0" encoding="iso-8859-1"?>
<!-- Generator: Adobe Illustrator 19.0.0, SVG Export Plug-In . SVG Version: 6.00 Build 0)  -->
<svg version="1.1" id="Capa_1" xmlns="http://www.w3.org/2000/svg" xmlns:xlink="http://www.w3.org/1999/xlink" x="0px" y="0px"
	 viewBox="0 0 512.002 512.002" style="enable-background:new 0 0 512.002 512.002;" xml:space="preserve">
<g>
	<g>
		<path d="M430.124,89.702l-15.378-20.186c-3.109-4.082-8.864-6.933-13.995-6.933h-16.247c-4.142,0-7.5,3.357-7.5,7.5
			s3.358,7.5,7.5,7.5l16.198-0.001c0.563,0.045,1.765,0.641,2.112,1.023l15.353,20.151c0.32,0.493,0.594,1.86,0.496,2.397
			l-19.484,74.191h-37.268l-25.575-50.677c-2.511-4.974-8.377-8.584-13.948-8.584h-41.395V77.584h65.512c4.142,0,7.5-3.357,7.5-7.5
			s-3.358-7.5-7.5-7.5h-68.012c-6.194,0-11.337,4.533-12.317,10.454h-9.438c-6.893,0-12.5,5.607-12.5,12.5v18.944
			c0,6.893,5.608,12.5,12.5,12.5h9.256v1.604c0,6.893,5.607,12.5,12.5,12.5h20.432c-0.88,10.096-5.133,24.08-20.708,32.02
			c-3.69,1.881-5.157,6.397-3.276,10.088c1.325,2.6,3.958,4.096,6.688,4.096c1.145,0,2.309-0.264,3.399-0.82
			c10.427-5.314,17.369-12.763,21.861-20.79h28.293l9.937,19.689c-6.708,0.212-12.104,5.721-12.104,12.479v25.124
			c0,6.893,5.608,12.5,12.5,12.5h1.549v38.446c0,3.266-2.987,7.713-6.03,8.978l-121.138,50.353
			c-8.707,3.619-15.272,13.434-15.272,22.829v146.949c0,10.463,8.544,18.975,19.046,18.975h178.916
			c10.501,0,19.044-8.512,19.044-18.975V439c0-4.143-3.358-7.5-7.5-7.5c-4.143,0-7.5,3.357-7.5,7.5v54.025
			c0,2.154-1.852,3.975-4.044,3.975H223.67c-2.193,0-4.046-1.82-4.046-3.975V346.076c0-3.266,2.986-7.713,6.03-8.978l121.138-50.353
			c6.688-2.78,12.099-9.218,14.255-16.311h45.583V398c0,4.143,3.357,7.5,7.5,7.5c4.142,0,7.5-3.357,7.5-7.5V224.315
			c4.292-1.981,7.284-6.315,7.284-11.345v-25.124c0-6.893-5.607-12.5-12.5-12.5h-1.728l18.484-70.381
			C434.467,100.034,433.214,93.758,430.124,89.702z M265.995,101.982h-6.756V88.038h6.756V101.982z M312.605,140.679
			c0.753-3.292,1.206-6.521,1.427-9.593h8.208c0.232,0.071,0.604,0.3,0.772,0.476l4.601,9.117H312.605z M375.672,255.436h-13.606
			v-29.965h13.606V255.436z M406.63,255.436h-15.959v-29.965h15.959V255.436z M413.914,210.471h-65.898v-20.124h65.898V210.471z"/>
	</g>
</g>
<g>
	<g>
		<path d="M203.962,120.47c-14.094-4.371-15.791-6.06-20.173-20.065c-1.407-4.524-5.541-7.564-10.287-7.564
			c-4.736,0-8.869,3.034-10.283,7.553c-4.383,14.018-6.079,15.706-20.168,20.075c-4.538,1.403-7.587,5.533-7.587,10.274
			c0,4.74,3.047,8.87,7.582,10.276c14.093,4.369,15.789,6.058,20.173,20.077c1.414,4.516,5.546,7.549,10.283,7.549
			c4.746,0,8.88-3.039,10.282-7.549c4.387-14.02,6.084-15.708,20.181-20.078c4.532-1.408,7.577-5.538,7.577-10.276
			C211.542,126.002,208.495,121.873,203.962,120.47z M173.503,145.851c-3.479-7.373-7.745-11.638-15.123-15.107
			c7.378-3.47,11.645-7.733,15.123-15.105c3.479,7.372,7.748,11.636,15.126,15.105C181.253,134.212,176.985,138.477,173.503,145.851
			z"/>
	</g>
</g>
<g>
	<g>
		<path d="M223.219,23.646c-11.652-3.613-12.887-4.842-16.51-16.423C205.362,2.902,201.411,0,196.881,0
			c-4.527,0-8.478,2.9-9.828,7.219c-3.623,11.585-4.856,12.813-16.499,16.424c-4.339,1.34-7.254,5.287-7.254,9.822
			c0,4.528,2.911,8.475,7.247,9.822c11.649,3.61,12.883,4.839,16.506,16.428c1.351,4.314,5.3,7.213,9.828,7.213
			c4.531,0,8.48-2.901,9.826-7.214c3.626-11.588,4.86-12.816,16.519-16.43c4.328-1.346,7.236-5.292,7.236-9.819
			C230.462,28.932,227.549,24.985,223.219,23.646z M196.882,43.986c-2.593-4.752-5.776-7.935-10.53-10.521
			c4.755-2.587,7.937-5.769,10.529-10.521c2.594,4.752,5.777,7.934,10.533,10.521C202.659,36.052,199.475,39.235,196.882,43.986z"/>
	</g>
</g>
<g>
	<g>
		<path d="M121.455,52.99c-1.39-1.4-3.331-2.2-5.3-2.2c-1.979,0-3.91,0.8-5.3,2.2c-1.4,1.39-2.2,3.329-2.2,5.3
			c0,1.979,0.8,3.91,2.2,5.31c1.39,1.391,3.33,2.19,5.3,2.19c1.97,0,3.9-0.8,5.3-2.19c1.4-1.399,2.2-3.33,2.2-5.31
			C123.655,56.319,122.855,54.38,121.455,52.99z"/>
	</g>
</g>
<g>
	<g>
		<path d="M91.124,80.26c-1.399-1.39-3.329-2.191-5.3-2.191c-1.979,0-3.91,0.801-5.31,2.191c-1.391,1.4-2.19,3.33-2.19,5.309
			c0,1.971,0.8,3.91,2.19,5.301c1.399,1.399,3.34,2.199,5.31,2.199c1.971,0,3.9-0.8,5.3-2.199c1.4-1.4,2.2-3.33,2.2-5.301
			C93.324,83.59,92.524,81.66,91.124,80.26z"/>
	</g>
</g>
<g>
	<g>
		<path d="M155.455,72.729c-1.39-1.399-3.33-2.199-5.3-2.199c-1.97,0-3.91,0.8-5.3,2.199c-1.4,1.391-2.2,3.32-2.2,5.301
			c0,1.97,0.8,3.909,2.2,5.3c1.389,1.399,3.33,2.2,5.3,2.2c1.97,0,3.91-0.801,5.3-2.2c1.4-1.391,2.2-3.33,2.2-5.3
			C157.655,76.05,156.855,74.12,155.455,72.729z"/>
	</g>
</g>
<g>
	<g>
		<path d="M225.975,91.63c-1.391-1.401-3.33-2.2-5.3-2.2c-1.971,0-3.91,0.8-5.301,2.2c-1.399,1.39-2.199,3.33-2.199,5.3
			c0,1.97,0.8,3.91,2.199,5.31c1.4,1.39,3.33,2.19,5.301,2.19c1.97,0,3.909-0.8,5.3-2.19c1.399-1.4,2.2-3.341,2.2-5.31
			C228.175,94.96,227.374,93.031,225.975,91.63z"/>
	</g>
</g>
<g>
	<g>
		<path d="M373.722,305.93h-15.118c-4.143,0-10.152,1.198-13.977,2.787l-39.001,16.212c-3.825,1.59-5.637,5.979-4.047,9.805
			c1.59,3.825,5.978,5.634,9.805,4.047l38.999-16.212c2.028-0.842,6.023-1.639,8.222-1.639h13.392v46.091l-7.961,2.407l-7.625-11.64
			c-2.076-3.168-5.286-4.985-8.808-4.985c-3.522,0-6.733,1.817-8.808,4.985l-7.627,11.64l-13.387-4.049
			c-3.642-1.102-7.279-0.43-9.981,1.842c-2.696,2.269-3.979,5.726-3.519,9.484l1.678,13.736l-12.831,5.434
			c-3.508,1.484-5.871,4.331-6.484,7.81c-0.613,3.478,0.633,6.959,3.42,9.552l10.17,9.453l-3.08,6.031h-42.893v-65.386
			c0.077-0.352,0.496-0.966,0.703-1.104l17.419-7.239c3.825-1.59,5.637-5.979,4.048-9.804c-1.59-3.825-5.978-5.635-9.805-4.048
			l-17.419,7.239c-5.764,2.396-9.947,8.653-9.947,14.878v101.078c0,7.3,5.954,13.238,13.273,13.238h121.189
			c7.318,0,13.273-5.938,13.273-13.238V319.167C386.995,311.868,381.04,305.93,373.722,305.93z M371.996,462.574H254.26v-18.852
			h117.736V462.574z M371.997,428.721h-58l0.071-0.139c2.67-5.223,1.439-12.176-2.862-16.172l-5.839-5.428l7.374-3.123
			c5.405-2.288,8.944-8.397,8.233-14.208l-0.968-7.929l7.744,2.342c5.598,1.696,12.228-0.709,15.425-5.591l4.428-6.758l4.426,6.757
			c3.199,4.883,9.829,7.29,15.423,5.593l4.545-1.374V428.721z"/>
	</g>
</g>
<g>
</g>
<g>
</g>
<g>
</g>
<g>
</g>
<g>
</g>
<g>
</g>
<g>
</g>
<g>
</g>
<g>
</g>
<g>
</g>
<g>
</g>
<g>
</g>
<g>
</g>
<g>
</g>
<g>
</g>
</svg>
