<?xml version="1.0"?>
<svg xmlns="http://www.w3.org/2000/svg" viewBox="0 0 64 64" width="512" height="512"><g id="Garbage-2" data-name="Garbage"><path d="M44.19,21.99a7,7,0,0,0,6.718-5.855,1,1,0,0,0-1-1.135h0a1,1,0,0,0-.984.852A5,5,0,0,1,44,20H40.63l-.561-.908L47.89,3.45A1,1,0,0,0,46.5,2.14L35.47,8.57,32.92,2.61a1.006,1.006,0,0,0-.69-.58.975.975,0,0,0-.87.2L25.89,6.79l-8.4-4.66a1,1,0,0,0-1.4,1.28l7.36,16.55C12.3,25.07,4,39.03,4,48.5,4,60.36,17.46,62,32,62s28-1.64,28-13.5C60,40.09,53.46,28.14,44.19,21.99ZM19.13,5.33l6.38,3.54a1.014,1.014,0,0,0,1.13-.1l4.97-4.14,2.47,5.76a.993.993,0,0,0,1.42.47l9.1-5.3L37.91,18.94c-.3-.09-.61-.18-.91-.26V13H35v5.25a16.739,16.739,0,0,0-2-.21V12H31v6.04a19.287,19.287,0,0,0-4,.64V11H25v7.54ZM32,60C16.39,60,6,58.04,6,48.5,6,37.76,18.15,20,32,20S58,37.76,58,48.5C58,58.04,47.61,60,32,60Z"/><path d="M10.055,45h0a1,1,0,0,0-1,1.1A11.016,11.016,0,0,0,20,56h3a1,1,0,0,0,1-1h0a1,1,0,0,0-1-1H20a9.012,9.012,0,0,1-8.957-8.121A.987.987,0,0,0,10.055,45Z"/></g></svg>
