<svg id="Capa_1" enable-background="new 0 0 512 512" height="512" viewBox="0 0 512 512" width="512" xmlns="http://www.w3.org/2000/svg"><g><path d="m234.669 435.949v-138.75c0-4.138-3.355-7.493-7.493-7.493s-7.493 3.355-7.493 7.493v137.494h-129.521v-88.842c0-9.853-12.224-25.014-16.554-30.809-7.815-10.458-16.672-22.312-21.615-34.799-12.185-30.755-22.374-62.273-36.869-92.08-3.144-6.465 8.844-6.34 13.554-3.195 16.298 9.819 24.59 27.978 32.234 44.413 3.172 6.814 9.611 10.243 16.405 8.741 7.323-1.621 12.845-8.357 12.845-15.67v-129.481c0-5.828 4.741-10.57 10.57-10.57s10.57 4.741 10.57 10.57c0 .082.004 126.439.004 126.439 0 4.138 3.355 7.493 7.493 7.493s7.493-3.355 7.493-7.493l-.004-162.569c0-5.831 4.744-10.574 10.574-10.574 5.831 0 10.574 4.744 10.574 10.574l-.003 162.569c0 4.138 3.355 7.493 7.493 7.493s7.493-3.355 7.493-7.493c0 0 .003-144.428.003-144.501 0-5.828 4.741-10.57 10.57-10.57 5.828 0 10.57 4.741 10.57 10.57l-.001 144.501c0 4.138 3.355 7.493 7.493 7.493s7.493-3.355 7.493-7.493v-90.199c.001-.039.001-.077.001-.116 0-5.828 4.741-10.57 10.57-10.57 5.828 0 10.57 4.741 10.57 10.57v135.456c0 4.138 3.355 7.493 7.493 7.493s7.493-3.355 7.493-7.493v-135.455c0-18.323-19.591-30.805-36.124-23.266v-30.921c0-18.538-20.019-31.031-36.61-23.038-2.32-11.722-12.681-20.589-25.074-20.589-14.093 0-25.56 11.466-25.56 25.56v12.864c-16.533-7.541-36.124 4.943-36.124 23.266l-.002 129.438c-.041.23-13.25-42.335-40.22-51.046-14.457-4.669-24.126-2.343-29.944 2.751-4.525 3.962-6.748 13.532-3.413 20.51 14.141 29.585 24.4 60.702 36.457 91.136 5.677 14.34 15.169 27.043 23.544 38.25 6.166 8.252 13.144 17.59 13.573 22.114v89.825c-9.019 3.116-15.513 11.691-15.513 21.755 0 12.687 10.321 23.008 23.008 23.008h144.505c12.687 0 23.008-10.321 23.008-23.008 0-10.065-6.496-18.641-15.516-21.756zm-7.492 29.779h-144.505c-4.424 0-8.023-3.599-8.023-8.023s3.599-8.023 8.023-8.023h144.505c4.424 0 8.023 3.599 8.023 8.023s-3.599 8.023-8.023 8.023z"/><path d="m508.364 175.986c-7.208-9.557-21.881-9.08-31.561-4.62-15.396 7.116-23.127 18.875-28.655 29.432-1.882 3.585-7.898 15.153-11.559 21.546v-58.862c0-4.138-3.355-7.493-7.493-7.493s-7.493 3.355-7.493 7.493v58.971c0 6.729 5.293 14.351 11.902 15.897 6.839 1.602 13.59-1.793 17.19-8.649 2.052-3.909 8.989-18.641 10.723-21.945 4.583-8.752 10.7-16.928 21.663-22.785 5.426-2.899 16.784-3.551 13.562 3.189-14.299 29.898-24.693 61.323-36.871 92.084-4.941 12.481-13.798 24.333-21.613 34.789-8.949 11.975-16.018 21.433-16.543 30.378-.008.146-.013.293-.013.439v88.842h-48.442c-4.138 0-7.493 3.355-7.493 7.493s3.355 7.493 7.493 7.493h55.929c4.426 0 8.027 3.601 8.027 8.027s-3.601 8.027-8.027 8.027h-144.496c-4.426 0-8.027-3.601-8.027-8.027s3.601-8.027 8.027-8.027h55.92c4.138 0 7.493-3.355 7.493-7.493s-3.355-7.493-7.493-7.493h-48.432v-305.596c0-5.828 4.741-10.57 10.57-10.57 5.815 0 10.548 4.72 10.569 10.531v.038 90.316c0 4.138 3.355 7.493 7.493 7.493s7.493-3.355 7.493-7.493l.001-144.501c0-5.828 4.742-10.653 10.57-10.57 6.998.1 10.744 5.719 10.571 10.647v144.424c0 4.138 3.355 7.493 7.493 7.493s7.493-3.355 7.493-7.493l-.001-162.573c0-5.828 4.741-10.57 10.569-10.57s10.57 4.741 10.57 10.57l.003 162.573c0 4.138 3.355 7.493 7.493 7.493s7.493-3.355 7.493-7.493v-126.442c0-.045-.001-.089-.002-.133.073-5.766 4.785-10.434 10.568-10.434 5.834 0 10.579 4.746 10.579 10.579v37.853c0 4.138 3.355 7.493 7.493 7.493s7.493-3.355 7.493-7.493v-37.853c0-18.327-19.596-30.817-36.134-23.275v-12.869c0-14.091-11.464-25.555-25.555-25.555-12.392 0-22.752 8.866-25.07 20.589-16.59-7.994-36.609 4.503-36.609 23.038v30.921c-16.533-7.54-36.124 4.943-36.124 23.266v306.852c-9.019 3.117-15.514 11.693-15.514 21.758 0 12.689 10.323 23.012 23.012 23.012h144.497c12.689 0 23.012-10.323 23.012-23.012 0-10.065-6.496-18.641-15.515-21.758v-89.826c.424-4.521 7.405-13.863 13.574-22.117 8.375-11.206 17.867-23.907 23.543-38.244 12.053-30.447 22.305-61.544 36.457-91.135 2.974-6.229 2.301-13.197-1.803-18.64z"/></g></svg>