<svg id="Capa_1" enable-background="new 0 0 511.998 511.998" height="512" viewBox="0 0 511.998 511.998" width="512" xmlns="http://www.w3.org/2000/svg"><g><path d="m178.344 217.436c-4.143 0-7.5 3.357-7.5 7.5v155.312c0 4.143 3.357 7.5 7.5 7.5h155.311c4.143 0 7.5-3.357 7.5-7.5v-155.312c0-4.143-3.357-7.5-7.5-7.5zm147.81 15v47.125h-140.31v-47.125zm0 78.187h-140.31v-16.062h140.311v16.062zm-140.31 62.124v-47.124h140.311v47.124z"/><path d="m403.279 131.748c0-1.164-.271-2.312-.792-3.354l-15.53-31.06c-1.271-2.541-3.867-4.146-6.708-4.146h-77.922v-16.063h15.796c4.143 0 7.5-3.357 7.5-7.5v-62.125c0-4.143-3.357-7.5-7.5-7.5h-124.248c-4.143 0-7.5 3.357-7.5 7.5v62.125c0 4.143 3.357 7.5 7.5 7.5h15.796v16.063h-77.922c-2.841 0-5.438 1.604-6.708 4.146l-15.53 31.06c-.521 1.042-.792 2.19-.792 3.354v31.06c0 1.168.272 2.32.797 3.364l15.53 30.94c1.272 2.535 3.866 4.136 6.703 4.136h8.03v202.56h-8.03c-2.841 0-5.438 1.605-6.708 4.146l-15.53 31.061c-.521 1.042-.792 2.19-.792 3.354v31.07c0 1.164.271 2.312.792 3.354l15.53 31.06c1.271 2.541 3.867 4.146 6.708 4.146h87.31c4.143 0 7.5-3.357 7.5-7.5s-3.357-7.5-7.5-7.5h-82.675l-12.665-25.33v-27.529l12.666-25.331h239.229l12.666 25.331v27.529l-12.665 25.33h-123.876c-4.143 0-7.5 3.357-7.5 7.5s3.357 7.5 7.5 7.5h128.51c2.841 0 5.438-1.604 6.708-4.146l15.53-31.06c.521-1.042.792-2.19.792-3.354v-31.07c0-1.164-.271-2.312-.792-3.354l-15.53-31.061c-1.271-2.54-3.867-4.146-6.708-4.146h-8.03v-69.34c0-4.143-3.357-7.5-7.5-7.5s-7.5 3.357-7.5 7.5v69.221h-202.44v-202.44h85.45c4.143 0 7.5-3.357 7.5-7.5s-3.357-7.5-7.5-7.5h-103.853l-12.657-25.217v-11.713c6.026-5.004 11.801-4.479 17.322 1.575 10.195 15.291 33.348 15.291 43.543 0 6.194-6.629 12.387-6.629 18.581 0 10.195 15.291 33.348 15.291 43.543 0 6.194-6.629 12.388-6.629 18.582 0 10.195 15.291 33.348 15.291 43.543 0 6.194-6.629 12.388-6.629 18.581 0 10.195 15.291 33.348 15.291 43.543 0 5.522-6.054 11.296-6.579 17.322-1.575v11.713l-12.657 25.217h-102.713c-4.143 0-7.5 3.357-7.5 7.5s3.357 7.5 7.5 7.5h84.31v100.53c0 4.143 3.357 7.5 7.5 7.5s7.5-3.357 7.5-7.5v-100.53h8.03c2.837 0 5.431-1.601 6.703-4.136l15.53-30.94c.524-1.044.797-2.196.797-3.364zm-139.72-69.623v-47.125h16.003v47.125zm-31.122 0v-47.125h16.122v47.125zm78.186 0h-16.062v-47.125h16.062zm-109.248-47.125h16.062v47.125h-16.062zm85.952 62.125v16.062h-62.656v-16.062zm71.15 65.448c-6.194 6.63-12.388 6.63-18.582 0-10.192-15.291-33.349-15.291-43.542 0-6.194 6.63-12.388 6.63-18.582 0-10.194-15.29-33.349-15.29-43.543 0-6.194 6.63-12.388 6.63-18.582 0-10.192-15.291-33.35-15.291-43.542 0-6.194 6.63-12.388 6.63-18.582 0-5.925-8.888-18.75-13.581-29.013-10.634l11.875-23.75h239.23l11.875 23.75c-10.263-2.947-23.087 1.747-29.012 10.634z"/></g></svg>