<svg height="512pt" viewBox="-81 0 512 512" width="512pt" xmlns="http://www.w3.org/2000/svg"><path d="m350.167969 179.835938-7.5625-28.523438 7.5625-28.523438c.339843-1.273437.339843-2.609374 0-3.882812l-8.078125-30.464844c-.882813-3.320312-3.886719-5.632812-7.320313-5.632812h-147.945312v-25.246094h4.542969c9.746093 0 17.671874-7.929688 17.671874-17.671875v-22.21875c0-9.742187-7.925781-17.671875-17.671874-17.671875h-64.628907c-9.746093 0-17.671875 7.929688-17.671875 17.671875v22.21875c0 9.746094 7.925782 17.671875 17.671875 17.671875h4.542969v25.246094h-83.3125c-4.183594 0-7.574219 3.390625-7.574219 7.574218v71.179688c0 4.183594 3.390625 7.574219 7.574219 7.574219s7.574219-3.390625 7.574219-7.574219v-63.605469h207.019531v184.773438c0 4.183593 3.390625 7.574219 7.574219 7.574219 4.183593 0 7.574219-3.390626 7.574219-7.574219v-184.773438h51.230468l6.070313 22.890625-7.5625 28.523438c-.339844 1.269531-.339844 2.609375 0 3.882812l7.5625 28.523438-7.5625 28.523437c-.339844 1.269531-.339844 2.609375 0 3.882813l7.5625 28.519531-7.5625 28.523437c-.339844 1.273438-.339844 2.613282 0 3.882813l7.5625 28.523437-7.5625 28.523438c-.339844 1.273438-.339844 2.609375 0 3.882812l7.5625 28.523438-7.5625 28.523438c-.339844 1.273437-.339844 2.609374 0 3.882812l7.5625 28.523438-6.070313 22.890624h-51.230468v-130.109374c0-4.179688-3.390626-7.574219-7.574219-7.574219-4.183594 0-7.574219 3.394531-7.574219 7.574219v130.105468h-75.738281v-143.90625c0-15.3125-12.460938-27.769531-27.769531-27.769531-15.3125 0-27.773438 12.457031-27.773438 27.769531v143.90625h-75.738281v-251.496094c0-4.183593-3.390625-7.574218-7.574219-7.574218s-7.574219 3.390625-7.574219 7.574218v251.496094h-12.625c-15.3125 0-27.769531 12.457032-27.769531 27.769532v28.277343c0 4.183594 3.390625 7.574219 7.574219 7.574219h200.4375c4.183593 0 7.574219-3.390625 7.574219-7.574219 0-4.183593-3.390626-7.574219-7.574219-7.574219h-192.863281v-20.703124c0-6.960938 5.664062-12.621094 12.621093-12.621094h262.566407c6.960937 0 12.621093 5.664062 12.621093 12.621094v20.703124h-59.496093c-4.183594 0-7.574219 3.390626-7.574219 7.574219 0 4.183594 3.390625 7.574219 7.574219 7.574219h67.070312c4.183594 0 7.574219-3.390625 7.574219-7.574219v-28.277343c0-4.542969-1.101563-8.832032-3.046875-12.621094h19.710937c3.433594 0 6.441407-2.3125 7.320313-5.632813l8.078125-30.464843c.339843-1.273438.339843-2.609376 0-3.882813l-7.5625-28.523437 7.5625-28.523438c.339843-1.273438.339843-2.609375 0-3.882812l-7.5625-28.523438 7.5625-28.523438c.339843-1.269531.339843-2.609374 0-3.882812l-7.5625-28.523438 7.5625-28.523437c.339843-1.269531.339843-2.609375 0-3.882813l-7.5625-28.523437 7.5625-28.519531c.339843-1.269532.339843-2.609375 0-3.878906zm-225.953125-139.945313v-22.21875c0-1.390625 1.128906-2.523437 2.523437-2.523437h64.628907c1.394531 0 2.527343 1.132812 2.527343 2.523437v22.21875c0 1.390625-1.132812 2.523437-2.527343 2.523437h-64.628907c-1.394531 0-2.523437-1.132812-2.523437-2.523437zm22.214844 42.917969v-25.246094h25.246093v25.246094zm0 221.664062c0-6.960937 5.664062-12.621094 12.625-12.621094 6.957031 0 12.621093 5.660157 12.621093 12.621094v143.90625h-25.246093zm0 0"/></svg>