<svg height="512" viewBox="0 0 60 60" width="512" xmlns="http://www.w3.org/2000/svg"><g id="Page-1" fill="none" fill-rule="evenodd"><g id="046---Cling-Film" fill="rgb(0,0,0)" fill-rule="nonzero"><path id="Shape" d="m58.145 10.761c-7.729-3.253-15.434-1.334-22.886.523-7.68 1.916-14.945 3.706-22.259.326v-.11c-.000203-1.767247-.7227393-3.4576208-2-4.679v-3.821c0-1.65685425-1.34314575-3-3-3h-3c-1.65685425 0-3 1.34314575-3 3v3.821c-1.27726069 1.2213792-1.99979704 2.911753-2 4.679v37c.00020296 1.767247.72273931 3.4576208 2 4.679v3.821c0 1.6568542 1.34314575 3 3 3h3c1.65685425 0 3-1.3431458 3-3v-3.821c1.0808971-1.0356635 1.7696172-2.4138105 1.949-3.9 2.8478748 1.1680824 5.9010518 1.7532832 8.979 1.721 4.662 0 9.283-1.151 13.814-2.28 7-1.744 13.61-3.391 20.275-1.134.9242356.3145105 1.9433072.1656866 2.739-.4.7873439-.55807 1.251936-1.4659666 1.244-2.431v-31.215c-.0015795-1.215581-.7329885-2.3113144-1.855-2.779zm-54.145-7.761c0-.55228475.44771525-1 1-1h3c.55228475 0 1 .44771525 1 1v2.5c-1.59973251-.66800278-3.40026749-.66800278-5 0zm5 54c0 .5522847-.44771525 1-1 1h-3c-.55228475 0-1-.4477153-1-1v-2.5c1.59946336.6693445 3.40053664.6693445 5 0zm2-8.5c0 2.4852813-2.01471865 4.4999999-4.5 4.4999999s-4.49999996-2.0147186-4.5-4.4999999v-37c0-2.48528137 2.01471863-4.5 4.5-4.5s4.5 2.01471863 4.5 4.5zm47-3.745c.002322.3174172-.1503348.6160125-.409.8-.2703401.1937881-.618246.2434356-.932.133-7.22-2.445-14.429-.649-21.4 1.087-7.68 1.914-14.944 3.725-22.259.342v-33.309c7.678 3.168 15.329 1.263 22.742-.583 7.464-1.861 14.513-3.619 21.626-.621.3801121.1560425.6293143.5251141.632.936z"/><path id="Shape" d="m55.317 13.967c-.9828526-.327815-1.9918291-.571361-3.016-.728-1.0703314-.1619896-2.1514837-.2418892-3.234-.239-2.1312191.0236025-4.2553965.2492796-6.344.674-2.146.405-4.358.958-6.5 1.492-3.3881861.9199103-6.8319349 1.6213529-10.31 2.1-.5248443.0623918-.9105058.5224379-.8803225 1.050115.0301832.5276772.4657871.9407468.9943225.942885.0391076.0001002.0781833-.0022377.117-.007 3.56469-.4861585 7.0940973-1.2029963 10.566-2.146 2.112-.527 4.3-1.072 6.384-1.467 2.9195619-.6569915 5.9312881-.8001331 8.9-.423.9122002.1383969 1.8108336.3548585 2.686.647.3394023.1132532.7134428.0368345.9812241-.2004699.2677813-.2373045.388621-.5994424.317-.95-.071621-.3505577-.3248218-.6362769-.6642241-.7495301z"/><path id="Shape" d="m20.1 17.45c-.37-.023-.736-.054-1.1-.091-.9363846-.0980048-1.8665189-.2485757-2.786-.451-.3488699-.0771694-.7124083.037643-.9536738.3011885-.2412656.2635455-.3236043.6357852-.216.9765.1076043.3407149.3888039.5981421.7376738.6753115.9935152.2183181 1.9983989.3812362 3.01.488.39.04.781.072 1.178.1h.064c.5522847.017397 1.014103-.4162153 1.0315-.9685.0173969-.5522847-.4162153-1.014103-.9685-1.0315z"/></g></g></svg>