<?xml version="1.0" encoding="iso-8859-1"?>
<!-- Generator: Adobe Illustrator 19.0.0, SVG Export Plug-In . SVG Version: 6.00 Build 0)  -->
<svg version="1.1" id="Capa_1" xmlns="http://www.w3.org/2000/svg" xmlns:xlink="http://www.w3.org/1999/xlink" x="0px" y="0px"
	 viewBox="0 0 512 512" style="enable-background:new 0 0 512 512;" xml:space="preserve">
<g>
	<g>
		<path d="M448.307,371.173c-1.448-64.336-17.016-158.804-82.953-243.493c-4.471-5.746-11.168-9.479-18.372-10.377l-3.11-8.869
			c-1.597-4.546-6.252-7.846-11.069-7.846h-4.169V76.551c0-5.79-4.71-10.5-10.5-10.5h-7.807V10.5c0-5.79-4.71-10.5-10.5-10.5
			h-78.202c-5.79,0-10.5,4.71-10.5,10.5v55.551h-7.807c-5.79,0-10.5,4.71-10.5,10.5v24.038h-4.169c-5.078,0-9.712,3.561-11.02,8.468
			l-10.578,39.711l-0.705,0.128c-9.983,1.817-18.098,8.882-21.154,18.368c-0.083,0.248-8.692,25.458-39.564,81.383
			c-9.24,16.738-31.58,61.599-39.442,116.519c-7.815,54.601,1.963,101.65,28.279,136.062C99.624,507.973,107.802,512,116.341,512
			h292.637c12.237,0,23.103-8.153,26.419-19.819C435.989,490.107,449.869,440.607,448.307,371.173z M299.527,81.051h14.106v19.538
			h-14.106V81.051z M254.057,15h13.336v11c0,4.142,3.357,7.5,7.5,7.5s7.5-3.358,7.5-7.5V15h12.934v51.051h-12.934V58
			c0-4.142-3.357-7.5-7.5-7.5s-7.5,3.358-7.5,7.5v8.051h-13.336V15z M284.527,81.051v19.538h-16.302V81.051H284.527z M226.125,15
			h12.933v51.051h-12.933V15z M253.225,81.051v19.538h-16.301V81.051H253.225z M207.818,81.051h14.106v19.538h-14.106V81.051z
			 M420.971,488.071c-1.495,5.257-6.427,8.929-11.993,8.929H116.341c-3.898,0-7.622-1.827-9.962-4.885
			c-12.612-16.492-21-36.359-25.029-58.905h32.738c0.868,5.188,2.034,10.269,3.544,15.202c3.067,10.012,12.216,16.739,22.766,16.739
			h164.36c12.001,0,22.152-8.908,23.614-20.721c0.462-3.729,0.861-7.472,1.233-11.22H430.69
			C427.136,466.106,421.342,486.771,420.971,488.071z M202.944,295.365c28.527-23.491,55.557-45.73,88.841-49.278
			c6.97,18.262,12.102,36.246,15.835,53.404c-34.902,5.911-63.182,29.178-90.592,51.748c-28.773,23.693-56.067,46.151-89.768,49.369
			c0.599-14.292,2.925-29.796,7.017-46.203c1.309-5.248,2.723-10.306,4.195-15.16C161.95,329.098,182.778,311.97,202.944,295.365z
			 M145.316,319.047c7.367-19.649,14.685-33.6,17.507-38.711c14.033-25.419,26.269-49.386,35.385-69.31
			c1.18-2.578,3.579-4.425,6.418-4.942l56.316-10.248c0.535-0.098,1.077-0.147,1.611-0.147c3.196,0,6.145,1.702,7.693,4.441
			c5.936,10.505,11.132,21.071,15.696,31.597c-35.794,5.362-64.601,29.058-92.533,52.059
			C177.943,296.521,162.067,309.559,145.316,319.047z M310.532,314.197c4.184,23.482,5.853,44.992,6.259,62.949
			c0.487,21.774-0.624,43.791-3.305,65.44c-0.533,4.312-4.285,7.563-8.728,7.563h-164.36c-3.854,0-7.317-2.522-8.423-6.131
			c-2.613-8.534-4.162-18.045-4.681-28.352c38.955-3.191,69.588-28.406,99.27-52.848
			C253.704,340.469,279.442,319.284,310.532,314.197z M432.068,418.21h-101.21c0.92-13.797,1.236-27.645,0.929-41.401
			c-1.054-46.689-10.32-116.521-48.482-184.06c-4.206-7.439-12.157-12.061-20.752-12.061c-1.432,0-2.878,0.131-4.297,0.389
			l-56.317,10.249c-7.66,1.395-14.153,6.426-17.371,13.458c-8.962,19.588-21.022,43.206-34.877,68.302
			c-16.005,28.992-40.573,90.754-37.282,145.124h-33.05c-1.435-15.903-0.898-32.942,1.675-50.918
			c7.51-52.466,28.885-95.38,37.726-111.396c31.977-57.926,40.589-83.665,40.686-83.96c1.38-4.283,5.053-7.456,9.586-8.281
			l88.311-16.072c4.075-0.742,6.777-4.646,6.036-8.722c-0.742-4.076-4.652-6.778-8.722-6.036L183.364,145.8l8.047-30.21h139.073
			l1.133,3.229l-39.96,7.272c-4.075,0.742-6.777,4.647-6.036,8.722c0.741,4.075,4.642,6.775,8.722,6.036l47.009-8.555
			c0.742-0.136,1.505-0.205,2.268-0.205c3.857,0,7.556,1.795,9.897,4.804c63.419,81.455,78.397,172.545,79.794,234.617
			C433.693,388.478,433.129,404.18,432.068,418.21z"/>
	</g>
</g>
<g>
	<g>
		<path d="M266.778,363.323c-20.344,0-36.896,16.393-36.896,36.542c0,20.15,16.552,36.542,36.896,36.542
			s36.895-16.393,36.895-36.542S287.122,363.323,266.778,363.323z M266.778,421.407c-12.073,0-21.896-9.663-21.896-21.542
			c0-11.878,9.823-21.542,21.896-21.542c12.072,0,21.895,9.664,21.895,21.542C288.673,411.744,278.851,421.407,266.778,421.407z"/>
	</g>
</g>
<g>
	<g>
		<path d="M397.989,264.567c-4.284-16.064-20.964-25.698-37.193-21.483c-7.921,2.063-14.54,7.069-18.638,14.097
			c-4.052,6.95-5.144,15.052-3.074,22.813c2.644,9.909,4.948,20.129,6.849,30.374c0.756,4.073,4.671,6.759,8.742,6.006
			c4.072-0.755,6.762-4.669,6.006-8.742c-1.971-10.624-4.36-21.223-7.103-31.504c-1.033-3.874-0.486-7.92,1.539-11.395
			c2.071-3.552,5.43-6.086,9.456-7.134c8.262-2.151,16.756,2.709,18.923,10.832c9.356,35.086,14.53,71.969,15.378,109.625
			c0.091,4.038-1.42,7.874-4.253,10.801c-2.858,2.952-6.715,4.627-10.865,4.718l-0.352,0.004c-8.335,0-15.266-6.663-15.45-14.851
			c-0.267-11.868-1.002-23.806-2.185-35.483c-0.418-4.121-4.085-7.124-8.218-6.706c-4.121,0.418-7.123,4.097-6.706,8.218
			c1.144,11.289,1.854,22.832,2.112,34.309c0.366,16.274,14.024,29.514,30.446,29.514c0.229,0,0.459-0.002,0.686-0.008
			c8.118-0.178,15.686-3.474,21.308-9.281c5.646-5.832,8.654-13.492,8.473-21.572C412.995,338.873,407.652,300.804,397.989,264.567z
			"/>
	</g>
</g>
<g>
</g>
<g>
</g>
<g>
</g>
<g>
</g>
<g>
</g>
<g>
</g>
<g>
</g>
<g>
</g>
<g>
</g>
<g>
</g>
<g>
</g>
<g>
</g>
<g>
</g>
<g>
</g>
<g>
</g>
</svg>
