<svg id="Capa_1" enable-background="new 0 0 512.002 512.002" height="512" viewBox="0 0 512.002 512.002" width="512" xmlns="http://www.w3.org/2000/svg"><g><path d="m507.695 363.173c-1.956-7.522-3.803-14.627-3.803-29.224s1.847-21.702 3.803-29.224c2.106-8.104 4.285-16.483 4.285-32.998 0-14.556-2.217-21.932-4.361-29.065-1.917-6.375-3.727-12.397-3.727-24.747s1.81-18.372 3.727-24.747c2.144-7.133 4.361-14.509 4.361-29.065 0-14.554-2.217-21.929-4.361-29.062-1.917-6.375-3.727-12.395-3.727-24.744s1.81-18.37 3.727-24.744c2.144-7.132 4.361-14.508 4.361-29.063 0-4.142-3.358-7.5-7.5-7.5-21.897 0-33 3.614-43.737 7.108-10.067 3.276-19.576 6.372-39.094 6.372-19.517 0-29.025-3.095-39.092-6.372-10.736-3.495-21.838-7.108-43.735-7.108s-33 3.614-43.737 7.108c-10.067 3.276-19.577 6.372-39.095 6.372s-29.027-3.095-39.095-6.372c-10.737-3.495-21.839-7.108-43.737-7.108-21.897 0-32.999 3.614-43.735 7.108-10.067 3.276-19.575 6.372-39.092 6.372-19.518 0-29.027-3.095-39.094-6.372-10.737-3.493-21.84-7.107-43.737-7.107-4.142 0-7.5 3.358-7.5 7.5 0 14.555 2.217 21.93 4.361 29.063 1.917 6.375 3.727 12.396 3.727 24.744s-1.81 18.369-3.727 24.744c-2.144 7.132-4.361 14.507-4.361 29.061 0 14.556 2.217 21.932 4.361 29.065 1.917 6.375 3.727 12.397 3.727 24.747s-1.81 18.372-3.727 24.747c-2.144 7.134-4.361 14.51-4.361 29.066 0 16.514 2.179 24.894 4.285 32.998 1.956 7.522 3.803 14.627 3.803 29.224s-1.847 21.702-3.803 29.224c-2.106 8.103-4.285 16.482-4.285 32.996v45.86c0 4.142 3.358 7.5 7.5 7.5 19.518 0 29.027 3.095 39.094 6.372 10.737 3.495 21.839 7.108 43.737 7.108 21.896 0 32.999-3.614 43.735-7.108 10.067-3.276 19.576-6.372 39.093-6.372 19.518 0 29.027 3.095 39.094 6.372 10.737 3.495 21.839 7.108 43.737 7.108s33.001-3.614 43.738-7.108c10.068-3.276 19.577-6.372 39.096-6.372 19.52 0 29.03 3.095 39.098 6.372 10.738 3.495 21.841 7.108 43.74 7.108s33.002-3.614 43.74-7.108c10.068-3.276 19.578-6.372 39.098-6.372 4.142 0 7.5-3.358 7.5-7.5 0-48.869.011-45.984-.02-46.416-.049-16.147-2.202-24.428-4.285-32.441zm-488.968-281.938c-1.47-4.89-2.878-9.573-3.454-17.063 14.47.706 22.69 3.382 31.321 6.191 10.737 3.495 21.839 7.108 43.737 7.108 21.896 0 32.999-3.614 43.735-7.108 10.067-3.276 19.576-6.372 39.093-6.372 19.518 0 29.027 3.095 39.094 6.372 10.737 3.495 21.839 7.108 43.737 7.108s33-3.614 43.737-7.108c10.067-3.276 19.576-6.372 39.094-6.372 19.517 0 29.026 3.095 39.093 6.372 10.736 3.495 21.838 7.108 43.735 7.108s33-3.614 43.737-7.108c8.631-2.809 16.851-5.485 31.321-6.191-.576 7.49-1.983 12.173-3.454 17.063-2.144 7.132-4.361 14.508-4.361 29.062s2.217 21.93 4.362 29.062c1.916 6.375 3.726 12.395 3.726 24.743 0 12.35-1.81 18.372-3.727 24.747-2.144 7.133-4.361 14.509-4.361 29.065s2.217 21.932 4.361 29.065c1.493 4.965 2.921 9.717 3.479 17.41-16.928.741-26.599 3.888-35.99 6.945-1.125.366-2.244.73-3.37 1.088-7.357-17.682-24.628-29.472-44.353-29.472-17.594 0-33.75 9.763-42.112 24.884-8.015-2.055-17.731-3.608-32.087-3.608-21.897 0-33 3.613-43.737 7.108-8.687 2.827-16.958 5.519-31.603 6.204.695-24.999-19.437-45.712-44.448-45.712-20.202 0-37.533 13.528-42.817 32.424-.996-.016-2.014-.024-3.058-.024-21.897 0-32.999 3.613-43.735 7.108-10.067 3.277-19.575 6.372-39.092 6.372-19.518 0-29.027-3.095-39.094-6.372-9.391-3.057-19.061-6.204-35.99-6.945.559-7.694 1.987-12.445 3.479-17.41 2.144-7.133 4.361-14.509 4.361-29.065s-2.217-21.932-4.361-29.065c-1.915-6.374-3.725-12.396-3.725-24.746 0-12.348 1.81-18.369 3.726-24.743 2.145-7.132 4.362-14.508 4.362-29.062 0-14.555-2.217-21.93-4.361-29.063zm394.294 242.857c-18.235 0-33.07-14.835-33.07-33.07 0-1.569.109-3.123.324-4.656 10.054 3.237 21.076 6.342 41.374 6.342 10.103 0 17.909-.769 24.44-1.941.145 18.334-14.736 33.325-33.068 33.325zm-27.298-51.733c6.081-8.843 16.28-14.407 27.298-14.407 12.784 0 24.068 7.194 29.565 18.192-5.631.959-12.305 1.564-20.936 1.564-17.467-.001-26.918-2.479-35.927-5.349zm-137.249 5.18c-14.629-.687-22.896-3.377-31.578-6.203-7.193-2.341-14.55-4.735-25.206-6.061 4.384-10.907 15.064-18.446 27.345-18.446 16.693 0 30.136 13.934 29.439 30.71zm248.526 157.144c-17.084.721-26.803 3.884-36.24 6.956-10.068 3.276-19.578 6.372-39.098 6.372s-29.03-3.095-39.098-6.372c-10.738-3.495-21.841-7.108-43.74-7.108-21.898 0-33.001 3.614-43.738 7.108-10.067 3.276-19.577 6.372-39.096 6.372-19.518 0-29.027-3.095-39.095-6.372-10.737-3.495-21.839-7.108-43.737-7.108-21.897 0-32.999 3.614-43.735 7.108-10.067 3.276-19.575 6.372-39.092 6.372-37.67 0-39.29-11.806-75.331-13.328v-30.845c32.363 1.516 35.187 13.312 75.331 13.312 21.896 0 32.999-3.613 43.735-7.108 10.067-3.277 19.576-6.372 39.093-6.372 19.518 0 29.027 3.095 39.094 6.372 10.737 3.495 21.839 7.108 43.737 7.108s33.001-3.613 43.738-7.108c10.067-3.277 19.577-6.372 39.096-6.372 19.52 0 29.03 3.095 39.098 6.372 10.148 3.303 20.641 6.718 40.295 7.077 4.12.095 7.56-3.219 7.636-7.361s-3.22-7.56-7.361-7.636c-17.416-.318-26.408-3.245-35.928-6.343-10.738-3.494-21.841-7.108-43.74-7.108-21.898 0-33.001 3.613-43.738 7.108-10.067 3.277-19.577 6.372-39.096 6.372s-29.027-3.095-39.095-6.372c-10.737-3.495-21.839-7.108-43.737-7.108-21.897 0-32.999 3.613-43.735 7.108-8.636 2.811-16.861 5.488-31.346 6.192.501-2.37.757-4.799.757-7.255 0-19.26-15.669-34.929-34.929-34.929-17.719 0-32.398 13.262-34.633 30.381-4.121-.633-8.746-1.105-14.095-1.337.506-9.883 2.03-15.744 3.626-21.883 2.106-8.104 4.285-16.483 4.285-32.998s-2.179-24.894-4.285-32.998c-1.578-6.069-3.085-11.867-3.608-21.546 14.518.7 22.753 3.38 31.4 6.195 10.737 3.495 21.839 7.108 43.737 7.108 21.896 0 32.999-3.613 43.735-7.108 10.067-3.277 19.576-6.372 39.093-6.372.509 0 1.011.002 1.507.006 1.084 16.367 11.159 30.954 26.287 37.694 3.769 1.679 8.211-.002 9.903-3.799 1.686-3.784-.015-8.217-3.798-9.903-9.432-4.202-15.9-13.005-17.233-23.063 9.297 1.162 15.74 3.259 22.429 5.436 8.531 2.777 17.294 5.628 31.52 6.683-2.373 3.658-5.549 6.802-9.296 9.113-3.525 2.175-4.621 6.795-2.446 10.321s6.796 4.62 10.321 2.446c8.286-5.111 14.548-12.618 18.046-21.506 19.03-.45 29.338-3.805 39.33-7.057 10.067-3.277 19.576-6.372 39.094-6.372 11.921 0 20.109 1.155 26.97 2.8-.559 2.948-.841 5.953-.841 8.993 0 26.506 21.564 48.07 48.07 48.07s48.07-21.564 48.07-48.07c0-1.332-.055-2.664-.165-3.989 1.511-.474 2.989-.954 4.46-1.433 8.646-2.814 16.882-5.495 31.4-6.195-.523 9.679-2.03 15.478-3.608 21.546-2.106 8.104-4.285 16.483-4.285 32.998s2.179 24.894 4.285 32.998c1.596 6.139 3.12 12.001 3.626 21.884-22.523.978-32.258 6.229-45.186 9.755-3.996 1.09-6.352 5.213-5.262 9.209s5.215 6.353 9.209 5.262c13.417-3.66 21.556-8.289 41.435-9.22v30.847zm-414.525-32.718c-1.72-.083-3.362-.209-3.259-.201-16.105-1.214-23.945-4.936-35.203-8.262.629-10.426 9.311-18.716 19.892-18.716 10.989 0 19.929 8.94 19.929 19.929 0 2.503-.464 4.957-1.359 7.25z"/><path d="m141.563 305.76c-14.243 0-25.831 11.588-25.831 25.832 0 14.243 11.588 25.831 25.831 25.831 14.244 0 25.832-11.588 25.832-25.831 0-14.244-11.588-25.832-25.832-25.832zm0 36.663c-5.972 0-10.831-4.859-10.831-10.831 0-5.973 4.859-10.832 10.831-10.832 5.973 0 10.832 4.859 10.832 10.832 0 5.972-4.859 10.831-10.832 10.831z"/><path d="m306.442 315.822c-13.711 0-24.867 11.155-24.867 24.867s11.155 24.867 24.867 24.867 24.867-11.155 24.867-24.867-11.156-24.867-24.867-24.867zm0 34.734c-5.44 0-9.867-4.426-9.867-9.867s4.426-9.867 9.867-9.867 9.867 4.426 9.867 9.867-4.427 9.867-9.867 9.867z"/><path d="m247.677 159.651c13.711 0 24.867-11.155 24.867-24.867s-11.155-24.867-24.867-24.867-24.867 11.155-24.867 24.867 11.155 24.867 24.867 24.867zm0-34.734c5.44 0 9.867 4.426 9.867 9.867 0 5.44-4.426 9.867-9.867 9.867s-9.867-4.426-9.867-9.867c0-5.44 4.426-9.867 9.867-9.867z"/><path d="m63.905 144.311c13.712 0 24.867-11.155 24.867-24.867s-11.155-24.867-24.867-24.867c-13.711 0-24.867 11.155-24.867 24.867.001 13.712 11.156 24.867 24.867 24.867zm0-34.734c5.441 0 9.867 4.426 9.867 9.867 0 5.44-4.426 9.867-9.867 9.867-5.44 0-9.867-4.426-9.867-9.867.001-5.441 4.427-9.867 9.867-9.867z"/><path d="m424.697 178.269c20.068 0 36.394-16.326 36.394-36.394s-16.326-36.394-36.394-36.394c-20.067 0-36.394 16.326-36.394 36.394s16.327 36.394 36.394 36.394zm0-57.787c11.797 0 21.394 9.597 21.394 21.394s-9.597 21.394-21.394 21.394c-11.796 0-21.394-9.597-21.394-21.394s9.598-21.394 21.394-21.394z"/><path d="m324.12 228.136c17.862 0 32.393-14.531 32.393-32.393s-14.531-32.393-32.393-32.393-32.393 14.531-32.393 32.393 14.531 32.393 32.393 32.393zm0-49.786c9.59 0 17.393 7.803 17.393 17.393s-7.803 17.393-17.393 17.393-17.393-7.803-17.393-17.393 7.803-17.393 17.393-17.393z"/><path d="m142.563 224.955c23.87 0 43.29-19.419 43.29-43.29s-19.42-43.29-43.29-43.29c-8.674 0-17.045 2.558-24.209 7.397-3.432 2.319-4.335 6.981-2.016 10.414 2.32 3.432 6.981 4.334 10.414 2.016 4.674-3.158 10.142-4.827 15.812-4.827 15.599 0 28.29 12.691 28.29 28.29s-12.691 28.29-28.29 28.29-28.29-12.69-28.29-28.29c0-4.142-3.358-7.5-7.5-7.5s-7.5 3.358-7.5 7.5c0 23.871 19.419 43.29 43.289 43.29z"/><circle cx="72.736" cy="232.254" r="7.5"/><circle cx="255.99" cy="203.243" r="7.5"/><circle cx="349.013" cy="126.944" r="7.5"/><circle cx="413.021" cy="374.787" r="7.5"/><circle cx="224.485" cy="358.056" r="7.5"/></g></svg>