<svg id="outline" enable-background="new 0 0 512 512" height="512" viewBox="0 0 512 512" width="512" xmlns="http://www.w3.org/2000/svg"><g><path d="m298.3427734 202.3427734 11.3144531 11.3144531 80-80c3.1240234-3.125 3.1240234-8.1894531 0-11.3144531l-104-104-11.3144531 11.3144531 98.34375 98.3427735z"/><path d="m208 180.6865234v-36.6865234h16c4.4179688 0 8-3.5820313 8-8v-24h-16v16h-16c-4.4179688 0-8 3.5820313-8 8v64c0 3.2353516 1.9492188 6.1523438 4.9384766 7.390625.9902343.4101563 2.0292968.609375 3.0595703.609375 2.0820313 0 4.1289063-.8125 5.6591797-2.3427734l72-72c3.1240234-3.125 3.1240234-8.1894531 0-11.3144531l-104-104-11.3144531 11.3144531 98.3437499 98.3427734z"/><path d="m493.6572266 306.3427734-56-56c-1.5009766-1.5-3.5351563-2.3427734-5.6572266-2.3427734h-40v-8c0-4.4179688-3.5820313-8-8-8h-56c-4.4179688 0-8 3.5820313-8 8v64h-16c-2.1220703 0-4.15625.8427734-5.6572266 2.3427734l-16 16c-1.5 1.5009766-2.3427734 3.5351563-2.3427734 5.6572266v40h-16v-32h-16v32h-152v-96h-16v104c0 4.4179688 3.5820313 8 8 8h200c4.4179688 0 8-3.5820313 8-8v-44.6865234l11.3134766-11.3134766h12.6865234v16c0 4.4179688 3.5820313 8 8 8h80c2.1220703 0 4.15625-.8427734 5.6572266-2.3427734l24-24c3.1240234-3.125 3.1240234-8.1894531 0-11.3144531l-24-24c-1.5009766-1.5000001-3.5351563-2.3427735-5.6572266-2.3427735h-16v-16h36.6865234l48 48-50.34375 50.3427734c-1.5 1.5009766-2.3427734 3.5351563-2.3427734 5.6572266v44.6865234l-19.3134766 19.3134766h-372.6865234v-216h80c4.4179688 0 8-3.5820313 8-8v-48c0-4.4179688-3.5820313-8-8-8h-17.5830078l-12.4443359-56h14.0273437c4.4179688 0 8-3.5820313 8-8v-24h-16v16h-16c-2.4267578 0-4.7216797 1.1015625-6.2402344 2.9941406s-2.0957031 4.3720703-1.5693359 6.7412109l16 72c.8134766 3.6601563 4.0595703 6.2646485 7.8095703 6.2646485h16v32h-80c-4.4179688 0-8 3.5820313-8 8v232c0 4.4179688 3.5820313 8 8 8h56v48h16v-48h152v48h16v-48h56v40c0 4.4179688 3.5820313 8 8 8h80c4.4179688 0 8-3.5820313 8-8v-44.6855469l21.6572266-21.6572266c1.5-1.5009765 2.3427734-3.5351562 2.3427734-5.6572265v-44.6865234l53.6572266-53.65625c3.1240234-3.125 3.1240234-8.1894532 0-11.3144532zm-77.6572266 10.34375v-9.3730469l4.6865234 4.6865235zm-16-20.6865234v32h-64v-16-64h40v8 32c0 4.4179688 3.5820313 8 8 8zm-64 184v-32h64v32z"/><path d="m256 248h16v16h-16z"/><path d="m224 248h16v16h-16z"/><path d="m192 248h16v16h-16z"/><path d="m264.575 280h16v15.999h-16z" transform="matrix(.866 -.5 .5 .866 -107.485 174.883)"/><path d="m236.862 296h16v15.999h-16z" transform="matrix(.866 -.5 .5 .866 -119.199 163.17)"/><path d="m209.149 312h16v15.999h-16z" transform="matrix(.866 -.5 .5 .866 -130.913 151.457)"/><path d="m311.2158203 237.0722656-13.8564453-8-8 13.8554688 8.7856445 5.0722656h-10.1450195v16h10.1450195l-8.7856445 5.0722656 8 13.8554688 13.8564453-8-7.2158203-12.4973145v-12.8608398z"/><path d="m264.575 216h15.999v16h-15.999z" transform="matrix(.5 -.866 .866 .5 -57.706 348.047)"/><path d="m236.862 200h15.999v16h-15.999z" transform="matrix(.5 -.866 .866 .5 -57.706 316.048)"/></g></svg>