<?xml version="1.0" encoding="iso-8859-1"?>
<!-- Generator: Adobe Illustrator 19.0.0, SVG Export Plug-In . SVG Version: 6.00 Build 0)  -->
<svg version="1.1" id="Capa_1" xmlns="http://www.w3.org/2000/svg" xmlns:xlink="http://www.w3.org/1999/xlink" x="0px" y="0px"
	 viewBox="0 0 512.001 512.001" style="enable-background:new 0 0 512.001 512.001;" xml:space="preserve">
<g>
	<g>
		<path d="M297.336,469.457c-2.922-2.935-7.67-2.948-10.607-0.028c-2.192,2.18-5.76,2.181-7.952-0.001
			c-2.937-2.92-7.686-2.907-10.606,0.03c-2.921,2.936-2.908,7.686,0.029,10.607c4.013,3.99,9.283,5.985,14.553,5.985
			s10.542-1.995,14.554-5.986C300.245,477.143,300.258,472.395,297.336,469.457z"/>
	</g>
</g>
<g>
	<g>
		<path d="M250.26,459.025c-2.921-2.935-7.669-2.948-10.607-0.028c-2.192,2.18-5.759,2.18-7.951,0
			c-2.936-2.922-7.686-2.909-10.606,0.028c-2.921,2.937-2.909,7.686,0.028,10.606c4.013,3.991,9.282,5.986,14.554,5.986
			c5.27,0,10.542-1.996,14.554-5.986C253.169,466.71,253.182,461.961,250.26,459.025z"/>
	</g>
</g>
<g>
	<g>
		<path d="M201.691,469.458c-2.919-2.936-7.668-2.951-10.605-0.03c-2.193,2.182-5.76,2.18-7.953,0
			c-2.937-2.92-7.686-2.907-10.607,0.03c-2.921,2.936-2.908,7.686,0.029,10.607c4.013,3.99,9.282,5.984,14.553,5.984
			c5.27,0,10.541-1.995,14.553-5.984C204.599,477.144,204.612,472.395,201.691,469.458z"/>
	</g>
</g>
<g>
	<g>
		<path d="M154.617,459.026c-2.92-2.937-7.668-2.95-10.606-0.03c-2.192,2.183-5.759,2.183-7.951,0.002
			c-2.935-2.921-7.684-2.91-10.606,0.026c-2.922,2.936-2.91,7.685,0.026,10.606c4.012,3.992,9.282,5.988,14.554,5.988
			c5.27,0,10.541-1.996,14.554-5.986C157.525,466.711,157.538,461.962,154.617,459.026z"/>
	</g>
</g>
<g>
	<g>
		<path d="M106.049,469.457c-2.921-2.935-7.67-2.948-10.608-0.028c-2.191,2.181-5.76,2.181-7.953-0.001
			c-2.937-2.92-7.686-2.905-10.606,0.03c-2.92,2.938-2.907,7.686,0.03,10.607c4.013,3.99,9.283,5.984,14.554,5.984
			s10.541-1.995,14.554-5.985C108.957,477.143,108.97,472.395,106.049,469.457z"/>
	</g>
</g>
<g>
	<g>
		<path d="M58.973,459.025c-2.92-2.935-7.668-2.948-10.606-0.028c-2.192,2.182-5.76,2.18-7.952,0
			c-2.937-2.922-7.686-2.909-10.606,0.028c-2.921,2.937-2.909,7.686,0.028,10.606c4.013,3.991,9.283,5.987,14.554,5.987
			s10.542-1.996,14.554-5.987C61.882,466.71,61.895,461.961,58.973,459.025z"/>
	</g>
</g>
<g>
	<g>
		<path d="M319.046,402.963c-2.4-0.426-3.933-1.403-6.06-2.759c-3.739-2.381-8.393-5.345-17.13-5.345
			c-8.734,0-13.39,2.963-17.136,5.348c-2.828,1.805-4.696,2.996-9.065,2.996c-4.367,0-6.238-1.192-9.072-2.998
			c-3.738-2.382-8.391-5.346-17.13-5.346c-8.734,0-13.387,2.963-17.13,5.346c-2.832,1.806-4.704,2.998-9.067,2.998
			c-4.369,0-6.241-1.192-9.074-2.998c-3.738-2.382-8.39-5.346-17.128-5.346c-8.737,0-13.391,2.963-17.136,5.348
			c-2.829,1.804-4.697,2.996-9.066,2.996c-4.366,0-6.238-1.192-9.072-2.998c-3.738-2.382-8.39-5.346-17.132-5.346
			c-8.736,0-13.389,2.963-17.139,5.352c-2.834,1.802-4.706,2.992-9.067,2.992c-4.365,0-6.238-1.192-9.071-2.996
			c-3.74-2.383-8.395-5.348-17.132-5.348c-8.735,0-13.389,2.962-17.137,5.348c-2.832,1.804-4.704,2.996-9.069,2.996
			c-4.371,0-6.241-1.191-9.082-3.002c-3.739-2.38-8.393-5.342-17.127-5.342c-8.74,0-13.394,2.964-17.132,5.346
			c-2.127,1.353-3.664,2.331-6.066,2.758c-6.09,1.08-10.511,6.345-10.511,12.519v11.312v14.154v47.913
			c0,12.759,10.417,23.14,23.221,23.14h283.001c12.805,0,23.222-10.381,23.222-23.14v-47.913v-14.154v-11.312
			C329.558,409.307,325.136,404.042,319.046,402.963z M314.558,488.86c0,4.489-3.689,8.14-8.223,8.14H23.334
			c-4.533,0-8.221-3.651-8.221-8.14v-40.413h231.886c4.142,0,7.5-3.357,7.5-7.5s-3.358-7.5-7.5-7.5H15.113v-16.113
			c4.286-1.073,7.217-2.939,9.634-4.477c3.035-1.934,4.707-2.998,9.075-2.998c4.366,0,6.038,1.064,9.076,2.998
			c3.54,2.256,8.389,5.346,17.133,5.346c8.738,0,13.587-3.09,17.133-5.348c3.035-1.932,4.707-2.996,9.074-2.996
			c4.366,0,6.038,1.065,9.074,2.999c3.543,2.256,8.394,5.345,17.129,5.345c8.728,0,13.577-3.084,17.136-5.348
			c3.034-1.932,4.705-2.996,9.07-2.996c4.369,0,6.04,1.064,9.072,2.996c3.542,2.257,8.394,5.348,17.132,5.348
			c8.746,0,13.593-3.092,17.128-5.347c3.035-1.933,4.708-2.997,9.074-2.997c4.365,0,6.036,1.064,9.067,2.996
			c3.542,2.257,8.392,5.348,17.135,5.348c8.736,0,13.587-3.091,17.128-5.348c3.034-1.932,4.705-2.996,9.069-2.996
			c4.367,0,6.038,1.064,9.07,2.996c3.542,2.257,8.392,5.348,17.132,5.348c8.746,0,13.593-3.092,17.126-5.346
			c3.037-1.934,4.71-2.998,9.075-2.998c4.367,0,6.039,1.064,9.074,2.997c2.411,1.537,5.34,3.404,9.628,4.478v16.113h-23.558
			c-4.142,0-7.5,3.357-7.5,7.5s3.358,7.5,7.5,7.5h23.559V488.86z"/>
	</g>
</g>
<g>
	<g>
		<path d="M497.399,5.416C479.678,1.822,461.014,0,441.926,0c-46.245,0-90.446,11.051-121.678,30.371
			c-10.831-13.225-24.626-20.479-39.035-20.479c-16.497,0-31.815,9.185-43.133,25.862c-3.306,4.872-6.15,10.227-8.508,15.944
			l-36.363,3.462c-6.598,0.628-11.767,6.312-11.767,12.939v1.304l-14.629,1.016c-6.711,0.467-11.968,6.102-11.968,12.829
			l-0.001,22.256c0,6.726,5.256,12.361,11.967,12.829l14.63,1.019v1.302c0,6.63,5.169,12.313,11.766,12.94l36.367,3.465
			c2.357,5.717,5.202,11.069,8.507,15.94c11.317,16.675,26.635,25.858,43.131,25.858c14.402,0,28.195-7.25,39.036-20.473
			c8.399,5.194,17.816,9.844,28.02,13.835c3.857,1.507,8.208-0.396,9.716-4.254c1.509-3.857-0.396-8.208-4.254-9.717
			c-9.987-3.905-19.107-8.471-27.101-13.568c-5.618-3.586-12.923-2.314-16.988,2.949c-8.109,10.465-18.206,16.227-28.429,16.227
			c-11.371,0-22.28-6.848-30.72-19.282c-4.58-6.747-8.112-14.652-10.489-23.281l97.268-15.671
			c5.887,12.009,21.429,22.4,45.825,30.462c28.696,9.482,66.702,14.705,107.018,14.705c2.234,0,4.498-0.02,6.77-0.055v14.869
			c0,1.467-1.038,2.741-2.467,3.031c-16.746,3.398-34.406,5.121-52.492,5.121c-16.19,0-32.201-1.415-47.589-4.207
			c-4.081-0.738-7.979,1.965-8.718,6.041c-0.74,4.076,1.965,7.98,6.041,8.719c16.27,2.951,33.182,4.447,50.267,4.447
			c19.085,0,37.75-1.823,55.475-5.42c8.393-1.704,14.484-9.161,14.484-17.732V23.146C511.885,14.581,505.795,7.125,497.399,5.416z
			 M181.442,104.314l-11.598-0.806l0.001-18.263l11.597-0.806V104.314z M196.441,118.833l0.001-48.913l28.152-2.68
			c-2.05,8.634-3.127,17.774-3.127,27.137c0,9.363,1.078,18.504,3.128,27.139L196.441,118.833z M496.885,38.02
			c-2.256-0.034-4.517-0.054-6.77-0.054c-17.883,0-35.386,1.025-52.021,3.049c-4.112,0.5-7.04,4.239-6.54,8.351
			s4.239,7.036,8.351,6.54c16.037-1.95,32.93-2.939,50.21-2.939c2.253,0,4.515,0.018,6.77,0.052v82.717
			c-2.275,0.035-4.537,0.053-6.771,0.053c-87.057,0-140.517-24.121-140.521-41.412c0-8.427,13.684-21.742,52.251-31.535
			c4.015-1.02,6.442-5.101,5.423-9.115c-1.02-4.015-5.097-6.442-9.116-5.424c-38.442,9.762-60.684,24.763-63.298,42.516
			l-97.68,15.737c-0.459-3.981-0.707-8.049-0.707-12.179c0-19.046,4.981-36.874,14.024-50.2c8.44-12.437,19.35-19.285,30.722-19.285
			c10.225,0,20.319,5.765,28.427,16.236c4.074,5.256,11.375,6.524,16.986,2.949C355.601,25.599,397.625,15,441.926,15
			c18.089,0,35.75,1.722,52.487,5.116c1.432,0.291,2.472,1.565,2.472,3.03V38.02z"/>
	</g>
</g>
<g>
	<g>
		<path d="M422.049,76.4c-4.142,0-7.5,3.357-7.5,7.5v20.957c0,4.143,3.358,7.5,7.5,7.5c4.142,0,7.5-3.357,7.5-7.5V83.9
			C429.549,79.758,426.191,76.4,422.049,76.4z"/>
	</g>
</g>
<g>
	<g>
		<path d="M450.999,68.359c-4.142,0-7.5,3.357-7.5,7.5v37.038c0,4.143,3.358,7.5,7.5,7.5c4.142,0,7.5-3.357,7.5-7.5V75.859
			C458.499,71.717,455.141,68.359,450.999,68.359z"/>
	</g>
</g>
<g>
	<g>
		<path d="M130.465,129.385c-14.127,0-25.62,11.474-25.62,25.577c0,14.103,11.493,25.577,25.62,25.577
			c14.126,0,25.618-11.474,25.618-25.577C156.083,140.859,144.591,129.385,130.465,129.385z M130.465,165.539
			c-5.856,0-10.62-4.745-10.62-10.577c0-5.832,4.764-10.577,10.62-10.577c5.855,0,10.618,4.745,10.618,10.577
			C141.083,160.794,136.32,165.539,130.465,165.539z"/>
	</g>
</g>
<g>
	<g>
		<path d="M153.87,316.251l-16.512-28.462c-2.052-3.543-5.874-5.743-9.975-5.743c-4.101,0-7.922,2.199-9.97,5.735l-16.52,28.466
			c-4.626,5.872-7.166,13.188-7.166,20.674c0.001,18.481,15.099,33.517,33.656,33.517c18.555,0,33.651-15.035,33.651-33.517
			C161.034,329.445,158.494,322.131,153.87,316.251z M127.384,355.438c-10.287,0-18.656-8.307-18.656-18.517
			c0-4.242,1.48-8.386,4.169-11.665c0.255-0.312,0.484-0.643,0.687-0.99l13.799-23.779l13.795,23.778
			c0.201,0.346,0.429,0.676,0.683,0.985c2.691,3.29,4.174,7.435,4.174,11.671C146.035,347.131,137.668,355.438,127.384,355.438z"/>
	</g>
</g>
<g>
	<g>
		<path d="M207.393,228.694l-13.89-23.942c-1.941-3.345-5.553-5.422-9.425-5.422c-3.874,0-7.487,2.078-9.427,5.423l-13.892,23.939
			c-4.031,5.149-6.245,11.551-6.245,18.099c0.001,16.237,13.263,29.447,29.565,29.447c16.298,0,29.558-13.21,29.558-29.448
			C213.637,240.249,211.424,233.85,207.393,228.694z M184.079,261.237c-8.03,0-14.564-6.482-14.564-14.448
			c0-3.306,1.155-6.537,3.252-9.096c0.255-0.311,0.484-0.642,0.686-0.989l10.624-18.309l10.621,18.308
			c0.201,0.347,0.429,0.676,0.683,0.985c2.1,2.566,3.256,5.799,3.256,9.101C198.637,254.756,192.106,261.237,184.079,261.237z"/>
	</g>
</g>
<g>
</g>
<g>
</g>
<g>
</g>
<g>
</g>
<g>
</g>
<g>
</g>
<g>
</g>
<g>
</g>
<g>
</g>
<g>
</g>
<g>
</g>
<g>
</g>
<g>
</g>
<g>
</g>
<g>
</g>
</svg>
