<svg id="Capa_1" enable-background="new 0 0 512.06 512.06" height="512" viewBox="0 0 512.06 512.06" width="512" xmlns="http://www.w3.org/2000/svg"><g><path d="m504.56 379.197h-23.5v-100.399c0-4.143-3.358-7.5-7.5-7.5s-7.5 3.357-7.5 7.5v100.399h-420.05v-147.87c0-12.958 10.542-23.5 23.5-23.5h373.05c12.958 0 23.5 10.542 23.5 23.5v14.78c0 4.143 3.358 7.5 7.5 7.5s7.5-3.357 7.5-7.5v-14.78c0-21.229-17.271-38.5-38.5-38.5h-47.245l84.238-112.246c2.302-4.386 1.765-7.913-1.609-10.583-20.106-19.275-52.142-19.016-71.943.785-14.061 14.061-37.462 14.041-51.518-.015-20.049-20.048-52.668-20.047-72.731.015-14.2 14.201-37.304 14.2-51.518-.015-20.048-20.048-52.669-20.047-72.731.015-14.05 14.05-37.452 14.05-51.503.001-19.675-19.678-53.067-19.669-72.733.017-2.542 2.544-2.894 6.522-.875 9.499.189.279.395.542.614.787l83.805 111.74h-47.3c-21.229 0-38.5 17.271-38.5 38.5v147.87h-23.511c-4.142 0-7.5 3.357-7.5 7.5v31.07c0 4.143 3.358 7.5 7.5 7.5h23.535v23.559c0 4.143 3.358 7.5 7.5 7.5h62.184c4.142 0 7.5-3.357 7.5-7.5v-23.559h203.711c4.142 0 7.5-3.357 7.5-7.5s-3.358-7.5-7.5-7.5h-296.93v-16.07h482.06v16.07h-152.45c-4.142 0-7.5 3.357-7.5 7.5s3.358 7.5 7.5 7.5h59.202v23.559c0 4.143 3.358 7.5 7.5 7.5h62.184c4.142 0 7.5-3.357 7.5-7.5v-23.559h23.564c4.142 0 7.5-3.357 7.5-7.5v-31.07c0-4.143-3.358-7.5-7.5-7.5zm-455.702-301.973c14.539-10.148 34.295-8.075 46.535 4.166 19.849 19.848 52.888 19.827 72.731-.015 14.2-14.201 37.304-14.2 51.518.015 19.849 19.847 52.888 19.828 72.731-.015 14.2-14.201 37.304-14.2 51.518.015 19.848 19.847 52.888 19.827 72.731-.015 11.958-11.958 32.527-14.02 46.648-4.087l-86.709 115.538h-29.578l39.729-66.299c2.129-3.554.975-8.16-2.579-10.289s-8.16-.974-10.288 2.578l-44.35 74.01h-24.52l20.342-68.005c1.187-3.969-1.068-8.147-5.036-9.335-3.968-1.186-8.148 1.068-9.335 5.036l-21.628 72.304h-25.764l-.069-70.162c-.004-4.14-3.361-7.492-7.5-7.492h-.007c-4.142.004-7.497 3.365-7.493 7.508l.069 70.146h-25.709l-21.746-72.314c-1.193-3.967-5.377-6.211-9.342-5.022-3.967 1.193-6.215 5.376-5.022 9.343l20.447 67.994h-24.486l-44.457-74.016c-2.132-3.551-6.74-4.699-10.291-2.568-3.551 2.133-4.7 6.74-2.567 10.291l39.818 66.293h-29.64zm44.361 364.102h-47.184v-16.059h47.184zm372.777 0h-47.184v-16.059h47.184z"/><path d="m233.61 317.077c-4.142 0-7.5 3.357-7.5 7.5s3.358 7.5 7.5 7.5h146.7c4.142 0 7.5-3.357 7.5-7.5v-62.119c0-4.143-3.358-7.5-7.5-7.5h-248.56c-4.142 0-7.5 3.357-7.5 7.5v62.119c0 4.143 3.358 7.5 7.5 7.5h69.18c4.142 0 7.5-3.357 7.5-7.5s-3.358-7.5-7.5-7.5h-61.68v-47.119h233.56v47.119z"/></g></svg>