<svg id="Capa_1" enable-background="new 0 0 512.121 512.121" height="512" viewBox="0 0 512.121 512.121" width="512" xmlns="http://www.w3.org/2000/svg"><g><path d="m224.939 434.993h-31.062c-4.142 0-7.5 3.357-7.5 7.5s3.358 7.5 7.5 7.5h31.062c4.142 0 7.5-3.357 7.5-7.5s-3.358-7.5-7.5-7.5z"/><path d="m287.063 434.993h-31.062c-4.142 0-7.5 3.357-7.5 7.5s3.358 7.5 7.5 7.5h31.062c4.142 0 7.5-3.357 7.5-7.5s-3.358-7.5-7.5-7.5z"/><path d="m473.56 92.03c4.142 0 7.5-3.357 7.5-7.5v-45.97c0-21.262-17.297-38.56-38.56-38.56h-403.94c-4.142 0-7.5 3.357-7.5 7.5v31.3c0 4.143 3.358 7.5 7.5 7.5h388.7c4.136 0 7.5 3.364 7.5 7.5v140.67c0 4.136-3.364 7.5-7.5 7.5h-8.45v-54.51c0-29.825-24.265-54.09-54.09-54.09h-43.21c-4.142 0-7.5 3.357-7.5 7.5s3.358 7.5 7.5 7.5h43.21c21.554 0 39.09 17.536 39.09 39.09v155.311c0 21.56-17.536 39.1-39.09 39.1h-149.023c10.311-9.857 16.743-23.741 16.743-39.1v-45.66c0-4.143-3.358-7.5-7.5-7.5s-7.5 3.357-7.5 7.5v45.66c0 21.56-17.536 39.1-39.1 39.1-21.554 0-39.09-17.54-39.09-39.1v-54.5h16.06v7.909c0 12.699 10.336 23.03 23.04 23.03 12.699 0 23.03-10.331 23.03-23.03v-62.119c-1.315-14.04-8.991-21.72-23.03-23.04-12.704 0-23.04 10.336-23.04 23.04v7.909h-16.06v-54.51c0-21.555 17.536-39.09 39.1-39.09 21.554 0 39.09 17.535 39.09 39.09v76.96c0 4.143 3.358 7.5 7.5 7.5s7.5-3.357 7.5-7.5v-76.96c0-15.354-6.431-29.235-16.742-39.09h73.132c4.142 0 7.5-3.357 7.5-7.5s-3.358-7.5-7.5-7.5h-110.49c-29.825 0-54.09 24.265-54.09 54.09v54.51h-23.788c-7.232-9.601-18.681-15.41-30.832-15.41-21.268 0-38.57 17.298-38.57 38.561s17.302 38.561 38.57 38.561c12.153 0 23.603-5.812 30.833-15.41h23.788v256.35c1.178 6.369 4.855 8.575 11.029 6.618l25.591-13.648 25.591 13.648c2.206 1.176 4.853 1.177 7.059-.001l25.591-13.647 25.602 13.648c2.206 1.177 4.853 1.177 7.058-.001l25.59-13.647 25.591 13.648c2.206 1.176 4.853 1.176 7.059 0l25.588-13.65 25.591 13.648c4.558 2.43 11.029-.791 11.029-6.618v-148.268c26.289-3.663 46.59-26.295 46.59-53.581v-54.5h23.69c21.262 0 38.56-17.298 38.56-38.561v-92.5c0-4.143-3.358-7.5-7.5-7.5s-7.5 3.357-7.5 7.5v92.5c0 12.991-10.569 23.561-23.56 23.561h-23.69v-16.301h8.45c12.407 0 22.5-10.094 22.5-22.5v-140.67c0-12.406-10.093-22.5-22.5-22.5h-381.2v-16.3h396.44c12.991 0 23.56 10.569 23.56 23.561v45.97c0 4.142 3.358 7.499 7.5 7.499zm-366.239 124.94h79.059v16.301h-79.059c1.159-5.434 1.159-10.868 0-16.301zm71.029 47.24c-4.433 0-8.04-3.603-8.04-8.03v-7.909h16.07v7.909c0 4.427-3.602 8.03-8.03 8.03zm-8.04-70.149c0-4.434 3.607-8.04 8.04-8.04 4.897.462 7.573 3.142 8.03 8.04v7.909h-16.07zm-100.68 54.62c-12.997 0-23.57-10.569-23.57-23.561s10.573-23.561 23.57-23.561c12.925 0 23.56 10.748 23.56 23.561s-10.634 23.561-23.56 23.561zm269.5 233.791c-2.206-1.176-4.853-1.176-7.059 0l-25.591 13.648-25.591-13.648c-2.206-1.176-4.853-1.176-7.059 0l-25.59 13.648-25.602-13.648c-2.205-1.176-4.852-1.176-7.058 0l-25.59 13.648-25.59-13.648c-2.206-1.176-4.853-1.176-7.059 0l-18.091 9.648v-42.127h23.564c4.142 0 7.5-3.357 7.5-7.5s-3.358-7.5-7.5-7.5h-23.564v-94.868c9.856 10.312 23.74 16.745 39.1 16.745h178.87v78.123h-39.095c-4.142 0-7.5 3.357-7.5 7.5s3.358 7.5 7.5 7.5h39.095v42.127z"/></g></svg>