<svg height="512" viewBox="0 0 64 64" width="512" xmlns="http://www.w3.org/2000/svg"><g id="Layer_11" data-name="Layer 11"><path d="m52 1h-40a4 4 0 0 0 -4 4v54a4 4 0 0 0 4 4h40a4 4 0 0 0 4-4v-54a4 4 0 0 0 -4-4zm-40 2h4.937a8.192 8.192 0 0 1 -.161.887l1.944.47a10.1 10.1 0 0 0 .219-1.357h33.061a2 2 0 0 1 2 2v9h-44v-2.055a9.888 9.888 0 0 0 1.2-.189l-.438-1.951c-.252.057-.507.1-.764.128v-4.933a2 2 0 0 1 2.002-2zm11 53v1a4 4 0 0 1 -8 0v-4h17a1 1 0 0 1 0 2h-8a1 1 0 0 0 -1 1zm-8-5a1 1 0 0 1 0-2 .99.99 0 0 1 .559.171 1 1 0 0 0 1.5-.5 1.022 1.022 0 0 1 .079-.171 1 1 0 0 0 0-1.005.984.984 0 0 1 -.138-.495 1 1 0 0 1 1.937-.327 1 1 0 0 0 1.5.5 1 1 0 0 1 1.563.827 1 1 0 0 0 1 1 1 1 0 0 1 0 2zm8.871-3.871a3 3 0 0 0 -3.571-2.046 2.993 2.993 0 0 0 -5.3 1.917 2.985 2.985 0 0 0 -2.22 1h-2.78v-32h44v32h-28.778a3 3 0 0 0 -1.351-.871zm-13.871 11.871v-9h2a2.985 2.985 0 0 0 1 2.22v4.78a5.969 5.969 0 0 0 1.54 4h-2.54a2 2 0 0 1 -2-2zm42 2h-28.54a5.969 5.969 0 0 0 1.54-4h7a3 3 0 0 0 0-6h-6.184a2.966 2.966 0 0 0 .184-1h28v9a2 2 0 0 1 -2 2z"/><path d="m39 37h-1v-6.382l.553.277a1 1 0 0 0 1.247-.295l3-4a1 1 0 0 0 -.175-1.381l-5-4a1 1 0 0 0 -.625-.219h-2a1 1 0 0 0 -1 1 2 2 0 0 1 -4 0 1 1 0 0 0 -1-1h-2a1 1 0 0 0 -.625.219l-5 4a1 1 0 0 0 -.175 1.381l3 4a1 1 0 0 0 1.247.295l.553-.277v6.382h-1a3 3 0 0 0 0 6h14a3 3 0 0 0 0-6zm-11-8v-2h-2v1.382l-.7.35-1.918-2.557 3.969-3.175h.775a4 4 0 0 0 7.748 0h.775l3.97 3.175-1.919 2.557-.7-.35v-1.382h-2v10h-8zm11 12h-14a1 1 0 0 1 0-2h14a1 1 0 0 1 0 2z"/><path d="m44 31h-1v-1h-2v1h-1v2h1v1h2v-1h1z"/><path d="m23 23v-1h1v-2h-1v-1h-2v1h-1v2h1v1z"/><path d="m17.961 6.442-1.791-.889a8.013 8.013 0 0 1 -.96 1.491l1.552 1.262a10.017 10.017 0 0 0 1.199-1.864z"/><path d="m15.183 9.86-1.238-1.571a7.958 7.958 0 0 1 -1.506.937l.86 1.8a9.975 9.975 0 0 0 1.884-1.166z"/></g></svg>