<svg id="Capa_1" enable-background="new 0 0 511.939 511.939" height="512" viewBox="0 0 511.939 511.939" width="512" xmlns="http://www.w3.org/2000/svg"><g><path d="m39.618 30.478h62.125c4.142 0 7.5-3.357 7.5-7.5s-3.358-7.5-7.5-7.5h-62.125c-4.142 0-7.5 3.357-7.5 7.5s3.358 7.5 7.5 7.5z"/><path d="m42.972 91.759 62.125-31.062c3.705-1.853 5.207-6.357 3.354-10.062-1.852-3.704-6.357-5.206-10.062-3.354l-62.125 31.062c-3.705 1.853-5.194 6.351-3.354 10.062 1.644 3.315 5.644 5.69 10.062 3.354z"/><path d="m478.834 192.22c4.143 0 7.5-3.357 7.5-7.5v-37.47c0-4.143-3.357-7.5-7.5-7.5h-38.46c-15.026 0-28.975-7.462-37.309-19.958-10.994-16.503-29.923-26.631-49.748-26.652l-26.644-.015v-8.135c0-12.958 10.542-23.5 23.5-23.5h16.03c8.85 0 11.183-7.45 5.298-12.81l-46.59-46.49c-1.406-1.402-3.311-2.19-5.298-2.19h-42.029c-4.143 0-7.5 3.357-7.5 7.5s3.357 7.5 7.5 7.5h38.928l31.612 31.543c-20.279 1.07-36.45 17.905-36.45 38.446v8.091h-65.697l-28.844-43.252c-1.391-2.086-3.732-3.339-6.24-3.339h-39.53l.004-31.489h73.537c4.142 0 7.5-3.357 7.5-7.5s-3.358-7.5-7.5-7.5h-81.04c-4.103 0-7.435 3.294-7.499 7.382h-23.561c-4.142 0-7.5 3.357-7.5 7.5v31.062c0 4.143 3.358 7.5 7.5 7.5h23.559c.375 3.984 2.84 8.045 7.5 8.045h21.012l-9.413 31.671h-65.709c-16.935 0-31.04 14.104-31.04 31.04 0 17.115 13.924 31.039 31.04 31.039h50.955c-7.405 12.36-4.457 29.766 6.334 39.095-14.025 12.129-14.025 34.465 0 46.594-20.56 17.781-7.49 54.093 20.121 54.093h16.112c-10.704 11.115-24.347 20.056-36.358 29.663-16.577 13.264-26.084 33.047-26.084 54.276v94.479c0 21.229 17.271 38.5 38.5 38.5h51.51c4.142 0 7.5-3.357 7.5-7.5s-3.358-7.5-7.5-7.5h-51.51c-12.958 0-23.5-10.542-23.5-23.5v-85.721h124.78v85.401c0 4.143 3.357 7.5 7.5 7.5s7.5-3.357 7.5-7.5v-85.401h31.903l.097 85.7c-1.333 14.333-9.167 22.173-23.5 23.521h-40.579c-4.143 0-7.5 3.357-7.5 7.5s3.357 7.5 7.5 7.5h40.579c21.017 0 38.526-17.518 38.5-38.538l-.201-178.892h48.002c15.931 0 31.524-6.458 42.777-17.712 11.715-11.691 29.653-15.295 45.643-13.328 4.143 0 7.5-3.357 7.5-7.5v-38.56c0-4.143-3.357-7.5-7.5-7.5s-7.5 3.357-7.5 7.5v31.06c-17.972-1.044-35.813 4.812-48.744 17.717-8.466 8.467-20.194 13.323-32.176 13.323h-48.02l-.131-116.739c-.005-4.139-3.361-7.491-7.5-7.491h-58.11c-1.989 0-3.896.79-5.304 2.196l-22.959 22.961c-8.582 8.581-24.189 8.714-32.907.299-9.366-11.321-9.277-22.683.266-34.086l32.08-31.759c3.994-3.953 9.163-6.305 14.709-6.73l90.766-.021c15.766.423 28.193 7.08 37.279 19.972 11.125 16.681 29.738 26.639 49.79 26.639h30.96v29.97c.001 4.142 3.358 7.5 7.501 7.5zm-338.529-153.776v-16.062h16.059v16.062zm66.575 23.045 14.799 22.191-28.011 24.01c-2.483 1.73-4.565 1.027-6.249-2.109l13.105-44.092zm-5.938 125.341h-13.779c-8.712 0-15.8-7.083-15.8-15.79.896-9.635 6.163-14.902 15.8-15.801h7.369c-2.478 10.613-.478 22.447 6.41 31.591zm-29.575 30.801c0-8.71 7.086-15.797 15.796-15.797 0 0 45.611.537 48.918.171 7.612 1.128 13.472 7.706 13.472 15.626 0 8.71-7.086 15.797-15.797 15.797h-46.593c-8.709 0-15.796-7.087-15.796-15.797zm0 46.593c0-8.71 7.086-15.796 15.796-15.796h46.593c8.71 0 15.797 7.086 15.797 15.796s-7.086 15.797-15.797 15.797h-46.593c-8.709 0-15.796-7.087-15.796-15.797zm156.133 108.495h-31.887v-202.44h31.659zm-46.887-202.44v202.439h-124.427c1.618-14.242 8.744-27.234 20.102-36.321 15.346-12.275 35.226-24.634 46.033-41.377h11.436c38.989-.412 35.964-46.593 20.121-54.093 14.509-7.5 15.843-34.958.624-46.039 8.139-4.087 13.882-10.422 26.111-24.609zm-79.12-30.04h-91.74c-8.845 0-16.04-7.195-16.04-16.039.919-9.777 6.265-15.123 16.04-16.04h62.885c2.458 13.495 20.357 19.863 30.792 10.918l12.738-10.918h17.138s-30.687 30.581-31.813 32.079z"/><path d="m111.315 233.923c-18.742-8.169-29.303-27.122-33.476-46.333-.98-3.136-3.884-5.264-7.158-5.264-.049 0-.098 0-.146.001-3.334.064-6.225 2.322-7.095 5.542-3.453 19.189-14.822 37.472-33.275 45.338-2.743 1.169-4.533 3.853-4.559 6.834-.026 2.982 1.717 5.696 4.439 6.913 18.742 8.169 29.302 27.123 33.476 46.333 2.219 7.104 12.424 7.023 14.399-.279 3.453-19.189 14.822-37.472 33.275-45.338 2.743-1.169 4.533-3.853 4.559-6.834.026-2.982-1.717-5.696-4.439-6.913zm-40.796 33.238c-4.942-10.783-12.59-20.054-22.195-26.944 9.667-6.725 17.421-15.836 22.518-26.501 4.942 10.784 12.589 20.053 22.195 26.944-9.668 6.725-17.421 15.836-22.518 26.501z"/></g></svg>