<?xml version="1.0" encoding="iso-8859-1"?>
<!-- Generator: Adobe Illustrator 19.0.0, SVG Export Plug-In . SVG Version: 6.00 Build 0)  -->
<svg version="1.1" id="Capa_1" xmlns="http://www.w3.org/2000/svg" xmlns:xlink="http://www.w3.org/1999/xlink" x="0px" y="0px"
	 viewBox="0 0 512 512" style="enable-background:new 0 0 512 512;" xml:space="preserve">
<g>
	<g>
		<path d="M76.8,0C34.458,0,0,34.458,0,76.8s34.458,76.8,76.8,76.8s76.8-34.458,76.8-76.8S119.142,0,76.8,0z M76.8,136.533
			c-32.939,0-59.733-26.795-59.733-59.733S43.861,17.067,76.8,17.067s59.733,26.795,59.733,59.733S109.739,136.533,76.8,136.533z"/>
	</g>
</g>
<g>
	<g>
		<path d="M136.533,85.333V384c0,32.93-26.795,59.733-59.733,59.733S17.067,416.93,17.067,384H0c0,42.351,34.458,76.8,76.8,76.8
			s76.8-34.449,76.8-76.8V85.333H136.533z"/>
	</g>
</g>
<g>
	<g>
		<rect y="76.8" width="17.067" height="307.2"/>
	</g>
</g>
<g>
	<g>
		<path d="M76.8,42.667c-18.825,0-34.133,15.309-34.133,34.133s15.309,34.133,34.133,34.133s34.133-15.309,34.133-34.133
			S95.625,42.667,76.8,42.667z M76.8,93.867c-9.412,0-17.067-7.654-17.067-17.067c0-9.412,7.654-17.067,17.067-17.067
			c9.412,0,17.067,7.654,17.067,17.067C93.867,86.212,86.212,93.867,76.8,93.867z"/>
	</g>
</g>
<g>
	<g>
		<rect x="145.067" y="375.467" width="102.4" height="17.067"/>
	</g>
</g>
<g>
	<g>
		<path d="M509.5,87.834L424.166,2.5c-1.596-1.604-3.763-2.5-6.033-2.5H76.8v17.067h337.801l80.333,80.333v278.067h-51.2v17.067
			h59.733c4.719,0,8.533-3.814,8.533-8.533V93.867C512,91.605,511.104,89.429,509.5,87.834z"/>
	</g>
</g>
<g>
	<g>
		<path d="M443.733,341.333h-204.8c-4.71,0-8.533,3.814-8.533,8.533v153.6c0,4.719,3.823,8.533,8.533,8.533h204.8
			c4.719,0,8.533-3.814,8.533-8.533v-153.6C452.267,345.148,448.452,341.333,443.733,341.333z M435.2,494.933H247.467V358.4H435.2
			V494.933z"/>
	</g>
</g>
<g>
	<g>
		<path d="M469.333,290.133h-256c-4.71,0-8.533,3.814-8.533,8.533v51.2c0,4.719,3.823,8.533,8.533,8.533h256
			c4.719,0,8.533-3.814,8.533-8.533v-51.2C477.867,293.948,474.052,290.133,469.333,290.133z M460.8,341.333H221.867V307.2H460.8
			V341.333z"/>
	</g>
</g>
<g>
	<g>
		<path d="M347.375,292.634l-51.26-51.26c-7.142-6.989-16.922-10.974-26.795-10.974c-0.171,0-0.341,0-0.521,0
			c-21.171,0-38.4,17.229-38.4,38.4c0,21.171,17.229,38.4,38.4,38.4h72.533c3.447,0,6.571-2.074,7.893-5.265
			S349.815,295.074,347.375,292.634z M268.8,290.133c-11.767,0-21.333-9.566-21.333-21.333c0-11.878,9.779-21.692,21.769-21.333
			c5.615,0,10.906,2.15,14.865,6.033l36.634,36.634H268.8z"/>
	</g>
</g>
<g>
	<g>
		<path d="M334.771,293.197l-42.667,51.2c-1.271,1.536-1.971,3.473-1.971,5.47v93.867c0,9.412-7.654,17.067-17.067,17.067v17.067
			c18.825,0,34.133-15.309,34.133-34.133v-90.778l40.687-48.828L334.771,293.197z"/>
	</g>
</g>
<g>
	<g>
		<path d="M413.986,230.4c-10.223-0.051-20.164,3.857-27.486,11.034l-51.2,51.2c-2.441,2.441-3.174,6.11-1.852,9.301
			c1.314,3.191,4.437,5.265,7.885,5.265h72.533c21.171,0,38.4-17.229,38.4-38.4C452.267,247.629,435.038,230.4,413.986,230.4z
			 M413.867,290.133h-51.934l36.574-36.574c4.087-4.002,9.062-6.161,15.36-6.093c11.767,0,21.333,9.566,21.333,21.333
			C435.2,280.568,425.634,290.133,413.867,290.133z"/>
	</g>
</g>
<g>
	<g>
		<path d="M426.667,85.333v-76.8H409.6v85.333c0,4.71,3.814,8.533,8.533,8.533h85.333V85.333H426.667z"/>
	</g>
</g>
<g>
	<g>
		<rect x="332.8" y="298.667" width="17.067" height="204.8"/>
	</g>
</g>
<g>
	<g>
		<path d="M409.6,460.8c-9.412,0-17.067-7.654-17.067-17.067v-93.867c0-1.997-0.7-3.934-1.98-5.47l-42.667-51.2l-13.116,10.931
			l40.695,48.828v90.778c0,18.825,15.309,34.133,34.133,34.133h8.533V460.8H409.6z"/>
	</g>
</g>
<g>
</g>
<g>
</g>
<g>
</g>
<g>
</g>
<g>
</g>
<g>
</g>
<g>
</g>
<g>
</g>
<g>
</g>
<g>
</g>
<g>
</g>
<g>
</g>
<g>
</g>
<g>
</g>
<g>
</g>
</svg>
