<svg id="Layer_1" height="512" viewBox="0 0 512 512" width="512" xmlns="http://www.w3.org/2000/svg" data-name="Layer 1"><path d="m109.755 313.942c-16.033 17.52-15.313 36.01-15.006 39.539a9.77 9.77 0 0 0 6.51 8.376 81.515 81.515 0 0 0 26.764 4.834 62.773 62.773 0 0 0 29.117-7.017c14.039-7.231 26.266-19.853 36.341-37.516a156.854 156.854 0 0 0 13.7-32.114 4.632 4.632 0 0 0 -.747-4.118 4.7 4.7 0 0 0 -3.741-1.871h-.009c-43.584.081-74.856 10.136-92.929 29.887zm91.152-23.878c-3.486 11.157-17.236 49.2-46.514 64.276-15.1 7.777-32.312 8.4-51.165 1.849a3.76 3.76 0 0 1 -2.5-3.228c-.743-8.537 2.336-22.817 13.455-34.968 16.411-17.936 46.376-27.579 86.724-27.929z"/><path d="m384.918 348.048a60.917 60.917 0 0 0 10.487.922c17.351 0 28.442-7.751 30.8-9.565a9.776 9.776 0 0 0 3.542-10c-5.047-21.131-15.815-36.615-32-46.024-13.641-7.927-30.832-11.435-51.1-10.419a156.373 156.373 0 0 0 -34.36 5.729 4.631 4.631 0 0 0 -3.065 2.846 4.7 4.7 0 0 0 .441 4.17c23.56 36.776 48.881 57.751 75.255 62.341zm9.806-59.48c14.714 8.552 24.533 22.76 29.183 42.23a3.766 3.766 0 0 1 -1.367 3.854c-6.768 5.213-20.413 10.3-36.594 7.485-23.95-4.168-48.223-24.271-70.268-58.168 11.254-3.069 50.603-11.93 79.046 4.599z"/><path d="m236.938 411.924c7.59 22.462 24.072 30.743 27.3 32.175a9.752 9.752 0 0 0 10.474-1.664c16.108-14.524 24.545-31.379 25.076-50.1.447-15.8-4.687-32.605-15.262-49.96a156.73 156.73 0 0 0 -21.453-27.511 4.626 4.626 0 0 0 -3.965-1.336 4.7 4.7 0 0 0 -3.451 2.383c-21.003 38.314-27.3 70.616-18.719 96.013zm23.121-91.548c8.076 8.451 34.664 38.854 33.73 71.792-.482 17.015-8.253 32.427-23.1 45.811a3.748 3.748 0 0 1 -4.023.636c-7.8-3.463-18.784-13.034-24.047-28.612-7.79-23.067-1.76-54.03 17.44-89.627z"/><path d="m402.245 198.058c16.033-17.52 15.313-36.01 15.006-39.539a9.77 9.77 0 0 0 -6.51-8.376c-20.465-7.109-39.267-6.374-55.881 2.183-14.039 7.231-26.266 19.853-36.341 37.516a156.854 156.854 0 0 0 -13.7 32.114 4.632 4.632 0 0 0 .747 4.118 4.7 4.7 0 0 0 3.741 1.871h.009c43.589-.081 74.856-10.136 92.929-29.887zm-91.152 23.878c3.486-11.157 17.236-49.2 46.514-64.276a56.89 56.89 0 0 1 26.4-6.336 75.478 75.478 0 0 1 24.768 4.487 3.76 3.76 0 0 1 2.5 3.228c.743 8.537-2.336 22.817-13.455 34.968-16.414 17.936-46.379 27.579-86.727 27.929z"/><path d="m158.5 258.823c3.664 0 7.248-.132 10.721-.368a494.821 494.821 0 0 1 54.748-.948 487.565 487.565 0 0 1 -53.355 8.626c-42.529 4.718-97.88 27.832-120.037 111.167a16.858 16.858 0 0 0 14.066 21.012 205.771 205.771 0 0 0 25.836 1.688c67.655 0 103.2-37.306 121.439-70.68 15.354-28.092 26.708-44.235 30.826-49.81.4.249.81.49 1.226.717-1.618 6.219-6.968 25.017-19.469 55.159-16.413 39.578-22.932 99.282 39.224 158.953a16.9 16.9 0 0 0 11.635 4.661h.359a16.817 16.817 0 0 0 13.181-6.85c50.272-69.1 33.621-126.492 10.8-162.469-17.462-27.528-26.09-45.428-28.813-51.416.216-.161.424-.331.634-.5 5.1 4.79 19.929 19.331 40.332 44.654 20.217 25.092 53.1 50.7 103.084 50.7 16.455 0 34.766-2.777 55.087-9.261a16.864 16.864 0 0 0 10.107-23.181c-36.592-77.252-94.89-90.025-137.353-87.133a494.49 494.49 0 0 1 -54.821.945 496.19 496.19 0 0 1 53.428-8.623c42.533-4.718 97.884-27.832 120.041-111.162a16.858 16.858 0 0 0 -14.066-21.012c-84.7-10.723-126.839 31.6-147.275 68.989-15.561 28.472-28.388 46.5-32.927 52.609 1.886-7.294 7.862-28.578 20.344-58.675 16.413-39.578 22.932-99.282-39.224-158.953a16.823 16.823 0 0 0 -25.178 2.187c-50.272 69.1-33.621 126.493-10.8 162.47 16.459 25.946 25.913 45.264 29.547 53.143-6.256-5.91-22.083-21.535-41.7-45.882-26.873-33.353-76.127-67.618-158.171-41.439a16.864 16.864 0 0 0 -10.107 23.181c33.602 70.933 85.497 87.502 126.631 87.501zm48.149 67.617c-12.6 23.048-29.42 40.491-50 51.846-25.064 13.827-55.767 18.562-91.254 14.068a10.793 10.793 0 0 1 -7.911-5.305 10.914 10.914 0 0 1 -1.11-8.212c9.288-34.931 25.347-61.831 47.733-79.952 18.368-14.869 40.967-23.882 67.17-26.788 31.83-3.53 52.088-8.146 59.842-10.118.011.073.027.144.038.216-8.379 2.28-35.079 9.163-62.6 12.214-40.294 4.469-89.491 32.34-106.726 97.162a14.417 14.417 0 0 0 12.034 17.972 156.568 156.568 0 0 0 19.7 1.269c55.188 0 92.38-30.971 109.562-62.408a560.172 560.172 0 0 1 34.038-53.6q.429.484.883.947c-4.148 5.583-15.582 21.757-31.395 50.689zm26.915-56.9c-4.519 6.231-21.7 30.355-35.705 55.989-16.321 29.871-51.72 59.281-104.359 59.278a150.286 150.286 0 0 1 -18.877-1.216 8.361 8.361 0 0 1 -6.128-4.112 8.456 8.456 0 0 1 -.862-6.366c16.457-61.9 63.269-88.49 101.59-92.74 27.978-3.1 55.129-10.107 63.6-12.414.23.541.477 1.061.745 1.578zm-38.977-25.893c-9.551 0-19.819.239-29.739.914-37.824 2.583-87.955-15.182-115.217-72.739a8.424 8.424 0 0 1 5.046-11.546c60.932-19.443 108.514 5.741 132.726 35.792 17.665 21.925 39.708 42.42 46.753 48.808-5.732-.365-21.356-1.232-39.565-1.232zm100.044 89.253c14.068 22.178 21.2 45.357 21.183 68.893-.014 28.662-10.7 57.877-31.768 86.833a10.825 10.825 0 0 1 -16.166 1.388c-26.055-25.014-41.819-52.09-46.853-80.474-4.131-23.291-1.1-47.466 9.017-71.852 12.292-29.639 17.7-48.176 19.555-55.233.061.016.124.03.186.045a430.743 430.743 0 0 1 -19.041 58.69c-15.55 37.5-14.939 94.1 33.412 140.516a14.454 14.454 0 0 0 9.951 3.989h.309a14.392 14.392 0 0 0 11.275-5.857c39.228-53.921 30.351-109.162 8.962-142.88a550.049 550.049 0 0 1 -30.178-55.209q.6-.217 1.179-.464c3.035 6.638 11.658 24.309 28.977 51.615zm-38.855-49.644h.124a25.226 25.226 0 0 0 2.592-.134 557.739 557.739 0 0 0 31.095 57.043c20.332 32.052 28.711 84.647-8.748 136.135a8.39 8.39 0 0 1 -12.528 1.075c-46.17-44.325-46.816-98.225-32.025-133.889a437.608 437.608 0 0 0 19.49-60.235zm87.407-23.719c26.171-1.783 49.905 3.021 70.541 14.277 25.132 13.706 45.649 37.068 60.981 69.437a10.865 10.865 0 0 1 -6.508 14.9c-34.388 10.972-65.666 11.906-92.965 2.773-22.4-7.494-42.153-21.712-58.71-42.262-20.677-25.662-35.436-40.158-40.79-45.173.031-.041.064-.081.095-.122 7 6.386 27.084 25.227 44.093 46.339a122.09 122.09 0 0 0 95.191 44.885 144.485 144.485 0 0 0 44.032-7.141 14.424 14.424 0 0 0 8.645-19.831c-28.553-60.28-81.254-78.855-121.048-76.156-27.276 1.856-56.269.515-65.988-.04q.086-.649.136-1.31c7.798.562 29.497 1.65 62.295-.581zm-66.16-14.882c-.033-.053-.067-.106-.1-.158 4.945-6.809 23.258-32.482 37.215-58.018 16.325-29.869 51.724-59.281 104.364-59.281a150.286 150.286 0 0 1 18.877 1.216 8.361 8.361 0 0 1 6.128 4.112 8.456 8.456 0 0 1 .862 6.366c-16.457 61.9-63.269 88.49-101.59 92.74-28.624 3.168-57.607 10.779-65.756 13.018zm2.2 22.687c8.485.507 39.127 2.065 67.923.105 37.827-2.58 87.955 15.183 115.217 72.739a8.424 8.424 0 0 1 -5.046 11.546c-60.932 19.443-108.514-5.741-132.726-35.792-18.086-22.448-39.56-42.34-45.667-47.865.107-.247.204-.492.301-.738zm26.122-81.777c12.6-23.048 29.42-40.491 50-51.846 25.065-13.827 55.767-18.56 91.254-14.068a10.793 10.793 0 0 1 7.911 5.3 10.914 10.914 0 0 1 1.11 8.212c-9.288 34.931-25.347 61.831-47.733 79.952-18.364 14.869-40.963 23.885-67.166 26.785-32.783 3.636-53.649 8.486-61.017 10.377-.015-.043-.03-.087-.044-.13 9.189-2.5 36.654-9.551 63.779-12.559 40.295-4.469 89.492-32.34 106.727-97.162a14.417 14.417 0 0 0 -12.034-17.972c-66.09-8.373-110.107 26.1-129.26 61.139-13.074 23.922-30.047 48-35.93 56.161-.321-.3-.648-.59-.985-.872 4.68-6.297 17.686-24.588 33.39-53.322zm-87.978-6.455c-14.068-22.178-21.195-45.357-21.183-68.893.014-28.662 10.7-57.877 31.768-86.833a10.825 10.825 0 0 1 16.166-1.388c26.055 25.014 41.819 52.09 46.853 80.474 4.131 23.291 1.1 47.466-9.017 71.852-12.5 30.137-18.581 51.671-20.574 59.337l-.125-.029c2.241-9.243 9.459-37.4 20-62.81 15.55-37.5 14.939-94.1-33.412-140.516a14.392 14.392 0 0 0 -21.535 1.872c-39.228 53.921-30.351 109.162-8.962 142.88 14.52 22.889 27.465 49.542 31.886 58.9q-.656.181-1.3.4c-3.187-7.056-12.917-27.433-30.563-55.251zm37.933 53.636c-3.746-7.994-17.423-36.536-32.884-60.909-20.335-32.052-28.716-84.647 8.745-136.137a8.36 8.36 0 0 1 6.554-3.389h.181a8.414 8.414 0 0 1 5.793 2.317c46.17 44.325 46.816 98.225 32.025 133.889-10.883 26.241-18.28 55.362-20.414 64.229zm.6 6.3a19.106 19.106 0 1 1 -19.071 19.106 19.111 19.111 0 0 1 19.071-19.11zm-218.4-79.833a10.875 10.875 0 0 1 6.305-5.357c34.388-10.971 65.665-11.9 92.965-2.773 22.4 7.494 42.153 21.712 58.71 42.262 20.359 25.269 36.745 41.308 42.785 46.98-.03.03-.061.058-.091.087-6.908-6.262-28.667-26.483-46.092-48.111-25.46-31.6-75.4-58.109-139.223-37.744a14.424 14.424 0 0 0 -8.645 19.831c28.553 60.28 81.255 78.86 121.048 76.156 26.763-1.823 56.085-.424 66.681.2q-.18.587-.333 1.183c-7.342-.558-29.271-1.745-62.791.537-26.171 1.78-49.9-3.022-70.541-14.277-25.134-13.702-45.651-37.064-60.978-69.433a10.83 10.83 0 0 1 .2-9.541z"/><path d="m127.082 163.952c-23.338-4.063-38.482 6.487-41.282 8.648a9.776 9.776 0 0 0 -3.542 10c5.047 21.131 15.815 36.615 32 46.024 12.109 7.037 27.014 10.59 44.385 10.589q3.3 0 6.712-.17a156.373 156.373 0 0 0 34.36-5.729 4.631 4.631 0 0 0 3.065-2.846 4.7 4.7 0 0 0 -.441-4.17c-23.562-36.781-48.883-57.756-75.257-62.346zm-9.806 59.48c-14.714-8.552-24.533-22.76-29.183-42.23a3.766 3.766 0 0 1 1.367-3.854c5.433-4.185 15.3-8.289 27.346-8.289a53.873 53.873 0 0 1 9.248.8c23.95 4.168 48.223 24.271 70.268 58.168-11.254 3.073-50.604 11.934-79.046-4.595z"/><path d="m275.062 100.076c-7.59-22.462-24.072-30.743-27.3-32.175a9.745 9.745 0 0 0 -10.474 1.664c-16.108 14.524-24.545 31.379-25.076 50.1-.447 15.8 4.687 32.6 15.262 49.96a156.73 156.73 0 0 0 21.453 27.511 4.621 4.621 0 0 0 3.3 1.383 4.7 4.7 0 0 0 4.116-2.43c21.003-38.314 27.3-70.616 18.719-96.013zm-23.121 91.548c-8.076-8.451-34.664-38.854-33.73-71.792.482-17.015 8.253-32.427 23.1-45.811a3.749 3.749 0 0 1 4.023-.636c7.8 3.463 18.784 13.034 24.047 28.612 7.79 23.067 1.76 54.03-17.44 89.627z"/></svg>