<svg id="Capa_1" enable-background="new 0 0 512 512" height="512" viewBox="0 0 512 512" width="512" xmlns="http://www.w3.org/2000/svg"><g><path d="m374.688 302.12c-4.735-2.826-10.642-2.826-15.377 0-4.74 2.83-46.311 28.691-46.311 64.88s41.571 62.05 46.312 64.88c2.368 1.413 5.028 2.12 7.688 2.12s5.321-.707 7.688-2.12c4.741-2.83 46.312-28.691 46.312-64.88s-41.571-62.05-46.312-64.88zm-7.717 98.683c-10.686-8.214-23.971-21.761-23.971-33.803 0-12.563 13.883-26.01 24.029-33.803 10.686 8.214 23.971 21.761 23.971 33.803 0 12.563-13.883 26.01-24.029 33.803z"/><path d="m482.854 262.506c-19.452-26.12-46.168-40.506-75.229-40.506-8.332 0-16.638 1.369-24.687 4.07-10.428 3.498-21.451 3.498-31.876 0-6.881-2.309-13.95-3.636-21.062-3.975v-40.242c0-20.033-10.028-38.512-26.825-49.43-8.25-5.363-13.175-14.438-13.175-24.277v-18.146h5c8.284 0 15-6.716 15-15v-30c0-24.813-20.187-45-45-45h-200c-24.813 0-45 20.187-45 45v30c0 8.284 6.716 15 15 15h5v18.146c0 9.839-4.925 18.914-13.175 24.277-16.797 10.919-26.825 29.397-26.825 49.431v275.146c0 30.327 24.673 55 55 55h220c8.348 0 16.444-1.868 23.838-5.439 8.855 3.581 18.09 5.439 27.537 5.439 13.942 0 27.809-3.897 40.625-11.353 12.816 7.456 26.683 11.353 40.625 11.353 28.89 0 55.824-17.266 75.84-48.615 18.135-28.402 28.535-66.165 28.535-103.608 0-37.486-10.351-72.031-29.146-97.271zm-432.854-217.506c0-8.271 6.729-15 15-15h200c8.271 0 15 6.729 15 15v15h-230zm-6.825 112.576c16.797-10.918 26.825-29.396 26.825-49.43v-18.146h190v18.146c0 20.033 10.028 38.512 26.825 49.43 7.794 5.067 12.614 13.448 13.124 22.654-29.944-7.394-62.599-5.074-90.836 6.973-27.623 11.785-60.604 11.785-88.228 0-28.236-12.047-60.892-14.366-90.836-6.973.511-9.206 5.332-17.587 13.126-22.654zm-13.175 299.424v-245.596c25.564-8.246 54.47-7.121 79.114 3.393 17.497 7.465 36.691 11.198 55.886 11.198s38.389-3.733 55.886-11.198c24.644-10.514 53.55-11.64 79.114-3.393v14.72c-18.655 5.999-35.473 18.414-48.854 36.382-18.795 25.24-29.146 59.785-29.146 97.271 0 37.442 10.4 75.206 28.535 103.607 4.405 6.899 9.146 13.114 14.168 18.615h-209.703c-13.785.001-25-11.214-25-24.999zm428.18-9.76c-14.312 22.415-32.266 34.76-50.555 34.76-10.909 0-21.563-3.814-31.667-11.337-2.658-1.979-5.808-2.969-8.958-2.969s-6.3.989-8.958 2.969c-10.104 7.523-20.758 11.337-31.667 11.337-18.289 0-36.243-12.345-50.555-34.76-15.138-23.709-23.82-55.588-23.82-87.463 0-31.074 8.242-59.256 23.208-79.354 13.649-18.328 31.821-28.423 51.167-28.423 5.081 0 10.176.845 15.145 2.512 16.669 5.593 34.291 5.593 50.961 0 4.968-1.667 10.063-2.512 15.144-2.512 19.346 0 37.518 10.095 51.167 28.424 14.966 20.097 23.208 48.279 23.208 79.353 0 31.875-8.682 63.754-23.82 87.463z"/></g></svg>