<svg height="512" viewBox="0 0 128 128" width="512" xmlns="http://www.w3.org/2000/svg"><g><path d="m105.56 46.14a20.113 20.113 0 0 0 -4.36-12.48 16.493 16.493 0 0 1 -3.6-10.3v-3.135a4.744 4.744 0 0 0 4.5-4.725v-6a4.756 4.756 0 0 0 -4.75-4.75h-66.7a4.756 4.756 0 0 0 -4.75 4.75v6a4.744 4.744 0 0 0 4.5 4.725v3.135a16.6 16.6 0 0 1 -3.6 10.3 20 20 0 0 0 -4.36 12.48v69.36a7.759 7.759 0 0 0 7.75 7.75h67.618a7.759 7.759 0 0 0 7.75-7.75zm-6.96-36.64v6a1.252 1.252 0 0 1 -1.25 1.25h-5.665v-8.5h5.666a1.252 1.252 0 0 1 1.249 1.25zm-17.29 7.25v-8.5h6.874v8.5zm-10.374 0v-8.5h6.874v8.5zm-10.374 0v-8.5h6.874v8.5zm-10.374 0v-8.5h6.874v8.5zm-10.374 0v-8.5h6.874v8.5zm-10.414-1.25v-6a1.252 1.252 0 0 1 1.25-1.25h5.666v8.5h-5.667a1.252 1.252 0 0 1 -1.249-1.25zm-2.537 25.184a16.383 16.383 0 0 1 2.676-4.844 20.113 20.113 0 0 0 4.361-12.48v-3.11h60.2v3.11a20 20 0 0 0 4.361 12.48 16.6 16.6 0 0 1 3.6 10.3v64.61h-76.121v-64.61a16.51 16.51 0 0 1 .923-5.456zm75.2 74.816a4.255 4.255 0 0 1 -4.25 4.25h-67.621a4.255 4.255 0 0 1 -4.25-4.25v-1.25h76.116z"/><path d="m92.472 37.8a1.75 1.75 0 1 0 2.914-1.938 22.619 22.619 0 0 1 -2.519-5.069 1.75 1.75 0 1 0 -3.305 1.153 26.129 26.129 0 0 0 2.91 5.854z"/><path d="m34.692 93.654h58.616a1.751 1.751 0 0 0 1.75-1.75v-39.804a1.751 1.751 0 0 0 -1.75-1.75h-58.616a1.751 1.751 0 0 0 -1.75 1.75v39.8a1.751 1.751 0 0 0 1.75 1.754zm1.75-39.808h55.116v36.308h-55.116z"/><path d="m81.687 67.938h-17.734a5.171 5.171 0 0 0 -2.719-3.732 6.192 6.192 0 0 0 -11.594 0 5.177 5.177 0 0 0 -2.723 3.733h-.605a1.75 1.75 0 0 0 -1.75 1.75v3.25a10.877 10.877 0 0 0 20.778 4.5h16.347a1.75 1.75 0 0 0 1.75-1.75v-6a1.749 1.749 0 0 0 -1.75-1.751zm-30.135-.743a1.749 1.749 0 0 0 1.244-1.34 2.691 2.691 0 0 1 5.277-.008 1.749 1.749 0 0 0 1.248 1.353 1.634 1.634 0 0 1 .952.742h-9.673a1.645 1.645 0 0 1 .952-.747zm28.385 6.743h-15.8a1.75 1.75 0 0 0 -1.669 1.223 7.376 7.376 0 0 1 -14.408-2.223v-1.5h14.08.021.018 17.758z"/></g></svg>