<svg id="icons" enable-background="new 0 0 64 64" height="512" viewBox="0 0 64 64" width="512" xmlns="http://www.w3.org/2000/svg"><path d="m22.002 19.008c-.005 0-.009.003-.014.003-2.738.015-4.961 2.236-4.98 4.974 0 .006-.004.012-.004.018v34.997c0 2.757 2.243 5 5 5h19.992c2.757 0 5-2.243 5-5v-34.998c0-.011-.006-.021-.006-.031-.024-2.738-2.255-4.96-4.998-4.963-.001 0-.001 0-.002 0h-4.993v-11.004h.003c.553 0 1-.447 1-1v-6.004c0-.553-.447-1-1-1h-10c-.553 0-1 .447-1 1v6.004c0 .553.447 1 1 1v11.004zm22.994 39.992c0 1.654-1.346 3-3 3h-19.992c-1.654 0-3-1.346-3-3v-23.995h1.996v18c0 .553.447 1 1 1h20c.553 0 1-.447 1-1v-18h1.996zm-21.996-6.995v-21.004h18v21.004zm5-50.005h8v4.004h-8zm0 19.008c.553 0 1-.447 1-1v-12.004h5.997v12.004c0 .553.447 1 1 1h5.991c1.657 0 3.006 1.349 3.006 3.006 0 .004.002.006.002.01v8.981h-1.996v-3.004c0-.553-.447-1-1-1h-20c-.553 0-1 .447-1 1v3.004h-1.996v-8.985c0-1.661 1.351-3.012 3.012-3.012z"/><path d="m32 43.003c2.206 0 4-1.794 4-4 0-1.941-2.712-5.063-3.256-5.67-.379-.422-1.109-.422-1.488 0-.544.606-3.256 3.729-3.256 5.67 0 2.206 1.794 4 4 4zm0-7.453c1.063 1.334 2 2.833 2 3.453 0 1.103-.897 2-2 2s-2-.897-2-2c0-.638.939-2.127 2-3.453z"/><path d="m38.002 45.002h-12.004c-.553 0-1 .447-1 1s.447 1 1 1h12.004c.553 0 1-.447 1-1s-.447-1-1-1z"/><path d="m35.001 48.002h-6.002c-.553 0-1 .447-1 1s.447 1 1 1h6.002c.553 0 1-.447 1-1s-.447-1-1-1z"/></svg>