<svg id="Layer_1" enable-background="new 0 0 512 512" height="512" viewBox="0 0 512 512" width="512" xmlns="http://www.w3.org/2000/svg"><g><path d="m191.876 349.445c2.288-3.673 3.615-8.005 3.615-12.644 0-13.217-10.741-23.97-23.943-23.97h-24.057c-4.142 0-7.5 3.357-7.5 7.5v32.939 32.938c0 4.143 3.358 7.5 7.5 7.5h31.669c13.203 0 23.944-10.753 23.944-23.97 0-8.54-4.49-16.047-11.228-20.293zm-36.885-21.613h16.557c4.931 0 8.943 4.023 8.943 8.97s-4.012 8.97-8.943 8.97h-16.557zm24.169 50.878h-24.169v-17.938h16.557 7.613c4.848 0 8.944 4.107 8.944 8.969-.001 4.946-4.013 8.969-8.945 8.969z"/><path d="m251.245 312.832h-24.057c-4.142 0-7.5 3.357-7.5 7.5v32.939 32.938c0 4.143 3.358 7.5 7.5 7.5h31.67c13.203 0 23.943-10.753 23.943-23.97 0-8.542-4.49-16.05-11.228-20.295 2.288-3.673 3.615-8.005 3.615-12.643 0-13.216-10.74-23.969-23.943-23.969zm-16.557 15h16.557c4.931 0 8.943 4.023 8.943 8.97s-4.012 8.97-8.943 8.97h-16.557zm24.17 50.878h-24.17v-17.938h16.557 7.613c4.848 0 8.943 4.107 8.943 8.969.001 4.946-4.011 8.969-8.943 8.969z"/><path d="m305.578 381.674c7.206 7.765 16.836 12.044 27.117 12.051h.021c7.135-.001 13.959-2.063 19.885-5.919l5.714 5.564c1.458 1.42 3.345 2.127 5.231 2.127 1.953 0 3.904-.758 5.374-2.268 2.89-2.968 2.826-7.716-.142-10.605l-5.425-5.283c10.93-15.714 9.774-38.162-3.485-52.45-7.226-7.768-16.867-12.044-27.153-12.044-.007 0-.015 0-.021 0-10.281.006-19.911 4.285-27.117 12.051-14.527 15.653-14.527 41.123.001 56.776zm10.995-46.573c4.338-4.674 10.067-7.251 16.131-7.254h.013c6.072 0 11.814 2.578 16.164 7.254 7.933 8.548 9.078 21.653 3.49 31.545l-7.987-7.777c-2.966-2.89-7.714-2.827-10.605.141-2.89 2.968-2.826 7.716.142 10.605l7.46 7.264c-2.721 1.211-5.651 1.847-8.662 1.847-.004 0-.009 0-.013 0-6.064-.004-11.793-2.58-16.131-7.254-9.308-10.029-9.308-26.344-.002-36.371z"/><path d="m233.443 173.793h-.142c-4.142 0-7.5 3.357-7.5 7.5s3.358 7.5 7.5 7.5h.142c4.142 0 7.5-3.357 7.5-7.5s-3.358-7.5-7.5-7.5z"/><path d="m180.519 224.051h-.142c-4.142 0-7.5 3.357-7.5 7.5s3.358 7.5 7.5 7.5h.142c4.142 0 7.5-3.357 7.5-7.5s-3.358-7.5-7.5-7.5z"/><path d="m335.217 222.156h.142c4.142 0 7.5-3.357 7.5-7.5s-3.358-7.5-7.5-7.5h-.142c-4.142 0-7.5 3.357-7.5 7.5s3.358 7.5 7.5 7.5z"/><path d="m278.443 237.038h.17c4.142 0 7.5-3.357 7.5-7.5s-3.358-7.5-7.5-7.5h-.17c-4.142 0-7.5 3.357-7.5 7.5s3.358 7.5 7.5 7.5z"/><path d="m366.287 182.023c-21.879-25.47-44.478-51.784-45.911-111.553 7.825-3.031 13.398-10.625 13.398-19.515v-30.018c-.001-11.544-9.383-20.937-20.916-20.937h-113.716c-11.548 0-20.943 9.393-20.943 20.937v30.019c0 8.883 5.572 16.472 13.398 19.508-1.431 59.775-24.023 86.09-45.896 111.561-20.994 24.446-42.701 49.725-42.701 101.486v183.033c0 25.064 20.365 45.456 45.396 45.456h215.208c25.031 0 45.396-20.392 45.396-45.456v-183.033c0-51.762-21.714-77.04-42.713-101.488zm-173.089-161.086c0-3.273 2.666-5.937 5.943-5.937h113.717c3.206 0 5.915 2.719 5.915 5.937v30.019c0 3.218-2.709 5.937-5.915 5.937h-113.716c-3.277 0-5.943-2.663-5.943-5.937v-30.019zm121.67 107.246h-117.762c5.285-15.361 8.814-33.672 9.455-56.291h98.85c.64 22.619 4.17 40.93 9.457 56.291zm79.132 295.881h-121.959c-3.939 0-7.132 3.357-7.132 7.5s3.193 7.5 7.132 7.5h121.959v27.479c0 16.795-13.636 30.457-30.396 30.457h-215.208c-16.76 0-30.396-13.662-30.396-30.456v-27.479h121.152c3.939 0 7.132-3.357 7.132-7.5s-3.193-7.5-7.132-7.5h-121.152v-133.054h121.152c3.939 0 7.132-3.357 7.132-7.5s-3.193-7.5-7.132-7.5h-120.977c1.865-41.059 19.106-61.158 38.904-84.214 11.794-13.734 24.384-28.402 33.928-48.614h129.961c9.547 20.213 22.142 34.881 33.939 48.615 19.805 23.056 37.051 43.154 38.916 84.213h-121.782c-3.939 0-7.132 3.357-7.132 7.5s3.193 7.5 7.132 7.5h121.959z"/></g></svg>