<?xml version="1.0"?>
<svg xmlns="http://www.w3.org/2000/svg" id="Layer_1" data-name="Layer 1" viewBox="0 0 128 128" width="512" height="512"><title>BLACK PEPPER</title><path d="M56.094,100.016h-.313a1.25,1.25,0,0,0,0,2.5h.313a1.25,1.25,0,0,0,0-2.5Z"/><path d="M77.323,86.551a16.36,16.36,0,0,0,3.005-9.428,16.132,16.132,0,0,0-3.42-9.983,19.014,19.014,0,0,1-4.064-11.571,1.25,1.25,0,1,0-2.5,0,21.522,21.522,0,0,0,4.59,13.1,13.655,13.655,0,0,1,2.894,8.45,13.838,13.838,0,0,1-3.019,8.61,12.431,12.431,0,0,0-2.524-.259H55.715a12.435,12.435,0,0,0-2.524.259,13.842,13.842,0,0,1-3.019-8.61,13.653,13.653,0,0,1,2.894-8.45,21.521,21.521,0,0,0,4.589-13.1V52.581h16.91a1.25,1.25,0,0,0,1.25-1.25V46.209A11.811,11.811,0,0,0,65.25,34.462V32.375h4.437a1.25,1.25,0,0,0,1.25-1.25V26.734a1.25,1.25,0,0,0-1.25-1.25H58.312a1.25,1.25,0,0,0-1.25,1.25v4.391a1.25,1.25,0,0,0,1.25,1.25H62.75v2.086A11.831,11.831,0,0,0,52.185,46.209v5.122a1.25,1.25,0,0,0,1.25,1.25h1.721v2.987A19.012,19.012,0,0,1,51.092,67.14a16.13,16.13,0,0,0-3.42,9.983,16.357,16.357,0,0,0,3.006,9.428A12.439,12.439,0,0,0,43.286,97.9v3.362a1.25,1.25,0,0,0,1.25,1.25h6.214a1.25,1.25,0,0,0,0-2.5H45.786V97.9a9.94,9.94,0,0,1,9.929-9.929h16.57a9.94,9.94,0,0,1,9.93,9.929v2.112H60.749a1.25,1.25,0,0,0,0,2.5H83.465a1.25,1.25,0,0,0,1.25-1.25V97.9A12.439,12.439,0,0,0,77.323,86.551ZM59.562,27.984h8.875v1.891H59.562ZM54.685,46.209A9.326,9.326,0,0,1,64,36.894h0a9.314,9.314,0,0,1,9.313,9.315v3.872H54.685Z"/></svg>
