<svg id="Capa_1" enable-background="new 0 0 512 512" height="512" viewBox="0 0 512 512" width="512" xmlns="http://www.w3.org/2000/svg"><g><path d="m403.8 58.573c0-13.778-7.828-32.748-47.104-45.238-27.044-8.599-62.805-13.335-100.696-13.335s-73.597 4.912-100.695 13.335c-49.138 15.273-47.084 48.24-47.084 48.24l-.02 405.731c0 3.754 2.068 7.202 5.379 8.971 30.07 16.059 78.822 35.723 140.315 35.723 58.038 0 113.895-19.366 144.525-35.723 3.312-1.769 5.379-5.217 5.379-8.971v-241.068c0-5.616-4.553-10.17-10.17-10.17s-10.17 4.554-10.17 10.17v234.894c-29.166 14.759-73.906 30.931-129.423 30.529-53.814-.375-97.178-16.2-125.497-30.529v-377.936c6.711 4.062 15.442 8.001 26.765 11.602 27.043 8.599 62.804 13.335 100.695 13.335s73.652-4.736 100.695-13.335c11.323-3.601 20.054-7.54 26.765-11.602v53.041c0 5.616 4.553 10.17 10.17 10.17s10.17-4.554 10.17-10.17v-77.664zm-147.8 29.22c-82.741 0-127.877-22.28-127.877-33.727s45.136-36.56 127.877-36.56c79.016 0 127.545 22.628 127.6 34.951-.14 18.525-49.41 35.336-127.6 35.336z"/><circle cx="393.291" cy="181.153" r="10"/><path d="m297.634 180.697 6.6-21.238c1.748-5.625-1.833-11.741-7.597-12.966-2.853-.607-18.793 4.313-24.133 5.906-1.164-3.294-5.554-16.992-7.24-20.133-3.567-6.646-13.248-7.1-17.417-.826-1.944 2.925-7.515 17.439-9.095 21.21-5.438-1.641-21.533-6.703-24.366-6.221-6.057 1.03-9.87 7.444-7.91 13.26l7.184 21.318c-36.401 16.576-59.697 52.576-59.697 92.855 0 56.263 45.773 102.036 102.036 102.036s102.036-45.773 102.036-102.036c.001-40.484-23.615-76.734-60.401-93.165zm-55.983-5.928c3.808 1.151 8.045-.081 10.641-3.092 1.55-1.799 2.3-4.201 3.205-6.36.788 2.23 1.431 4.54 3.038 6.349 2.561 2.881 6.416 3.936 10.122 3.089 3.537-.809 7.015-2.077 10.492-3.114l-5.006 16.109c-7.457 6.755-14.536 9.896-21.058 9.367-7.71-.636-13.413-6.314-15.442-8.637l-5.597-16.609zm14.349 180.79c-45.048 0-81.697-36.65-81.697-81.697 0-31.79 18.128-60.242 46.559-73.762 2.692 3.498 15.646 14.368 35.138 14.368 18.941 0 34.578-14.314 34.775-14.544 28.628 13.451 46.922 42.055 46.922 73.938 0 45.047-36.649 81.697-81.697 81.697z"/><path d="m289.427 434.272c-.234.051-23.815 5.064-52.995 2.847-41.167-3.132-64.704-13.929-65.148-14.135-5.065-2.4-11.122-.247-13.535 4.817-2.416 5.071-.263 11.139 4.807 13.555 1.075.511 26.781 13.753 72.332 16.043 30.942 1.556 51.112-1.58 58.882-3.257 5.486-1.184 8.949-6.615 7.753-12.099-1.194-5.484-6.612-8.965-12.096-7.771z"/><circle cx="334.9" cy="431.666" r="10"/><path d="m295.332 42.956c-25.734 6.151-52.929 6.151-78.663 0-5.46-1.301-10.949 2.066-12.255 7.528-1.305 5.462 2.065 10.949 7.527 12.255 14.414 3.444 29.238 5.191 44.06 5.191s29.646-1.747 44.06-5.191c5.462-1.306 8.832-6.793 7.527-12.255-1.307-5.463-6.79-8.834-12.256-7.528z"/></g></svg>