<svg id="Capa_1" enable-background="new 0 0 504.686 504.686" height="512" viewBox="0 0 504.686 504.686" width="512" xmlns="http://www.w3.org/2000/svg"><g><g id="Page-1_23_"><g id="_x30_24---Cinnamon" transform="translate(-1)"><path id="Shape_120_" d="m488.301 140.172c14.897-14.96 20.121-37.024 13.513-57.075-3.602-12.563-12.445-22.963-24.265-28.538-16.092-6.114-33.824-6.366-50.084-.713-.482-3.29-1.405-6.5-2.745-9.543-12.06-24.412-40.539-35.861-66.14-26.59l-306.822 119.941c-5.236.236-10.404 1.272-15.326 3.072-19.166 8.167-32.371 26.115-34.463 46.844-6.497 44.93 29.797 86.78 67.777 97.733 8.009 2.265 16.295 3.395 24.618 3.357 5.586-.023 11.161-.5 16.669-1.427l-72.184 55.053c-5.383 1.8-10.456 4.418-15.041 7.764-17.459 14.151-25.824 36.689-21.823 58.804 6.572 48.632 57.008 81.324 99.958 81.324 31.514-.838 61.139-15.213 81.299-39.449 46.281-29.209 108.393-74.517 168.49-118.348 25.843-18.86 51.066-37.275 74.039-53.659 2.518-1.813 5.716-3.953 9.292-6.362 19.699-13.27 49.463-33.33 60.492-55.397 6.312-12.641 19.473-38.946-.453-68.365-2.011-3.007-4.286-5.827-6.801-8.426zm-17.827-70.396c7.577 3.634 13.192 10.393 15.377 18.508 6.119 18.877-1.771 31.249-11.298 42.076-4.074-1.946-8.408-3.294-12.867-4.004-20.329-3.215-40.515 6.555-53.34 14.798-1.545-3.552-3.582-6.87-6.052-9.854-19.81-21.64-52.694-24.993-76.464-7.798l-145.308 110.794c7.281-17.763 5.006-38.013-6.035-53.718-3.683-4.694-8.157-8.71-13.22-11.868l261.38-95.417c.059 0 .092-.067.143-.084l.176-.05c18.29-7.428 36.067-8.704 47.508-3.383zm-336.594 270.747c-11.663 2.387-22.238 8.489-30.141 17.391-.63.722-1.225 1.452-1.796 2.191-.571-.739-1.167-1.469-1.796-2.191-8.112-9.155-19.036-15.355-31.056-17.626l266.794-203.34c16.678-12.085 39.759-9.78 53.718 5.363 2.033 2.687 3.609 5.69 4.667 8.889zm230.677-307.132c17.376-6.304 36.717 1.436 44.947 17.987 1.01 2.627 1.596 5.398 1.737 8.209l-276.002 100.721c-10.812-.795-21.595 1.9-30.762 7.688-.47.302-.94.613-1.393.94-.218-.52-.445-1.049-.68-1.561-4.653-9.777-12.296-17.819-21.823-22.964zm-290.162 235.78c-30.544-8.805-60.978-43.503-55.816-79.201 1.349-14.59 10.378-27.352 23.686-33.481 3.918-1.446 8.062-2.182 12.238-2.174 13.856-.107 26.553 7.718 32.684 20.144 2.181 4.54 2.675 9.708 1.393 14.579l-.151.546c-.193.646-.42 1.276-.671 1.905-2.428 5.702-7.149 10.116-13.001 12.154-9.642 3.528-20.394-.76-24.962-9.955-1.993-4.137-6.941-5.905-11.104-3.967s-5.996 6.862-4.113 11.051c8.375 16.996 28.167 25.005 46.004 18.617 3.352-1.233 6.529-2.898 9.451-4.952 1.389 3.298 3.2 6.401 5.389 9.233 11.692 14.906 32.71 18.663 48.841 8.729 3.753-2.573 4.772-7.667 2.298-11.486s-7.54-4.971-11.422-2.598c-8.768 5.312-20.126 3.212-26.414-4.885-3.904-4.863-5.568-11.15-4.583-17.307.109-.646.252-1.293.42-1.914.059-.185.118-.378.168-.562 1.488-4.797 4.636-8.906 8.88-11.591 15.769-9.611 36.239-5.858 47.574 8.721 8.049 12.273 8.947 27.904 2.359 41.019-14.505 33.019-58.646 46.179-89.148 37.375zm27.548 204.221c-35.135 0-78.017-27.447-83.397-66.829-3.009-16.012 2.769-32.411 15.15-43 6.972-5.04 15.368-7.73 23.972-7.68 11.367-.135 22.239 4.641 29.83 13.102 3.736 4.181 5.878 9.546 6.052 15.15v.948c0 .697-.059 1.393-.143 2.082-.844 6.958-4.603 13.231-10.341 17.257-9.418 6.841-22.464 5.558-30.367-2.988-3.077-3.36-8.273-3.653-11.707-.658-3.434 2.994-3.852 8.181-.942 11.687 13.709 14.985 36.459 17.347 52.954 5.498 3.378-2.468 6.388-5.405 8.939-8.721 2.548 3.328 5.558 6.276 8.939 8.754 16.493 11.857 39.249 9.495 52.954-5.498 2.91-3.506 2.492-8.693-.942-11.687s-8.63-2.702-11.707.658c-7.903 8.554-20.958 9.838-30.376 2.988-5.733-4.029-9.488-10.301-10.332-17.257-.084-.688-.126-1.385-.143-2.082 0-.319 0-.63 0-.948.165-5.616 2.309-10.993 6.052-15.184 13.984-15.157 37.09-17.471 53.802-5.389 12.366 10.598 18.127 26.996 15.108 43-5.296 39.35-48.22 66.797-83.355 66.797zm378.586-263.949c-9.048 18.105-37.72 37.426-54.843 48.976-3.718 2.518-7.017 4.725-9.669 6.614-23.006 16.418-48.279 34.866-74.173 53.76-49.521 36.15-100.293 73.157-142.344 101.258 1.092-3.674 1.916-7.421 2.468-11.214 4.001-22.115-4.364-44.653-21.823-58.804-5.598-4.084-11.908-7.087-18.608-8.855l247.506-179.947.067-.084c.055-.028.108-.058.159-.092 17.332-13.53 35.949-20.279 49.807-18.113 9.212 1.561 17.289 7.055 22.125 15.049 13.303 19.641 6.966 36.184-.672 51.452z"/></g></g></g></svg>