<svg id="Layer_1" height="512" viewBox="0 0 512 512" width="512" xmlns="http://www.w3.org/2000/svg" data-name="Layer 1"><path d="m466.9 269.5a11.676 11.676 0 0 0 -6.157-11.036c-45.348-24.117-83.254-31.765-112.664-22.73a64.026 64.026 0 0 0 -26.448 15.385 173.654 173.654 0 0 1 6.91-23.62 4.3 4.3 0 0 0 -5.073-5.679c-9.129 2.28-39.085 12.845-41.271 53.037a159.435 159.435 0 0 0 .045 21.749 24.382 24.382 0 0 1 -10.564 22.411c-12.907 8.674-31.052 20.018-44.2 24.8-12.208 4.444-23.135 11.325-35.788 19.294-11.555 7.277-24.652 15.525-40.7 22.89-21.017 9.642-58.718 33.788-86.644 52.346-7.624 5.066-8.639 12.939-9.62 20.552-.142 1.1-.284 2.2-.447 3.3a48.085 48.085 0 0 1 -1.112 4.97c-1.241 4.767-2.647 10.171.428 15.676 2.287 4.092 5.7 5.2 8.718 6.185a19.047 19.047 0 0 1 4.11 1.7c7.1 4.306 14.546 8.018 22.069 8.018a21.406 21.406 0 0 0 9.9-2.4 225.419 225.419 0 0 1 22.986-10.129c9.94-3.75 23.965-11.752 40.206-21.017 14.581-8.318 31.107-17.747 47.283-25.513 19.989-9.6 76.162-38.105 76.727-38.391l.1-.052c.464-.257 46.878-25.443 85.714-4.553 14.978 8.056 28.928 11.322 41.462 9.716a40 40 0 0 0 20.3-8.34 5.046 5.046 0 0 0 -.1-7.887 159.5 159.5 0 0 0 -14.472-10.029c13.867-5.91 43.019-28.106 48.302-110.653zm-6.049-1.55a5.538 5.538 0 0 1 .061 1.168c-.219 3.421-.5 6.99-.856 10.654a241.923 241.923 0 0 0 -38.334 37.847c-25.57 32.081-48.131 30.631-55.422 29.07 1.707-7.566 5.99-23.33 13.641-32.585 6.62-8.008 12.143-22.758 15.669-33.959a25.745 25.745 0 0 0 11.892 2.717c5.952 0 13.594-1.716 22.917-7.1 13.423-7.754 25.399-8.1 30.428-7.81zm-63.851-27.306c17.484 3.488 36.818 10.636 57.552 21.357a63.339 63.339 0 0 0 -27.135 8.564c-16.844 9.729-26.619 5.836-30.04 3.718.518-1.794.961-3.4 1.319-4.734a4.469 4.469 0 0 0 -6.958-4.762l-.084.062c-6.785 4.965-14.417 10.55-30.838 13.061.485-5.019 2.722-14.581 12.483-19.911 15.34-8.376 21.353-14.215 23.701-17.355zm-47.162.828c11.707-3.6 25.23-4.245 40.242-2.03-2.826 2.725-8.506 7.2-19.657 13.291-13.115 7.162-15.353 20.261-15.681 26.009-12.994 2.091-24.147 7.992-30.417 11.911a73.794 73.794 0 0 0 -1.968-8.992c-1.514-5.813-3.216-12.377-2.636-18.762 1.569-2.589 10.125-15.286 30.116-21.427zm-261.583 232.555c-1.643 2.931-3.689 6.577-2.237 10.453a35.034 35.034 0 0 1 1.766 8.241c-5.533-.21-11.493-3.013-18.254-7.116a24.44 24.44 0 0 0 -5.367-2.272c-2.757-.9-4.247-1.456-5.335-3.405-1.9-3.4-1-6.86.14-11.239a53.541 53.541 0 0 0 1.239-5.6c.17-1.14.317-2.283.464-3.42.629-4.88 1.206-9.281 3.411-12.7a16.281 16.281 0 0 0 4.275 7.15 12.473 12.473 0 0 0 9.575 3.186c4.662-.287 5.5 1.607 6.942 5.91.911 2.717 1.944 5.8 4.832 7.53l.082.052a15.683 15.683 0 0 1 -1.533 3.23zm340.154-79.846c-18.851 14.3-46.145 1.548-54.167-2.766-41.456-22.3-88.769 3.1-91.415 4.562-1.909.969-56.879 28.86-76.561 38.309-16.368 7.859-32.992 17.342-47.66 25.711-16.019 9.138-29.853 17.031-39.35 20.613a231.618 231.618 0 0 0 -23.6 10.4 16.06 16.06 0 0 1 -1.933.818 40.634 40.634 0 0 0 -2.087-9.454c-.474-1.267.761-3.47 1.851-5.415 1.6-2.859 4.589-8.181-.693-11.353-.992-.6-1.595-2.392-2.233-4.294-1.411-4.207-3.543-10.567-12.994-9.991a6.6 6.6 0 0 1 -5.134-1.6c-2.061-1.883-2.954-5.186-3.279-7.365 22.994-15.25 63.043-41.131 84.331-50.9 16.412-7.53 29.687-15.89 41.4-23.267 12.362-7.784 23.038-14.508 34.643-18.733 13.714-4.992 32.309-16.6 45.493-25.461a30.386 30.386 0 0 0 13.195-27.913 153.47 153.47 0 0 1 -.032-20.9c1.756-32.278 23.261-43.226 33.594-46.629-2.485 7.106-6.482 20-7.967 33.075-.872 7.679 1.046 15.044 2.738 21.542a56.118 56.118 0 0 1 1.926 9.3 5.132 5.132 0 0 0 7.911 3.98c5.911-3.828 17.887-10.492 31.676-12.116 17.389-2.048 26.695-7.279 33.678-12.157-3.085 10.781-9.131 29.279-16.424 38.1-9.384 11.351-13.952 30.319-15.48 37.947a9.806 9.806 0 0 0 1.01 6.63c3.049 5.559 11.9 18.629 28.173 19.943 14.254 1.154 32.71 14.284 39.39 19.384zm-16.881-18.028c-7.136-3.727-14.911-6.759-22.026-7.334-12.608-1.018-19.947-10.914-22.906-15.984a39.4 39.4 0 0 0 6.312.494c11.944 0 32.016-5.007 53.5-31.969a238.947 238.947 0 0 1 32.7-33.1c-3.242 25.812-10.442 54.724-26.011 73.108-9.65 11.396-18.813 14.178-21.569 14.785z"/><path d="m206.936 409.363c-.223.2-22.793 20.66-61.047 33.631-23.189 7.863-40.791 22.515-41.529 23.134a3 3 0 1 0 3.859 4.6c.172-.145 17.466-14.542 39.6-22.046 39.441-13.374 62.226-34.021 63.177-34.893a3 3 0 1 0 -4.057-4.421z"/><path d="m161.957 405.617a2.987 2.987 0 0 0 1.926-.7c.173-.145 17.513-14.559 39.6-22.047 39.441-13.373 62.226-34.02 63.177-34.892a3 3 0 0 0 -4.056-4.421c-.224.205-22.794 20.66-61.048 33.63-23.189 7.863-40.791 22.515-41.529 23.134a3 3 0 0 0 1.932 5.3z"/><path d="m120.7 429.974a3 3 0 0 0 -3-3c-8.432 0-21.367 10.372-22.814 11.555a3 3 0 0 0 3.8 4.646c4.832-3.944 14.268-10.2 19.018-10.2a3 3 0 0 0 2.996-3.001z"/><path d="m302.714 366.152c-6.884 5.908-30.458 13.942-38.96 16.539a3 3 0 1 0 1.752 5.738c1.3-.4 31.872-9.791 41.115-17.723a3 3 0 0 0 -3.907-4.554z"/><path d="m292.6 310.2a2.99 2.99 0 0 0 2.3-1.069c9.249-11 9.719-19.453 10.573-34.806.135-2.419.28-5.025.472-7.858a53.973 53.973 0 0 1 8.16-24.78 3 3 0 1 0 -5.085-3.184 60 60 0 0 0 -9.062 27.558c-.193 2.86-.34 5.49-.476 7.931-.833 14.977-1.213 21.812-9.174 31.277a3 3 0 0 0 2.3 4.931z"/><path d="m358.58 305.043c17.242-5.343 24.872-16.985 25.188-17.478a3 3 0 1 0 -5.05-3.24c-.065.1-6.741 10.285-21.914 14.987-17.492 5.42-30.15 30.848-30.68 31.928a3 3 0 0 0 5.385 2.646c.119-.242 12.053-24.186 27.071-28.843z"/><path d="m345.55 361.61a3 3 0 1 0 -.02 6c.086 0 8.734.111 18.142 7.206 9.861 7.436 23.7 16.014 35.08 16.014q1 0 1.972-.091a3 3 0 0 0 -.561-5.973c-7.645.722-19.321-4.518-32.878-14.741-10.985-8.284-21.301-8.414-21.735-8.415z"/><path d="m32.713 189.041a19.124 19.124 0 0 1 3.408 2.857c7.864 8.983 16.795 17.02 28.79 15.008a225.374 225.374 0 0 1 24.966-2.72c10.607-.575 26.388-3.97 44.662-7.9 16.409-3.53 35.007-7.531 52.77-10.053 21.949-3.117 84.1-13.342 84.72-13.445l.106-.02c.521-.1 52.361-10.107 83.1 21.533 11.853 12.2 24.169 19.53 36.605 21.778a44.234 44.234 0 0 0 7.89.72 37.956 37.956 0 0 0 13.974-2.544 5.048 5.048 0 0 0 2.28-7.552 159.808 159.808 0 0 0 -10.776-13.928c15.024-1.455 49.5-13.836 79.392-90.926a11.684 11.684 0 0 0 -2.546-12.38c-35.982-36.692-69.827-55.426-100.6-55.68-.207 0-.412 0-.618 0a63.831 63.831 0 0 0 -29.213 6.688 173.507 173.507 0 0 1 13.7-20.437 4.3 4.3 0 0 0 -3.124-6.944c-9.393-.581-41.137.449-55.328 38.112a159.308 159.308 0 0 0 -6.508 20.751 24.361 24.361 0 0 1 -16.821 18.177c-14.918 4.374-35.634 9.713-49.612 10.308-12.979.552-25.471 3.815-39.936 7.593-13.208 3.45-28.179 7.361-45.7 9.538-22.942 2.849-66.162 14.491-98.379 23.755-8.8 2.53-12.135 9.731-15.364 16.694-.466 1.005-.934 2.014-1.421 3.014a47.946 47.946 0 0 1 -2.557 4.4c-2.619 4.172-5.588 8.9-4.314 15.078.952 4.584 3.875 6.684 6.454 8.525zm391.99-9.8c-12.635 7.953-22.211 7.839-25.019 7.586-5.682-5.708-12.182-10.946-18.792-13.641-11.719-4.779-15.733-16.434-17.025-22.159a45.045 45.045 0 0 0 20.41 4.538c11.6 0 27.091-3.719 46.1-16.489a238.685 238.685 0 0 1 41.15-21.691c-10.868 23.628-26.441 49.022-46.827 61.852zm54.6-80.692a5.634 5.634 0 0 1 -.303 1.13c-1.239 3.2-2.584 6.513-4.025 9.9a241.721 241.721 0 0 0 -47.95 24.514c-34.042 22.872-55.116 14.674-61.6 10.985 3.906-6.7 12.737-20.435 22.821-26.951 8.723-5.636 18.431-18.031 25.166-27.646 4.431 4.4 14.61 10.718 34.51 6.325 15.144-3.342 26.669-.055 31.378 1.739zm-4.213-7.575a63.331 63.331 0 0 0 -28.448-.024c-18.993 4.191-27.141-2.473-29.763-5.524 1.034-1.555 1.94-2.953 2.683-4.117a4.47 4.47 0 0 0 -5.2-6.639l-.1.034c-7.964 2.686-16.924 5.707-33.337 3.145 1.972-4.639 6.986-13.081 17.9-15.217 17.149-3.356 24.641-7.107 27.826-9.393 15.613 8.599 31.894 21.25 48.434 37.731zm-93.683-51.186c12.241.1 25.322 3.559 38.962 10.193-3.562 1.778-10.336 4.339-22.7 6.759-14.661 2.869-20.742 14.682-22.787 20.065-13.018-1.929-25.431.332-32.59 2.175a73.685 73.685 0 0 0 .833-9.171c.308-6.006.675-12.783 3.159-18.7 2.324-2.028 14.293-11.47 35.123-11.321zm-328.107 106.812c26.518-7.6 72.5-20.187 95.735-23.073 17.916-2.226 33.09-6.19 46.479-9.687 14.131-3.691 26.336-6.879 38.674-7.4 14.582-.62 35.807-6.076 51.045-10.544a30.362 30.362 0 0 0 20.99-22.633 153.684 153.684 0 0 1 6.265-19.938c11.402-30.253 35.212-34.197 46.081-34.325-4.51 6.024-12.205 17.113-17.56 29.134-3.144 7.057-3.534 14.658-3.878 21.365a55.956 55.956 0 0 1 -.966 9.448 5.135 5.135 0 0 0 6.344 6.181c6.789-1.865 20.215-4.6 33.85-1.991 17.2 3.3 27.649 1.116 35.776-1.426-6.188 9.347-17.525 25.162-27.137 31.372-12.367 7.991-22.436 24.7-26.19 31.508a9.8 9.8 0 0 0 -1.034 6.627c1.233 6.22 5.732 21.352 20.853 27.517 13.242 5.4 26.886 23.49 31.72 30.37-22.28 7.948-44.462-12.453-50.811-18.989-20.291-20.888-48.214-25.056-67.269-25.056a116.456 116.456 0 0 0 -21.267 1.815c-2.127.35-62.927 10.348-84.536 13.417-17.974 2.551-36.683 6.576-53.189 10.127-18.025 3.878-33.592 7.227-43.725 7.776a231.578 231.578 0 0 0 -25.633 2.793 15.9 15.9 0 0 1 -2.092.2 40.648 40.648 0 0 0 .859-9.648c-.071-1.35 1.77-3.078 3.4-4.6 2.39-2.242 6.839-6.415 2.76-11.034-.767-.868-.8-2.763-.836-4.77-.078-4.436-.2-11.139-9.379-13.445a6.626 6.626 0 0 1 -4.415-3.077c-1.4-2.422-1.257-5.84-.914-8.014zm-17.641 22.027a52.9 52.9 0 0 0 2.868-4.962c.5-1.035.99-2.08 1.472-3.12 2.07-4.463 3.945-8.485 7.076-11.075a16.279 16.279 0 0 0 1.925 8.109 12.482 12.482 0 0 0 8.168 5.927c4.534 1.139 4.761 3.194 4.841 7.732.051 2.865.108 6.112 2.339 8.637l.063.075a15.627 15.627 0 0 1 -2.432 2.61c-2.45 2.3-5.5 5.159-5.282 9.292a35.14 35.14 0 0 1 -.8 8.391c-5.212-1.872-10.05-6.346-15.261-12.3a24.457 24.457 0 0 0 -4.431-3.784c-2.36-1.688-3.612-2.671-4.063-4.86-.788-3.814 1.112-6.84 3.517-10.672z"/><path d="m78.086 183.809a2.994 2.994 0 0 0 3.914 1.626c.209-.085 21.083-8.594 44.4-9.067 41.634-.846 69.578-13.654 70.748-14.2a3 3 0 0 0 -2.533-5.439c-.276.128-28.045 12.821-68.336 13.639-24.479.5-45.675 9.154-46.566 9.522a3 3 0 0 0 -1.627 3.919z"/><path d="m153.756 139.722a3.008 3.008 0 0 0 1.144-.228c.208-.086 21.082-8.595 44.395-9.068 41.633-.846 69.578-13.654 70.747-14.2a3 3 0 0 0 -2.533-5.439c-.276.128-28.045 12.821-68.336 13.639-24.479.5-45.675 9.154-46.566 9.522a3 3 0 0 0 1.149 5.773z"/><path d="m80.1 156.5a2.977 2.977 0 0 0 1.106-.213c5.8-2.3 16.675-5.42 21.205-3.986a3 3 0 0 0 1.811-5.721c-8.04-2.544-23.5 3.441-25.233 4.132a3 3 0 0 0 1.111 5.788z"/><path d="m256.819 148.45a2.965 2.965 0 0 0 -3.03 2.969 3 3 0 0 0 2.969 3.031c.161 0 .755.007 1.7.007 6.973 0 32.974-.29 42.844-4.5a3 3 0 1 0 -2.351-5.52c-8.351 3.563-33.242 4.102-42.132 4.013z"/><path d="m307.062 88.185a2.987 2.987 0 0 0 1.6-.467c12.131-7.694 15.127-15.616 20.566-30 .857-2.266 1.78-4.706 2.816-7.349a53.935 53.935 0 0 1 15.245-21.164 3 3 0 1 0 -3.89-4.568 59.955 59.955 0 0 0 -16.941 23.541c-1.046 2.668-1.977 5.131-2.842 7.418-5.305 14.027-7.727 20.429-18.168 27.05a3 3 0 0 0 1.61 5.535z"/><path d="m331.782 118.222a3 3 0 0 0 4.337 4.146c.186-.194 18.684-19.328 34.38-19.328h.117c18.037.135 28.832-8.688 29.282-9.062a3 3 0 0 0 -3.83-4.619c-.094.077-9.541 7.682-25.123 7.682h-.445c-18.266-.001-37.889 20.314-38.718 21.181z"/><path d="m341.158 153.042a3 3 0 1 0 -1.83 5.713c.082.027 8.294 2.743 15.128 12.348 7.582 10.655 19.033 23.878 30.53 26.366a3 3 0 0 0 1.269-5.865c-7.5-1.623-17.062-10.139-26.91-23.98-7.978-11.213-17.774-14.45-18.187-14.582z"/></svg>