<svg id="Layer_1" height="512" viewBox="0 0 512 512" width="512" xmlns="http://www.w3.org/2000/svg" data-name="Layer 1"><path d="m209.935 377.952a9.142 9.142 0 0 0 -7.806-15c-106.972 9.817-155.377 60.634-171.222 82.027a9.427 9.427 0 0 0 7.347 15.021q2.1.056 4.487.058c32.918.003 106.133-9.184 167.194-82.106zm-47.608-2.9c-18.9 7.968-42.07 19.367-69.3 34.117-18.168 9.84-34.553 19.253-45.8 25.842 18.779-19.621 54.417-46.799 115.1-59.961zm-124.384 78.909a3.429 3.429 0 0 1 -2.484-4.987c8.537-5.163 110.5-66.446 159.831-79.287 2.433-.274 4.889-.533 7.388-.762.092-.008.185-.013.277-.013a3.131 3.131 0 0 1 2.509 5c-47.064 37.118-158.464 76.856-167.521 80.049zm18.7-.438c12.209-4.571 29.745-11.36 48.913-19.493 33.722-14.307 60.961-27.77 81.406-40.214-47.362 45.569-98.614 57.309-130.322 59.707z"/><path d="m473.137 371.168c-15.944-3.478-47.871-7.845-86.655.511a9.127 9.127 0 0 0 4.132-14.644c-70.107-81.488-139.537-91.431-166.135-91.923a9.426 9.426 0 0 0 -7.955 14.711c16.945 25.156 67.082 84.5 166.417 92.282q.363.029.721.029a8.949 8.949 0 0 0 1.052-.069 223.273 223.273 0 0 0 -72.963 31.009c-21.351-47.865-50.174-72.474-65.012-82.664a9.417 9.417 0 0 0 -14.733 7.9c.02 1.894.075 3.971.179 6.214a207.744 207.744 0 0 0 -71.893-32.568c.868.01 1.722.039 2.6.039a250.581 250.581 0 0 0 40.64-3.389 9.145 9.145 0 0 0 3.864-16.465c-87.484-62.418-157.28-55.509-183.228-49.641a9.429 9.429 0 0 0 -4.224 16.185c14.318 13.006 45.072 36.3 90.987 47.274a241.328 241.328 0 0 0 -64.365 8.516 9.146 9.146 0 0 0 -2.218 16.768c53.856 30.883 99.55 39.323 133.406 39.322 24.744 0 43.165-4.508 53.823-8.058a9.449 9.449 0 0 0 2.154-1.048 212.874 212.874 0 0 0 27.469 79.241c-35.978-8.49-89.2-11.076-149.87 18.215a9.145 9.145 0 0 0 .949 16.887c33.688 11.644 66.23 17.516 96.972 17.516q7.4 0 14.667-.455c28.951-1.814 50.9-8.833 64.854-14.827a250.14 250.14 0 0 0 31.458 29.022 9.136 9.136 0 0 0 14.7-8.357 332.456 332.456 0 0 0 -10.6-51.272c1.108.011 2.224.038 3.327.038 36.137 0 69.129-6.075 98.156-18.084 25.411-10.513 42.161-23.249 51.739-32.082a9.429 9.429 0 0 0 -4.408-16.135zm-413.848-136.344c27.16 0 65.269 6.189 109.987 30.475-19.511-6.299-44.476-12.782-74.692-19.379-20.184-4.408-38.744-7.974-51.563-10.32 4.866-.475 10.297-.776 16.268-.776zm-36.331 5.976a3.332 3.332 0 0 1 2.054-2.3c9.849 1.665 127.065 21.8 172.814 44.288q3.027 2.067 6.082 4.241a3.134 3.134 0 0 1 -1.133 5.6c-25.589-1.114-64.656-9.886-113.033-25.386-34.042-10.907-61.818-21.67-66.09-23.343a3.4 3.4 0 0 1 -.694-3.1zm15.236 15.039c29.3 10.829 89.771 31.857 137.587 39.787q-6.56.362-12.871.367c-58.759-.002-100.81-22.533-124.716-40.154zm71.179 46.108a207.045 207.045 0 0 1 105.966 28.727c-30.217-7.875-92.5-22.822-140.884-25.981a227.261 227.261 0 0 1 34.918-2.746zm68.369 52.63c-25.043 0-56.835-4.779-93.828-20.355 20.041 4.341 45.532 8.321 76.267 11.9 20.523 2.388 39.34 4.1 52.33 5.171a179.179 179.179 0 0 1 -34.769 3.284zm54.219-10.454a3.337 3.337 0 0 1 -1.816 2.5c-9.96-.68-128.551-9.113-176.314-26.955-2.154-1.177-4.316-2.377-6.5-3.628a3.134 3.134 0 0 1 .576-5.689c25.576-1.428 65.315 3.437 114.986 14.073 34.95 7.485 63.654 15.446 68.07 16.685a3.394 3.394 0 0 1 .998 3.014zm125.688-12.509c-17.455-10.781-40.173-23.04-67.975-36.668-18.558-9.1-35.732-16.988-47.623-22.331 26.86 3.917 69.655 17.185 115.598 58.999zm-125.169-40.562c10.807 7.3 26.507 17.644 44.244 28.54 31.223 19.182 57.994 33.568 79.988 43.005-64.555-12.138-103.866-47.091-124.232-71.545zm151.156 75.069c-57.51-16.8-154.522-84.535-162.372-90.057a3.394 3.394 0 0 1 .064-3.181 3.336 3.336 0 0 1 2.556-1.737c9.273 4.011 118.2 51.488 157.271 84.223 1.636 1.824 3.273 3.675 4.91 5.579a3.132 3.132 0 0 1 -2.429 5.173zm70.208 7.98c-30.794 5.3-94.172 17.42-139.189 34.244 55.184-35.953 108.002-37.737 139.189-34.245zm-132.481 75.193c-8.648-18.615-20.874-41.363-36.591-68.052-10.491-17.816-20.49-33.863-27.481-44.876 20.271 18.073 48.699 52.721 64.072 112.928zm-55.663-11.267q1.182 1.842 2.418 3.686c-25.863-1.385-83.954-3.5-129.106 2.143 51.896-18.374 96.527-13.902 126.688-5.829zm-151.464 22.106a3.134 3.134 0 0 1 -.491-5.7c47.24-11.749 131.566-8.058 158.724-6.469q3.682 5.106 7.807 10.2c-38.467 4.029-119.317 11.1-158.981 4.313-2.469-.786-4.828-1.577-7.059-2.344zm39.764 11.023q5.75.138 11.782.137c41.315 0 90.756-4.569 117.331-7.39-44.443 18.065-92.102 15.03-129.113 7.253zm85.16-124.668c5.013 12.047 12.432 29.333 21.249 48.2 15.523 33.213 29.964 59.971 43.137 79.968-47.21-45.698-60.82-96.53-64.386-128.168zm88.778 135.612c.363 2.426.712 4.874 1.033 7.366a3.125 3.125 0 0 1 -4.867 2.978c-38.782-45.722-82.554-155.736-86.072-164.668a3.387 3.387 0 0 1 1.8-2.62 3.322 3.322 0 0 1 3.085-.045c5.517 8.43 70.389 108.116 85.021 156.989zm7.616-50.8c42.549-9.141 97.39-27.79 124.433-37.393-41.07 29.777-93.008 36.413-124.433 37.4zm138.266-48.774c-8.319 3.09-97.054 35.769-152.446 45.451q-2.388-7.209-5.006-13.868c58.045-21.784 147.671-35.693 155.942-36.948a3.387 3.387 0 0 1 2.143 2.337 3.341 3.341 0 0 1 -.633 3.028z"/><path d="m374.579 112.153a9.139 9.139 0 0 0 -12.712 11.147 332.922 332.922 0 0 0 20.41 47.546 213.379 213.379 0 0 0 -70.893-5.03c22.859-29.083 47.647-76.319 46.694-143.772a9.133 9.133 0 0 0 -15.7-6.255c-28.717 29.8-49.748 61.482-62.508 94.168-10.561 27.051-13.455 49.937-13.908 65.133a249.636 249.636 0 0 0 -39.548 16.335 9.145 9.145 0 0 0 1.38 16.857c31.845 10.1 62.533 15.188 91.515 15.188q10.38 0 20.461-.871c29.119-2.518 50.921-10.135 64.658-16.484 29.8 40.012 61.566 57.457 77.674 64.246a9.421 9.421 0 0 0 12.841-10.71c-6.422-29.651-30.997-103.385-120.364-147.498zm109.7 131.138c-7.334-10.789-18.078-26.225-30.511-42.927-21.888-29.4-41.418-52.7-58.345-69.635 55.439 35.242 78.997 82.291 88.854 112.562zm-181.425-76.484q-2.16.3-4.349.642c12.151-22.887 38.547-74.732 52.477-118.106-5.241 54.857-28.104 93.485-48.128 117.464zm43.846-146.855a3.121 3.121 0 0 1 5.359 1.955c-9.277 47.853-48.172 122.872-61.059 146.854q-6.174 1.188-12.524 2.788c12.564-36.621 40.239-113.025 63.113-146.178q2.64-2.863 5.111-5.419zm-26.77 31.492c-19.168 38.83-38.34 92.444-47.831 120.228 2.376-47.94 25.195-89.91 47.827-120.228zm66.289 126.616c.548.97 1.1 1.937 1.649 2.889-65.931-2.224-108.2.944-134.347 4.854 54.132-20.903 101.027-16.347 132.698-7.743zm-149.5 26.671c-2.487-.729-4.864-1.455-7.113-2.169a3.133 3.133 0 0 1 -.636-5.682c45.076-12.437 127.45-11.068 162.57-9.8q2.879 4.676 5.813 9.03c-38.259 5.049-120.272 14.477-160.635 8.621zm32.832 7.839c43.391-.054 100.132-6.739 129.573-10.641-44.024 19.449-92.118 17.564-129.574 10.641zm113.524-53.4c25.97 35.083 65.338 76.913 85.425 97.664-23.491-13.629-58.276-41.834-85.426-97.668zm104.833 105.15a3.326 3.326 0 0 1 -3.012.666c-7.1-7.146-90.7-91.7-114.86-136.625-.843-2.3-1.677-4.629-2.493-7a3.164 3.164 0 0 1 .357-2.754 3.128 3.128 0 0 1 2.616-1.394 3.177 3.177 0 0 1 1.21.258c47.183 36.963 112.174 135.878 117.418 143.916a3.389 3.389 0 0 1 -1.237 2.929z"/></svg>