<svg id="Capa_1" enable-background="new 0 0 512.001 512.001" height="512" viewBox="0 0 512.001 512.001" width="512" xmlns="http://www.w3.org/2000/svg"><g><path d="m497 332.001h-16v-15c0-90.981-74.019-165-165-165-8.284 0-15 6.716-15 15 0 41.355-33.645 75-75 75h-90c-52.805 0-96.623 39.183-103.924 90h-17.076c-8.284 0-15 6.716-15 15 0 36.687 12.652 68.26 36.591 91.304 23.626 22.745 57.118 36.863 99.545 41.961 8.475 1.018 14.864 8.213 14.864 16.735 0 8.284 6.716 15 15 15h180c8.284 0 15-6.716 15-15v-15.447c44.895-2.712 83.134-17.696 110.586-43.334 26.062-24.339 40.414-56.735 40.414-91.219 0-8.284-6.715-15-15-15zm-361-60h90c52.562 0 96.223-38.822 103.825-89.297 67.97 6.945 121.175 64.524 121.175 134.296v15h-388.49c6.968-34.191 37.271-59.999 73.49-59.999zm223.143 179.611c-15.781.949-28.143 14.071-28.143 29.872v.516h-152.464c-5.65-16.684-20.478-29.316-38.82-31.521-64.469-7.747-102.545-38.947-108.799-88.479h449.892c-8.019 49.63-55.798 85.649-121.666 89.612z"/><path d="m15 210.001h209.905c5.532 0 10.615-3.045 13.226-7.922 2.609-4.877 2.323-10.796-.745-15.398l-120-180c-2.965-4.448-8.075-6.987-13.412-6.65-5.337.331-10.094 3.479-12.484 8.261l-89.905 180c-2.325 4.65-2.077 10.172.656 14.594s7.561 7.115 12.759 7.115zm91.763-165.173 90.115 135.173h-157.702z"/><circle cx="104.906" cy="135.001" r="15"/></g></svg>