<?xml version="1.0" encoding="iso-8859-1"?>
<!-- Generator: Adobe Illustrator 19.0.0, SVG Export Plug-In . SVG Version: 6.00 Build 0)  -->
<svg version="1.1" id="Capa_1" xmlns="http://www.w3.org/2000/svg" xmlns:xlink="http://www.w3.org/1999/xlink" x="0px" y="0px"
	 viewBox="0 0 480 480" style="enable-background:new 0 0 480 480;" xml:space="preserve">
<g>
	<g>
		<path d="M472.368,136.76L424,53.84V32c0-8.837,7.163-16,16-16s16,7.163,16,16s-7.163,16-16,16v16c17.673,0,32-14.327,32-32
			S457.673,0,440,0H200c-17.673,0-32,14.327-32,32v22.112l-42.088,84.176c-3.881,7.78-5.904,16.354-5.912,25.048V232h16v-68.664
			c0.01-6.211,1.455-12.336,4.224-17.896L180.944,64h222.112l-37.144,74.288c-3.881,7.78-5.904,16.354-5.912,25.048V368H240v16h200
			c22.08-0.026,39.974-17.92,40-40V164.976C479.995,155.061,477.362,145.325,472.368,136.76z M184,48V32c0-8.837,7.163-16,16-16
			h212.296c-0.631,1.095-1.195,2.228-1.688,3.392l-0.104,0.208c-0.704,1.719-1.255,3.497-1.648,5.312
			c-0.104,0.44-0.192,0.888-0.272,1.344c-0.369,1.893-0.565,3.816-0.584,5.744v16H184z M464,344c0,13.255-10.745,24-24,24h-64
			V163.336c0.01-6.211,1.455-12.336,4.224-17.896l36.32-72.632l42.008,72C462.12,150.93,464,157.89,464,164.976V344z"/>
	</g>
</g>
<g>
	<g>
		<path d="M216,320h-12.904l-74.952-68.136c-9.139-8.359-23.149-8.359-32.288,0L20.904,320H8c-4.418,0-8,3.582-8,8v56
			c-0.067,38.542,19.787,74.382,52.496,94.768c1.273,0.806,2.749,1.233,4.256,1.232h110.496c1.507,0.001,2.983-0.426,4.256-1.232
			C204.213,458.382,224.067,422.542,224,384v-56C224,323.582,220.418,320,216,320z M106.624,263.704
			c3.039-2.794,7.712-2.794,10.752,0L179.312,320H44.688L106.624,263.704z M208,384c0.053,32.234-16.16,62.319-43.112,80H59.112
			C32.16,446.319,15.947,416.234,16,384v-48h192V384z"/>
	</g>
</g>
<g>
	<g>
		<path d="M312,112h-16v24h-8c-2.617,0.009-5.227,0.277-7.792,0.8c3.741-18.371-4.09-37.167-19.768-47.448
			c-2.688-1.794-6.192-1.794-8.88,0c-15.678,10.281-23.509,29.077-19.768,47.448c-2.565-0.523-5.175-0.791-7.792-0.8h-8v-24h-16v48
			c0.029,8.684,2.914,17.117,8.208,24H208c-4.418,0-8,3.582-8,8v16c0.029,8.684,2.914,17.117,8.208,24H208c-4.418,0-8,3.582-8,8v16
			c0.026,22.08,17.92,39.974,40,40h8v32h16v-32h8c22.08-0.026,39.974-17.92,40-40v-16c0-4.418-3.582-8-8-8h-0.208
			c5.294-6.883,8.179-15.316,8.208-24v-16c0-4.418-3.582-8-8-8h-0.208c5.294-6.883,8.179-15.316,8.208-24V112z M248,280h-8
			c-13.255,0-24-10.745-24-24v-8h8c13.255,0,24,10.745,24,24V280z M248,232h-8c-13.255,0-24-10.745-24-24v-8h8
			c13.255,0,24,10.745,24,24V232z M248,184h-8c-13.255,0-24-10.745-24-24v-8h8c13.255,0,24,10.745,24,24V184z M256,248.248
			c-0.064-0.088-0.136-0.16-0.208-0.248H256h0.208C256.136,248.088,256.064,248.16,256,248.248z M256,200.248
			c-0.064-0.088-0.136-0.16-0.208-0.248H256h0.208C256.136,200.088,256.064,200.16,256,200.248z M256.369,149.407
			c-0.122,0.124-0.245,0.247-0.369,0.369c-12.027-11.823-12.192-31.156-0.369-43.183c0.122-0.124,0.245-0.247,0.369-0.369
			C268.027,118.047,268.192,137.38,256.369,149.407z M296,256c0,13.255-10.745,24-24,24h-8v-8c0-13.255,10.745-24,24-24h8V256z
			 M296,208c0,13.255-10.745,24-24,24h-8v-8c0-13.255,10.745-24,24-24h8V208z M296,160c0,13.255-10.745,24-24,24h-8v-8
			c0-13.255,10.745-24,24-24h8V160z"/>
	</g>
</g>
<g>
</g>
<g>
</g>
<g>
</g>
<g>
</g>
<g>
</g>
<g>
</g>
<g>
</g>
<g>
</g>
<g>
</g>
<g>
</g>
<g>
</g>
<g>
</g>
<g>
</g>
<g>
</g>
<g>
</g>
</svg>
