<?xml version="1.0" encoding="iso-8859-1"?>
<!-- Generator: Adobe Illustrator 19.0.0, SVG Export Plug-In . SVG Version: 6.00 Build 0)  -->
<svg version="1.1" id="Capa_1" xmlns="http://www.w3.org/2000/svg" xmlns:xlink="http://www.w3.org/1999/xlink" x="0px" y="0px"
	 viewBox="0 0 512.039 512.039" style="enable-background:new 0 0 512.039 512.039;" xml:space="preserve">
<g>
	<g>
		<path d="M175.655,332.952c-19.086-2.269-36.986-10.444-51.2-23.381c-14.707-12.364-25.131-29.059-29.781-47.701
			c-5.362-22.186-17.645-42.091-35.072-56.832c-6.315-5.888-12.032-10.325-17.579-14.421c-3.794-2.804-9.143-2.002-11.947,1.792
			c-2.804,3.794-2.002,9.143,1.792,11.947c5.12,3.755,10.496,8.192,16.469,13.483c14.712,12.345,25.112,29.052,29.696,47.701
			c5.452,22.19,17.789,42.084,35.243,56.832c16.995,15.318,38.362,24.927,61.099,27.477h0.768l-0.256,0.171
			c4.713,0.212,8.705-3.436,8.917-8.149C184.017,337.156,180.368,333.164,175.655,332.952z"/>
	</g>
</g>
<g>
	<g>
		<path d="M399.129,173.791c-3.016-3.621-8.397-4.111-12.018-1.095c-12.432,10.267-26.59,18.242-41.813,23.552
			c-36.838,12.619-77.055,11.067-112.811-4.352c-4.086-1.535-8.673,0.261-10.63,4.163c-2.113,4.213-0.41,9.341,3.803,11.453
			c39.783,17.018,84.487,18.57,125.355,4.352c11.283-3.963,22.077-9.203,32.171-15.616c-7.765,76.8-66.048,136.533-136.533,136.533
			H177.96c-4.713,0-8.533,3.82-8.533,8.533c0,4.713,3.821,8.533,8.533,8.533h68.693c85.163,0,154.453-76.8,154.453-170.667
			C401.09,177.21,400.391,175.305,399.129,173.791z"/>
	</g>
</g>
<g>
	<g>
		<path d="M172.541,332.994c-4.571-1.155-9.213,1.615-10.368,6.187c0,1.195-7.253,27.733-34.133,27.733
			c-4.713,0-8.533,3.82-8.533,8.533c0,4.713,3.82,8.533,8.533,8.533c24.133-0.532,44.91-17.182,50.688-40.619
			C179.882,338.791,177.112,334.149,172.541,332.994z"/>
	</g>
</g>
<g>
	<g>
		<path d="M290.173,366.914c-26.539,0-34.133-26.539-34.133-27.733c-1.155-4.713-5.911-7.597-10.624-6.443
			c-4.713,1.155-7.597,5.911-6.443,10.624c5.827,23.618,26.876,40.317,51.2,40.619c4.713,0,8.533-3.82,8.533-8.533
			C298.706,370.735,294.885,366.914,290.173,366.914z"/>
	</g>
</g>
<g>
	<g>
		<path d="M392.573,366.914H25.639c-4.713,0-8.533,3.82-8.533,8.533c0,4.713,3.82,8.533,8.533,8.533h366.933
			c4.713,0,8.533-3.82,8.533-8.533C401.105,370.734,397.285,366.914,392.573,366.914z"/>
	</g>
</g>
<g>
	<g>
		<path d="M349.906,366.914h-281.6c-1.461-0.047-2.909,0.281-4.206,0.954c-4.183,2.17-5.815,7.321-3.645,11.504l7.851,15.275
			c7.618,14.634,22.842,23.716,39.339,23.467h202.923c16.496,0.25,31.721-8.832,39.339-23.467l7.595-15.275
			c0.631-1.218,0.959-2.571,0.956-3.943C358.447,370.717,354.619,366.905,349.906,366.914z M334.461,386.797
			c-4.652,8.865-13.883,14.37-23.893,14.251H107.645c-10.01,0.12-19.242-5.386-23.893-14.251l-1.451-2.816h253.611L334.461,386.797z
			"/>
	</g>
</g>
<g>
	<g>
		<path d="M449.917,95.725c-37.961-8.353-76.177,12.972-89.003,49.664c-3.746,10.719-3.746,22.391,0,33.109
			c4.441,12.388,16.372,20.492,29.525,20.053c4.713-0.471,8.151-4.674,7.68-9.387s-4.674-8.151-9.387-7.68
			c-5.525-0.252-10.3-3.936-11.947-9.216c-2.179-7.101-1.939-14.725,0.683-21.675c10.017-28.015,39.123-44.387,68.267-38.4
			c27.392,7.253,49.237,36.267,49.237,66.987c-0.217,31.13-18.407,59.329-46.677,72.363c-11.976,4.693-24.464,7.959-37.205,9.728
			c-6.741,1.28-13.739,2.475-20.565,4.181c-32.085,7.595-49.152,25.515-49.152,50.261c0,4.713,3.82,8.533,8.533,8.533
			c4.713,0,8.533-3.82,8.533-8.533c0-20.565,19.627-29.696,36.011-33.792c6.4-1.536,13.056-2.731,19.541-3.925
			c14.095-1.994,27.903-5.661,41.131-10.923c34.367-15.833,56.529-50.057,56.917-87.893
			C512.009,140.704,486.767,106.794,449.917,95.725z"/>
	</g>
</g>
<g>
	<g>
		<path d="M232.487,192.152c-11.482-5.024-22.22-11.599-31.915-19.541c-29.424-23.817-66.255-36.586-104.107-36.096
			c-31.026-0.148-61.473,8.395-87.893,24.661c-5.662,3.249-8.975,9.444-8.533,15.957c0.353,6.485,4.355,12.207,10.325,14.763
			c7.676,3.435,14.922,7.759,21.589,12.885c2.906,1.99,6.736,1.99,9.643,0c12.332-7.501,26.527-11.375,40.96-11.179
			c15.151-0.232,30.021,4.11,42.667,12.459c6.885,4.849,14.487,8.592,22.528,11.093c3.417,0.912,5.818,3.974,5.888,7.509v22.784
			c0,14.138,11.461,25.6,25.6,25.6c1.448,0.124,2.904,0.124,4.352,0c12.681-2.496,21.702-13.79,21.333-26.709v-21.845
			c-0.126-3.992,2.533-7.537,6.4-8.533c7.539-2.053,14.835-4.914,21.76-8.533c1.635-0.893,2.933-2.296,3.695-3.996
			C238.709,199.131,236.787,194.081,232.487,192.152z M206.546,199.917c-11.088,3.068-18.768,13.156-18.773,24.661v21.845
			c0.144,4.378-2.76,8.274-6.997,9.387c-2.496,0.445-5.06-0.243-6.997-1.877c-1.927-1.605-3.051-3.977-3.072-6.485v-22.784
			c-0.005-11.025-7.207-20.754-17.749-23.979c-6.354-1.897-12.371-4.776-17.835-8.533c-15.663-10.477-34.15-15.925-52.992-15.616
			c-15.579-0.142-30.957,3.519-44.8,10.667c-6.34-4.528-13.115-8.416-20.224-11.605c23.863-14.641,51.365-22.27,79.36-22.016
			c33.864-0.483,66.83,10.898,93.184,32.171c6.034,4.994,12.454,9.502,19.2,13.483L206.546,199.917z"/>
	</g>
</g>
<g>
	<g>
		<path d="M185.298,292.589l-1.28-1.024c-0.475-0.325-0.991-0.583-1.536-0.768c-0.509-0.257-1.057-0.43-1.621-0.512
			c-1.066-0.251-2.176-0.251-3.243,0c-0.565,0.082-1.112,0.255-1.621,0.512c-0.545,0.185-1.061,0.443-1.536,0.768l-1.28,1.024
			c-1.597,1.61-2.488,3.79-2.475,6.059c0.009,2.239,0.898,4.384,2.475,5.973c1.596,1.629,3.778,2.55,6.059,2.56
			c1.115-0.013,2.217-0.245,3.243-0.683c1.055-0.432,2.012-1.07,2.816-1.877c1.576-1.589,2.465-3.735,2.475-5.973
			C187.741,296.388,186.857,294.224,185.298,292.589z"/>
	</g>
</g>
<g>
</g>
<g>
</g>
<g>
</g>
<g>
</g>
<g>
</g>
<g>
</g>
<g>
</g>
<g>
</g>
<g>
</g>
<g>
</g>
<g>
</g>
<g>
</g>
<g>
</g>
<g>
</g>
<g>
</g>
</svg>
