<svg id="Capa_1" enable-background="new 0 0 512 512" height="512" viewBox="0 0 512 512" width="512" xmlns="http://www.w3.org/2000/svg"><g><path d="m218.787 243.291-59.757-28.158c-3.02-1.415-6.227-2.133-9.53-2.133s-6.511.718-9.545 2.14l-59.742 28.151c-49.477 23.313-80.213 68.991-80.213 119.209 0 82.435 67.065 149.5 149.5 149.5s149.5-67.065 149.5-149.5c0-50.218-30.736-95.896-80.213-119.209zm52.986 175.21c-27.838-39.464-73.546-63.501-122.273-63.501-21.089 0-41.503 4.323-60.675 12.85-3.785 1.683-5.488 6.115-3.805 9.9 1.684 3.784 6.115 5.489 9.901 3.805 17.24-7.667 35.603-11.555 54.579-11.555 46.382 0 89.738 24.199 114.216 63.446-23.768 38.125-66.075 63.554-114.216 63.554-48.137 0-90.441-25.425-114.21-63.545 9.105-14.582 21.139-27.549 35.028-37.683 3.346-2.441 4.079-7.133 1.638-10.479s-7.132-4.082-10.479-1.638c-13.37 9.755-24.846 21.44-34.258 34.827-7.84-17.055-12.219-36.016-12.219-55.982 0-44.35 27.438-84.828 71.607-105.641l59.728-28.145c2.025-.949 4.319-.942 6.315-.007l59.742 28.151c44.17 20.814 71.608 61.292 71.608 105.642 0 19.974-4.383 38.941-12.227 56.001z"/><path d="m362.5 0c-82.435 0-149.5 67.065-149.5 149.5 0 50.218 30.736 95.896 80.213 119.209l59.757 28.158c3.02 1.415 6.227 2.133 9.53 2.133s6.511-.718 9.545-2.14l59.742-28.151c49.477-23.313 80.213-68.991 80.213-119.209 0-82.435-67.065-149.5-149.5-149.5zm0 15c48.141 0 90.448 25.429 114.216 63.554-24.478 39.247-67.834 63.446-114.216 63.446-46.381 0-89.737-24.198-114.216-63.445 23.768-38.126 66.075-63.555 114.216-63.555zm62.893 240.141-59.728 28.145c-2.025.949-4.319.942-6.315.007l-59.742-28.151c-44.17-20.814-71.608-61.292-71.608-105.642 0-19.974 4.383-38.941 12.227-56.001 27.838 39.464 73.546 63.501 122.273 63.501s94.435-24.037 122.272-63.501c7.845 17.06 12.228 36.027 12.228 56.001 0 44.35-27.438 84.828-71.607 105.641z"/></g></svg>