<?xml version="1.0" encoding="iso-8859-1"?>
<!-- Generator: Adobe Illustrator 19.0.0, SVG Export Plug-In . SVG Version: 6.00 Build 0)  -->
<svg version="1.1" id="Capa_1" xmlns="http://www.w3.org/2000/svg" xmlns:xlink="http://www.w3.org/1999/xlink" x="0px" y="0px"
	 viewBox="0 0 511.999 511.999" style="enable-background:new 0 0 511.999 511.999;" xml:space="preserve">
<g>
	<g>
		<g>
			<path d="M410.428,90.097c-4.143,0-7.5,3.357-7.5,7.5v17.944c0,12.067-3.656,23.673-10.573,33.561
				c-8.689,12.422-13.282,27-13.282,42.158v0.97h-14.705c-4.143,0-7.5,3.357-7.5,7.5s3.357,7.5,7.5,7.5h14.705v17.804h-14.705
				c-4.143,0-7.5,3.357-7.5,7.5s3.357,7.5,7.5,7.5h14.705v8.057c0,15.159,4.593,29.737,13.282,42.159
				c6.917,9.889,10.573,21.494,10.573,33.561v34.29c0,36.53-29.72,66.25-66.251,66.25H175.323c-12.021,0-23.792-3.25-34.037-9.398
				c-3.551-2.133-8.158-0.981-10.29,2.571c-2.132,3.552-0.98,8.159,2.571,10.29c11.634,6.982,24.861,10.911,38.445,11.462v45.429
				c0,15.05,12.244,27.294,27.294,27.294h113.387c15.05,0,27.294-12.244,27.294-27.294v-45.438
				c43.271-1.745,77.94-37.475,77.94-81.166v-34.29c0-15.159-4.593-29.737-13.282-42.159c-6.917-9.889-10.573-21.494-10.573-33.562
				v-56.83c0-12.066,3.656-23.672,10.573-33.561c8.689-12.421,13.282-26.999,13.282-42.158V97.597
				C417.928,93.454,414.57,90.097,410.428,90.097z M324.987,484.706c0,6.779-5.515,12.294-12.294,12.294H199.307
				c-6.779,0-12.294-5.515-12.294-12.294v-5.862h37.863c6.035,0,11.552-3.412,14.055-8.693c1.587-3.352,8.406-6.818,17.069-6.818
				c8.663,0,15.482,3.467,17.07,6.819c2.502,5.28,8.019,8.692,14.054,8.692h37.863V484.706z M324.988,463.844h-0.001h-37.863
				c-0.283,0-0.482-0.115-0.498-0.115c-4.431-9.352-16.452-15.396-30.626-15.396c-14.174,0-26.195,6.044-30.597,15.351
				c-0.041,0.043-0.24,0.161-0.527,0.161h-37.863v-24.492h137.975V463.844z"/>
			<path d="M216.342,180.821h79.316c7.828,0,14.197-6.369,14.197-14.197v-18.176c0-7.828-6.369-14.197-14.197-14.197h-79.316
				c-7.828,0-14.197,6.369-14.197,14.197v18.176C202.145,174.452,208.514,180.821,216.342,180.821z M217.145,149.251h77.711v16.57
				h-77.711V149.251z"/>
			<path d="M379.15,0h-246.3c-21.382,0-38.777,17.396-38.777,38.777v76.764c0,15.159,4.593,29.737,13.282,42.159
				c6.917,9.889,10.573,21.493,10.573,33.561v56.83c0,12.067-3.656,23.673-10.573,33.562c-8.689,12.422-13.282,27-13.282,42.159
				v34.29c0,15.506,4.386,30.585,12.683,43.607c1.43,2.244,3.854,3.471,6.332,3.471c1.379,0,2.774-0.38,4.023-1.176
				c3.493-2.226,4.521-6.862,2.295-10.355c-6.76-10.609-10.333-22.901-10.333-35.547v-34.29c0-12.067,3.656-23.673,10.573-33.561
				c8.69-12.422,13.282-27,13.282-42.159v-8.057h14.705c4.143,0,7.5-3.357,7.5-7.5s-3.357-7.5-7.5-7.5h-14.705V207.23h14.705
				c4.143,0,7.5-3.357,7.5-7.5s-3.357-7.5-7.5-7.5h-14.705v-0.97c0-15.158-4.593-29.736-13.282-42.159
				c-6.917-9.888-10.573-21.493-10.573-33.561V38.777C109.072,25.666,119.738,15,132.85,15h246.3
				c13.111,0,23.777,10.666,23.777,23.777v23.696c0,4.143,3.357,7.5,7.5,7.5s7.5-3.357,7.5-7.5V38.777
				C417.928,17.396,400.532,0,379.15,0z"/>
			<path d="M208.14,371.376h95.721c13.563,0,24.705-10.186,25.916-23.695l19.637-219.022c0.478-5.325-1.317-10.643-4.926-14.589
				c-3.607-3.945-8.743-6.209-14.091-6.209h-15.339c-1,0-1.823-0.768-2.003-1.868C308.476,77.923,284.48,57.55,256,57.55
				c-28.48,0-52.476,20.373-57.055,48.443c-0.18,1.1-1.003,1.867-2.003,1.867h-15.339c-5.348,0-10.483,2.264-14.091,6.209
				c-3.608,3.946-5.403,9.264-4.926,14.589l19.637,219.022C183.435,361.19,194.576,371.376,208.14,371.376z M178.582,124.191
				c0.455-0.497,1.452-1.331,3.021-1.331h15.339c8.374,0,15.442-6.079,16.808-14.454C217.139,87.63,234.908,72.55,256,72.55
				s38.861,15.08,42.25,35.855c1.365,8.376,8.434,14.455,16.808,14.455h15.339c1.569,0,2.566,0.834,3.021,1.331
				c0.454,0.497,1.195,1.564,1.056,3.127L314.837,346.34c-0.514,5.721-5.232,10.035-10.977,10.035h-95.72
				c-5.744,0-10.463-4.315-10.977-10.035l-19.637-219.022C177.387,125.756,178.128,124.688,178.582,124.191z"/>
			<path d="M231.264,124.655c4.143,0,7.5-3.357,7.5-7.5c0-9.504,7.732-17.236,17.236-17.236c9.504,0,17.236,7.732,17.236,17.236
				c0,4.143,3.358,7.5,7.5,7.5c4.143,0,7.5-3.357,7.5-7.5c0-17.775-14.461-32.236-32.236-32.236
				c-17.775,0-32.236,14.461-32.236,32.236C223.764,121.298,227.121,124.655,231.264,124.655z"/>
			<path d="M268.893,214.372c0.496-2.861,0.773-5.719,0.773-8.436c0-4.143-3.357-7.5-7.5-7.5s-7.5,3.357-7.5,7.5
				c0,2.932-0.473,6.205-1.304,9.337c-0.553-0.064-1.105-0.129-1.656-0.233c-2.452-0.462-4.968-0.696-7.478-0.696h-0.148
				c-22.17,0.076-40.171,18.178-40.127,40.351c0.044,22.16,18.109,40.189,40.27,40.189c2.221,0,4.451-0.184,6.628-0.546
				c3.417-0.566,6.882-0.566,10.297,0c2.179,0.362,4.409,0.546,6.63,0.546c22.161,0,40.227-18.029,40.27-40.19
				C308.089,232.847,290.611,214.968,268.893,214.372z M267.777,279.883c-1.398,0-2.802-0.115-4.173-0.343
				c-2.523-0.419-5.063-0.628-7.603-0.628c-2.541,0-5.084,0.209-7.607,0.628c-1.369,0.228-2.773,0.343-4.171,0.343
				c-13.906,0-25.242-11.313-25.27-25.218c-0.027-13.914,11.268-25.273,25.181-25.321c1.616-0.029,3.226,0.141,4.795,0.437
				c4.689,0.885,9.447,0.885,14.143,0c1.569-0.296,3.166-0.442,4.793-0.437c0,0,0.001,0,0.002,0
				c13.912,0.047,25.208,11.405,25.181,25.319C293.02,268.569,281.684,279.883,267.777,279.883z"/>
			<path d="M271.595,316.933h-31.189c-4.143,0-7.5,3.357-7.5,7.5s3.357,7.5,7.5,7.5h31.189c4.143,0,7.5-3.357,7.5-7.5
				S275.737,316.933,271.595,316.933z"/>
		</g>
	</g>
</g>
<g>
</g>
<g>
</g>
<g>
</g>
<g>
</g>
<g>
</g>
<g>
</g>
<g>
</g>
<g>
</g>
<g>
</g>
<g>
</g>
<g>
</g>
<g>
</g>
<g>
</g>
<g>
</g>
<g>
</g>
</svg>
