<svg height="512pt" viewBox="-27 0 512 512" width="512pt" xmlns="http://www.w3.org/2000/svg"><path d="m451.15625 359.070312h-9.945312c-1.058594-14.515624-11.632813-26.433593-25.496094-29.523437-3.199219-27.558594-25.824219-49.273437-53.789063-51.058594-3.542969-17.234375-18.03125-30.148437-35.953125-31.433593.105469-.5.160156-1.015626.160156-1.546876 0-57.878906-23.023437-85.742187-47.394531-115.238281-8.554687-10.351562-17.351562-21-25.34375-33.300781 6.058594-4.875 9.988281-12.101562 10.625-19.976562h12.039063c4.144531 0 7.5-3.355469 7.5-7.5v-34.214844c0-19.453125-15.824219-35.277344-35.273438-35.277344h-170.433594c-19.453124 0-35.277343 15.824219-35.277343 35.277344v34.214844c0 4.144531 3.359375 7.5 7.5 7.5h12.039062c.65625 8.113281 4.8125 15.542968 11.191407 20.414062-4.503907 7.789062-11.609376 16.414062-19.582032 26.089844-22.671875 27.515625-53.722656 65.195312-53.722656 122.011718v218.964844c0 26.207032 21.320312 47.527344 47.527344 47.527344h331.242187c44.050781 0 79.886719-35.835938 79.886719-79.886719v-65.542969c0-4.140624-3.355469-7.5-7.5-7.5zm-436.15625-98.722656h258.828125c9.675781 0 9.675781-15 0-15h-258.824219c.058594-51.339844 27.910156-85.144531 50.296875-112.3125 10.796875-13.101562 20.121094-24.417968 24.808594-35.773437 1.589844-3.863281-.378906-8.40625-4.289063-9.878907-4.546874-1.714843-7.800781-5.738281-8.605468-10.390624h12.113281c9.675781 0 9.675781-15 0-15h-31.753906v-26.714844c0-11.179688 9.097656-20.277344 20.277343-20.277344h170.433594c11.179688 0 20.273438 9.097656 20.273438 20.277344v26.714844h-143.230469c-9.671875 0-9.671875 15 0 15h123.59375c-.808594 4.652343-4.0625 8.671874-8.609375 10.390624-4.304688 1.625-6.152344 6.902344-3.796875 10.855469 9.582031 16.074219 20.296875 29.042969 30.660156 41.582031 23.585938 28.546876 43.957031 53.203126 43.957031 105.6875.046876.476563.09375.953126.140626 1.429688-4.566407-.472656-9.1875 2.527344-9.1875 7.5v24.109375c-27.570313 2.164063-49.777344 23.71875-52.945313 51-13.867187 3.085937-24.4375 15.007813-25.492187 29.523437h-9.949219c-4.144531 0-7.5 3.359376-7.5 7.5v43.742188h-191.199219zm32.527344 236.652344c-17.933594 0-32.527344-14.589844-32.527344-32.527344v-39.160156h191.195312v6.800781c0 26.703125 13.1875 50.375 33.375 64.886719zm396.128906-64.886719c0 35.777344-29.105469 64.886719-64.886719 64.886719h-92.683593c-35.78125 0-64.890626-29.109375-64.890626-64.886719v-58.042969h142.132813c9.675781 0 9.675781-15 0-15h-124.59375c1.175781-8.625 8.574219-15.300781 17.519531-15.300781 4.140625 0 7.5-3.359375 7.5-7.5 0-23.65625 19.246094-42.898437 42.898438-42.898437 4.894531.335937 10.433594-1.574219 10.433594-7.5v-23.929688h5.9375c13.53125 0 24.390624 10.589844 24.726562 24.117188.144531 5.730468 5.621094 7.617187 10.453125 7.3125 23.65625 0 42.898437 19.242187 42.898437 42.898437 0 4.140625 3.359376 7.5 7.5 7.5 8.945313 0 16.34375 6.675781 17.519532 15.300781h-24.792969c-9.671875 0-9.671875 15 0 15h42.328125zm0 0"/><path d="m379.042969 465.777344h-41.210938c-9.675781 0-9.675781 15 0 15h41.210938c24.488281 0 44.410156-19.917969 44.410156-44.40625 0-9.671875-15-9.671875-15 0 0 16.214844-13.191406 29.40625-29.410156 29.40625zm0 0"/></svg>