<svg height="512pt" viewBox="-25 0 512 512" width="512pt" xmlns="http://www.w3.org/2000/svg"><path d="m454.691406 359.734375h-9.828125c-.644531-14.886719-11.332031-27.21875-25.441406-30.363281-3.15625-27.152344-25.261719-48.613282-52.707031-50.769532v-23.988281c0-4.132812-3.34375-7.480469-7.476563-7.480469h-13.375c-19.183593 0-35.015625 13.316407-38.734375 31.410157-13.125.855469-25.542968 6.230469-35.171875 15.011719l-44.6875-131.96875c16.542969-.667969 29.800781-14.328126 29.800781-31.03125 0-9.644532-14.953124-9.644532-14.953124 0 0 8.882812-7.226563 16.105468-16.109376 16.105468h-17.878906v-16.113281c0-9.644531-14.953125-9.644531-14.953125 0v16.113281h-39.550781v-16.113281c0-9.644531-14.953125-9.644531-14.953125 0v16.113281h-39.550781v-16.113281c0-9.644531-14.953125-9.644531-14.953125 0v16.113281h-17.878907c-8.882812 0-16.109374-7.222656-16.109374-16.105468v-14.535157c0-8.878906 7.226562-16.105469 16.109374-16.105469h159.71875c5.167969 0 10.0625 2.507813 13.085938 6.714844 5.636719 7.828125 17.773438-.90625 12.140625-8.734375-5.828125-8.101562-15.261719-12.9375-25.226563-12.9375h-42.886718l-12.105469-67.363281c-3.964844-23.464844-45.777344-23.445312-49.730469-.023438l-11.589844 67.386719h-43.40625c-17.128906 0-31.0625 13.9375-31.0625 31.0625v14.535157c0 16.703124 13.253907 30.363281 29.800782 31.03125l-53.765625 158.777343c-12.730469 37.601563-14.710938 77.914063-5.726563 116.585938 2.152344 9.257812 16.761719 6.046875 14.570313-3.386719-8.355469-35.953125-6.515625-73.441406 5.324219-108.402344l55.375-163.542968h130.6875l55.375 163.542968c17.816406 52.617188 12.644531 110.632813-14.179688 159.257813-5.910156 7.726562-15.195312 12.324219-24.9375 12.324219h-163.207031c-9.742188 0-19.027344-4.597657-24.933594-12.324219-3.753906-6.800781-7.132813-13.886719-10.054687-21.074219-3.632813-8.933594-17.488282-3.300781-13.855469 5.632812 3.214843 7.902344 6.941406 15.6875 11.082031 23.148438.15625.285156.335938.558594.527344.820312 8.699218 11.742188 22.617187 18.753907 37.234375 18.753907h163.207031c14.617188 0 28.535156-7.011719 37.234375-18.753907.191406-.261718.371094-.535156.527344-.820312.285156-.507812.550781-1.023438.824219-1.535156 20.761718 14.019531 44.886718 21.410156 70.164062 21.410156 69.292969 0 125.667969-56.375 125.667969-125.667969v-19.117187c0-4.132813-3.347657-7.480469-7.476563-7.480469zm-318.664062-339.652344c1.175781-6.976562 19.105468-6.710937 20.253906.078125l11.644531 64.796875h-43.058593zm311.1875 366.25c0 61.046875-49.664063 110.710938-110.714844 110.710938-22.921875 0-44.765625-6.902344-63.402344-19.960938 14.648438-32.183593 20.984375-67.4375 18.699219-102.394531h84.851563c9.644531 0 9.644531-14.953125 0-14.953125h-86.371094c-1.816406-13.300781-4.882813-26.484375-9.246094-39.371094l-3.648438-10.78125c8.070313-10.171875 20.4375-16.203125 33.460938-16.203125 4.824219.328125 10.273438-1.472656 10.417969-7.292968.332031-13.457032 11.140625-23.996094 24.601562-23.996094h5.898438v23.8125c0 5.796875 5.53125 7.78125 10.398437 7.476562 23.539063 0 42.691406 19.152344 42.691406 42.695313 0 4.128906 3.347657 7.476562 7.480469 7.476562 9.226563 0 16.804688 7.140625 17.535157 16.183594h-18.324219c-9.644531 0-9.644531 14.957031 0 14.957031h35.671875zm0 0"/><path d="m146.148438 251.742188c-31.140626 0-56.476563 25.335937-56.476563 56.476562v7.058594c-6.402344 1.621094-12.117187 5.3125-16.304687 10.664062-5.761719 7.363282-7.777344 16.796875-5.523438 25.871094l21.140625 85.242188c.824219 3.335937 3.820313 5.679687 7.253906 5.679687h99.816407c3.4375 0 6.429687-2.34375 7.257812-5.679687l21.140625-85.242188c2.25-9.078125.238281-18.507812-5.523437-25.871094-4.1875-5.351562-9.90625-9.042968-16.304688-10.664062v-7.058594c0-31.140625-25.335938-56.476562-56.476562-56.476562zm61 83.414062c2.910156 3.71875 3.925781 8.476562 2.789062 13.058594l-19.730469 79.566406h-88.117187l-19.734375-79.566406c-1.136719-4.582032-.117188-9.339844 2.789062-13.058594 2.910157-3.71875 7.285157-5.847656 12.003907-5.847656 4.128906 0 7.476562-3.347656 7.476562-7.480469v-13.609375c0-22.894531 18.628906-41.523438 41.523438-41.523438 22.894531 0 41.519531 18.628907 41.519531 41.523438v13.609375c0 4.132813 3.347656 7.480469 7.480469 7.480469 4.71875 0 9.09375 2.128906 12 5.847656zm0 0"/><path d="m223.777344 471.28125c2.828125 2.949219 7.628906 3.042969 10.570312.226562.980469-.9375 23.957032-23.414062 25.890625-64.941406.449219-9.632812-14.488281-10.339844-14.9375-.695312-.6875 14.78125-4.46875 28.484375-11.230469 40.730468-5.035156 9.113282-9.949218 13.992188-10.085937 14.128907-2.964844 2.859375-3.058594 7.578125-.207031 10.550781zm0 0"/></svg>