<svg id="Capa_1" enable-background="new 0 0 512 512" height="512" viewBox="0 0 512 512" width="512" xmlns="http://www.w3.org/2000/svg"><g><path d="m161.649 385.689c0 23.751 19.323 43.074 43.074 43.074s43.075-19.323 43.075-43.074-19.323-43.075-43.075-43.075c-23.75.001-43.074 19.324-43.074 43.075zm71.149 0c0 15.48-12.594 28.074-28.075 28.074-15.48 0-28.074-12.594-28.074-28.074s12.594-28.075 28.074-28.075c15.481.001 28.075 12.595 28.075 28.075zm37.213-35.574v71.149c0 4.142 3.357 7.5 7.5 7.5s7.5-3.358 7.5-7.5v-71.149c0-4.142-3.357-7.5-7.5-7.5s-7.5 3.358-7.5 7.5zm47.926-7.5c-4.143 0-7.5 3.358-7.5 7.5v71.089c0 3.653 2.632 6.775 6.232 7.392.54.093 18.105.153 26.224.108 4.142-.023 7.481-3.4 7.458-7.542-.023-4.128-3.376-7.458-7.499-7.458h-.043c-6.062.034-12.585.058-17.372.06v-63.649c0-4.142-3.358-7.5-7.5-7.5zm64.063-218.526v-6.781c0-12.959-6.866-25.214-17.919-31.982l-51.955-31.809c-1.173-.718-2.389-1.349-3.626-1.931v-34.086c0-9.649-7.851-17.5-17.5-17.5h-70c-9.649 0-17.5 7.851-17.5 17.5v34.087c-1.237.582-2.453 1.213-3.626 1.931l-51.954 31.809c-11.054 6.767-17.92 19.022-17.92 31.982v6.781c0 10.967 4.733 20.849 12.263 27.712-2.944 3.133-4.763 7.335-4.763 11.963v17.814c0 3.718 1.174 7.162 3.159 10-1.985 2.838-3.159 6.282-3.159 10v17.814c0 3.718 1.174 7.162 3.159 10-1.985 2.838-3.159 6.282-3.159 10v17.814c0 4.627 1.818 8.829 4.761 11.961-7.529 6.863-12.261 16.744-12.261 27.71v177.622c0 20.678 16.822 37.5 37.5 37.5h177c20.678 0 37.5-16.822 37.5-37.5v-49.587c0-4.142-3.357-7.5-7.5-7.5s-7.5 3.358-7.5 7.5v49.587c0 12.407-10.094 22.5-22.5 22.5h-177c-12.407 0-22.5-10.093-22.5-22.5v-177.622c0-11.11 8.095-20.358 18.696-22.172h184.608c10.6 1.813 18.696 11.062 18.696 22.172v93.034c0 4.142 3.357 7.5 7.5 7.5s7.5-3.358 7.5-7.5v-93.034c0-10.966-4.732-20.847-12.261-27.711 2.943-3.133 4.761-7.334 4.761-11.961v-17.814c0-3.718-1.174-7.162-3.159-10 1.985-2.838 3.159-6.282 3.159-10v-17.814c0-3.718-1.174-7.162-3.159-10 1.985-2.838 3.159-6.282 3.159-10v-17.814c0-4.628-1.819-8.83-4.763-11.963 7.53-6.863 12.263-16.744 12.263-27.712zm-163.5-106.589c0-1.378 1.122-2.5 2.5-2.5h70c1.379 0 2.5 1.122 2.5 2.5v30.533c-1.62-.031-73.34-.06-75 0zm141 239.707c0 1.378-2.5 2.5-2.5 2.5h-202s-2.5-1.122-2.5-2.5v-17.814c0-1.378 1.122-2.5 2.5-2.5h202c1.379 0 2.5 1.122 2.5 2.5zm0-75.628c0 1.378-1.121 2.5-2.5 2.5h-122.604c-4.142 0-7.5 3.358-7.5 7.5s3.358 7.5 7.5 7.5h122.604c1.379 0 2.5 1.122 2.5 2.5v17.814c0 1.378-1.121 2.5-2.5 2.5h-202c-1.378 0-2.5-1.122-2.5-2.5v-17.814c0-1.378 1.122-2.5 2.5-2.5h44.396c4.142 0 7.5-3.358 7.5-7.5s-3.358-7.5-7.5-7.5h-44.396c-1.378 0-2.5-1.122-2.5-2.5v-17.814c0-1.378 1.122-2.5 2.5-2.5h202c1.379 0 2.5 1.122 2.5 2.5zm7.5-57.49c0 11.116-8.105 20.37-18.715 22.175h-184.573c-10.608-1.806-18.712-11.059-18.712-22.174v-6.781c0-7.776 4.12-15.129 10.751-19.189l51.954-31.809c3.533-2.162 7.612-3.309 11.749-3.311h73.092c4.146.002 8.214 1.149 11.748 3.311l51.955 31.808c6.631 4.061 10.751 11.414 10.751 19.19z"/></g></svg>