<svg id="Layer_1" enable-background="new 0 0 512 512" height="512" viewBox="0 0 512 512" width="512" xmlns="http://www.w3.org/2000/svg"><g><path d="m329.374 242.811c36.189 14.452 66.857 41.031 86.354 74.84 2.094 3.63 5.85 5.797 10.048 5.798h.003c4.158 0 8.032-2.235 10.108-5.833 6.711-11.619 10.11-24.873 9.829-38.327-.408-19.604-8.501-37.937-22.786-51.62-13.897-13.313-31.936-20.586-50.961-20.586-.549 0-1.101.006-1.652.019-16.056.355-31.228 5.804-43.878 15.759-3.294 2.592-4.903 6.617-4.304 10.768.595 4.118 3.368 7.638 7.239 9.182zm41.276-20.713c15.617-.361 30.503 5.48 41.905 16.403 11.389 10.91 17.841 25.507 18.166 41.101.183 8.747-1.587 17.386-5.148 25.295-20.185-32.489-50.042-58.357-85.036-73.672 9.012-5.752 19.312-8.888 30.113-9.127z"/><path d="m495.433 280.505c-.088-32.16-12.612-62.644-35.265-85.834-22.657-23.195-52.839-36.423-84.983-37.246-18.493-.472-36.939 3.236-53.7 10.761v-37.219h1.342c17.503 0 32.013-14.232 32.345-31.727.162-8.592-3.124-16.764-9.253-23.01-6.212-6.332-14.833-9.963-23.651-9.963h-6.971l6.065-48.525c.562-4.49-.834-9.011-3.829-12.403-2.995-3.394-7.307-5.339-11.833-5.339h-82.832c-4.525 0-8.838 1.946-11.833 5.339-2.995 3.392-4.391 7.913-3.829 12.402l6.065 48.525h-31.808c-5.831 0-11.163 3.193-13.915 8.335s-2.453 11.35.782 16.203l19.631 29.445c4.306 6.459 11.403 10.401 19.12 10.689v19.062c0 4.143 3.358 7.5 7.5 7.5 4.143 0 7.5-3.357 7.5-7.5v-19.033h84.402v42.545c0 4.07 2.068 7.775 5.533 9.909 3.463 2.134 7.7 2.314 11.334.484 15.822-7.971 33.605-11.936 51.448-11.486 58.087 1.488 105.474 49.994 105.633 108.127.088 31.867-13.815 62.053-38.146 82.82-4.211 3.596-6.22 8.985-5.375 14.417 1.347 8.647 2.054 17.502 2.103 26.319.128 23.006-4.145 45.385-12.7 66.513-6.49 16.029-21.848 26.385-39.124 26.385h-215.32c5.056-5.151 8.616-11.348 10.147-18.134h205.173c9.667 0 18.559-5.861 22.125-14.585 7.791-19.062 11.684-39.275 11.567-60.078-.124-22.214-4.737-43.604-13.713-63.575-2.535-5.646-8.187-9.295-14.398-9.295h-180.687c-4.143 0-7.5 3.357-7.5 7.5s3.357 7.5 7.5 7.5h180.687c.309 0 .596.177.715.441 8.113 18.053 12.284 37.403 12.396 57.513.104 18.818-3.412 37.094-10.452 54.318-1.267 3.098-4.655 5.261-8.24 5.261h-205.173c-.054-.241-.099-.484-.159-.724 11.896-16.19 17.263-36.626 14.769-56.707-.648-5.209-4.916-9.288-10.148-9.698-23.598-1.86-46.5 6.778-62.97 23.689-.543-5.072-.825-10.191-.825-15.327 0-20.38 4.202-40.003 12.489-58.323.122-.27.403-.443.717-.443h46.193c4.143 0 7.5-3.357 7.5-7.5s-3.357-7.5-7.5-7.5h-46.192c-6.192 0-11.838 3.636-14.383 9.262-9.173 20.275-13.823 41.979-13.823 64.505 0 10.304 1.001 20.555 2.972 30.543-4.002 1.808-7.661 4.071-10.892 6.697-2.217-1.802-4.634-3.411-7.201-4.823-1.994-10.63-3.013-21.516-3.013-32.417 0-76.368 48.837-143.273 121.525-166.484 6.583-2.102 11.007-8.143 11.007-15.033v-43.833c0-4.143-3.357-7.5-7.5-7.5-4.142 0-7.5 3.357-7.5 7.5v43.832c0 .336-.229.636-.569.744-38.029 12.143-70.769 35.591-94.68 67.806-24.39 32.863-37.283 71.927-37.283 112.968 0 8.937.641 17.865 1.881 26.676-3.557-.678-7.224-1.043-10.947-1.043-26.973 0-48.917 18.228-48.917 40.633s21.944 40.634 48.917 40.634c12.923 0 25.222-4.244 34.281-11.606 8.825 7.172 20.89 11.606 34.183 11.606 1.859 0 3.691-.095 5.497-.263.621.166 1.27.263 1.944.263h245.8c23.417 0 44.232-14.034 53.028-35.754 9.294-22.953 13.935-47.254 13.797-72.228-.053-9.559-.82-19.162-2.28-28.542-.039-.25.071-.513.293-.702 27.685-23.63 43.505-57.99 43.406-94.269zm-273.342-264.625c-.029-.232.034-.439.189-.614.155-.177.354-.266.588-.266h82.832c.234 0 .432.089.587.265s.219.383.19.615l-6.298 50.387h-71.79zm-7.509 100.087h-6.596c-3.038 0-5.858-1.509-7.544-4.037l-19.63-29.444c-.085-.127-.261-.392-.039-.806.221-.413.538-.413.691-.413h140.803c4.816 0 9.535 1.993 12.945 5.469 3.285 3.348 5.047 7.688 4.961 12.22-.178 9.381-7.959 17.012-17.347 17.012h-8.842-99.402zm-32.523 295.55c.924 12.701-1.99 25.415-8.202 36.396-8.786-10.285-23.173-17.042-39.442-17.17 12.581-12.83 29.742-19.72 47.644-19.226zm-150.492 59.849c0-14.134 15.215-25.633 33.917-25.633 9.328 0 18.085 2.898 24.442 7.93-3.133 5.354-4.894 11.361-4.894 17.703 0 6.343 1.761 12.349 4.895 17.704-6.357 5.032-15.114 7.93-24.443 7.93-18.702 0-33.917-11.499-33.917-25.634zm68.465 0c0-14.134 15.215-25.633 33.917-25.633s33.917 11.499 33.917 25.633c0 14.135-15.215 25.634-33.917 25.634-18.703 0-33.917-11.499-33.917-25.634z"/></g></svg>