<svg id="Layer_1" height="512" viewBox="0 0 512 512" width="512" xmlns="http://www.w3.org/2000/svg" data-name="Layer 1"><path d="m374.182 337.112c-18.1-10.854-34.07-13.156-47.455-6.837-19.632 9.266-28 34.4-31.028 46.848-14.225-3.8-29.038 1.879-36.008 5.231-2.894-30.1-9.415-62.506-22.436-92.232a115.757 115.757 0 0 1 -6.687-28.576c4.721-7.749 15.775-14.234 23.079-17.878-13.7 34.018-5.457 53.441 4.833 64.052 11.861 12.231 31.348 17.627 51.14 17.627 15.881 0 31.959-3.475 44.447-9.679 31.541-15.668 55.017-22.733 66.2-25.55a10.158 10.158 0 0 0 7.008-13.483c-8.177-21.441-36.538-86.7-85.936-110.493 17.62-19.374 25.666-49.437 24.458-70.275-2.04-35.167.671-59.529 2.468-70.921a10.16 10.16 0 0 0 -9.654-11.736c-25.86-1-113.078-.261-149.552 51.375-10.059 14.254-14.182 27.482-12.318 39.447a93.868 93.868 0 0 0 -24.807-10.172c-34.272-8.135-56.832-17.722-67.229-22.712a10.158 10.158 0 0 0 -14.012 5.881c-8.381 24.488-32.693 108.254 6.307 158.008 12.214 15.584 25.365 23.466 39.131 23.465q1.365 0 2.738-.1c21.529-1.621 38.275-21.889 45.617-32.479.974.882 2.029 1.843 3.151 2.865 6.078 5.534 14.282 13 21.162 18.608a113.341 113.341 0 0 0 2.647 27.6c-7.586.553-24.559 3.145-34.092 15.217-9.975-8.023-31.941-22.877-53.166-18.259-14.464 3.147-25.724 14.7-33.464 34.337-23.184 58.809 24.016 132.16 39.035 153.239a10.157 10.157 0 0 0 15.107 1.639c8.542-7.749 27.429-23.374 57.955-40.95 13.886-8 27.385-21.936 36.4-37.66 4.29 49.154-.878 94.219-2.667 107.513a7.88 7.88 0 0 0 7.813 8.928h4.764a7.833 7.833 0 0 0 7.792-6.689 476.007 476.007 0 0 0 4.16-90.922c6.521-5.287 16.147-6.678 22.492-6.976-24.66 28.184-23.169 49.507-16.789 63 11.663 24.66 47.478 39.035 77.095 39.035a82.075 82.075 0 0 0 10.827-.691c34.91-4.663 59.408-3.782 70.9-2.842a10.158 10.158 0 0 0 10.98-10.5c-.929-25.871-8.188-112.792-62.406-145.303zm-142.517-44.812c.019.05.04.1.062.152a242.568 242.568 0 0 1 10.1 27.667 48.076 48.076 0 0 0 -10.7-10.312c-1.638-4.487-4.311-10.466-6.5-15.345-.717-1.6-1.389-3.1-1.967-4.42-15.091-34.418-5.248-72.205 2.163-92.054 11.879-11.561 15.487-23.294 15.608-33.126a130.364 130.364 0 0 1 6.049-13.011c.7-1.342 1.424-2.721 2.231-4.364l.354.092q2.175 2.682 4.356 5.178c-2.156 4.5-7.879 16.585-11.94 26.369-1.031 1.784-8.286 14.74-13.195 34.3-8.673 34.582-2.95 61.98 3.379 78.874zm-9.065 12.424a96.4 96.4 0 0 0 -22.268-7.6 48.48 48.48 0 0 1 17.574-2.985q.588 1.322 1.244 2.783c1.096 2.433 2.313 5.153 3.45 7.802zm12.54-161.819c2.864 1.174 5.5 2.116 7.731 2.851-.6 1.2-1.161 2.27-1.708 3.316-.69 1.317-1.39 2.656-2.166 4.238a55.414 55.414 0 0 0 -3.853-10.405zm24.83 79.555c-12.826 1.309-23.648 12.1-29.915 19.952 1.671-34.468 16.488-60.055 16.7-60.417a3.006 3.006 0 0 0 .19-.381c3.474-8.389 8.234-18.58 10.842-24.072a117.041 117.041 0 0 0 14.242 12.858c-13.383 15.392-13.155 39.96-12.059 52.06zm-29.822 30.065c3.1-4.74 15.725-22.624 30.536-24.1.006.045.015.1.021.143-1.229 2.323-2.348 4.578-3.4 6.789-4.062 1.71-18.191 8.051-27.157 17.168zm191.524 26.248a4.159 4.159 0 0 1 -2.867 5.527c-11.42 2.876-35.363 10.077-67.407 26-26.144 12.985-69.594 12.859-88.611-6.752-14.414-14.862-13.727-38.909 1.934-69.684 42.805 36.424 104.914 38.122 107.595 38.177h.063a3 3 0 0 0 .062-6c-.645-.014-64.635-1.793-105.815-38.476-.913-6.113-4.911-39.045 11.779-55.205 9.107-8.817 23.133-11.265 41.69-7.272 58.849 12.656 92.626 90.212 101.577 113.685zm-207.709-210.726c34.73-49.167 119.318-49.814 144.418-48.841a4.159 4.159 0 0 1 3.96 4.805c-1.835 11.63-4.6 36.475-2.531 72.2 1.137 19.61-7 49.48-24.28 67.358a87.39 87.39 0 0 0 -14.174-4.353c-19.3-4.151-34.416-1.819-44.993 6.925a123.08 123.08 0 0 1 -20.863-20.186c50.291-25.089 76.222-81.546 77.325-83.991a3 3 0 0 0 -5.47-2.467c-.265.588-26.95 58.729-76.9 82.244a107.409 107.409 0 0 1 -20.558-7.834 100.129 100.129 0 0 0 -25.788-25.23c-4.22-11.713-.923-25.377 9.854-40.63zm-83.963 47.676a3 3 0 1 0 -3.932 4.531c.487.423 48.525 42.668 56.719 97.266-3.209 5.282-21.2 33.152-44.367 34.9-12.646.946-24.986-6.141-36.7-21.08-37.134-47.377-13.483-128.6-5.35-152.365a4.146 4.146 0 0 1 5.739-2.414c10.615 5.095 33.621 14.876 68.439 23.141 28.4 6.743 61.718 34.639 63.789 61.878 1.571 20.64-14.337 38.684-46.062 52.32-9.601-55.382-56.254-96.419-58.275-98.177zm79.187 124.185c-5.952-5.044-12.467-10.97-17.508-15.56q-2.117-1.928-3.875-3.519l.18-.3c2.068-.85 4.032-1.715 5.948-2.585a150.9 150.9 0 0 0 15.9 15.623q-.395 3.124-.649 6.341zm1.682-13.37a150.931 150.931 0 0 1 -11.291-11.279 117.7 117.7 0 0 0 16.388-9.859 168.2 168.2 0 0 0 -5.101 21.138zm2.128 54.381q1.055 3.608 2.414 7.2c-12.073.289-22.528 5.388-25.665 7.073-2.467-.36-5.014-.685-7.681-.955l-.136-.123c8.478-10.914 25.113-12.852 31.064-13.195zm-13.166 134.1c-31.012 17.855-50.272 33.794-58.993 41.706a4.159 4.159 0 0 1 -6.189-.678c-14.579-20.455-60.419-91.554-38.349-147.556 6.958-17.653 16.763-27.972 29.143-30.672a32.7 32.7 0 0 1 6.971-.73c20.612 0 41.4 17.791 45.522 21.515 7.714 54.609-26.267 108.861-26.614 109.407a3 3 0 0 0 5.063 3.219c1.44-2.262 34.445-54.905 27.847-110.723 34.294 4.017 54.69 16.771 59.075 37 5.793 26.704-18.181 62.945-43.48 77.513zm51.164 76.389a1.867 1.867 0 0 1 -1.86 1.591h-4.764a1.881 1.881 0 0 1 -1.867-2.127c2.468-18.338 7.554-66.459 1.75-118.366a73.831 73.831 0 0 0 5.444-19.192c11.333 63.11 3.502 123.586 1.293 138.095zm9.68-97.02q-.186-2.783-.409-5.6c4.833-2.538 20.239-9.665 34.184-5.788-.011.064-.026.143-.036.2-1.857 1.751-3.591 3.473-5.254 5.177-4.445-.196-18.076-.227-28.489 6.012zm168.64 91.41a4.107 4.107 0 0 1 -3.209 1.134c-11.736-.958-36.721-1.861-72.188 2.875-28.94 3.866-70.025-10.267-81.7-34.962-8.852-18.716-.449-41.258 24.3-65.339 28.777 48.28 87.022 69.912 89.542 70.829a3 3 0 0 0 2.04-5.635c-.607-.22-60.577-22.483-87.76-70.536 1.114-6.086 7.98-38.576 28.961-48.467 11.459-5.4 25.522-3.195 41.794 6.565 51.625 30.956 58.594 115.264 59.5 140.367a4.125 4.125 0 0 1 -1.284 3.171z"/></svg>