<svg height="512pt" viewBox="-94 0 512 512" width="512pt" xmlns="http://www.w3.org/2000/svg"><path d="m311.851562 124.289062-6.527343-7.253906c-5.433594-6.035156-8.425781-13.835937-8.425781-21.957031v-19.046875c5.960937-2.84375 10.097656-8.914062 10.097656-15.945312v-42.414063c0-9.742187-7.925782-17.671875-17.671875-17.671875h-179.839844c-4.179687 0-7.574219 3.390625-7.574219 7.574219 0 4.183593 3.394532 7.574219 7.574219 7.574219h179.839844c1.394531 0 2.527343 1.132812 2.527343 2.523437v42.414063c0 1.394531-1.132812 2.527343-2.527343 2.527343h-254.484375c-1.390625 0-2.523438-1.132812-2.523438-2.527343v-42.414063c0-1.390625 1.132813-2.523437 2.523438-2.523437h39.132812c4.183594 0 7.574219-3.390626 7.574219-7.574219 0-4.183594-3.390625-7.574219-7.574219-7.574219h-39.132812c-9.742188 0-17.671875 7.929688-17.671875 17.671875v42.414063c0 7.03125 4.136719 13.101562 10.097656 15.945312v19.046875c0 8.121094-2.992187 15.917969-8.421875 21.957031l-6.53125 7.25c-7.9375 8.824219-12.3125 20.222656-12.3125 32.09375v249.628906c0 4.183594 3.390625 7.574219 7.574219 7.574219 4.183593 0 7.574219-3.390625 7.574219-7.574219v-17.210937h68.75c22.15625 17.601563 49.804687 27.265625 78.183593 27.265625 28.378907 0 56.03125-9.664062 78.183594-27.265625h68.75v75.234375c0 18.097656-14.722656 32.820312-32.820313 32.820312h-228.226562c-18.097656 0-32.820312-14.722656-32.820312-32.820312v-22.804688c0-4.183593-3.390626-7.574218-7.574219-7.574218-4.183594 0-7.574219 3.390625-7.574219 7.574218v22.804688c0 26.449219 21.519531 47.96875 47.96875 47.96875h228.226562c26.453126 0 47.96875-21.519531 47.96875-47.96875v-184.214844c0-4.183594-3.390624-7.574218-7.574218-7.574218s-7.574219 3.390624-7.574219 7.574218v93.832032h-71.4375c-1.769531 0-3.484375.621093-4.84375 1.75-19.789063 16.453124-44.878906 25.515624-70.652344 25.515624-25.773437 0-50.863281-9.0625-70.652343-25.515624-1.359376-1.128907-3.074219-1.75-4.84375-1.75h-71.4375v-166.625h71.4375c1.769531 0 3.484374-.621094 4.84375-1.75 19.789062-16.457032 44.878906-25.515626 70.652343-25.515626 25.773438 0 50.863281 9.058594 70.652344 25.515626 1.359375 1.128906 3.074219 1.75 4.84375 1.75h71.4375v37.449218c0 4.179688 3.390625 7.574219 7.574219 7.574219s7.574218-3.394531 7.574218-7.574219v-88.09375c0-11.871094-4.371093-23.269531-12.3125-32.089844zm-71.585937 67.585938c-22.152344-17.605469-49.804687-27.269531-78.183594-27.269531-28.378906 0-56.027343 9.664062-78.183593 27.265625h-68.75v-35.496094c0-8.121094 2.992187-15.917969 8.425781-21.953125l6.527343-7.253906c7.9375-8.824219 12.3125-20.21875 12.3125-32.089844v-17.320313h239.339844v17.320313c0 11.871094 4.371094 23.265625 12.3125 32.089844l6.527344 7.253906c5.433594 6.035156 8.425781 13.832031 8.425781 21.953125v35.496094h-68.753906zm0 0"/><path d="m190.644531 213.804688c-12.8125 0-24.859375 4.988281-33.917969 14.046874-6.140624 6.140626-10.496093 13.824219-12.597656 22.214844-1.328125 5.316406-4.136718 10.230469-8.109375 14.203125-3.976562 3.976563-8.886719 6.78125-14.203125 8.113281-8.394531 2.101563-16.074218 6.457032-22.214844 12.597657-18.703124 18.703125-18.703124 49.132812 0 67.835937 9.058594 9.058594 21.105469 14.050782 33.917969 14.050782s24.859375-4.988282 33.917969-14.050782c6.140625-6.140625 10.496094-13.824218 12.597656-22.214844 1.332032-5.316406 4.136719-10.226562 8.109375-14.203124 3.976563-3.976563 8.890625-6.78125 14.207031-8.109376 8.390626-2.101562 16.074219-6.457031 22.214844-12.597656 18.699219-18.703125 18.699219-49.136718 0-67.839844-9.0625-9.058593-21.105468-14.046874-33.921875-14.046874zm23.207031 71.175781c-4.199218 4.199219-9.449218 7.179687-15.179687 8.613281-7.976563 1.996094-15.320313 6.175781-21.238281 12.09375-5.914063 5.917969-10.097656 13.261719-12.09375 21.238281-1.433594 5.730469-4.414063 10.980469-8.613282 15.179688-6.199218 6.199219-14.441406 9.613281-23.207031 9.613281s-17.007812-3.414062-23.207031-9.613281-9.613281-14.441407-9.613281-23.207031c0-8.765626 3.414062-17.007813 9.613281-23.207032 4.199219-4.203125 9.449219-7.179687 15.179688-8.613281 7.976562-1.996094 15.320312-6.179687 21.238281-12.097656 5.914062-5.914063 10.09375-13.257813 12.09375-21.234375 1.433593-5.730469 4.410156-10.980469 8.613281-15.179688 6.199219-6.199218 14.441406-9.613281 23.207031-9.613281s17.007813 3.414063 23.207031 9.613281c6.199219 6.195313 9.613282 14.441406 9.613282 23.207032 0 8.765624-3.414063 17.007812-9.613282 23.207031zm0 0"/></svg>