<svg id="Layer_1" height="512" viewBox="0 0 512 512" width="512" xmlns="http://www.w3.org/2000/svg" data-name="Layer 1"><path d="m470.955 84.965c-10.053-.8-21.007 1.915-30.849 7.629a65.525 65.525 0 0 0 -26.277 29.264 4.663 4.663 0 0 0 -.38 1.237c-4.2 3.2-8.075 6.321-11.4 9.07 2.3-4.785 3.951-8.373 4.812-10.264a3.812 3.812 0 0 0 1.379-1.206c5.6-8.013 24.508-36.735 32.71-69.925 2.233-9.038 5.934-30.693-7.912-36.589a4.4 4.4 0 0 0 -6.038 3.187c-1.3 6.532-10.157 27.121-14.762 35.837-4.76 9.013-9.371 26.878-8.936 46.476a67.03 67.03 0 0 1 -1.9 17.891 3.8 3.8 0 0 0 0 1.839c-1.112 2.43-3.664 7.928-7.274 15.266-.808-4.131-1.74-8.59-2.767-13.377a4.834 4.834 0 0 0 .891-2.423l.01-.116c1.07-13.139 4.329-53.122-24.537-103.174a5.173 5.173 0 0 0 -9.649 2.374c-1.894 46.963 12.49 85 25.382 103.31a4.855 4.855 0 0 0 2.126 1.7c1.669 7.8 3.086 14.708 4.077 20.629-8.544 16.781-20.623 38.884-33.357 56.988a51.33 51.33 0 0 1 -.744-6.686 126.786 126.786 0 0 0 9.945-22.222 48.473 48.473 0 0 0 2.042-12.326 50.114 50.114 0 0 1 2.653-14.354c3.846-11.322 7.723-25.73 4.35-30.07a4.392 4.392 0 0 0 -3.859-1.7c-4.075.317-5.295 4.448-6.708 9.231-1.394 4.718-3.129 10.591-7.6 15.243-9.659 10.059-12.2 31.4-13.042 38.415l-.033.283c-.654 5.461 2.477 10.838 4.763 14.764.591 1.014 1.14 1.966 1.49 2.695a49.015 49.015 0 0 0 2.16 13.021c-2.742 3.633-5.5 7.035-8.241 10.11a119.813 119.813 0 0 0 -23.64 40.154q-1.332-2.73-2.649-5.411a5.247 5.247 0 0 0 .512-2.142c.027-1.392 0-2.794-.066-4.2 22.663-23.774 20.093-71.42 18.737-85.623a4.7 4.7 0 0 0 -8.023-2.865c-3.557 3.608-4.7 8.626-5.8 13.479-1.182 5.206-2.4 10.59-6.571 14.534-.136.129-.264.264-.4.4-.167-2.942-.636-5.933-1.171-9.326a174.611 174.611 0 0 1 -2.444-25.362c-.53-21.811-13.92-44.236-19.653-52.866a4.968 4.968 0 0 0 -9.09 2.354c-1.121 13.912-2.492 39.128.932 51.707a59.882 59.882 0 0 1 2.072 19.057c-6.579-9.447-12.287-16.445-14.8-19.429a4.317 4.317 0 0 0 -4.3-1.432 4.373 4.373 0 0 0 -3.26 3.238c-1.967 8.044.527 15.578 3.686 25.116 1.235 3.729 2.635 7.956 3.912 12.667a75.433 75.433 0 0 1 2.211 12.11c1 8.583 2 13.21 13.651 24.478a151.985 151.985 0 0 1 20.691 24.77 5.257 5.257 0 0 0 3.964 2.337c1.753 3.574 3.51 7.173 5.252 10.767a94.9 94.9 0 0 0 -3.5 20.749v.256c.012.2 1.175 20.1-.678 55.646-.6 11.609-1.587 25.785-3.162 42.224a70.261 70.261 0 0 1 -3.137-8.6 5.162 5.162 0 0 0 1.5-2.247c2.193-6.568 5.072-19.448-.288-31.908a157.218 157.218 0 0 0 -9.372-17.9c-4.267-7.294-7.637-13.056-8.527-19.928-2.128-16.427-13.529-26.437-18.333-29.978a4.577 4.577 0 0 0 -7.217 2.854c-1.961 10.594-7.032 46.247 10.035 60.2a62.721 62.721 0 0 1 11.046 12.028c-8.415 9.615-11.195 18.058-11.856 24.149q-4.236-4.923-8.491-9.751a2.946 2.946 0 0 0 -.324-.3 162.819 162.819 0 0 0 -17.107-29.114 4.865 4.865 0 0 0 -8.39 1.116q-5.235-5.475-9.828-10.1c.8-3.547 1.558-7.416 2.18-11.5a8.621 8.621 0 0 0 5.665-5.272c5.482-14.666 5.306-29.6-.46-43.3 13.142-24.961 12.776-58.29 10.937-64.763-1.541-5.426-6.5-16.473-12.14-15.927-1.432.135-3.9 1.065-4.313 5.772a125.543 125.543 0 0 1 -5.735 27.257 84.817 84.817 0 0 0 -8.173-13.167 4.76 4.76 0 0 0 -8.486 2.1c-3.427 20.642 1.425 39.142 2.736 43.576-4.084 10.974-5.814 27.214-6.507 36.7a3.7 3.7 0 0 0 .157 1.374 37.548 37.548 0 0 0 -1.05 13.183l-.075-.065c-1.474-1.542-24.5-26.265-27.534-65.607-.2-2.534-.482-5.2-.842-7.971 1.013-1.68 3.392-5.654 6.381-10.8a5.087 5.087 0 0 0 2.369-.588c19.412-10.185 25.1-21.519 29.673-30.627 1.048-2.089 2.039-4.063 3.122-5.87 3.6-6.022 2.911-11.528 2.241-16.853-.63-5-1.225-9.716 1.419-15.474 5.177-11.277.581-19.891-1.636-23.071a4.634 4.634 0 0 0 -3.709-1.984h-.083a4.669 4.669 0 0 0 -3.72 1.863c-2.687 3.571-4.72 8.481-6.872 13.679-2.38 5.752-4.842 11.7-8.038 15.112a22.421 22.421 0 0 0 -5.778 10.567 33.5 33.5 0 0 1 -6.143 12.223c-7.183 9.657-8.069 26.679-7.958 35.967a5.163 5.163 0 0 0 .244 1.478c-1.069 1.844-2.062 3.542-2.952 5.054-2.746-15.534-7.627-34.124-14.611-55.558-1.521-4.667-3.027-9.107-4.46-13.221.088-2.59.551-14.212 2.074-27.81a4.584 4.584 0 0 0 1.663-1.643c.639-1.077 1.391-2.1 2.343-3.39a92.746 92.746 0 0 0 5.777-8.648c6-10.143 15.541-37.909 4.809-54.341a5.452 5.452 0 0 0 -8.181-1.108c-7.532 6.706-13.165 16.492-15.862 27.555a65.6 65.6 0 0 0 2.9 39.239 4.619 4.619 0 0 0 .627 1.13c-.6 5.266-1.038 10.241-1.357 14.552-1.87-5.02-3.316-8.726-4.066-10.625a3.8 3.8 0 0 0 .092-1.822c-1.9-9.59-9.5-43.13-27.748-72.042-4.971-7.876-18.024-25.541-31.862-19.634a4.4 4.4 0 0 0 -1.882 6.562c3.806 5.459 12.513 26.114 15.607 35.476 3.2 9.679 12.884 25.38 27.31 38.638a66.863 66.863 0 0 1 11.579 13.759 3.816 3.816 0 0 0 1.328 1.284c.983 2.492 3.178 8.139 5.965 15.823q-5.305-3.417-11.556-7.266a4.848 4.848 0 0 0 -1.131-2.322l-.078-.089c-8.73-9.871-35.294-39.912-91.356-53.728a5.174 5.174 0 0 0 -4.97 8.606c32.538 33.895 69.922 49.857 92.042 53.219a4.926 4.926 0 0 0 .753.058 4.8 4.8 0 0 0 1.946-.413c6.773 4.192 12.735 7.954 17.687 11.338 6.179 17.791 13.744 41.822 17.975 63.554a51.286 51.286 0 0 1 -5.351-4.107 126.692 126.692 0 0 0 -9.111-22.552 48.493 48.493 0 0 0 -7.471-10.012 50.069 50.069 0 0 1 -8.51-11.852c-5.5-10.617-13.2-23.392-18.663-23.966a4.385 4.385 0 0 0 -3.9 1.609c-2.591 3.16-.459 6.9 2.009 11.232 2.435 4.274 5.467 9.594 5.725 16.041.563 13.94 14.181 30.557 18.657 36.017l.182.223c3.484 4.252 9.517 5.708 13.921 6.77 1.141.275 2.209.537 2.976.789a49 49 0 0 0 10.9 7.472c.718 4.5 1.262 8.844 1.579 12.954a119.891 119.891 0 0 0 12.576 44.883q-2.891-.928-5.736-1.835a5.244 5.244 0 0 0 -1.189-1.853q-1.478-1.474-3.075-2.863c-1.44-32.827-37.563-63.967-48.739-72.823a4.7 4.7 0 0 0 -7.623 3.8c.137 5.067 2.966 9.364 5.7 13.52 2.935 4.458 5.969 9.068 5.925 14.81 0 .188.007.375.009.563-2.236-1.915-4.715-3.647-7.529-5.609a174.274 174.274 0 0 1 -19.973-15.8c-5.359-4.9-21.128-16.9-51.714-22.419a4.97 4.97 0 0 0 -4.6 8.189c9.249 10.443 26.473 28.894 37.915 35.135a59.74 59.74 0 0 1 15.173 11.706c-11.367-1.792-20.366-2.518-24.256-2.771a4.355 4.355 0 0 0 -3.933 6.706c4.437 6.992 11.6 10.408 20.657 14.733 3.543 1.69 7.559 3.607 11.837 5.946a75.361 75.361 0 0 1 10.259 6.788c6.882 5.222 10.911 7.707 27.1 7.1a151.623 151.623 0 0 1 32.185 2.224 5.385 5.385 0 0 0 .95.085 5.246 5.246 0 0 0 3.479-1.328c3.789 1.208 7.6 2.432 11.4 3.663a94.81 94.81 0 0 0 12.531 16.893c.059.059.12.115.182.169.147.126 14.722 12.638 37.418 36.607-.368 1.725-.737 3.6-1.087 5.595-6.035-2.031-11.965-3.481-17.295-4.777-9.321-2.268-17.371-4.225-22.965-8.36-13.313-9.841-28.428-8.54-34.305-7.523a4.579 4.579 0 0 0 -2.94 7.182c6 8.364 26.523 34.622 47.419 34.62a24.289 24.289 0 0 0 2.923-.176c8.121-.989 17.123.885 25.191 2.949.24 7.526 1.5 14.919 4.537 21 5.7 11.425 21.032 22.628 45.6 33.335a65.152 65.152 0 0 1 -35.206-10.439c-21.114-13.606-49.1-17.425-54.5-18.052a4.87 4.87 0 0 0 -4.7 7.4c6.133 9.906 22.4 33.57 40.961 39.355a38.5 38.5 0 0 0 11.414 1.555c16.933 0 37.677-8.034 50.15-13.671.5-.081 1.007-.165 1.512-.25 3.842 2.782 7.013 4.831 9.054 6.089-2.532 17.789-5.666 37.071-9.554 57.678a3 3 0 0 0 2.392 3.5 3.055 3.055 0 0 0 .559.053 3 3 0 0 0 2.945-2.445q4.74-25.119 8.094-47.687a153.71 153.71 0 0 0 15.77-3.22q6.728 9.132 13.507 18.646a3 3 0 0 0 4.886-3.48q-5.546-7.788-11.049-15.3c15.789-.217 41.6-2.363 54.388-13.269 14.793-12.616 20.466-40.776 22.218-52.3a4.869 4.869 0 0 0 -7.229-4.962c-8.94 5.116-29.423 19.629-42.956 37.929-11.385 15.4-24.419 21.672-31.421 25.043l-.421.2q-3.234-4.357-6.461-8.634a165.005 165.005 0 0 0 17.839-16.5c31.463-23.285 52.59-52.92 62.793-88.1a5.173 5.173 0 0 0 -8.4-5.311 216.148 216.148 0 0 0 -38.157 43.745 36.282 36.282 0 0 0 1.778-8.9c.9-15.26-8.612-32.981-13.605-41.136a56.966 56.966 0 0 0 26.89-28.427c27.088-7.8 50.855-31.126 54.246-36.936 2.845-4.871 7.338-16.118 3.073-19.793-1.09-.939-3.467-2.073-7.15.886a125.3 125.3 0 0 1 -23.612 14.752 85.188 85.188 0 0 0 3.831-15.023 4.762 4.762 0 0 0 -7.39-4.67c-17.251 11.82-27.226 28.135-29.515 32.152-10.739 4.652-23.641 14.648-30.956 20.715a3.7 3.7 0 0 0 -.881 1.064 37.5 37.5 0 0 0 -10.226 8.368c0-.035 0-.079-.006-.107.088-2.142 1.9-35.8 28.221-65.31 1.724-1.932 3.448-3.984 5.169-6.128 1.917-.434 6.427-1.466 12.2-2.87a5.076 5.076 0 0 0 2.057 1.3 68.806 68.806 0 0 0 22.026 3.958c8.491 0 14.947-1.994 20.6-3.74 2.232-.69 4.341-1.341 6.393-1.811 6.838-1.567 10.327-5.882 13.7-10.054 3.165-3.914 6.154-7.611 12.133-9.69 11.715-4.071 14.742-13.356 15.5-17.156a4.632 4.632 0 0 0 -5.113-5.507c-4.435.533-9.384 2.466-14.622 4.512-5.793 2.264-11.782 4.6-16.454 4.66a22.385 22.385 0 0 0 -11.621 3.146 33.443 33.443 0 0 1 -13.061 4.029c-11.937 1.5-24.819 12.648-31.437 19.161a5.168 5.168 0 0 0 -.9 1.2c-2.063.5-3.974.963-5.677 1.367 14.034-19.235 27.289-43.459 36.417-61.456 2.026-1.817 10.662-9.465 21.425-17.711a4.525 4.525 0 0 0 1.276.19 4.611 4.611 0 0 0 1.056-.123c1.218-.284 2.475-.448 4.067-.655a93.275 93.275 0 0 0 10.229-1.811c11.467-2.692 38.088-15.032 42.5-34.161a5.47 5.47 0 0 0 -.922-4.468 5.415 5.415 0 0 0 -3.943-2.206zm-53.412-28.957c3.985-7.543 12.312-26.317 14.826-35.354 7.709 5.623 4.123 23.155 2.759 28.677-4.819 19.5-13.465 37.417-20.749 50.266 5.254-17.52 10.015-36.119 10.3-37.228a3 3 0 0 0 -5.815-1.484c-.066.26-4.538 17.732-9.575 34.761.211-16.939 4.167-31.901 8.254-39.638zm-37.492 9.192a3 3 0 1 0 -5.918.991c2.428 14.5 5.345 28.475 8.089 41.219-7.664-14.822-19.353-44.51-18.249-86.275 18.4 32.955 22.477 61.141 22.915 79.4-2.364-11.122-4.781-23.052-6.837-35.335zm-91.077 38.433c6.006 9.5 16.55 28.734 17 47.138a179.987 179.987 0 0 0 2.515 26.149c1.2 7.613 1.925 12.242-.134 18.884-.627 1.331-1.173 2.655-1.651 3.945-.5-19.577-7.687-49.476-8.029-50.892a3 3 0 0 0 -5.832 1.413c.074.3 5.889 24.506 7.49 43.153-2.93-5.3-6-10.342-9.012-14.984.774-3.648 2.4-14.357-1.371-28.2-3.028-11.119-1.867-34.414-.976-46.607zm7.926 107.557c-3.3-6.484-6.482-12.671-8.956-17.421-1.1-2.109-1.968-3.765-2.569-4.892-1.006-1.886-2.257-4.231-4.868-3.008a3.023 3.023 0 0 0 -1.376 4.155 2.952 2.952 0 0 0 .395.641c1.79 3.256 11.155 21.327 22.353 43.708-3.019-3.541-6.475-7.285-10.381-11.063-10.627-10.28-11.04-13.817-11.863-20.863a81.832 81.832 0 0 0 -2.38-12.983c-1.32-4.87-2.747-9.18-4.007-12.984-2.429-7.335-4.307-13-4.053-18.314 10 12.324 37.2 48.413 41.825 81.091-5.828-11.736-10.912-21.779-14.12-28.067zm18.179 17.841a117.859 117.859 0 0 0 13.485-39.591 3 3 0 1 0 -5.939-.853 113.169 113.169 0 0 1 -10 32.147c-.911-2.707-1.922-5.4-3.012-8.074.386-2.912 2.509-15.836 10.488-23.386 5.493-5.2 6.984-11.767 8.3-17.565a38.665 38.665 0 0 1 2.294-7.752c.98 13.867 1.942 51.624-13.934 73.155q-.642-4.024-1.677-8.081zm-125.074-49.988a39.166 39.166 0 0 0 7.086-14.117 16.761 16.761 0 0 1 4.4-8.153c3.942-4.21 6.615-10.67 9.2-16.918a81.79 81.79 0 0 1 4.982-10.673c1.728 3.277 3.15 8.617.041 15.389-3.357 7.313-2.593 13.377-1.919 18.727.617 4.9 1.1 8.776-1.437 13.021-1.2 2-2.235 4.069-3.336 6.261-3.894 7.757-8.248 16.431-21.445 24.757 6.011-10.68 12.6-23.046 15.538-30.86a3 3 0 1 0 -5.615-2.114c-2.613 6.94-8.418 17.956-14 27.947.568-7.761 2.174-17.445 6.505-23.267zm-74.4-109.029a3 3 0 1 0 -5.1 3.163c.141.228 9.641 15.562 18.428 30.995-12.063-11.883-20.108-25.1-22.855-33.413-2.679-8.1-10.446-27.121-15.218-35.192 9.4-1.668 19.544 13.055 22.579 17.865 10.72 16.985 17.657 35.654 21.873 49.812-8.985-15.931-19.1-32.257-19.704-33.23zm-71.761 15.271c36.507 9.535 59.651 26.121 73.117 38.453-9.659-6-19.935-12.517-30.217-19.542a3 3 0 1 0 -3.385 4.954c12.14 8.294 24.236 15.867 35.326 22.713-15.985-4.727-45.491-16.843-74.841-46.578zm123.59-28.116c4.362 7.192 3.911 17.093 2.737 24.214a72.5 72.5 0 0 1 -8.025 23.254c-1.134 1.918-2.142 3.475-3.043 4.793a143.231 143.231 0 0 1 5.668-24.589 3 3 0 0 0 -5.661-1.988 142.783 142.783 0 0 0 -5.561 23.188c-3.026-16.441-.049-36.073 13.885-48.872zm-31.45 131.246a152.894 152.894 0 0 0 13.516 17.959 9.7 9.7 0 0 1 -3.412-2.444l-.184-.224c-11.161-13.619-16.982-24.538-17.3-32.455-.284-7.043-3.152-12.793-5.622-17.206a127.845 127.845 0 0 1 9.125 15.29 55.893 55.893 0 0 0 9.4 13.128 42.915 42.915 0 0 1 6.649 8.86 94.115 94.115 0 0 1 4.359 9.349 153.713 153.713 0 0 1 -11.447-15.442 3 3 0 0 0 -5.085 3.185zm-50.34 39.734c-10.117-5.518-26.105-22.493-34.273-31.578 11.007 2.245 32.172 7.946 45.747 20.368a179.73 179.73 0 0 0 20.592 16.294c6.315 4.4 10.153 7.085 13.514 13.168.527 1.378 1.105 2.694 1.707 3.936-14.461-13.194-40.987-28.715-42.245-29.447a3 3 0 0 0 -3.019 5.184c.269.157 21.748 12.722 36.3 24.482-5.854-1.558-11.611-2.832-17.047-3.871-2.098-3.085-8.695-11.673-21.276-18.536zm21.185 35.351a2.974 2.974 0 0 0 .737.159c3.59.963 23.1 6.716 46.989 14.129-2.934-.172-6.048-.274-9.314-.274-1.9 0-3.86.034-5.859.109-14.764.554-17.6-1.6-23.25-5.879a81.438 81.438 0 0 0 -11.006-7.273c-4.424-2.419-8.519-4.373-12.132-6.1-6.972-3.328-12.358-5.9-16.01-9.761 15.8 1.316 60.668 6.663 87.421 25.961-12.5-3.917-23.265-7.2-30.017-9.244-6.96-2.107-13.622-4.094-18.757-5.6-2.281-.667-4.077-1.185-5.306-1.531-2.055-.581-4.615-1.3-5.54 1.429a3.023 3.023 0 0 0 2.044 3.875zm53.009 1.059a117.847 117.847 0 0 0 -19.2-37.154 3 3 0 0 0 -4.731 3.692 113.144 113.144 0 0 1 16.247 29.487c-2.582-1.216-5.223-2.352-7.9-3.415-1.833-2.3-9.677-12.777-9.593-23.768.058-7.564-3.645-13.191-6.913-18.155a38.525 38.525 0 0 1 -4-7.037 185.1 185.1 0 0 1 24.11 24.023c10.726 13.075 17.078 25.391 18.985 36.72-2.238-1.552-4.579-3.012-7.005-4.391zm73.169 37.951c.663-9.36.259-19.125-2.2-28.014q1.162-1.5 2.231-3.075a51.513 51.513 0 0 1 -.031 31.091zm-18.446-92.44a74.339 74.339 0 0 1 8.258 15.334q-.534 1.392-1.1 2.787l-.229-.96a3 3 0 1 0 -5.838 1.388l2.067 8.691q-.884 1.868-1.816 3.737a98.587 98.587 0 0 1 -1.342-30.977zm4.571 37.83q2.4-4.525 4.5-9.06c.023-.053.053-.1.073-.156 7.472-16.111 12.149-32.173 13.632-47a32.432 32.432 0 0 1 4.822 10.019c2.032 7.153 1.968 61.984-27.963 79.86a50.207 50.207 0 0 1 5.839-9.031c12.829-16.009 17.576-40.26 17.772-41.285a3 3 0 0 0 -5.893-1.127c-.046.236-4.677 23.829-16.56 38.66-.913 1.139-1.737 2.264-2.515 3.381 1.206-8.668 3.173-18.379 6.293-24.261zm5.421 71.954c-4.844-4.787-8.941-8.692-12.159-11.694-.74-1.591-3.559-8.59-1.2-18.426a44.167 44.167 0 0 0 7.732-4.056l1.912 20.26a8.609 8.609 0 0 0 4.953 7.016c-.375 2.38-.791 4.692-1.238 6.9zm2.228-14.758-2.246-23.786q.723-.656 1.419-1.336a87.178 87.178 0 0 1 .827 25.126zm8.577 51.439c-17.965-5.783-42.281-10.824-43.377-11.05a3 3 0 0 0 -1.211 5.876c.271.057 26.28 5.449 44.06 11.315q-.078 1.286-.124 2.584c-8.229-2.048-17.33-3.768-25.934-2.721-17.491 2.124-37.019-21.66-43.346-30.086 6.11-.692 17.405-.629 27.408 6.764 6.567 4.854 15.161 6.944 25.113 9.365 5.763 1.4 11.7 2.849 17.777 4.963q-.197 1.473-.366 2.99zm-2.188 81.785c-15.747-4.908-30.6-25.805-36.367-34.764 8.459 1.184 31.715 5.326 49.567 16.83a71.43 71.43 0 0 0 14.964 7.376 94.791 94.791 0 0 1 -30.41-6.571 3 3 0 0 0 -2.268 5.555c11.809 4.819 25.125 7.234 39.793 7.234q1.541 0 3.1-.037c-16.323 5.443-29.813 7.049-38.379 4.377zm147.977-27.3a3 3 0 0 0 -4.242.026 97.1 97.1 0 0 1 -26.653 18.538 82.289 82.289 0 0 0 12.062-13.1c12.266-16.588 30.706-29.879 39.042-35.05-1.792 10.521-7.25 35.549-19.792 46.247-3.6 3.072-13.709 9.351-37.454 11.285 12.6-5.117 26.157-12.665 37.063-23.7a3 3 0 0 0 -.026-4.246zm-102.793-78.8c-6.091-4.978-9.46-14.338-10.014-27.818a125.23 125.23 0 0 1 1.678-24.316c4.73 3.933 12.505 12.131 14.1 24.476 1.047 8.081 4.87 14.618 9.3 22.188a152.361 152.361 0 0 1 9.039 17.246c3.085 7.17 2.93 14.613 1.914 20.47-.168-1.105-.325-2.2-.48-3.291-.991-6.953-2.015-14.143-5.969-22.726a142.183 142.183 0 0 0 -19.176-30.527 3 3 0 0 0 -4.542 3.92 138.788 138.788 0 0 1 18.269 29.117 58.367 58.367 0 0 1 4.532 14.912c-4.471-8.219-10.622-17.089-18.651-23.653zm19.4 39.43c-3.7 7.25-7.893 11.865-12.757 14 1.01-5 5.649-14 9.744-20.963 1.186 2.518 2.193 4.88 3.017 6.961zm-8.703-17.55c.88 1.432 1.718 2.863 2.494 4.277-2.457 3.973-8.549 14.209-11.331 22.264-.052-.061-.1-.123-.154-.184-.591-2.068-2.66-12.33 8.991-26.357zm-44.457 35.671c-7.363-14.764-2.595-39.94-.132-50.321 4.6 6.422 17.81 26.236 22.2 47.469a68.215 68.215 0 0 0 5.763 16.7 97.67 97.67 0 0 1 -17.044-27.332 3 3 0 0 0 -5.576 2.215c5.543 13.958 14.645 25.881 23.926 35.378-15.359-8.024-25.142-16.101-29.137-24.112zm59.836 41.479c-2.915-1.885-7-4.694-11.642-8.338a59.03 59.03 0 0 0 -4.614-6.359c-5.29-6.7-12.536-15.881-15.633-30.85-.475-2.3-1.051-4.576-1.7-6.825 11.676 13.637 23.247 27.876 34.849 42.877q-.602 4.668-1.26 9.492zm2.314-17.915q-9.1-11.647-18.212-22.714c4.79-2.409 8.953-6.608 12.6-12.678a83.169 83.169 0 0 0 7.651 17.529q-.912 8.574-2.039 17.86zm13.07 27.039c-4.55 1.107-8.333 1.826-10.937 2.262q.462-3.177.9-6.3c1.013-.651 2.593-1.7 4.628-3.174q2.702 3.571 5.409 7.209zm12.541-31.283a163.93 163.93 0 0 1 -16.843 15.6c-.71-.93-1.419-1.867-2.128-2.791a155.168 155.168 0 0 0 8.856-14.093 191.7 191.7 0 0 0 18.008-20.78 136.141 136.141 0 0 0 -7.893 22.061zm60.857-83.012a154.9 154.9 0 0 1 -36.935 62.147 163.614 163.614 0 0 0 12.6-23.9 3 3 0 1 0 -5.521-2.346 157.9 157.9 0 0 1 -20.769 35.159c6.613-16.939 20.913-44.07 50.625-71.063zm-44.161 28.04c-.655 11.062-9.206 24.2-17.753 34.727 5.016-12.618 8.937-27.572 8.535-43.039a3.036 3.036 0 0 0 -3.077-2.921 3 3 0 0 0 -2.921 3.077 96.554 96.554 0 0 1 -4.815 31.19 84.343 84.343 0 0 0 -1.373-16.915c-2.7-14.9-1.614-32.38.37-44.259q.834-.571 1.672-1.163a8.545 8.545 0 0 0 6.182.929c7.045 11.265 13.873 26.679 13.18 38.371zm-16.836-48.664 15.6-18.112q.974.069 1.947.1a87.073 87.073 0 0 1 -17.547 18.009zm6.166 2.708c7.213-6.008 13.98-13.068 18.69-21 1.256-.133 2.51-.3 3.76-.51a51.451 51.451 0 0 1 -22.45 21.507zm53.871-77.348a74.351 74.351 0 0 1 -5.335 16.586q-1.374.577-2.77 1.139l.538-.838a3 3 0 1 0 -5.044-3.246l-4.831 7.508q-1.956.657-3.945 1.276a98.671 98.671 0 0 1 21.387-22.428zm1.713 27.294a3 3 0 0 0 -4.15-.88c-.2.131-20.375 13.121-39.33 14.813-1.456.13-2.84.314-4.186.526 7.085-5.128 15.45-10.434 21.851-12.256q4.76-1.355 9.329-2.921c.012 0 .023-.009.036-.012 16.966-5.776 31.941-13.577 43.759-22.855a32.463 32.463 0 0 1 -3.883 10.425c-3.748 6.421-43.322 44.345-76.926 35.107a50.124 50.124 0 0 1 10.554-2.038c20.424-1.823 41.191-15.19 42.065-15.759a3 3 0 0 0 .881-4.153zm-73.921 39.091c.609-1.583 3.687-8.518 12.461-13.659a44.206 44.206 0 0 0 8.282 2.769l-13.287 15.424a8.614 8.614 0 0 0 -1.627 8.435c-1.988 1.391-3.956 2.7-5.871 3.914.11-6.851.098-12.498.042-16.883zm-.2 24.026c.486-.293.97-.585 1.466-.891-1.2 9.4-2.393 25.418.429 40.972a74.511 74.511 0 0 1 -4.132 41.831c-.217.575-.4 1.061-.558 1.5-1.438 2.592-2.813 4.91-4.06 6.922q.98-8.216 1.787-15.952a2.972 2.972 0 0 0 .084-.8c3.191-30.575 4.51-55.415 4.988-73.582zm33.6-162.144a153.07 153.07 0 0 0 -3.581 22.191 9.736 9.736 0 0 1 -.6-4.156l.034-.286c2.087-17.491 5.926-29.257 11.412-34.97 4.874-5.076 7.032-11.122 8.5-15.958a127.945 127.945 0 0 1 -4.7 17.167 55.9 55.9 0 0 0 -2.954 15.88 42.96 42.96 0 0 1 -1.781 10.935 95.1 95.1 0 0 1 -3.72 9.636 153.531 153.531 0 0 1 3.206-18.98 3 3 0 0 0 -5.821-1.459zm56.671 36.264a3 3 0 0 0 -3.939-1.576c-6.814 2.92-18.78 6.359-29.845 9.251 5.981-4.97 14.078-10.522 21.276-11.426a39.115 39.115 0 0 0 15.083-4.66 16.736 16.736 0 0 1 8.923-2.468c5.765-.069 12.273-2.612 18.566-5.071a81.5 81.5 0 0 1 11.145-3.795c-1.163 3.518-4.026 8.245-11.062 10.691-7.6 2.64-11.44 7.391-14.829 11.583-3.106 3.841-5.559 6.874-10.376 7.978-2.27.52-4.482 1.2-6.824 1.927-8.278 2.558-17.552 5.394-32.665 1.648 11.853-3.054 25.309-6.859 32.971-10.143a3 3 0 0 0 1.576-3.939zm44.149-85.7a72.37 72.37 0 0 1 -22.315 10.307c-2.171.51-3.993.86-5.569 1.122a142.987 142.987 0 0 1 21.652-12.938 3 3 0 1 0 -2.486-5.461 143.122 143.122 0 0 0 -20.8 12.209c11.617-16.674 29-24.054 42.823-24.054q1.144 0 2.256.067c-2.167 8.134-9.615 14.665-15.561 18.75z"/></svg>