<?xml version="1.0" encoding="iso-8859-1"?>
<!-- Generator: Adobe Illustrator 19.0.0, SVG Export Plug-In . SVG Version: 6.00 Build 0)  -->
<svg version="1.1" id="Capa_1" xmlns="http://www.w3.org/2000/svg" xmlns:xlink="http://www.w3.org/1999/xlink" x="0px" y="0px"
	 viewBox="0 0 511.999 511.999" style="enable-background:new 0 0 511.999 511.999;" xml:space="preserve">
<g>
	<g>
		<path d="M482.85,107.354c-0.936-24.27-11.261-47.088-28.449-64.276c-17.155-17.155-39.938-27.256-64.152-28.442
			c-22.376-1.1-44.271,5.479-62.206,18.569c-4.748-2.062-9.917-3.155-15.265-3.155c-10.223,0-19.811,3.958-26.998,11.146
			c-7.187,7.188-11.146,16.775-11.146,26.998c0,4.872,0.909,9.596,2.628,13.988L27.054,218.749
			C9.115,228.54-1.442,248.033,0.16,268.408l6.137,78.063c0.741,9.431,3.045,18.599,6.716,27.172
			c0.043,0.109,0.092,0.215,0.14,0.322c4.285,9.897,10.401,18.991,18.137,26.728l65.498,65.497
			c7.739,7.739,16.836,13.857,26.738,18.143c0.102,0.046,0.204,0.093,0.308,0.134c8.574,3.672,17.743,5.976,27.175,6.717
			c0,0,80.781,6.297,82.131,6.297c18.867,0,36.453-10.312,45.591-27.054l136.568-250.208c4.392,1.719,9.116,2.628,13.988,2.628
			c10.222,0,19.811-3.958,26.998-11.146c7.187-7.188,11.146-16.775,11.146-26.998c0-5.35-1.094-10.521-3.157-15.27
			C467.994,164.336,484.185,141.984,482.85,107.354z M430.541,42.919c4.688,3.075,9.14,6.652,13.254,10.767
			c4.069,4.07,7.65,8.524,10.747,13.262c-6.708,3.122-14.833,1.903-20.373-3.637C428.624,57.766,427.408,49.631,430.541,42.919z
			 M388.899,29.514c-0.898,2.173-2.217,4.167-3.922,5.872c-7.066,7.068-21.697,5.026-26.797-1.291
			C368.12,30.597,378.549,29.077,388.899,29.514z M21.251,345.295l-6.137-78.063c-1.139-14.49,6.368-28.353,19.126-35.317
			L285.421,94.817c0.008,0.009,0.016,0.017,0.025,0.026l-27.902,27.902c-2.929,2.93-2.929,7.678,0,10.607
			c1.464,1.464,6.129,4.046,10.606,0l27.894-27.894l95.977,95.977l-63.469,63.468c-2.499-5.551-5.995-10.723-10.478-15.206
			c-3.954-3.953-8.501-7.217-13.518-9.7c-0.696-0.344-1.108-1.104-1.103-2.034c0.069-11.771-4.473-22.833-12.789-31.148
			c-8.245-8.245-19.21-12.784-30.885-12.784c-0.019,0-0.036-0.003-0.056,0c-0.952,0-1.728-0.467-2.129-1.282
			c-2.547-5.168-5.819-9.625-9.725-13.246c-5.037-4.672-10.306-7.999-15.589-10.281l15.272-15.272c2.929-2.93,2.929-7.678,0-10.607
			c-2.929-2.928-7.678-2.928-10.606,0l-21.773,21.773c-12.644-0.853-23.871,2.835-30.236,6.472L43.46,248.808
			c-6.113,3.336-9.708,9.977-9.161,16.916l5.85,74.417l-16.951,16.951C22.228,353.24,21.565,349.297,21.251,345.295z
			 M308.352,295.711c-2.929-2.928-7.678-2.928-10.606,0L151.749,441.709c-7.6-1.255-14.66-4.859-20.14-10.339L66.11,365.871
			c-5.479-5.478-9.082-12.538-10.338-20.139l164.739-164.739c5.583,1.374,11.475,4.235,17.162,9.509
			c2.558,2.371,4.734,5.358,6.468,8.878c2.935,5.955,8.905,9.651,15.583,9.651c0.019,0.001,0.039,0,0.058,0
			c7.666,0,14.867,2.979,20.278,8.391c5.459,5.459,8.44,12.723,8.395,20.455c-0.039,6.698,3.583,12.663,9.45,15.565
			c3.549,1.757,6.849,3.985,9.564,6.863c17.614,18.677,4.615,46.229,4.522,46.4l-76.485,140.13
			c-0.507,0.929-1.517,1.468-2.573,1.394l-61.644-4.847l137.063-137.063C311.282,303.389,311.282,298.641,308.352,295.711z
			 M54.098,326.191l-4.846-61.645c-0.083-1.055,0.463-2.063,1.393-2.571l141.547-77.259c0.027-0.015,0.087-0.048,0.114-0.063
			c0.284-0.159,2.413-1.325,5.789-2.459L54.098,326.191z M124.999,468.458c-6.448-3.34-12.397-7.667-17.605-12.875l-65.498-65.497
			c-5.208-5.208-9.534-11.157-12.874-17.605l14.56-14.56c2.588,6.918,6.628,13.264,11.921,18.557l65.499,65.498
			c5.293,5.294,11.64,9.334,18.557,11.922L124.999,468.458z M265.564,463.24c-6.964,12.759-20.836,20.263-35.315,19.127
			l-78.065-6.137c-4.002-0.314-7.944-0.977-11.796-1.947l16.952-16.952c0,0,75.341,5.906,75.801,5.906
			c6.427,0,12.418-3.513,15.531-9.215v-0.001l76.352-139.885c6.33-9.848,8.087-26.002,7.916-32.404l69.699-69.698
			c0.009,0.008,0.018,0.017,0.026,0.025L265.564,463.24z M445.679,201.095c-4.354,4.355-10.176,6.753-16.392,6.753
			s-12.037-2.397-16.392-6.752v-0.001L296.386,84.586c-4.354-4.355-6.752-10.177-6.752-16.393c0-6.216,2.397-12.036,6.752-16.391
			c4.354-4.354,10.176-6.752,16.392-6.752s12.037,2.397,16.392,6.753l116.509,116.508c4.354,4.355,6.752,10.177,6.752,16.393
			S450.033,196.741,445.679,201.095z M459.233,116.209c1.871-3.696,0.872-8.171-2.708-10.255c-3.579-2.086-8.172-0.872-10.255,2.708
			c-7.553,12.973-5.407,29.454,5.218,40.079c1.664,1.664,3.516,3.133,5.497,4.406c-0.636,1.104-1.297,2.194-1.986,3.271
			L341.052,42.473c1.079-0.693,2.168-1.358,3.269-1.995c1.275,1.988,2.748,3.846,4.417,5.516c6.458,6.457,14.94,9.686,23.423,9.686
			c8.482,0,16.965-3.229,23.423-9.687c4.063-4.064,6.935-9.021,8.45-14.429c4.5,1.044,8.923,2.482,13.228,4.288
			c-6.189,12.412-4.054,27.713,6.3,38.065c6.497,6.497,14.938,9.759,23.394,9.759c5.005-0.001,10.013-1.149,14.626-3.441
			c3.66,8.763,5.823,18.16,6.285,27.834c0.511,10.712-1.069,21.281-4.528,31.19C462.911,138.903,452.238,130.024,459.233,116.209z"
			/>
	</g>
</g>
<g>
	<g>
		<path d="M484.533,259.989c-15.145,0-27.467,12.322-27.467,27.467c0,15.145,12.322,27.466,27.467,27.466
			s27.466-12.321,27.466-27.466C511.999,272.31,499.678,259.989,484.533,259.989z M484.533,299.923
			c-6.874,0-12.467-5.592-12.467-12.466c0-6.874,5.593-12.467,12.467-12.467c6.874,0,12.466,5.593,12.466,12.467
			S491.407,299.923,484.533,299.923z"/>
	</g>
</g>
<g>
	<g>
		<path d="M442.969,339.28c-15.145,0-27.466,12.321-27.466,27.466c0,4.143,3.358,7.5,7.5,7.5c4.142,0,7.5-3.357,7.5-7.5
			c0-6.874,5.592-12.466,12.466-12.466c6.874,0,12.466,5.592,12.466,12.466c0,6.874-5.592,12.467-12.466,12.467
			c-1.492,0-2.948-0.259-4.327-0.77c-3.886-1.437-8.2,0.547-9.637,4.432c-1.438,3.885,0.546,8.199,4.431,9.637
			c3.051,1.129,6.258,1.701,9.533,1.701c15.145-0.001,27.466-12.322,27.466-27.467C470.435,351.601,458.114,339.28,442.969,339.28z"
			/>
	</g>
</g>
<g>
	<g>
		<path d="M484.533,410.32c-15.145,0-27.467,12.321-27.467,27.467c0,15.145,12.322,27.466,27.467,27.466
			s27.466-12.321,27.466-27.466C511.999,422.641,499.678,410.32,484.533,410.32z M484.533,450.252
			c-6.874,0-12.467-5.592-12.467-12.466c0-6.874,5.593-12.467,12.467-12.467s12.466,5.593,12.466,12.467
			S491.407,450.252,484.533,450.252z"/>
	</g>
</g>
<g>
	<g>
		<circle cx="176.22" cy="311.229" r="7.5"/>
	</g>
</g>
<g>
	<g>
		<circle cx="216.82" cy="321.589" r="7.5"/>
	</g>
</g>
<g>
	<g>
		<circle cx="221.5" cy="272.119" r="7.5"/>
	</g>
</g>
<g>
	<g>
		<circle cx="260.85" cy="279.619" r="7.5"/>
	</g>
</g>
<g>
	<g>
		<circle cx="246.82" cy="241.309" r="7.5"/>
	</g>
</g>
<g>
	<g>
		<circle cx="178.99" cy="354.279" r="7.5"/>
	</g>
</g>
<g>
</g>
<g>
</g>
<g>
</g>
<g>
</g>
<g>
</g>
<g>
</g>
<g>
</g>
<g>
</g>
<g>
</g>
<g>
</g>
<g>
</g>
<g>
</g>
<g>
</g>
<g>
</g>
<g>
</g>
</svg>
