<svg height="504pt" viewBox="-109 0 504 504.12807" width="504pt" xmlns="http://www.w3.org/2000/svg"><path d="m203.621094 105.441406.300781-.839844c.617187-1.695312.929687-3.484374.925781-5.289062v-13.632812l15.273438-35.101563c.34375-.148437.71875-.222656 1.09375-.214844h6.714844c7.941406.183594 15.0625-4.855469 17.53125-12.40625l4.886718-16.789062c1.382813-4.808594.402344-9.992188-2.644531-13.964844-3.574219-4.601563-9.097656-7.265625-14.921875-7.203125h-180.109375c-5.824219-.0625-11.347656 2.601562-14.921875 7.203125-3.035156 3.976563-4.003906 9.160156-2.609375 13.964844l4.882813 16.789062c2.46875 7.550781 9.59375 12.589844 17.535156 12.40625h6.714844c.375-.007812.746093.066407 1.089843.214844l15.277344 35.101563v13.667968c-.007813 1.804688.304687 3.597656.921875 5.292969l.304688.800781c9.683593 25.496094-10.730469 73.273438-29.554688 108.859375-49.042969 92.648438-57.453125 187.277344-49.757812 240.15625 6.472656 44.484375 20.347656 49.671875 72.050781 49.671875 7.082031 0 14.890625-.101562 23.5-.210937 11.515625-.140625 24.6875-.308594 39.734375-.308594h9.769531c15.050781 0 28.21875.167969 39.769531.308594 71.234375.898437 88.132813 1.109375 95.527344-49.460938 7.6875-52.878906-.722656-147.507812-49.730469-240.15625-18.828125-35.585937-39.25-83.363281-29.554687-108.859375zm-106.21875-6.09375v-7.019531h90.582031l-.058594 7.152344c-2.519531 6.53125-8.445312 22.433593 3.273438 60.070312-.136719 0-.246094-.074219-.378907-.074219h-96.523437c11.65625-37.59375 5.671875-53.507812 3.105469-60.128906zm-17.332032-56.992187c-.277343-.640625-.636718-1.242188-1.066406-1.789063-3.585937-4.472656-9.03125-7.050781-14.765625-6.992187h-6.714843c-.484376-.011719-.960938-.117188-1.402344-.316407l-4.96875-15.949218c.414062-.375.964844-.5625 1.519531-.519532h180.109375c.679688 0 1.113281.199219 1.308594.050782l-4.703125 16.238281c-.414063.355469-.949219.535156-1.492188.496094h-6.714843c-5.730469-.058594-11.171876 2.519531-14.753907 6.992187-.429687.546875-.789062 1.148438-1.066406 1.789063l-14.414063 33.1875h-96.4375zm186.222657 409.683593c-5.144531 35.335938-6.597657 35.964844-78.695313 35.09375-11.617187-.144531-24.863281-.3125-39.988281-.3125h-9.769531c-15.105469 0-28.367188.167969-39.976563.3125-72.082031.878907-73.558593.242188-78.695312-35.09375-7.328125-50.363281.835937-140.808593 47.949219-229.878906 7.96875-14.871094 15.058593-30.199218 21.234374-45.898437h102.46875c2.023438-.023438 3.964844-.785157 5.464844-2.136719 6.34375 16.453125 13.707032 32.496094 22.050782 48.035156 47.121093 89.070313 55.277343 179.5 47.949218 229.878906zm0 0"/><path d="m71.382812 377.707031c-5.105468.015625-9.714843-3.050781-11.667968-7.769531-1.957032-4.714844-.871094-10.140625 2.746094-13.742188 5.007812-4.726562 12.832031-4.726562 17.84375 0 1.746093 1.75 2.933593 3.976563 3.414062 6.402344.929688 4.542969 5.363281 7.472656 9.90625 6.546875s7.472656-5.359375 6.546875-9.902343c-1.140625-5.652344-3.925781-10.839844-8-14.917969-11.65625-11.050781-29.921875-11.050781-41.582031 0-8.414063 8.402343-10.9375 21.050781-6.382813 32.039062 4.554688 10.988281 15.28125 18.144531 27.175781 18.128907 6.625.003906 12.113282 5.136718 12.558594 11.75.441406 6.609374-4.3125 12.433593-10.878906 13.316406-6.566406.886718-12.695312-3.464844-14.019531-9.957032-.925781-4.546874-5.363281-7.480468-9.90625-6.550781-4.546875.925781-7.480469 5.363281-6.550781 9.90625 3.089843 15.148438 17.390624 25.304688 32.707031 23.238281 15.320312-2.066406 26.417969-15.648437 25.386719-31.074218-1.03125-15.421875-13.839844-27.40625-29.296876-27.414063zm0 0"/><path d="m146.921875 335.738281c-21.175781 0-37.769531 22.125-37.769531 50.359375 0 28.238282 16.59375 50.363282 37.769531 50.363282s37.773437-22.125 37.773437-50.363282c0-28.234375-16.597656-50.359375-37.773437-50.359375zm0 83.933594c-11.371094 0-20.984375-15.375-20.984375-33.574219 0-18.195312 9.613281-33.570312 20.984375-33.570312 11.375 0 20.984375 15.375 20.984375 33.570312 0 18.199219-9.609375 33.574219-20.984375 33.574219zm0 0"/><path d="m200.28125 339.808594c-2.429688-3.878906-7.515625-5.097656-11.441406-2.742188-3.921875 2.359375-5.230469 7.425782-2.945313 11.386719l23.980469 39.972656v39.640625c0 4.636719 3.757812 8.394532 8.390625 8.394532 4.636719 0 8.394531-3.757813 8.394531-8.394532v-39.640625l23.980469-39.972656c1.609375-2.570313 1.707031-5.8125.25-8.476563-1.453125-2.660156-4.234375-4.332031-7.269531-4.367187s-5.851563 1.570313-7.367188 4.199219l-17.988281 29.972656zm0 0"/><path d="m65.558594 310.398438c4.546875.898437 8.960937-2.058594 9.859375-6.605469 3.242187-16.710938 8.496093-32.964844 15.648437-48.414063 1.972656-4.195312.171875-9.195312-4.023437-11.171875-4.195313-1.972656-9.195313-.171875-11.171875 4.023438-7.726563 16.6875-13.410156 34.25-16.917969 52.304687-.902344 4.550782 2.054687 8.964844 6.605469 9.863282zm0 0"/><path d="m112.90625 193.929688c-1.992188-.992188-4.300781-1.15625-6.414062-.453126-2.113282.707032-3.859376 2.222657-4.851563 4.214844l-8.394531 16.789063c-2.070313 4.148437-.386719 9.191406 3.761718 11.261719 4.148438 2.074218 9.191407.390624 11.261719-3.757813l8.394531-16.789063c.996094-1.992187 1.160157-4.296874.453126-6.410156-.703126-2.113281-2.21875-3.859375-4.210938-4.855468zm0 0"/></svg>