<svg height="512" viewBox="0 0 52 60" width="512" xmlns="http://www.w3.org/2000/svg"><g id="Page-1" fill="none" fill-rule="evenodd"><g id="009---Sugar" fill="rgb(0,0,0)" fill-rule="nonzero" transform="translate(0 -1)"><path id="Shape" d="m3 30.858v24.142c.00330738 3.3123376 2.68766243 5.9966926 6 6h34c3.3123376-.0033074 5.9966926-2.6876624 6-6v-24.142c1.7676754-.4439148 3.0052567-2.0354444 3-3.858 0-2.209139-1.790861-4-4-4h-1.08c-.4966526-3.4409267-3.4434178-5.9959255-6.92-6h-2c-1.3770797-.0087298-2.4912702-1.1229203-2.5-2.5-.013105-1.8571076-1.1694189-3.5140403-2.908-4.167 1.0356549-2.9001287.0543392-6.13645968-2.4175707-7.97302954-2.4719099-1.83656985-5.8537422-1.84195331-8.3314868-.01326267-2.4777446 1.82869063-3.4693589 5.06188096-2.4429425 7.96529221-.5907071.216984-1.1271184.5599188-1.572 1.005-.8543672.8381124-1.3333653 1.986193-1.328 3.183 0 .6630412-.2633921 1.298926-.732233 1.767767-.468841.4688409-1.1047258.732233-1.767767.732233h-2c-3.47792596.0009971-6.42671096 2.5573777-6.921 6h-1.079c-2.01176888-.0025048-3.7110655 1.4923684-3.96503286 3.4880439-.25396737 1.9956756 1.01675863 3.8685104 2.96503286 4.3699561zm23-27.858c2.7614237 0 5 2.23857625 5 5 0 2.7614237-2.2385763 5-5 5s-5-2.2385763-5-5c.0033061-2.76005315 2.2399468-4.99669388 5-5zm-17.53 17.464c.93197788-.9427537 2.2043584-1.4704492 3.53-1.464h2c2.4841391-.0027556 4.4972444-2.0158609 4.5-4.5.0111552-1.1196525.7547251-2.099702 1.83-2.412 1.3092286 1.8260778 3.4177744 2.9098722 5.6646915 2.9116564 2.2469172.0017842 4.3571814-1.0786601 5.6693085-2.9026564 1.0820062.2980821 1.8327627 1.2806899 1.836 2.403.0082318 2.4818637 2.0181363 4.4917682 4.5 4.5h2c2.3751008.0029983 4.4215673 1.6735832 4.9 4h-37.8c.19336951-.9631046.67049963-1.8463178 1.37-2.536zm-5.883 5.123c.3736971-.3765323.88250472-.5879053 1.413-.587h44c1.1045695 0 2 .8954305 2 2s-.8954305 2-2 2h-32c-.5522847 0-1 .4477153-1 1s.4477153 1 1 1h31v24c0 2.209139-1.790861 4-4 4h-34c-2.209139 0-4-1.790861-4-4v-24h6c.5522847 0 1-.4477153 1-1s-.4477153-1-1-1h-7c-.80817082-.0009798-1.53632945-.4882522-1.8454705-1.2349602s-.1385032-1.6060869.4324705-2.1780398z"/><path id="Shape" d="m24 9c.5522847 0 1-.44771525 1-1s.4477153-1 1-1 1-.44771525 1-1-.4477153-1-1-1c-1.6568542 0-3 1.34314575-3 3 0 .26521649.1053568.5195704.2928932.70710678s.4418903.29289322.7071068.29289322z"/><path id="Shape" d="m7 36c0 .5522847.44771525 1 1 1h36c.5522847 0 1-.4477153 1-1s-.4477153-1-1-1h-36c-.55228475 0-1 .4477153-1 1z"/><path id="Shape" d="m44 52h-36c-.55228475 0-1 .4477153-1 1s.44771525 1 1 1h36c.5522847 0 1-.4477153 1-1s-.4477153-1-1-1z"/><path id="Shape" d="m16 39c-.5522847 0-1 .4477153-1 1v7c0 1.6568542 1.3431458 2.9999999 3 2.9999999s3-1.3431457 3-2.9999999v-7c0-.5522847-.4477153-1-1-1s-1 .4477153-1 1v7c0 .5522847-.4477153 1-1 1s-1-.4477153-1-1v-7c0-.5522847-.4477153-1-1-1z"/><path id="Shape" d="m26 41c.5522847 0 1 .4477153 1 1s.4477153 1 1 1 1-.4477153 1-1c0-1.6568542-1.3431458-3-3-3s-3 1.3431458-3 3v5c0 1.6568542 1.3431458 3 3 3s3-1.3431458 3-3v-1c.5522847 0 1-.4477153 1-1s-.4477153-1-1-1h-2c-.5522847 0-1 .4477153-1 1s.4477153 1 1 1v1c0 .5522847-.4477153 1-1 1s-1-.4477153-1-1v-5c0-.5522847.4477153-1 1-1z"/><path id="Shape" d="m36 50c.5522847 0 1-.4477153 1-1v-7c0-1.6568542-1.3431458-3-3-3s-3 1.3431458-3 3v7c0 .5522847.4477153 1 1 1s1-.4477153 1-1v-3h2v3c0 .5522847.4477153 1 1 1zm-3-6v-2c0-.5522847.4477153-1 1-1s1 .4477153 1 1v2z"/><path id="Shape" d="m41.5 39h-1.5c-.5522847 0-1 .4477153-1 1v9c0 .5522847.4477153 1 1 1s1-.4477153 1-1v-3h.382l1.723 3.447c.2468713.4942949.8477051.6948713 1.342.448s.6948713-.8477051.448-1.342l-1.547-3.093c1.3273719-.8228214 1.9470223-2.4269487 1.5174952-3.9284339-.429527-1.5014853-1.8037852-2.5352189-3.3654952-2.5315661zm-.5 2h.5c.8284271 0 1.5.6715729 1.5 1.5s-.6715729 1.5-1.5 1.5h-.5z"/><path id="Shape" d="m10 48c-.55228475 0-1-.4477153-1-1s-.44771525-1-1-1-1 .4477153-1 1c.00000003 1.6568542 1.34314578 2.9999999 3 2.9999999 1.6568542 0 3-1.3431457 3-2.9999999v-.5c0-1.6568542-1.3431458-3-3-3-.55228475 0-1-.4477153-1-1v-.5c0-.5522847.44771525-1 1-1 .5522847 0 1 .4477153 1 1s.4477153 1 1 1 1-.4477153 1-1c0-1.6568542-1.3431458-2.9999999-3-2.9999999-1.65685422 0-2.99999997 1.3431457-3 2.9999999v.5c0 1.6568542 1.34314575 3 3 3 .5522847 0 1 .4477153 1 1v.5c0 .5522847-.4477153 1-1 1z"/><path id="Shape" d="m21.543 15.094c-.2593837-.055453-.5301724-.0055836-.7527837.1386356-.2226113.1442191-.3788061.3709715-.4342163.6303644-.3786507 1.7343118-1.4455285 3.2404285-2.956 4.173-.4468963.2995244-.5767287.8989369-.293825 1.3565356.2829037.4575988.8771416.6093654 1.344825.3434644 1.9723269-1.2203987 3.3643792-3.1895554 3.857-5.456.1150567-.5385347-.2269403-1.0687419-.765-1.186z"/></g></g></svg>