<svg id="Layer_1" enable-background="new 0 0 512 512" height="512" viewBox="0 0 512 512" width="512" xmlns="http://www.w3.org/2000/svg"><path d="m323.217 198.162-10.176-3.571c-7.427-2.606-12.041-9.114-12.041-16.985v-162.606c0-8.284-6.716-15-15-15h-60c-8.284 0-15 6.716-15 15v123 .01 39.597c0 7.871-4.614 14.379-12.041 16.985l-10.176 3.571c-21.13 7.413-34.783 26.673-34.783 49.066v219.771c0 24.813 20.187 45 45 45h114c24.813 0 45-20.187 45-45v-219.771c0-22.393-13.653-41.653-34.783-49.067zm-52.217-168.162v30h-30v-30zm-30 60h30v33h-30zm-42.284 136.47 10.176-3.571c19.505-6.844 32.108-24.622 32.108-45.293v-24.606h30v24.606c0 20.67 12.603 38.449 32.107 45.292l10.177 3.571c9.077 3.185 14.716 11.14 14.716 20.759v63.855l-60.603-70.836c-5.653-6.931-17.144-6.93-22.796 0l-60.601 70.838v-63.856c0-9.62 5.639-17.574 14.716-20.759zm119.874 119.762-62.59 73.158-62.589-73.158 62.589-73.158zm-5.59 135.768h-114c-8.271 0-15-6.729-15-15v-85.621l60.603 70.836c5.653 6.931 17.144 6.93 22.796 0l60.601-70.835v85.62c0 8.271-6.729 15-15 15z"/></svg>