<svg xmlns="http://www.w3.org/2000/svg" height="596pt" version="1.1" viewBox="-10 0 596 596.09058" width="596pt">
<g id="surface1">
<path d="M 59.640625 556.269531 C 54.15625 556.269531 49.707031 551.824219 49.707031 546.335938 C 49.679688 528.988281 55.039062 512.058594 65.042969 497.886719 L 168.671875 350.664062 C 214.214844 285.898438 253.5 216.957031 286.003906 144.761719 L 317.453125 74.882812 C 322.882812 62.777344 331.621094 52.449219 342.660156 45.085938 L 353.199219 38.066406 C 357.761719 35.019531 358.996094 28.855469 355.953125 24.289062 C 355.226562 23.199219 354.289062 22.265625 353.199219 21.539062 L 323.402344 1.671875 C 318.835938 -1.375 312.671875 -0.140625 309.625 4.421875 L 292.144531 30.644531 C 290.753906 32.738281 289.25 34.75 287.632812 36.675781 L 227.402344 109.003906 C 169.804688 178.164062 119.847656 253.351562 78.414062 333.25 L 37.789062 411.628906 C 13.058594 459.40625 0.117188 512.40625 0.0429688 566.199219 C 0.0429688 582.65625 13.382812 596 29.839844 596 L 39.773438 596 C 56.230469 596 69.570312 582.65625 69.570312 566.199219 C 69.570312 560.714844 65.125 556.269531 59.640625 556.269531 Z M 46.796875 573.222656 C 44.933594 575.085938 42.410156 576.132812 39.773438 576.132812 L 29.84375 576.132812 C 24.355469 576.132812 19.910156 571.6875 19.910156 566.203125 C 19.957031 515.589844 32.117188 465.722656 55.371094 420.769531 L 96.015625 342.390625 C 136.804688 263.761719 185.976562 189.777344 242.667969 121.71875 L 302.902344 49.4375 C 304.964844 46.964844 306.890625 44.378906 308.671875 41.699219 L 320.59375 23.75 L 329.808594 29.839844 C 316.527344 39.175781 306.003906 51.914062 299.347656 66.71875 L 267.890625 136.617188 C 235.910156 207.664062 197.25 275.507812 152.433594 339.242188 L 48.804688 486.464844 C 36.429688 503.972656 29.804688 524.894531 29.84375 546.335938 C 29.84375 557.816406 36.4375 568.277344 46.796875 573.222656 Z M 46.796875 573.222656 " style=" stroke:none;fill-rule:nonzero;fill:rgb(0%,0%,0%);fill-opacity:1;" />
<path d="M 416.765625 22.886719 C 418.214844 18.238281 416.078125 13.222656 411.722656 11.046875 L 391.855469 1.113281 C 389.382812 -0.140625 386.5 -0.289062 383.910156 0.699219 C 381.328125 1.660156 379.265625 3.652344 378.210938 6.199219 L 274.371094 257.199219 C 264.304688 281.5 252.820312 305.191406 239.976562 328.148438 L 133.925781 517.53125 C 126.5 530.789062 114.394531 540.796875 99.976562 545.59375 C 89.769531 549.019531 84.269531 560.070312 87.695312 570.28125 C 90.355469 578.210938 97.78125 583.558594 106.144531 583.574219 C 107.070312 583.574219 107.996094 583.507812 108.917969 583.375 L 127.441406 580.734375 C 151.238281 577.371094 172.292969 563.558594 184.859375 543.070312 L 281.585938 385.90625 C 311.722656 336.886719 335.597656 284.285156 352.652344 229.328125 Z M 264.667969 375.496094 L 167.90625 532.660156 C 158.429688 548.117188 142.542969 558.535156 124.589844 561.066406 L 106.222656 564.433594 C 125.335938 558.085938 141.386719 544.816406 151.210938 527.238281 L 257.300781 337.851562 C 270.539062 314.214844 282.367188 289.816406 292.730469 264.785156 L 392.523438 23.632812 L 395.292969 25.023438 L 333.710938 223.4375 C 317.140625 276.808594 293.945312 327.890625 264.667969 375.496094 Z M 264.667969 375.496094 " style=" stroke:none;fill-rule:nonzero;fill:rgb(0%,0%,0%);fill-opacity:1;" />
<path d="M 576.136719 387.414062 C 576.136719 381.929688 571.691406 377.480469 566.203125 377.480469 L 547.820312 377.480469 C 525.476562 377.460938 503.628906 384.070312 485.042969 396.472656 L 471.765625 405.222656 L 476.730469 374.066406 C 476.800781 373.550781 476.828125 373.035156 476.808594 372.515625 C 476.808594 347.832031 456.800781 327.820312 432.113281 327.820312 C 407.425781 327.820312 387.414062 347.828125 387.414062 372.515625 C 387.417969 373.007812 387.453125 373.5 387.523438 373.984375 L 392.273438 405.710938 L 379.230469 396.503906 C 360.632812 384.082031 338.769531 377.464844 316.40625 377.480469 L 298.023438 377.480469 C 292.539062 377.480469 288.089844 381.929688 288.089844 387.414062 C 288.015625 421.824219 303.667969 454.382812 330.59375 475.816406 L 334.375 478.792969 L 327.234375 489.492188 C 308.148438 518.078125 297.980469 551.691406 298.023438 586.066406 C 298.023438 591.550781 302.46875 596 307.957031 596 C 308.5 595.996094 309.046875 595.953125 309.585938 595.859375 L 333.492188 591.886719 C 357.523438 587.804688 380.441406 578.75 400.777344 565.308594 L 401.164062 565.386719 C 403.386719 565.71875 405.570312 566.277344 407.679688 567.054688 C 409.558594 568.144531 411.320312 569.425781 412.933594 570.878906 C 418.0625 576.03125 424.867188 579.167969 432.113281 579.71875 C 439.507812 579.144531 446.453125 575.941406 451.691406 570.691406 C 453.304688 569.28125 455.035156 568.011719 456.867188 566.894531 C 458.480469 566.339844 460.144531 565.933594 461.832031 565.683594 C 482.847656 578.855469 506.25 587.757812 530.703125 591.886719 L 554.613281 595.859375 C 555.160156 595.953125 555.714844 596 556.269531 596 C 561.757812 596 566.203125 591.550781 566.203125 586.066406 C 566.230469 551.71875 556.0625 518.136719 536.992188 489.570312 L 529.859375 478.875 L 533.632812 475.894531 C 560.578125 454.441406 576.230469 421.851562 576.136719 387.414062 Z M 496.019531 413.03125 C 511.351562 402.789062 529.382812 397.332031 547.820312 397.347656 L 555.765625 397.347656 C 553.179688 422.128906 540.738281 444.832031 521.238281 460.347656 L 510.3125 469.058594 L 510.3125 469.109375 C 510.222656 469.179688 510.105469 469.199219 510.023438 469.269531 L 490.84375 485.746094 C 490.054688 484.71875 489.386719 483.601562 488.859375 482.421875 C 488.265625 480.101562 487.929688 477.730469 487.867188 475.339844 C 487.976562 468.542969 485.828125 461.90625 481.757812 456.464844 C 477.253906 451.917969 471.351562 449.019531 465 448.242188 L 467.601562 431.773438 Z M 417.214844 463.488281 C 420.160156 461.84375 422.9375 459.914062 425.507812 457.726562 C 427.417969 455.875 429.65625 454.394531 432.113281 453.367188 C 434.566406 454.394531 436.808594 455.875 438.71875 457.726562 C 441.289062 459.914062 444.066406 461.847656 447.011719 463.5 L 447.011719 468.585938 C 446.96875 482.554688 441.910156 496.046875 432.757812 506.605469 L 431.46875 506.605469 C 422.316406 496.046875 417.257812 482.554688 417.214844 468.585938 Z M 432.113281 347.683594 C 445.554688 347.679688 456.558594 358.367188 456.945312 371.800781 L 446.386719 438.617188 C 442.292969 435.441406 437.292969 433.652344 432.113281 433.503906 C 426.730469 433.671875 421.550781 435.582031 417.34375 438.945312 L 407.28125 371.839844 C 407.648438 358.390625 418.660156 347.679688 432.113281 347.683594 Z M 308.480469 397.347656 L 316.425781 397.347656 C 334.78125 397.320312 352.730469 402.726562 368.019531 412.882812 L 396.355469 432.886719 L 398.679688 448.359375 C 392.539062 449.171875 386.851562 452.023438 382.53125 456.453125 C 378.453125 461.894531 376.300781 468.53125 376.410156 475.328125 C 376.347656 477.714844 376.011719 480.085938 375.417969 482.398438 C 374.890625 483.585938 374.226562 484.707031 373.433594 485.738281 L 354.191406 469.246094 C 354.113281 469.179688 353.992188 469.160156 353.90625 469.089844 L 353.90625 469.039062 L 342.976562 460.316406 C 323.496094 444.808594 311.0625 422.117188 308.480469 397.347656 Z M 330.234375 572.28125 L 318.316406 574.269531 C 320.316406 547.953125 329.0625 522.597656 343.714844 500.648438 L 349.671875 491.707031 L 364.242188 504.183594 C 364.078125 505 363.96875 505.832031 363.914062 506.667969 C 364.40625 513.582031 367.167969 520.136719 371.773438 525.320312 C 373.144531 527.023438 374.328125 528.878906 375.296875 530.839844 C 375.890625 533.15625 376.226562 535.53125 376.292969 537.921875 C 376.398438 543.640625 377.914062 549.246094 380.703125 554.242188 C 365.054688 563.140625 347.976562 569.246094 330.234375 572.28125 Z M 447.726562 549.257812 C 444.667969 550.964844 441.792969 552.980469 439.144531 555.277344 C 436.910156 557.105469 433.542969 559.84375 432.113281 559.84375 C 429.660156 558.816406 427.417969 557.335938 425.507812 555.484375 C 422.667969 552.984375 419.539062 550.835938 416.183594 549.085938 C 412.585938 547.558594 408.816406 546.476562 404.957031 545.871094 C 402.339844 545.574219 399.796875 544.820312 397.4375 543.644531 C 396.644531 541.265625 396.226562 538.773438 396.199219 536.265625 C 396.035156 532.089844 395.300781 527.957031 394.023438 523.976562 C 392.476562 520.21875 390.398438 516.699219 387.855469 513.527344 C 386.089844 511.488281 384.742188 509.128906 383.878906 506.574219 C 384.742188 504.023438 386.089844 501.660156 387.855469 499.621094 C 390.398438 496.449219 392.476562 492.925781 394.023438 489.164062 C 395.300781 485.191406 396.035156 481.066406 396.199219 476.894531 C 396.246094 474.421875 396.652344 471.96875 397.410156 469.613281 C 397.734375 489.835938 405.875 509.148438 420.125 523.5 C 421.976562 525.382812 424.503906 526.453125 427.148438 526.46875 L 437.078125 526.46875 C 439.710938 526.46875 442.238281 525.421875 444.101562 523.558594 C 458.375 509.210938 466.535156 489.890625 466.875 469.652344 C 467.628906 472.011719 468.035156 474.46875 468.078125 476.945312 C 468.242188 481.121094 468.972656 485.253906 470.253906 489.230469 C 471.800781 492.992188 473.878906 496.511719 476.421875 499.679688 C 478.183594 501.71875 479.535156 504.082031 480.394531 506.632812 C 479.535156 509.1875 478.183594 511.546875 476.421875 513.585938 C 470.914062 519.890625 467.980469 528.035156 468.199219 536.402344 C 468.160156 538.546875 467.949219 540.6875 467.574219 542.800781 C 464.777344 544.707031 461.53125 545.851562 458.15625 546.117188 C 454.542969 546.644531 451.03125 547.703125 447.726562 549.257812 Z M 545.890625 574.265625 L 533.972656 572.28125 C 516.152344 569.25 498.925781 563.414062 482.929688 554.996094 C 486.339844 549.828125 488.109375 543.75 488.011719 537.554688 C 488.027344 535.277344 488.304688 533.007812 488.847656 530.792969 C 489.8125 528.824219 490.996094 526.96875 492.375 525.261719 C 496.984375 520.082031 499.753906 513.523438 500.25 506.605469 C 500.199219 505.773438 500.089844 504.945312 499.921875 504.125 L 514.492188 491.648438 L 520.453125 500.589844 C 535.128906 522.550781 543.890625 547.929688 545.890625 574.265625 Z M 545.890625 574.265625 " style=" stroke:none;fill-rule:nonzero;fill:rgb(0%,0%,0%);fill-opacity:1;" />
</g>
</svg>