<svg id="Layer_1" enable-background="new 0 0 512.397 512.397" height="512" viewBox="0 0 512.397 512.397" width="512" xmlns="http://www.w3.org/2000/svg"><g><path d="m94.533 284.644c9.163 17.338 22.714 32.02 39.377 42.605 18.151 11.53 39.179 17.624 60.81 17.624 21.602 0 42.605-6.079 60.74-17.579 16.693-10.586 30.269-25.287 39.445-42.65h10.115c16.343 0 29.639-13.296 29.639-29.639v-.111c0-26.341-13.686-49.532-34.308-62.88-16.707-43.291-58.835-72.218-105.63-72.218-23.361 0-45.788 7.025-64.854 20.316-18.596 12.963-32.701 30.914-40.802 51.918-20.608 13.351-34.282 36.533-34.282 62.864v.111c0 16.343 13.296 29.639 29.639 29.639zm152.894 29.982c-15.729 9.975-33.954 15.247-52.707 15.247-18.778 0-37.024-5.286-52.768-15.286-12.152-7.719-22.388-17.951-30.064-29.943h165.664c-7.689 12.013-17.947 22.26-30.125 29.982zm-108.983-162.209c16.538-11.528 35.998-17.622 56.277-17.622 34.985 0 66.966 18.616 84.415 47.777-6.296-1.686-12.836-2.548-19.345-2.548h-130.139c-6.49 0-13.085.871-19.349 2.549 7.069-11.848 16.6-22.111 28.141-30.156zm106.028 42.608h10.628v18.669c0 2.943-2.384 5.338-5.314 5.338s-5.314-2.395-5.314-5.338zm-55.065 0h10.628v27.228c0 2.943-2.384 5.338-5.314 5.338s-5.314-2.395-5.314-5.338zm-55.065 0h10.628v18.669c0 2.943-2.384 5.338-5.314 5.338s-5.314-2.395-5.314-5.338zm-64.56 59.98v-.111c0-29.495 21.446-54.06 49.56-58.962v17.762c0 11.214 9.113 20.338 20.314 20.338s20.314-9.124 20.314-20.338v-18.669h14.437v27.228c0 11.214 9.113 20.338 20.314 20.338s20.314-9.124 20.314-20.338v-27.228h14.437v18.669c0 11.214 9.113 20.338 20.314 20.338s20.314-9.124 20.314-20.338v-17.762c28.114 4.903 49.56 29.467 49.56 58.962v.111c0 8.072-6.567 14.639-14.639 14.639h-220.6c-8.072 0-14.639-6.567-14.639-14.639z"/><path d="m492.249 470.253c-7.045-13.71-17.722-33.545-28.575-50.182-10.68-16.373-23.221-33.11-35.257-33.11-9.162 0-16.86 7.203-24.305 14.168-2.794 2.614-7.623 7.132-10.4 8.537-3.96-4.272-12.21-18.148-18.396-28.55-1.316-2.214-2.613-4.386-3.896-6.522.001-.046.007-.09.007-.136v-364.772c0-5.609-6.946-9.971-12.131-5.899l-19.821 15.561-15.875-16.972c-3.652-3.169-7.303-3.169-10.955 0l-15.094 16.137-15.092-16.136c-3.652-3.169-7.303-3.169-10.955 0l-15.094 16.137-15.093-16.137c-3.652-3.169-7.304-3.169-10.956 0l-15.09 16.136-15.089-16.136c-3.652-3.17-7.304-3.17-10.956 0l-15.088 16.136-15.09-16.136c-3.652-3.169-7.304-3.169-10.956 0l-15.087 16.135-15.085-16.134c-2.964-3.171-7.992-3.17-10.957 0l-15.089 16.135-15.09-16.136c-3.652-3.17-7.304-3.17-10.956 0l-15.867 16.969-19.815-15.558c-5.186-4.072-12.132.289-12.132 5.899v101.379c0 9.697 15 9.697 15 0v-31.065h323.414v270.604c-14.375-21.631-26.868-35.103-39.43-34.39-8.769.497-21.074 8.664-51.478 64.568-.7 1.287-1.399 2.584-2.098 3.884h-230.408v-234.59c0-9.697-15-9.697-15 0v304.906c0 5.608 6.946 9.971 12.131 5.899l19.822-15.561 15.876 16.971c3.652 3.169 7.303 3.169 10.955 0l15.094-16.137 15.093 16.137c3.652 3.169 7.303 3.169 10.955 0l15.093-16.137 15.093 16.137c3.652 3.169 7.304 3.169 10.956 0l15.09-16.136 15.089 16.136c3.652 3.17 7.304 3.17 10.956 0l15.088-16.136 11.504 12.301c-2.179 4.679-4.119 8.893-5.762 12.49-5.276 11.549 1.888 25.639 14.124 28.314 39.978 8.738 80.854 13.136 121.916 13.136 10.455 0 20.929-.286 31.395-.857 9.68-.528 8.87-15.536-.817-14.978-50.226 2.741-100.453-1.281-149.291-11.956-3.589-1.297-4.816-3.772-3.684-7.426 13.466-29.474 27.524-58.736 42.932-87.249 28.726-53.157 38.899-58.265 40.357-58.742 1.034.037 6.502 1.069 18.506 17.045 8.762 11.662 17.887 27.008 25.938 40.547 16.402 27.585 21.973 36.311 29.995 36.311 8.036 0 14.791-6.32 21.942-13.011 4.271-3.996 10.707-10.018 13.973-10.12.638.142 7.2 2.176 23.537 27.472 10.272 15.905 20.373 34.704 27.038 47.674 1.307 3.722.117 6.267-3.569 7.635-15.868 3.449-32.204 6.239-48.555 8.293-9.621 1.208-7.754 16.084 1.87 14.883 16.791-2.109 33.57-4.975 49.871-8.519 12.565-2.728 19.676-17.565 13.724-29.146zm-459.235-405.252v-39.89l13.094 10.281c3.061 2.404 7.453 2.066 10.11-.776l15.088-16.136 15.09 16.136c3.652 3.17 7.304 3.17 10.956 0l15.088-16.135 15.085 16.135c3.652 3.17 7.304 3.171 10.957 0l15.088-16.136 15.091 16.136c3.652 3.169 7.304 3.169 10.956 0l15.088-16.135 15.089 16.135c3.652 3.17 7.304 3.17 10.956 0l15.09-16.136 15.093 16.137c3.652 3.169 7.303 3.169 10.955 0l15.093-16.137 15.093 16.137c3.652 3.169 7.303 3.169 10.955 0l15.094-16.138 15.097 16.138c2.657 2.841 7.047 3.179 10.108.775l13.099-10.284v39.893zm187.767 365.051c-3.652-3.169-7.304-3.169-10.956 0l-15.088 16.135-15.089-16.135c-3.652-3.17-7.304-3.17-10.956 0l-15.09 16.136-15.093-16.137c-3.652-3.169-7.303-3.169-10.955 0l-15.093 16.137-15.093-16.137c-3.652-3.169-7.303-3.169-10.955 0l-15.094 16.139-15.097-16.138c-2.658-2.842-7.048-3.178-10.108-.776l-13.1 10.285v-39.893h222.512c-7.909 15.32-15.452 30.757-21.841 44.182z"/><path d="m311.029 377.118c-9.652 0-9.668 15 0 15 9.652 0 9.668-15 0-15z"/><path d="m353.027 446.547c9.652 0 9.668-15 0-15-9.651 0-9.667 15 0 15z"/><path d="m293.03 465.597c9.652 0 9.668-15 0-15-9.651 0-9.667 15 0 15z"/><path d="m434.023 456.072c9.652 0 9.668-15 0-15-9.652 0-9.668 15 0 15z"/></g></svg>