<svg height="480pt" viewBox="0 0 480 480" width="480pt" xmlns="http://www.w3.org/2000/svg"><path d="m176 352h16v16h-16zm0 0"/><path d="m80 416c24.03125-.105469 44.285156-17.96875 47.386719-41.800781 3.105469-23.832031-11.894531-46.285157-35.097657-52.542969 3.515626-7.710938 9.109376-14.289062 16.152344-19l-8.882812-13.3125c-11.117188 7.425781-19.523438 18.265625-23.949219 30.878906-25.445313 2.464844-44.496094 24.4375-43.324219 49.976563 1.171875 25.539062 22.152344 45.675781 47.714844 45.800781zm-7.769531-78.9375c-.070313 1.265625-.230469 2.503906-.230469 3.777344v5.746094c-5.15625 1.339843-9.863281 4.015624-13.65625 7.757812l11.3125 11.3125c5.71875-5.703125 14.96875-5.703125 20.6875 0l11.3125-11.3125c-3.792969-3.742188-8.5-6.417969-13.65625-7.757812v-5.746094c0-1.222656.128906-2.398438.222656-3.632813 15.539063 4.167969 25.554688 19.238281 23.382813 35.179688-2.175781 15.941406-15.859375 27.777343-31.949219 27.632812-16.085938-.144531-29.554688-12.226562-31.441406-28.203125-1.886719-15.976562 8.398437-30.863281 24.007812-34.753906zm0 0"/><path d="m301.65625 271.03125-11.3125-11.3125c-5.71875 5.703125-14.96875 5.703125-20.6875 0l-11.3125 11.3125c11.972656 11.9375 31.339844 11.9375 43.3125 0zm0 0"/><path d="m479.9375 151.664062c-.03125-.910156-.210938-1.808593-.539062-2.65625l-.046876-.152343-47.351562-110.457031v-30.398438c0-4.417969-3.582031-8-8-8h-200c-4.417969 0-8 3.582031-8 8v30.625l-39.527344 110.6875c-.265625.773438-.40625 1.582031-.417968 2.398438 0 .097656-.054688.167968-.054688.265624v104.023438h-120v-51.054688l43.574219-21.746093-7.148438-14.320313-48 24c-2.703125 1.351563-4.410156 4.101563-4.425781 7.121094v56h-32c-4.417969 0-8 3.582031-8 8v208c0 4.417969 3.582031 8 8 8h464c.964844-.015625 1.917969-.207031 2.816406-.566406.273438-.117188.542969-.246094.800782-.394532.570312-.296874 1.109374-.660156 1.597656-1.078124.242187-.21875.464844-.417969.679687-.648438.449219-.515625.832031-1.085938 1.136719-1.695312.136719-.222657.265625-.449219.375-.679688 0-.074219.089844-.136719.113281-.210938.304688-.835937.464844-1.714843.480469-2.605468v-320.121094c0-.121094-.0625-.214844-.0625-.335938zm-335.9375 312.335938h-128v-192h128zm315.863281-320h-71.726562l35.863281-83.6875zm-227.863281-128h184v16h-184zm-40 144h28.6875l-28.6875 28.6875zm4.6875 112-12.6875 12.6875-12.6875-12.6875zm-28 192 15.3125-19.199219 15.351562 19.199219zm39.3125-14.816406-16-20v-45.183594h-16v45.183594l-16 20v-165.871094l16 16v36.6875h16v-36.6875l16-16zm160 14.816406h-144v-36l5.96875-4.480469c13.453125-10.042969 29.78125-15.484375 46.566406-15.519531 24.84375.066406 48.683594-9.808594 66.199219-27.425781l25.265625-25.261719zm0-131.3125-36.574219 36.578125c-14.527343 14.601563-34.292969 22.789063-54.890625 22.734375-18.734375.0625-37.027344 5.714844-52.535156 16.230469v-78.972657c2.574219 5.355469 5.449219 10.5625 8.617188 15.589844l1.285156 2.007813c4.128906 8.136719 12.511718 13.230469 21.632812 13.144531 6.199219.035156 12.179688-2.296875 16.722656-6.519531 3.964844-3.53125 9.945313-3.53125 13.910157 0 4.535156 4.222656 10.515625 6.554687 16.710937 6.519531 9.113282.074219 17.480469-5.019531 21.601563-13.144531l1.296875-2.007813c19.3125-30.0625 27.644531-65.878906 23.582031-101.382812-2.265625-16-16.121094-27.789063-32.28125-27.464844-10.019531-.042969-19.523437 4.429688-25.878906 12.175781l-.488281.617188c4.238281-15.320313 13.40625-28.8125 26.089843-38.394531l-9.601562-12.796876c-17.523438 13.261719-29.472657 32.582032-33.519531 54.183594-.179688-.203125-.351563-.414062-.511719-.632812-6.109375-9.5-16.65625-15.21875-27.953125-15.152344h-3.871094c-16.160156-.335938-30.023438 11.457031-32.28125 27.464844-.496094 4.167968-.796875 8.351562-.925781 12.535156h-16.136719v-44.6875l51.3125-51.3125h124.6875zm-143.046875-87.34375c1.304687-7.949219 8.339844-13.675781 16.390625-13.34375h3.871094c5.789062-.101562 11.222656 2.769531 14.402344 7.609375 4.339843 6.839844 11.722656 11.160156 19.816406 11.589844 8.191406.527343 16.132812-2.933594 21.320312-9.296875l2.972656-3.726563c3.300782-3.957031 8.203126-6.226562 13.351563-6.175781 8.046875-.308594 15.066406 5.410156 16.394531 13.351562 3.636719 31.824219-3.839844 63.929688-21.160156 90.871094l-1.550781 2.402344c-.203125.316406-.386719.648438-.546875.992188-1.335938 2.167968-3.550782 3.648437-6.066406 4.058593-2.515626.414063-5.085938-.285156-7.042969-1.914062-10.140625-9.242188-25.648438-9.242188-35.785157 0-1.964843 1.632812-4.539062 2.335937-7.0625 1.921875-2.519531-.414063-4.738281-1.90625-6.074218-4.082032-.152344-.339843-.328125-.667968-.527344-.984374l-1.550781-2.402344c-17.316407-26.945313-24.789063-59.046875-21.152344-90.871094zm145.773437-101.34375h-175.375l34.289063-96h182.222656zm27.371094 320 25.902344-21.601562 25.902344 21.601562zm65.902344-9.089844-32-26.664062v-132.246094h-16v132.246094l-32 26.664062v-294.910156h32v120h16v-120h32zm0 0"/><path d="m296 64c-17.671875 0-32 14.328125-32 32s14.328125 32 32 32 32-14.328125 32-32-14.328125-32-32-32zm0 48c-8.835938 0-16-7.164062-16-16s7.164062-16 16-16 16 7.164062 16 16-7.164062 16-16 16zm0 0"/></svg>