<?xml version="1.0" encoding="iso-8859-1"?>
<!-- Generator: Adobe Illustrator 19.0.0, SVG Export Plug-In . SVG Version: 6.00 Build 0)  -->
<svg version="1.1" id="Capa_1" xmlns="http://www.w3.org/2000/svg" xmlns:xlink="http://www.w3.org/1999/xlink" x="0px" y="0px"
	 viewBox="0 0 512 512" style="enable-background:new 0 0 512 512;" xml:space="preserve">
<g>
	<g>
		<path d="M209.777,240.417c3.254-1.412,5.219-4.667,5.219-9.641c0-8.72-6.14-10.93-12.281-10.93h-12.588
			c-2.088,0-4.175,0.982-4.175,2.947v39.054c0,1.535,1.596,2.886,4.175,2.886h13.632c6.939,0,12.342-3.5,12.342-13.202v-1.289
			C216.101,244.102,213.522,241.83,209.777,240.417z M195.469,228.198h6.447c2.333,0,3.501,2.149,3.501,4.298
			c0,2.088-1.167,4.237-3.501,4.237h-6.447V228.198z M206.522,250.733c0,3.93-1.843,5.649-4.913,5.649h-6.14v-12.281h6.14
			c3.07,0,4.913,1.474,4.913,5.649V250.733z"/>
	</g>
</g>
<g>
	<g>
		<path d="M250.184,256.382h-16.457v-10.438h9.211c2.026,0,2.886-1.965,2.886-3.623c0-1.965-1.044-3.746-2.886-3.746h-9.211v-10.377
			h16.457c1.843,0,2.886-1.965,2.886-4.237c0-1.965-0.859-4.115-2.886-4.115h-21.86c-2.088,0-4.175,0.982-4.175,2.947v38.993
			c0,1.965,2.087,2.947,4.175,2.947h21.86c2.027,0,2.886-2.149,2.886-4.114C253.07,258.347,252.027,256.382,250.184,256.382z"/>
	</g>
</g>
<g>
	<g>
		<path d="M286.355,256.382h-16.457v-10.438h9.211c2.026,0,2.886-1.965,2.886-3.623c0-1.965-1.044-3.746-2.886-3.746h-9.211v-10.377
			h16.457c1.843,0,2.886-1.965,2.886-4.237c0-1.965-0.859-4.115-2.886-4.115h-21.86c-2.088,0-4.175,0.982-4.175,2.947v38.993
			c0,1.965,2.087,2.947,4.175,2.947h21.86c2.027,0,2.886-2.149,2.886-4.114C289.241,258.347,288.198,256.382,286.355,256.382z"/>
	</g>
</g>
<g>
	<g>
		<path d="M327.315,259.023l-7.491-13.571c4.298-1.658,7.43-5.588,7.43-12.465c0-10.01-6.694-13.141-15.106-13.141h-12.711
			c-1.781,0-2.947,1.351-2.947,2.886v39.054c0,1.965,2.394,2.947,4.789,2.947c2.395,0,4.79-0.982,4.79-2.947v-14.799h4.053
			l8.412,16.334c0.676,1.29,1.842,1.781,3.07,1.781c2.825,0,6.018-2.579,6.018-4.974
			C327.622,259.821,327.561,259.391,327.315,259.023z M312.148,239.619h-6.079v-11.421h6.079c3.438,0,5.527,1.412,5.527,5.711
			C317.675,238.207,315.587,239.619,312.148,239.619z"/>
	</g>
</g>
<g>
	<g>
		<path d="M416.89,72.647c-10.206-6.785-17.908-16.895-21.768-28.517h1.486c8.819,0,15.994-7.175,15.994-15.994V15.994
			C412.602,7.175,405.427,0,396.608,0H115.392c-8.819,0-15.994,7.175-15.994,15.994v12.143c0,8.819,7.175,15.994,15.994,15.994
			h1.485c-3.859,11.622-11.561,21.732-21.767,28.517c-7.614,5.062-12.159,13.541-12.159,22.683v344.095
			c0,7.589,3.141,14.716,8.56,19.815c0.05,0.047,0.102,0.093,0.153,0.14c0.452,0.419,0.919,0.822,1.402,1.212
			c0.118,0.096,0.235,0.193,0.355,0.287c0.547,0.427,1.106,0.841,1.689,1.229c1.95,1.296,3.808,2.713,5.567,4.24
			c7.619,6.613,13.351,15.265,16.425,24.936l0.55,1.728c2.933,9.228,10.369,15.995,19.447,18.208
			c2.095,0.511,4.277,0.779,6.511,0.779h224.779h0.001c8.633,0,16.472-4.018,21.516-10.542c1.049-1.356,1.991-2.807,2.778-4.367
			c0.029-0.058,0.052-0.119,0.081-0.177c0.617-1.243,1.151-2.543,1.582-3.899l0.552-1.732c0.709-2.231,1.56-4.408,2.543-6.519
			c0.655-1.407,1.369-2.784,2.139-4.128c4.235-7.392,10.16-13.774,17.309-18.526c0.583-0.388,1.142-0.802,1.688-1.228
			c0.12-0.094,0.237-0.191,0.356-0.288c0.481-0.389,0.947-0.792,1.398-1.209c0.052-0.048,0.105-0.095,0.157-0.144
			c5.42-5.1,8.56-12.226,8.56-19.815V95.331C429.049,86.189,424.503,77.709,416.89,72.647z M401.754,454.315
			c-0.193,0.164-0.391,0.324-0.582,0.49c-0.699,0.609-1.386,1.231-2.06,1.866c-0.158,0.148-0.309,0.303-0.465,0.453
			c-0.514,0.494-1.024,0.992-1.523,1.501c-0.235,0.24-0.463,0.485-0.694,0.727c-0.412,0.433-0.822,0.868-1.223,1.311
			c-0.243,0.268-0.482,0.54-0.721,0.812c-0.38,0.433-0.756,0.871-1.125,1.313c-0.233,0.279-0.465,0.559-0.694,0.842
			c-0.372,0.459-0.736,0.925-1.096,1.393c-0.208,0.27-0.418,0.539-0.622,0.812c-0.396,0.531-0.782,1.07-1.163,1.613
			c-0.153,0.218-0.312,0.432-0.462,0.651c-0.527,0.767-1.041,1.544-1.538,2.331c-0.06,0.096-0.116,0.194-0.176,0.29
			c-0.432,0.692-0.853,1.391-1.261,2.098c-0.152,0.264-0.296,0.532-0.445,0.797c-0.307,0.548-0.61,1.098-0.902,1.654
			c-0.162,0.308-0.318,0.619-0.475,0.929c-0.267,0.527-0.528,1.056-0.782,1.59c-0.154,0.323-0.305,0.647-0.454,0.973
			c-0.247,0.54-0.484,1.083-0.717,1.63c-0.136,0.318-0.273,0.636-0.404,0.956c-0.243,0.593-0.473,1.192-0.699,1.792
			c-0.104,0.277-0.214,0.551-0.315,0.828c-0.319,0.879-0.624,1.763-0.907,2.655l-0.552,1.732c-0.197,0.618-0.439,1.211-0.724,1.775
			c-1.994,3.95-6.04,6.494-10.582,6.494H143.61c-0.649,0-1.287-0.052-1.911-0.152c-3.432-0.553-6.421-2.576-8.212-5.518
			c-0.488-0.801-0.887-1.671-1.181-2.597l-0.551-1.732c-0.287-0.901-0.595-1.794-0.917-2.681c-0.087-0.239-0.181-0.474-0.271-0.712
			c-0.24-0.638-0.485-1.275-0.743-1.905c-0.123-0.301-0.252-0.598-0.379-0.897c-0.241-0.566-0.487-1.128-0.742-1.687
			c-0.143-0.313-0.289-0.625-0.437-0.936c-0.259-0.545-0.526-1.086-0.799-1.625c-0.153-0.302-0.305-0.604-0.462-0.904
			c-0.296-0.564-0.604-1.122-0.915-1.678c-0.145-0.259-0.286-0.521-0.434-0.778c-0.412-0.715-0.838-1.422-1.275-2.122
			c-0.055-0.089-0.107-0.18-0.163-0.268c-0.497-0.788-1.012-1.566-1.539-2.333c-0.151-0.22-0.31-0.435-0.464-0.654
			c-0.38-0.54-0.764-1.077-1.159-1.606c-0.207-0.277-0.42-0.549-0.631-0.823c-0.357-0.464-0.718-0.925-1.086-1.38
			c-0.231-0.286-0.466-0.569-0.702-0.851c-0.367-0.439-0.739-0.873-1.117-1.303c-0.241-0.275-0.482-0.55-0.728-0.821
			c-0.398-0.44-0.805-0.872-1.214-1.301c-0.234-0.246-0.465-0.494-0.702-0.736c-0.494-0.504-0.999-0.998-1.509-1.487
			c-0.161-0.154-0.316-0.313-0.478-0.466c-0.673-0.635-1.36-1.256-2.058-1.864c-0.192-0.167-0.39-0.327-0.584-0.492
			c-0.426-0.363-0.85-0.729-1.285-1.082H403.04C402.604,453.585,402.18,453.951,401.754,454.315z M98.327,437.857V95.331
			c0-3.981,1.98-7.675,5.296-9.88c13.302-8.843,23.293-22.097,28.13-37.317l0.552-1.732c0.254-0.799,0.597-1.554,1.008-2.272h23.261
			c4.246,0,7.688-3.442,7.688-7.688c0-4.246-3.441-7.688-7.688-7.688h-41.182c-0.341,0-0.619-0.277-0.619-0.618V15.994
			c0-0.341,0.277-0.618,0.619-0.618h281.216c0.341,0,0.619,0.277,0.619,0.618v12.143c0,0.341-0.277,0.618-0.619,0.618H192.344
			c-4.246,0-7.688,3.442-7.688,7.688c0,4.246,3.441,7.688,7.688,7.688h186.344c0.41,0.717,0.753,1.472,1.006,2.27l0.551,1.731
			c4.84,15.223,14.831,28.477,28.132,37.319c3.316,2.205,5.296,5.898,5.296,9.879v342.527H98.327z"/>
	</g>
</g>
<g>
	<g>
		<g>
			<path d="M356.626,211.556c-0.145,0-0.289,0-0.425,0C356.338,211.556,356.482,211.556,356.626,211.556z"/>
			<path d="M357.742,211.555c-0.185,0-0.645,0.001-1.116,0.001C357.09,211.556,357.552,211.555,357.742,211.555z"/>
			<path d="M355.511,211.557c-0.052,0-0.092,0-0.093,0C355.417,211.557,355.453,211.557,355.511,211.557z"/>
			<path d="M356.201,211.556c-0.301,0-0.559,0-0.69,0.001C355.639,211.557,355.894,211.557,356.201,211.556z"/>
			<path d="M361.601,196.466c-6.84-27.502-19.968-52.201-37.326-70.041C304.643,106.248,281.034,95.583,256,95.583
				s-48.643,10.665-68.276,30.842c-17.358,17.84-30.486,42.538-37.326,70.041c-11.918,1.82-21.077,12.139-21.077,24.558v42.509
				c0,12.418,9.159,22.738,21.077,24.558c6.84,27.502,19.968,52.201,37.326,70.041c19.633,20.177,43.241,30.842,68.276,30.842
				c25.035,0,48.643-10.665,68.276-30.842c17.358-17.84,30.486-42.538,37.326-70.041c11.918-1.82,21.077-12.139,21.077-24.558
				v-42.509C382.678,208.605,373.519,198.286,361.601,196.466z M256,373.597c-39.842,0-75.732-34.586-89.643-85.222h179.286
				C331.732,339.011,295.842,373.597,256,373.597z M357.836,272.999h-203.67c-5.22,0-9.467-4.247-9.467-9.467v-42.509
				c0-5.22,4.247-9.468,9.467-9.468h139.822c4.246,0,7.688-3.442,7.688-7.688c0-4.246-3.441-7.688-7.688-7.688H166.371
				c13.912-50.631,49.79-85.222,89.629-85.222s75.717,34.591,89.629,85.222h-15.827c-4.246,0-7.688,3.442-7.688,7.688
				c0,4.246,3.441,7.688,7.688,7.688h28.007c-0.015,0-0.039,0-0.067,0c0.052,0,0.092,0,0.093,0c5.22,0,9.467,4.247,9.467,9.468
				v42.509h0.001C367.303,268.752,363.056,272.999,357.836,272.999z"/>
		</g>
	</g>
</g>
<g>
</g>
<g>
</g>
<g>
</g>
<g>
</g>
<g>
</g>
<g>
</g>
<g>
</g>
<g>
</g>
<g>
</g>
<g>
</g>
<g>
</g>
<g>
</g>
<g>
</g>
<g>
</g>
<g>
</g>
</svg>
