<svg id="Layer_1" enable-background="new 0 0 512 512" height="512" viewBox="0 0 512 512" width="512" xmlns="http://www.w3.org/2000/svg"><g id="XMLID_2001_"><g id="XMLID_142_"><path id="XMLID_150_" d="m331.43 197.027c-14.123-14.122-20.868-34.357-18.044-54.129 2.52-17.633.487-35.748-5.876-52.386l-12.009-31.398c3.475-1.567 5.899-5.054 5.899-9.114v-24c0-14.336-11.663-26-26-26h-38.783c-14.337 0-26 11.664-26 26v24c0 4.054 2.417 7.537 5.884 9.107l-12.011 31.405c-6.363 16.638-8.396 34.753-5.876 52.386 2.824 19.772-3.921 40.007-18.044 54.129-15.826 15.827-24.542 36.869-24.542 59.25v205.723c0 27.57 22.43 50 50 50h99.943c27.57 0 50-22.43 50-50v-205.723c.001-22.381-8.715-43.423-24.541-59.25zm-113.792-65.53c-.462-11.504 1.408-23.055 5.532-33.84l14.402-37.657h36.855l14.402 37.657c4.126 10.791 5.996 22.348 5.531 33.858l-38.353 38.353zm12.979-105.497c0-3.309 2.691-6 6-6h38.783c3.309 0 6 2.691 6 6v14h-.091-50.619-.073zm70.383 311.139h34.438c.341 2.992.534 6.028.534 9.11v25.78c0 3.082-.193 6.118-.534 9.11h-158.875c-.341-2.992-.534-6.028-.534-9.11v-25.78c0-3.082.193-6.118.534-9.11h34.437c5.522 0 10-4.477 10-10s-4.478-10-10-10h-29.463c11.667-29.739 40.635-50.861 74.463-50.861s62.795 21.122 74.463 50.861h-29.463c-5.522 0-10 4.477-10 10s4.478 10 10 10zm29.463 64c-11.668 29.739-40.636 50.861-74.463 50.861s-62.795-21.122-74.463-50.861zm5.509 60.861c0 16.542-13.458 30-30 30h-99.943c-16.542 0-30-13.458-30-30v-30.047c18.254 24.3 47.307 40.047 79.971 40.047s61.717-15.747 79.972-40.047zm-79.972-215.723c-32.664 0-61.717 15.747-79.972 40.047v-30.047c0-17.04 6.636-33.059 18.685-45.108 13.586-13.586 21.966-31.481 24.025-50.288l30.2 30.2c1.953 1.953 4.512 2.929 7.071 2.929s5.118-.976 7.071-2.929l30.184-30.184c2.062 18.801 10.441 36.689 24.023 50.272 12.049 12.049 18.685 28.068 18.685 45.108v30.047c-18.255-24.299-47.308-40.047-79.972-40.047z"/><path id="XMLID_165_" d="m256 317.14c-2.63 0-5.21 1.07-7.07 2.93s-2.93 4.44-2.93 7.07 1.069 5.21 2.93 7.07 4.44 2.93 7.07 2.93 5.21-1.07 7.069-2.93c1.86-1.86 2.931-4.44 2.931-7.07s-1.07-5.21-2.931-7.07c-1.859-1.86-4.439-2.93-7.069-2.93z"/></g></g></svg>