<svg id="Layer_5" enable-background="new 0 0 64 64" height="512" viewBox="0 0 64 64" width="512" xmlns="http://www.w3.org/2000/svg"><g><path d="m51 42c0-3.86-3.141-7-7-7s-7 3.14-7 7 3.141 7 7 7 7-3.14 7-7zm-12 0c0-2.757 2.243-5 5-5s5 2.243 5 5-2.243 5-5 5-5-2.243-5-5z"/><path d="m60.903 31.489-8.013-8.013-3.644-12.755c1.032-.475 1.754-1.513 1.754-2.721 0-.771-.301-1.468-.78-2 .479-.532.78-1.229.78-2 0-1.654-1.346-3-3-3h-8c-1.654 0-3 1.346-3 3 0 .771.301 1.468.78 2-.479.532-.78 1.229-.78 2 0 1.208.722 2.246 1.754 2.721l-3.644 12.755-6.973 6.973-3.437-9.449h-19.4l-3.472 9.547c-.55 1.511-.828 3.092-.828 4.7 0 6.641 4.732 12.197 11 13.476v6.444c-3.537.4-7 1.58-7 3.833 0 2.748 5.184 4 10 4s10-1.252 10-4c0-2.254-3.463-3.433-7-3.833v-6.441c2.967-.596 5.631-2.153 7.62-4.451l2.778 14.661c.449 2.355 2.514 4.064 4.912 4.064h21.38c2.397 0 4.463-1.709 4.911-4.064l3.381-17.749.018-1.187zm-35.21 5.616c-1.333.563-3.409.895-5.693.895-1.642 0-3.73-.751-6.002-1.719 1.826-1.191 4.03-2.281 6.002-2.281 2.59 0 4.953.441 6.188 1.127zm3.088-4.105h30.438l1.658 6.63-16.235 13.37h-1.283l-16.236-13.37zm11.219-26h8c.552 0 1 .449 1 1s-.448 1-1 1h-8c-.552 0-1-.449-1-1s.448-1 1-1zm7.245 4 1.143 4h-8.776l1.143-4zm1.715 6 1.714 6h-13.348l1.714-6zm-8.96-14h8c.552 0 1 .449 1 1s-.448 1-1 1h-8c-.552 0-1-.449-1-1s.448-1 1-1zm-3.585 22h15.171l6 6h-27.171zm-29.715-2h16.6l2.992 8.23c.195.535.345 1.087.459 1.641l-.068.271c-2.286-1.044-5.575-1.142-6.683-1.142-2.867 0-5.936 1.739-8.158 3.336-.034-.015-.067-.029-.1-.044-2.785-1.24-5.652-2.514-8.353-3.04.091-.344.195-.685.318-1.021zm16.3 36c0 .514-2.751 2-8 2s-8-1.486-8-2c0-.368 1.563-1.389 5-1.813v1.813h6v-1.813c3.437.424 5 1.445 5 1.813zm-7-2h-2v-8.038c.251.014.499.038.753.038h.494c.253 0 .503-.011.753-.024zm-.753-10h-.494c-6.481 0-11.753-5.272-11.753-11.753 0-.343.015-.685.044-1.025 2.468.488 5.216 1.709 7.884 2.897 3.33 1.481 6.473 2.881 9.072 2.881 1.913 0 3.679-.215 5.12-.6l-.089.357-.031 1.243.114.604c-2.178 3.378-5.833 5.396-9.867 5.396zm42.39 11.562c-.27 1.413-1.508 2.438-2.947 2.438h-21.38c-1.438 0-2.677-1.025-2.946-2.438l-3.089-16.217 15.367 12.655h2.717l15.367-12.655z"/></g></svg>