<svg height="512pt" viewBox="-92 0 512 512.128" width="512pt" xmlns="http://www.w3.org/2000/svg"><path d="m8.0625 496.128906c-4.421875 0-8-3.578125-8-8v-176.089844c0-4.421874 3.578125-8 8-8 4.425781 0 8 3.578126 8 8v176.089844c0 4.421875-3.574219 8-8 8zm0 0"/><path d="m8.0625 320.039062c-4.421875 0-8-3.574218-8-8 0-42.949218 18.480469-84.414062 34.785156-121 11.390625-25.550781 21.222656-47.625 21.222656-63.007812 0-4.421875 3.578126-8 8-8 4.425782 0 8 3.578125 8 8 0 18.785156-10.476562 42.296875-22.605468 69.519531-15.65625 35.128907-33.402344 74.9375-33.402344 114.488281 0 4.425782-3.574219 8-8 8zm0 0"/><path d="m168.0625 496.128906c-4.421875 0-8-3.578125-8-8v-176.089844c0-4.421874 3.578125-8 8-8 4.425781 0 8 3.578126 8 8v176.089844c0 4.421875-3.574219 8-8 8zm0 0"/><path d="m168.0625 320.039062c-4.421875 0-8-3.574218-8-8 0-39.542968-17.742188-79.359374-33.398438-114.488281-12.136718-27.222656-22.609374-50.742187-22.609374-69.519531 0-4.421875 3.578124-8 8-8 4.425781 0 8 3.578125 8 8 0 15.382812 9.832031 37.457031 21.226562 63.007812 16.304688 36.585938 34.78125 78.050782 34.78125 121 0 4.425782-3.574219 8-8 8zm0 0"/><path d="m24.0625 512.128906c-13.230469 0-24-10.769531-24-24 0-4.425781 3.578125-8 8-8 4.425781 0 8 3.574219 8 8 0 4.414063 3.585938 8 8 8 4.425781 0 8 3.574219 8 8 0 4.421875-3.574219 8-8 8zm0 0"/><path d="m152.0625 512c-4.421875 0-8-3.574219-8-8s3.578125-8 8-8c4.417969 0 8-3.585938 8-8 0-4.425781 3.578125-8 8-8 4.425781 0 8 3.574219 8 8 0 13.230469-10.765625 24-24 24zm0 0"/><path d="m152.0625 512h-128c-4.421875 0-8-3.574219-8-8s3.578125-8 8-8h128c4.425781 0 8 3.574219 8 8s-3.574219 8-8 8zm0 0"/><path d="m64.070312 136.03125c-4.421874 0-8-3.574219-8-8v-56.007812c0-4.421876 3.578126-8 8-8 4.425782 0 8 3.578124 8 8v56.007812c0 4.425781-3.574218 8-8 8zm0 0"/><path d="m108.070312 16h-40.023437c-4.421875 0-8-3.574219-8-8s3.578125-8 8-8h40.023437c4.425782 0 8 3.574219 8 8s-3.574218 8-8 8zm0 0"/><path d="m112.054688 136.03125c-4.421876 0-8-3.574219-8-8v-56.007812c0-4.421876 3.578124-8 8-8 4.425781 0 8 3.578124 8 8v56.007812c0 4.425781-3.574219 8-8 8zm0 0"/><path d="m112.054688 80.023438h-47.992188c-4.421875 0-8-3.574219-8-8 0-4.421876 3.578125-8 8-8h47.992188c4.425781 0 8 3.578124 8 8 0 4.425781-3.574219 8-8 8zm0 0"/><path d="m60.054688 24.023438c-4.421876 0-8-3.582032-8-8.007813 0-8.824219 7.167968-15.9921875 15.992187-15.9921875 4.425781 0 8 3.5781245 8 8.0000005 0 4.425781-3.574219 8-8 8 0 4.425781-3.574219 8-7.992187 8zm0 0"/><path d="m116.0625 24.015625c-4.421875 0-8-3.574219-8-8-4.421875-.007813-8-3.589844-7.992188-8.007813.007813-4.414062 3.585938-7.9843745 8-7.9843745h.019532c8.8125.015625 15.972656 7.1835935 15.972656 15.9921875 0 4.425781-3.574219 8-8 8zm0 0"/><path d="m60.054688 72c-4.421876 0-8-3.574219-8-8v-47.984375c0-4.421875 3.578124-8 8-8 4.425781 0 8 3.578125 8 8v47.984375c0 4.425781-3.574219 8-8 8zm0 0"/><path d="m116.054688 72c-4.421876 0-8-3.574219-8-8v-47.984375c0-4.421875 3.578124-8 8-8 4.425781 0 8 3.578125 8 8v47.984375c0 4.425781-3.574219 8-8 8zm0 0"/><path d="m64.078125 80.023438c-2.933594 0-5.757813-1.617188-7.167969-4.421876l-4.015625-8.027343c-1.972656-3.941407-.375-8.757813 3.578125-10.734375 3.941406-1.96875 8.75-.375 10.734375 3.574218l4.015625 8.027344c1.976563 3.941406.378906 8.757813-3.574218 10.734375-1.144532.578125-2.367188.847657-3.570313.847657zm0 0"/><path d="m112.046875 80.023438c-1.191406 0-2.414063-.261719-3.558594-.839844-3.953125-1.96875-5.558593-6.777344-3.585937-10.726563l4-8.023437c1.976562-3.945313 6.761718-5.578125 10.730468-3.585938 3.953126 1.96875 5.558594 6.777344 3.582032 10.726563l-4 8.027343c-1.398438 2.796876-4.230469 4.421876-7.167969 4.421876zm0 0"/><path d="m144.054688 472h-112c-4.421876 0-8-3.574219-8-8v-112.015625c0-4.425781 3.578124-8 8-8 4.425781 0 8 3.574219 8 8v104.015625h96v-104.015625c0-4.425781 3.578124-8 8-8 4.425781 0 8 3.574219 8 8v112.015625c0 4.425781-3.574219 8-8 8zm0 0"/><path d="m88.054688 383.992188c-17.648438 0-32-14.351563-32-32 0-17.648438 14.351562-32 32-32 17.648437 0 32 14.351562 32 32 0 17.648437-14.351563 32-32 32zm0-48c-8.824219 0-16 7.175781-16 16 0 8.824218 7.175781 16 16 16 8.824218 0 16-7.175782 16-16 0-8.824219-7.175782-16-16-16zm0 0"/><path d="m64.054688 359.984375h-32c-4.421876 0-8-3.578125-8-8 0-4.425781 3.578124-8 8-8h32c4.425781 0 8 3.574219 8 8 0 4.421875-3.574219 8-8 8zm0 0"/><path d="m144.054688 359.992188h-32c-4.421876 0-8-3.578126-8-8 0-4.425782 3.578124-8 8-8h32c4.425781 0 8 3.574218 8 8 0 4.421874-3.574219 8-8 8zm0 0"/><path d="m112.054688 415.992188h-47.984376c-4.421874 0-8-3.578126-8-8 0-4.425782 3.578126-8 8-8h47.984376c4.425781 0 8 3.574218 8 8 0 4.421874-3.574219 8-8 8zm0 0"/><path d="m96.054688 440h-15.984376c-4.421874 0-8-3.574219-8-8s3.578126-8 8-8h15.984376c4.425781 0 8 3.574219 8 8s-3.574219 8-8 8zm0 0"/><path d="m129.40625 192h-82.6875c-4.421875 0-8-3.574219-8-8s3.578125-8 8-8h82.6875c4.425781 0 8 3.574219 8 8s-3.574219 8-8 8zm0 0"/><path d="m140.054688 216.039062h-103.984376c-4.421874 0-8-3.574218-8-8 0-4.421874 3.578126-8 8-8h103.984376c4.425781 0 8 3.578126 8 8 0 4.425782-3.574219 8-8 8zm0 0"/><path d="m224.070312 336.03125c-4.421874 0-8-3.574219-8-8v-144.03125c0-4.425781 3.578126-8 8-8 4.425782 0 8 3.574219 8 8v144.03125c0 4.425781-3.574218 8-8 8zm0 0"/><path d="m320.097656 336.03125c-4.425781 0-8-3.574219-8-8v-144.03125c0-4.425781 3.574219-8 8-8 4.421875 0 8 3.574219 8 8v144.03125c0 4.425781-3.578125 8-8 8zm0 0"/><path d="m272.089844 384.03125c-30.875 0-56-25.128906-56-56 0-4.421875 3.574218-8 8-8 4.421875 0 8 3.578125 8 8 0 22.058594 17.941406 40 40 40 22.054687 0 39.988281-17.941406 39.988281-40 0-4.421875 3.578125-8 8-8 4.425781 0 8 3.578125 8 8 0 30.871094-25.117187 56-55.988281 56zm0 0"/><path d="m320.097656 192h-96.027344c-4.421874 0-8-3.574219-8-8s3.578126-8 8-8h96.027344c4.421875 0 8 3.574219 8 8s-3.578125 8-8 8zm0 0"/><path d="m272.089844 512c-4.425782 0-8-3.574219-8-8v-127.96875c0-4.421875 3.574218-8 8-8 4.421875 0 8 3.578125 8 8v127.96875c0 4.425781-3.578125 8-8 8zm0 0"/><path d="m320.097656 512h-96.035156c-4.421875 0-8-3.574219-8-8s3.578125-8 8-8h96.035156c4.421875 0 8 3.574219 8 8s-3.578125 8-8 8zm0 0"/><path d="m320.097656 256.03125h-96.027344c-4.421874 0-8-3.574219-8-8 0-4.421875 3.578126-8 8-8h96.027344c4.421875 0 8 3.578125 8 8 0 4.425781-3.578125 8-8 8zm0 0"/><path d="m288.335938 352.046875c-4.425782 0-8.039063-3.574219-8.039063-8 0-4.421875 3.535156-8 7.949219-8h.089844c4.417968 0 8 3.578125 8 8 0 4.425781-3.582032 8-8 8zm0 0"/><path d="m272.335938 328.054688c-4.425782 0-8.039063-3.574219-8.039063-8 0-4.421876 3.535156-8 7.949219-8h.089844c4.417968 0 8 3.578124 8 8 0 4.425781-3.582032 8-8 8zm0 0"/><path d="m296.320312 312.0625c-4.425781 0-8.039062-3.574219-8.039062-8 0-4.421875 3.535156-8 7.949219-8h.089843c4.414063 0 8 3.578125 8 8 0 4.425781-3.585937 8-8 8zm0 0"/></svg>