<?xml version="1.0" encoding="iso-8859-1"?>
<!-- Generator: Adobe Illustrator 19.0.0, SVG Export Plug-In . SVG Version: 6.00 Build 0)  -->
<svg version="1.1" id="Capa_1" xmlns="http://www.w3.org/2000/svg" xmlns:xlink="http://www.w3.org/1999/xlink" x="0px" y="0px"
	 viewBox="0 0 470 470" style="enable-background:new 0 0 470 470;" xml:space="preserve">
<g>
	<path d="M154.299,327.132c-3.31-7.992-9.535-14.217-17.527-17.527c-3.958-1.64-8.124-2.471-12.381-2.471
		c-2.802,0-5.58,0.371-8.264,1.081v-12.844c0-4.142-3.358-7.5-7.5-7.5s-7.5,3.358-7.5,7.5v12.844
		c-2.684-0.71-5.462-1.081-8.264-1.081c-4.257,0-8.422,0.832-12.381,2.471c-7.992,3.311-14.217,9.535-17.527,17.527
		c-3.311,7.992-3.311,16.795,0,24.787l15.272,36.87c3.441,8.307,11.474,13.674,20.465,13.674c2.913,0,5.762-0.568,8.469-1.689
		c0.499-0.207,0.987-0.43,1.466-0.67c0.479,0.24,0.967,0.463,1.466,0.67c2.706,1.121,5.555,1.689,8.469,1.689
		c8.99,0,17.023-5.368,20.464-13.674l15.272-36.87C157.61,343.927,157.61,335.124,154.299,327.132z M118.562,387.463
		c-0.933,0-1.851-0.184-2.729-0.548c-0.788-0.326-1.5-0.78-2.116-1.35c-1.437-1.328-3.264-1.992-5.09-1.992s-3.653,0.664-5.09,1.992
		c-0.616,0.57-1.328,1.024-2.116,1.35c-0.877,0.364-1.795,0.548-2.729,0.548c-2.903,0-5.496-1.733-6.607-4.415l-15.271-36.87
		c-1.777-4.291-1.777-9.016,0-13.306c1.777-4.291,5.119-7.632,9.409-9.409c2.13-0.882,4.364-1.33,6.641-1.33
		c4,0,7.914,1.396,11.022,3.933c2.76,2.252,6.723,2.252,9.482,0c3.108-2.536,7.023-3.933,11.022-3.933
		c2.277,0,4.511,0.447,6.641,1.33c4.291,1.777,7.632,5.119,9.409,9.409c1.777,4.29,1.777,9.016,0,13.306l-15.272,36.87
		C124.058,385.73,121.465,387.463,118.562,387.463z"/>
	<path d="M194.576,262.828c-5.571-26.751-13.407-48.012-21.107-68.875c-6.485-17.572-12.805-34.711-17.795-54.697
		c-0.068-0.407-0.166-0.803-0.296-1.185c-5.651-23.005-9.527-49.831-9.871-85.419c3.602-2.427,5.975-6.543,5.975-11.203V13.5
		c0-7.444-6.056-13.5-13.5-13.5H79.274c-7.444,0-13.5,6.056-13.5,13.5v27.947c0,4.66,2.374,8.776,5.975,11.203
		c-0.344,35.567-4.216,62.381-9.861,85.377c-0.143,0.412-0.25,0.84-0.32,1.281c-4.988,19.964-11.302,37.088-17.781,54.644
		c-7.7,20.864-15.536,42.124-21.107,68.875c-0.073,0.274-0.131,0.555-0.173,0.841c-4.616,22.454-7.634,48.776-7.634,81.981v91.448
		c0,18.143,14.76,32.902,32.902,32.902H169.48c18.143,0,32.902-14.76,32.902-32.902V345.65c0-33.205-3.018-59.527-7.634-81.981
		C194.706,263.382,194.649,263.102,194.576,262.828z M169.48,455H47.775c-9.872,0-17.902-8.031-17.902-17.902v-4.03h157.51v4.03
		C187.383,446.969,179.352,455,169.48,455z M187.383,418.067H29.873V345.65c0-29.483,2.371-53.065,6.174-73.384h145.161
		c3.803,20.319,6.174,43.901,6.174,73.384V418.067z M107.982,39.947H80.774V15h55.708v25.097c-3.423,0.695-6,3.722-6,7.35
		c0,34.974,3.346,62.317,8.384,85.541H78.39c4.672-21.537,7.89-46.615,8.332-78.041h21.26c4.142,0,7.5-3.358,7.5-7.5
		S112.124,39.947,107.982,39.947z M74.778,147.988h67.703c4.992,18.829,10.994,35.112,16.915,51.158
		c6.852,18.566,13.519,36.65,18.629,58.121H39.231c5.109-21.47,11.777-39.554,18.629-58.121
		C63.782,183.098,69.785,166.818,74.778,147.988z"/>
	<path d="M436.587,288.858c-13.683-10.149-32.535-11.221-51.209-3.447V271.83c2.911-1.031,5-3.8,5-7.064c0-4.142-3.358-7.5-7.5-7.5
		h-158c-4.142,0-7.5,3.358-7.5,7.5c0,3.264,2.089,6.033,5,7.064v153.606c-2.911,1.031-5,3.8-5,7.064s2.089,6.033,5,7.064v15.872
		c-2.911,1.031-5,3.8-5,7.064c0,4.142,3.358,7.5,7.5,7.5h158c4.142,0,7.5-3.358,7.5-7.5c0-3.264-2.089-6.033-5-7.064v-15.872
		c2.911-1.031,5-3.8,5-7.064s-2.089-6.033-5-7.064v-9.351c18.845-3.479,37.61-15.952,51.308-34.421
		c11.582-15.615,18.127-33.631,18.43-50.729C455.435,312.901,448.855,297.957,436.587,288.858z M370.378,425h-133V272.266h133V425z
		 M237.378,440h133v15h-133V440z M424.638,372.728c-10.607,14.301-25.094,24.504-39.26,28.013v-98.729
		c15.701-8.502,31.629-9.001,42.273-1.106C445.529,314.166,444.177,346.385,424.638,372.728z"/>
	<path d="M259.878,322.266c4.142,0,7.5-3.358,7.5-7.5v-20c0-4.142-3.358-7.5-7.5-7.5c-4.142,0-7.5,3.358-7.5,7.5v20
		C252.378,318.908,255.736,322.266,259.878,322.266z"/>
	<path d="M259.878,410c4.142,0,7.5-3.358,7.5-7.5v-57.734c0-4.142-3.358-7.5-7.5-7.5c-4.142,0-7.5,3.358-7.5,7.5V402.5
		C252.378,406.642,255.736,410,259.878,410z"/>
</g>
<g>
</g>
<g>
</g>
<g>
</g>
<g>
</g>
<g>
</g>
<g>
</g>
<g>
</g>
<g>
</g>
<g>
</g>
<g>
</g>
<g>
</g>
<g>
</g>
<g>
</g>
<g>
</g>
<g>
</g>
</svg>
