<svg id="icons" enable-background="new 0 0 64 64" height="512" viewBox="0 0 64 64" width="512" xmlns="http://www.w3.org/2000/svg"><path d="m0 33.5c0 1.249.922 2.276 2.119 2.462l1.891 14.17c.007.052.032.094.047.143.016.054.027.106.051.156.032.066.075.121.119.178.032.04.059.083.096.118.058.054.125.092.193.13.039.022.072.052.114.068.115.047.239.075.37.075h.001 20.999.001c.13 0 .255-.028.37-.075.042-.017.075-.046.114-.068.068-.039.136-.076.193-.13.038-.035.063-.078.096-.119.044-.056.087-.11.119-.177.024-.05.035-.103.051-.157.015-.048.04-.09.047-.142l1.891-14.171c1.196-.186 2.117-1.213 2.117-2.461 0-1.379-1.121-2.5-2.5-2.5-.001 0-.001 0-.001 0-.001 0-.001 0-.002 0h-1.354l1.739-13.039c1.196-.186 2.117-1.213 2.117-2.461 0-1.379-1.121-2.5-2.5-2.5-.001 0-.001 0-.001 0-.001 0-.001 0-.002 0h-25.995c-1.379 0-2.5 1.121-2.5 2.5 0 1.249.922 2.276 2.119 2.462l1.739 13.038h-1.358c-1.379 0-2.5 1.121-2.5 2.5zm5.001-.5h20.999 2.496.002.001c.275 0 .5.225.5.5s-.225.5-.5.5c-.001 0-.001 0-.001 0-.001 0-.001 0-.002 0h-25.996c-.275 0-.5-.225-.5-.5s.225-.5.5-.5zm23.495-18h.002.001c.275 0 .5.225.5.5s-.225.5-.5.5c-.001 0-.001 0-.001 0-.001 0-.001 0-.002 0h-25.996c-.275 0-.5-.225-.5-.5s.225-.5.5-.5zm-1.638 3-1.733 13h-19.249l-1.733-13zm-1.733 31h-19.249l-1.733-13h22.716z"/><path d="m48.5 19.995c-8.547 0-15.5 6.953-15.5 15.5s6.953 15.5 15.5 15.5 15.5-6.953 15.5-15.5-6.953-15.5-15.5-15.5zm0 29c-7.444 0-13.5-6.056-13.5-13.5s6.056-13.5 13.5-13.5 13.5 6.056 13.5 13.5-6.056 13.5-13.5 13.5z"/><path d="m48.5 23.995c-6.341 0-11.5 5.159-11.5 11.5s5.159 11.5 11.5 11.5 11.5-5.159 11.5-11.5-5.159-11.5-11.5-11.5zm0 21c-5.238 0-9.5-4.262-9.5-9.5s4.262-9.5 9.5-9.5 9.5 4.262 9.5 9.5-4.262 9.5-9.5 9.5z"/><path d="m48.543 28.998c-.006 0-.011 0-.017-.001-.009 0-.018-.001-.026-.001-3.03 0-5.495 2.463-5.499 5.492 0 .003-.001.005-.001.007v1.994c0 .002-.001.003-.001.005 0 3.032 2.468 5.5 5.5 5.5s5.5-2.468 5.5-5.5v-.001-.001-1.997c0-3.017-2.444-5.474-5.456-5.497zm-3.544 7.498c0-.001.001-.003.001-.004v-1.992c0-.002.001-.003.001-.005 0-1.206.613-2.272 1.545-2.901-.273 1.238-.105 2.802 1.149 4.496 1.399 1.89.793 3.267.378 3.861-1.726-.213-3.073-1.672-3.074-3.455zm5.454 2.9c.272-1.238.104-2.802-1.15-4.496-1.396-1.886-.795-3.262-.376-3.861 1.727.214 3.072 1.673 3.072 3.456v1.997.001.001c0 1.207-.614 2.273-1.546 2.902z"/></svg>