<svg id="Layer_3" enable-background="new 0 0 64 64" height="512" viewBox="0 0 64 64" width="512" xmlns="http://www.w3.org/2000/svg"><g><path d="m47 13.333c0-2.364-.781-4.708-2.2-6.6l-.564-.753c.469-.529.764-1.218.764-1.98 0-1.654-1.346-3-3-3h-20c-1.654 0-3 1.346-3 3 0 .762.295 1.451.765 1.981l-.565.752c-1.419 1.892-2.2 4.236-2.2 6.6v41.667h.004c0 .153.03.306.101.447l1.171 2.342c.385.771.995 1.368 1.724 1.749v.462c0 1.654 1.346 3 3 3h18c1.654 0 3-1.346 3-3v-.462c.729-.381 1.339-.978 1.724-1.749l1.171-2.342c.071-.141.101-.294.101-.447h.004zm-28 .071c5.489 3.653 11.841 5.596 18.5 5.596 2.535 0 5.049-.301 7.5-.861v35.861h-26zm20.5 1.596c1.846 0 3.689-.159 5.5-.458v1.544c-2.444.596-4.961.914-7.5.914-6.603 0-12.887-2.025-18.232-5.832.202-.81.52-1.587.935-2.312 5.666 4.008 12.306 6.144 19.297 6.144zm5.459-2.482c-1.794.314-3.625.482-5.459.482-6.58 0-12.83-2.012-18.159-5.788l.159-.212h.5 20 .5l.7.934c.997 1.329 1.606 2.933 1.759 4.584zm-22.959-9.518h20c.552 0 1 .449 1 1s-.448 1-1 1h-20c-.552 0-1-.449-1-1s.448-1 1-1zm19 58h-18c-.552 0-1-.449-1-1h20c0 .551-.448 1-1 1zm2.935-4.105c-.341.682-1.027 1.105-1.789 1.105h-20.292c-.763 0-1.448-.423-1.789-1.105l-.447-.895h24.764z"/><path d="m35 45h-2v2h2v3h-6v-3h2v-2h-2c-1.103 0-2 .897-2 2v3c0 1.103.897 2 2 2h6c1.103 0 2-.897 2-2v-3c0-1.103-.897-2-2-2z"/><path d="m34 36h-4c-1.654 0-3 1.346-3 3v2c0 1.654 1.346 3 3 3h4c1.654 0 3-1.346 3-3v-2c0-1.654-1.346-3-3-3zm1 5c0 .551-.448 1-1 1h-4c-.552 0-1-.449-1-1v-2c0-.551.448-1 1-1h4c.552 0 1 .449 1 1z"/><path d="m35 33h-8v2h9c.553 0 1-.448 1-1v-5h-2z"/><path d="m27.553 22.105c-.339.17-.553.516-.553.895v2c0 .379.214.725.553.895 2.755 1.377 5.839 2.105 8.919 2.105h.528v-2h-.528c-.827 0-1.652-.079-2.472-.194v-3.612c.82-.115 1.644-.194 2.472-.194h.528v-2h-.528c-3.08 0-6.164.728-8.919 2.105zm4.447 3.302c-1.027-.264-2.036-.596-3-1.037v-.74c.964-.441 1.973-.773 3-1.037z"/></g></svg>