<svg id="Layer_5" enable-background="new 0 0 64 64" height="512" viewBox="0 0 64 64" width="512" xmlns="http://www.w3.org/2000/svg"><g><path d="m46.236 25 .764-.382v-5.407c0-2.346-1.165-4.523-3.117-5.824l-2.883-1.922v-2.649c1.161-.414 2-1.514 2-2.816v-2c0-1.654-1.346-3-3-3h-16c-1.654 0-3 1.346-3 3v2c0 1.302.839 2.402 2 2.816v2.649l-2.883 1.922c-1.952 1.301-3.117 3.478-3.117 5.824v5.407l.764.382c.762.381 1.236 1.147 1.236 2s-.474 1.619-1.236 2l-.764.382v2.618c0 1.641.806 3.088 2.031 4-1.225.912-2.031 2.359-2.031 4v18c0 2.757 2.243 5 5 5h20c2.757 0 5-2.243 5-5v-18c0-1.641-.806-3.088-2.031-4 1.225-.912 2.031-2.359 2.031-4v-2.618l-.764-.382c-.762-.381-1.236-1.147-1.236-2s.474-1.619 1.236-2zm-7.236-16v2h-14v-2zm-16-5c0-.551.448-1 1-1h16c.552 0 1 .449 1 1v2c0 .551-.448 1-1 1h-16c-.552 0-1-.449-1-1zm15.471 21-5.836 13.34c-.313.714-1.396.851-1.876.237-.21-.27-.283-.614-.201-.945l2.659-10.632h-5.894l3.333-10h5.063l-2 8zm5.529 18c-1.654 0-3 1.346-3 3v6c0 1.654 1.346 3 3 3h1v2h-26v-2h1c1.654 0 3-1.346 3-3v-6c0-1.654-1.346-3-3-3h-1v-2h26v2zm1 2v8h-1c-.552 0-1-.448-1-1v-6c0-.552.448-1 1-1zm-26 8v-8h1c.552 0 1 .448 1 1v6c0 .552-.448 1-1 1zm9.744-14h-9.56c.414-1.161 1.514-2 2.816-2h6.654l-.037.147c-.156.628-.098 1.268.127 1.853zm13.256 22h-20c-1.302 0-2.402-.839-2.816-2h25.631c-.413 1.161-1.513 2-2.815 2zm2.816-22h-10.287l.875-2h6.596c1.302 0 2.402.839 2.816 2zm.184-15.598c-1.243.769-2 2.115-2 3.598s.757 2.829 2 3.598v1.402c0 1.654-1.346 3-3 3h-5.721l5.25-12h-5.248l2-8h-9.066l-4.667 14h6.106l-1.5 6h-7.154c-1.654 0-3-1.346-3-3v-1.402c1.243-.769 2-2.115 2-3.598s-.757-2.829-2-3.598v-4.191c0-1.675.832-3.23 2.227-4.16l3.076-2.051h15.395l3.076 2.051c1.394.929 2.226 2.484 2.226 4.16z"/><path d="m36 43c-1.654 0-3 1.346-3 3v6c0 1.654 1.346 3 3 3s3-1.346 3-3v-6c0-1.654-1.346-3-3-3zm1 9c0 .552-.448 1-1 1s-1-.448-1-1v-6c0-.552.448-1 1-1s1 .448 1 1z"/><path d="m28 43c-1.654 0-3 1.346-3 3v6c0 1.654 1.346 3 3 3s3-1.346 3-3v-6c0-1.654-1.346-3-3-3zm1 9c0 .552-.448 1-1 1s-1-.448-1-1v-6c0-.552.448-1 1-1s1 .448 1 1z"/></g></svg>