<?xml version="1.0" encoding="iso-8859-1"?>
<!-- Generator: Adobe Illustrator 19.0.0, SVG Export Plug-In . SVG Version: 6.00 Build 0)  -->
<svg version="1.1" id="Capa_1" xmlns="http://www.w3.org/2000/svg" xmlns:xlink="http://www.w3.org/1999/xlink" x="0px" y="0px"
	 viewBox="0 0 374.019 374.019" style="enable-background:new 0 0 374.019 374.019;" xml:space="preserve">
<g>
	<g>
		<path d="M240.468,198.611c0-5.599-3.165-11.363-6.829-18.038c-4.615-8.404-9.845-17.929-9.845-28.856
			c0-13.479,3.625-19.237,7.463-25.332c1.626-2.583,3.308-5.254,4.651-8.443c0.624-1.484,1.178-2.735,1.666-3.84
			c3.12-7.062,3.936-9.431,3.936-22.101c0-11.697-11.346-21.52-20.463-29.414c-3.452-2.988-7.362-6.374-8.267-8.062
			c-1.807-3.374-2.102-10.069-1.84-15.217h1.322c2.762,0,5-2.238,5-5V13.667C217.263,6.131,211.131,0,203.596,0h-33.171
			c-7.536,0-13.667,6.131-13.667,13.667v20.641c0,2.762,2.238,5,5,5h1.321c0.263,5.15-0.033,11.843-1.84,15.216
			c-0.906,1.689-4.817,5.075-8.267,8.063C143.854,70.48,132.508,80.304,132.508,92c0,12.67,0.817,15.04,3.937,22.101
			c0.489,1.106,1.042,2.357,1.666,3.84c1.342,3.189,3.024,5.86,4.651,8.443c3.837,6.096,7.462,11.853,7.462,25.332
			c0,10.926-5.231,20.452-9.845,28.856c-3.664,6.675-6.829,12.439-6.829,18.038v143.74c-0.027,0.213-0.042,0.43-0.042,0.651
			c0,13.636,4.895,18.229,9.213,22.282l0.382,0.359c7.578,7.13,18.639,5.793,25.807,2.485c1.283-0.592,2.365-1.109,3.264-1.551
			c2.781,2.772,7.372,6.371,13.097,7.238c0.642,0.185,1.32,0.231,1.991,0.184c0.18,0.013,0.36,0.021,0.546,0.021
			c0.494,0,0.982-0.07,1.451-0.204c5.768-0.873,10.527-4.524,13.392-7.28c0.916,0.451,2.025,0.983,3.347,1.593
			c7.053,3.254,17.945,4.56,25.429-2.486c5.452-5.131,9.083-10.943,9.083-22.631c0-0.219-0.015-0.434-0.042-0.646V198.611z
			 M166.758,13.667c0-2.022,1.645-3.667,3.667-3.667h33.171c2.022,0,3.667,1.645,3.667,3.667v15.641h-40.505V13.667z M159.52,70.146
			c4.893-4.236,8.76-7.583,10.536-10.9c2.961-5.528,3.266-13.753,3.065-19.246h27.782c-0.202,5.493,0.103,13.718,3.064,19.246
			c1.777,3.317,5.642,6.663,10.535,10.9c5.874,5.085,13.524,11.709,16.11,17.854h-87.203
			C145.995,81.855,153.644,75.232,159.52,70.146z M143.549,198.61c0-3.035,2.718-7.985,5.596-13.226
			c4.935-8.989,11.078-20.178,11.078-33.669c0-16.365-4.781-23.959-9-30.659c-1.476-2.346-2.872-4.561-3.896-6.997
			c-0.651-1.545-1.226-2.849-1.736-4.001c-2.04-4.616-2.773-6.277-2.997-12.059h88.829c-0.225,5.783-0.958,7.443-2.998,12.059
			c-0.508,1.152-1.085,2.456-1.735,4.001c-1.024,2.434-2.419,4.65-3.896,6.996c-4.219,6.7-9.001,14.295-9.001,30.66
			c0,13.491,6.142,24.68,11.078,33.669c2.878,5.242,5.596,10.192,5.596,13.226V217h-86.916h-0.002V198.61z M230.26,227v86h-86.5v-86
			H230.26z M224.573,358.358c-5.075,4.778-13.447,1.121-14.385,0.688c-4.301-1.985-6.036-3.004-6.039-3.006
			c-2.167-1.302-4.968-0.779-6.521,1.219c-1.23,1.585-5.739,6.217-10.158,6.706c-0.048,0.006-0.096,0.012-0.143,0.018
			c-0.021,0-0.041,0-0.062,0c-0.02,0-0.041,0-0.058,0.001c-0.047-0.006-0.095-0.012-0.143-0.018c-4.3-0.476-8.458-4.924-9.686-6.581
			c-1.518-2.084-4.385-2.662-6.601-1.353c-0.018,0.011-1.753,1.031-6.055,3.015c-3.256,1.502-10.532,3.292-14.763-0.688
			l-0.393-0.369c-3.691-3.464-5.951-5.585-6.052-14.367c0.025-0.204,0.038-0.412,0.038-0.623v-20h86.916v20.009
			c0,0.207,0.013,0.411,0.038,0.612C230.386,352.185,227.747,355.371,224.573,358.358z"/>
	</g>
</g>
<g>
</g>
<g>
</g>
<g>
</g>
<g>
</g>
<g>
</g>
<g>
</g>
<g>
</g>
<g>
</g>
<g>
</g>
<g>
</g>
<g>
</g>
<g>
</g>
<g>
</g>
<g>
</g>
<g>
</g>
</svg>
