<svg id="Capa_1" enable-background="new 0 0 435.858 435.858" height="512" viewBox="0 0 435.858 435.858" width="512" xmlns="http://www.w3.org/2000/svg"><g><g><path d="m263.429 78.394v-18.394h7v-60h-105v60h7.125v18.39l-67.125 44.079v313.389h225v-313.385zm-79.724 134.311 34.225-34.225 84.449 84.45-84.449 84.45-84.449-84.45 39.379-39.379-10.607-10.606-41.822 41.823v-120.75h195v120.75l-97.5-97.5-44.832 44.832zm-3.276-197.705h75v30h-75zm7.125 71.485v-26.485h60.875v14.938h-45.5v15h50.754l44.2 29.079h-159.869zm-67.125 334.373v-15.429h112.5v-15h-112.5v-119.338l97.5 97.5 97.5-97.5v119.338h-37.5v15h37.5v15.429z"/><path d="m247.679 390.429h15v15h-15z"/></g><g><path d="m170.983 268.232-10.607-10.606 9.823-9.824 10.607 10.606zm20.431-20.43-10.607-10.606 10.606-10.606 10.607 10.606zm21.212-21.213-10.607-10.606 10.606-10.606 10.607 10.606z"/></g></g></svg>