<svg id="Capa_1" enable-background="new 0 0 512 512" height="512" viewBox="0 0 512 512" width="512" xmlns="http://www.w3.org/2000/svg"><g><circle cx="293.423" cy="306.304" r="7.5"/><circle cx="300.923" cy="349.628" r="7.5"/><circle cx="256" cy="349.628" r="7.5"/><path d="m396.14 402.057c4.143 0 7.5-3.358 7.5-7.5v-271.449s-.009-.019-.011-.023c-.003-.796-.121-1.596-.382-2.37l-20.165-59.892v-38.825c0-12.13-9.868-21.998-21.997-21.998h-210.17c-12.129 0-21.997 9.868-21.997 21.998v38.829l-20.165 59.889c-.261.774-.379 1.574-.382 2.37-.002.004-.011.023-.011.023v111.746c0 4.142 3.357 7.5 7.5 7.5s7.5-3.358 7.5-7.5v-104.247h265.28v102.339l-64.573 16.127c-17.131-18.006-41.311-29.247-68.067-29.247-3.423 0-6.856.191-10.251.56-2.469-7.123-6.228-13.949-11.85-19.571-13.965-13.965-40.735-21.42-60.733-25.216-5.989-1.135-12.14.756-16.448 5.065-4.309 4.308-6.202 10.457-5.065 16.449 3.796 19.999 11.252 46.77 25.215 60.733.708.708 1.438 1.379 2.182 2.029-6.225 8.859-10.808 18.571-13.637 28.823l-42.053 10.501v-34.347c0-4.142-3.357-7.5-7.5-7.5s-7.5 3.358-7.5 7.5v227.717c0 10.713 8.716 19.429 19.429 19.429h256.423c10.713 0 19.429-8.716 19.429-19.429v-68.014c0-4.142-3.357-7.5-7.5-7.5s-7.5 3.358-7.5 7.5v68.014c0 2.442-1.986 4.429-4.429 4.429h-256.423c-2.442 0-4.429-1.987-4.429-4.429v-96.417l65.742-16.419c17.054 17.301 40.743 28.045 66.898 28.045 42.018 0 77.682-27.72 89.67-65.833l42.971-12.04v64.649c-.001 4.144 3.357 7.502 7.499 7.502zm-252.223-380.059c0-3.858 3.139-6.998 6.997-6.998h210.171c3.858 0 6.997 3.139 6.997 6.998v32.556h-224.165zm-17.618 93.61 15.507-46.055h228.388l15.507 46.055zm40.089 78.709c-.293-1.544.46-2.571.936-3.045.4-.401 1.195-1.001 2.363-1.001.215 0 .442.02.682.066 25.34 4.809 44.136 12.297 52.923 21.085 9.653 9.653 11.69 25.719 11.781 36.991l-28.977-28.977c-2.929-2.929-7.677-2.929-10.607 0-2.929 2.929-2.929 7.678 0 10.606l28.977 28.977c-11.274-.092-27.338-2.127-36.99-11.78-8.789-8.786-16.277-27.582-21.088-52.922zm-43.028 186.377v-66.033l39.093-9.763c-.275 2.944-.43 5.913-.43 8.906 0 19.697 6.096 37.994 16.493 53.115zm132.639 12.087c-43.548 0-78.977-35.429-78.977-78.977 0-16.642 5.104-32.494 14.75-45.943 11.059 4.882 23.377 6.179 33.309 6.179 3.401 0 6.523-.151 9.217-.362 8.293-.648 14.782-7.137 15.432-15.431.475-6.089.644-14.36-.55-23.117 2.265-.193 4.544-.302 6.82-.302 43.548 0 78.977 35.429 78.977 78.977-.001 43.547-35.43 78.976-78.978 78.976zm93.266-67.418c.467-3.789.711-7.646.711-11.559 0-19.145-5.76-36.968-15.63-51.836l54.294-13.56v65.923z"/><path d="m357.842 426.55h-30.731c-4.143 0-7.5 3.358-7.5 7.5s3.357 7.5 7.5 7.5h30.731c4.143 0 7.5-3.358 7.5-7.5s-3.357-7.5-7.5-7.5z"/><path d="m357.842 455.184h-30.731c-4.143 0-7.5 3.358-7.5 7.5s3.357 7.5 7.5 7.5h30.731c4.143 0 7.5-3.358 7.5-7.5s-3.357-7.5-7.5-7.5z"/><path d="m342.476 85.081h-30.732c-4.143 0-7.5 3.358-7.5 7.5s3.357 7.5 7.5 7.5h30.732c4.142 0 7.5-3.358 7.5-7.5 0-4.143-3.357-7.5-7.5-7.5z"/></g></svg>