<?xml version="1.0" encoding="iso-8859-1"?>
<!-- Generator: Adobe Illustrator 19.0.0, SVG Export Plug-In . SVG Version: 6.00 Build 0)  -->
<svg version="1.1" id="Capa_1" xmlns="http://www.w3.org/2000/svg" xmlns:xlink="http://www.w3.org/1999/xlink" x="0px" y="0px"
	 viewBox="0 0 511.999 511.999" style="enable-background:new 0 0 511.999 511.999;" xml:space="preserve">
<g>
	<g>
		<path d="M317.252,385.682H194.748c-4.143,0-7.502,3.358-7.502,7.502c0,4.144,3.359,7.502,7.502,7.502h122.504
			c4.143,0,7.502-3.358,7.502-7.502C324.754,389.04,321.395,385.682,317.252,385.682z"/>
	</g>
</g>
<g>
	<g>
		<path d="M317.252,416.723h-16.086c-4.143,0-7.502,3.358-7.502,7.502c0,4.144,3.359,7.502,7.502,7.502h16.086
			c4.143,0,7.502-3.358,7.502-7.502C324.754,420.081,321.395,416.723,317.252,416.723z"/>
	</g>
</g>
<g>
	<g>
		<path d="M266.258,416.723h-71.51c-4.143,0-7.502,3.358-7.502,7.502c0,4.144,3.359,7.502,7.502,7.502h71.51
			c4.143,0,7.502-3.358,7.502-7.502C273.76,420.081,270.402,416.723,266.258,416.723z"/>
	</g>
</g>
<g>
	<g>
		<path d="M355.94,234.687c0-0.005,0-0.011,0-0.016c-0.003-0.047-0.007-0.094-0.01-0.141c-0.048-0.832-0.106-1.662-0.174-2.488
			c-0.005-0.06-0.011-0.118-0.016-0.178c-0.067-0.792-0.142-1.581-0.228-2.367c-0.006-0.052-0.009-0.105-0.015-0.157
			c-0.003-0.023-0.008-0.046-0.011-0.069c-5.542-49.992-48.041-89.002-99.486-89.002c-42.799-0.001-79.404,26.999-93.693,64.858
			c-0.139,0.298-0.253,0.611-0.353,0.932c-3.919,10.708-6.06,22.266-6.06,34.314c0,5.206,0.4,10.319,1.17,15.313
			c0.011,0.075,0.024,0.15,0.037,0.224c7.488,47.846,48.983,84.569,98.898,84.569c41.132,0,76.543-24.939,91.924-60.487
			c0.19-0.362,0.355-0.74,0.485-1.137c4.955-11.853,7.697-24.853,7.697-38.482C356.105,238.464,356.046,236.57,355.94,234.687z
			 M256,155.272c40.416,0,74.318,28.329,82.952,66.167c-6.743-1.705-11.494-4.986-16.744-8.629
			c-8.472-5.881-18.074-12.545-36.028-12.545c-18.022,0-27.355,6.706-35.589,12.623c-7.321,5.26-13.644,9.804-26.834,9.804
			c-13.189,0-19.513-4.542-26.835-9.802c-4.831-3.47-10.138-7.267-17.411-9.781C193.352,174.811,222.433,155.272,256,155.272z
			 M256,325.474c-38.741,0-71.495-26.031-81.75-61.513c5.412,1.805,9.472,4.707,13.917,7.899
			c8.236,5.915,17.57,12.619,35.589,12.619c18.022,0,27.355-6.706,35.589-12.623c7.321-5.26,13.644-9.804,26.834-9.804
			c13.193,0,19.521,4.541,26.848,9.801c4.828,3.465,10.124,7.252,17.377,9.764C315.861,307.748,287.967,325.474,256,325.474z
			 M336.528,267.834c-5.815-1.767-10.04-4.789-14.752-8.172c-8.238-5.913-17.576-12.615-35.597-12.615
			c-18.022,0-27.355,6.706-35.589,12.623c-7.321,5.26-13.644,9.804-26.834,9.804c-13.189,0-19.513-4.542-26.836-9.802
			c-6.542-4.698-13.845-9.922-25.675-11.846c-0.215-2.459-0.346-4.941-0.346-7.455c0-8.059,1.15-15.85,3.253-23.244
			c5.441,1.791,9.499,4.704,14.015,7.947c8.235,5.916,17.569,12.62,35.589,12.62c18.022,0,27.355-6.706,35.589-12.623
			c7.321-5.26,13.644-9.804,26.834-9.804c13.258,0,19.846,4.573,27.473,9.866c6.98,4.845,14.761,10.239,27.366,11.973
			c0.041,1.087,0.083,2.172,0.083,3.266C341.101,249.981,339.477,259.212,336.528,267.834z"/>
	</g>
</g>
<g>
	<g>
		<path d="M390.663,51.911l-6.973-5.348c-2.259-1.733-4.164-3.836-5.686-6.184c6.624-0.351,11.909-5.835,11.909-12.545V12.579
			C389.912,5.643,384.27,0,377.334,0H134.666c-6.936,0-12.579,5.643-12.579,12.579v15.255c0,6.709,5.285,12.193,11.909,12.545
			c-1.522,2.348-3.427,4.45-5.686,6.183l-6.973,5.349c-5.388,4.133-8.605,10.654-8.605,17.446v393.645
			c0,0.296,0.011,0.57,0.024,0.827c0.248,5.877,3.122,11.454,7.805,15.048l16.214,12.439c0.776,0.595,1.24,1.535,1.24,2.512
			c0,10.019,8.152,18.171,18.171,18.171h199.627c10.019,0,18.171-8.152,18.171-18.171c0-0.978,0.464-1.918,1.24-2.513l16.214-12.438
			c4.683-3.593,7.557-9.17,7.805-15.048c0.014-0.257,0.024-0.531,0.024-0.827V69.358C399.268,62.566,396.051,56.044,390.663,51.911z
			 M137.092,15.004h237.816v10.404c-0.005,0,0,0-0.005,0H137.092V15.004z M366.092,479.411c-4.453,3.416-7.111,8.806-7.111,14.418
			c0,1.747-1.421,3.167-3.167,3.167H156.186c-1.746,0-3.167-1.42-3.167-3.167c0-5.612-2.658-11.002-7.111-14.417l-10.176-7.807
			h240.536L366.092,479.411z M127.736,456.6V77.545h31.939c4.143,0,7.502-3.358,7.502-7.502c0-4.144-3.359-7.502-7.502-7.502
			h-27.542l5.31-4.073c6.074-4.66,10.62-10.934,13.188-18.054h210.736c2.569,7.12,7.114,13.394,13.189,18.055l5.309,4.072H194.583
			c-4.143,0-7.502,3.358-7.502,7.502c0,4.144,3.359,7.502,7.502,7.502h189.681V456.6H127.736z"/>
	</g>
</g>
<g>
</g>
<g>
</g>
<g>
</g>
<g>
</g>
<g>
</g>
<g>
</g>
<g>
</g>
<g>
</g>
<g>
</g>
<g>
</g>
<g>
</g>
<g>
</g>
<g>
</g>
<g>
</g>
<g>
</g>
</svg>
