<svg id="Capa_1" enable-background="new 0 0 512 512" height="512" viewBox="0 0 512 512" width="512" xmlns="http://www.w3.org/2000/svg"><g><path d="m366.5 198.368v-75.868c0-20.51-16.553-37.218-37-37.487v-7.513c0-12.406-10.093-22.5-22.5-22.5h-8.5v-32.5c0-12.406-10.093-22.5-22.5-22.5h-40c-12.407 0-22.5 10.094-22.5 22.5v32.5h-8.5c-12.407 0-22.5 10.094-22.5 22.5v7.513c-20.447.27-37 16.977-37 37.487v75.868c0 27.413 6.48 54.862 18.739 79.381l10.375 20.751-10.375 20.751c-12.259 24.519-18.739 51.968-18.739 79.381v75.868c0 20.678 16.822 37.5 37.5 37.5h146c20.678 0 37.5-16.822 37.5-37.5 0-4.143-3.358-7.5-7.5-7.5s-7.5 3.357-7.5 7.5c0 12.406-10.093 22.5-22.5 22.5h-9.594l-4.872-14.615c-3.068-9.202-11.646-15.385-21.346-15.385h-74.377c-9.7 0-18.278 6.183-21.346 15.385l-4.871 14.615h-9.594c-12.407 0-22.5-10.094-22.5-22.5v-75.868c0-25.097 5.932-50.226 17.155-72.672l9.98-19.96h136.729l9.98 19.96c11.223 22.446 17.155 47.575 17.155 72.672v40.868c0 4.143 3.358 7.5 7.5 7.5s7.5-3.357 7.5-7.5v-40.868c0-27.413-6.48-54.862-18.739-79.381l-10.375-20.751 10.375-20.751c12.26-24.519 18.74-51.968 18.74-79.381zm-154.804 288.761c1.022-3.067 3.882-5.129 7.115-5.129h74.377c3.233 0 6.093 2.062 7.115 5.129l3.29 9.871h-95.188zm16.804-464.629c0-4.136 3.364-7.5 7.5-7.5h40c4.136 0 7.5 3.364 7.5 7.5v32.5h-55zm-23.5 47.5h102c4.136 0 7.5 3.364 7.5 7.5v7.5h-117v-7.5c0-4.136 3.364-7.5 7.5-7.5zm-44.5 128.368v-51.368h29.5c4.142 0 7.5-3.357 7.5-7.5s-3.358-7.5-7.5-7.5h-29.5v-9.5c0-12.406 10.093-22.5 22.5-22.5h146c12.407 0 22.5 10.094 22.5 22.5v9.5h-126.5c-4.142 0-7.5 3.357-7.5 7.5s3.358 7.5 7.5 7.5h126.5v51.368c0 25.097-5.932 50.226-17.155 72.672l-9.98 19.96h-136.73l-9.98-19.96c-11.223-22.446-17.155-47.575-17.155-72.672z"/><path d="m216.047 226.5h32.453v38.237c0 4.5 2.739 8.383 6.979 9.893 4.155 1.496 8.807.26 11.66-3.258h-.001l36.179-44.37c2.34-2.871 2.807-6.732 1.217-10.078s-4.877-5.424-8.581-5.424h-32.453v-38.237c0-4.5-2.739-8.383-6.979-9.893-4.241-1.506-8.816-.229-11.66 3.258h.001l-36.179 44.37c-2.34 2.871-2.807 6.733-1.217 10.078 1.589 3.346 4.877 5.424 8.581 5.424zm47.453 25.598v-25.598h20.872zm-15-66.196v25.598h-20.872z"/><circle cx="301.5" cy="336.5" r="10"/><circle cx="256" cy="336.5" r="10"/><circle cx="210.5" cy="336.5" r="10"/><circle cx="311.5" cy="386.5" r="10"/><circle cx="256" cy="386.5" r="10"/><circle cx="200.5" cy="386.5" r="10"/><circle cx="311.5" cy="436.5" r="10"/><circle cx="256" cy="436.5" r="10"/><circle cx="200.5" cy="436.5" r="10"/></g></svg>