<?xml version="1.0" encoding="iso-8859-1"?>
<!-- Generator: Adobe Illustrator 19.0.0, SVG Export Plug-In . SVG Version: 6.00 Build 0)  -->
<svg version="1.1" id="Layer_1" xmlns="http://www.w3.org/2000/svg" xmlns:xlink="http://www.w3.org/1999/xlink" x="0px" y="0px"
	 viewBox="0 0 512 512" style="enable-background:new 0 0 512 512;" xml:space="preserve">
<g>
	<g>
		<path d="M359.972,0H152.028c-5.632,0-10.199,4.567-10.199,10.199v467.073c0,5.632,4.567,10.199,10.199,10.199h1.978l2.796,16.078
			c0.85,4.884,5.09,8.451,10.049,8.451h178.298c4.958,0,9.2-3.567,10.049-8.451l2.796-16.078h1.978
			c5.632,0,10.199-4.567,10.199-10.199V10.199C370.171,4.567,365.604,0,359.972,0z M162.584,467.073h-0.357V270.799h23.006
			L175.04,281.08c-2.9,2.924-3.756,7.304-2.172,11.105c1.584,3.801,5.296,6.276,9.414,6.276h51.421l-50.853,168.612H162.584z
			 M259.378,213.331c-1.203-0.103-2.417-0.167-3.646-0.167c-17.501,0-32.556,10.678-38.992,25.859L205.46,250.4h-43.231V46.971
			h147.325L259.378,213.331z M277.659,255.49c0,12.091-9.837,21.928-21.928,21.928c-12.091,0-21.928-9.837-21.928-21.928
			s9.837-21.928,21.928-21.928C267.822,233.562,277.659,243.399,277.659,255.49z M219.952,278.062h-13.194l8.9-8.975
			C216.739,272.265,218.186,275.272,219.952,278.062z M336.571,491.602H175.429l-0.718-4.131h162.577L336.571,491.602z
			 M349.773,467.073h-0.358H204.155L255.01,298.46h74.17c4.128,0,7.848-2.488,9.425-6.303c1.578-3.815,0.7-8.204-2.224-11.118
			l-10.27-10.24h23.662V467.073z M291.511,278.062c1.725-2.724,3.145-5.656,4.218-8.753l8.777,8.753H291.511z M349.774,250.401
			h-0.001h-44.119l-10.619-10.59c-3.278-8.186-9.037-15.114-16.348-19.854l52.173-172.986h18.914V250.401z M349.774,26.573H162.228
			v-6.175h187.546V26.573z"/>
	</g>
</g>
<g>
</g>
<g>
</g>
<g>
</g>
<g>
</g>
<g>
</g>
<g>
</g>
<g>
</g>
<g>
</g>
<g>
</g>
<g>
</g>
<g>
</g>
<g>
</g>
<g>
</g>
<g>
</g>
<g>
</g>
</svg>
