<?xml version="1.0" encoding="iso-8859-1"?>
<!-- Generator: Adobe Illustrator 19.0.0, SVG Export Plug-In . SVG Version: 6.00 Build 0)  -->
<svg version="1.1" id="Capa_1" xmlns="http://www.w3.org/2000/svg" xmlns:xlink="http://www.w3.org/1999/xlink" x="0px" y="0px"
	 viewBox="0 0 512 512" style="enable-background:new 0 0 512 512;" xml:space="preserve">
<g>
	<g>
		<path d="M194.647,328.678h-62.003c-4.188,0-7.582,3.395-7.582,7.582c0,4.188,3.394,7.582,7.582,7.582h62.003
			c4.188,0,7.582-3.395,7.582-7.582S198.835,328.678,194.647,328.678z"/>
	</g>
</g>
<g>
	<g>
		<path d="M194.647,359.236h-62.003c-4.188,0-7.582,3.395-7.582,7.582s3.394,7.582,7.582,7.582h62.003
			c4.188,0,7.582-3.395,7.582-7.582S198.835,359.236,194.647,359.236z"/>
	</g>
</g>
<g>
	<g>
		<path d="M219.058,255.111h-11.157c-3.615-21.163-22.078-37.327-44.256-37.327s-40.641,16.164-44.256,37.327h-11.156
			c-7.513,0-13.625,6.112-13.625,13.625v40.291c0,4.187,3.394,7.582,7.582,7.582s7.582-3.395,7.582-7.582v-38.752h9.617
			c3.615,21.163,22.078,37.327,44.256,37.327s40.641-16.164,44.256-37.327h9.618v121.188H109.772v-46.905
			c0-4.187-3.394-7.582-7.582-7.582s-7.582,3.395-7.582,7.582v48.444c0,7.513,6.112,13.625,13.625,13.625h110.826
			c7.513,0,13.625-6.112,13.625-13.625V268.736C232.683,261.223,226.571,255.111,219.058,255.111z M163.645,292.438
			c-16.402,0-29.745-13.344-29.745-29.745s13.343-29.745,29.745-29.745s29.745,13.344,29.745,29.745
			S180.047,292.438,163.645,292.438z"/>
	</g>
</g>
<g>
	<g>
		<path d="M225.744,156.995c-13.635-2.844-23.531-15.017-23.531-28.945V84.342c6.394-0.933,11.321-6.454,11.321-13.103
			l-0.001-58.596C213.533,5.672,207.861,0,200.89,0H126.4c-6.972,0-12.643,5.672-12.643,12.643V71.24
			c0,6.649,4.926,12.169,11.321,13.103v43.708c0,13.928-9.896,26.101-23.532,28.945c-25.427,5.302-43.454,27.998-42.865,53.965
			l6.221,274.093c0.336,14.796,12.648,26.833,27.448,26.833h142.59c14.8,0,27.112-12.037,27.448-26.832l6.221-274.094
			C269.198,184.994,251.171,162.298,225.744,156.995z M128.921,15.164h69.448v25.43h-69.448V15.164z M128.92,55.757h0.001h69.449
			v13.699c-6.394,0.933-11.321,6.454-11.321,13.103v45.224h-46.808V82.56c0-6.649-4.926-12.17-11.321-13.103V55.757z
			 M247.228,484.71c-0.15,6.624-5.663,12.013-12.288,12.013H92.35c-6.625,0-12.138-5.389-12.288-12.013l-0.118-5.19
			c25.289,1.555,54.018,2.374,83.701,2.374s58.411-0.82,83.701-2.374L247.228,484.71z M253.449,210.617l-5.758,253.689
			c-25.287,1.587-54.165,2.424-84.046,2.424s-58.759-0.837-84.046-2.424l-5.758-253.689c-0.424-18.659,12.53-34.967,30.801-38.777
			c15.553-3.244,27.886-14.513,33.016-28.892h51.975c5.129,14.38,17.462,25.648,33.015,28.892
			C240.919,175.65,253.872,191.958,253.449,210.617z"/>
	</g>
</g>
<g>
	<g>
		<path d="M439.667,343.893c-1.545-7.316-8.094-12.626-15.574-12.626H318.309c-7.479,0-14.03,5.31-15.575,12.626
			c-4.728,22.383-15.496,77.363-13.396,104.403c1.742,22.427,11.531,38.448,20.905,48.875c0.029,0.033,0.059,0.066,0.089,0.099
			c0.691,0.767,1.38,1.503,2.063,2.209c0.052,0.054,0.103,0.108,0.155,0.161c0.751,0.772,1.495,1.511,2.226,2.211
			C321.62,508.395,330.604,512,340.075,512h62.252c9.47,0,18.453-3.604,25.297-10.148c0.73-0.698,1.473-1.436,2.222-2.206
			c0.056-0.057,0.11-0.115,0.166-0.172c0.679-0.702,1.362-1.433,2.049-2.194c0.035-0.038,0.069-0.077,0.104-0.115
			c9.372-10.427,19.158-26.445,20.9-48.868C455.165,421.247,444.395,366.273,439.667,343.893z M421.344,486.499
			c-0.504,0.574-1.018,1.141-1.543,1.699c-0.197,0.21-0.394,0.419-0.59,0.623c-0.675,0.701-1.36,1.395-2.067,2.071
			c-4.008,3.833-9.271,5.944-14.817,5.944h-62.252c-2.08,0-4.12-0.297-6.069-0.87c-3.248-0.955-6.244-2.679-8.749-5.074
			c-0.011-0.011-0.023-0.023-0.034-0.034c-0.691-0.661-1.361-1.34-2.022-2.026c-0.204-0.212-0.409-0.43-0.614-0.648
			c-0.513-0.546-1.015-1.101-1.509-1.662c-0.121-0.138-0.242-0.272-0.364-0.412c1.759,0.023,3.695,0.046,5.825,0.07
			c11.845,0.138,27.706,0.214,44.661,0.214c16.956,0,32.817-0.076,44.661-0.214c2.13-0.025,4.066-0.048,5.826-0.07
			C421.573,486.242,421.459,486.369,421.344,486.499z M437.945,447.122c-0.711,9.148-3.068,16.984-6.198,23.608
			c-18.948,0.683-102.139,0.683-121.093,0c-3.13-6.624-5.487-14.46-6.197-23.608c-1.01-13,1.422-34.025,4.541-53.852h18.223
			c4.188,0,7.582-3.395,7.582-7.582s-3.394-7.582-7.582-7.582H311.54c2.373-13.394,4.728-24.91,6.031-31.079
			c0.074-0.351,0.378-0.596,0.738-0.596h105.785c0.36,0,0.663,0.245,0.737,0.596c1.303,6.17,3.659,17.685,6.032,31.079h-68.366
			c-4.188,0-7.582,3.395-7.582,7.582s3.394,7.582,7.582,7.582h70.908C436.523,413.095,438.955,434.119,437.945,447.122z"/>
	</g>
</g>
<g>
</g>
<g>
</g>
<g>
</g>
<g>
</g>
<g>
</g>
<g>
</g>
<g>
</g>
<g>
</g>
<g>
</g>
<g>
</g>
<g>
</g>
<g>
</g>
<g>
</g>
<g>
</g>
<g>
</g>
</svg>
