<?xml version="1.0" encoding="iso-8859-1"?>
<!-- Generator: Adobe Illustrator 19.0.0, SVG Export Plug-In . SVG Version: 6.00 Build 0)  -->
<svg version="1.1" id="Layer_1" xmlns="http://www.w3.org/2000/svg" xmlns:xlink="http://www.w3.org/1999/xlink" x="0px" y="0px"
	 viewBox="0 0 512 512" style="enable-background:new 0 0 512 512;" xml:space="preserve">
<g>
	<g>
		<path d="M349.104,222.009c-1.738-4.125-6.491-6.061-10.62-4.324c-4.126,1.738-6.063,6.494-4.324,10.62
			c4.389,10.418,6.615,21.481,6.615,32.882v20.675H171.226v-20.675c0-46.744,38.03-84.774,84.774-84.774
			c21.68,0,42.32,8.2,58.117,23.09c3.259,3.072,8.391,2.92,11.46-0.338c3.071-3.259,2.92-8.39-0.338-11.462
			c-18.818-17.737-43.407-27.505-69.239-27.505c-55.686,0-100.99,45.303-100.99,100.99v28.783v61.435v111.229
			c0,4.479,3.63,8.108,8.108,8.108h185.765c4.478,0,8.108-3.629,8.108-8.108V351.404V289.97v-28.783
			C356.99,247.611,354.336,234.43,349.104,222.009z M340.774,454.525H171.226v-95.013h169.549V454.525z M340.774,343.297H171.226
			v-45.219h169.549V343.297z"/>
	</g>
</g>
<g>
	<g>
		<path d="M256,198.14c-19.314,0-35.028,15.712-35.028,35.028c0,19.314,15.714,35.027,35.028,35.027s35.028-15.713,35.028-35.027
			C291.028,213.853,275.314,198.14,256,198.14z M255.999,251.98c-10.373,0-18.812-8.44-18.812-18.811
			c0-10.374,8.44-18.812,18.812-18.812c10.373,0,18.812,8.439,18.812,18.812C274.811,243.541,266.372,251.98,255.999,251.98z"/>
	</g>
</g>
<g>
	<g>
		<path d="M310.105,312.58h-108.21c-4.478,0-8.108,3.629-8.108,8.108c0,4.479,3.63,8.108,8.108,8.108h108.21
			c4.478,0,8.108-3.629,8.108-8.108C318.213,316.209,314.583,312.58,310.105,312.58z"/>
	</g>
</g>
<g>
	<g>
		<path d="M296.708,375.56H215.29c-4.478,0-8.108,3.629-8.108,8.108c0,4.479,3.63,8.108,8.108,8.108h81.418
			c4.478,0,8.108-3.629,8.108-8.108C304.816,379.189,301.186,375.56,296.708,375.56z"/>
	</g>
</g>
<g>
	<g>
		<path d="M296.708,405.172H215.29c-4.478,0-8.108,3.629-8.108,8.108s3.63,8.108,8.108,8.108h81.418
			c4.478,0,8.108-3.629,8.108-8.108S301.186,405.172,296.708,405.172z"/>
	</g>
</g>
<g>
	<g>
		<path d="M327.489,122.35c-9.327,0-16.915-7.588-16.915-16.914v-7.207h4.423c4.478,0,8.108-3.629,8.108-8.108V36.206
			C323.105,16.242,306.863,0,286.9,0H225.1c-19.964,0-36.206,16.242-36.206,36.206V90.12c0,4.479,3.63,8.108,8.108,8.108h4.423
			v7.207c0,9.327-7.589,16.914-16.915,16.914c-46.668,0-84.634,37.967-84.634,84.635v199.91c0,4.479,3.63,8.108,8.108,8.108
			c4.478,0,8.108-3.629,8.108-8.108V206.985c0-37.726,30.692-68.419,68.418-68.419c18.269,0,33.131-14.862,33.131-33.13V98.23
			h76.719v7.206c0,18.267,14.863,33.13,33.131,33.13c37.726,0,68.419,30.693,68.419,68.419v266.653
			c0,12.211-9.935,22.146-22.147,22.146H138.238c-12.211,0-22.146-9.935-22.146-22.146v-28.907c0-4.479-3.63-8.108-8.108-8.108
			c-4.478,0-8.108,3.629-8.108,8.108v28.907c0,21.153,17.209,38.362,38.362,38.362h235.524c21.154,0,38.363-17.209,38.363-38.362
			V206.985C412.126,160.318,374.158,122.35,327.489,122.35z M306.89,82.012h-0.001H205.11V36.206
			c0-11.022,8.967-19.991,19.991-19.991H286.9c11.022,0,19.991,8.968,19.991,19.991V82.012z"/>
	</g>
</g>
<g>
</g>
<g>
</g>
<g>
</g>
<g>
</g>
<g>
</g>
<g>
</g>
<g>
</g>
<g>
</g>
<g>
</g>
<g>
</g>
<g>
</g>
<g>
</g>
<g>
</g>
<g>
</g>
<g>
</g>
</svg>
