<?xml version="1.0" encoding="UTF-8"?>
<svg xmlns="http://www.w3.org/2000/svg" id="Outline" viewBox="0 0 512 512" width="512" height="512"><path d="M264,352a32.036,32.036,0,0,0-32,32c0,15.924,12.763,40,32,40s32-24.076,32-40A32.036,32.036,0,0,0,264,352Zm0,56c-6.609,0-16-12.412-16-24a16,16,0,0,1,32,0C280,395.588,270.609,408,264,408Z"/><path d="M336,256a32.036,32.036,0,0,0-32,32c0,15.924,12.763,40,32,40s32-24.076,32-40A32.036,32.036,0,0,0,336,256Zm0,56c-6.609,0-16-12.412-16-24a16,16,0,0,1,32,0C352,299.588,342.609,312,336,312Z"/><path d="M456,393.969H443.314l10.343-10.344a8,8,0,0,0-11.314-11.313L432,382.655V369.969a8,8,0,0,0-16,0v12.72l-2.343-2.342a30.819,30.819,0,0,0-26.191-8.478L409.445,240H416a8,8,0,0,0,8-8V200a8,8,0,0,0-8-8h-.242C412.236,131.583,369.1,81.636,312,67.812V24a8,8,0,0,0-8-8H256a8,8,0,0,0-8,8V67.812C190.9,81.636,147.764,131.583,144.242,192H144a8,8,0,0,0-8,8v32a8,8,0,0,0,8,8h6.556l15.07,90.424a32.742,32.742,0,0,0-16.253-4.464c-9.121,0-17.993,4.051-25.657,11.716l-15.1,15.1L120.8,322.3a8,8,0,0,0-14.856-5.943L94.453,345.1l-7.421-7.421a8,8,0,0,0-11.314,11.313l7.029,7.029L53.031,367.905a8,8,0,1,0,5.942,14.855l32.764-13.106L75.716,385.676C68.052,393.34,64,402.212,64,411.333s4.052,17.992,11.716,25.656a7.958,7.958,0,0,0,1.22,1l72,48c.1.07.212.138.321.2a71.881,71.881,0,0,0,32.826,9.748c.646.028,1.917.06,1.917.06H360c.154,0,.732-.035.764-.038,7.314-.5,13.494-3.6,19.085-6.939l63.729-31.864a8.013,8.013,0,0,0,2.079-1.5,31.037,31.037,0,0,0,0-43.313l-2.378-2.378H456a8,8,0,0,0,0-16ZM152,224V208H408v16Zm9.333-32c1.271-7,3.253-15.6,5.726-20.235l.067-.128A56.153,56.153,0,0,1,216,144c15.683,0,23.914,5.549,34.334,12.575C263.84,165.68,279.147,176,312,176c46.285,0,69.24-12.033,79.534-20.272A119.136,119.136,0,0,1,399.727,192ZM264,146.451V132.944l32,16v9.971C281.488,156.787,272.238,151.8,264,146.451Zm32-15.395-32-16V92.944l32,16Zm0-40L274.176,80.143c1.93-.092,3.871-.143,5.824-.143a120.675,120.675,0,0,1,16,1.069ZM384.294,140.7c-1.8,1.823-5.883,5.346-13.363,8.866C360.817,154.327,342.383,160,312,160V84.339A120.519,120.519,0,0,1,384.294,140.7ZM296,32V51.056l-32-16V32ZM264,52.944l22.423,11.212c-2.129-.1-4.27-.156-6.423-.156a136.786,136.786,0,0,0-16,.946ZM248,84.339v51.846A62.544,62.544,0,0,0,216,128a71.257,71.257,0,0,0-39.523,11.379A120.509,120.509,0,0,1,248,84.339ZM203.716,473.676c-9.738,9.735-32.041,7.228-46.07-1.11L86.505,425.139c-3.084-3.223-6.5-8.089-6.5-13.806,0-6.045,3.823-11.137,7.03-14.344l48-48c3.206-3.206,8.3-7.029,14.343-7.029,5.64,0,10.45,3.328,13.674,6.378l47.466,79.11C218.113,440.116,214.811,462.582,203.716,473.676ZM353.223,480h-133.9c12.587-16.947,15.139-43.738,4.912-60.783l-38.2-63.661L166.777,240H393.223Zm81.9-36.5s-64.464,32.368-65.043,32.7l3.124-18.74a8,8,0,1,0,2.8-15.487c-.074,0-.146.009-.219.011l8.748-52.487a15.081,15.081,0,0,1,17.814,2.167l32,32A15.057,15.057,0,0,1,435.121,443.5Z"/><circle cx="400" cy="425.969" r="8"/><circle cx="216" cy="280" r="8"/><circle cx="320" cy="360" r="8"/><circle cx="216" cy="336" r="8"/><circle cx="320" cy="416" r="8"/><circle cx="272" cy="456" r="8"/><circle cx="264" cy="304" r="8"/><circle cx="136.002" cy="399.333" r="8"/><circle cx="112" cy="416" r="8"/><circle cx="152.002" cy="375.333" r="8"/><circle cx="144" cy="432" r="8"/><circle cx="168" cy="408" r="8"/><circle cx="176" cy="440" r="8"/></svg>
