<?xml version="1.0" encoding="iso-8859-1"?>
<!-- Generator: Adobe Illustrator 19.0.0, SVG Export Plug-In . SVG Version: 6.00 Build 0)  -->
<svg version="1.1" id="Capa_1" xmlns="http://www.w3.org/2000/svg" xmlns:xlink="http://www.w3.org/1999/xlink" x="0px" y="0px"
	 viewBox="0 0 512 512" style="enable-background:new 0 0 512 512;" xml:space="preserve">
<g>
	<g>
		<path d="M384.84,29.203V22.28C384.84,9.996,374.843,0,362.56,0H155.648c-12.284,0-22.28,9.996-22.28,22.28v5.585
			c-18.716,2.44-33.206,18.482-33.206,37.851v380.567c0,19.37,14.489,35.411,33.206,37.851v5.585c0,12.284,9.996,22.28,22.28,22.28
			H362.56c12.284,0,22.28-9.996,22.28-22.28v-6.923c15.612-4.789,26.997-19.349,26.997-36.514V65.717
			C411.837,48.552,400.452,33.992,384.84,29.203z M155.648,15.316H362.56c3.839,0,6.964,3.124,6.964,6.964v5.259H148.685V22.28h0
			C148.685,18.441,151.809,15.316,155.648,15.316z M362.56,496.684H155.648c-3.839,0-6.964-3.125-6.964-6.964v-5.259h220.839v5.259
			h0C369.524,493.559,366.399,496.684,362.56,496.684z M396.521,84.545L396.521,84.545h-53.852c-4.227,0-7.658,3.431-7.658,7.658
			c0,4.227,3.431,7.658,7.658,7.658h53.852v318.781H199.963c-4.227,0-7.658,3.431-7.658,7.658c0,4.227,3.431,7.658,7.658,7.658
			h196.558v12.324c0,12.61-10.252,22.862-22.862,22.862c-9.689,0-225.6,0-235.318,0c-12.61,0-22.862-10.252-22.862-22.862v-12.324
			h53.852c4.227,0,7.658-3.431,7.658-7.658c0-4.227-3.431-7.658-7.658-7.658h-53.852V99.862h196.558
			c4.227,0,7.658-3.431,7.658-7.658c0-4.227-3.431-7.658-7.658-7.658H115.479V65.717c0-12.61,10.252-22.862,22.862-22.862
			c9.718,0,225.629,0,235.318,0c12.61,0,22.862,10.252,22.862,22.862V84.545z"/>
	</g>
</g>
<g>
	<g>
		<circle cx="194.893" cy="247.254" r="6.092"/>
	</g>
</g>
<g>
	<g>
		<circle cx="216.857" cy="247.254" r="6.092"/>
	</g>
</g>
<g>
	<g>
		<circle cx="205.839" cy="263.52" r="6.092"/>
	</g>
</g>
<g>
	<g>
		<path d="M315.641,192.708c20.248-12.518,35.523-34.38,36.31-35.503c0.878-1.276,1.358-2.798,1.358-4.35
			c0-5.412-4.615-7.056-6.351-7.679c-4.165-1.518-10.485-3.442-16.766-4.922c-4.115-0.97-8.24,1.573-9.21,5.687
			c-0.98,4.115,1.572,8.24,5.687,9.21c2.257,0.541,4.36,1.093,6.249,1.624c-14.096,16.669-30.991,30.867-52.8,30.867
			c-6.31,0-14.346-1.644-16.756-9.496c-4.538-14.848,19.906-25.287,35.105-26.109c4.227-0.225,7.464-3.839,7.239-8.056
			c-0.225-4.227-3.829-7.495-8.056-7.24c-12.012,0.636-23.749,4.75-32.726,10.384l2.195-31.245c0.296-4.217-2.879-7.872-7.096-8.169
			c-4.217-0.317-7.883,2.879-8.179,7.096l-2.4,34.033c-4.289-3.921-9.619-7.546-15.949-10.854
			c-25.006-13.08-64.052-5.943-65.706-5.636c-4.871,0.926-7.595,6.17-5.575,10.66c0.653,1.45,15.347,33.798,38.056,48.389
			c-29.662,18.818-49.379,51.953-49.379,89.61c0,35.709,18.002,69.262,48.246,88.885c70.551,46.166,163.873-5.307,163.873-88.885
			C363.009,243.676,343.853,211.506,315.641,192.708z M181.022,146.045c13.111-1.164,32.695-1.123,45.377,5.514
			c29.728,15.545,21.894,33.215,9.016,34.87c-7.803,1.011-17.016-2.593-23.995-6.229
			C198.003,173.185,186.985,156.583,181.022,146.045z M178.48,326.531c-26.174-44.856-9.237-103.793,38.934-127.196
			c13.288,4.261,27.685,3.879,37.198-6.188c10.593,11.684,28.456,11.315,43.743,7.117c10.405,5.361,19.656,12.672,27.242,21.453
			L178.48,326.531z M315.376,282.639l-39.424-6.621c20.169-14.367,12.411-8.841,32.583-23.209
			C316.594,267.924,315.257,281.321,315.376,282.639z M273.414,291.123l39.421,6.621c-0.493,1.1-3.614,14.3-16.205,25.968
			L273.414,291.123z M284.161,332.607c-7.413,3.962-15.508,6.259-23.83,6.79l2.376-36.905L284.161,332.607z M247.772,296.093
			l-2.723,42.304c-1.545-0.569-17.653-2.428-31.802-17.707l34.523-24.598H247.772z M224.888,365.894
			c-0.01-0.01-0.031-0.01-0.041-0.01c-14.778-5.624-27.65-14.888-37.576-26.803l13.356-9.516
			c11.252,12.845,26.456,21.361,43.518,24.23c61.284,10.425,107.891-55.643,76.898-110.021l13.57-9.67
			C378.145,305.986,307.033,396.861,224.888,365.894z"/>
	</g>
</g>
<g>
</g>
<g>
</g>
<g>
</g>
<g>
</g>
<g>
</g>
<g>
</g>
<g>
</g>
<g>
</g>
<g>
</g>
<g>
</g>
<g>
</g>
<g>
</g>
<g>
</g>
<g>
</g>
<g>
</g>
</svg>
