<svg id="Capa_1" enable-background="new 0 0 512 512" height="512" viewBox="0 0 512 512" width="512" xmlns="http://www.w3.org/2000/svg"><g><g><path d="m230.588 299.935c-4.142 0-7.5 3.358-7.5 7.5v13.805c0 1.679-1.366 3.045-3.044 3.045h-11.322v-13.448c0-15.28-12.431-27.711-27.71-27.711s-27.71 12.431-27.71 27.711v30.513h-10.103c-1.679 0-3.044-1.366-3.044-3.045v-22.11c0-4.142-3.358-7.5-7.5-7.5s-7.5 3.358-7.5 7.5v22.11c0 9.95 8.095 18.045 18.044 18.045h10.103v21.142h-9.026c-4.142 0-7.5 3.358-7.5 7.5s3.358 7.5 7.5 7.5h73.473c4.142 0 7.5-3.358 7.5-7.5s-3.358-7.5-7.5-7.5h-9.026v-38.207h11.322c9.95 0 18.044-8.095 18.044-18.045v-13.805c-.001-4.142-3.359-7.5-7.501-7.5zm-36.866 77.556h-25.421v-66.655c0-7.009 5.702-12.711 12.71-12.711s12.71 5.702 12.71 12.711v66.655z"/><path d="m198.5 404.59h-34.979c-4.142 0-7.5 3.358-7.5 7.5s3.358 7.5 7.5 7.5h34.979c4.142 0 7.5-3.358 7.5-7.5s-3.357-7.5-7.5-7.5z"/><path d="m449.928 318.615h-70.383c-4.142 0-7.5 3.358-7.5 7.5s3.358 7.5 7.5 7.5h68.07v26.471h-177.78v-26.471h75.553c4.142 0 7.5-3.358 7.5-7.5s-3.358-7.5-7.5-7.5h-31.532v-50.128c0-24.829-6.533-45.343-19.419-60.972-11.781-14.289-28.369-23.906-49.373-28.639-.885-15.441-4.823-39.758-12.458-55.788 9.267-2.587 18.487-8.334 26.369-16.646 9.95-10.493 16.131-23.348 16.131-33.546 0-4.142-3.358-7.5-7.5-7.5h-29.846c-10.817-40.497-32.032-65.396-56.154-65.396-24.105 0-45.31 24.899-56.126 65.396h-29.846c-4.142 0-7.5 3.358-7.5 7.5 0 10.199 6.181 23.053 16.131 33.546 7.881 8.311 17.099 14.057 26.365 16.645-7.633 16.023-11.57 40.342-12.454 55.789-21.003 4.733-37.592 14.351-49.373 28.639-12.885 15.629-19.418 36.143-19.418 60.972v71.547c0 4.142 3.358 7.5 7.5 7.5s7.5-3.358 7.5-7.5v-71.547c0-42.605 21.574-68.897 62.389-76.036 3.589-.627 6.208-3.744 6.208-7.388 0-17.489 5.732-48.703 13.891-60.418h69.491c8.161 11.738 13.896 42.945 13.896 60.418 0 3.644 2.619 6.76 6.208 7.388 40.815 7.139 62.389 33.431 62.389 76.036v50.128h-21.311v-56.223c0-4.899 0-16.372-15.352-16.372h-7.908c-14.804 0-22.792-7.04-32.042-15.191-9.833-8.665-20.978-18.487-40.562-18.683-.05-.001-.101-.001-.15 0-19.582.196-30.72 10.016-40.546 18.679-9.249 8.154-17.236 15.195-32.057 15.195h-7.908c-15.352 0-15.352 11.473-15.352 16.372v198.993c0 4.142 3.358 7.5 7.5 7.5h161.668v20.053c0 2.835.517 5.551 1.457 8.062h-177.129c-8.149 0-14.78-6.63-14.78-14.78v-107.575c0-4.142-3.358-7.5-7.5-7.5s-7.5 3.358-7.5 7.5v107.575c0 16.421 13.359 29.78 29.78 29.78h198.732 161.656c12.716 0 23.062-10.346 23.062-23.062v-157.635c0-6.996-5.692-12.688-12.687-12.688zm-268.322-303.615c15.831 0 31.585 19.892 40.578 50.396h-81.127c8.991-30.504 24.733-50.396 40.549-50.396zm40.166 94.645h-80.304c-15.761 0-31.735-16.203-36.738-29.249h26.572c.008 0 .017.001.026.001.006 0 .011-.001.017-.001h127.166c-5.003 13.045-20.977 29.249-36.739 29.249zm33.063 221.658v122.583h-154.168s.008-192.489.021-192.863c.104-.001 8.239-.002 8.239-.002 20.489 0 31.905-10.064 41.977-18.943 8.987-7.923 16.749-14.767 30.702-14.931 13.958.164 21.726 7.011 30.72 14.937 10.072 8.876 21.489 18.937 41.958 18.937 0 0 8.135.001 8.239.002.013.374.021 58.621.021 58.621-4.528 1.942-7.709 6.436-7.709 11.659zm192.78 157.635c0 4.445-3.616 8.062-8.062 8.062h-161.656c-4.445 0-8.062-3.617-8.062-8.062v-113.852h177.779v113.852z"/><path d="m309.555 458.768c.61.153 1.222.226 1.825.226 3.36 0 6.418-2.275 7.27-5.683l.028-.113c1.005-4.018-1.438-8.09-5.457-9.095-4.012-1.005-8.09 1.438-9.095 5.457l-.028.113c-1.005 4.018 1.438 8.091 5.457 9.095z"/><path d="m351.709 422.935c4.142 0 7.5-3.358 7.5-7.5v-.142c0-4.142-3.358-7.5-7.5-7.5s-7.5 3.358-7.5 7.5v.142c0 4.142 3.358 7.5 7.5 7.5z"/><path d="m395.107 458.879c4.142 0 7.5-3.358 7.5-7.5v-.114c0-4.142-3.358-7.5-7.5-7.5s-7.5 3.358-7.5 7.5v.114c0 4.142 3.358 7.5 7.5 7.5z"/></g></g></svg>