<?xml version="1.0"?>
<svg xmlns="http://www.w3.org/2000/svg" viewBox="0 0 512 512" width="512" height="512"><g id="Outline"><path d="M216.66,395.54c0-1.663.038-3.35.113-5.026l5.239-120.731c.078-1.769.133-3.617.167-5.637A217.941,217.941,0,0,0,206.536,178.8c-1.73-4.316-3.334-8.772-4.77-13.252A203.079,203.079,0,0,1,192,103.311V32a16.019,16.019,0,0,0-16-16H112A16.019,16.019,0,0,0,96,32V96h80v7.311a219.662,219.662,0,0,0,3.955,41.461c.979,5.087,2.174,10.176,3.527,15.228h-78.94a219.113,219.113,0,0,0,7.272-47.671l-15.986-.658a203.167,203.167,0,0,1-9.6,53.888c-1.434,4.473-3.038,8.929-4.77,13.25a218.193,218.193,0,0,0-15.682,81.4c0,1.322,5.448,130.311,5.448,130.311a114.761,114.761,0,0,1-3.319,32.86A130.657,130.657,0,0,0,64,455.13v.83A40.086,40.086,0,0,0,104.04,496h79.92A40.086,40.086,0,0,0,224,455.96a131.683,131.683,0,0,0-3.832-32.273A114.769,114.769,0,0,1,216.66,395.54ZM82.1,272H205.9l-4.166,96H86.265ZM112,80V32h64V48H128V64h48V80ZM96.316,184.757c1.151-2.872,2.243-5.8,3.278-8.757h88.812c1.036,2.953,2.127,5.883,3.276,8.751A201.885,201.885,0,0,1,206.158,256H81.83A202.134,202.134,0,0,1,96.316,184.757ZM183.96,480H104.04A24.067,24.067,0,0,1,80,455.96v-.83a116.138,116.138,0,0,1,.86-14.045,114.9,114.9,0,0,1,2.572-13.826,130.69,130.69,0,0,0,3.78-37.433L86.96,384H201.04s-.38,9.64-.38,11.54a130.761,130.761,0,0,0,4,32.074A115.759,115.759,0,0,1,208,455.96,24.067,24.067,0,0,1,183.96,480Z"/><path d="M126.028,196.639,111.173,190.7A186.793,186.793,0,0,0,98.965,239.1l15.9,1.8A170.807,170.807,0,0,1,126.028,196.639Z"/><rect x="104" y="296" width="80" height="16"/><rect x="112" y="328" width="64" height="16"/><path d="M442.323,127.135c-2.328-21.39-5.452-43.106-9.288-64.544A8,8,0,0,0,425.16,56H262.84a8,8,0,0,0-7.875,6.591c-3.836,21.438-6.961,43.154-9.288,64.538a957.343,957.343,0,0,0,.333,211.027l15.02,133.2A27.866,27.866,0,0,0,288.86,496H399.14a27.882,27.882,0,0,0,27.829-24.643l15.011-133.2A959.468,959.468,0,0,0,448,231.08,958.463,958.463,0,0,0,442.323,127.135ZM269.56,72H418.44c2.739,15.965,5.069,32.049,6.963,48H262.6C264.491,104.052,266.821,87.967,269.56,72ZM399.14,480H288.86a11.882,11.882,0,0,1-11.93-10.438L274.5,448h139l-2.429,21.56A11.893,11.893,0,0,1,399.14,480Zm26.941-143.636L415.3,432H272.694L261.91,336.364A941.314,941.314,0,0,1,260.852,136h166.3A942.76,942.76,0,0,1,432,231.08,943.7,943.7,0,0,1,426.081,336.364Z"/><path d="M302.4,272a7.976,7.976,0,0,0,5.657-2.343l89.6-89.6a8,8,0,0,0,0-11.314A71.357,71.357,0,1,0,296.743,269.657,7.976,7.976,0,0,0,302.4,272Zm.408-19.722A55.074,55.074,0,0,1,292.451,227.2h35.435ZM339.2,199.886l-25.08-25.079a54.765,54.765,0,0,1,25.08-10.389ZM327.886,211.2H292.455a55.074,55.074,0,0,1,10.357-25.074ZM355.2,199.886V164.424a54.747,54.747,0,0,1,25.083,10.38Z"/><path d="M408,248H360a8,8,0,0,0-8,8v48a8,8,0,0,0,8,8h48a8,8,0,0,0,8-8V256A8,8,0,0,0,408,248Zm-8,48H368V264h32Z"/><path d="M345.941,326.059A8,8,0,0,0,343.6,320.4l-33.941-33.94a8,8,0,0,0-11.314,0L264.4,320.4a8,8,0,0,0,0,11.315l33.941,33.941a8,8,0,0,0,11.314,0L343.6,331.716A8,8,0,0,0,345.941,326.059ZM304,348.687l-22.627-22.628L304,303.432l22.627,22.627Z"/><path d="M392,352H344a8,8,0,0,0-8,8v48a8,8,0,0,0,8,8h48a8,8,0,0,0,8-8V360A8,8,0,0,0,392,352Zm-8,48H352V368h32Z"/></g></svg>
