<?xml version="1.0" encoding="iso-8859-1"?>
<!-- Generator: Adobe Illustrator 19.0.0, SVG Export Plug-In . SVG Version: 6.00 Build 0)  -->
<svg version="1.1" id="Capa_1" xmlns="http://www.w3.org/2000/svg" xmlns:xlink="http://www.w3.org/1999/xlink" x="0px" y="0px"
	 viewBox="0 0 512.001 512.001" style="enable-background:new 0 0 512.001 512.001;" xml:space="preserve">
<g>
	<g>
		<path d="M209.883,413.053h-56.004c-4.142,0-7.501,3.358-7.501,7.501s3.358,7.501,7.501,7.501h56.004
			c4.142,0,7.501-3.358,7.501-7.501S214.026,413.053,209.883,413.053z"/>
	</g>
</g>
<g>
	<g>
		<path d="M209.883,436.222h-56.004c-4.142,0-7.501,3.358-7.501,7.501c0,4.142,3.358,7.501,7.501,7.501h56.004
			c4.142,0,7.501-3.358,7.501-7.501C217.384,439.58,214.026,436.222,209.883,436.222z"/>
	</g>
</g>
<g>
	<g>
		<path d="M218.703,194.704c-23.74-10.497-49.891-10.507-73.636-0.026c-6.502,2.87-10.671,9.61-10.376,16.772l0.439,10.666
			c0.195,4.742,2.791,8.943,6.944,11.237c4.158,2.297,9.105,2.258,13.232-0.105c17.384-9.957,35.761-9.949,53.14,0.021
			c2.097,1.203,4.406,1.806,6.717,1.806c2.235,0,4.472-0.564,6.52-1.694c4.155-2.293,6.753-6.495,6.948-11.238l0.439-10.672
			C229.364,204.314,225.197,197.575,218.703,194.704z M213.744,219.059c-10.325-5.499-21.105-8.249-31.885-8.249
			c-10.765,0-21.528,2.741-31.841,8.225l-0.338-8.202c-0.043-1.053,0.538-2.03,1.445-2.431c19.835-8.754,41.679-8.747,61.512,0.022
			c0.907,0.401,1.487,1.378,1.444,2.431L213.744,219.059z"/>
	</g>
</g>
<g>
	<g>
		<path d="M220.023,264.224c-2.332-2.374-5.447-3.682-8.775-3.682h-58.735c-3.327,0-6.443,1.307-8.774,3.681
			s-3.581,5.514-3.521,8.842l0.824,44.911c0.122,6.657,5.637,12.072,12.295,12.072h57.086c6.658,0,12.173-5.415,12.295-12.071
			l0.824-44.911C223.605,269.737,222.355,266.598,220.023,264.224z M207.769,315.046h-51.776l-0.725-39.503h53.226L207.769,315.046z
			"/>
	</g>
</g>
<g>
	<g>
		<path d="M249.447,458.439c-0.371-0.269-0.622-0.937-0.61-1.624l4.867-280.01c0.233-6.312-2.153-12.522-6.556-17.053
			l-28.559-29.398c-2.883-2.968-4.47-6.881-4.47-11.019v-12.256c1.656-2.005,2.653-4.573,2.653-7.372V11.59
			c0-6.391-5.199-11.59-11.59-11.59h-46.604c-6.391,0-11.59,5.199-11.59,11.59v88.118c0,2.797,0.996,5.366,2.653,7.372v12.256
			c0,4.137-1.587,8.051-4.471,11.018l-28.558,29.399c-4.402,4.531-6.789,10.743-6.555,17.053l0.884,50.886
			c0.071,4.097,3.415,7.371,7.498,7.371c0.044,0,0.088,0,0.133-0.001c4.142-0.072,7.441-3.488,7.37-7.63l-0.886-50.967
			c-0.001-0.06-0.003-0.119-0.005-0.178c-0.093-2.249,0.754-4.465,2.323-6.081l28.558-29.398c5.618-5.783,8.712-13.408,8.712-21.471
			v-8.038h34.475v8.038c0,8.063,3.093,15.688,8.712,21.471l28.559,29.399c1.569,1.615,2.416,3.831,2.323,6.08
			c-0.002,0.06-0.004,0.119-0.005,0.178l-4.868,280.09c-0.095,5.438,2.278,10.521,6.373,13.707l-0.638,23.621
			c-0.047,1.748-1.454,3.118-3.203,3.118H127.393c-1.749,0-3.156-1.37-3.203-3.118l-0.639-23.62
			c4.094-3.187,6.467-8.269,6.373-13.707l-3.368-193.768c-0.072-4.141-3.486-7.436-7.63-7.37c-4.142,0.072-7.441,3.488-7.37,7.63
			l3.368,193.768c0.012,0.688-0.239,1.355-0.61,1.625c-3.74,2.711-5.897,7.093-5.772,11.721l0.652,24.126
			c0.269,9.933,8.263,17.713,18.198,17.713h108.977c9.937,0,17.93-7.781,18.198-17.713l0.652-24.126
			C255.346,465.532,253.188,461.151,249.447,458.439z M201.772,96.297h-39.78V41.191h39.78V96.297z M201.772,26.19h-39.78V15.001
			h39.78V26.19z"/>
	</g>
</g>
<g>
	<g>
		<path d="M399.782,347.885c-2.576-2.756-6.217-4.337-9.991-4.337H293.58c-3.773,0-7.416,1.581-9.992,4.338
			c-2.576,2.757-3.906,6.497-3.651,10.262l9.275,136.706c0.648,9.544,8.65,17.021,18.215,17.021h68.515
			c7.474,0,13.974-4.573,16.777-11.121c0.785-1.833,1.296-3.813,1.438-5.9l1.003-14.791c0-0.002,0-0.004,0-0.006l8.272-121.909
			C403.689,354.383,402.358,350.642,399.782,347.885z M379.192,493.838c-0.073,1.077-0.673,2.004-1.535,2.541
			c-0.279,0.174-0.589,0.298-0.914,0.382c-0.258,0.066-0.522,0.112-0.799,0.112h-68.515c-1.706,0-3.133-1.333-3.249-3.036
			l-0.395-5.828h75.803L379.192,493.838z M387.489,371.55h-43.064c-4.142,0-7.501,3.358-7.501,7.501
			c0,4.142,3.358,7.501,7.501,7.501h42.046l-5.866,86.457h-77.839l-5.865-86.457h12.626c4.142,0,7.501-3.358,7.501-7.501
			c0-4.142-3.358-7.501-7.501-7.501h-13.643l-0.882-13.001h93.37L387.489,371.55z"/>
	</g>
</g>
<g>
</g>
<g>
</g>
<g>
</g>
<g>
</g>
<g>
</g>
<g>
</g>
<g>
</g>
<g>
</g>
<g>
</g>
<g>
</g>
<g>
</g>
<g>
</g>
<g>
</g>
<g>
</g>
<g>
</g>
</svg>
