<svg id="Layer_1" enable-background="new 0 0 512 512" height="512" viewBox="0 0 512 512" width="512" xmlns="http://www.w3.org/2000/svg"><path d="m453.162 170.326c-1.422-1.56-3.434-2.448-5.544-2.448h-166.65c2.002-42.119-24.414-79.361-69.497-78.336v-19.597h5.279c6.887 0 12.49-5.603 12.49-12.489v-33.685c0-13.107-10.664-23.771-23.772-23.771h-72.76c-13.107 0-23.771 10.664-23.771 23.771v33.685c0 6.887 5.603 12.489 12.489 12.489h5.28v19.597c-10.317.028-20.378 1.359-29.925 5.551-8.879 3.898-2.848 17.634 6.029 13.734 6.478-2.844 13.384-4.285 20.527-4.285h10.868c4.143 0 7.5-3.357 7.5-7.5v-27.097h54.765v27.097c0 4.143 3.357 7.5 7.5 7.5h10.868c28.211 0 51.162 22.967 51.162 51.197v10.822c0 6.923-5.627 12.556-12.544 12.556h-.006-168.724-.007c-6.916 0-12.543-5.633-12.543-12.556v-10.822c0-10.181 2.976-20.012 8.606-28.432 5.392-8.06-7.079-16.399-12.469-8.338-7.286 10.895-11.138 23.609-11.138 36.77v10.822c0 7.899 3.344 15.027 8.684 20.056-5.34 5.028-8.684 12.153-8.684 20.05v66.6c0 7.903 3.338 15.036 8.672 20.078-5.502 5.083-8.966 12.431-8.966 20.59 0 7.981 3.313 15.187 8.606 20.255-5.294 5.068-8.606 12.273-8.606 20.255 0 8.208 3.503 15.596 9.062 20.682-4.981 5.056-8.768 12.963-8.768 24.904v45.771c0 36.501 29.68 66.197 66.161 66.197h91.502c22.721 0 42.801-11.522 54.718-29.03l.048.52c1.515 16.254 14.974 28.511 31.308 28.511h94.247c16.335 0 29.794-12.257 31.307-28.511l2.342-25.157c.899-9.657-14.037-11.043-14.936-1.391l-2.342 25.157c-.79 8.495-7.828 14.901-16.371 14.901h-94.247c-8.542 0-15.58-6.406-16.371-14.901l-3.444-37.003c-.021-.225-.056-.445-.096-.663v-44.402c0-11.762-3.699-19.618-8.569-24.689 5.696-5.092 9.299-12.571 9.299-20.896 0-7.981-3.313-15.187-8.605-20.255 5.293-5.068 8.605-12.273 8.605-20.255 0-8.27-3.56-15.701-9.191-20.791 5.211-5.031 8.462-12.08 8.462-19.878v-3.131h150.263l-13.857 148.825c-.873 9.384 14.019 11.222 14.936 1.391l22.742-244.277c.195-2.101-.503-4.188-1.924-5.748zm-329.225-115.381v-31.174c0-4.837 3.935-8.771 8.771-8.771h72.76c4.837 0 8.772 3.935 8.772 8.771v31.174zm129.514 139.172c6.92 0 12.55 5.63 12.55 12.55v66.6c0 6.973-5.673 12.646-12.646 12.646h-168.534c-6.973 0-12.646-5.673-12.646-12.646v-66.6c0-6.92 5.63-12.55 12.55-12.55zm12.55 251.686c0 28.23-22.951 51.197-51.162 51.197h-91.502c-28.21 0-51.161-22.967-51.161-51.197v-45.771c0-7.451 1.98-12.669 5.887-15.51 2.75-2 5.708-2.288 6.133-2.32h123.668c9.697 0 9.697-15 0-15h-123.833c-6.699 0-12.149-5.723-12.149-12.756s5.45-12.755 12.149-12.755c9.697 0 9.697-15 0-15-6.699 0-12.149-5.722-12.149-12.755s5.45-12.755 12.149-12.755h170.551c6.698 0 12.148 5.722 12.148 12.755s-5.45 12.755-12.148 12.755h-129.448c-9.697 0-9.697 15 0 15h129.448c6.698 0 12.148 5.722 12.148 12.755s-5.45 12.756-12.148 12.756c-9.549 0-9.784 14.691-.24 14.996.477.016 11.659.571 11.659 17.834zm15-190.667v-48.469c0-7.896-3.344-15.022-8.685-20.05 1.215-1.144 2.328-2.394 3.319-3.739h163.752l-6.727 72.258z"/></svg>