<?xml version="1.0"?>
<svg xmlns="http://www.w3.org/2000/svg" viewBox="0 0 512 512" width="512" height="512"><g id="Outline"><path d="M264.473,190.862q-.341-.211-.7-.389l-54.565-26.858a167.881,167.881,0,0,0,2.829-18.883,166.867,166.867,0,0,0-1.566-42.588L208,87.339V32a16.019,16.019,0,0,0-16-16H144a16.019,16.019,0,0,0-16,16V87.339l-2.472,14.81a166.726,166.726,0,0,0,1.264,61.466L72.227,190.473q-.36.177-.7.389A15.893,15.893,0,0,0,64,204.43V232a16.019,16.019,0,0,0,16,16H248V416H88V264H72V422.111l-7.155,14.311A7.994,7.994,0,0,0,64,440v40a16.019,16.019,0,0,0,16,16H256a16.019,16.019,0,0,0,16-16V440a7.994,7.994,0,0,0-.845-3.578L264,422.111V245.858a16.385,16.385,0,0,0,3.338-2.562A15.934,15.934,0,0,0,272,232V204.43A15.893,15.893,0,0,0,264.473,190.862ZM144,32h48V80H144Zm-2.689,72.777L142.775,96h50.45l1.463,8.771A151.03,151.03,0,0,1,196.575,136H139.426A150.954,150.954,0,0,1,141.311,104.777ZM224,232H112V208H96v24H80l0,0,0-27.52,59.541-29.305a8,8,0,0,0,4.23-9.114c-1.155-4.629-2.066-9.335-2.78-14.064h54.034c-.714,4.728-1.625,9.435-2.78,14.064a8,8,0,0,0,4.23,9.114L246.9,200H128v16h96Zm0,216H128v16h96v16H112V448H96v32H80V441.889L84.944,432H224Zm32,32H240V464h16Zm0-32H240V432h11.056L256,441.889Zm0-216H240V216h16Z"/><path d="M228.65,283.437a104.353,104.353,0,0,0-121.3,0l9.3,13.019a88.353,88.353,0,0,1,102.7,0Z"/><path d="M208,320c0-13.683-17.2-24-40-24s-40,10.317-40,24,17.2,24,40,24S208,333.683,208,320Zm-64,0c0-1.991,8.512-8,24-8s24,6.009,24,8-8.512,8-24,8S144,321.991,144,320Z"/><rect x="120" y="352" width="96" height="16"/><rect x="136" y="384" width="64" height="16"/><path d="M440,328H296a8,8,0,0,0-8,8V472a24.028,24.028,0,0,0,24,24H424a24.028,24.028,0,0,0,24-24V336A8,8,0,0,0,440,328Zm-8,144a8.009,8.009,0,0,1-8,8H312a8.009,8.009,0,0,1-8-8v-8H432Zm-72-24V408h40l.01,40H360Zm72,0H416V408a16.019,16.019,0,0,0-16-16H360a16.019,16.019,0,0,0-16,16v40H304V376H432Zm0-88H304V344H432Z"/></g></svg>
