<svg id="Capa_1" enable-background="new 0 0 512.012 512.012" height="512" viewBox="0 0 512.012 512.012" width="512" xmlns="http://www.w3.org/2000/svg"><g><path d="m43.711 447.573c6.127 13.117 18.606 22.13 32.732 24.044l4.702 15.045c2.022 6.469 7.935 10.815 14.712 10.815h408.654c4.143 0 7.5-3.358 7.5-7.5v-359.626c0-1.569-.492-3.098-1.406-4.373l-44.838-62.488v-26.175c0-12.562-10.22-22.781-22.781-22.781h-113.011c-4.143 0-7.5 3.358-7.5 7.5s3.357 7.5 7.5 7.5h113.011c4.291 0 7.781 3.49 7.781 7.781v21.088h-169.99v-21.088c0-4.291 3.49-7.781 7.781-7.781h6.417c4.143 0 7.5-3.358 7.5-7.5s-3.357-7.5-7.5-7.5h-6.417c-12.562 0-22.781 10.219-22.781 22.781v26.175c-44.66 62.239-44.844 62.493-44.921 62.605-.77 1.116-1.251 2.457-1.316 3.914-.119 2.628-.008 41.504-.008 160.065-14.194-13.434-37.233-14.233-52.51 1.067-3.738 3.738-9.695 4.098-13.856.838-11.221-8.79-27.266-8.489-38.148.716l-3.798 3.213-50.908-92.798c-3.329-6.069-8.833-10.438-15.5-12.303-13.825-3.866-28.047 4.393-31.596 18.241-1.719 6.706-.687 13.657 2.904 19.575l48.753 80.337c-2.008 1.507-2.915 2.549-7.177 6.812-1.977 1.977-4.605 3.065-7.401 3.065-6.802 0-13.198 2.649-18.008 7.459l-16.382 16.382h-.592c-11.627 0-19.009 12.467-13.392 22.666 14.76 26.8 28.834 54.489 41.79 82.229zm284.371-104.892-19.575-19.575c-4.811-4.81-11.205-7.459-18.008-7.459h-8.333c-2.796 0-5.424-1.089-7.4-3.065l-8.922-8.921c-1.884-1.885-4.012-3.437-6.313-4.629v-13.052h119.99v170.286h-80.429c2.137-2.633 3.972-5.544 5.442-8.692 12.941-27.707 27.017-55.406 41.791-82.227 5.609-10.184-1.748-22.666-13.392-22.666zm51.44-71.702h-119.99v-24.683h119.99zm-69.223 130.466h-272.351c-3.2-6.323-6.448-12.622-9.74-18.889h291.831c-3.291 6.267-6.539 12.566-9.74 18.889zm-252.997 39.781c-3.864-8.274-7.826-16.54-11.875-24.78h257.393c-4.048 8.239-8.01 16.506-11.874 24.78-4.466 9.561-14.16 15.746-24.709 15.772-.103-.001-184.137-.001-184.24 0-10.544-.032-20.231-6.215-24.695-15.772zm38.16 40.962-3.185-10.19h163.691l-3.185 10.19c-.054.173-.213.29-.395.29h-156.53c-.182 0-.342-.116-.396-.29zm401.55.29h-77.49v-212.793c0-4.142-3.357-7.5-7.5-7.5s-7.5 3.358-7.5 7.5v212.793h-136.113l3.394-10.861c3.713-.503-10.625-.352 115.219-.352 4.143 0 7.5-3.358 7.5-7.5v-224.969c0-4.142-3.357-7.5-7.5-7.5h-134.99c-4.142 0-7.5 3.358-7.5 7.5v57.405h-10v-77.281h169.99v15.765c0 4.142 3.357 7.5 7.5 7.5s7.5-3.358 7.5-7.5v-15.765h77.49zm-119.99-344.627c4.143 0 7.5-3.358 7.5-7.5s-3.357-7.5-7.5-7.5h-135.377l35.482-49.448h166.528l-37.726 52.575c-.914 1.274-1.406 2.804-1.406 4.373v73.569h-169.99v-66.069zm119.99 66.069h-77.49v-71.157l38.745-53.996 38.745 53.996zm-468.069 16.923c-3.064-5.049-1.381-11.615 3.733-14.568 5.115-2.951 11.643-1.127 14.483 4.051l51.326 93.561c-.671.035-18.035-.005-19.131.027zm13.95 116.062c1.977-1.977 4.606-3.066 7.401-3.066 6.803 0 13.198-2.649 18.008-7.459 3.683-3.359 5.002-5.947 8.903-7.07 2.362-.554.238-.409 20.731-.409 13.402 0 19.042-9.242 26.768-14.752 5.481-4.636 13.561-4.788 19.212-.361 9.646 7.555 24.088 7.598 34.043-2.372 8.765-8.765 22.955-8.768 31.724 0 1.207.873 7.477 9.784 20.333 9.784 21.22 0 18.394-.101 20.464.335 1.785.462 3.421 1.392 4.759 2.73l8.921 8.922c4.811 4.81 11.205 7.459 18.008 7.459h8.333c2.796 0 5.424 1.089 7.4 3.065l8.968 8.968h-212.075c-4.142 0-7.5 3.358-7.5 7.5s3.358 7.5 7.5 7.5c249.492 0 238.259-.079 238.39.142.145.244.496-.709-5.151 9.733h-307.819c-5.649-10.446-5.296-9.488-5.151-9.733.084-.142.157-.142.249-.142h44.482c4.142 0 7.5-3.358 7.5-7.5s-3.358-7.5-7.5-7.5h-22.677z"/><circle cx="228.458" cy="327.287" r="7.5"/><circle cx="130.521" cy="325.287" r="7.5"/><circle cx="185.091" cy="318.44" r="7.5"/><path d="m479.512 344.933h-42.49c-4.143 0-7.5 3.358-7.5 7.5s3.357 7.5 7.5 7.5h42.49c4.143 0 7.5-3.358 7.5-7.5s-3.357-7.5-7.5-7.5z"/><path d="m479.512 376.797h-42.49c-4.143 0-7.5 3.358-7.5 7.5s3.357 7.5 7.5 7.5h42.49c4.143 0 7.5-3.358 7.5-7.5s-3.357-7.5-7.5-7.5z"/><path d="m479.512 408.661h-42.49c-4.143 0-7.5 3.358-7.5 7.5s3.357 7.5 7.5 7.5h42.49c4.143 0 7.5-3.358 7.5-7.5s-3.357-7.5-7.5-7.5z"/><path d="m479.512 440.526h-42.49c-4.143 0-7.5 3.358-7.5 7.5s3.357 7.5 7.5 7.5h42.49c4.143 0 7.5-3.358 7.5-7.5s-3.357-7.5-7.5-7.5z"/><path d="m436.898 327.534h42.738c4.143 0 7.5-3.358 7.5-7.5v-42.738c0-4.142-3.357-7.5-7.5-7.5h-42.738c-4.143 0-7.5 3.358-7.5 7.5v42.738c0 4.142 3.357 7.5 7.5 7.5zm7.5-42.737h27.738v27.738h-27.738z"/></g></svg>