<svg id="Layer_1" enable-background="new 0 0 512.014 512.014" height="512" viewBox="0 0 512.014 512.014" width="512" xmlns="http://www.w3.org/2000/svg"><g><path d="m288.997 125.129c3.159 2.68 7.89 2.294 10.572-.863 3.802-4.479 9.824-6.133 15.348-4.212 5.652 1.964 9.493 7.339 9.557 13.374.031 2.893 1.722 5.51 4.347 6.726 2.623 1.216 5.714.815 7.94-1.031 4.513-3.741 10.729-4.311 15.835-1.456 5.235 2.926 8.095 8.898 7.116 14.86-.67 4.088 2.1 7.945 6.187 8.616 3.995.684 7.964-2.077 8.616-6.187 1.998-12.175-3.87-24.386-14.6-30.383-7.14-3.992-15.325-4.748-22.763-2.427-3.167-7.48-9.368-13.502-17.312-16.262-11.419-3.972-23.864-.564-31.707 8.672-2.68 3.159-2.293 7.892.864 10.573z"/><path d="m199.195 156.7c17.457 0 31.659-14.202 31.659-31.659-1.739-42.002-61.586-41.989-63.319 0 0 17.457 14.203 31.659 31.66 31.659zm0-48.32c9.186 0 16.659 7.474 16.659 16.66-.915 22.101-32.407 22.094-33.319 0 0-9.186 7.474-16.66 16.66-16.66z"/><path d="m.007 226.314c-.686 87.847 47.683 173.03 123.265 217.31v18.909c0 15.634 12.719 28.353 28.353 28.353h208.764c15.634 0 28.353-12.719 28.353-28.353v-18.908c75.585-44.283 123.95-129.46 123.265-217.311.001-4.142-3.357-7.5-7.499-7.5h-10.27c2.065-6.39 2.042-13.476-.406-19.909-2.921-7.678-8.722-13.549-15.912-16.572 2.368-7.784 1.472-16.414-2.849-23.667-4.202-7.052-10.926-11.821-18.525-13.546.985-8.077-1.387-16.419-6.894-22.805-5.354-6.211-12.795-9.735-20.576-10.109-.426-8.124-4.202-15.921-10.727-21.249-6.344-5.18-14.279-7.352-22.003-6.363-1.825-7.924-6.892-14.939-14.236-19.045-4.187-2.341-8.856-3.582-13.565-3.682-1.737-10.694-9.244-20.082-20.234-23.666l-48.075-15.673c-12.167-3.968-26.365.727-33.718 11.215-10.859-4.296-24.159-1.317-32.087 7.31-6.466-4.879-14.832-6.97-23.082-5.357-8.017 1.563-14.764 6.282-18.97 12.866-7.212-3.675-15.81-4.269-23.66-1.241-7.624 2.941-13.453 8.77-16.456 15.99-7.74-2.36-16.312-1.443-23.518 2.911-7 4.229-11.733 10.99-13.441 18.628-8.03-.975-16.316 1.424-22.664 6.973-6.164 5.389-9.657 12.877-10.017 20.699-8.08.441-15.829 4.25-21.121 10.823-5.14 6.385-7.287 14.372-6.288 22.142-7.884 1.842-14.86 6.946-18.939 14.345-3.961 7.186-4.695 15.429-2.368 22.907-7.45 3.188-13.441 9.432-16.182 17.431-2.128 6.21-2.11 12.725-.191 18.645h-10.027c-4.142-.001-7.5 3.356-7.5 7.499zm31.909-21.282c1.951-5.695 7.265-9.564 13.223-9.628 5.63-.061 9.925-7.11 5.726-12.247-3.744-4.58-4.314-10.894-1.453-16.084 2.899-5.259 8.794-8.133 14.665-7.157 5.558.923 11.024-5.273 7.773-11.068-2.9-5.168-2.375-11.485 1.336-16.095 3.756-4.664 10.05-6.464 15.662-4.474 7.207.841 10.401-2.344 9.582-9.554-1.964-5.596-.361-11.724 4.084-15.609 4.498-3.933 11.003-4.599 16.187-1.66 5.793 3.287 12.021-2.182 11.1-7.749-.969-5.852 1.662-11.601 6.702-14.646 5.106-3.084 11.625-2.6 16.227 1.203 5.138 4.248 12.227-.063 12.279-5.711.055-5.927 3.631-11.123 9.111-13.237 5.559-2.143 11.9-.524 15.778 4.03 4.019 4.721 11.961 2.596 13.086-3.501 1.074-5.818 5.485-10.304 11.238-11.426 5.846-1.142 11.817 1.567 14.855 6.739 3.142 5.346 11.336 4.628 13.496-1.185 2.77-7.446 11.316-11.261 18.685-8.175-1.451 13.721 6.822 27.098 20.454 31.544l15.363 5.009c9.22 3.008 13.869-11.255 4.65-14.262l-15.363-5.009c-7.8-2.543-12.076-10.958-9.533-18.758 2.515-7.717 11.04-12.052 18.757-9.533l48.075 15.674c7.056 2.3 11.229 9.407 10.077 16.516-1.464 7.127-8.029 12.949-15.578 12.486-10.561-.572-9.392 15.028.912 15.028 12.498 0 23.73-7.827 28.039-19.624 2.645-.165 5.285.433 7.68 1.773 5.235 2.926 8.095 8.898 7.116 14.86-.913 5.568 5.322 11.027 11.11 7.733 5.082-2.893 11.303-2.367 15.845 1.341 4.657 3.803 6.448 10.19 4.455 15.895-.809 7.21 2.39 10.39 9.595 9.539 5.508-1.96 11.543-.352 15.379 4.1 3.937 4.565 4.602 11.172 1.655 16.439-3.246 5.806 2.234 11.982 7.788 11.058 5.759-.969 11.436 1.676 14.45 6.737 3.091 5.188 2.609 11.811-1.198 16.48-4.194 5.142.112 12.186 5.742 12.239 5.849.055 10.984 3.656 13.084 9.176 1.872 4.921.92 10.588-2.262 14.575h-45.751c8.956-11.63 7.73-28.999-2.585-39.313-11.422-11.42-30.807-11.446-42.255 0l-35.757 35.757c-1.11 1.111-2.126 2.299-3.042 3.557h-33.403c8.666-20.295-7.215-43.928-29.307-43.595-22.087-.333-37.975 23.304-29.305 43.595h-69.739c.755-8.61-2.259-17.327-8.656-23.723l-35.755-35.755c-11.65-11.648-30.605-11.647-42.255 0-11.649 11.649-11.649 30.604 0 42.256l17.222 17.222h-82.61c-3.063-3.799-4.055-9.059-2.436-13.783zm386.691 6.117-7.665 7.665h-42.083l28.708-28.706c5.74-5.742 15.301-5.74 21.041 0 5.741 5.739 5.738 15.302-.001 21.041zm-144.783 7.665c-10.657-10.267-3.219-28.635 11.628-28.596 14.847-.039 22.286 18.331 11.627 28.596zm-135.646 0-27.829-27.828c-5.801-5.802-5.801-15.241 0-21.042 5.801-5.803 15.24-5.803 21.042 0l35.755 35.755c3.509 3.509 4.975 8.419 4.14 13.115zm358.712 15c-1.901 80.789-47.906 158.061-117.866 198.124h-175.52c-9.882 0-8.981 15.886.667 15h169.571v15.595c0 7.362-5.99 13.353-13.353 13.353h-208.764c-7.363 0-13.353-5.99-13.353-13.353v-15.595h24.562c9.357.824 11.649-15 .672-15h-30.516c-34.958-20.32-64.317-49.485-84.98-84.443-20.327-34.388-31.631-73.54-32.885-113.681z"/></g></svg>