<svg id="Capa_1" enable-background="new 0 0 512 512" height="512" viewBox="0 0 512 512" width="512" xmlns="http://www.w3.org/2000/svg"><g><path d="m261.812 342.992c-1.171 0-2.324-.298-3.349-.865-15.572-7.785-21.884-26.72-14.098-42.292 1.375-2.751 3.146-5.286 5.256-7.525 2.142-2.474 5.724-3.109 8.586-1.522 15.572 7.785 21.884 26.72 14.098 42.292-1.376 2.751-3.146 5.286-5.256 7.525-1.316 1.518-3.227 2.389-5.237 2.387zm-5.217-36.332c-3.242 6.576-1.842 14.495 3.459 19.56 3.25-6.575 1.848-14.498-3.459-19.56z"/><path d="m280.355 351.246c-8.821-.135-17.218-3.804-23.31-10.185-2.317-2.313-2.695-5.934-.906-8.676 8.862-14.985 28.193-19.95 43.179-11.088 2.659 1.573 5.073 3.527 7.163 5.802 2.317 2.313 2.695 5.934.906 8.676-5.179 8.486-13.964 14.127-23.836 15.305-1.062.11-2.129.165-3.196.166zm-8.441-16.128c6.33 3.701 14.331 2.86 19.754-2.076-6.332-3.698-14.331-2.858-19.754 2.076z"/><path d="m245.532 364.627c-1.182-.007-2.342-.317-3.37-.899-17.648-8.784-24.835-30.212-16.051-47.86 1.573-3.16 3.606-6.069 6.032-8.633 2.142-2.474 5.724-3.109 8.586-1.522 17.65 8.781 24.839 30.208 16.058 47.858-1.573 3.161-3.605 6.071-6.032 8.635-1.306 1.527-3.213 2.411-5.223 2.421zm-6.442-43.243c-5.169 8.872-3.164 20.18 4.739 26.735 5.169-8.872 3.165-20.181-4.739-26.735z"/><path d="m267.223 374.258c-10.009-.16-19.536-4.33-26.444-11.575-2.313-2.312-2.691-5.929-.906-8.669 10.003-16.983 31.88-22.64 48.863-12.637 3.046 1.794 5.809 4.032 8.198 6.638 2.319 2.312 2.7 5.932.913 8.676-5.869 9.625-15.826 16.028-27.018 17.373-1.199.13-2.402.195-3.606.194zm-11.86-17.491c8.479 5.775 19.891 4.576 26.984-2.837-8.481-5.766-19.887-4.567-26.984 2.837z"/><path d="m227.736 388.227c-1.174-.001-2.328-.299-3.356-.865-18.645-9.269-26.246-31.897-16.977-50.542 1.665-3.349 3.819-6.432 6.391-9.147 2.143-2.478 5.73-3.113 8.593-1.522 18.645 9.269 26.246 31.897 16.977 50.542-1.665 3.349-3.819 6.432-6.391 9.147-1.315 1.519-3.227 2.39-5.237 2.387zm-7.022-46.515c-6.095 9.936-3.801 22.859 5.341 30.09 6.104-9.934 3.809-22.864-5.341-30.09z"/><path d="m250.935 398.53c-10.576-.166-20.643-4.573-27.939-12.233-2.317-2.313-2.695-5.934-.906-8.676 10.562-17.94 33.667-23.921 51.607-13.359 3.226 1.899 6.15 4.268 8.678 7.029 2.319 2.312 2.7 5.932.913 8.676-6.198 10.173-16.72 16.942-28.547 18.363-1.264.135-2.534.202-3.806.2zm-13.443-18.142c9.477 6.789 22.534 5.419 30.395-3.19-9.477-6.788-22.534-5.418-30.395 3.19z"/><path d="m273.187 328.005c-3.178-.002-5.946-2.168-6.711-5.251-4.922-16.703 4.628-34.234 21.332-39.156 2.958-.872 6.028-1.305 9.112-1.285 3.267-.103 6.166 2.082 6.967 5.251 4.918 16.704-4.636 34.233-21.341 39.151-2.955.87-6.022 1.302-9.103 1.283zm17.989-30.782c-7.023 2.109-11.864 8.533-11.956 15.865 7.025-2.105 11.868-8.531 11.956-15.865z"/><path d="m212.701 408.355c-3.821 0-6.919-3.098-6.919-6.919 0-1.497.486-2.954 1.384-4.151l60.485-80.349c2.295-3.055 6.633-3.671 9.688-1.375 3.051 2.293 3.67 6.623 1.383 9.678l-60.485 80.356c-1.309 1.739-3.359 2.761-5.536 2.76z"/><path d="m439.379 442.845c20.09-117.249-2.923-196.206-19.979-235.123 1.507-1.955 2.871-4.035 4.058-6.236 5.043-9.428 6.042-20.5 2.768-30.678l-12.692-49.093c-.883-20.727-34.124-33.099-76.532-39.457-2.008-2.466-4.095-4.866-6.278-7.18-5.454-5.222-9.899-11.405-13.111-18.238-1.047-3.031-1.861-6.137-2.435-9.292-.929-6.034-2.938-11.851-5.93-17.173-7.964-12.662-23.919-18.086-47.339-16.121-5.005.206-9.942 1.234-14.613 3.044-4.759 2.299-9.114 5.353-12.897 9.043-1.19 1.059-2.38 2.11-3.605 3.1-7.966 5.841-16.658 10.623-25.856 14.225-13.575 6.054-27.613 12.316-37.238 24.846-3.633 5.213-6.688 10.792-9.146 16.632-34.075 6.905-59.028 18.513-60.058 36.302l-12.626 48.898c-3.405 10.305-2.447 21.554 2.65 31.135 1.205 2.235 2.593 4.343 4.128 6.324-17.086 38.887-40.099 117.768-20 235.063-6.496 4.926-10.392 12.544-10.584 20.694-.348 14.776 11.348 27.037 26.124 27.386h.055c55.704 4.809 111.747 7.216 167.791 7.216 55.933 0 111.81-2.429 167.14-7.216 12.587.148 23.524-8.619 26.119-20.937 2.498-10.227-1.416-20.95-9.914-27.164zm-39.679-320.533c-.008.187-.007.375.001.563-.234 4.248-5.219 9.036-14.363 13.681-3.668-4.371-8.325-7.85-13.633-10.099-2.444-1.269-4.808-2.688-7.078-4.248-6.623-5.787-11.901-12.951-15.464-20.992-.539-1.044-1.101-2.077-1.667-3.106 34.017 6.561 51.84 16.266 52.204 24.201zm-221.054-45.422c7.493-9.756 19.352-15.042 31.903-20.639 10.314-4.079 20.045-9.499 28.942-16.121 1.377-1.093 2.712-2.276 4.055-3.459 2.706-2.677 5.804-4.926 9.188-6.67 3.31-1.189 6.787-1.852 10.302-1.965 17.913-1.536 29.488 1.757 34.477 9.686 2.087 3.959 3.481 8.246 4.124 12.675.714 3.864 1.732 7.665 3.044 11.368 3.774 8.488 9.138 16.175 15.803 22.646 3.073 3.214 5.965 6.595 8.663 10.129 2.909 4.237 5.548 8.653 7.901 13.222 4.459 9.903 11.117 18.658 19.47 25.6 2.741 1.91 5.6 3.645 8.559 5.196 2.345.93 4.521 2.205 6.468 3.766-24.824 8.702-64.893 15.704-115.545 15.704-50.918 0-91.139-7.076-115.932-15.841 1.957-2.46 4.086-4.781 6.385-6.936 3.808-3.744 7.321-7.776 10.51-12.06 4.873-7.536 8.678-15.711 11.306-24.292 2.298-7.83 5.799-15.255 10.377-22.009zm-25.559 23.669c-1.988 5.12-4.457 10.044-7.395 14.697-2.791 3.7-5.855 7.185-9.168 10.427-3.558 3.349-6.77 7.037-9.612 10.999-9.527-4.798-14.632-9.756-14.632-14.119 0-7.06 13.91-15.553 40.807-22.004zm-53.939 73.708 8.693-33.652c23.227 20.6 85.995 31.279 148.159 31.279 62.15 0 124.903-10.657 148.143-31.268l8.833 34.042c2.214 6.74 1.584 14.091-1.744 20.355-4.214 7.695-11.382 13.339-19.85 15.63-32.291 9.548-81.643 15.028-135.383 15.028-53.739 0-103.057-5.48-135.383-15.028-8.468-2.291-15.637-7.935-19.85-15.63-3.361-6.404-3.947-13.908-1.618-20.756zm336.668 292.642c-1.317 6.177-6.913 10.493-13.222 10.198-111.037 9.551-222.69 9.551-333.727 0-6.113.105-11.428-4.175-12.627-10.171-1.524-5.818 1.411-11.88 6.919-14.294.738-.378 1.417-.863 2.013-1.439 1.599-1.601 2.315-3.882 1.917-6.109-20.105-111.937-.046-187.952 16.323-227.254 4.038 2.702 8.509 4.783 13.283 6.105 33.55 9.908 84.321 15.595 139.306 15.595s105.756-5.68 139.285-15.588c4.808-1.331 9.309-3.433 13.37-6.163 16.338 39.34 36.374 115.437 16.285 227.306-.399 2.227.317 4.509 1.917 6.109.626.603 1.34 1.107 2.117 1.495 5.453 2.419 8.351 8.436 6.841 14.21z"/></g></svg>