<svg height="511pt" viewBox="-25 0 511 511.99909" width="511pt" xmlns="http://www.w3.org/2000/svg"><path d="m42.953125 66.824219c0-4.140625-3.359375-7.5-7.5-7.5-4.144531 0-7.5 3.359375-7.5 7.5v17.941406c0 4.140625 3.355469 7.5 7.5 7.5 4.140625 0 7.5-3.359375 7.5-7.5zm0 0"/><path d="m59.792969 92.265625c4.140625 0 7.5-3.359375 7.5-7.5v-17.941406c0-4.140625-3.359375-7.5-7.5-7.5-4.144531 0-7.5 3.359375-7.5 7.5v17.941406c0 4.140625 3.355469 7.5 7.5 7.5zm0 0"/><path d="m84.132812 92.265625c4.140626 0 7.5-3.359375 7.5-7.5v-17.941406c0-4.140625-3.359374-7.5-7.5-7.5-4.144531 0-7.5 3.359375-7.5 7.5v17.941406c0 4.140625 3.355469 7.5 7.5 7.5zm0 0"/><path d="m108.46875 92.265625c4.144531 0 7.5-3.359375 7.5-7.5v-17.941406c0-4.140625-3.355469-7.5-7.5-7.5-4.140625 0-7.5 3.359375-7.5 7.5v17.941406c0 4.140625 3.359375 7.5 7.5 7.5zm0 0"/><path d="m132.808594 92.265625c4.144531 0 7.5-3.359375 7.5-7.5v-17.941406c0-4.140625-3.355469-7.5-7.5-7.5-4.140625 0-7.5 3.359375-7.5 7.5v17.941406c0 4.140625 3.359375 7.5 7.5 7.5zm0 0"/><path d="m157.148438 92.265625c4.144531 0 7.5-3.359375 7.5-7.5v-17.941406c0-4.140625-3.355469-7.5-7.5-7.5-4.140626 0-7.5 3.359375-7.5 7.5v17.941406c0 4.140625 3.359374 7.5 7.5 7.5zm0 0"/><path d="m181.488281 92.265625c4.140625 0 7.5-3.359375 7.5-7.5v-17.941406c0-4.140625-3.359375-7.5-7.5-7.5s-7.5 3.359375-7.5 7.5v17.941406c0 4.140625 3.359375 7.5 7.5 7.5zm0 0"/><path d="m205.828125 92.265625c4.140625 0 7.5-3.359375 7.5-7.5v-17.941406c0-4.140625-3.359375-7.5-7.5-7.5-4.144531 0-7.5 3.359375-7.5 7.5v17.941406c0 4.140625 3.355469 7.5 7.5 7.5zm0 0"/><path d="m230.167969 92.265625c4.140625 0 7.5-3.359375 7.5-7.5v-17.941406c0-4.140625-3.359375-7.5-7.5-7.5-4.144531 0-7.503907 3.359375-7.503907 7.5v17.941406c0 4.140625 3.359376 7.5 7.503907 7.5zm0 0"/><path d="m254.507812 92.265625c4.140626 0 7.5-3.359375 7.5-7.5v-17.941406c0-4.140625-3.359374-7.5-7.5-7.5-4.144531 0-7.503906 3.359375-7.503906 7.5v17.941406c0 4.140625 3.359375 7.5 7.503906 7.5zm0 0"/><path d="m278.84375 92.265625c4.144531 0 7.5-3.359375 7.5-7.5v-17.941406c0-4.140625-3.355469-7.5-7.5-7.5-4.140625 0-7.5 3.359375-7.5 7.5v17.941406c0 4.140625 3.359375 7.5 7.5 7.5zm0 0"/><path d="m303.183594 92.265625c4.144531 0 7.5-3.359375 7.5-7.5v-17.941406c0-4.140625-3.355469-7.5-7.5-7.5-4.144532 0-7.5 3.359375-7.5 7.5v17.941406c0 4.140625 3.355468 7.5 7.5 7.5zm0 0"/><path d="m327.523438 92.265625c4.144531 0 7.5-3.359375 7.5-7.5v-17.941406c0-4.140625-3.355469-7.5-7.5-7.5-4.144532 0-7.5 3.359375-7.5 7.5v17.941406c0 4.140625 3.355468 7.5 7.5 7.5zm0 0"/><path d="m100.96875 174.527344v16.617187c0 4.140625 3.359375 7.5 7.5 7.5 4.144531 0 7.5-3.359375 7.5-7.5v-16.617187c0-2.054688 1.675781-3.730469 3.730469-3.730469h123.578125c2.054687 0 3.730468 1.675781 3.730468 3.730469v123.578125c0 2.054687-1.675781 3.730469-3.730468 3.730469h-123.578125c-2.054688 0-3.730469-1.675782-3.730469-3.730469v-71.960938c0-4.144531-3.355469-7.5-7.5-7.5-4.140625 0-7.5 3.355469-7.5 7.5v71.960938c0 10.328125 8.402344 18.730469 18.730469 18.730469h123.578125c10.328125 0 18.730468-8.402344 18.730468-18.730469v-123.578125c0-10.328125-8.402343-18.730469-18.730468-18.730469h-123.578125c-10.328125 0-18.730469 8.402344-18.730469 18.730469zm0 0"/><path d="m135.925781 192.710938c-5.992187 5.988281-10.265625 13.132812-12.042969 20.113281-4.390624 17.269531 7.707032 29.414062 25.011719 25.011719 6.980469-1.777344 14.125-6.054688 20.113281-12.042969 13.574219-13.570313 16.941407-31.472657 7.664063-40.746094-9.273437-9.277344-27.175781-5.910156-40.746094 7.664063zm22.476563 22.476562c0 .101562-6.121094 6.308594-13.203125 8.109375-2.894531.738281-5.324219.566406-6.332031-.445313-1.011719-1.007812-1.183594-3.433593-.445313-6.328124 2.738281-10.769532 15.578125-21.746094 24.625-21.746094 1.40625 0 2.460937.316406 3.019531.875 2.09375 2.09375.769532 11.097656-7.664062 19.535156zm0 0"/><path d="m191.542969 252.171875c-5.175781-5.179687-11.371094-8.882813-17.4375-10.425781-15.386719-3.910156-26.378907 7.050781-22.460938 22.460937 3.71875 14.628907 19.605469 28.660157 33.960938 28.660157 12.050781 0 19.738281-9.984376 16.363281-23.257813-1.542969-6.066406-5.246094-12.257813-10.425781-17.4375zm-4.171875 25.304687c-.34375.34375-1.78125.664063-4.167969.058594-7.1875-1.832031-15.179687-9.789062-17.023437-17.023437-.605469-2.386719-.285157-3.824219.058593-4.167969.207031-.203125.789063-.398438 1.730469-.398438 6.828125 0 17.257812 8.710938 19.460938 17.363282.605468 2.386718.285156 3.820312-.058594 4.167968zm0 0"/><path d="m240.003906 222.59375c0-11.878906-12.871094-20.839844-29.941406-20.839844s-29.945312 8.960938-29.945312 20.839844c0 11.882812 12.875 20.84375 29.945312 20.84375s29.941406-8.960938 29.941406-20.84375zm-44.886718 0c0-1.5 5.140624-5.839844 14.945312-5.839844s14.941406 4.339844 14.941406 5.839844c0 1.503906-5.136718 5.84375-14.941406 5.84375s-14.945312-4.339844-14.945312-5.84375zm0 0"/><path d="m459.121094 396.210938c-.605469-4.101563-4.429688-6.9375-8.515625-6.324219-4.097657.605469-6.929688 4.417969-6.324219 8.519531 1.40625 9.511719 1.519531 18.21875 1.226562 24.890625-5.996093-5.449219-13.699218-13.460937-20.488281-23.660156-1.683593-2.53125-4.726562-3.800781-7.714843-3.203125-2.980469.597656-5.308594 2.9375-5.890626 5.921875-2.332031 11.960937-6.375 22.328125-9.824218 29.6875-8.101563-17.304688-12.757813-36.367188-11.605469-55.144531.203125-3.246094-1.710937-6.25-4.734375-7.441407-3.023438-1.191406-6.46875-.300781-8.539062 2.207031-12.933594 15.695313-30.574219 26.578126-49.460938 33.417969 6.730469-18.628906 17.589844-36.386719 33.433594-49.445312 2.511718-2.066407 3.402344-5.515625 2.210937-8.539063-1.191406-3.023437-4.199219-4.9375-7.441406-4.734375-18.847656 1.164063-37.929687-3.535156-55.164063-11.609375 7.335938-3.4375 17.6875-7.472656 29.707032-9.816406 2.984375-.582031 5.324218-2.910156 5.917968-5.894531.597657-2.980469-.667968-6.027344-3.199218-7.710938-10.144532-6.75-18.164063-14.46875-23.632813-20.480469 12.28125-.53125 31.460938.320313 50.003907 8.039063 16.082031 6.691406 28.726562 17.355469 36.5 25.121094 2.933593 2.929687 7.675781 2.929687 10.605468 0l19.207032-19.207031 6.148437 6.148437-19.207031 19.207031c-2.929688 2.925782-2.929688 7.675782-.003906 10.605469 9.324218 9.332031 16.773437 19.4375 22.136718 30.039063 1.871094 3.695312 6.378906 5.175781 10.078125 3.304687 3.695313-1.871094 5.175781-6.382813 3.304688-10.078125-5.042969-9.964844-11.667969-19.503906-19.738281-28.433594l17.144531-17.144531c4.140625-4.144531 4.148437-10.851563 0-14.996094l-12.367188-12.371093c-4.136719-4.132813-10.859375-4.128907-14.996093.003906l-17.148438 17.148437c-15.191406-13.6875-31.710938-23.195312-50.894531-28.222656l10.726562-219.140625c.183594-3.757812-1.238281-7.441406-3.898437-10.105469l-4.972656-4.972656 6.453124-6.453125c2.355469-2.351562 3.738282-5.476562 3.902344-8.800781l.390625-7.960938c.492188-10.09375-7.582031-18.582031-17.699219-18.582031h-326.542968c-10.109375 0-18.1875002 8.480469-17.695313 18.582031l22.078125 451.007813c.453125 9.269531 7.480469 16.722656 16.707032 17.722656l9.902343 1.074219c63.625 23.484375 132.398438 29.632812 199.554688 17.621093 10.890625 5.683594 22.980469 7.207032 34.277343 5.0625l95.265626-18.085937c29.371093-5.574219 52.957031-26.070313 62.851562-53.632813 3.589844 2.921876 5.953125 4.53125 6.222656 4.710938 4.445313 2.988281 10.53125.480469 11.550782-4.804688.148437-.785156 3.667968-19.527343.191406-43.046874zm-405.566406 77.789062c-1.175782-.4375-.71875-.308594-12.636719-1.601562-1.84375-.199219-3.246094-1.6875-3.335938-3.542969l-22.078125-451.003907c-.078125-1.550781 1.160156-2.851562 2.710938-2.851562h326.542968c1.554688 0 2.789063 1.296875 2.714844 2.851562l-.359375 7.328126-8.238281 8.242187c-4.632812 4.625-4.636719 12.121094-.003906 16.753906l6.691406 6.6875-10.582031 216.183594c-7.273438-1.011719-14.050781-1.367187-19.957031-1.367187 11.78125-240.707032 2.679687-54.734376 6.976562-142.511719.601562-12.269531-9.15625-22.613281-21.535156-22.613281h-36.269532c-4.140624 0-7.5 3.355468-7.5 7.5 0 4.140624 3.359376 7.5 7.5 7.5h36.269532c3.753906 0 6.734375 3.132812 6.550781 6.878906-2.636719 53.898437-4.355469 88.984375-7.046875 144.023437-4.039062.429688-6.511719.890625-6.878906.964844-5.257813 1.015625-7.808594 7.078125-4.804688 11.546875.183594.273438 1.789063 2.636719 4.714844 6.222656-27.566406 9.898438-48.058594 33.480469-53.636719 62.855469l-18.082031 95.265625c-.660156 3.464844-.945312 6.945312-.910156 10.402344-49.753906 5.863281-100.402344.609375-149-16.488282l-15.410156-314.792968c-.183594-3.746094 2.796874-6.878906 6.550781-6.878906h166.683593c4.144532 0 7.5-3.355469 7.5-7.5 0-4.144532-3.355468-7.5-7.5-7.5h-166.683593c-12.285157 0-22.140625 10.246093-21.535157 22.613281l15.652344 319.785156c.148438 3.003906 2.078125 5.632813 4.898438 6.671875 51.9375 19.136719 106.785156 25.410156 161.113281 18.925781 2.082031 6.839844 5.566406 13.25 10.296875 18.8125-60.402344 8.550781-122.085938 1.945313-179.382812-19.363281zm321.949218 4.246094-95.265625 18.085937c-26.175781 4.96875-49.214843-17.917969-44.222656-44.222656l18.082031-95.265625c5.054688-26.628906 24.097656-46.777344 50.121094-53.421875 2.253906 2.199219 4.734375 4.480469 7.4375 6.773437-18.410156 5.890626-30.632812 13.886719-31.269531 14.308594-4.464844 2.953125-4.496094 9.535156-.003907 12.507813 1.132813.753906 25.390626 16.597656 57.515626 19.929687-22.417969 25.761719-28.851563 56.414063-29.132813 57.796875-1.070313 5.253907 3.578125 9.914063 8.84375 8.84375 1.382813-.28125 32.035156-6.714843 57.796875-29.132812 3.332031 32.121093 19.175781 56.382812 19.925781 57.515625 2.964844 4.476562 9.546875 4.472656 12.507813-.003906.421875-.636719 8.421875-12.859376 14.3125-31.273438 2.292968 2.703125 4.574218 5.1875 6.773437 7.441406-6.644531 26.023438-26.792969 45.066406-53.421875 50.117188zm0 0"/><path d="m269.46875 440.5c0 4.140625-3.359375 7.5-7.5 7.5-4.144531 0-7.5-3.359375-7.5-7.5s3.355469-7.5 7.5-7.5c4.140625 0 7.5 3.359375 7.5 7.5zm0 0"/><path d="m299.347656 470.378906c0 4.144532-3.355468 7.5-7.5 7.5-4.140625 0-7.5-3.355468-7.5-7.5 0-4.140625 3.359375-7.5 7.5-7.5 4.144532 0 7.5 3.359375 7.5 7.5zm0 0"/><path d="m274.359375 407.011719c0 4.140625-3.359375 7.5-7.5 7.5-4.144531 0-7.503906-3.359375-7.503906-7.5 0-4.144531 3.359375-7.5 7.503906-7.5 4.140625 0 7.5 3.355469 7.5 7.5zm0 0"/><path d="m303.597656 436.25c0 4.144531-3.359375 7.5-7.5 7.5s-7.5-3.355469-7.5-7.5c0-4.140625 3.359375-7.5 7.5-7.5s7.5 3.359375 7.5 7.5zm0 0"/><path d="m332.839844 465.492188c0 4.140624-3.359375 7.5-7.503906 7.5-4.140626 0-7.5-3.359376-7.5-7.5 0-4.144532 3.359374-7.5 7.5-7.5 4.144531 0 7.503906 3.355468 7.503906 7.5zm0 0"/><path d="m312.734375 368.632812c0 4.140626-3.355469 7.5-7.5 7.5-4.140625 0-7.5-3.359374-7.5-7.5 0-4.144531 3.359375-7.5 7.5-7.5 4.144531 0 7.5 3.355469 7.5 7.5zm0 0"/><path d="m371.21875 427.113281c0 4.140625-3.359375 7.5-7.5 7.5-4.144531 0-7.5-3.359375-7.5-7.5 0-4.144531 3.355469-7.5 7.5-7.5 4.140625 0 7.5 3.355469 7.5 7.5zm0 0"/><path d="m307.847656 402.121094c0 4.144531-3.359375 7.5-7.5 7.5-4.144531 0-7.5-3.355469-7.5-7.5 0-4.140625 3.355469-7.5 7.5-7.5 4.140625 0 7.5 3.359375 7.5 7.5zm0 0"/><path d="m337.726562 432c0 4.144531-3.355468 7.503906-7.5 7.503906-4.140624 0-7.5-3.359375-7.5-7.503906 0-4.140625 3.359376-7.5 7.5-7.5 4.144532 0 7.5 3.359375 7.5 7.5zm0 0"/><path d="m366.96875 461.242188c0 4.140624-3.359375 7.5-7.5 7.5-4.144531 0-7.503906-3.359376-7.503906-7.5 0-4.140626 3.359375-7.5 7.503906-7.5 4.140625 0 7.5 3.359374 7.5 7.5zm0 0"/><path d="m278.605469 372.878906c0 4.144532-3.355469 7.5-7.5 7.5-4.140625 0-7.5-3.355468-7.5-7.5 0-4.140625 3.359375-7.5 7.5-7.5 4.144531 0 7.5 3.359375 7.5 7.5zm0 0"/><path d="m265.21875 474.628906c0 4.144532-3.359375 7.5-7.5 7.5-4.144531 0-7.5-3.355468-7.5-7.5 0-4.140625 3.355469-7.5 7.5-7.5 4.140625 0 7.5 3.359375 7.5 7.5zm0 0"/></svg>