<?xml version="1.0" encoding="iso-8859-1"?>
<!-- Generator: Adobe Illustrator 18.0.0, SVG Export Plug-In . SVG Version: 6.00 Build 0)  -->
<!DOCTYPE svg PUBLIC "-//W3C//DTD SVG 1.1//EN" "http://www.w3.org/Graphics/SVG/1.1/DTD/svg11.dtd">
<svg version="1.1" id="Capa_1" xmlns="http://www.w3.org/2000/svg" xmlns:xlink="http://www.w3.org/1999/xlink" x="0px" y="0px"
	 viewBox="0 0 458.811 458.811" style="enable-background:new 0 0 458.811 458.811;" xml:space="preserve">
<g>
	<path d="M390.865,119.017c-43.198-28.921-100.539-44.849-161.46-44.849s-118.262,15.928-161.46,44.849
		C24.13,148.351,0,187.554,0,229.405s24.13,81.055,67.945,110.389c43.198,28.921,100.539,44.849,161.46,44.849
		s118.262-15.928,161.46-44.849c43.815-29.334,67.945-68.537,67.945-110.389S434.681,148.351,390.865,119.017z M229.405,374.643
		C108.425,374.643,10,309.489,10,229.405S108.425,84.168,229.405,84.168s219.405,65.153,219.405,145.237
		S350.386,374.643,229.405,374.643z"/>
	<path d="M363.357,173.289c0.072-3.422-0.249-7.061-1.177-10.852c-3.885-15.866-16.861-29.321-38.568-39.991
		c-55.571-27.314-100.692-8.913-109.338-4.862c-10.34-1.264-22.621-1.64-37.21-0.639c-21.78,1.492-51.591,7.846-69.917,29.645
		c-7.85,9.338-10.958,18.422-12.141,23.249c-8.867,2.448-16.729,6.131-23.528,11.042c-10.227,7.387-15.956,16.707-17.028,27.701
		c-2.002,20.521,13.165,40.323,18.228,46.302c-0.373,3.53-0.484,6.853-0.421,9.884c0.521,25.169,23.309,39.992,64.305,41.989
		c2.236,13.148,11.672,24.531,24.94,28.684c15.063,4.714,32.951,7.071,53.522,7.071c20.749,0,44.227-2.397,70.287-7.193
		c43.402-7.985,68.967-23.279,76.117-45.494c11.055-7.551,16.828-17.057,17.14-28.286c0.072-2.598-0.162-5.212-0.657-7.824
		c13.504-12.43,19.578-25.483,18.029-38.836C393.425,193.184,371.36,178.093,363.357,173.289z M256.418,307.132
		c0,0-17.902,2.103-37.555,1.679c-24.641-0.531-41.609-4.84-47.781-12.131c-2.787-3.294-3.385-7.214-1.88-12.337
		c10.9-37.094,75.825-28.089,76.478-27.995c0.24,0.035,0.482,0.053,0.726,0.053c22.783,0,33.896,14.916,37.831,21.85
		c-3.59,1.968-8.744,3.67-14.999,5.092c-1.604-3.641-4.691-8.622-10.498-12.756c-10.336-7.357-25.205-9.415-44.19-6.111
		c-8.523,1.482-34.461,5.993-33.276,20.115c0.676,8.065,11.093,13.74,20.046,13.811c0.547,0.015,3.626,0.095,8.381,0.095
		c8.416,0,22.079-0.25,36.212-1.549c7.786-0.715,21.051-2.877,21.165-2.903c18.979-3.719,29.541-9.725,32.113-18.188
		c0.803-2.643-0.688-5.436-3.33-6.238c-1.666-0.506-3.385-0.1-4.632,0.926c-6.062-9.315-19.556-24.003-44.468-24.141
		c-2.738-0.371-19.298-2.396-37.448,0.152c-26.904,3.778-44.092,15.87-49.703,34.971c-2.533,8.619-0.633,14.921,2.042,19.157
		c-6.335-2.792-11.171-6.177-13.024-10.178c-0.171-0.371-0.436-0.941-0.619-1.732c5.585-21.838,21.06-46.013,61.188-52.434
		c61.753-9.878,88.754,19.792,93.54,25.84c5.987,7.566,7.352,14.15,6.047,17.319C304.064,290.955,293.621,301.851,256.418,307.132z
		 M197.462,279.364l27.317,8.958c-7.714,0.269-23.31,0.078-23.35,0.078c-2.703-0.013-5.317-0.908-7.22-1.948
		c-2.057-1.124-2.155-4.069-0.171-5.318C194.897,280.594,196.014,279.995,197.462,279.364z M250.938,286.376l-36.012-11.809
		c0.442-0.081,0.877-0.162,1.335-0.241c5.514-0.959,10.349-1.373,14.597-1.373c17.759,0,25.175,7.255,28.185,12.316
		C256.447,285.677,253.731,286.043,250.938,286.376z M139.084,279.729c-16.487-1.91-27.973-6.48-32.544-13.034
		c-2.545-3.648-3.053-8.065-1.555-13.504c6.648-24.122,25.054-38.976,59.19-47.48c-1.191,3.678-2.184,7.306-3.009,10.819
		c-16.645,3.645-30.595,11.4-40.498,22.548c-7.175,8.072-9.367,15.252-6.516,21.342c4.255,9.089,18.768,11.59,28.575,12.219
		C141.128,275.046,139.903,277.412,139.084,279.729z M88.049,216.439c-0.803-1.852-1.758-5.085-0.271-7.863
		c1.185-2.214,4.705-5.586,15.055-7.368c-2.382,1.956-4.647,3.988-6.778,6.106C93.032,210.319,90.382,213.371,88.049,216.439z
		 M204.53,152.833c-38.858-7.466-60.935,3.032-72.647,13.271c-0.119,0.104-0.232,0.21-0.35,0.314
		c-1.813-0.09-3.601-0.148-5.364-0.174c4.415-6.123,15.186-15.354,41.005-19.37c23.639-3.677,38.395-1.342,46.796,1.417
		C210.699,149.618,207.546,151.124,204.53,152.833z M138.466,173.632c12.552-10.975,31.14-15.219,54.181-12.524
		c-2.048,1.729-4.026,3.558-5.916,5.513c-1.106,1.145-2.167,2.315-3.193,3.504c-21.024,3.029-39.288,8.082-54.666,15.108
		C130.936,181.693,134.001,177.537,138.466,173.632z M193.921,173.569c14.47-14.969,34.415-22.438,59.433-22.169
		c25.767,0.269,44.701,7.911,56.275,22.718c14.973,19.152,14.51,46.185,12.877,60.71c-1.452-1.429-2.969-2.81-4.543-4.141
		c2.098-38.11-12.753-52.074-18.427-57.4c-0.469-0.439-0.867-0.808-1.166-1.124c-5.574-5.891-28.903-19.862-69.367-13.842
		c-19.134,2.846-34.021,15.09-44.248,36.393c-5.81,12.1-9.99,26.981-12.448,44.249c-1.68,1.036-3.29,2.11-4.822,3.223
		C168.61,225.879,173.509,194.688,193.921,173.569z M313.515,163.386c-11.449-12.018-27.514-19.151-47.939-21.288
		c-0.491-0.754-1.115-1.629-1.895-2.592c9.977-1.85,27.967-2.977,46.372,6.84c16.635,8.872,19.934,19.161,20.16,25.407
		C322.665,166.936,316.157,164.339,313.515,163.386z M243.277,199.44l4.959,8.906c-8.062-0.607-15.384-0.783-21.917-0.531
		c0.661-0.826,1.373-1.62,2.153-2.364C232.384,201.717,237.257,199.736,243.277,199.44z M260.332,209.514l-5.033-9.038
		c6.722,1.427,11.826,4.25,15.219,8.448c0.588,0.728,1.082,1.456,1.508,2.167C268.81,210.598,264.818,210.038,260.332,209.514z
		 M283.634,213.208c-2.075-7.432-9.698-22.925-37.277-23.787c-9.984-0.301-18.344,2.647-24.788,8.795
		c-9.096,8.68-11.803,21.438-12.608,28.051c-0.451,0.069-3.753,0.603-4.928,0.827c0.603-5.08,1.93-12.528,4.849-19.895
		c6.458-16.303,17.539-24.691,32.935-24.933c17.422-0.265,31.286,4.445,40.04,13.644c5.093,5.351,8.429,12.335,9.505,19.572
		C288.831,214.6,286.254,213.833,283.634,213.208z M301.725,219.905c-0.139-11.39-4.63-22.49-12.624-30.89
		c-7.482-7.861-21.78-17.182-47.44-16.748c-19.64,0.307-34.226,11.203-42.18,31.512c-4.038,10.309-5.333,20.468-5.749,25.796
		c-3.688,1.082-7.154,2.315-10.392,3.692c2.366-13.229,5.862-24.711,10.431-34.226c8.703-18.129,21.053-28.501,36.704-30.83
		c20.469-3.046,35.281-0.386,44.105,2.38c9.908,3.106,15.389,7.241,16.527,8.443c0.408,0.433,0.945,0.942,1.586,1.543
		c4.828,4.533,15.542,14.597,15.488,42.975C306.092,222.248,303.936,221.031,301.725,219.905z M148.288,262.829
		c-9.995-0.085-23.022-2.249-25.08-6.65c-0.955-2.043,0.844-5.854,4.936-10.458c1.318-1.483,2.695-2.852,4.11-4.137
		c2.385,7.269,7.489,15.522,16.962,19.795C148.9,261.861,148.59,262.345,148.288,262.829z M157.157,251.285
		c-0.564,0.601-1.116,1.206-1.651,1.815c-10.449-3.363-13.642-13.125-14.595-17.984c6.072-3.727,12.39-6.168,18.138-7.755
		C157.293,238.456,157.122,247.328,157.157,251.285z M310.577,255.973c-14.422-18.226-45.61-35.051-91.339-30.949
		c0.341-2,0.869-4.371,1.681-6.849c9.56-0.852,21.829-0.519,35.755,0.99c12.323,1.339,21.691,3.131,21.78,3.148
		c27.873,5.395,52.082,28.941,53.966,52.489c0.7,8.75-9.271,15.094-20.69,19.338c2.696-3.365,4.713-6.988,6.297-10.836
		C321.066,275.926,318.281,265.708,310.577,255.973z M324.995,180.184c9.309,5.928,20.354,15.686,26.087,30.652
		c-9.317-9.395-18.228-16.332-21.634-18.883C328.239,187.802,326.752,183.872,324.995,180.184z M366.026,228.327
		c-0.434-0.609-0.873-1.216-1.32-1.817c-0.618-7.665-2.43-14.945-5.379-21.742c4.157,2.527,6.859,5.596,8.055,9.183
		C369.03,218.895,367.718,224.249,366.026,228.327z M319.199,131.421c18.868,9.273,30.051,20.471,33.238,33.278
		c2.488,9.999-0.562,18.945-2.98,23.952c-2.913-3.559-6.22-6.909-9.915-10.026c0.611-2.71,1.192-7.42-0.13-13.151
		c-1.777-7.701-7.498-18.802-24.654-27.952c-26.622-14.199-51.895-8.615-59.999-6.196c-4.979-3.509-11.827-7.069-21.147-9.835
		C251.682,116.893,283.198,113.725,319.199,131.421z M177.747,126.922c44.062-3.017,64.679,7.059,73.724,14.499
		c-8.333,0.047-16.183,0.887-23.522,2.528c-5.968-4.077-23.968-12.921-62.313-6.955c-36.96,5.749-47.919,21.905-51.082,29.572
		c-2.886,0.213-5.695,0.525-8.424,0.937C110.745,155.12,126.342,130.443,177.747,126.922z M64.401,209.552
		c0.793-8.126,5.022-14.853,12.932-20.564c13.512-9.76,30.813-12.551,45.451-12.747c-4.127,5.895-6.156,11.179-6.997,13.809
		c-20.151,0.484-32.187,5.054-36.886,13.921c-4.651,8.778,0.356,18.869,2.57,22.605c-2.803,5.15-4.816,10.251-6.232,15.158
		C69.875,233.924,63.228,221.576,64.401,209.552z M82.254,264.56c-0.271-13.154,3.125-32.532,20.851-50.152
		c16.036-15.939,40.237-26.94,72.033-32.78c-2.586,4.19-4.8,8.501-6.7,12.834c-41.776,8.999-65.041,26.856-73.093,56.073
		c-2.306,8.366-1.299,15.729,2.993,21.881c6.366,9.128,19.575,14.903,39.218,17.206c-0.415,1.876-0.774,3.698-1.049,5.401
		c-0.092,0.57-0.169,1.139-0.233,1.708C92.297,294.48,82.535,278.142,82.254,264.56z M352.858,283.097
		c-3.943,20.106-27.928,34.763-69.358,42.387c-50.28,9.252-90.322,9.391-119.013,0.413c-10.345-3.238-17.479-12.54-18.352-22.975
		c17.062,14.267,55.015,17.15,59.948,17.468c0.127,0.009,0.255,0.012,0.382,0.011c38.184-0.46,63.264-3.995,80.03-9.893
		c3.233-0.424,15.202-2.188,27.162-6.392c13.817-4.857,30.019-14.023,28.731-30.11c-0.813-10.162-4.885-20.165-11.268-29.105
		c0.398-2.067,0.955-5.355,1.411-9.515c4.156,3.922,8.784,9.282,12.752,15.804C350.057,259.03,355.245,270.933,352.858,283.097z
		 M363.4,274.786c-1.036-22.132-18.088-42.934-30.091-51.79c0.017-1.093,0.023-2.207,0.011-3.343
		c-0.044-4.252-0.318-8.373-0.793-12.361c4.056,3.473,8.879,7.87,13.651,12.852c14.967,15.623,22.71,29.844,22.394,41.123
		C368.432,266.254,366.718,270.73,363.4,274.786z M374.53,243.031c-0.7-1.609-1.475-3.208-2.318-4.793
		c3.001-5.053,8.345-16.278,4.678-27.386c-2.544-7.704-8.747-13.646-18.477-17.714c1.162-2.377,2.414-5.422,3.37-8.97
		c8.288,5.595,22.541,17.217,24.227,31.888C387.032,224.949,383.161,234,374.53,243.031z"/>
</g>
<g>
</g>
<g>
</g>
<g>
</g>
<g>
</g>
<g>
</g>
<g>
</g>
<g>
</g>
<g>
</g>
<g>
</g>
<g>
</g>
<g>
</g>
<g>
</g>
<g>
</g>
<g>
</g>
<g>
</g>
</svg>
