<?xml version="1.0" encoding="iso-8859-1"?>
<!-- Generator: Adobe Illustrator 19.0.0, SVG Export Plug-In . SVG Version: 6.00 Build 0)  -->
<svg version="1.1" id="Capa_1" xmlns="http://www.w3.org/2000/svg" xmlns:xlink="http://www.w3.org/1999/xlink" x="0px" y="0px"
	 viewBox="0 0 511.998 511.998" style="enable-background:new 0 0 511.998 511.998;" xml:space="preserve">
<g>
	<g>
		<path d="M458.251,203.697c-7.965-91.201-22.787-170.059-27.141-192.058c-1.506-7.598-10.305-11.192-16.704-6.787l-11.696,8.055
			c-2.217,1.526-5.197,1.528-7.417-0.001L382.057,3.79c-7.338-5.053-17.2-5.051-24.538,0.001l-13.23,9.115
			c-2.22,1.529-5.2,1.529-7.418,0l-13.231-9.115c-7.342-5.055-17.202-5.052-24.54,0l-13.229,9.115c-2.219,1.529-5.2,1.529-7.419,0
			l-13.228-9.113c-7.341-5.058-17.202-5.056-24.542,0l-13.225,9.112c-2.218,1.529-5.2,1.529-7.419,0L206.81,3.794
			c-7.341-5.057-17.203-5.056-24.543,0.001l-13.221,9.11c-2.219,1.528-5.2,1.529-7.418,0l-13.226-9.113
			c-7.339-5.053-17.201-5.054-24.541,0.001l-13.225,9.112c-2.219,1.528-5.201,1.528-7.419,0.001L91.593,4.898
			c-6.437-4.432-15.328-0.769-16.734,6.943c-3.569,19.56-15.717,90.136-22.149,177.041c-8.28,111.867-4.022,204.914,12.656,276.553
			c4.04,17.353,14.441,32.543,29.287,42.771c7.34,5.056,17.202,5.057,24.542,0.001l13.226-9.113c2.218-1.528,5.2-1.529,7.418,0
			l13.227,9.112c7.341,5.057,17.203,5.056,24.542-0.001l13.221-9.11c2.219-1.529,5.201-1.529,7.419,0l13.224,9.111
			c7.34,5.056,17.203,5.058,24.542,0l13.226-9.112c2.218-1.528,5.199-1.529,7.417,0l13.23,9.114c7.339,5.053,17.199,5.053,24.54,0
			l13.23-9.115c2.215-1.527,5.198-1.53,7.417-0.001l13.232,9.117c7.337,5.053,17.198,5.053,24.539,0l13.231-9.116
			c8.477-5.841,17.252,12.906,32.922,12.906c9.113,0,13.902-5.283,16.547-6.737c12.578-8.662,21.899-20.739,26.956-34.926
			C463.307,411.966,468.605,322.256,458.251,203.697z M88.535,21.116l6.12,4.215c7.339,5.055,17.201,5.054,24.541-0.001
			l13.225-9.112c2.219-1.529,5.2-1.529,7.419,0l13.228,9.113c7.339,5.054,17.201,5.055,24.541-0.002l13.222-9.11
			c2.218-1.529,5.2-1.529,7.419-0.001l13.224,9.111c7.339,5.056,17.201,5.056,24.542,0.001l13.225-9.112
			c2.217-1.529,5.198-1.53,7.418,0l13.23,9.114c7.339,5.053,17.201,5.053,24.54,0l13.23-9.116c2.218-1.527,5.199-1.528,7.417,0.001
			l13.232,9.115c7.337,5.053,17.2,5.053,24.539,0l13.231-9.115c2.218-1.529,5.199-1.528,7.417-0.001l13.235,9.116
			c7.339,5.057,17.2,5.056,24.537,0.001l6.29-4.332c3.147,16.394,8.853,47.839,14.506,87.613H75.843
			C80.792,67.379,85.968,35.841,88.535,21.116z M431.133,456.709H146.866c-4.167,0-7.545,3.377-7.545,7.545
			c0,4.168,3.378,7.545,7.545,7.545h278.613c-8.089,15.952-20.6,22.154-22.768,23.982c-2.218,1.529-5.199,1.527-7.417,0
			l-13.235-9.116c-7.337-5.056-17.198-5.056-24.539-0.001l-13.23,9.116c-2.217,1.529-5.201,1.529-7.418,0l-13.232-9.116
			c-7.341-5.055-17.201-5.052-24.538,0.001l-13.23,9.114c-2.219,1.529-5.2,1.529-7.419,0l-13.229-9.114
			c-7.341-5.055-17.202-5.054-24.54,0.001l-13.226,9.113c-2.219,1.53-5.2,1.528-7.418,0l-13.223-9.111
			c-7.339-5.056-17.202-5.058-24.543,0l-13.222,9.111c-2.217,1.529-5.199,1.53-7.417-0.001l-13.227-9.113
			c-7.34-5.055-17.202-5.055-24.541,0.001l-13.226,9.113c-2.219,1.53-5.2,1.529-7.419-0.001
			c-8.847-6.094-15.692-14.402-19.894-23.979h33.363c4.167,0,7.545-3.377,7.545-7.545c0-4.168-3.378-7.545-7.545-7.545H78.866
			c-23.084-104.735-15.234-239.42-4.773-333.003H434.15c3.342,24.904,6.549,52.48,9.066,81.302
			C452.882,315.667,448.806,400.249,431.133,456.709z"/>
	</g>
</g>
<g>
	<g>
		<path d="M321.458,50.166c-2.723-3.156-7.487-3.506-10.642-0.786c-3.156,2.721-3.507,7.486-0.786,10.642
			c1.971,2.285,3.056,5.19,3.055,8.181c0,6.935-5.641,12.575-12.575,12.575h-89.026c-6.935,0-12.575-5.641-12.575-12.575
			s5.641-12.575,12.575-12.575h76.148c4.168,0,7.545-3.377,7.545-7.545c0-4.168-3.377-7.545-7.545-7.545h-76.148
			c-15.255,0-27.666,12.411-27.666,27.666s12.41,27.666,27.666,27.666h89.026c15.254,0,27.666-12.411,27.666-27.665
			C328.177,61.598,325.792,55.191,321.458,50.166z"/>
	</g>
</g>
<g>
	<g>
		<path d="M369.05,439.968c-10.353-36.66-36.889-39.851-47.801-39.547c-0.102,0.027-5.29-0.101-8.837,4.554
			c-2.21,2.902-2.974,6.639-2.094,10.25c6.521,26.77,25.085,39.983,47.564,39.983C365.787,455.209,371.187,447.531,369.05,439.968z
			 M326.114,415.675c8.707,0.938,20.502,5.872,27.049,24.124C344.003,438.586,331.858,433.42,326.114,415.675z"/>
	</g>
</g>
<g>
	<g>
		<path d="M365.398,294.289c-3.666-6.487-12.451-7.848-18.193-2.769c-27.691,24.48-18.475,50.579-13.227,60.666
			c3.662,7.035,13.001,8.262,18.716,2.828C380.3,328.763,370.775,303.802,365.398,294.289z M345.439,340.879
			c-3.199-8.668-4.292-21.821,8.732-35.175C357.403,313.844,358.536,326.577,345.439,340.879z"/>
	</g>
</g>
<g>
	<g>
		<path d="M301.97,402.963c-2.344-2.797-5.843-4.391-9.538-4.304c-36.955,0.618-46.907,26.446-49.471,37.522
			c-1.779,7.687,4.481,14.741,12.391,14.312c38.039-2.019,47.017-27.182,49.111-37.907
			C304.46,412.485,305.728,407.449,301.97,402.963z M259.019,435.036c3.201-8.669,10.914-19.379,29.493-21.067
			C285.679,422.255,278.266,432.672,259.019,435.036z"/>
	</g>
</g>
<g>
	<g>
		<path d="M389.145,343.558c-36.236,7.269-41.37,34.469-41.895,45.826c-0.365,7.932,7.109,13.671,14.769,11.842
			c37.053-8.843,41.347-35.213,41.472-46.141C403.576,347.671,396.697,342.041,389.145,343.558z M362.84,385.36
			c1.586-9.103,7.244-21.027,25.211-26.038C386.757,367.983,381.345,379.565,362.84,385.36z"/>
	</g>
</g>
<g>
	<g>
		<path d="M221.145,421.607c-31.212-19.8-53.722-3.69-61.953,4.155c-5.75,5.483-4.307,14.795,2.487,18.766
			c24.875,14.539,46.911,10.596,61.863-4.674c0-0.001,0-0.001,0-0.001C228.754,434.529,227.621,425.713,221.145,421.607z
			 M173.24,433.63c7.44-5.483,19.768-10.19,36.217-1.389C202.535,437.607,190.617,442.234,173.24,433.63z"/>
	</g>
</g>
<g>
	<g>
		<path d="M376.491,224.719c0-0.001-0.001-0.001-0.001-0.001c-6.173-4.17-14.641-1.473-17.518,5.636
			c-13.87,34.256,6.016,53.51,15.211,60.199c6.348,4.615,15.292,1.678,18.014-5.815
			C405.202,248.933,385.545,230.836,376.491,224.719z M379.402,275.321c-6.73-6.333-13.574-17.617-7.869-35.379
			C378.053,245.788,384.746,256.683,379.402,275.321z"/>
	</g>
</g>
<g>
	<g>
		<path d="M409.014,286.165c-7.461-2.453-15.072,3.091-15.366,11.053c-1.41,38.068,22.845,49.272,33.338,52.322
			c7.146,2.072,14.387-3.069,14.951-10.73C444.643,301.952,419.815,289.715,409.014,286.165z M408.713,302.263
			c8.346,3.967,18.318,12.614,18.33,31.267C419.044,329.963,409.335,321.645,408.713,302.263z"/>
	</g>
</g>
<g>
	<g>
		<path d="M253.329,396.32c-15.949-33.343-43.575-31.637-54.711-29.355c-7.704,1.575-11.548,10.174-7.854,17.223
			c13.068,24.951,31.023,30.187,43.789,30.187c5.067,0,7.994-0.695,11.127-1.319C252.921,411.311,256.639,403.238,253.329,396.32z
			 M206.346,381.088c9.214-0.69,22.162,1.854,31.433,18.043C229.064,400.003,216.507,397.603,206.346,381.088z"/>
	</g>
</g>
<g>
	<g>
		<path d="M340.089,373.293c-13.622-35.576-40.337-36.379-51.174-35.07c-7.393,0.889-12.033,8.472-9.55,15.731
			c8.973,26.251,28.643,37.434,50.921,35.531C338.111,388.814,342.94,380.734,340.089,373.293z M295.137,352.976
			c8.756,0.146,20.948,3.996,29.116,21.581C315.019,374.177,302.457,370.132,295.137,352.976z"/>
	</g>
</g>
<g>
	<g>
		<path d="M425.539,396.085c-0.982-3.347-3.403-6.041-6.641-7.392c-3.369-1.404-7.179-1.196-10.451,0.571
			c-32.519,17.566-29.459,45.076-26.634,56.087c1.976,7.701,10.814,10.981,17.588,6.998
			C432.238,433.041,428.62,406.571,425.539,396.085z M395.541,436.94c-1.152-9.168,0.764-22.227,16.477-32.283
			C413.319,413.319,411.536,425.979,395.541,436.94z"/>
	</g>
</g>
<g>
	<g>
		<path d="M184.483,129.062c-63.221,0-114.655,51.434-114.655,114.656s51.434,114.656,114.655,114.656
			s114.656-51.434,114.656-114.656S247.704,129.062,184.483,129.062z M184.483,343.285c-54.9,0-99.565-44.666-99.565-99.566
			s44.665-99.566,99.565-99.566c54.9,0,99.565,44.665,99.565,99.566S239.383,343.285,184.483,343.285z"/>
	</g>
</g>
<g>
	<g>
		<path d="M264.245,226.33c-0.883-4.071-4.904-6.654-8.974-5.773c-4.072,0.884-6.657,4.901-5.773,8.974
			c1.005,4.629,1.514,9.402,1.514,14.188c0,34.132-25.841,62.329-58.984,66.089v-14.776c5.039,3.412,10.744,4.658,16.599,3.615
			c9.416-1.682,18.407-8.934,27.49-22.172c3.379-4.928,1.087-11.758-4.593-13.64c-6.761-2.244-12.792-3.555-18.157-3.945
			c5.335-4.846,9.795-12.39,13.51-22.855c1.983-5.583-1.954-11.544-7.878-11.899c-8.629-0.52-15.811,0.06-21.657,1.766
			c12.121-12.27,4.694-29.744-5.721-43.588c-3.561-4.737-10.706-4.743-14.273,0c-10.333,13.735-17.891,31.266-5.722,43.587
			c-5.847-1.706-13.028-2.286-21.656-1.765c-2.785,0.167-5.366,1.656-6.907,3.984c-1.541,2.328-1.904,5.287-0.971,7.914
			c3.715,10.466,8.175,18.01,13.511,22.857c-5.365,0.388-11.395,1.699-18.156,3.943c-2.671,0.885-4.803,3.006-5.701,5.676
			c-0.898,2.668-0.484,5.647,1.108,7.967c9.08,13.236,18.072,20.488,27.489,22.17c5.909,1.053,11.607-0.234,16.599-3.615v14.777
			c-33.143-3.761-58.984-31.958-58.984-66.089c0-36.685,29.845-66.53,66.529-66.53c21.375,0,41.59,10.38,54.077,27.768
			c2.432,3.384,7.145,4.158,10.53,1.727c3.384-2.431,4.158-7.146,1.727-10.53c-15.315-21.324-40.112-34.056-66.335-34.056
			c-45.005,0-81.619,36.616-81.619,81.62s36.615,81.619,81.619,81.619c45.005,0,81.616-36.617,81.616-81.621
			C266.103,237.859,265.478,232.008,264.245,226.33z M218.383,274.848c-4.938,5.685-12.033,11.856-18.077,7.576
			c-0.843-0.598-1.215-1.702-0.904-2.688C201.635,272.659,211.127,273.328,218.383,274.848z M196.224,243.101
			c1.543-1.388,5.111-3.417,12.993-3.934c-2.989,5.927-7.7,12.851-13.914,10.543C192.963,248.839,194.32,244.812,196.224,243.101z
			 M192.028,264.496c0.024,0.007,0.049,0.01,0.073,0.017c-0.025,0.021-0.048,0.043-0.073,0.064V264.496z M162.992,283.79
			c-2.271-0.405-6.531-2.174-12.408-8.942c7.375-1.548,16.752-2.173,18.981,4.889C170.472,282.613,165.952,284.315,162.992,283.79z
			 M168.448,249.59c-1.88-0.878-5.141-3.369-8.698-10.422c6.625,0.436,14.84,2.068,15.142,8.689
			C175.004,250.318,170.838,250.705,168.448,249.59z M176.938,264.577c-0.025-0.021-0.048-0.044-0.073-0.064
			c0.024-0.007,0.049-0.01,0.073-0.017V264.577z M188.374,211.771c-0.379,2.556-3,5.878-5.002,4.418
			c-5.355-3.906-2.182-11.658,1.112-17.422C188.402,205.624,188.679,209.719,188.374,211.771z"/>
	</g>
</g>
<g>
</g>
<g>
</g>
<g>
</g>
<g>
</g>
<g>
</g>
<g>
</g>
<g>
</g>
<g>
</g>
<g>
</g>
<g>
</g>
<g>
</g>
<g>
</g>
<g>
</g>
<g>
</g>
<g>
</g>
</svg>
