<svg height="511pt" viewBox="0 -111 511.99939 511" width="511pt" xmlns="http://www.w3.org/2000/svg"><path d="m510.171875 205.574219c-2.839844-5.511719-8.441406-8.921875-14.636719-8.921875h-20.152344c-2.128906-4.339844-5.242187-8.121094-9.292968-10.867188-2.78125-1.894531-4.273438-4.707031-3.984375-7.539062.351562-3.472656.128906-6.480469-.707031-9.210938-2.855469-9.347656-10.839844-16.820312-20.324219-19.027344-1.109375-.25-2.3125-.417968-3.597657-.53125-3.378906-9.304687-12.257812-15.988281-22.679687-16.089843-1.535156-9.375-7.75-17.203125-16.203125-21.066407-.042969-1.398437-.195312-2.789062-.597656-4.171874l-7.042969-24.59375c-1.253906-4.375-4.136719-8-8.128906-10.210938-3.992188-2.207031-8.605469-2.738281-12.96875-1.492188l-24.597657 7.042969c-4.375 1.253907-8 4.136719-10.210937 8.128907-1.78125 3.214843-2.417969 6.832031-1.960937 10.40625-8.988282-.453126-17.796876-.761719-26.402344-.898438-2.96875-15.800781-16.820313-27.808594-33.476563-27.808594-17.3125 0-31.496093 13.003906-33.671875 29.738282-7.621094.546874-15.164062 1.160156-22.566406 1.910156l.09375-.101563c5.792969-6.429687 5.28125-16.375-1.152344-22.191406l-8.347656-7.523437c-6.421875-5.796876-16.382812-5.269532-22.183594 1.160156l-34.828125 38.652344c-7.558593 1.527343-14.875 3.15625-21.988281 4.863281.050781-1.878907-.136719-3.761719-.707031-5.613281-1.355469-4.359376-4.335938-7.921876-8.359375-10.03125l-22.660156-11.878907c-4.042969-2.117187-8.640626-2.523437-13-1.160156-4.355469 1.355469-7.914063 4.332031-10.019532 8.347656l-11.878906 22.664063c-3.984375 7.597656-1.59375 16.808594 5.167969 21.675781-.050781 1.023437-.007813 2.054687.136719 3.089844.460937 3.019531-1.117188 5.664062-2.515626 7.34375-2.738281 3.289062-6.21875 4.707031-7.207031 4.742187-3.566406.117188-6.796875 1.644532-9.363281 4.433594-4.546875 4.929688-5.917969 12.765625-6.300781 17.917969-5.894531 3.445312-15.445313 9.824219-15.890625 19.871093h-9.507813c-6.191406 0-11.796875 3.414063-14.628906 8.921876-2.832031 5.507812-2.34375 12.050781 1.246094 17.089843l1.023437 1.441407 44.679688 26.875c2.023437 3.511718 3.40625 8.460937 4.742187 13.277343 3.074219 11.0625 7.285157 26.210938 23.523438 26.210938h358.195312c16.230469 0 20.445313-15.148438 23.523438-26.210938 1.335937-4.808593 2.710937-9.773437 4.742187-13.285156l44.398438-26.875 1.015625-1.433594c3.597656-5.019531 4.085937-11.5625 1.253906-17.070312zm-135.613281-117.320313 7.046875 24.597656-24.597657 7.027344-7.042968-24.578125zm-101.351563-2.472656c9.269531 0 16.800781 7.445312 17.011719 16.664062l-.144531 1.765626c-.261719 3.300781-1.429688 6.300781-3.242188 8.777343-.132812.179688-.277343.339844-.417969.511719-.476562.605469-.980468 1.175781-1.523437 1.707031-.378906.347657-.777344.65625-1.179687.972657-.402344.3125-.785157.644531-1.210938.929687-.589844.382813-1.226562.699219-1.859375 1.011719-.3125.15625-.613281.34375-.9375.480468-.757813.3125-1.558594.535157-2.359375.730469-.265625.070313-.503906.171875-.769531.222657-1.089844.222656-2.207031.34375-3.359375.34375-1.101563 0-2.175782-.128907-3.214844-.324219-.597656-.121094-1.160156-.316407-1.742188-.496094-.398437-.121094-.816406-.222656-1.199218-.375-.742188-.300781-1.449219-.660156-2.140625-1.058594-.171875-.09375-.34375-.179687-.503907-.273437-.785156-.484375-1.527343-1.03125-2.21875-1.628906-.042968-.035157-.085937-.066407-.117187-.101563-2.976563-2.628906-5.066406-6.296875-5.648437-10.476563l-.109376-.824218c-.042968-.503906-.15625-.988282-.15625-1.511719-.015624-9.386719 7.636719-17.046875 17.042969-17.046875zm-76.058593-1.628906 6.335937 5.707031-12.203125 13.542969h-.007812l-22.046876 24.46875-6.335937-5.707032zm-108.226563 18.679687 22.660156 11.878907-11.894531 22.652343-.929688-.488281-21.714843-11.375zm-37.046875 87.859375c3.019531-1.734375 7.152344-4.101562 6.898438-9.59375-.171876-3.445312.605468-7.769531 1.484374-9.816406 6.148438-.949219 12.84375-4.972656 17.585938-10.679688 3.128906-3.761718 5.175781-7.992187 6.082031-12.246093l7.863281 4.117187c.050782.027344.101563.035156.152344.0625 1.101563.5625 2.234375.980469 3.386719 1.285156.425781.113282.863281.15625 1.296875.238282.800781.148437 1.59375.265625 2.398438.292968.21875.007813.433593.074219.644531.074219.214843 0 .4375-.09375.648437-.101562 1.460938-.058594 2.902344-.238281 4.289063-.65625.0625-.015625.121093-.007813.179687-.027344 2.046875-.640625 3.90625-1.664063 5.535156-2.957031.078126-.0625.160157-.101563.230469-.164063.617188-.5 1.144531-1.089843 1.671875-1.667969.230469-.257812.496094-.460937.71875-.726562.289063-.359375.511719-.785156.773438-1.167969.378906-.546875.785156-1.066406 1.101562-1.664062l5.457032-10.421875c8.359374-2.234375 17.1875-4.339844 26.339843-6.300782.015625.042969.050781.082032.074219.128907.316406.695312.71875 1.347656 1.136719 2 .160156.257812.277343.53125.457031.777343.632812.878907 1.355469 1.699219 2.195312 2.449219l8.339844 7.511719c.785156.710938 1.621094 1.304688 2.488282 1.828125.027343.015625.054687.023437.078124.03125 1.757813 1.035156 3.667969 1.671875 5.621094 1.960937.121094.019532.246094.019532.367188.035157.648437.085937 1.304687.179687 1.953125.179687.121093 0 .238281-.035156.351562-.035156.152344 0 .304688.035156.460938.027344.527343-.027344 1.03125-.152344 1.550781-.230469.359375-.050781.722656-.085937 1.074219-.160156.71875-.164063 1.398437-.402344 2.082031-.660157.304688-.117187.628906-.195312.929688-.332031.683593-.304687 1.320312-.699219 1.953124-1.097656.28125-.179687.570313-.316406.84375-.511719.726563-.53125 1.382813-1.152344 2.023438-1.800781.125-.136719.277344-.230469.40625-.367187l18.753906-20.808594c13.410156-1.75 27.429688-3.140625 41.773438-4.164063.539062 1.355469 1.226562 2.617188 1.929687 3.890625.179688.332032.339844.664063.535157.980469.71875 1.195313 1.496093 2.328125 2.347656 3.421875.289062.382812.605468.738281.910156 1.105469.886719 1.050781 1.785156 2.074219 2.789062 3.011719.136719.128906.28125.222656.417969.351562 1.84375 1.660156 3.863281 3.085938 6.039063 4.324219.792968.449219 1.578125.917969 2.402344 1.3125.84375.390625 1.699218.714843 2.578124 1.039062 1.125.417969 2.269532.765625 3.433594 1.066407.726563.179687 1.445313.382812 2.183594.519531 1.988281.367187 4.019531.617187 6.097656.617187 2.109375 0 4.15625-.25 6.160156-.625.824219-.152344 1.617188-.390625 2.429688-.605468 1.082031-.289063 2.140625-.59375 3.179688-.988282 1.023437-.375 2.011718-.800781 2.984374-1.269531.65625-.324219 1.28125-.675781 1.910157-1.042969 5.671875-3.203125 10.292969-7.953125 13.355469-13.71875.085937-.15625.171874-.308594.257812-.460937.730469-1.441407 1.355469-2.925781 1.882812-4.46875.035157-.09375.085938-.179688.117188-.273438 10.457031.167969 21.265625.550781 32.292969 1.191407l2.839843 9.910156c.527344 1.835937 1.398438 3.5 2.464844 5.015625 1.464844 2.109375 3.351563 3.90625 5.664063 5.195312h.015625c1.167968.648438 2.40625 1.109375 3.660156 1.46875.355469.101563.722656.160157 1.082031.238281.9375.203126 1.875.324219 2.839844.355469.222656.011719.441406.085938.664063.085938.164062 0 .324218-.066407.488281-.066407 1.355469-.042968 2.703125-.199218 4.035156-.574218.058594-.015625.117187-.007813.179687-.023438l24.59375-7.046875c1.46875-.425781 2.8125-1.089843 4.085938-1.855469.023438-.019531.050781-.019531.066406-.035156 4.460938 1.507813 7.652344 5.703125 7.652344 10.589844 0 8.113281 8.476562 12.496094 16.449219 12.496094 4.035156 0 7.3125 3.285156 7.3125 7.308594 0 .878906.269531 8.539062 9.839843 8.570312 1.066407.011719 4.324219.019531 5.507813.292969 3.609375.84375 6.773437 3.820312 7.863281 7.382812.042969.128907.222656.84375.054688 2.515625-.761719 7.402344 2.035156 14.746094 7.433594 20.128906h-304.753907c.933594-1.179687 1.664063-2.535156 1.859375-4.136718l1.460938-11.742188c.578125-4.675781-2.738282-8.941406-7.414063-9.511718-4.679687-.605469-8.9375 2.738281-9.507812 7.414062l-1.457031 11.742188c-.289063 2.3125.390624 4.519531 1.703124 6.234374h-90.953124c.988281-1.179687 3.292968-3.054687 8.382812-5.972656zm399.621094 47.613282-1.015625 1.433593c-4.257813 5.953125-6.320313 13.390625-8.144531 19.949219-3.027344 10.898438-4.484376 13.722656-7.085938 13.722656h-358.199219c-2.601562 0-4.0625-2.824218-7.089843-13.722656-1.824219-6.558594-3.886719-13.996094-8.144532-19.949219l-1.023437-1.441406-40.867188-24.589844h318.589844s8.648437.28125 9.492187 0h144.125zm0 0"/><path d="m135.285156 140.433594c-3.890625-2.644532-9.203125-1.65625-11.855468 2.242187l-6.660157 9.773438c-2.664062 3.890625-1.648437 9.195312 2.242188 11.855469 1.472656 1 3.136719 1.484374 4.800781 1.484374 2.71875 0 5.40625-1.296874 7.054688-3.726562l6.660156-9.773438c2.652344-3.890624 1.644531-9.195312-2.242188-11.855468zm0 0"/><path d="m105.535156 170.027344-10.070312-6.21875c-4.035156-2.5-9.269532-1.226563-11.734375 2.773437-2.472657 4.015625-1.238281 9.261719 2.769531 11.734375l10.074219 6.21875c1.398437.867188 2.949219 1.269532 4.46875 1.269532 2.855469 0 5.652343-1.441407 7.265625-4.050782 2.472656-4.007812 1.234375-9.253906-2.773438-11.726562zm0 0"/><path d="m157.566406 168.738281 11.796875.910157c.222657.019531.441407.027343.664063.027343 4.417968 0 8.144531-3.394531 8.496094-7.871093.367187-4.699219-3.148438-8.792969-7.847657-9.160157l-11.785156-.914062c-4.683594-.46875-8.792969 3.148437-9.160156 7.847656-.367188 4.699219 3.148437 8.792969 7.835937 9.160156zm0 0"/><path d="m202.46875 172.441406-6.660156 9.773438c-2.660156 3.898437-1.644532 9.203125 2.242187 11.855468 1.476563.996094 3.140625 1.484376 4.804688 1.484376 2.71875 0 5.40625-1.296876 7.050781-3.730469l6.664062-9.773438c2.660157-3.898437 1.644532-9.203125-2.246093-11.855469-3.894531-2.632812-9.191407-1.652343-11.855469 2.246094zm0 0"/><path d="m191.035156 148.519531 10.070313 6.214844c1.398437.871094 2.949219 1.273437 4.46875 1.273437 2.855469 0 5.65625-1.441406 7.265625-4.050781 2.472656-4.019531 1.238281-9.265625-2.769532-11.738281l-10.074218-6.214844c-4.03125-2.492187-9.269532-1.238281-11.734375 2.769532-2.472657 4.015624-1.238281 9.269531 2.773437 11.746093zm0 0"/><path d="m393.203125 185.777344c2.71875 0 5.40625-1.296875 7.054687-3.726563l6.667969-9.773437c2.660157-3.890625 1.644531-9.191406-2.246093-11.855469-3.871094-2.644531-9.199219-1.652344-11.851563 2.242187l-6.671875 9.777344c-2.660156 3.886719-1.644531 9.191406 2.246094 11.855469 1.472656.996094 3.144531 1.480469 4.800781 1.480469zm0 0"/><path d="m359.820312 152.738281 10.074219 6.21875c1.398438.867188 2.949219 1.269531 4.46875 1.269531 2.855469 0 5.652344-1.441406 7.265625-4.050781 2.472656-4.015625 1.234375-9.261719-2.773437-11.734375l-10.070313-6.21875c-4.027344-2.496094-9.28125-1.234375-11.734375 2.773438-2.472656 4.023437-1.238281 9.269531 2.769531 11.742187zm0 0"/><path d="m239.042969 148.738281 11.800781.914063c.222656.015625.453125.023437.667969.023437 4.417969 0 8.144531-3.390625 8.492187-7.871093.367188-4.699219-3.144531-8.792969-7.84375-9.160157l-11.804687-.910156c-4.800781-.332031-8.792969 3.144531-9.160157 7.84375-.367187 4.699219 3.148438 8.792969 7.847657 9.160156zm0 0"/><path d="m247.535156 168.292969c-4.519531-1.234375-9.21875 1.476562-10.445312 6.03125-1.230469 4.546875 1.472656 9.226562 6.027344 10.449219l11.429687 3.0625c.738281.195312 1.484375.289062 2.214844.289062 3.761719 0 7.207031-2.507812 8.230469-6.320312 1.230468-4.546876-1.472657-9.226563-6.027344-10.449219zm0 0"/><path d="m292.804688 177.230469c1.152343 3.632812 4.503906 5.945312 8.128906 5.945312.851562 0 1.722656-.128906 2.582031-.402343l11.285156-3.578126c4.484375-1.425781 6.964844-6.21875 5.542969-10.714843-1.417969-4.476563-6.183594-6.984375-10.710938-5.542969l-11.285156 3.582031c-4.484375 1.425781-6.964844 6.226563-5.542968 10.710938zm0 0"/><path d="m282.339844 162.539062c2.175781 0 4.351562-.828124 6.011718-2.484374l8.390626-8.347657c3.34375-3.316406 3.363281-8.714843.035156-12.058593-3.324219-3.34375-8.714844-3.367188-12.058594-.035157l-8.390625 8.347657c-3.34375 3.316406-3.359375 8.71875-.035156 12.058593 1.671875 1.683594 3.855469 2.519531 6.046875 2.519531zm0 0"/><path d="m342.320312 176.167969c1.007813 3.820312 4.460938 6.34375 8.238282 6.34375.726562 0 1.460937-.09375 2.195312-.28125 4.542969-1.199219 7.265625-5.867188 6.0625-10.429688l-3.019531-11.445312c-1.203125-4.5625-5.886719-7.273438-10.433594-6.0625-4.542969 1.199219-7.265625 5.867187-6.0625 10.429687zm0 0"/><path d="m313.964844 135.988281 11.804687.921875c.21875.015625.449219.027344.671875.027344 4.410156 0 8.144532-3.386719 8.492188-7.863281.367187-4.699219-3.136719-8.804688-7.835938-9.167969l-11.804687-.921875c-4.636719-.367187-8.800781 3.128906-9.167969 7.835937-.363281 4.699219 3.140625 8.800782 7.839844 9.167969zm0 0"/><path d="m206.632812 64.894531c1.246094 4.375 4.128907 8 8.121094 10.210938 2.574219 1.433593 5.40625 2.15625 8.261719 2.15625 1.578125 0 3.15625-.210938 4.707031-.664063l24.597656-7.046875c4.375-1.253906 8-4.136719 10.210938-8.125 2.207031-3.992187 2.746094-8.597656 1.492188-12.972656l-7.046876-24.597656c-1.25-4.375-4.136718-8-8.125-10.207031-3.992187-2.210938-8.605468-2.757813-12.972656-1.492188l-24.597656 7.042969c-4.375 1.253906-8 4.136719-10.207031 8.128906-2.210938 3.988281-2.746094 8.59375-1.492188 12.96875zm33.941407-36.339843 7.046875 24.597656-24.597656 7.027344-7.042969-24.578126z"/><path d="m136.75 102.839844c18.8125 0 34.113281-15.300782 34.113281-34.113282s-15.300781-34.113281-34.113281-34.113281-34.113281 15.300781-34.113281 34.113281 15.300781 34.113282 34.113281 34.113282zm0-51.171875c9.40625 0 17.058594 7.648437 17.058594 17.054687 0 9.410156-7.652344 17.058594-17.058594 17.058594s-17.058594-7.648438-17.058594-17.058594c.003906-9.40625 7.652344-17.054687 17.058594-17.054687zm0 0"/><path d="m301.195312 76.050781c1.441407 3.941407 4.335938 7.085938 8.136719 8.855469 2.105469.980469 4.351563 1.472656 6.601563 1.472656 1.816406 0 3.652344-.324218 5.40625-.960937l10.53125-3.855469c3.941406-1.441406 7.089844-4.324219 8.851562-8.128906 1.773438-3.800782 1.953125-8.066406.523438-12.015625l-18.515625-50.605469c-1.445313-3.933594-4.335938-7.082031-8.136719-8.835938-3.796875-1.773437-8.058594-1.9531245-12.011719-.511718l-10.53125 3.851562c-3.941406 1.445313-7.085937 4.335938-8.851562 8.136719-1.773438 3.804687-1.953125 8.070313-.511719 12.011719zm5.988282-58.113281 17.578125 48.058594-8 2.933594-17.585938-48.058594zm0 0"/><path d="m426.71875 239.296875h-264.511719c-4.714843 0-8.527343 3.808594-8.527343 8.527344 0 4.714843 3.8125 8.527343 8.527343 8.527343h264.511719c4.71875 0 8.53125-3.8125 8.53125-8.527343 0-4.71875-3.8125-8.527344-8.53125-8.527344zm0 0"/><path d="m120.300781 239.296875h-34.722656c-4.714844 0-8.527344 3.808594-8.527344 8.527344 0 4.714843 3.8125 8.527343 8.527344 8.527343h34.722656c4.714844 0 8.527344-3.8125 8.527344-8.527343 0-4.71875-3.8125-8.527344-8.527344-8.527344zm0 0"/></svg>