<?xml version="1.0"?>
<svg xmlns="http://www.w3.org/2000/svg" id="Outline" viewBox="0 0 512 512" width="512" height="512"><path d="M488,72.985l7.761-31.045a8,8,0,0,0-2.1-7.6l-16-16a8,8,0,0,0-11.314,0L456,28.687,445.657,18.343a8,8,0,0,0-11.314,0L424,28.687,413.657,18.343a8,8,0,0,0-11.314,0L392,28.687,381.657,18.343a8,8,0,0,0-11.314,0L360,28.687,349.657,18.343a8,8,0,0,0-11.314,0L328,28.687,317.657,18.343a8,8,0,0,0-11.314,0L296,28.687,285.657,18.343a8,8,0,0,0-11.314,0l-16,16a8,8,0,0,0-2.1,7.6L264,72.985V446.7l-7.59,22.768a8,8,0,0,0,1.933,8.187l16,16a8,8,0,0,0,11.314,0L296,483.313l10.343,10.344a8,8,0,0,0,11.314,0L328,483.313l10.343,10.344a8,8,0,0,0,11.314,0L360,483.313l10.343,10.344a8,8,0,0,0,11.314,0L392,483.313l10.343,10.344a8,8,0,0,0,11.314,0L424,483.313l10.343,10.344a8,8,0,0,0,11.314,0L456,483.313l10.343,10.344a8,8,0,0,0,11.314,0l16-16a8,8,0,0,0,1.933-8.187L488,446.7ZM472,432H400V369.8c41.613,6.37,72,28.805,72,54.2ZM364.01,332.78A24.086,24.086,0,0,1,353.393,320h45.214a24.086,24.086,0,0,1-10.617,12.78,8,8,0,0,0-3.99,6.93V432H368V339.71A8,8,0,0,0,364.01,332.78ZM400,304H384V272h16Zm16-56a8,8,0,1,1,8,8A8.009,8.009,0,0,1,416,248Zm-14.624,8H324.562l7.466-16h69.348a23.944,23.944,0,0,0,0,16ZM368,272v32H352V272ZM280,80h56v25.176c-9.992,5.718-16,13.711-16,22.824s6.008,17.106,16,22.824V200a8,8,0,0,0,11.578,7.155L376,192.944l28.422,14.211A8,8,0,0,0,416,200V150.824c9.992-5.718,16-13.711,16-22.824s-6.008-17.106-16-22.824V80a8,8,0,0,0,0-16H278.246l-5.387-21.546L280,35.313l10.343,10.344a8,8,0,0,0,11.314,0L312,35.313l10.343,10.344a8,8,0,0,0,11.314,0L344,35.313l10.343,10.344a8,8,0,0,0,11.314,0L376,35.313l10.343,10.344a8,8,0,0,0,11.314,0L408,35.313l10.343,10.344a8,8,0,0,0,11.314,0L440,35.313l10.343,10.344a8,8,0,0,0,11.314,0L472,35.313l7.141,7.141L473.754,64H448a8,8,0,0,0,0,16h24V386.582c-15.455-16.525-41.036-28.692-72-32.95V343.99A40.153,40.153,0,0,0,416,312V272h8a24,24,0,0,0,0-48H326.934a8,8,0,0,0-7.249,4.617l-14.934,32A8,8,0,0,0,312,272h24v40a40.153,40.153,0,0,0,16,31.99v9.642c-30.964,4.258-56.545,16.425-72,32.95Zm72,77.12a101.44,101.44,0,0,0,48,0v29.936l-20.422-10.211a8,8,0,0,0-7.156,0L352,187.056ZM376,144c-24.418,0-40-9.477-40-16s15.582-16,40-16,40,9.477,40,16S400.418,144,376,144Zm24-45.12a101.44,101.44,0,0,0-48,0V80h48Zm72,377.807-10.343-10.344a8,8,0,0,0-11.314,0L440,476.687l-10.343-10.344a8,8,0,0,0-11.314,0L408,476.687l-10.343-10.344a8,8,0,0,0-11.314,0L376,476.687l-10.343-10.344a8,8,0,0,0-11.314,0L344,476.687l-10.343-10.344a8,8,0,0,0-11.314,0L312,476.687l-10.343-10.344a8,8,0,0,0-11.314,0L280,476.687l-6.847-6.848,6.437-19.309A8.032,8.032,0,0,0,280,448h24a8,8,0,0,0,0-16H280v-8c0-25.391,30.387-47.826,72-54.2V432H336a8,8,0,0,0,0,16H472a8.032,8.032,0,0,0,.41,2.53l6.437,19.309Z"/><path d="M240,72.985l7.761-31.045a8,8,0,0,0-2.1-7.6l-16-16a8,8,0,0,0-11.314,0L208,28.687,197.657,18.343a8,8,0,0,0-11.314,0L176,28.687,165.657,18.343a8,8,0,0,0-11.314,0L144,28.687,133.657,18.343a8,8,0,0,0-11.314,0L112,28.687,101.657,18.343a8,8,0,0,0-11.314,0L80,28.687,69.657,18.343a8,8,0,0,0-11.314,0L48,28.687,37.657,18.343a8,8,0,0,0-11.314,0l-16,16a8,8,0,0,0-2.1,7.6L16,72.985V446.7L8.41,469.47a8,8,0,0,0,1.933,8.187l16,16a8,8,0,0,0,11.314,0L48,483.313l10.343,10.344a8,8,0,0,0,11.314,0L80,483.313l10.343,10.344a8,8,0,0,0,11.314,0L112,483.313l10.343,10.344a8,8,0,0,0,11.314,0L144,483.313l10.343,10.344a8,8,0,0,0,11.314,0L176,483.313l10.343,10.344a8,8,0,0,0,11.314,0L208,483.313l10.343,10.344a8,8,0,0,0,11.314,0l16-16a8,8,0,0,0,1.933-8.187L240,446.7Zm-16,403.7-10.343-10.344a8,8,0,0,0-11.314,0L192,476.687l-10.343-10.344a8,8,0,0,0-11.314,0L160,476.687l-10.343-10.344a8,8,0,0,0-11.314,0L128,476.687l-10.343-10.344a8,8,0,0,0-11.314,0L96,476.687,85.657,466.343a8,8,0,0,0-11.314,0L64,476.687,53.657,466.343a8,8,0,0,0-11.314,0L32,476.687l-6.847-6.848L31.59,450.53A8.032,8.032,0,0,0,32,448H56a8,8,0,0,0,0-16H32V80H168a8,8,0,0,0,0-16H30.246L24.859,42.454,32,35.313,42.343,45.657a8,8,0,0,0,11.314,0L64,35.313,74.343,45.657a8,8,0,0,0,11.314,0L96,35.313l10.343,10.344a8,8,0,0,0,11.314,0L128,35.313l10.343,10.344a8,8,0,0,0,11.314,0L160,35.313l10.343,10.344a8,8,0,0,0,11.314,0L192,35.313l10.343,10.344a8,8,0,0,0,11.314,0L224,35.313l7.141,7.141L225.754,64H200a8,8,0,0,0,0,16h24V432H88a8,8,0,0,0,0,16H224a8.032,8.032,0,0,0,.41,2.53l6.437,19.309Z"/><path d="M200,408V200a8,8,0,0,0-8-8H64a8,8,0,0,0-8,8V408a8,8,0,0,0,8,8H192A8,8,0,0,0,200,408ZM152,208V400H136V208Zm-32,0V400H104V208Zm-48,0H88V400H72ZM184,400H168V208h16Z"/><path d="M128,176c35.888,0,64-17.57,64-40s-28.112-40-64-40-64,17.57-64,40S92.112,176,128,176Zm0-64c28.287,0,48,12.648,48,24s-19.713,24-48,24-48-12.648-48-24S99.713,112,128,112Z"/></svg>
