<?xml version="1.0" encoding="iso-8859-1"?>
<!-- Generator: Adobe Illustrator 19.0.0, SVG Export Plug-In . SVG Version: 6.00 Build 0)  -->
<svg version="1.1" id="Capa_1" xmlns="http://www.w3.org/2000/svg" xmlns:xlink="http://www.w3.org/1999/xlink" x="0px" y="0px"
	 viewBox="0 0 480.127 480.127" style="enable-background:new 0 0 480.127 480.127;" xml:space="preserve">
<g>
	<g>
		<path d="M460.024,100.511C428.594,38.843,365.215,0.031,296,0.064c-69.206-0.163-132.608,38.651-163.936,100.36l14.256,7.28
			C188.54,25.082,289.744-7.67,372.365,34.55s115.374,143.424,73.154,226.045c-16.083,31.474-41.684,57.074-73.159,73.157
			L379.64,348C470.179,301.855,506.168,191.051,460.024,100.511z"/>
	</g>
</g>
<g>
	<g>
		<path d="M313.913,114.336c-5.852-1.506-11.87-2.269-17.913-2.273c-6.068,0.002-12.112,0.762-17.992,2.264l4,15.504
			c29.99-7.701,60.545,10.368,68.246,40.358c2.348,9.146,2.349,18.736,0.002,27.882l15.472,3.984
			C375.643,163.524,352.444,124.251,313.913,114.336z"/>
	</g>
</g>
<g>
	<g>
		<path d="M184,112.064c-101.573,0.115-183.885,82.427-184,184c0,101.62,82.38,184,184,184s184-82.38,184-184
			S285.62,112.064,184,112.064z M184,464.064c-92.784,0-168-75.216-168-168s75.216-168,168-168c92.74,0.106,167.894,75.26,168,168
			C352,388.848,276.784,464.064,184,464.064z"/>
	</g>
</g>
<g>
	<g>
		<path d="M184,224.064c-39.764,0-72,32.235-72,72c0,39.764,32.236,72,72,72c39.765,0,72-32.236,72-72
			C255.956,256.317,223.746,224.108,184,224.064z M184,352.064c-30.928,0-56-25.072-56-56c0-30.928,25.072-56,56-56
			c30.928,0,56,25.072,56,56C239.965,326.977,214.913,352.028,184,352.064z"/>
	</g>
</g>
<g>
	<g>
		<rect x="120" y="160.064" width="16" height="16"/>
	</g>
</g>
<g>
	<g>
		<rect x="152" y="192.064" width="16" height="16"/>
	</g>
</g>
<g>
	<g>
		<rect x="224" y="184.064" width="16" height="16"/>
	</g>
</g>
<g>
	<g>
		<rect x="288" y="200.064" width="16" height="16"/>
	</g>
</g>
<g>
	<g>
		<rect x="272" y="256.064" width="16" height="16"/>
	</g>
</g>
<g>
	<g>
		<rect x="312" y="304.064" width="16" height="16"/>
	</g>
</g>
<g>
	<g>
		<rect x="256" y="352.064" width="16" height="16"/>
	</g>
</g>
<g>
	<g>
		<rect x="168" y="424.064" width="16" height="16"/>
	</g>
</g>
<g>
	<g>
		<rect x="72" y="288.064" width="16" height="16"/>
	</g>
</g>
<g>
	<g>
		<rect x="232" y="416.064" width="16" height="16"/>
	</g>
</g>
<g>
	<g>
		<rect x="56" y="224.064" width="16" height="16"/>
	</g>
</g>
<g>
	<g>
		<rect x="56" y="360.064" width="16" height="16"/>
	</g>
</g>
<g>
	<g>
		<rect x="120" y="392.064" width="16" height="16"/>
	</g>
</g>
<g>
	<g>
		<path d="M155.2,275.696l-13.44,8.736c13.993,21.524,32.342,39.876,53.864,53.872l8.744-13.44
			C184.764,312.039,168.025,295.299,155.2,275.696z"/>
	</g>
</g>
<g>
</g>
<g>
</g>
<g>
</g>
<g>
</g>
<g>
</g>
<g>
</g>
<g>
</g>
<g>
</g>
<g>
</g>
<g>
</g>
<g>
</g>
<g>
</g>
<g>
</g>
<g>
</g>
<g>
</g>
</svg>
