<svg height="512" viewBox="0 0 128 128" width="512" xmlns="http://www.w3.org/2000/svg"><g><path d="m42.582 32.878a1.751 1.751 0 0 0 .315-3.044 23.992 23.992 0 0 0 -10.281-3.724 24.025 24.025 0 0 0 -10.825 1.54 1.751 1.751 0 0 0 -.315 3.044 24 24 0 0 0 10.281 3.725 20.723 20.723 0 0 0 2.129.108 24.2 24.2 0 0 0 8.696-1.649zm-10.465-1.939a19.026 19.026 0 0 1 -4.782-1.176 17.9 17.9 0 0 1 9.7 1 18.977 18.977 0 0 1 -4.918.176z"/><path d="m54.168 48.669a1.751 1.751 0 0 0 .315-3.044 23.993 23.993 0 0 0 -10.283-3.725 24.039 24.039 0 0 0 -10.825 1.54 1.751 1.751 0 0 0 -.316 3.044 24.007 24.007 0 0 0 10.283 3.724 20.728 20.728 0 0 0 2.13.108 24.219 24.219 0 0 0 8.696-1.647zm-10.468-1.941a18.987 18.987 0 0 1 -4.781-1.174 17.9 17.9 0 0 1 9.7 1 18.979 18.979 0 0 1 -4.919.174z"/><path d="m65.753 64.46a1.751 1.751 0 0 0 .315-3.044 23.993 23.993 0 0 0 -10.282-3.724 24.086 24.086 0 0 0 -10.825 1.54 1.751 1.751 0 0 0 -.315 3.044 24 24 0 0 0 10.282 3.724 20.728 20.728 0 0 0 2.13.108 24.219 24.219 0 0 0 8.695-1.648zm-10.466-1.94a19.029 19.029 0 0 1 -4.781-1.175 17.9 17.9 0 0 1 9.7 1 19.068 19.068 0 0 1 -4.919.175z"/><path d="m104.036 10.522a17.055 17.055 0 0 0 -20.949 9.7c-4.316 10.282-8.263 20.821-11.8 31.369-8.721-12.058-18.242-24.061-28.358-35.72a17.24 17.24 0 0 0 -23.085-2.611 17.06 17.06 0 0 0 -4.554 22.632 455.582 455.582 0 0 0 43.464 60.458c-.263 1.153-.525 2.306-.774 3.458a17.027 17.027 0 0 0 11.548 19.949l.1.032a17.219 17.219 0 0 0 20.984-9.8 501.992 501.992 0 0 0 24.968-79.3 17.251 17.251 0 0 0 -11.544-20.167zm-82.121 5.559a13.722 13.722 0 0 1 18.373 2.085c10.617 12.234 20.581 24.852 29.635 37.51-1.886 5.779-3.687 11.723-5.367 17.711a24.337 24.337 0 0 0 -8.012 1.634 1.75 1.75 0 0 0 -.317 3.044 24.08 24.08 0 0 0 6.273 2.907c-1.005 3.821-1.924 7.5-2.768 11.1a452.194 452.194 0 0 1 -41.442-57.983 13.575 13.575 0 0 1 3.625-18.008zm41.485 61.506c-.462-.144-.9-.3-1.318-.456.47-.075.97-.14 1.491-.186-.061.214-.12.428-.173.642zm48.768-47.676a498.648 498.648 0 0 1 -24.793 78.744 13.686 13.686 0 0 1 -16.659 7.808l-.1-.032a13.555 13.555 0 0 1 -9.216-15.881c.309-1.422.627-2.844.957-4.277 1.171-5.2 2.471-10.468 3.976-16.11.4-1.522.816-3.047 1.233-4.565 1.847-6.657 3.852-13.279 5.958-19.685 3.767-11.538 8.07-23.09 12.789-34.335a13.574 13.574 0 0 1 16.67-7.719 13.732 13.732 0 0 1 9.181 16.052z"/><path d="m93.576 20.594a1.75 1.75 0 0 0 -2.641 1.545 23.991 23.991 0 0 0 3.071 10.494 23.979 23.979 0 0 0 7.64 7.823 1.75 1.75 0 0 0 2.642-1.545 24.007 24.007 0 0 0 -3.071-10.494 23.967 23.967 0 0 0 -7.641-7.823zm3.451 10.273a19.03 19.03 0 0 1 -1.878-4.552 17.911 17.911 0 0 1 4.924 8.42 18.964 18.964 0 0 1 -3.046-3.868z"/><path d="m87.685 39.271a1.751 1.751 0 0 0 -2.643 1.544 23.992 23.992 0 0 0 3.07 10.5 23.988 23.988 0 0 0 7.641 7.824 1.75 1.75 0 0 0 2.641-1.545 23.988 23.988 0 0 0 -3.071-10.494 24 24 0 0 0 -7.638-7.829zm3.449 10.273a19.006 19.006 0 0 1 -1.878-4.552 17.911 17.911 0 0 1 4.924 8.42 18.929 18.929 0 0 1 -3.046-3.868z"/><path d="m81.79 57.948a1.751 1.751 0 0 0 -2.642 1.545 23.994 23.994 0 0 0 3.071 10.494 23.967 23.967 0 0 0 7.64 7.823 1.75 1.75 0 0 0 2.641-1.544 22.595 22.595 0 0 0 -10.71-18.318zm3.45 10.274a19.036 19.036 0 0 1 -1.878-4.553 17.908 17.908 0 0 1 4.924 8.421 18.991 18.991 0 0 1 -3.046-3.868z"/><path d="m83.537 84.448a24.016 24.016 0 0 0 -7.64-7.823 1.751 1.751 0 0 0 -2.642 1.545 22.588 22.588 0 0 0 10.711 18.318 1.75 1.75 0 0 0 2.641-1.545 23.989 23.989 0 0 0 -3.07-10.494zm-4.19 2.45a18.943 18.943 0 0 1 -1.878-4.551 18.981 18.981 0 0 1 3.047 3.869 19.02 19.02 0 0 1 1.878 4.553 18.94 18.94 0 0 1 -3.047-3.869z"/><path d="m70 95.3a1.75 1.75 0 0 0 -2.642 1.545 22.587 22.587 0 0 0 10.711 18.317 1.751 1.751 0 0 0 2.642-1.545 22.585 22.585 0 0 0 -10.711-18.317zm3.45 10.273a19 19 0 0 1 -1.878-4.554 17.921 17.921 0 0 1 4.925 8.422 18.966 18.966 0 0 1 -3.044-3.865z"/></g></svg>