<svg height="512" viewBox="0 0 56 60" width="512" xmlns="http://www.w3.org/2000/svg"><g id="005---Bread-Roll"><path id="Shape" d="m19 11c0 .5522847.4477153 1 1 1s1-.4477153 1-1c0-.27 1-.69 1-2s-1-1.73-1-2 1-.69 1-2c0-.55228475-.4477153-1-1-1s-1 .44771525-1 1c0 .27-1 .69-1 2s1 1.73 1 2-1 .69-1 2z"/><path id="Shape" d="m26 7c0 .55228475.4477153 1 1 1s1-.44771525 1-1c0-.27 1-.69 1-2s-1-1.74-1-2 1-.69 1-2c0-.55228475-.4477153-1-1-1s-1 .44771525-1 1c0 .27-1 .68-1 2s1 1.73 1 2-1 .69-1 2z"/><path id="Shape" d="m33 9c0 .55228475.4477153 1 1 1s1-.44771525 1-1c0-.27 1-.69 1-2s-1-1.74-1-2 1-.69 1-2c0-.55228475-.4477153-1-1-1s-1 .44771525-1 1c0 .27-1 .68-1 2s1 1.73 1 2-1 .69-1 2z"/><path id="Shape" d="m10.4 31c.53 0 .68-.26 1.71-1.29.3921222-.3921222.3921222-1.0278778 0-1.42s-1.0278778-.3921222-1.42 0l-1 1c-.28845995.2860905-.37516186.7182668-.21937095 1.0934815s.52310588.6188811.92937095.6165185z"/><path id="Shape" d="m47 37c.53 0 .67-.26 1.71-1.29.2536586-.2536586.3527235-.623374.259878-.969878-.0928454-.3465041-.3634959-.6171546-.71-.71-.346504-.0928455-.7162194.0062194-.969878.259878l-1 1c-.2884599.2860905-.3751619.7182668-.219371 1.0934815.155791.3752147.5231059.6188811.929371.6165185z"/><path id="Shape" d="m19 34c.53 0 .67-.26 1.71-1.29.3921221-.3921222.3921221-1.0278778 0-1.42-.3921222-.3921221-1.0278778-.3921221-1.42 0l-1 1c-.2884599.2860905-.3751619.7182668-.219371 1.0934815.155791.3752147.5231059.6188811.929371.6165185z"/><path id="Shape" d="m29.29 29.71c.1877666.1893127.4433625.2957983.71.2957983s.5222334-.1064856.71-.2957983l1-1c.3921221-.3921222.3921221-1.0278778 0-1.42-.3921222-.3921221-1.0278778-.3921221-1.42 0l-1 1c-.1893127.1877666-.2957983.4433625-.2957983.71s.1064856.5222334.2957983.71z"/><path id="Shape" d="m37 26c.53 0 .67-.26 1.71-1.29.3921221-.3921222.3921221-1.0278778 0-1.42-.3921222-.3921221-1.0278778-.3921221-1.42 0l-1 1c-.2884599.2860905-.3751619.7182668-.219371 1.0934815.155791.3752147.5231059.6188811.929371.6165185z"/><path id="Shape" d="m42 30c.53 0 .67-.26 1.71-1.29.3921221-.3921222.3921221-1.0278778 0-1.42-.3921222-.3921221-1.0278778-.3921221-1.42 0l-1 1c-.2884599.2860905-.3751619.7182668-.219371 1.0934815.155791.3752147.5231059.6188811.929371.6165185z"/><path id="Shape" d="m37.29 34.71c.3921222.3921221 1.0278778.3921221 1.42 0 .3921221-.3921222.3921221-1.0278778 0-1.42l-1-1c-.3921222-.3921222-1.0278778-.3921222-1.42 0s-.3921222 1.0278778 0 1.42z"/><path id="Shape" d="m20.29 26.71c.2536586.2536586.623374.3527235.969878.259878.3465041-.0928454.6171546-.3634959.71-.71.0928455-.346504-.0062194-.7162194-.259878-.969878l-1-1c-.3921222-.3921222-1.0278778-.3921222-1.42 0s-.3921222 1.0278778 0 1.42z"/><path id="Shape" d="m27.29 36.71c.3921222.3921222 1.0278778.3921222 1.42 0s.3921222-1.0278778 0-1.42l-1-1c-.3921222-.3921221-1.0278778-.3921221-1.42 0-.3921221.3921222-.3921221 1.0278778 0 1.42z"/><path id="Shape" d="m28.29 22.71c.3921222.3921222 1.0278778.3921222 1.42 0s.3921222-1.0278778 0-1.42l-1-1c-.3921222-.3921222-1.0278778-.3921222-1.42 0s-.3921222 1.0278778 0 1.42z"/><path id="Shape" d="m7.29 36.71c.39212218.3921221 1.02787781.3921221 1.41999996 0 .39212216-.3921222.39212218-1.0278778.00000004-1.42l-1-1c-.39212218-.3921221-1.02787781-.3921221-1.41999996 0-.39212216.3921222-.39212218 1.0278778-.00000004 1.42z"/><path id="Shape" d="m28 60c9.09 0 28 0 28-20 0-12.38-14.13-25-28-25s-28 12.62-28 25c0 20 18.91 20 28 20zm0-43c12.64 0 26 11.82 26 23 0 18-16.91 18-26 18s-26 0-26-18c0-11.18 13.36-23 26-23z"/></g></svg>