<svg id="Capa_1" enable-background="new 0 0 512 512" height="512" viewBox="0 0 512 512" width="512" xmlns="http://www.w3.org/2000/svg"><g><g><path d="m318.63 51.52h-125.26c-108.432 0-193.37 38.791-193.37 88.31 0 13.296 5.951 25.964 17.695 37.662 4.159 4.13 6.545 10.031 6.545 16.188v73.72c0 4.142 3.358 7.5 7.5 7.5s7.5-3.358 7.5-7.5v-73.72c0-10.126-4-19.906-10.968-26.824-8.807-8.772-13.272-17.864-13.272-27.026 0-18.147 18.199-36.467 49.932-50.263 34.184-14.862 79.797-23.047 128.438-23.047s94.254 8.185 128.438 23.047c31.732 13.796 49.932 32.116 49.932 50.263 0 9.161-4.466 18.254-13.265 27.018-6.975 6.926-10.975 16.706-10.975 26.832v151.52c0 4.142 3.358 7.5 7.5 7.5s7.5-3.358 7.5-7.5v-151.52c0-6.158 2.385-12.058 6.552-16.196 11.737-11.689 17.688-24.358 17.688-37.654 0-30.875-33.023-57.578-84.17-73.31h16.059c48.641 0 94.254 8.185 128.438 23.047 31.734 13.796 49.933 32.116 49.933 50.263 0 9.162-4.465 18.254-13.265 27.018-6.975 6.926-10.976 16.706-10.976 26.832v16.22c0 4.142 3.358 7.5 7.5 7.5s7.5-3.358 7.5-7.5v-16.22c0-6.158 2.386-12.058 6.553-16.196 11.737-11.69 17.688-24.358 17.688-37.654 0-49.519-84.938-88.31-193.37-88.31z"/><path d="m480.26 237.5c-4.142 0-7.5 3.358-7.5 7.5v187.78c0 7.003-5.702 12.7-12.71 12.7h-100.647c1.974-3.807 3.097-8.124 3.097-12.7v-52.48c0-4.142-3.358-7.5-7.5-7.5s-7.5 3.358-7.5 7.5v52.48c0 7.003-5.702 12.7-12.71 12.7h-282.84c-7.008 0-12.71-5.697-12.71-12.7v-130.28c0-4.142-3.358-7.5-7.5-7.5s-7.5 3.358-7.5 7.5v130.28c0 15.274 12.431 27.7 27.71 27.7h408.1c15.279 0 27.71-12.426 27.71-27.7v-187.78c0-4.142-3.358-7.5-7.5-7.5z"/><path d="m64.069 428.157h258.602c4.142 0 7.5-3.358 7.5-7.5v-226.981c0-14.693 5.861-28.949 16.079-39.111 3.725-3.703 8.165-9.266 8.165-14.733 0-8.56-12.218-22.509-39.513-34.377-31.589-13.735-75.885-21.612-121.532-21.612s-89.943 7.877-121.531 21.611c-27.296 11.868-39.514 25.817-39.514 34.377 0 5.466 4.439 11.029 8.164 14.732 10.219 10.163 16.081 24.418 16.081 39.112v226.981c-.001 4.143 3.357 7.501 7.499 7.501zm-13.003-284.229c-1.816-1.806-2.859-3.226-3.394-4.106 1.935-3.185 9.817-11.771 30.148-20.611 29.77-12.944 71.886-20.367 115.55-20.367s85.78 7.423 115.55 20.367c20.331 8.84 28.212 17.426 30.147 20.611-.535.88-1.578 2.299-3.395 4.106-13.03 12.958-20.502 31.091-20.502 49.748v219.481h-243.601v-219.481c0-18.658-7.473-36.79-20.503-49.748z"/><circle cx="101.445" cy="187.309" r="10.102"/><circle cx="101.445" cy="146.902" r="10.102"/><circle cx="141.852" cy="146.902" r="10.102"/></g></g></svg>