<?xml version="1.0" encoding="iso-8859-1"?>
<!-- Generator: Adobe Illustrator 19.0.0, SVG Export Plug-In . SVG Version: 6.00 Build 0)  -->
<svg version="1.1" id="Capa_1" xmlns="http://www.w3.org/2000/svg" xmlns:xlink="http://www.w3.org/1999/xlink" x="0px" y="0px"
	 viewBox="0 0 511.845 511.845" style="enable-background:new 0 0 511.845 511.845;" xml:space="preserve">
<g>
	<g>
		<path d="M509.367,302.223l-14.554-74.455c0.057-1.855,0.013-3.711-0.133-5.561c-1.327-14.31-8.248-27.518-19.258-36.754
			l-2.029-1.756c7.456-19.044,1.82-40.722-13.967-53.723c-14.673-12.44-32.51-20.565-51.525-23.471l-25.284-4.082
			c-0.927-1.648-1.938-3.248-3.029-4.793c-24.683-34.738-77.016-72.125-133.591-72.125c-61.296,0-107.517,22.013-107.517,51.2
			c-0.001,1.233,0.083,2.465,0.25,3.688l-20.081,22.078c-0.508-0.077-1.023-0.105-1.536-0.082l-41.463,5.858
			c-13.925,1.719-26.313,9.674-33.671,21.621c-8.823,15.031-9.769,33.418-2.533,49.274c-0.065-0.002-0.118-0.037-0.183-0.037h-0.996
			c-2.037,0-4.007,0.729-5.554,2.054l-5.775,4.95c-17.384,14.187-23.897,37.815-16.236,58.905l-9.331,63.67
			c-5.785,41.225,6.917,82.902,34.712,113.892c37.524,41.611,91.276,64.867,147.296,63.729h145.067
			c57.247,0.949,111.999-23.396,149.642-66.537C505.834,387.373,517.344,344.121,509.367,302.223z M130.529,114.769l16.138-17.745
			c15.879,18.5,53.367,30.879,99.329,30.879c0.845-0.04,1.679-0.208,2.473-0.499c0.794,0.291,1.628,0.46,2.473,0.499
			c29.762,0,53.075-14.992,53.075-34.133c0-19.142-23.312-34.133-53.075-34.133c-14.008-0.36-27.8,3.503-39.583,11.088
			c-3.833,2.732-4.73,8.052-2.003,11.889s8.046,4.741,11.886,2.019c8.91-5.495,19.237-8.252,29.7-7.929
			c20.608,0,36.008,9.008,36.008,17.067c0,8.058-15.4,17.067-36.008,17.067c-0.845,0.04-1.679,0.208-2.473,0.499
			c-0.794-0.291-1.628-0.46-2.473-0.499c-51.767,0-90.45-18.021-90.45-34.133s38.683-34.133,90.45-34.133
			c50.521,0,97.454,33.662,119.679,64.942c4.788,5.789,6.732,13.417,5.3,20.792c-1.639,4.957-5.534,8.842-10.496,10.467
			l-17.267,7.029c-19.365,7.811-40.729,9.181-60.933,3.908l-6.308-1.65c-20.453-5.356-41.992-4.928-62.216,1.237
			c-18.461,5.575-38.156,5.575-56.617,0l-17.008-5.196c-6.536-1.783-11.699-6.797-13.671-13.279
			C124.917,125.125,126.46,119.039,130.529,114.769z M56.746,138.427c4.718-7.427,12.551-12.313,21.296-13.283l31.259-4.417
			c-0.847,4.863-0.608,9.853,0.699,14.612c3.506,12.132,13.005,21.607,25.146,25.083l17.008,5.196c21.713,6.55,44.875,6.55,66.587,0
			c17.197-5.251,35.516-5.616,52.908-1.054l6.308,1.65c23.773,6.195,48.908,4.579,71.692-4.608l17.262-7.029
			c9.789-3.6,17.347-11.547,20.45-21.504c1.137-4.034,1.52-8.243,1.129-12.416l16.692,2.695c15.897,2.405,30.817,9.171,43.1,19.546
			c6.373,4.957,10.476,12.275,11.381,20.298s-1.465,16.071-6.573,22.323c-0.162,0.167-0.817,0.85-0.963,1.029
			c-14.237,15.756-36.146,22.129-56.612,16.467l-25.329-6.571c-23.046-5.952-47.346-4.862-69.767,3.129l-48.704,17.495
			c-22.78,8.016-47.653,7.766-70.267-0.708l-32.5-12.471c-13.454-5.114-27.728-7.731-42.121-7.721H91.059
			c-7.664,0.061-15.16-2.247-21.463-6.608C52.317,178.703,46.653,156.164,56.746,138.427z M24.643,223.423
			c0.955-9.608,5.797-18.409,13.403-24.358v0l3.867-3.317c2.198-0.749,3.992-2.368,4.964-4.478c3.675,4.65,7.991,8.754,12.82,12.19
			c9.196,6.414,20.151,9.828,31.362,9.775h15.771c12.314-0.008,24.526,2.228,36.037,6.6l32.492,12.467
			c13.514,5.09,27.839,7.685,42.279,7.658c13.577,0.03,27.058-2.281,39.85-6.833l48.708-17.496c19.186-6.835,39.98-7.766,59.7-2.671
			l25.362,6.579c26.387,7.144,54.558-0.991,73.074-21.103c7.572,6.311,12.362,15.344,13.339,25.153
			c0.671,9.657-2.595,19.174-9.054,26.383c-17.583,18.357-43.935,25.379-68.321,18.204c-1.665-0.46-3.385-0.686-5.113-0.671
			c-9.404-0.34-17.315,6.982-17.704,16.383v40.279c-0.893,5.353-5.793,9.089-11.192,8.533c-3.078,0.051-6.069-1.024-8.408-3.025
			c-1.705-1.327-2.727-3.348-2.784-5.508v-17.067c-1.439-14.528-13.659-25.598-28.258-25.598s-26.819,11.07-28.258,25.598v42.667
			c-1.314,10.53-10.776,18.098-21.338,17.067c-5.665,0.063-11.173-1.867-15.558-5.454c-3.547-2.828-5.662-7.078-5.779-11.612
			v-18.775c-0.222-15.17-7.612-29.34-19.925-38.204c-15.695-11.542-35.845-15.177-54.583-9.846
			c-0.237,0.046-0.475,0.104-0.708,0.171c-13.249,3.811-27.502,1.626-39-5.979l-8.05-5.379
			c-15.481-10.413-34.755-13.498-52.713-8.438c-0.229,0.046-0.454,0.1-0.679,0.162c-16.643,4.982-34.672,0.088-46.512-12.625
			l-0.746-0.912C26.703,242.613,23.688,233.032,24.643,223.423z M464.921,408.906c-34.388,39.226-84.319,61.298-136.475,60.329
			H183.379c-51.061,1.132-100.096-19.967-134.383-57.821c-24.523-27.255-35.772-63.941-30.742-100.258l6.605-45.07
			c16.082,14.599,38.551,19.882,59.453,13.979c0.245-0.046,0.487-0.104,0.725-0.175c13.248-3.818,27.504-1.632,39,5.979l8.05,5.379
			c15.481,10.412,34.755,13.497,52.713,8.438c0.233-0.046,0.467-0.1,0.696-0.167c13.746-4.102,28.62-1.55,40.212,6.9
			c8.063,5.614,12.945,14.752,13.129,24.575v18.775c0.079,9.526,4.38,18.525,11.742,24.571c7.463,6.264,16.919,9.656,26.662,9.563
			c19.998,1.085,37.135-14.146,38.404-34.133v-42.667c1.383-5.04,5.965-8.534,11.191-8.534s9.808,3.494,11.191,8.534v17.067
			c0.049,7.115,3.224,13.849,8.683,18.412c5.425,4.712,12.39,7.269,19.575,7.188c14.854,0.681,27.473-10.752,28.258-25.6v-39.471
			c0.349-0.077,0.705-0.113,1.063-0.108c30.768,8.915,63.938-0.137,85.912-23.446c0.692-0.8,1.302-1.643,1.942-2.47l9.149,46.811
			C499.574,342.376,489.385,380.431,464.921,408.906z"/>
	</g>
</g>
<g>
</g>
<g>
</g>
<g>
</g>
<g>
</g>
<g>
</g>
<g>
</g>
<g>
</g>
<g>
</g>
<g>
</g>
<g>
</g>
<g>
</g>
<g>
</g>
<g>
</g>
<g>
</g>
<g>
</g>
</svg>
