<svg height="512" viewBox="0 0 60 60" width="512" xmlns="http://www.w3.org/2000/svg"><g id="015---Pizza"><path id="Shape" d="m1.84 43.64c-.36 1.66-.34 6.16 6.89 13.36 2.13 2.13 4.25 3 6 3 1.2851508.0237871 2.5267756-.465665 3.45-1.36 2.34-2.34 1.37-5 .52-7.32-1-2.64-1.87-5.12.37-8.13 1.7367392-2.2075956 4.0329225-3.9098789 6.65-4.93.3185141.1231131.6659641.1509091 1 .08 1.82-.36 1.48-2.65 2.79-4l4.85-4.85c.892514-.6338442 1.8774163-1.1262953 2.92-1.46.8916679-.3899282 1.3287758-1.4040185 1-2.32 1.0192597-2.6175533 2.7216987-4.9139467 4.93-6.65 3-2.24 5.49-1.33 8.13-.37 2.81 1 5.14 1.66 7.31-.52 1.0829119-1.1424836 1.5645656-2.7282358 1.3-4.28-.4054369-1.9915102-1.4395069-3.8002565-2.95-5.16-7.2-7.24-11.7-7.25-13.36-6.89-2.76-2.34-7-2.45-11.91-.27-1.0966444.49541491-2.3533556.49541491-3.45 0-1.1633886-.58477625-2.4996215-.72692868-3.76-.4-1.5186306.31721465-2.9791725.86702603-4.33 1.63-1.1492118.61421364-2.5115586.68745809-3.72.2-1.004892-.38435041-2.1014373-.46093454-3.15-.22-4.93.22-10.32 5.61-10.54 10.54-.24093454 1.0485627-.16435041 2.145108.22 3.15.49362759 1.2055088.42771116 2.5677817-.18 3.72-.76297397 1.3508275-1.31278535 2.8113694-1.63 4.33-.32054985 1.2608431-.17863791 2.5948152.4 3.76.49541491 1.0966444.49541491 2.3533556 0 3.45-2.2 4.95-2.09 9.15.25 11.91zm15 13.59c-1.22 1.22-3.82 1.23-6.67-1.62-5.75-5.74-6.43-9.41-6.39-11 4.00061161 1.0215678 8.1837804 1.1003018 12.22.23-1.59 5.48 3.63 9.57.81 12.39zm-12.28-36.06c.89374586-1.6622906 1.01078314-3.6336372.32-5.39-.10509019-.2975868-.17555453-.6062877-.21-.92 2.33 1.07 8.84 5 22.83 18.91-.4653681.8119523-.8537281 1.6656746-1.16 2.55-7.35-6.6-19.59-11-23-12.19.28599521-1.032192.69562897-2.0260575 1.22-2.96zm51.05-11c1.21584 1.0542185 2.054891 2.4760414 2.39 4.05.1792207.9301667-.0914065 1.8903369-.73 2.59-2.83 2.82-6.9-2.41-12.39-.77.8892841-4.0561008.8242415-8.26332717-.19-12.29 1.5-.04 5.17.64 10.92 6.39zm-23.07-6.77c2.5-1.1 7.09-2.53 10 .11 1.0952659 3.93055412 1.2290281 8.0668941.39 12.06-.0983072.7603453-.450708 1.4651471-1 2-2.122081 1.7202875-3.850892 3.8753339-5.07 6.32-5.57-6.84-9.5-17.34-10.71-20.89.4463892.05073394.881846.17225678 1.29.36 1.6158409.74301435 3.4727034.75757798 5.1.04zm-11.37 1.16c.9465695-.52735404 1.9540366-.93705734 3-1.22 5.46 16.15 12.11 22.82 12.21 23-.8901322.3118607-1.7502904.7034502-2.57 1.17-13.98-14.03-17.89-20.51-18.95-22.84.3145159.02955793.6238099.10015764.92.21 1.7572291.68531098 3.7262018.56841464 5.39-.32zm-8.4.3c.89 2.29 4.55 8.94 19.5 24l-3.44 3.44c-15-14.94-21.68-18.61-24-19.5.95666831-3.9215074 4.0184926-6.98333169 7.94-7.94zm11.12 32c-2.4446661 1.219108-4.5997125 2.947919-6.32 5.07-.5348529.549292-1.2396547.9016928-2 1-3.9931059.8390281-8.12944588.7052659-12.06-.39-2.64-2.91-1.22-7.54-.11-10 .73027153-1.621574.73027153-3.478426 0-5.1-.20156298-.4058014-.3366174-.8413519-.4-1.29 3.55 1.21 14.05 5.14 20.89 10.71z"/><path id="Shape" d="m6.11 34c.52188426.1790902 1.09020546-.098358 1.27-.62.27131514-.7824587.4459441-1.595155.52-2.42.03956645-.271865-.03445773-.5480341-.20469203-.7636642-.17023429-.2156301-.42168328-.351727-.69530797-.3763358-.54944011-.0521958-1.0372823.3506097-1.09.9-.05584486.6816025-.19694575 1.3535115-.42 2-.08911239.2518942-.07371292.5289745.04276379.7694425.11647672.2404681.32434249.4243225.57723621.5105575z"/><path id="Shape" d="m5.32 40.88c.34266863-.0009687.66097934-.1773272.84350468-.4673397.18252533-.2900125.20384479-.6532886.05649532-.9626603-.26474611-.7313789-.30650885-1.5248708-.12-2.28.09388841-.5522847-.27771525-1.0761116-.83-1.17s-1.07611159.2777153-1.17.83c-.21 1.39-.2 4.05 1.22 4.05z"/><path id="Shape" d="m20.49 9c.818187-.15414752 1.6075503-.43413537 2.34-.83.3543202-.13987098.5984007-.46889703.6294817-.84855566.0310809-.37965862-.1562365-.74400132-.4830903-.93963701-.3268537-.19563568-.7364677-.1885815-1.0563914.01819267-.5348414.2717944-1.0983232.48310009-1.68.63-.4910988.12302845-.8127732.59367176-.7490364 1.09591832.0637369.50224656.4927742.87762189.9990364.87408168z"/></g></svg>