<?xml version="1.0" encoding="iso-8859-1"?>
<!-- Generator: Adobe Illustrator 19.0.0, SVG Export Plug-In . SVG Version: 6.00 Build 0)  -->
<svg version="1.1" id="Capa_1" xmlns="http://www.w3.org/2000/svg" xmlns:xlink="http://www.w3.org/1999/xlink" x="0px" y="0px"
	 viewBox="0 0 511.994 511.994" style="enable-background:new 0 0 511.994 511.994;" xml:space="preserve">
<g>
	<g>
		<path d="M470.303,297.087c27.721-83.6-34.219-122.554-52.581-131.994c0.104-0.536,0.258-1.052,0.333-1.599
			c1.571-10.629-3.235-21.192-12.279-26.992c-4.389-2.688-9.09-4.828-13.999-6.372c-2.674-17.081-8.175-33.596-16.276-48.87
			c-17.806-35.244-54.439-56.96-93.904-55.667c-0.313,0-0.626,0.017-0.937,0.05c-18.021,1.967-70.65,2.717-76.117-19.183
			c-0.75-2.991-3.055-5.345-6.03-6.159s-6.157,0.04-8.325,2.233l-0.996,1.042c-14.643,15.776-21.325,37.351-18.163,58.642
			c-34.407,13.148-59.381,43.4-65.775,79.674c-1.473,7.116-1.123,14.488,1.017,21.433c-16.626,7.002-31.663,17.298-44.204,30.267
			c-18.611,19.643-36.805,53.411-20.362,103.475c-7.742,7.036-10.315,18.133-6.459,27.858v0l59.408,159.308
			c6.268,16.656,22.179,27.705,39.975,27.758h242.733c17.798-0.052,33.711-11.101,39.979-27.758l59.354-159.183
			C480.624,315.311,478.073,304.154,470.303,297.087z M194.975,24.019c21.287,24.533,77.842,19.642,87.075,18.642
			c69.754,0.266,87.808,62.14,92.158,85.717c-2.637,0.125-5.274,0.25-7.888,0.31c-3.569,0.08-7.141,0.172-10.662,0.138
			c-3.927-0.036-7.791-0.194-11.65-0.362c-3.626-0.159-7.264-0.295-10.824-0.56c-3.637-0.27-7.19-0.65-10.752-1.022
			c-3.606-0.377-7.234-0.724-10.755-1.194c-3.397-0.454-6.684-1.004-9.997-1.536c-3.486-0.559-7.011-1.086-10.397-1.721
			c-3.233-0.607-6.326-1.295-9.46-1.962c-3.242-0.689-6.543-1.344-9.672-2.087c-3.212-0.764-6.242-1.589-9.329-2.397
			c-2.814-0.736-5.719-1.445-8.422-2.21c-3.479-0.986-6.718-2.01-10.002-3.029c-2.061-0.639-4.253-1.26-6.233-1.905
			c-5.149-1.68-10.047-3.374-14.616-5.046c-2.151-0.787-4.25-1.707-6.288-2.753c-0.184-0.094-0.35-0.215-0.533-0.31
			c-1.836-0.957-3.617-2.016-5.334-3.173c-0.107-0.072-0.201-0.159-0.307-0.232c-1.737-1.195-3.405-2.488-4.994-3.874
			c-0.197-0.173-0.37-0.369-0.565-0.545c-1.429-1.28-2.791-2.633-4.079-4.055c-0.451-0.503-0.851-1.052-1.283-1.573
			c-0.93-1.114-1.849-2.237-2.69-3.423c-0.721-1.027-1.368-2.108-2.02-3.188c-0.439-0.718-0.899-1.422-1.306-2.161
			c-0.847-1.561-1.611-3.178-2.313-4.833c-0.131-0.306-0.281-0.601-0.407-0.909c-0.765-1.902-1.427-3.844-1.984-5.817
			c-0.215-0.755-0.503-1.477-0.687-2.245C185.305,50.857,187.543,36.202,194.975,24.019z M121.946,145.444
			c5.209-29.934,25.399-55.108,53.487-66.692c0.168,0.424,0.39,0.815,0.565,1.235c1.015,2.432,2.162,4.806,3.437,7.112
			c1.063,1.929,2.177,3.819,3.402,5.628c0.333,0.488,0.71,0.939,1.055,1.418c1.333,1.867,2.739,3.671,4.241,5.395
			c0.358,0.408,0.735,0.794,1.102,1.194c1.563,1.712,3.206,3.345,4.928,4.898c0.417,0.374,0.838,0.741,1.264,1.106
			c1.729,1.482,3.531,2.88,5.406,4.194c0.502,0.354,0.991,0.716,1.502,1.057c1.877,1.248,3.828,2.396,5.835,3.473
			c0.553,0.299,1.08,0.629,1.642,0.914c2.555,1.302,5.184,2.454,7.873,3.451c3.852,1.409,7.969,2.833,12.223,4.253
			c0.665,0.222,1.3,0.44,1.974,0.662c4.132,1.357,8.455,2.701,12.925,4.022c0.859,0.254,1.715,0.504,2.586,0.756
			c4.557,1.318,9.253,2.605,14.121,3.842c0.753,0.192,1.522,0.372,2.282,0.561c5.171,1.285,10.462,2.527,15.943,3.671l0.082,0.016
			c5.425,1.131,11.032,2.153,16.732,3.102c0.843,0.14,1.667,0.289,2.515,0.424c5.518,0.883,11.153,1.656,16.904,2.32
			c1.045,0.121,2.088,0.239,3.14,0.352c5.806,0.629,11.701,1.146,17.702,1.512c0.877,0.053,1.763,0.085,2.644,0.133
			c10.366,0.558,20.969,0.728,31.791,0.333c1.303-0.047,2.622-0.148,3.93-0.211c2.674-0.129,5.343-0.236,8.039-0.432
			c4.704,1.216,9.196,3.141,13.321,5.708h0.004c3.459,2.217,5.267,6.279,4.6,10.333c-0.236,1.566-0.797,3.065-1.646,4.402
			c-0.092,0.124-0.213,0.219-0.3,0.348c-1.287,2.069-3.272,3.609-5.596,4.342c-11.193,3.433-22.555,6.287-34.042,8.551
			c-28.661,5.474-57.76,8.326-86.939,8.521c-43.425,0.284-86.791-3.259-129.594-10.59c-6.942-1.152-13.11-5.097-17.067-10.917
			l-0.111-0.127C121.825,159.779,120.415,152.451,121.946,145.444z M134.629,494.928c-10.679-0.031-20.226-6.662-23.983-16.658v0
			L51.188,318.836c-1.026-2.626-0.689-5.589,0.901-7.918s4.226-3.722,7.045-3.724h11.746l70.4,187.733H134.629z M187.729,494.928
			h-28.217L87.34,302.468l36.489-20.856c7.878-4.467,17.522-4.467,25.4,0l38.5,22.001V494.928z M307.196,494.928h-102.4l0-191.315
			l38.5-22.001c7.878-4.467,17.522-4.467,25.4,0l38.5,22.001V494.928z M277.163,266.794c-13.126-7.458-29.208-7.458-42.333,0
			l-38.567,22.039l-38.567-22.039c-13.123-7.467-29.21-7.467-42.333,0l-40.834,23.333H57.313
			c-23.733-75.633,44.312-106.525,55.213-110.933h2.192c0.433,0.508,0.959,0.906,1.413,1.391c0.841,0.898,1.702,1.754,2.611,2.57
			c1.13,1.003,2.314,1.945,3.545,2.821c0.939,0.677,1.858,1.364,2.849,1.961c1.453,0.849,2.955,1.611,4.498,2.281
			c0.901,0.406,1.756,0.881,2.687,1.226c2.544,0.96,5.172,1.68,7.85,2.151c3.646,0.616,7.52,1.242,11.578,1.866
			c1.524,0.235,3.186,0.464,4.765,0.696c2.634,0.39,5.237,0.779,8.015,1.16c1.954,0.268,4.03,0.522,6.052,0.784
			c2.58,0.334,5.126,0.67,7.81,0.992c2.206,0.264,4.508,0.507,6.78,0.759c2.684,0.299,5.346,0.598,8.118,0.877
			c2.359,0.237,4.789,0.449,7.208,0.67c2.827,0.258,5.644,0.515,8.547,0.746c2.496,0.2,5.041,0.371,7.589,0.549
			c2.961,0.207,5.921,0.407,8.946,0.581c2.587,0.149,5.204,0.27,7.835,0.393c3.106,0.145,6.218,0.277,9.379,0.381
			c2.652,0.088,5.32,0.151,8.007,0.208c3.22,0.069,6.449,0.116,9.714,0.137c1.395,0.009,2.753,0.058,4.155,0.058
			c1.497,0,3.027-0.05,4.532-0.061c2.654-0.019,5.308-0.053,7.983-0.107c2.983-0.06,5.977-0.154,8.983-0.261
			c2.802-0.099,5.599-0.207,8.417-0.348c2.948-0.148,5.902-0.34,8.863-0.536c2.87-0.191,5.734-0.382,8.614-0.62
			c2.978-0.246,5.955-0.552,8.939-0.852c2.861-0.289,5.715-0.566,8.577-0.906c3.059-0.363,6.111-0.802,9.168-1.227
			c2.779-0.386,5.556-0.748,8.329-1.188c3.231-0.513,6.443-1.121,9.662-1.708c2.577-0.471,5.16-0.899,7.727-1.42
			c3.663-0.743,7.291-1.609,10.925-2.458c2.093-0.49,4.203-0.916,6.283-1.442c5.707-1.442,11.363-3.022,16.969-4.74
			c1.952-0.625,3.83-1.462,5.599-2.496c0.146-0.085,0.295-0.16,0.439-0.248c1.808-1.068,3.488-2.341,5.006-3.793
			c14.229,6.854,67.947,38.086,45.01,110.088h-17.229l-40.833-23.333c-13.123-7.467-29.21-7.467-42.333,0l-38.567,22.039
			L277.163,266.794z M324.263,494.928l0-191.315l38.5-22.001c7.878-4.467,17.522-4.467,25.4,0l36.489,20.857l-72.172,192.46H324.263
			z M460.754,318.961L401.35,478.269c-3.759,9.997-13.307,16.628-23.988,16.658h-6.65l70.4-187.733h11.746
			c2.843,0.002,5.499,1.419,7.083,3.78S461.83,316.329,460.754,318.961L460.754,318.961z"/>
	</g>
</g>
<g>
</g>
<g>
</g>
<g>
</g>
<g>
</g>
<g>
</g>
<g>
</g>
<g>
</g>
<g>
</g>
<g>
</g>
<g>
</g>
<g>
</g>
<g>
</g>
<g>
</g>
<g>
</g>
<g>
</g>
</svg>
