<svg id="Capa_1" enable-background="new 0 0 512 512" height="512" viewBox="0 0 512 512" width="512" xmlns="http://www.w3.org/2000/svg"><g><g><path d="m436.117 74.081c-2.943-2.914-7.691-2.892-10.606.052-2.915 2.943-2.892 7.692.052 10.606 46.067 45.622 71.437 106.444 71.437 171.261v57c0 12.3-10.194 22.5-22.5 22.5-12.407 0-22.5-10.093-22.5-22.5v-27c0-20.678-16.822-37.5-37.5-37.5s-37.5 16.822-37.5 37.5v77c0 12.407-10.093 22.5-22.5 22.5s-22.5-10.093-22.5-22.5v-107c0-41.907-34.093-76-76-76s-76 34.093-76 76c0 39.852-28.392 73.973-67.51 81.132-4.075.746-6.773 4.653-6.027 8.728.662 3.618 3.817 6.151 7.369 6.151.448 0 .902-.041 1.359-.124 34.216-6.262 61.472-29.975 73.346-60.958 12.67 24.374 38.145 41.071 67.463 41.071 24.955 0 47.136-12.093 61-30.723v61.723c0 20.678 16.822 37.5 37.5 37.5s37.5-16.822 37.5-37.5v-77c0-12.407 10.093-22.5 22.5-22.5s22.5 10.093 22.5 22.5v27c0 20.678 16.822 37.5 37.5 37.5 1.122 0 2.229-.059 3.326-.156-28.763 67.663-86.975 118.784-158.396 138.219-3.997 1.087-6.355 5.209-5.268 9.206.908 3.337 3.932 5.533 7.232 5.533.652 0 1.314-.086 1.974-.265 80.393-21.875 145.018-81.549 173.374-159.868 9.248-6.837 15.258-17.813 15.258-30.169v-57c0-68.852-26.949-133.458-75.883-181.919zm-180.117 242.919c-33.636 0-61-27.364-61-61s27.364-61 61-61 61 27.364 61 61-27.364 61-61 61z"/><path d="m287.748 494.933c-10.492 1.372-21.173 2.067-31.748 2.067-110.907 0-204.54-75.311-232.486-177.475 14.108 16.448 33.678 28.223 56.296 32.362.457.083.911.124 1.359.124 3.551 0 6.707-2.533 7.369-6.151.746-4.074-1.953-7.982-6.027-8.728-39.119-7.159-67.511-41.28-67.511-81.132 0-132.888 108.112-241 241-241 48.956 0 97.75 15.19 137.855 43.302 3.392 2.377 8.067 1.556 10.446-1.837 2.377-3.392 1.555-8.069-1.837-10.446-42.611-29.868-94.448-46.019-146.464-46.019-68.379 0-132.666 26.629-181.019 74.981-48.352 48.353-74.981 112.64-74.981 181.019s26.629 132.666 74.981 181.019c48.353 48.352 112.64 74.981 181.019 74.981 11.223 0 22.558-.738 33.692-2.193 4.107-.537 7.001-4.301 6.465-8.409-.537-4.107-4.301-6.998-8.409-6.465z"/></g><g><g><path d="m53.667 255.167c-4.142 0-7.5-3.358-7.5-7.5v-30c0-4.142 3.358-7.5 7.5-7.5s7.5 3.358 7.5 7.5v30c0 4.142-3.358 7.5-7.5 7.5z"/></g><g><path d="m449 217.167c-4.142 0-7.5-3.358-7.5-7.5v-30c0-4.142 3.358-7.5 7.5-7.5s7.5 3.358 7.5 7.5v30c0 4.142-3.358 7.5-7.5 7.5z"/></g><g><path d="m120.313 191.913c-3.405 0-6.486-2.333-7.296-5.792l-6.839-29.21c-.944-4.033 1.56-8.068 5.593-9.013 4.036-.942 8.068 1.56 9.012 5.593l6.84 29.21c.944 4.033-1.56 8.068-5.593 9.013-.575.135-1.151.199-1.717.199z"/></g><g><path d="m236.593 151.691c-3.405 0-6.486-2.333-7.296-5.792l-6.839-29.21c-.944-4.033 1.56-8.068 5.593-9.013 4.035-.942 8.068 1.56 9.012 5.593l6.84 29.21c.944 4.033-1.56 8.068-5.593 9.013-.576.135-1.151.199-1.717.199z"/></g><g><path d="m362.703 130.82c-3.254 0-6.251-2.134-7.201-5.417-1.151-3.979 1.141-8.138 5.12-9.289l28.818-8.338c3.978-1.148 8.137 1.141 9.289 5.12 1.151 3.979-1.141 8.138-5.12 9.289l-28.818 8.338c-.696.201-1.398.297-2.088.297z"/></g><g><path d="m102.426 300.642c-1.223 0-2.463-.3-3.61-.931-3.629-1.998-4.951-6.559-2.954-10.187l14.467-26.281c1.998-3.629 6.557-4.953 10.187-2.954 3.629 1.998 4.951 6.559 2.954 10.187l-14.467 26.281c-1.366 2.482-3.931 3.885-6.577 3.885z"/></g><g><path d="m369.875 218.194c-1.223 0-2.463-.3-3.61-.931-3.629-1.998-4.951-6.559-2.954-10.187l14.467-26.281c1.999-3.629 6.56-4.951 10.187-2.954 3.629 1.998 4.951 6.559 2.954 10.187l-14.467 26.281c-1.366 2.482-3.931 3.885-6.577 3.885z"/></g><g><path d="m158.526 100.269c-1.908 0-3.816-.723-5.279-2.172-2.942-2.916-2.964-7.665-.048-10.607l21.116-21.31c2.916-2.941 7.664-2.964 10.607-.048 2.942 2.916 2.964 7.665.048 10.607l-21.116 21.31c-1.467 1.478-3.397 2.22-5.328 2.22z"/></g><g><path d="m316.085 88.083c-1.592 0-3.196-.504-4.557-1.547l-23.812-18.249c-3.288-2.52-3.911-7.228-1.391-10.515 2.521-3.288 7.228-3.91 10.515-1.391l23.812 18.248c3.288 2.52 3.911 7.228 1.391 10.515-1.476 1.928-3.704 2.939-5.958 2.939z"/></g></g></g></svg>