<?xml version="1.0" encoding="iso-8859-1"?>
<!-- Generator: Adobe Illustrator 19.0.0, SVG Export Plug-In . SVG Version: 6.00 Build 0)  -->
<svg version="1.1" id="Capa_1" xmlns="http://www.w3.org/2000/svg" xmlns:xlink="http://www.w3.org/1999/xlink" x="0px" y="0px"
	 viewBox="0 0 512 512" style="enable-background:new 0 0 512 512;" xml:space="preserve">
<g>
	<g>
		<path d="M451,300.967h-14.948c-30.083-72.202-101.13-120-180.052-120c-78.923,0-149.97,47.798-180.053,120H60.999
			c-33.028,0-60.999,26.683-60.999,60c0,29.833,18.402,52.248,51.073,58.782l33.218,67.342c7.671,15.344,23.094,24.876,40.25,24.876
			h262.918c17.155,0,32.578-9.532,40.284-24.948l33.235-67.374c32.518-6.439,51.022-28.77,51.022-58.678
			C512,327.582,483.959,300.967,451,300.967z M400.874,473.676c-2.557,5.114-7.697,8.291-13.415,8.291H124.541
			c-5.719,0-10.859-3.177-13.381-8.219L84.978,420.67c16.707-2.152,32.598-7.827,45.091-16.156
			c22.283-14.854,51.078-14.854,73.359,0c32.391,21.594,74.25,21.594,106.641,0c22.283-14.854,51.078-14.854,73.359,0
			c12.719,8.48,28.109,13.86,43.69,15.958L400.874,473.676z M400.069,379.553c-32.391-21.594-74.25-21.594-106.641,0
			c-22.281,14.854-51.076,14.854-73.359,0c-32.391-21.594-74.25-21.594-106.641,0c-23.637,15.758-51.617,11.417-52.618,11.429
			C42.35,388.497,30,379.54,30,360.967c0-16.261,14.195-30,30.999-30h25.243c6.357,0,12.024-4.008,14.143-10.001
			C123.64,255.173,186.176,210.967,256,210.967c69.823,0,132.359,44.205,155.614,109.999c2.118,5.994,7.785,10.001,14.143,10.001
			H451c16.804,0,31,13.738,31,30C482,398.765,426.253,397.008,400.069,379.553z"/>
	</g>
</g>
<g>
	<g>
		<path d="M256,270.967c-8.284,0-15,6.716-15,15v30c0,8.285,6.716,15,15,15s15-6.716,15-15v-30
			C271,277.683,264.284,270.967,256,270.967z"/>
	</g>
</g>
<g>
	<g>
		<path d="M356.607,305.361l-30-30c-5.857-5.857-15.355-5.857-21.213,0c-5.858,5.858-5.858,15.355,0,21.213l30,30
			c5.858,5.858,15.355,5.858,21.213,0C362.465,320.716,362.465,311.219,356.607,305.361z"/>
	</g>
</g>
<g>
	<g>
		<path d="M206.606,275.361c-5.857-5.857-15.355-5.857-21.213,0l-30,30c-5.858,5.858-5.858,15.355,0,21.213
			c5.858,5.858,15.356,5.858,21.213,0l30-30C212.464,290.716,212.464,281.219,206.606,275.361z"/>
	</g>
</g>
<g>
	<g>
		<path d="M190.069,89.515c30.329-20.219,30.282-66.774,0-86.961c-6.893-4.595-16.206-2.733-20.801,4.16
			c-4.596,6.893-2.733,16.206,4.16,20.801c12.499,8.333,12.509,28.699,0,37.039c-30.305,20.202-30.281,64.774,0,84.961
			c6.896,4.597,16.209,2.729,20.801-4.16c4.596-6.893,2.733-16.206-4.16-20.801C177.552,116.208,177.534,97.872,190.069,89.515z"/>
	</g>
</g>
<g>
	<g>
		<path d="M265.069,89.515c30.329-20.219,30.282-66.774,0-86.961c-6.893-4.595-16.206-2.733-20.801,4.16
			c-4.596,6.893-2.733,16.206,4.16,20.801c12.499,8.333,12.509,28.699,0,37.039c-30.305,20.202-30.281,64.774,0,84.961
			c6.896,4.597,16.209,2.729,20.801-4.16c4.596-6.893,2.733-16.206-4.16-20.801C252.552,116.208,252.534,97.872,265.069,89.515z"/>
	</g>
</g>
<g>
	<g>
		<path d="M340.069,89.515c30.329-20.219,30.282-66.774,0-86.961c-6.893-4.595-16.206-2.733-20.801,4.16
			c-4.596,6.893-2.733,16.206,4.16,20.801c12.499,8.333,12.509,28.699,0,37.039c-30.305,20.202-30.281,64.774,0,84.961
			c6.896,4.597,16.209,2.729,20.801-4.16c4.596-6.893,2.733-16.206-4.16-20.801C327.552,116.208,327.534,97.872,340.069,89.515z"/>
	</g>
</g>
<g>
</g>
<g>
</g>
<g>
</g>
<g>
</g>
<g>
</g>
<g>
</g>
<g>
</g>
<g>
</g>
<g>
</g>
<g>
</g>
<g>
</g>
<g>
</g>
<g>
</g>
<g>
</g>
<g>
</g>
</svg>
