<?xml version="1.0" encoding="iso-8859-1"?>
<!-- Generator: Adobe Illustrator 19.0.0, SVG Export Plug-In . SVG Version: 6.00 Build 0)  -->
<svg version="1.1" id="Capa_1" xmlns="http://www.w3.org/2000/svg" xmlns:xlink="http://www.w3.org/1999/xlink" x="0px" y="0px"
	 viewBox="0 0 480.039 480.039" style="enable-background:new 0 0 480.039 480.039;" xml:space="preserve">
<g>
	<g>
		<path d="M472.658,168.277c-12.101-24.653-37.183-40.266-64.647-40.239h-9.76l-1.384-5.52
			C375.218,35.889,287.441-16.787,200.811,4.862C142.873,19.342,97.634,64.58,83.155,122.519l-1.384,5.52h-9.76
			C32.282,128,0.044,160.175,0.005,199.904c-0.027,27.463,15.585,52.545,40.239,64.647c-0.032,0.616,0.008,1.234,0.12,1.84l64,208
			c1.033,3.358,4.135,5.649,7.648,5.648h256c3.513,0.001,6.615-2.29,7.648-5.648l64-208c0.112-0.607,0.152-1.224,0.12-1.84
			C475.444,247.045,490.164,203.942,472.658,168.277z M117.915,464.039l-59.072-192h46.56l36.92,192H117.915z M158.619,464.039
			l-36.92-192h46.904l14.768,192H158.619z M232.011,464.039h-32.592l-14.768-192h47.36V464.039z M280.603,464.039h-32.592v-192
			h47.36L280.603,464.039z M296.651,464.039l14.768-192h46.904l-36.92,192H296.651z M362.107,464.039h-24.408l36.92-192h46.56h0
			L362.107,464.039z M408.011,256.039h-336c-30.928,0-56-25.072-56-56c0-30.928,25.072-56,56-56h16c3.669,0,6.868-2.497,7.76-6.056
			l2.896-11.584c19.52-78.062,98.626-125.52,176.688-106c52.195,13.052,92.948,53.805,106,106l2.896,11.584
			c0.892,3.559,4.091,6.056,7.76,6.056h16c30.928,0,56,25.072,56,56C464.011,230.966,438.939,256.039,408.011,256.039z"/>
	</g>
</g>
<g>
	<g>
		<path d="M120.011,160.039c-17.673,0-32,14.327-32,32s14.327,32,32,32s32-14.327,32-32S137.684,160.039,120.011,160.039z
			 M120.011,208.039c-8.837,0-16-7.163-16-16s7.163-16,16-16s16,7.163,16,16S128.848,208.039,120.011,208.039z"/>
	</g>
</g>
<g>
	<g>
		<path d="M200.011,64.039c-17.673,0-32,14.327-32,32s14.327,32,32,32s32-14.327,32-32S217.684,64.039,200.011,64.039z
			 M200.011,112.039c-8.837,0-16-7.163-16-16s7.163-16,16-16s16,7.163,16,16S208.848,112.039,200.011,112.039z"/>
	</g>
</g>
<g>
	<g>
		<path d="M352.011,152.039c-17.673,0-32,14.327-32,32s14.327,32,32,32c17.673,0,32-14.327,32-32S369.684,152.039,352.011,152.039z
			 M352.011,200.039c-8.837,0-16-7.163-16-16s7.163-16,16-16s16,7.163,16,16S360.848,200.039,352.011,200.039z"/>
	</g>
</g>
<g>
</g>
<g>
</g>
<g>
</g>
<g>
</g>
<g>
</g>
<g>
</g>
<g>
</g>
<g>
</g>
<g>
</g>
<g>
</g>
<g>
</g>
<g>
</g>
<g>
</g>
<g>
</g>
<g>
</g>
</svg>
