<svg id="Capa_1" enable-background="new 0 0 512.017 512.017" height="512" viewBox="0 0 512.017 512.017" width="512" xmlns="http://www.w3.org/2000/svg"><g><path d="m499.504 291.508h-27.833c4.704-6.252 7.494-14.016 7.494-22.418v-30.217c0-5.735-2.168-10.973-5.725-14.946 3.557-3.968 5.725-9.2 5.725-14.931s-2.168-10.963-5.725-14.931c3.557-3.973 5.725-9.211 5.725-14.946v-15.193c0-20.633-16.822-37.418-37.5-37.418h-44.235c-4.143 0-7.5 3.357-7.5 7.5s3.357 7.5 7.5 7.5h44.235c12.406 0 22.5 10.057 22.5 22.418v15.193c0 4.113-3.364 7.459-7.5 7.459h-170.822c-4.136 0-7.5-3.346-7.5-7.459v-15.193c0-12.361 10.094-22.418 22.5-22.418h61.587c4.143 0 7.5-3.357 7.5-7.5s-3.357-7.5-7.5-7.5h-61.587c-20.678 0-37.5 16.785-37.5 37.418v15.193c0 5.735 2.168 10.973 5.725 14.946-3.557 3.968-5.725 9.2-5.725 14.931s2.168 10.963 5.725 14.931c-3.557 3.973-5.725 9.211-5.725 14.946v30.217c0 8.402 2.791 16.166 7.494 22.418h-29.917c4.704-6.252 7.494-14.016 7.494-22.418v-30.217c0-5.735-2.168-10.973-5.725-14.946 3.557-3.968 5.725-9.2 5.725-14.931s-2.168-10.963-5.725-14.931c3.557-3.973 5.725-9.211 5.725-14.946v-15.193c0-20.633-16.822-37.418-37.5-37.418h-140.821c-20.678 0-37.5 16.785-37.5 37.418v15.193c0 5.735 2.168 10.973 5.725 14.946-3.557 3.968-5.725 9.2-5.725 14.931s2.168 10.963 5.725 14.931c-3.557 3.973-5.725 9.211-5.725 14.946v30.217c0 8.402 2.791 16.166 7.494 22.418h-27.583c-6.216-.108-12.692 5.838-12.5 12.949 0 20.677 16.822 37.499 37.5 37.499h1.99c3.397 24.568 24.523 43.552 50.01 43.552h83.5c4.143 0 7.5-3.357 7.5-7.5s-3.357-7.5-7.5-7.5h-83.5c-17.198 0-31.573-12.292-34.813-28.552h402.626c-3.24 16.259-17.615 28.552-34.813 28.552h-214.5c-4.143 0-7.5 3.357-7.5 7.5s3.357 7.5 7.5 7.5h214.5c25.488 0 46.613-18.984 50.01-43.552h1.99c20.678 0 37.5-16.822 37.5-37.499.314-6.071-5.242-12.894-12.5-12.949zm-213.702-89.929h170.904c4.113 0 7.459 3.328 7.459 7.418s-3.346 7.418-7.459 7.418h-3.934c-5.945 0-11.535 2.311-15.74 6.505-4.211 4.2-6.528 9.786-6.527 15.729l.005 16.041c-.074 3.002-2.357 6.978-7.288 7.235-2.979-.066-7.017-2.331-7.273-7.236l.007-16.037c.002-5.942-2.315-11.529-6.526-15.73-4.205-4.195-9.796-6.506-15.742-6.506h-42.713c-12.258 0-22.247 9.954-22.268 22.19l-.005 3.14c-.007 3.979-3.268 7.215-7.269 7.215-4.008 0-7.268-3.242-7.268-7.228v-3.09c0-12.256-9.989-22.228-22.268-22.228h-6.096c-4.113 0-7.459-3.328-7.459-7.418s3.347-7.418 7.46-7.418zm-129.889-15h-100.82c-4.136 0-7.5-3.346-7.5-7.459v-15.193c0-12.361 10.094-22.418 22.5-22.418h140.822c12.406 0 22.5 10.057 22.5 22.418v15.193c0 4.113-3.364 7.459-7.5 7.459h-35.002c-4.143 0-7.5 3.357-7.5 7.5s3.357 7.5 7.5 7.5h35.043c4.113 0 7.459 3.328 7.459 7.418s-3.346 7.418-7.459 7.418h-35.404c-12.279 0-22.269 9.972-22.269 22.228v15.549c0 4.265-3.488 7.733-7.79 7.733-4.287 0-7.775-3.469-7.775-7.733v-15.549c0-12.256-9.989-22.228-22.268-22.228h-10.214c-12.269 0-22.257 9.963-22.268 22.208l-.003 3.116c-.003 3.981-3.264 7.221-7.283 7.221-4.008 0-7.268-3.242-7.268-7.228v-3.09c0-12.256-9.989-22.228-22.268-22.228h-6.096c-4.113 0-7.459-3.328-7.459-7.418s3.346-7.418 7.459-7.418h100.861c4.143 0 7.5-3.357 7.5-7.5s-3.355-7.499-7.498-7.499zm-108.32 52.295c0-4.113 3.364-7.459 7.5-7.459h6.055c4.008 0 7.268 3.242 7.268 7.228v3.09c0 12.256 9.989 22.228 22.283 22.228 12.269 0 22.257-9.963 22.268-22.208l.003-3.116c.003-3.981 3.264-7.221 7.268-7.221h10.214c4.008 0 7.268 3.242 7.268 7.228v15.549c0 12.535 10.217 22.733 22.79 22.733 12.559 0 22.775-10.198 22.775-22.733v-15.549c0-3.985 3.261-7.228 7.269-7.228h35.363c4.136 0 7.5 3.346 7.5 7.459v30.217c0 12.361-10.094 22.418-22.5 22.418h-140.824c-12.406 0-22.5-10.057-22.5-22.418zm426.911 88.083h-437c-11.715 0-21.368-9-22.407-20.448h331.779c4.143 0 7.5-3.357 7.5-7.5s-3.357-7.5-7.5-7.5h-46.033c-12.406 0-22.5-10.057-22.5-22.418v-30.217c0-4.113 3.364-7.459 7.5-7.459h6.055c4.008 0 7.268 3.242 7.268 7.228v3.09c0 12.256 9.989 22.228 22.268 22.228 12.259 0 22.248-9.954 22.269-22.19l.005-3.14c.007-3.979 3.267-7.215 7.268-7.215h42.713c1.946 0 3.774.755 5.148 2.125 1.368 1.365 2.121 3.179 2.12 5.105l-.007 16.037c-.186 10.958 9.593 22.406 22.288 22.242 10.946.188 22.435-9.56 22.273-22.239l-.005-16.041c0-1.927.753-3.74 2.121-5.104 1.373-1.37 3.201-2.125 5.146-2.125h3.893c4.136 0 7.5 3.346 7.5 7.459v30.217c0 12.361-10.094 22.418-22.5 22.418h-59.789c-4.143 0-7.5 3.357-7.5 7.5s3.357 7.5 7.5 7.5h115.035c-1.04 11.447-10.693 20.447-22.408 20.447z"/><path d="m297.752 163.88c0 4.143 3.359 7.502 7.502 7.502s7.502-3.359 7.502-7.502-3.359-7.502-7.502-7.502-7.502 3.358-7.502 7.502z"/><path d="m206.504 171.382c4.143 0 7.502-3.359 7.502-7.502s-3.359-7.502-7.502-7.502-7.502 3.359-7.502 7.502 3.359 7.502 7.502 7.502z"/><path d="m140.504 156.378c-4.143 0-7.502 3.359-7.502 7.502s3.359 7.502 7.502 7.502 7.502-3.359 7.502-7.502-3.359-7.502-7.502-7.502z"/><path d="m121.004 279.012c4.143 0 7.502-3.359 7.502-7.502s-3.359-7.502-7.502-7.502-7.502 3.359-7.502 7.502 3.359 7.502 7.502 7.502z"/><path d="m208.004 262.012c4.143 0 7.502-3.359 7.502-7.502s-3.359-7.502-7.502-7.502-7.502 3.359-7.502 7.502 3.359 7.502 7.502 7.502z"/><path d="m351.004 264.008c-4.143 0-7.502 3.359-7.502 7.502s3.359 7.502 7.502 7.502 7.502-3.359 7.502-7.502-3.359-7.502-7.502-7.502z"/><path d="m74.504 156.378c-4.143 0-7.502 3.359-7.502 7.502s3.359 7.502 7.502 7.502 7.502-3.359 7.502-7.502-3.359-7.502-7.502-7.502z"/><path d="m330.752 163.88c0 4.143 3.359 7.502 7.502 7.502s7.502-3.359 7.502-7.502-3.359-7.502-7.502-7.502-7.502 3.358-7.502 7.502z"/><path d="m411.756 163.88c0-4.143-3.359-7.502-7.502-7.502s-7.502 3.359-7.502 7.502 3.359 7.502 7.502 7.502 7.502-3.359 7.502-7.502z"/></g></svg>