<svg id="Capa_1" enable-background="new 0 0 512.005 512.005" height="512" viewBox="0 0 512.005 512.005" width="512" xmlns="http://www.w3.org/2000/svg"><g><path d="m230.502 293.69c-15.715 0-28.5 12.785-28.5 28.5s12.785 28.5 28.5 28.5 28.5-12.785 28.5-28.5-12.785-28.5-28.5-28.5zm0 42c-7.444 0-13.5-6.056-13.5-13.5s6.056-13.5 13.5-13.5 13.5 6.056 13.5 13.5-6.055 13.5-13.5 13.5zm-6.574 103.868c-4.142 0-7.5 3.358-7.5 7.5 0 4.143 3.358 7.5 7.5 7.5s7.5-3.357 7.5-7.5c0-4.142-3.358-7.5-7.5-7.5zm37.5-52.5c0 4.143 3.358 7.5 7.5 7.5s7.5-3.357 7.5-7.5c0-4.142-3.358-7.5-7.5-7.5s-7.5 3.358-7.5 7.5zm-62.426-19.867c-4.142 0-7.5 3.358-7.5 7.5s3.358 7.5 7.5 7.5 7.5-3.358 7.5-7.5-3.358-7.5-7.5-7.5zm-140.074-62.633c-4.142 0-7.5 3.358-7.5 7.5 0 4.143 3.358 7.5 7.5 7.5s7.5-3.357 7.5-7.5c0-4.142-3.358-7.5-7.5-7.5zm51.574-55.867c-15.715 0-28.5 12.785-28.5 28.5s12.785 28.5 28.5 28.5 28.5-12.785 28.5-28.5-12.785-28.5-28.5-28.5zm0 41.999c-7.444 0-13.5-6.056-13.5-13.5 0-7.443 6.056-13.499 13.5-13.499s13.5 6.056 13.5 13.499c0 7.445-6.055 13.5-13.5 13.5zm51 2.168c-4.142 0-7.5 3.358-7.5 7.5s3.358 7.5 7.5 7.5 7.5-3.358 7.5-7.5-3.358-7.5-7.5-7.5zm47.426-33.3c4.142 0 7.5-3.357 7.5-7.5 0-4.142-3.358-7.5-7.5-7.5s-7.5 3.358-7.5 7.5 3.358 7.5 7.5 7.5zm182.574-117.558c0-4.142-3.358-7.5-7.5-7.5s-7.5 3.358-7.5 7.5 3.358 7.5 7.5 7.5 7.5-3.358 7.5-7.5zm-96-81c-15.715 0-28.5 12.785-28.5 28.5s12.785 28.5 28.5 28.5 28.5-12.785 28.5-28.5-12.785-28.5-28.5-28.5zm0 42c-7.444 0-13.5-6.056-13.5-13.5s6.056-13.5 13.5-13.5 13.5 6.056 13.5 13.5-6.055 13.5-13.5 13.5zm88.5-44.57c0-4.142-3.358-7.5-7.5-7.5s-7.5 3.358-7.5 7.5 3.358 7.5 7.5 7.5 7.5-3.358 7.5-7.5zm-75 99.237c0 4.143 3.358 7.5 7.5 7.5s7.5-3.357 7.5-7.5c0-4.142-3.358-7.5-7.5-7.5s-7.5 3.358-7.5 7.5zm177.898-81.262c-2.209-3.504-6.841-4.555-10.344-2.344-3.504 2.209-4.554 6.841-2.344 10.344 14.909 23.646 22.79 50.997 22.79 79.095 0 81.883-66.617 148.5-148.5 148.5-9.048 0-18.066-.821-26.875-2.43-15.154-57.527-60.945-102.746-118.794-117.086-1.875-9.504-2.83-19.232-2.83-28.984 0-81.883 66.617-148.5 148.5-148.5 39.97 0 77.463 15.648 105.572 44.062 2.913 2.945 7.662 2.969 10.606.057 2.945-2.913 2.971-7.662.058-10.606-30.951-31.284-72.23-48.513-116.237-48.513-90.154 0-163.5 73.346-163.5 163.5 0 8.687.701 17.355 2.058 25.895-7.695-1.115-15.559-1.704-23.558-1.704-90.144 0-163.482 73.328-163.5 163.467.012 1.99.836 4.283 2.714 5.808l185.002 153.309c1.608 1.021 3.1 2.117 6.171 1.597 77.131-14.502 133.112-82.077 133.112-160.681 0-8.809-.709-17.454-2.057-25.889 7.77 1.12 15.654 1.698 23.557 1.698 90.154 0 163.5-73.346 163.5-163.5.001-30.933-8.679-61.05-25.101-87.095zm-286.946 418.776c-.35-9.12-1.669-22.532-5.747-37.795-8.14-30.47-23.683-56.246-46.197-76.613-5.167-4.673-10.665-9.008-16.339-12.884-3.423-2.336-8.088-1.457-10.424 1.963-2.336 3.421-1.457 8.088 1.963 10.424 5.115 3.493 10.073 7.403 14.737 11.621 35.358 31.986 44.37 72.998 46.5 96.177l-159.129-131.862c16.007-1.355 41.695-1.138 68.478 8.848.863.322 1.748.475 2.619.475 3.042 0 5.903-1.864 7.028-4.882 1.447-3.881-.526-8.2-4.407-9.647-34.91-13.017-67.529-11.08-83.753-8.8 4.666-77.711 69.356-139.515 148.22-139.515 81.883 0 148.5 66.617 148.5 148.5-.001 68.353-46.607 127.518-112.049 143.99zm36.474-340.814c0 4.142 3.358 7.5 7.5 7.5s7.5-3.358 7.5-7.5c0-4.143-3.358-7.5-7.5-7.5s-7.5 3.358-7.5 7.5zm95.533 73.5c0 15.715 12.785 28.5 28.5 28.5s28.5-12.785 28.5-28.5-12.785-28.5-28.5-28.5-28.5 12.785-28.5 28.5zm42 0c0 7.444-6.056 13.5-13.5 13.5s-13.5-6.056-13.5-13.5 6.056-13.5 13.5-13.5 13.5 6.056 13.5 13.5zm72.467-28.5c0 4.142 3.358 7.5 7.5 7.5s7.5-3.358 7.5-7.5c0-4.143-3.358-7.5-7.5-7.5s-7.5 3.358-7.5 7.5zm27.574-64.867c0-15.715-12.785-28.5-28.5-28.5s-28.5 12.785-28.5 28.5 12.785 28.5 28.5 28.5 28.5-12.785 28.5-28.5zm-28.5 13.5c-7.444 0-13.5-6.056-13.5-13.5s6.056-13.5 13.5-13.5 13.5 6.056 13.5 13.5-6.055 13.5-13.5 13.5zm-44.074 111.367c0 4.142 3.358 7.5 7.5 7.5s7.5-3.358 7.5-7.5c0-4.143-3.358-7.5-7.5-7.5s-7.5 3.358-7.5 7.5z"/></g></svg>