<?xml version="1.0"?>
<svg xmlns="http://www.w3.org/2000/svg" viewBox="0 0 64 64" width="512" height="512"><g id="Waffle"><path d="M32,2A30,30,0,1,0,62,32,30.034,30.034,0,0,0,32,2Zm0,58A28,28,0,1,1,60,32,28.032,28.032,0,0,1,32,60Z"/><path d="M30,33H8.09a1,1,0,0,0-1,1.082A24.875,24.875,0,0,0,29.918,56.907c.027,0,.055,0,.082,0a1,1,0,0,0,1-1V34A1,1,0,0,0,30,33Zm-1,7H24V35h5ZM14.531,47a22.82,22.82,0,0,1-3.253-5H15v5ZM17,49h5v3.722a22.82,22.82,0,0,1-5-3.253Zm0-2V42h5v5Zm0-7V35h5v5Zm7,2h5v5H24Zm-9-7v5H10.441A23.03,23.03,0,0,1,9.2,35Zm9,18.56V49h5v5.8A23.029,23.029,0,0,1,24,53.56Z"/><path d="M55.91,33H34a1,1,0,0,0-1,1V55.91a1,1,0,0,0,1,1c.027,0,.055,0,.082,0A24.875,24.875,0,0,0,56.907,34.082a1,1,0,0,0-1-1.082ZM47,49.469a22.82,22.82,0,0,1-5,3.253V49h5ZM49,47V42h3.722a22.82,22.82,0,0,1-3.253,5Zm-2,0H42V42h5Zm-7,0H35V42h5Zm2-7V35h5v5Zm-2-5v5H35V35ZM35,49h5v4.56A23.029,23.029,0,0,1,35,54.8Zm18.559-9H49V35h5.8A23.03,23.03,0,0,1,53.559,40Z"/><path d="M29.918,7.093A24.875,24.875,0,0,0,7.093,29.918,1,1,0,0,0,8.09,31H30a1,1,0,0,0,1-1V8.09a1,1,0,0,0-1.082-1ZM29,15H24V10.44A23.029,23.029,0,0,1,29,9.2ZM17,22V17h5v5Zm5,2v5H17V24Zm-5-9.469a22.82,22.82,0,0,1,5-3.253V15H17ZM15,17v5H11.278a22.82,22.82,0,0,1,3.253-5Zm9,0h5v5H24ZM10.441,24H15v5H9.2A23.03,23.03,0,0,1,10.441,24ZM24,29V24h5v5Z"/><path d="M34,31H55.91a1,1,0,0,0,1-1.082A24.875,24.875,0,0,0,34.082,7.093a1.015,1.015,0,0,0-.76.261A1,1,0,0,0,33,8.09V30A1,1,0,0,0,34,31Zm1-7h5v5H35Zm14.469-7a22.82,22.82,0,0,1,3.253,5H49V17ZM47,15H42V11.278a22.82,22.82,0,0,1,5,3.253Zm0,2v5H42V17Zm0,7v5H42V24Zm-7-2H35V17h5Zm9,7V24h4.559a23.03,23.03,0,0,1,1.24,5ZM40,10.44V15H35V9.2A23.029,23.029,0,0,1,40,10.44Z"/></g></svg>
