<svg id="Layer_1" enable-background="new 0 0 128 128" viewBox="0 0 128 128" xmlns="http://www.w3.org/2000/svg"><g><path d="m64 4.8c-18.7 0-34 11.1-34 24.8 0 .5 10 92.2 10 92.2.1.9.8 1.6 1.7 1.6h44.5c.9 0 1.6-.7 1.7-1.6 0 0 10-92 10-92.2.1-13.7-15.2-24.8-33.9-24.8zm0 3.5c16.2 0 29.5 8.9 30.4 20-.6.2-1.2.4-1.8.6-.6-1.6-2-2.9-3.7-3.4-.1-1.4-.8-2.7-1.9-3.6-.9-.8-2.1-1.2-3.3-1.2-.4-1.1-1.2-2.1-2.2-2.8-1.1-.7-2.5-1-3.9-.8-.7-1.3-1.8-2.3-3.1-2.9-1.5-.6-3.1-.6-4.6 0-1.1-1.3-2.6-2-4.2-2.2-1.9-.2-3.8.4-5.3 1.7-1.6-1-3.6-1.4-5.5-1-2.2.5-4 1.9-5.1 3.9-1.6-.1-3.2.4-4.5 1.4-1.6 1.2-2.6 3-2.9 5-1.5 0-2.9.5-4.1 1.3-1.6 1.1-2.7 2.7-3.2 4.6-.5-.2-1.1-.4-1.7-.5 1.1-11.3 14.4-20.1 30.6-20.1zm-3.1 34.9c.4-1.1.6-2.3.6-3.5 0-2.9-1.2-5.7-3.3-7.7-.5-3-.8-6.1-.9-9.2h2.5c.2 7.7 1.9 15.3 5 22.4-.3.3-.6.5-.8.8-1-.9-2.1-1.8-3.1-2.8zm-3-2.5c-3.4-2.7-7.1-5-10.9-7 3.3-2.1 7.7-1.2 9.8 2.1.8 1.2 1.4 3.4 1.1 4.9zm13-.6c-1.3-4.8-2-9.8-2.1-14.7h2.5c0 2.1.2 4.3.5 6.4-.5 2.6-.6 5.3-.4 7.9-.1.1-.3.2-.5.4zm3.9-2.8c-.1-1.7.1-3.4.5-5.1.4-1.5 1-2.5 1.6-2.7s2.1.9 3.8 4.3c-2.1 1.2-4 2.3-5.9 3.5zm9-4.9c-2.9-5.8-5.7-6.6-7.7-6.2-.5.1-.9.3-1.3.5-.1-1-.1-2-.1-3s-.7-1.8-1.7-1.8l-6-.1c-.5 0-.9.2-1.2.5s-.5.8-.5 1.2c0 6.4.9 12.8 2.6 18.9-.2.1-.3.3-.4.4-2.9-6.8-4.3-14.2-4.2-21.6 0-1-.8-1.8-1.7-1.8l-6-.1c-.5 0-.9.2-1.3.5-.3.3-.5.8-.5 1.2 0 2.9.2 5.8.5 8.6-1.1-.4-2.3-.6-3.5-.6-2.7 0-5.4 1.1-7.3 2.9-1.6-.7-3.3-1.4-5-2.1.2-1.2.9-2.2 1.9-2.9.9-.7 2.1-.9 3.2-.5 1.3.4 2.3-.7 2.2-1.8-.1-1.5.4-3.1 1.6-4 .8-.6 1.8-.8 2.8-.5.9.3 1.9-.1 2.2-1.1.4-1.5 1.6-2.6 3.1-3 1.3-.3 2.7.1 3.7 1.1.4.4.9.6 1.4.6s1-.3 1.3-.7c.7-1.1 2-1.7 3.3-1.6 1.1.1 2 .8 2.4 1.8.4.9 1.4 1.3 2.3.9.1-.1.3-.1.4-.2.7-.7 1.8-.9 2.7-.5s1.5 1.1 1.7 2c.1 1 .9 1.7 1.9 1.6.3 0 .5-.1.7-.2.7-.5 1.5-.5 2.2 0 .6.3.9 1 .9 1.6-.1 1 .6 1.8 1.6 1.9.2 0 .4 0 .6-.1.6-.3 1.4-.2 2 .2.6.6.8 1.5.7 2.3-.1 1 .6 1.9 1.5 2 1.5.1 2 .5 2.3 1.4-1.7.7-3.5 1.4-5.3 2.3zm-50-.4c11.3 3.8 20.6 9.4 27.7 16.8-4.9 5.6-8.7 12.1-11.1 19-6 17.2-4.1 36.2 5.1 52h-12.2zm25.8 87.8c-9.4-14.4-11.9-34.3-5.9-50.8 8.2-22.4 27.3-32.6 40.5-37l-9.5 87.8z"/><path d="m73.1 103c-2.6 0-4.8 2.1-4.8 4.8s2.1 4.8 4.8 4.8 4.8-2.1 4.8-4.8c-.1-2.7-2.2-4.8-4.8-4.8zm0 6c-.7 0-1.3-.6-1.3-1.3s.6-1.3 1.3-1.3 1.3.6 1.3 1.3c-.1.7-.6 1.3-1.3 1.3z"/><path d="m75.5 60.1c2.6 0 4.8-2.1 4.8-4.8s-2.1-4.8-4.8-4.8-4.8 2.1-4.8 4.8 2.2 4.8 4.8 4.8zm0-6c.7 0 1.3.6 1.3 1.3s-.6 1.3-1.3 1.3-1.3-.6-1.3-1.3.6-1.3 1.3-1.3z"/><path d="m52.6 47.2c0-2.6-2.1-4.8-4.8-4.8s-4.8 2.1-4.8 4.8 2.1 4.8 4.8 4.8c2.7-.1 4.8-2.2 4.8-4.8zm-6 0c0-.7.6-1.3 1.3-1.3s1.3.6 1.3 1.3-.6 1.3-1.3 1.3c-.8-.1-1.3-.6-1.3-1.3z"/><path d="m79.2 81.1c-2.6 0-4.8 2.1-4.8 4.8s2.1 4.8 4.8 4.8 4.8-2.1 4.8-4.8c0-2.6-2.1-4.7-4.8-4.8zm0 6c-.7 0-1.3-.6-1.3-1.3s.6-1.3 1.3-1.3 1.3.6 1.3 1.3c0 .8-.6 1.3-1.3 1.3z"/><path d="m69.5 87.4c-.8-.5-1.9-.2-2.4.7l-4.6 8.3c-.5.8-.2 1.9.7 2.4s1.9.2 2.4-.7l4.6-8.4c.4-.8.1-1.9-.7-2.3z"/><path d="m84.7 62.5c-.8-.5-1.9-.2-2.4.6l-3.1 5.1c-.5.8-.3 1.9.6 2.4.8.5 1.9.3 2.4-.6l3.1-5.1c.5-.8.2-1.9-.6-2.4z"/><path d="m62.6 71.2c-.8-.5-1.9-.2-2.4.6l-2 3.5c-.5.8-.2 1.9.7 2.4.8.5 1.9.2 2.3-.6l2-3.5c.5-.9.3-1.9-.6-2.4z"/><path d="m49.3 62.7 2-3.5c.5-.8.2-1.9-.6-2.4s-1.9-.2-2.4.6l-2 3.5c-.5.8-.2 1.9.6 2.4.8.6 1.8.3 2.4-.6-.1.1-.1 0 0 0z"/></g></svg>