<?xml version="1.0" encoding="iso-8859-1"?>
<!-- Generator: Adobe Illustrator 19.0.0, SVG Export Plug-In . SVG Version: 6.00 Build 0)  -->
<svg xmlns="http://www.w3.org/2000/svg" xmlns:xlink="http://www.w3.org/1999/xlink" version="1.1" id="Capa_1" x="0px" y="0px" viewBox="0 0 512 512" style="enable-background:new 0 0 512 512;" xml:space="preserve" width="512" height="512">
<path d="M371.718,164.587c0-21.111-4.358-31.788-8.572-42.113c-3.836-9.399-7.46-18.276-7.46-36.444  c0-18.16,3.624-27.034,7.459-36.43c4.215-10.322,8.573-20.995,8.573-42.1c0-4.142-3.358-7.5-7.5-7.5H243.976  c-4.142,0-7.5,3.358-7.5,7.5c0,18.16-3.624,27.034-7.459,36.43c-4.215,10.322-8.573,20.995-8.573,42.1  c0,7.119,0.497,13.048,1.315,18.181h-57.944c-4.142,0-7.5,3.357-7.5,7.5c0,18.16-3.624,27.034-7.459,36.429  c-4.215,10.322-8.573,20.996-8.573,42.101c0,21.111,4.358,31.787,8.572,42.112c3.836,9.399,7.46,18.277,7.46,36.444  c0,18.161-3.624,27.035-7.459,36.431c-4.215,10.322-8.573,20.996-8.573,42.102c0,21.117,4.358,31.798,8.572,42.126  c3.836,9.403,7.46,18.284,7.46,36.46c0,18.175-3.624,27.057-7.46,36.459c-4.214,10.329-8.572,21.009-8.572,42.126  c0,4.142,3.358,7.5,7.5,7.5h120.242c4.142,0,7.5-3.358,7.5-7.5c0-18.175,3.624-27.057,7.46-36.46  c4.214-10.328,8.572-21.009,8.572-42.126c0-4.142-3.358-7.5-7.5-7.5s-7.5,3.358-7.5,7.5c0,18.175-3.624,27.057-7.46,36.459  c-3.684,9.028-7.477,18.326-8.374,34.626h-25.042c0.853-13.306,3.956-20.954,7.223-28.96c4.214-10.328,8.572-21.009,8.572-42.126  c0-6.634-0.426-12.568-1.314-18.124h98.024c4.142,0,7.5-3.357,7.5-7.5c0-18.175,3.624-27.057,7.46-36.459  c4.214-10.329,8.572-21.008,8.572-42.126s-4.358-31.798-8.572-42.127c-3.837-9.403-7.46-18.284-7.46-36.459  c0-18.161,3.624-27.036,7.459-36.431C367.36,196.365,371.718,185.691,371.718,164.587z M236.476,425.914  c0,18.175-3.624,27.057-7.46,36.46c-3.683,9.028-7.476,18.325-8.373,34.626h-33.058c0.853-13.306,3.956-20.954,7.223-28.96  c3.014-7.386,6.13-15.024,7.648-26.7c0.534-4.108-2.363-7.871-6.471-8.404c-4.107-0.534-7.871,2.363-8.404,6.471  c-1.267,9.745-3.887,16.168-6.662,22.967c-3.684,9.028-7.477,18.325-8.373,34.626H155.51c0.851-13.319,3.965-20.95,7.233-28.96  c4.214-10.328,8.572-21.009,8.572-42.126c0-21.118-4.358-31.798-8.572-42.126c-3.837-9.403-7.46-18.285-7.46-36.459  c0-18.161,3.624-27.036,7.459-36.432c4.215-10.322,8.573-20.995,8.573-42.101c0-21.111-4.358-31.787-8.572-42.112  c-3.836-9.399-7.46-18.277-7.46-36.444c0-18.16,3.624-27.035,7.459-36.43c3.684-9.021,7.477-18.311,8.374-34.599h17.025  c-0.854,13.291-3.956,20.932-7.221,28.929c-4.215,10.322-8.573,20.996-8.573,42.1c0,21.111,4.358,31.788,8.572,42.113  c3.836,9.399,7.46,18.277,7.46,36.444c0,18.161-3.624,27.035-7.459,36.431c-4.215,10.322-8.573,20.996-8.573,42.101  c0,21.117,4.358,31.798,8.572,42.126c2.501,6.13,4.864,11.921,6.235,20.093c0.615,3.665,3.791,6.26,7.387,6.26  c0.412,0,0.83-0.034,1.25-0.104c4.085-0.685,6.841-4.552,6.156-8.637c-1.646-9.815-4.438-16.66-7.139-23.279  c-3.836-9.402-7.46-18.284-7.46-36.459c0-18.161,3.624-27.035,7.459-36.431c4.215-10.322,8.573-20.996,8.573-42.101  c0-21.11-4.358-31.787-8.572-42.112c-3.836-9.399-7.46-18.277-7.46-36.444c0-18.16,3.624-27.034,7.459-36.43  c3.684-9.021,7.477-18.312,8.374-34.6h22.377c1.099,3.15,2.285,6.055,3.459,8.932c3.836,9.399,7.46,18.277,7.46,36.445  c0,18.16-3.624,27.035-7.459,36.43c-4.215,10.322-8.573,20.996-8.573,42.102c0,21.118,4.358,31.798,8.572,42.126  c3.836,9.403,7.46,18.285,7.46,36.46s-3.624,27.056-7.46,36.459c-4.214,10.328-8.572,21.009-8.572,42.126c0,4.143,3.358,7.5,7.5,7.5  h6.986C235.976,413.223,236.476,419.112,236.476,425.914z M349.258,201.017c-4.215,10.322-8.573,20.996-8.573,42.102  c0,21.118,4.358,31.798,8.572,42.126c3.836,9.403,7.46,18.285,7.46,36.46s-3.624,27.056-7.46,36.459  c-3.684,9.028-7.477,18.325-8.374,34.626h-25.041c0.853-13.306,3.956-20.954,7.223-28.959c4.214-10.329,8.572-21.009,8.572-42.127  c0-21.117-4.358-31.798-8.572-42.126c-3.837-9.403-7.46-18.284-7.46-36.46c0-18.161,3.624-27.035,7.459-36.431  c4.215-10.322,8.573-20.996,8.573-42.101c0-21.111-4.358-31.788-8.572-42.113c-3.836-9.398-7.46-18.276-7.46-36.444  c0-7.87,0.686-14.646,2.096-20.717c0.938-4.035-1.573-8.065-5.608-9.002c-4.034-0.938-8.066,1.573-9.002,5.608  c-1.672,7.198-2.485,15.084-2.485,24.112c0,21.111,4.358,31.788,8.572,42.113c3.836,9.398,7.46,18.276,7.46,36.444  c0,18.161-3.624,27.036-7.459,36.431c-4.215,10.322-8.573,20.996-8.573,42.101c0,21.118,4.358,31.798,8.572,42.127  c3.837,9.402,7.46,18.284,7.46,36.459c0,18.176-3.624,27.057-7.46,36.46c-3.683,9.028-7.476,18.325-8.373,34.626h-33.058  c0.853-13.306,3.956-20.954,7.223-28.959c3.014-7.386,6.13-15.024,7.648-26.701c0.534-4.107-2.363-7.87-6.471-8.404  c-4.111-0.531-7.871,2.363-8.404,6.471c-1.267,9.746-3.887,16.168-6.662,22.968c-3.684,9.028-7.477,18.325-8.373,34.626h-17.036  c0.851-13.319,3.965-20.95,7.233-28.959c4.214-10.329,8.572-21.008,8.572-42.126s-4.358-31.798-8.572-42.127  c-3.837-9.403-7.46-18.284-7.46-36.459c0-18.161,3.624-27.036,7.459-36.431c4.215-10.322,8.573-20.996,8.573-42.1  c0-21.111-4.358-31.788-8.572-42.113c-3.836-9.399-7.46-18.276-7.46-36.444c0-18.16,3.624-27.034,7.459-36.43  c3.684-9.021,7.477-18.311,8.374-34.6h17.026c-0.854,13.291-3.956,20.932-7.221,28.93c-4.215,10.322-8.573,20.995-8.573,42.1  c0,21.111,4.358,31.788,8.572,42.113c3.836,9.398,7.46,18.276,7.46,36.444c0,18.161-3.624,27.036-7.459,36.431  c-4.215,10.322-8.573,20.996-8.573,42.101c0,21.118,4.358,31.798,8.572,42.127c2.501,6.13,4.864,11.92,6.235,20.093  c0.615,3.665,3.791,6.26,7.387,6.26c0.412,0,0.83-0.034,1.25-0.104c4.085-0.685,6.841-4.552,6.156-8.637  c-1.646-9.815-4.439-16.66-7.139-23.278c-3.836-9.403-7.46-18.284-7.46-36.46c0-18.161,3.624-27.035,7.459-36.431  c4.215-10.322,8.573-20.996,8.573-42.101c0-21.111-4.358-31.788-8.572-42.113c-3.836-9.398-7.46-18.276-7.46-36.444  c0-18.16,3.624-27.034,7.459-36.429c3.684-9.021,7.477-18.312,8.374-34.6h33.062c-0.34,5.359-1.061,10.151-2.221,14.693  c-1.025,4.013,1.397,8.098,5.411,9.123c0.623,0.159,1.247,0.235,1.861,0.235c3.345,0,6.396-2.255,7.261-5.646  c1.467-5.742,2.352-11.72,2.72-18.405h25.054c-0.852,13.305-3.964,20.928-7.231,28.93c-4.215,10.322-8.573,20.995-8.573,42.1  c0,21.111,4.358,31.788,8.572,42.113c3.836,9.399,7.46,18.277,7.46,36.445C356.718,182.747,353.094,191.622,349.258,201.017z"/>















</svg>
