<svg id="Capa_1" enable-background="new 0 0 512.003 512.003" height="512" viewBox="0 0 512.003 512.003" width="512" xmlns="http://www.w3.org/2000/svg"><g><g><path d="m509.861 2.148c-1.485-1.485-3.617-2.322-5.996-2.115-.228.02-139.977 12.204-139.977 12.204-4.117.359-7.164 3.986-6.807 8.104l3.523 40.619c-11.761 4.726-23.813 11.072-35.655 19.556-3.36 2.407-4.133 7.083-1.725 10.444 2.408 3.36 7.084 4.134 10.444 1.725 46.567-33.363 98.065-30.41 114.126-28.46.928 7.488 2.089 22.621-.294 41.227-4.525 35.316-19.006 65.826-43.038 90.678l-109.236 109.235c-1.16 1.16-3.104 1.162-4.267-.001 0 0-82.671-82.671-82.68-82.679l-1.638-1.638c-1.15-1.15-1.15-3.117 0-4.268l101.947-101.947c2.923-2.924 2.923-7.662 0-10.586-2.923-2.922-7.662-2.922-10.585 0l-101.947 101.947c-3.398 3.397-5.269 7.915-5.269 12.719 0 3.032.749 5.948 2.154 8.543l-65.602 65.603c-1.516 1.516-3.983 1.515-5.497.001-.986-.986-1.133-2.146-1.133-2.75s.147-1.763 1.133-2.748l15.938-15.938c19.17-19.171 19.17-50.364 0-69.535-19.171-19.17-50.364-19.171-69.535 0l-19.576 19.575c-4.052 4.052-6.284 9.44-6.284 15.171 0 5.73 2.231 11.118 6.284 15.17 8.364 8.363 21.975 8.363 30.339 0l19.576-19.577c1.178-1.178 2.751-1.827 4.427-1.827 3.457 0 6.255 2.795 6.255 6.256 0 1.676-.649 3.248-1.827 4.427l-15.937 15.937c-8.826 8.827-13.687 20.578-13.687 33.089s4.861 24.261 13.687 33.088c1.109 1.109 2.264 2.154 3.46 3.136l-34.288 34.288c-2.048 2.049-4.779 3.176-7.69 3.176-9.05 0-14.076-12.172-7.69-18.558.033-.033 11.319-11.319 11.319-11.319 3.979-3.978 6.17-9.268 6.17-14.896 0-5.626-2.191-10.916-6.17-14.895-8.213-8.211-21.577-8.211-29.79 0l-11.319 11.321c-9.998 9.999-15.504 23.309-15.504 37.481s5.506 27.482 15.504 37.481c10.334 10.333 23.907 15.499 37.48 15.499 2.701 0 5.4-.214 8.075-.623 0 0-11.559 47.979-11.562 47.99-1.34 5.559 4.229 10.148 9.505 8.914 2.023-.473 33.429-8.048 47.513-11.445-2.464 16.12 2.489 33.166 14.877 45.555 10.334 10.333 23.907 15.499 37.48 15.499s27.147-5.166 37.481-15.5l11.318-11.319c3.979-3.978 6.17-9.268 6.17-14.895 0-5.626-2.191-10.916-6.17-14.896-8.213-8.211-21.577-8.211-29.789 0l-11.319 11.319c-6.667 6.668-18.56 1.735-18.558-7.691 0-2.91 1.128-5.641 3.177-7.689l34.291-34.291c.982 1.197 2.024 2.355 3.133 3.464 8.826 8.826 20.577 13.686 33.088 13.686s24.262-4.86 33.088-13.686l15.937-15.937c2.441-2.442 6.414-2.442 8.855-.001 2.442 2.442 2.442 6.415 0 8.856l-19.574 19.577c-4.052 4.052-6.283 9.44-6.283 15.17 0 5.729 2.231 11.117 6.283 15.169 4.182 4.182 9.675 6.273 15.169 6.272 5.493 0 10.988-2.092 15.169-6.272l3.48-3.479c2.923-2.923 2.924-7.662.001-10.585-2.923-2.924-7.662-2.923-10.585-.001l-3.48 3.479c-4.012 4.053-11.068 1.035-11.068-4.584 0-1.732.674-3.36 1.898-4.584l19.576-19.577c8.277-8.278 8.277-21.747 0-30.026-8.278-8.275-21.747-8.275-30.026 0l-15.937 15.937c-5.999 6-13.991 9.302-22.503 9.302-17.377 0-31.806-14.528-31.806-31.805 0-8.512 3.304-16.504 9.302-22.502l65.073-65.073 9.169 9.17s-64.985 64.984-65.073 65.073c-7.206 7.206-7.178 19.489 0 26.668 7.353 7.35 19.316 7.351 26.668 0l15.937-15.937c6.447-6.447 15.034-9.997 24.182-9.997 4.603 0 9.195.914 13.432 2.719 18.62 7.929 26.295 31.173 16.137 48.651-2.077 3.574-.863 8.154 2.711 10.231 3.574 2.079 8.155.865 10.232-2.711 11.194-19.265 8.009-43.723-7.746-59.479-19.17-19.171-50.364-19.171-69.535 0l-15.937 15.937c-2.394 2.396-6.631.634-6.631-2.749 0-.604.147-1.763 1.133-2.748l65.603-65.603c2.594 1.405 5.511 2.154 8.544 2.154 4.805 0 9.322-1.871 12.719-5.269l109.279-109.279c.029-.029.057-.059.086-.088 17.3-17.877 28.52-37.097 35.769-55.191l40.718 3.532c.22.02.438.028.655.028 3.84 0 7.109-2.938 7.448-6.835 0 0 12.204-139.977 12.204-139.978.212-2.38-.625-4.508-2.106-5.99zm-407.775 265.659 15.937-15.937c4.006-4.006 6.212-9.338 6.212-15.013 0-5.676-2.206-11.008-6.212-15.012-4.006-4.007-9.338-6.213-15.013-6.213s-11.008 2.207-15.013 6.212l-19.575 19.576c-2.528 2.528-6.642 2.528-9.169 0-1.225-1.224-1.899-2.853-1.899-4.584 0-1.732.674-3.361 1.899-4.584l19.576-19.576c13.334-13.334 35.03-13.334 48.365 0 13.334 13.333 13.334 35.03 0 48.364l-15.937 15.937c-3.558 3.558-5.518 8.294-5.518 13.334s1.959 9.775 5.518 13.334c7.353 7.35 19.316 7.351 26.668 0l65.072-65.073 9.169 9.169-65.072 65.072c-5.999 6-13.991 9.303-22.503 9.303s-16.504-3.304-22.503-9.303c-12.41-12.408-12.41-32.599-.002-45.006zm-75.997 112.219c-7.171-7.17-11.119-16.721-11.119-26.895s3.949-19.725 11.119-26.895l11.319-11.319c1.188-1.188 2.749-1.782 4.31-1.782s3.122.594 4.31 1.782c1.151 1.151 1.785 2.681 1.785 4.309 0 1.629-.634 3.159-1.785 4.31l-11.319 11.319c-10.077 10.077-10.077 26.475 0 36.553 4.876 4.876 11.366 7.561 18.275 7.561h.001c6.909 0 13.4-2.685 18.275-7.561l37.174-37.175c4.577 1.677 9.433 2.631 14.428 2.811l-42.983 42.982c-14.83 14.831-38.96 14.831-53.79 0zm50.645 24.316 146.016-146.016 10.172 10.172-162.645 162.645zm63.864 36.403c-4.876 4.877-7.562 11.368-7.561 18.277 0 6.909 2.685 13.399 7.561 18.275 10.078 10.077 26.474 10.075 36.552 0l11.319-11.319c2.375-2.375 6.243-2.376 8.619-.001 1.151 1.152 1.785 2.682 1.785 4.311 0 1.628-.634 3.158-1.785 4.31l-11.318 11.319c-14.83 14.83-38.96 14.83-53.791.001-14.829-14.831-14.829-38.961 0-53.791l42.983-42.984c.18 4.994 1.144 9.846 2.817 14.422zm-32.935-5.474-26.801 6.458 4.547-4.547 158.099-158.098 10.171 10.171zm377.841-295.907-29.448-2.554c3.309-10.951 5.259-21.18 6.367-30.051 3.613-28.932-.551-49.748-.73-50.62-.602-2.932-2.894-5.224-5.826-5.826-2.044-.42-37.815-7.416-80.681 5.529l-2.545-29.342 123.643-10.78z"/><path d="m319.499 141.59-70.127 70.127c-2.923 2.924-2.923 7.662 0 10.586 2.885 2.884 7.698 2.886 10.585 0l70.127-70.127c2.923-2.924 2.923-7.662 0-10.586-2.923-2.922-7.662-2.922-10.585 0z"/><path d="m339.664 161.755-70.127 70.127c-2.923 2.924-2.923 7.662.001 10.587 2.916 2.914 7.639 2.944 10.584-.001.007-.007 70.127-70.128 70.127-70.128 2.923-2.924 2.923-7.662 0-10.586-2.923-2.921-7.662-2.921-10.585.001z"/><path d="m289.703 262.634c2.684 2.684 7.806 2.778 10.585 0l70.127-70.127c2.923-2.924 2.923-7.662 0-10.586-2.923-2.922-7.662-2.922-10.585 0l-70.127 70.126c-2.923 2.924-2.923 7.663 0 10.587z"/></g></g></svg>