<?xml version="1.0" encoding="iso-8859-1"?>
<!-- Generator: Adobe Illustrator 19.0.0, SVG Export Plug-In . SVG Version: 6.00 Build 0)  -->
<svg version="1.1" id="Layer_1" xmlns="http://www.w3.org/2000/svg" xmlns:xlink="http://www.w3.org/1999/xlink" x="0px" y="0px"
	 viewBox="0 0 511.998 511.998" style="enable-background:new 0 0 511.998 511.998;" xml:space="preserve">
<g>
	<g>
		<path d="M447.2,215.282V102.994c0-24.728-24.436-47.149-68.809-63.131C336.906,24.92,281.933,16.691,223.6,16.691
			S110.294,24.92,68.809,39.862C24.436,55.845,0,78.265,0,102.994v132.078c0,23.974,22.97,45.779,64.805,61.65V409
			c0,24.73,24.435,47.151,68.804,63.134c41.483,14.943,96.457,23.173,154.793,23.173c51.924,0,102.331-6.709,141.932-18.892
			c4.756-1.463,7.425-6.505,5.962-11.261s-6.504-7.425-11.261-5.962c-37.932,11.67-86.457,18.096-136.634,18.096
			c-56.307,0-109.111-7.851-148.686-22.107c-35.623-12.833-56.892-30.096-56.892-46.181v-96.974
			c34.081,30.815,113.398,51.199,205.578,51.199c58.331,0,113.302-8.229,154.787-23.173c22.029-7.935,39.138-17.458,50.789-28.062
			v97.01c0,11.923-11.563,24.576-32.56,35.628c-4.404,2.317-6.094,7.767-3.777,12.17c1.613,3.065,4.742,4.815,7.98,4.815
			c1.415,0,2.851-0.334,4.189-1.039c34.868-18.353,42.187-38.176,42.187-51.573V276.918C512,252.912,489.045,231.157,447.2,215.282z
			 M74.915,56.817c39.577-14.255,92.38-22.106,148.685-22.106c121.151,0,205.58,35.986,205.58,68.283
			c0,16.082-21.27,33.345-56.895,46.177c-39.576,14.255-92.38,22.106-148.685,22.106c-121.151,0-205.58-35.986-205.58-68.283
			C18.02,86.911,39.29,69.648,74.915,56.817z M18.02,235.072v-97.008c11.651,10.603,28.76,20.126,50.789,28.06
			c41.485,14.942,96.458,23.171,154.791,23.171s113.306-8.229,154.791-23.171c22.029-7.935,39.137-17.457,50.789-28.06v97.008
			c0,16.082-21.27,33.346-56.895,46.177c-39.576,14.255-92.38,22.106-148.685,22.106C102.449,303.356,18.02,267.37,18.02,235.072z
			 M437.083,323.099c-39.577,14.256-92.379,22.107-148.681,22.107c-80.946,0-143.291-15.703-177.133-35.023
			c33.654,7.297,72.197,11.193,112.33,11.193c58.333,0,113.306-8.229,154.791-23.171c44.373-15.983,68.809-38.403,68.809-63.131
			v-0.402c29.524,12.309,46.78,27.709,46.78,42.247C493.98,293.002,472.71,310.265,437.083,323.099z"/>
	</g>
</g>
<g>
	<g>
		<path d="M335.156,65.774c-29.911-7.801-69.529-12.097-111.554-12.097c-18.324,0-36.283,0.817-53.375,2.428
			c-4.954,0.467-8.592,4.862-8.125,9.816c0.465,4.953,4.87,8.593,9.813,8.123c16.534-1.558,33.923-2.349,51.685-2.349
			c40.535,0,78.537,4.089,107.007,11.514c1.098,0.286,2.16,0.574,3.199,0.863c-7.502,6.04-11.52,13.19-11.52,20.913
			c0,6.455,2.804,12.512,8.11,17.854c-9.297,2.417-20.518,4.695-33.946,6.613c-4.927,0.704-8.349,5.268-7.645,10.193
			c0.643,4.494,4.497,7.737,8.909,7.737c0.424,0,0.853-0.03,1.285-0.091c32.924-4.702,88.158-16.711,88.158-44.297
			C387.157,87.296,369.662,74.773,335.156,65.774z M351.465,115.933c-8.156-4.202-11.159-8.408-11.159-10.948
			c0-2.907,3.92-7.995,14.967-12.759c0.166-0.072,0.322-0.156,0.481-0.237c10.443,5.058,13.382,9.381,13.382,11.004
			C369.136,105.634,364.09,110.645,351.465,115.933z"/>
	</g>
</g>
<g>
	<g>
		<path d="M251.729,133.616c-9.207,0.449-18.671,0.676-28.129,0.676c-40.536,0-78.537-4.089-107.007-11.514
			c-31.451-8.203-38.529-17.258-38.529-19.784c0-2.979,8.794-13.422,47.865-22.02c4.859-1.069,7.932-5.876,6.863-10.736
			c-1.07-4.859-5.875-7.93-10.736-6.863C80.908,72.43,60.044,85.76,60.044,102.994c0,33.885,84.783,49.318,163.556,49.318
			c9.749,0,19.508-0.235,29.006-0.698c4.97-0.243,8.803-4.468,8.561-9.438C260.924,137.206,256.69,133.367,251.729,133.616z"/>
	</g>
</g>
<g>
	<g>
		<path d="M302.64,242.178c0-9.155,1.515-18.187,4.504-26.847c1.045-3.029,0.402-6.385-1.687-8.814
			c-2.089-2.429-5.307-3.566-8.463-2.985c-19.014,3.503-36.773,12.548-50.921,25.76c-18.759-17.544-43.571-27.451-69.443-27.451
			c-29.105,0-56.872,12.528-76.185,34.37c-3.013,3.408-3.013,8.528,0,11.937c19.313,21.843,47.08,34.37,76.185,34.37
			c25.873,0,50.684-9.907,69.444-27.452c14.148,13.212,31.906,22.257,50.92,25.76c0.544,0.1,1.091,0.149,1.633,0.149
			c2.597,0,5.102-1.126,6.831-3.135c2.089-2.429,2.732-5.786,1.687-8.814C304.154,260.366,302.64,251.332,302.64,242.178z
			 M176.629,264.498c-21.153,0-41.451-8.047-56.854-22.318c15.402-14.272,35.7-22.318,56.854-22.318s41.451,8.047,56.854,22.318
			C218.08,256.451,197.782,264.498,176.629,264.498z M286.062,259.143c-10.098-3.817-19.444-9.588-27.413-16.964
			c7.97-7.377,17.314-13.149,27.413-16.964c-0.959,5.589-1.443,11.257-1.443,16.964
			C284.619,247.887,285.102,253.555,286.062,259.143z"/>
	</g>
</g>
<g>
	<g>
		<path d="M379.959,410.216c-19.311-21.843-47.08-34.37-76.185-34.37c-25.873,0-50.684,9.907-69.443,27.451
			c-14.148-13.212-31.908-22.257-50.921-25.76c-3.147-0.58-6.373,0.556-8.463,2.985c-2.089,2.429-2.732,5.786-1.687,8.814
			c2.989,8.659,4.504,17.692,4.504,26.847c0,9.154-1.515,18.187-4.504,26.847c-1.046,3.029-0.404,6.385,1.685,8.814
			c1.729,2.01,4.232,3.135,6.831,3.135c0.542,0,1.088-0.049,1.633-0.149c19.014-3.503,36.773-12.548,50.921-25.76
			c18.759,17.544,43.571,27.452,69.444,27.452c29.105,0,56.872-12.528,76.185-34.37
			C382.972,418.744,382.972,413.624,379.959,410.216z M194.34,433.147c0.959-5.589,1.443-11.257,1.443-16.964
			c-0.001-5.708-0.484-11.377-1.443-16.964c10.098,3.815,19.444,9.588,27.413,16.964
			C213.783,423.559,204.439,429.332,194.34,433.147z M303.772,438.502c-21.154,0-41.451-8.047-56.854-22.318
			c15.404-14.272,35.701-22.318,56.854-22.318s41.451,8.047,56.854,22.318C345.223,430.455,324.927,438.502,303.772,438.502z"/>
	</g>
</g>
<g>
</g>
<g>
</g>
<g>
</g>
<g>
</g>
<g>
</g>
<g>
</g>
<g>
</g>
<g>
</g>
<g>
</g>
<g>
</g>
<g>
</g>
<g>
</g>
<g>
</g>
<g>
</g>
<g>
</g>
</svg>
