<svg height="512" viewBox="0 0 60 60" width="512" xmlns="http://www.w3.org/2000/svg"><g id="Page-1" fill="none" fill-rule="evenodd"><g id="017---Chicken-Breasts" fill="rgb(0,0,0)" fill-rule="nonzero"><path id="Shape" d="m56 0h-52c-2.209139 0-4 1.790861-4 4v45c0 .066.016.128.02.193v.007c.01927093.3905682.09644632.7761082.229 1.144l.806 4.029c.66154844 3.2676133 3.53010102 5.6192079 6.864 5.627h44.162c3.333899-.0077921 6.2024516-2.3593867 6.864-5.627l.806-4.029c.1325537-.3678918.2097291-.7534318.229-1.144v-.007c0-.065.02-.127.02-.193v-45c0-2.209139-1.790861-4-4-4zm-52 2h52c1.1045695 0 2 .8954305 2 2v44.9l-.186.929c-.3239391.7112293-1.0324772 1.1686152-1.814 1.171h-52c-.78129026-.0022058-1.48976636-.4591611-1.814-1.17l-.186-.93v-44.9c0-1.1045695.8954305-2 2-2zm48.081 56h-44.162c-2.3806801-.0064921-4.42843013-1.686483-4.9-4.02l-.239-1.191c.39312519.1337198.80479955.2049192 1.22.211h52c.4162088-.0057671.8289198-.0769708 1.223-.211l-.239 1.191c-.4717961 2.3346187-2.5211918 4.0149309-4.903 4.02z"/><path id="Shape" d="m10.268 26.21c1.1736049.8896893 2.6218128 1.3401092 4.093 1.273 2.3276227-.1542505 4.6311767-.5643897 6.869-1.223 2.67-.704 4.785-1.26 13.77-1.26 11.207 0 17.362-6.68 19.991-9.532.28-.3.519-.563.716-.761.3371853-.3370794.3895074-.8653235.125-1.262-.257-.385-6.508-9.445-24.832-9.445-17.626 0-23 1.869-23 8-.02087276 1.4146659.44912452 2.7928534 1.33 3.9-.88284194 1.18286-1.35038023 2.6241435-1.33 4.1 0 2.89.763 4.979 2.268 6.21zm12.732-15.21c-.347 0-8.04.042-12.259 3.451-.4995464-.718291-.75893286-1.5762618-.741-2.451 0-4.065 3.143-6 21-6 14.44 0 20.938 5.992 22.674 7.947l-.153.165c-2.452 2.66-8.191 8.888-18.521 8.888-9.244 0-11.467.585-14.279 1.326-3.783 1-7.372 1.82-9.187.337-1.018-.833-1.534-2.402-1.534-4.663-.0238858-1.281935.4742199-2.5185364 1.38-3.426 3.362-3.525 11.538-3.574 11.62-3.574.5522847 0 1-.4477153 1-1s-.4477153-1-1-1z"/><path id="Shape" d="m27 13h1c.5522847 0 1-.4477153 1-1s-.4477153-1-1-1h-1c-.5522847 0-1 .4477153-1 1s.4477153 1 1 1z"/><path id="Shape" d="m43 13c1.911 0 3.917.332 4.293.707.3923789.3789722 1.0160848.3735524 1.4018186-.0121814s.3911536-1.0094397.0121814-1.4018186c-1.199-1.2-4.672-1.293-5.707-1.293-.5522847 0-1 .4477153-1 1s.4477153 1 1 1z"/><path id="Shape" d="m32 49c17.944 0 24-2.019 24-8 .0073328-1.4161578-.5127737-2.7843338-1.459-3.838.9577842-1.1741938 1.4740072-2.6467917 1.459-4.162 0-2.738-.78-4.767-2.32-6.028-2.678-2.2-6.865-1.355-8.876-.952-1.232.246-2.148.487-3.034.72-2.67.704-4.785 1.26-13.77 1.26-11.68 0-18.911 7.425-21.288 9.866l-.419.427c-.35650785.356668-.39166121.9229801-.082 1.321.298.386 7.51 9.386 25.789 9.386zm-4-19c9.244 0 11.467-.585 14.279-1.326.858-.225 1.744-.459 2.917-.694 1.842-.369 5.269-1.057 7.216.539 1.054.863 1.588 2.371 1.588 4.481.0096699 1.325849-.5508839 2.5919211-1.539 3.476-3.673 3.477-12.374 3.524-12.461 3.524-.5522847 0-1 .4477153-1 1s.4477153 1 1 1c.368 0 8.61-.041 13.1-3.45.5921347.6775766.9127041 1.5502377.9 2.45 0 3.8-3.6 6-22 6-14.434 0-21.628-5.985-23.622-7.978 2.631-2.691 9.111-9.022 19.622-9.022z"/><path id="Shape" d="m35 42h1c.5522847 0 1-.4477153 1-1s-.4477153-1-1-1h-1c-.5522847 0-1 .4477153-1 1s.4477153 1 1 1z"/><path id="Shape" d="m20 40c-1.911 0-3.917-.332-4.293-.707-.3923789-.3789722-1.0160848-.3735524-1.4018186.0121814s-.3911536 1.0094397-.0121814 1.4018186c1.199 1.2 4.672 1.293 5.707 1.293.5522847 0 1-.4477153 1-1s-.4477153-1-1-1z"/><path id="Shape" d="m5 8c.55228475 0 1-.44771525 1-1v-2c0-.55228475-.44771525-1-1-1s-1 .44771525-1 1v2c0 .55228475.44771525 1 1 1z"/><path id="Shape" d="m5 31c.55228475 0 1-.4477153 1-1v-19c0-.5522847-.44771525-1-1-1s-1 .4477153-1 1v19c0 .5522847.44771525 1 1 1z"/></g></g></svg>