<svg height="511pt" viewBox="0 -66 511.99999 511" width="511pt" xmlns="http://www.w3.org/2000/svg"><path d="m506.210938 104.640625c-10.757813-37.023437-35.289063-67.644531-69.074219-86.21875-33.789063-18.574219-72.785157-22.882813-109.8125-12.125-16.296875 4.734375-31.859375 12.484375-46.910157 19.980469-30.9375 15.402344-60.15625 29.949218-96.050781 21.050781-28.417969-7.046875-54.632812-10.25-77.917969-9.515625-29.8125.933594-53.882812 8.414062-71.539062 22.226562-23.160156 18.121094-34.90625 46.699219-34.90625 84.9375v74.425782c0 30.617187 10.082031 61.109375 28.386719 85.855468 18.917969 25.578126 45.101562 43.796876 75.722656 52.691407 49.46875 14.371093 100.734375 21.585937 152.011719 21.585937 40.015625 0 80.039062-4.394531 119.207031-13.203125 4.039063-.910156 6.578125-4.921875 5.667969-8.964843-.90625-4.039063-4.921875-6.574219-8.960938-5.671876-38.09375 8.570313-77 12.84375-115.914062 12.84375-49.859375-.003906-99.726563-7.019531-147.824219-20.992187-27.441406-7.972656-50.9375-24.269531-67.847656-47.207031-29.28125-39.71875-25.449219-87.496094-25.449219-87.496094 3.792969 7.699219 8.265625 15.070312 13.386719 21.992188 18.917969 25.574218 45.101562 43.792968 75.722656 52.691406 49.679687 14.433594 100.78125 21.648437 151.882813 21.648437 51.097656 0 102.09375-7.582031 151.878906-21.648437 68.664062-19.402344 88.054687-72.515625 88.921875-74.25l-.050781 17.765625c-3.25 54.46875-40.625 101.269531-93.058594 116.503906-3.976563 1.15625-6.402344 5.359375-5.109375 9.296875 2.199219 6.679688 8.597656 5.3125 9.296875 5.109375 58.582031-17.023437 100.320312-69.363281 103.855468-130.242187.007813-.140626.234376-79.257813.234376-79.257813.339843-14.621094-1.554688-29.363281-5.75-43.8125zm-25.265626 102.585937c-16.714843 30.238282-44.085937 52.257813-77.261718 61.894532-96.625 28.070312-198.765625 28.070312-295.390625 0-27.4375-7.972656-50.898438-24.296875-67.847657-47.207032-16.410156-22.183593-25.445312-49.507812-25.445312-76.9375 0-33.390624 9.808594-57.992187 29.148438-73.125 18.433593-14.417968 43.660156-19.109374 68.691406-19.109374 25.242187 0 50.183594 5.175781 67.914062 9.144531 45.074219 10.078125 81.226563-9.679688 106.34375-22.183594 15.125-7.527344 29.410156-14.640625 44.414063-19 33.175781-9.640625 68.121093-5.78125 98.398437 10.863281 30.277344 16.644532 52.257813 44.082032 61.898438 77.261719 3.417968 11.773437 5.132812 23.765625 5.183594 35.695313-.007813.144531 2.070312 29.925781-16.046876 62.703124zm0 0"/><path d="m367.660156 41.585938c-24.632812 0-61.757812 17.859374-68.953125 21.441406-26.40625 13.148437-56.34375 28.054687-92.496093 28.054687-4.925782 0-24.609376-2.96875-41.976563-5.59375-20.488281-3.089843-41.671875-6.289062-50.972656-6.714843-22.945313-1.050782-40.957031 4.492187-53.519531 16.492187-8.527344 8.140625-18.6875 23.375-18.6875 49.710937 0 22.449219 11.488281 46.25 31.523437 65.300782 3 2.851562 7.75 2.734375 10.601563-.269532 2.855468-3 2.734374-7.746093-.265626-10.601562-17.070312-16.234375-26.863281-36.070312-26.863281-54.433594 0-16.644531 4.859375-30.082031 14.050781-38.863281 9.484376-9.058594 23.769532-13.222656 42.472657-12.355469 8.519531.390625 30.25 3.671875 49.421875 6.566406 23.746094 3.582032 38.570312 5.761719 44.214844 5.761719 39.679687 0 71.292968-15.742187 99.183593-29.628906 18.414063-9.164063 45.769531-19.871094 62.265625-19.871094 38.988282 0 73.828125 26.195313 84.722656 63.695313 6.582032 22.648437 3.949219 46.5-7.414062 67.167968-8.503906 15.472657-31.652344 29.734376-50.476562 37.925782-36.226563 15.761718-82.824219 23.75-138.503907 23.75-63.199219 0-113.421875-10.746094-149.261719-31.945313-3.566406-2.105469-8.164062-.925781-10.273437 2.640625s-.929687 8.164063 2.636719 10.269532c38.1875 22.585937 90.976562 34.035156 156.898437 34.035156 57.75 0 106.363281-8.410156 144.488281-24.996094 39.382813-17.132812 53.425782-36.792969 57.636719-44.453125 13.292969-24.179687 16.375-52.082031 8.675781-78.578125-12.746093-43.867188-53.507812-74.507812-99.128906-74.507812zm0 0"/><path d="m419.75 143.808594c0-26.625-21.660156-48.285156-48.28125-48.285156-26.625 0-48.285156 21.660156-48.285156 48.285156s21.660156 48.285156 48.285156 48.285156c26.621094 0 48.28125-21.660156 48.28125-48.285156zm-81.566406 0c0-18.355469 14.929687-33.285156 33.285156-33.285156 18.351562 0 33.285156 14.929687 33.285156 33.285156 0 18.351562-14.933594 33.285156-33.285156 33.285156-18.355469 0-33.285156-14.933594-33.285156-33.285156zm0 0"/></svg>