<svg id="Layer_1" enable-background="new 0 0 512 512" height="512" viewBox="0 0 512 512" width="512" xmlns="http://www.w3.org/2000/svg"><g><path d="m512 296.391v-21.842c0-59.14-22.794-114.744-64.183-156.569-41.409-41.847-96.473-64.893-155.045-64.893h-76.855c-55.406 0-108.082 20.956-148.322 59.006-7.046 6.663 3.261 17.563 10.307 10.899 37.443-35.406 86.458-54.905 138.016-54.905 110.786 0 200.917 90.131 200.917 200.917v35.006c-13.857-3.709-22.602-17.052-21.89-31.127 0-100.362-80.084-182.238-178.521-182.516-.172 0-.339 0-.511 0-47.314 0-91.941 18.525-125.706 52.195-34.383 34.285-53.317 79.971-53.317 128.641 1.009 14.65-7.205 28.876-21.89 32.807v-35.006c0-43.791 13.838-85.406 40.017-120.348 5.816-7.76-6.191-16.756-12.004-8.994-28.14 37.557-43.013 82.283-43.013 129.342v44.307c0 45.814 36.577 83.22 82.058 84.614-20.359 22.557-6.064 60.989 25.689 60.989h381.336c29.482 0 29.254-45.78 0-45.78h-29.477c-.018-6.65-.037-16.998-.053-27.564 31.225-17.267 52.447-50.766 52.447-89.179zm-67.599 66.621c.079.738.121 1.477.124 2.219l.036 53.715c.013 9.269 3.293 18.015 8.684 24.96h-59.964c4.412-6.034 7.025-13.463 7.025-21.495v-7.277c0-9.697-15-9.697-15 0v7.277c0 11.808-9.568 21.416-21.357 21.495h-.289c-11.785-.079-21.353-9.684-21.357-21.486l-.023-57.204c-.011-8.12-2.637-15.808-7.318-22.091h57.63c-4.467 6.007-7.081 13.341-7.283 21.191-.001.064-.002.128-.002.192v15.492c0 9.697 15 9.697 15 0v-15.389c.79-26.743 41.442-27.838 44.094-1.599zm16.946 65.129h27.736c9.713 0 10.503 15.765 0 15.765h-8.269c-8.584-.853-16.149-7.354-19.467-15.765zm-178.285-63.529c.248-8.425 5.145-15.854 12.796-19.405 6.878-3.191 14.802-2.664 21.195 1.412 6.394 4.075 10.216 11.035 10.227 18.61l.023 57.197c.003 8.025 2.617 15.449 7.027 21.479h-64.857c8.406-8.756 13.589-20.628 13.589-33.696zm-125.219 1.568c.289-14.457 9.84-22.509 19.195-23.041h98.298c-4.46 6.004-7.071 13.333-7.272 21.178-.002.064-.003.128-.003.192v45.701c0 18.487-14.964 33.539-33.415 33.696-11.656.359-22.182-8.286-22.182-20.494 0-20.993-17.079-38.071-38.071-38.071h-16.551v-19.161zm-47.526 34.161h64.076c12.722 0 23.071 10.35 23.071 23.071 0 7.628 2.417 14.7 6.527 20.494h-96.245c-28.506 0-24.872-43.565 2.571-43.565zm306.243-81.047c-.256 2.999-.699 5.944-1.325 8.823h-102.29c-.054 0-.107.007-.161.008-21.147 0-46.345.001-76.354.003-.082-.199-.149-.396-.233-.596-4.13-9.815-9.119-17.845-14.239-24.873 5.35 1.297 10.795 1.976 16.183 1.976 1.689 0 3.374-.066 5.047-.201 19.614-1.575 37.981-12.188 53.116-30.692 1.159-1.417 2.424-3.009 3.793-4.73 19.727-24.819 43.25-50.302 73.837-41.051 3.91 14.305 6.009 29.369 6.009 44.92v2.334c.001 22.017 15.836 40.359 36.617 44.079zm-200.645-213.928h.466c68.995.194 128.148 44.219 152.14 106.139-37.982-4.882-65.955 30.297-80.164 48.174-16.237 20.41-37.56 35.05-64.624 27.846-28.509-7.588-36.491-32.174-30.348-59.01 10.133-44.269-26.532-94.143-73.413-91.76 27.791-20.383 61.069-31.389 95.943-31.389zm-200.641 213.928c23.124-4.14 37.487-25.367 36.615-48.091 0-40.42 14.231-78.592 40.32-108.793 42.417-31.208 97.476 15.025 86.553 62.759-8.631 37.705 5.662 55.007 20.794 73.326 7.166 8.675 14.545 17.611 20.438 29.635-13.472.001-27.835.001-43.151.002-.119 0-.238.003-.356.008-18.807.896-33.271 17.156-33.644 37.824-.001.045-.001.09-.001.135v.007 16.884h-58.162c-36.405.001-66.359-28.067-69.406-63.696zm444.254 48.67c-.024-18.174-10.469-34.832-29.177-38.954 3.641-19.333 1.483-40.437 1.483-60.006 0-57.673-22.459-111.895-63.24-152.676-21.238-21.237-46.125-37.492-73.241-48.208 111.425 1.404 201.647 93.458 201.647 206.429v21.842c0 29.708-14.869 55.968-37.472 71.573z"/></g></svg>