<svg id="Capa_1" enable-background="new 0 0 512 512" height="512" viewBox="0 0 512 512" width="512" xmlns="http://www.w3.org/2000/svg"><g><path d="m400.957 103.972c-9.562 9.561-16.107 11.347-25.167 13.819-10.377 2.831-23.291 6.354-38.484 21.548s-18.717 28.107-21.548 38.484c-2.472 9.06-4.258 15.606-13.818 25.167-9.551 9.551-16.093 11.333-25.146 13.8-10.373 2.827-23.284 6.346-38.471 21.532s-18.705 28.098-21.532 38.472c-2.467 9.053-4.249 15.595-13.8 25.146-9.562 9.561-16.107 11.347-25.167 13.819-10.377 2.831-23.291 6.354-38.484 21.547-15.194 15.194-18.717 28.108-21.548 38.485-2.472 9.06-4.258 15.605-13.818 25.167-5.858 5.858-5.858 15.355 0 21.213 2.929 2.929 6.768 4.393 10.606 4.393s7.678-1.464 10.606-4.394c15.193-15.193 18.717-28.107 21.547-38.483 2.473-9.06 4.258-15.606 13.819-25.167 9.562-9.562 16.107-11.347 25.167-13.819 10.377-2.831 23.291-6.354 38.484-21.548 15.187-15.187 18.705-28.097 21.532-38.471 2.467-9.054 4.249-15.595 13.8-25.146s16.093-11.333 25.146-13.8c10.374-2.827 23.285-6.346 38.472-21.532 15.193-15.193 18.717-28.107 21.548-38.484 2.472-9.06 4.258-15.606 13.818-25.167 9.562-9.561 16.107-11.347 25.168-13.819 10.376-2.831 23.29-6.354 38.483-21.548 5.858-5.858 5.858-15.355 0-21.213-5.858-5.859-15.356-5.859-21.213-.001z"/><path d="m490.275 125.879c19.799-29.169 16.8-69.297-9.029-95.126-14.166-14.165-33-21.966-53.033-21.966-15.242 0-29.782 4.527-42.108 12.926-18.258-14.081-40.521-21.713-63.958-21.713-28.047 0-54.415 10.922-74.246 30.754l-217.147 217.147c-19.832 19.832-30.754 46.2-30.754 74.246 0 23.445 7.637 45.713 21.725 63.974-19.799 29.169-16.8 69.297 9.029 95.125 14.166 14.165 33 21.966 53.033 21.966 15.242 0 29.782-4.527 42.108-12.926 18.258 14.082 40.521 21.714 63.958 21.714 28.047 0 54.415-10.922 74.246-30.754l217.147-217.147c19.832-19.832 30.754-46.2 30.754-74.246 0-23.444-7.637-45.713-21.725-63.974zm-460.275 196.268c0-20.033 7.801-38.867 21.967-53.033l217.147-217.147c14.165-14.166 32.999-21.967 53.033-21.967 14.936 0 29.203 4.342 41.368 12.419l-321.096 321.096c-8.078-12.165-12.419-26.432-12.419-41.368zm85.606 137.886c-8.499 8.499-19.8 13.18-31.819 13.18-12.021 0-23.321-4.681-31.82-13.18-17.545-17.546-17.545-46.094 0-63.64l344.427-344.426c8.499-8.499 19.8-13.18 31.819-13.18 12.021 0 23.321 4.681 31.82 13.18 17.545 17.546 17.545 46.094 0 63.64zm344.427-217.147-217.147 217.147c-14.165 14.166-32.999 21.967-53.033 21.967-14.936 0-29.203-4.342-41.368-12.419l321.096-321.096c8.078 12.165 12.419 26.432 12.419 41.368 0 20.033-7.801 38.867-21.967 53.033z"/></g></svg>