<?xml version="1.0"?>
<svg xmlns="http://www.w3.org/2000/svg" width="512" height="512" viewBox="0 0 128 128"><path d="M105.037,0a1.749,1.749,0,0,0-1.75,1.75V5.487A13.546,13.546,0,0,0,91.5,18.9v3.608A13.491,13.491,0,0,0,95.825,32.4,35.647,35.647,0,0,1,79.347,46.791a53.856,53.856,0,0,0-4.792-11.8,1.751,1.751,0,0,0-1.533-.905H69.66V30.015A26.545,26.545,0,0,1,96.174,3.5a1.75,1.75,0,0,0,0-3.5A30.049,30.049,0,0,0,66.16,30.015v4.068H61.84V30.015A30.049,30.049,0,0,0,31.826,0a1.75,1.75,0,0,0,0,3.5A26.545,26.545,0,0,1,58.34,30.015v4.068H54.978a1.751,1.751,0,0,0-1.533.905,53.856,53.856,0,0,0-4.792,11.8A35.572,35.572,0,0,1,40.5,41.918c-.008-.007-.012-.015-.02-.022s-.043-.029-.063-.046A35.383,35.383,0,0,1,32.175,32.4,13.491,13.491,0,0,0,36.5,22.505V18.9A13.546,13.546,0,0,0,24.713,5.487V1.75A1.749,1.749,0,0,0,22.963,0,13.551,13.551,0,0,0,9.427,13.536v8.969a13.547,13.547,0,0,0,8.99,12.734A48.976,48.976,0,0,0,46.783,60.51a53.7,53.7,0,0,0,.26,5.621L35.98,72.182l-8.844-5.191a1.75,1.75,0,1,0-1.772,3.018l9.7,5.693a1.752,1.752,0,0,0,1.726.027l10.75-5.88c.293,1.718.671,3.416,1.115,5.1l-10.2,9.232L27.643,81.7a1.749,1.749,0,1,0-.784,3.41L38.56,87.8a1.771,1.771,0,0,0,1.566-.407l9.529-8.624L50.7,82.737,44.238,94.088l-8.673,1.955a1.749,1.749,0,0,0-1.322,2.092,1.769,1.769,0,0,0,2.091,1.322l9.427-2.125A1.746,1.746,0,0,0,46.9,96.49l5.069-8.908,1.262,4.81v18.624l-8.975,7.517a1.749,1.749,0,0,0-.01,2.675l7.5,6.375a1.746,1.746,0,0,0,2.029.17L64,121.66l10.228,6.093a1.748,1.748,0,0,0,2.029-.17l7.5-6.375a1.749,1.749,0,0,0-.01-2.675l-8.975-7.517V92.392l1.262-4.81L81.1,96.49a1.746,1.746,0,0,0,1.136.842l9.427,2.125a1.769,1.769,0,0,0,2.091-1.322,1.749,1.749,0,0,0-1.322-2.092l-8.673-1.955L77.3,82.737l1.041-3.971,9.529,8.624a1.778,1.778,0,0,0,1.566.407l11.7-2.691a1.749,1.749,0,1,0-.784-3.41L89.546,84.182l-10.2-9.232c.444-1.685.822-3.383,1.115-5.1l10.75,5.88a1.752,1.752,0,0,0,1.726-.027l9.7-5.693a1.75,1.75,0,0,0-1.772-3.018L92.02,72.182,80.957,66.131a53.7,53.7,0,0,0,.26-5.621,48.976,48.976,0,0,0,28.366-25.271,13.547,13.547,0,0,0,8.99-12.734V13.536A13.551,13.551,0,0,0,105.037,0ZM95,18.9a10.054,10.054,0,0,1,8.287-9.884v11.26H95ZM71.272,100.25H56.728V93.917H71.272Zm-14.544,3.5H71.272v6.333H56.728Zm-.7-66.167H71.977A50.221,50.221,0,0,1,76.1,48.236,61.809,61.809,0,0,1,77.7,59.4,50.384,50.384,0,0,1,76.08,73.6L71.672,90.417H56.328L51.92,73.6A50.384,50.384,0,0,1,50.3,59.4,61.809,61.809,0,0,1,51.9,48.236,50.221,50.221,0,0,1,56.023,37.583ZM33,18.9v1.376H24.713V9.013A10.054,10.054,0,0,1,33,18.9ZM12.927,22.505V13.536a10.054,10.054,0,0,1,8.286-9.884V22.023a1.75,1.75,0,0,0,1.75,1.75H32.92a10.037,10.037,0,0,1-19.993-1.268Zm9.809,13.534a13.781,13.781,0,0,0,6.585-1.591A38.838,38.838,0,0,0,36.8,43.357L32.432,48.18A45.319,45.319,0,0,1,22.736,36.039ZM35.142,50.4l4.376-4.834a39.065,39.065,0,0,0,8.326,4.684,53.2,53.2,0,0,0-.927,6.609A45.615,45.615,0,0,1,35.142,50.4Zm39.8,73.7L64.9,118.119a1.755,1.755,0,0,0-1.792,0l-10.048,5.986-4.966-4.22,7.524-6.3H72.386l7.524,6.3Zm5.212-73.853a39.065,39.065,0,0,0,8.326-4.684L92.858,50.4a45.615,45.615,0,0,1-11.775,6.459A53.2,53.2,0,0,0,80.156,50.252Zm25.108-14.213a45.319,45.319,0,0,1-9.7,12.141L91.2,43.357a38.838,38.838,0,0,0,7.477-8.909A13.732,13.732,0,0,0,105.264,36.039Zm9.809-13.534A10.037,10.037,0,0,1,95.08,23.773h9.957a1.75,1.75,0,0,0,1.75-1.75V3.652a10.054,10.054,0,0,1,8.286,9.884Z"/></svg>
