<svg id="Capa_1" enable-background="new 0 0 512 512" height="512" viewBox="0 0 512 512" width="512" xmlns="http://www.w3.org/2000/svg"><g><path d="m370 116c-42.764 0-84 43.002-84 100v100c0 44.112 23.327 80 52 80 19.508 0 38.132-17.048 46.345-42.422 6.759-20.891 19.777-41.35 38.694-60.807 18.405-18.924 28.961-46.907 28.961-76.771 0-58.286-40.212-100-82-100zm38.7 162.829c-21.076 21.678-35.673 44.756-43.384 68.592-6.073 18.763-18.338 28.579-27.316 28.579-15.105 0-32-25.659-32-60v-100c0-42.617 29.906-80 64-80 33.607 0 62 36.636 62 80 0 24.703-8.492 47.603-23.3 62.829z"/><circle cx="476" cy="106" r="10"/><path d="m490.535 137.914c-5.284 1.606-8.265 7.192-6.658 12.477 5.39 17.725 8.123 36.434 8.123 55.609 0 45.707-15.127 88.387-41.502 117.093-25.096 27.303-43.853 55.217-55.748 82.966-13.01 30.337-35.285 49.941-56.75 49.941-48.458 0-72-80.429-72-130v-120c0-81.309 52.206-150 114-150 21.102 0 41.801 8.207 59.859 23.733 4.189 3.602 10.503 3.122 14.103-1.063 3.601-4.188 3.124-10.502-1.063-14.103-21.738-18.688-46.946-28.567-72.899-28.567-58.247 0-105.032 48.307-123.927 105.921-22.291-68.924-74.542-105.921-123.073-105.921-66.833 0-133 69.738-133 170 0 31.976 21.629 95.095 53.203 132.82 17.492 20.891 31.811 44.414 42.076 68.556 18.013 42.329 48.944 68.624 80.721 68.624 41.127 0 68.254-42.01 80.218-81.346 15.305 48.272 46.218 81.346 81.782 81.346 29.928 0 58.716-23.779 75.132-62.06 11.003-25.667 28.529-51.679 52.093-77.314 29.726-32.355 46.775-79.966 46.775-130.626 0-21.147-3.024-41.815-8.988-61.428-1.607-5.285-7.199-8.267-12.477-6.658zm-468.903 83.89c-1.083-6.142-1.632-11.51-1.632-15.804 0-72.033 44.821-150 113-150 51.185 0 90.239 45.89 105.174 95.669-22.06-32.77-56.547-55.669-95.174-55.669-56.514 0-111.203 50.775-121.368 125.804zm160.015 233.741c-19.767-4.001-35.647-34.727-35.647-69.545 0-37.944 18.317-70 40-70s40 32.056 40 70c0 44.507-21.616 65.995-44.353 69.545zm61.891-95.6c-7.28-37.377-29.958-63.945-57.538-63.945-33.645 0-60 39.532-60 90 0 17.719 3.361 34.259 9.211 48.209-16.128-17.9-20.444-33.992-29.799-52.362-3.583-14.569-5.412-29.984-5.412-45.847 0-32.535 8.284-63.251 23.327-86.491 13.784-21.295 31.89-33.509 49.673-33.509 38.006 0 71.372 52.767 72.936 115.297-.216 9.803-1.03 19.397-2.398 28.648zm2.462-109.972c-17.166-32.754-43.718-53.973-73-53.973-24.696 0-48.921 15.542-66.462 42.642-17.113 26.437-26.538 61.013-26.538 97.358 0 1.577.037 3.146.069 4.716-3.695-5.031-7.529-9.955-11.53-14.734-7.734-9.241-15.117-20.572-21.963-33.665-4.355-14.774-6.576-30.349-6.576-46.317 0-70.468 47.168-130 103-130s103 59.532 103 130z"/></g></svg>