<svg id="Capa_1" enable-background="new 0 0 512 512" height="512" viewBox="0 0 512 512" width="512" xmlns="http://www.w3.org/2000/svg"><g><path d="m467.188 202.629c-1.737-3.776-6.203-5.427-9.981-3.691-3.775 1.737-5.428 6.206-3.691 9.981 2.737 5.948 4.8 12.087 6.215 18.318l-73.519 10.513 44.551-59.418c2.146 1.896 4.202 3.887 6.145 5.951 2.85 3.029 7.612 3.17 10.637.323 3.027-2.848 3.172-7.611.323-10.637-3.538-3.759-7.397-7.307-11.471-10.546-2.162-1.719-4.98-2.5-7.727-2.148-2.765.357-5.311 1.84-6.982 4.07l-26.973 35.975c-3.938-3.241-8.326-5.929-13-7.929-5.227-16.844-18.307-29.993-35.145-35.273-15.652-4.91-32.405-2.454-46.009 6.724-7.701-5.212-16.526-8.287-25.744-9.01v-15.465c0-41.282-24.587-78.307-62.638-94.325-5.619-2.366-10.159-6.964-12.454-12.618-8.251-20.303-27.742-33.424-49.657-33.424-11.507 0-22.476 3.594-31.719 10.393-2.771 2.037-5.896 3.413-9.29 4.088-19.243 3.832-34.841 17.831-40.706 36.536-.934 2.98-1.61 6.052-2.01 9.132-.595 4.579-2.506 8.791-5.527 12.18-16.706 18.745-25.906 42.908-25.906 68.04v116.814c0 35.11 17.692 67.366 47.325 86.284 3.847 2.456 6.837 6.312 8.644 11.148 7.784 20.833 27.957 34.83 50.198 34.83h27.57c2.762 0 5.492-.217 8.17-.635 2.984 33.44 22.311 63.626 51.954 80.233.914.511 1.559 1.362 1.816 2.391 5.965 23.885 27.34 40.566 51.981 40.566h7.555c4.156 0 7.525-3.369 7.525-7.525s-3.369-7.525-7.525-7.525h-7.555c-17.72 0-33.091-11.992-37.378-29.165-1.256-5.021-4.558-9.348-9.061-11.871-26.243-14.703-43.008-41.876-44.549-71.679 12.333-5.874 22.312-16.358 27.267-29.619 1.638-4.384 4.255-7.949 7.594-10.41 1.671 24.849 7.368 42.791 17.323 54.605 4.597 5.457 8.082 11.107 10.357 16.794 6.818 17.033 23.077 28.038 41.42 28.038 18.344 0 34.603-11.006 41.421-28.039 2.276-5.688 5.761-11.337 10.357-16.792 8.45-10.028 13.782-24.278 16.245-43.397 7.489.414 14.958.028 22.407-1.158 5.217-.817 10.321-2 15.284-3.532v29.014c0 31.548-17.119 60.736-44.678 76.176-4.504 2.524-7.807 6.852-9.06 11.873-3.227 12.925-13.133 23.427-25.849 27.41-3.966 1.242-6.175 5.464-4.932 9.43 1.008 3.218 3.976 5.278 7.179 5.278.745 0 1.503-.112 2.251-.346 17.687-5.54 31.463-20.149 35.953-38.126.258-1.029.902-1.878 1.816-2.39 32.304-18.098 52.371-52.317 52.371-89.305v-34.937c15.317-7.404 28.751-18.406 39.221-32.371 23.769-31.702 28.237-73.776 11.661-109.802zm-158.381-25.193c9.82-6.699 21.941-8.505 33.259-4.956 12.311 3.86 21.829 13.575 25.46 25.988 1.137 3.884 3.931 6.986 7.67 8.511 3.796 1.547 7.338 3.733 10.472 6.407l-32.049 42.745c-12.093-30.831-33.15-48.8-58.077-48.8-1.475 0-2.944.071-4.405.198-.401-11.226-4.22-21.819-11.115-30.745-1.358-1.758-2.449-3.626-3.284-5.564 5.504.885 10.748 2.945 15.413 6.107 5.12 3.47 11.659 3.514 16.656.109zm-89.416 153.347c-6.621 4.228-11.684 10.647-14.642 18.565-5.598 14.982-20.106 25.048-36.101 25.048h-27.57c-15.995 0-30.503-10.065-36.101-25.049-2.959-7.918-8.023-14.337-14.643-18.564-25.281-16.139-40.374-43.653-40.374-73.6v-116.814c0-21.435 7.845-42.043 22.091-58.028 5.043-5.658 8.23-12.663 9.216-20.255.288-2.212.774-4.423 1.446-6.568 4.219-13.452 15.44-23.521 29.283-26.278 5.571-1.107 10.708-3.37 15.269-6.723 6.642-4.885 14.527-7.467 22.803-7.467 15.762 0 29.779 9.436 35.712 24.04 3.789 9.329 11.282 16.918 20.558 20.824 32.457 13.663 53.429 45.244 53.429 80.455v21.716c0 8.566 2.886 16.83 8.345 23.897 5.244 6.788 8.016 14.92 8.016 23.517s-2.772 16.729-8.016 23.517c-5.459 7.068-8.345 15.332-8.345 23.897v.268c-.001 29.949-15.094 57.463-40.376 73.602zm116.42 58.33c-5.633 6.685-9.947 13.716-12.821 20.897-4.519 11.288-15.293 18.582-27.449 18.582-12.155 0-22.929-7.294-27.448-18.58-2.873-7.18-7.186-14.211-12.821-20.899-9.033-10.72-13.692-29.042-14.247-55.946 21.4-19.239 33.79-46.61 33.79-75.984v-.268c0-5.206 1.8-10.288 5.206-14.697 4.496-5.82 7.681-12.351 9.468-19.302 1.989-.343 4.011-.536 6.052-.536 20.85 0 37.922 17.54 47.188 48.274l-37.874 50.514c-1.673 2.23-2.385 5.089-1.952 7.843.43 2.738 1.971 5.222 4.229 6.817 12.61 8.911 26.727 14.903 41.5 17.778-2.074 16.09-6.284 27.751-12.821 35.507zm-15.951-62.87 44.553-59.422 10.539 73.704c-1.843.111-3.69.17-5.539.17-17-.001-34.177-4.714-49.553-14.452zm69.991 12.15-10.539-73.703 59.417 44.55c-13.298 15.105-30.488 24.967-48.878 29.153zm57.896-41.202-59.406-44.542 73.525-10.514c1.166 19.166-3.647 38.445-14.119 55.056z"/><path d="m225.159 237.263c.974-8.422 1.469-17.851 1.469-28.04 0-39.361-7.27-72.515-21.023-95.877-13.526-22.975-32.961-35.629-54.727-35.629-19.488 0-37.462 10.372-50.61 29.207-2.379 3.408-1.545 8.098 1.862 10.477 3.407 2.38 8.099 1.546 10.478-1.863 10.401-14.897 23.634-22.772 38.271-22.772 36.307 0 60.7 46.8 60.7 116.456 0 9.86-.485 18.915-1.44 26.912-.416 3.483.508 6.912 2.601 9.652 5.309 6.955 7.941 15.624 7.412 24.412-1.094 18.171-15.602 32.865-33.748 34.177-9.848.719-19.346-2.451-26.744-8.912-2.403-2.098-5.513-3.253-8.781-3.253-21.453 0-33.872-3.746-42.866-12.928-12-12.251-17.833-35.168-17.833-70.06 0-24.733 2.946-46.555 8.756-64.861 1.258-3.96-.934-8.191-4.896-9.448-3.958-1.254-8.191.935-9.449 4.896-6.278 19.779-9.461 43.133-9.461 69.413 0 39.025 7.239 65.386 22.132 80.591 14.89 15.203 35.096 17.399 53.033 17.446 9.391 7.983 21.092 12.266 33.359 12.266 1.273 0 2.553-.046 3.837-.139 25.638-1.856 46.138-22.613 47.683-48.284.73-12.135-2.822-24.12-10.015-33.839z"/></g></svg>