<svg height="512" viewBox="0 0 128 128" width="512" xmlns="http://www.w3.org/2000/svg"><g><path d="m107.79 32.315h-38.84c-8.179 0-14.586 10.232-14.586 23.293 0 13.041 6.387 23.26 14.547 23.293h.039 38.84c8.181 0 14.59-10.235 14.59-23.3s-6.409-23.286-14.59-23.286zm-49.926 23.293c0-10.729 5.077-19.793 11.086-19.793s11.087 9.064 11.087 19.793-5.078 19.792-11.087 19.792-11.086-9.062-11.086-19.792zm49.926 19.8h-31.053c4.113-4.076 6.8-11.341 6.8-19.8s-2.686-15.717-6.8-19.793h31.05c6.011 0 11.09 9.062 11.09 19.79s-5.077 19.8-11.087 19.8z"/><path d="m51.18 72.017a4.526 4.526 0 0 0 1.05-2.822v-8.738c0-.015 0-.03 0-.045 0-5.753-11.724-8.764-23.3-8.764-11.534 0-23.2 2.987-23.3 8.694 0 .025-.007.048-.007.073v8.78c0 2.481 2.1 4.567 6.1 6.118a4.553 4.553 0 0 0 -1.052 2.828v8.784c0 5.751 11.726 8.76 23.31 8.76s23.3-3.009 23.3-8.76v-8.79c-.001-2.48-2.096-4.566-6.101-6.118zm2.6 6.119c-.01 1.788-7.01 5.269-19.81 5.269s-19.791-3.481-19.8-5.27c0-.343.39-.952 1.43-1.638a56.988 56.988 0 0 0 13.33 1.458c7.653 0 14.61-1.258 18.855-3.381 4.378 1.257 5.995 2.799 5.995 3.562zm-24.852-22.988c12.8 0 19.784 3.467 19.8 5.256v.02c-.031 1.79-7.017 5.251-19.8 5.251-12.815 0-19.8-3.477-19.8-5.263s6.985-5.264 19.8-5.264zm-19.808 14.047v-3.942c4.336 2.587 12.1 3.922 19.808 3.922s15.464-1.334 19.8-3.918v3.938c0 .39-.5 1.124-1.889 1.928-.036.017-.071.036-.107.055-3.607 2.022-10.429 3.277-17.8 3.277a53.143 53.143 0 0 1 -13.174-1.522c-4.87-1.285-6.638-2.939-6.638-3.738zm24.86 22.99c-12.818 0-19.81-3.475-19.81-5.26v-3.945c4.337 2.589 12.1 3.925 19.8 3.925s15.471-1.336 19.81-3.932v3.952c0 1.785-6.989 5.26-19.8 5.26z"/><path d="m71.645 47.685a1.75 1.75 0 0 0 3.032-1.75l-1.455-2.521a1.75 1.75 0 0 0 -3.032 1.75z"/><path d="m67.619 54.69-2.607-1.3a1.75 1.75 0 0 0 -1.557 3.134l2.606 1.3a1.75 1.75 0 1 0 1.558-3.133z"/><path d="m21.77 62.165h2.91a1.752 1.752 0 1 0 0-3.5h-2.906a1.752 1.752 0 1 0 0 3.5z"/><path d="m34.271 62.671 1.973-2.141a1.75 1.75 0 0 0 -2.575-2.371l-1.969 2.141a1.75 1.75 0 1 0 2.574 2.371z"/><path d="m70.253 69.175a1.748 1.748 0 0 0 1.238-.512l2.058-2.058a1.75 1.75 0 0 0 -2.475-2.476l-2.058 2.058a1.751 1.751 0 0 0 1.237 2.988z"/></g></svg>