<?xml version="1.0" encoding="iso-8859-1"?>
<!-- Generator: Adobe Illustrator 19.0.0, SVG Export Plug-In . SVG Version: 6.00 Build 0)  -->
<svg xmlns="http://www.w3.org/2000/svg" xmlns:xlink="http://www.w3.org/1999/xlink" version="1.1" id="Layer_1" x="0px" y="0px" viewBox="0 0 512 512" style="enable-background:new 0 0 512 512;" xml:space="preserve" width="512" height="512">
<g id="XMLID_2071_">
	<g id="XMLID_1269_">
		<path id="XMLID_1321_" d="M507.372,124.457l-94.333-60.088c-1.96-1.247-4.292-1.772-6.6-1.49    c-15.906,1.968-30.154,5.389-43.559,10.457c-5.166,1.953-7.771,7.725-5.817,12.891c1.953,5.165,7.722,7.771,12.89,5.816    c10.911-4.125,22.528-7.029,35.414-8.848l69.884,44.514c-30.14,7.699-49.734,20.997-70.231,34.907    c-11.991,8.138-24.392,16.554-39.441,23.972c-13.688,6.748-23.702,13.667-32.537,19.771    c-21.994,15.195-39.367,27.198-104.374,27.198c-26.202,0-47.648,6.403-64.89,15.483l-42.205-23.986    c-4.802-2.728-10.906-1.048-13.636,3.753c-2.729,4.802-1.048,10.906,3.753,13.636l33.065,18.792    c-8.178,6.262-14.989,12.921-20.521,19.227c-11.555,13.169-19.075,26.322-23.454,35.339l-77.323-49.252    c9.128-19.632,40.457-73.078,110.877-73.078c65.714,0,88.358-12.122,110.215-26.948l46.769,24.784    c1.493,0.791,3.095,1.166,4.674,1.166c3.584,0,7.05-1.933,8.845-5.319c2.586-4.88,0.727-10.933-4.153-13.519l-37.34-19.788    c4.969-3.135,10.41-6.284,16.746-9.407c7.386-3.642,14.798-7.801,22.661-12.716c4.683-2.928,6.106-9.097,3.179-13.78    c-2.927-4.683-9.096-6.106-13.78-3.179c-7.288,4.556-14.126,8.395-20.903,11.735c-13.688,6.748-23.703,13.667-32.539,19.771    c-0.12,0.083-0.24,0.166-0.36,0.249c-0.002,0.001-0.004,0.003-0.006,0.004c-21.822,15.076-39.363,26.945-104.007,26.945    c-52.301,0-85.659,25.507-104.434,46.905c-15.477,17.639-23.71,35.24-26.854,42.919C1.17,265.112,0,267.653,0,270.471v115.877    c0,2.83,1.199,5.528,3.301,7.425c22.333,20.149,47.708,36.296,75.421,47.989l11.255,4.75c4.258,1.796,8.781,2.684,13.292,2.684    c6.24,0,12.456-1.699,17.905-5.039l97.671-59.879c24.827-15.221,51.413-27.632,79.02-36.889l60.344-20.236    c31.957-10.717,62.524-25.408,90.853-43.666l58.356-37.61c2.856-1.841,4.583-5.007,4.583-8.405V132.892c-0.001,0-0.002,0-0.003,0    C511.998,129.525,510.296,126.32,507.372,124.457z M228.667,253.558c71.244,0,91.865-14.247,115.742-30.743    c8.674-5.993,17.643-12.189,30.013-18.287c16.291-8.031,29.273-16.842,41.829-25.362c22.371-15.183,41.988-28.492,75.749-34.641    v29.141c-11.493,2.276-22.429,6.451-32.585,12.464l-11.879,7.032c-9.653,5.716-19.978,10.32-30.684,13.686    c-13.85,4.354-26.86,10.84-38.672,19.276l-41.431,29.594c-0.036,0.025-0.083,0.027-0.121,0.009    c-6.211-3.255-13.523-3.066-19.563,0.496l-13.564,8.011c-21.688,12.806-45.172,21.976-69.802,27.253l-27.162,5.821    c-18.024,3.862-34.766,11.258-49.76,21.981l-41.444,29.642v-16.583C119.491,321.669,149.166,253.558,228.667,253.558z     M95.333,336.045v26.743l-15.475-7.495c-6.623-3.209-12.619-7.474-17.821-12.677c-10.342-10.342-23.25-17.909-37.328-21.884    L20,319.402V288.06L95.333,336.045z M86.497,423.336C62.206,413.085,39.855,399.139,20,381.849v-41.652    c10.511,3.099,20.144,8.81,27.895,16.561c6.786,6.786,14.606,12.348,23.244,16.533l24.194,11.719v42.054L86.497,423.336z     M438.227,266.676c-26.934,17.358-55.995,31.325-86.378,41.514l-60.344,20.236c-29.036,9.737-57,22.792-83.113,38.801    l-93.059,57.051v-50.757l53.079-37.964c12.75-9.119,26.987-15.408,42.315-18.692l27.163-5.821    c26.738-5.729,52.234-15.685,75.78-29.589l13.563-8.009c0.035-0.021,0.077-0.022,0.114-0.003    c6.761,3.542,14.817,2.982,21.026-1.45l41.431-29.594c10.093-7.209,21.211-12.751,33.045-16.471    c12.168-3.825,23.902-9.059,34.875-15.556l11.879-7.033c7.038-4.167,14.544-7.226,22.396-9.175v37.854L438.227,266.676z"/>
		<path id="XMLID_1352_" d="M330.87,111.134c2.64,0,5.21-1.07,7.069-2.93c1.87-1.86,2.94-4.44,2.94-7.07s-1.07-5.2-2.94-7.07    c-1.859-1.859-4.43-2.93-7.069-2.93c-2.63,0-5.2,1.07-7.07,2.93c-1.86,1.86-2.92,4.44-2.92,7.07c0,2.64,1.06,5.21,2.92,7.07    C325.67,110.064,328.24,111.134,330.87,111.134z"/>
	</g>
</g>















</svg>
