<?xml version="1.0" encoding="iso-8859-1"?>
<!-- Generator: Adobe Illustrator 21.0.0, SVG Export Plug-In . SVG Version: 6.00 Build 0)  -->
<svg xmlns="http://www.w3.org/2000/svg" xmlns:xlink="http://www.w3.org/1999/xlink" version="1.1" id="Capa_1" x="0px" y="0px" viewBox="0 0 512 512" style="enable-background:new 0 0 512 512;" xml:space="preserve" width="512" height="512">
<g>
	<path d="M479.423,95.474c-13.97-16.005-35.868-19.257-57.298-19.901V13.5c0-7.444-6.055-13.5-13.499-13.5h-47.997   c-7.444,0-13.499,6.056-13.499,13.5v61.259c-17.732-0.115-35.95-0.188-53.626-0.226V13.5c0-7.444-6.055-13.5-13.499-13.5h-47.997   c-7.443,0-13.499,6.056-13.499,13.5v61.055c-18.63,0.045-36.11,0.11-52.997,0.185V13.5c0-7.444-6.056-13.5-13.499-13.5h-47.997   c-7.443,0-13.499,6.056-13.499,13.5v61.657c-7.164,0.031-14.342,0.051-21.475,0.051c-9.805,0.048-23.233,0.113-33.785,7.698   c-17.535,12.606-16.953,38.14-16.672,50.411l5.205,227.924c0.511,22.378,2.489,47.365,18.913,63.389   c0.087,0.085,0.174,0.17,0.261,0.254c0.009,0.009,0.018,0.017,0.027,0.026c12.837,12.355,29.763,15.131,47.525,15.827v7.013   c0,4.142,3.358,7.5,7.5,7.5c4.142,0,7.5-3.358,7.5-7.5v-6.729c15.877,0.181,29.624,0.288,44.997,0.368V497h-44.997v-16.75   c0-4.142-3.358-7.5-7.5-7.5c-4.142,0-7.5,3.358-7.5,7.5v18.25c0,7.444,6.056,13.5,13.499,13.5h47.997   c7.443,0,13.499-6.056,13.499-13.5v-57.047c17.045,0.056,34.215,0.059,52.997-0.01V498.5c0,7.444,6.056,13.5,13.499,13.5h47.997   c7.444,0,13.499-6.056,13.499-13.5v-57.692c16.175-0.219,35.033-0.537,53.626-0.918v58.61c0,7.444,6.055,13.5,13.499,13.5h47.997   c7.444,0,13.499-6.056,13.499-13.5v-60.517c4.829-0.147,9.656-0.298,14.48-0.454c14.373-0.465,28.166-1.634,38.941-10.717   c14.312-12.064,15.683-31.689,15.844-49.138l0.053-5.772c0.037-4.142-3.29-7.53-7.431-7.568c-0.023,0-0.046,0-0.069,0   c-4.11,0-7.46,3.313-7.499,7.432l-0.053,5.771c-0.13,14.114-1.06,29.839-10.512,37.806c-7.099,5.984-18.127,6.818-29.758,7.194   c-34.072,1.103-68.294,1.975-102.576,2.618c10.861-29.41,16.853-60.895,17.405-91.741c0.153-8.649-0.09-17.439-0.324-25.94   c-0.676-24.462-1.313-47.567,6.553-68.974c8.329-22.651,25.881-41.426,42.856-59.583c2.113-2.26,4.221-4.516,6.309-6.774   c20.635-22.32,40.233-47.188,43.878-77.754c0,0,0,0,0-0.001c0-0.003,0.001-0.006,0.001-0.009   c7.044,2.186,13.225,5.601,17.901,10.959c9.848,11.284,10.514,28.504,10.346,46.648l-1.73,187.698   c-0.038,4.142,3.289,7.531,7.43,7.569c0.024,0,0.047,0,0.07,0c4.11,0,7.46-3.313,7.499-7.431l1.73-187.698   C493.616,136.142,493.838,111.99,479.423,95.474z M362.129,15h44.997v60.327c-14.739-0.186-29.69-0.339-44.997-0.46V15z    M233.507,15h44.997v59.509c-15.09-0.016-30.1-0.009-44.997,0.015V15z M105.516,15h44.997v59.809   c-19.786,0.095-27.813,0.167-44.997,0.27V15z M44.012,95.086c6.16-4.428,15.014-4.829,25.067-4.878   c25.68,0,51.47-0.252,77.17-0.378c1.231-0.006,2.464-0.012,3.698-0.018c-0.77,1.52-1.503,3.007-2.203,4.469   c-4.841,10.147-9.121,20.71-12.721,31.396c-1.323,3.925,0.788,8.18,4.713,9.502c3.924,1.322,8.179-0.788,9.501-4.713   c3.408-10.118,7.461-20.12,12.039-29.717c1.656-3.458,3.52-7.087,5.657-11.01c7.458-0.035,14.913-0.066,22.367-0.096   c0.024,0,0.047,0,0.071,0c-1.8,3.975-3.727,7.884-5.433,12.07c-13.658,33.434-8.002,69.951-1.039,104.488   c6.433,31.778,14.065,66.061,5.624,97.12c-3.854,14.173-11.179,27.973-18.263,41.318c-10.428,19.644-21.211,39.958-22.338,63.153   c-0.298,6.089,0.064,12.232,1.104,18.587c-61.438-0.309-83.811,1.719-97.814-14.585c7.647-11.739,17.146-22.494,24.812-30.783   c2.062-2.231,4.145-4.459,6.233-6.692c18.002-19.258,36.617-39.171,45.997-64.682c8.862-24.116,8.154-49.761,7.469-74.562   c-0.23-8.332-0.468-16.947-0.32-25.252c0.29-16.318,2.16-32.797,5.558-48.981c0.851-4.054-1.745-8.03-5.798-8.881   c-4.05-0.851-8.029,1.745-8.88,5.799c-3.592,17.108-5.568,34.534-5.876,51.796c-0.153,8.646,0.089,17.434,0.324,25.933   c0.675,24.46,1.313,47.564-6.554,68.972c-8.332,22.66-25.893,41.446-42.876,59.614c-2.106,2.253-4.208,4.501-6.288,6.751   c-6.618,7.157-14.546,16.08-21.734,26.038c-2.41-7.979-4.113-19.297-4.493-35.967L33.58,132.975   C33.226,117.446,34.244,102.108,44.012,95.086z M164.276,426.449c-1.207-6.217-1.657-12.124-1.373-17.924   c0.965-19.853,10.505-37.825,20.605-56.852c7.47-14.073,15.195-28.625,19.488-44.416c9.295-34.202,1.628-69.331-5.395-104.019   c-6.51-32.29-11.856-66.289,0.223-95.856c2.385-5.853,5.394-11.41,7.848-17.792c30.369-0.09,61.295-0.123,92.505-0.045   c7.748,17.47,10.934,31.464,10.284,44.892c-0.965,19.858-10.507,37.828-20.611,56.854c-7.472,14.072-15.199,28.623-19.493,44.414   c-8.977,33.043-2.106,66.97,4.538,99.78c4.367,23.818,12.893,58.564,3.925,90.523C239.28,426.431,201.726,426.579,164.276,426.449z    M233.507,497v-55.627c14.996-0.084,29.998-0.213,44.997-0.385V497H233.507z M407.126,497h-44.997v-57.432   c15.018-0.337,30.02-0.719,44.997-1.144V497z M435.449,91.477c-0.036,0.378-0.077,0.756-0.122,1.136v-0.001   c-3.138,26.319-21.079,48.883-39.997,69.347c-2.069,2.238-4.159,4.473-6.254,6.713c-17.993,19.247-36.599,39.149-45.976,64.651   c-8.862,24.115-8.154,49.762-7.468,74.564c0.229,8.334,0.468,16.952,0.32,25.259c-0.557,31.102-6.966,62.906-18.572,92.294   c-8.341,0.139-16.684,0.264-25.03,0.375c7.649-32.4,0.518-64.535-4.754-93.309c-6.297-31.098-12.81-63.255-4.764-92.868   c3.853-14.172,11.181-27.97,18.266-41.313c10.431-19.644,21.217-39.956,22.345-63.162c0.688-14.198-2.101-28.584-8.953-45.567   c3.293,0.012,6.566,0.025,9.819,0.039C423.773,90.087,428.243,90.658,435.449,91.477z"/>
</g>















</svg>
