<svg height="512" viewBox="0 0 60 60" width="512" xmlns="http://www.w3.org/2000/svg"><g id="Page-1" fill="none" fill-rule="evenodd"><g id="028---Salami" fill="rgb(0,0,0)" fill-rule="nonzero" transform="translate(-1 -1)"><path id="Shape" d="m56.41 5.591c-.5777286-1.35771186-1.3527522-2.62268509-2.3-3.754-.4631754-.57759138-1.1818312-.88900888-1.92-.832-.7552117.06272505-1.4298459.49673975-1.8 1.158l-2.114 3.783c-7.1152817-3.71744661-15.8207141-2.38082878-21.493 3.3l-18.79 18.787-.008.013c-5.56573326 4.4214155-8.10279316 11.6428427-6.52542031 18.573802 1.57737284 6.9309592 6.98965909 12.3432455 13.92061831 13.9206183 6.9309593 1.5773729 14.1523865-.959687 18.573802-6.5254203l.013-.008 18.79-18.79c5.6797553-5.6724218 7.0162824-14.3768588 3.3-21.492l3.789-2.114c.6602143-.3704374 1.0925519-1.045379 1.153-1.8.0609992-.73795894-.249452-1.45784578-.828-1.92-1.138052-.94142266-2.4044474-1.71587343-3.761-2.3zm-36.91 53.409c-9.1126984 0-16.5-7.3873016-16.5-16.5s7.3873016-16.5 16.5-16.5 16.5 7.3873016 16.5 16.5c-.0104703 9.1083579-7.3916421 16.4895297-16.5 16.5zm18.414-18.194c-.0706367-.7694313-.1898748-1.5336239-.357-2.288 2.1918029-1.881964 3.4499022-4.6291005 3.443-7.518-.0060624-5.5203344-4.4796656-9.9939376-10-10-2.8887534-.0062284-5.6356213 1.251748-7.518 3.443-.7543904-.1670492-1.5185782-.2862865-2.288-.357 2.7530564-3.9110884 7.565782-5.8138534 12.2490484-4.8427987 4.6832665.9710548 8.3426955 4.6304838 9.3137503 9.3137503.9710547 4.6832664-.9317103 9.495992-4.8427987 12.2490484zm-12.263-15.733c1.460263-1.3368285 3.3692361-2.0766493 5.349-2.073 4.4162219.0049599 7.9950401 3.5837781 8 8 .0043338 1.9798912-.7355799 3.8891043-2.073 5.349-1.8707394-5.2637321-6.0122679-9.4052606-11.276-11.276zm25.692 8.727-14.17 14.17c.4807386-1.5709154.7497779-3.1989395.8-4.841 5.1114614-2.9315561 7.8387364-8.7510897 6.8210795-14.555005s-5.5621592-10.3484176-11.3660745-11.3660745-11.6234489 1.7096181-14.555005 6.8210795c-1.6420674.0501507-3.2701009.3191916-4.841.8l14.168-14.172c4.1154333-4.22561793 10.1863377-5.90974818 15.8905453-4.40819796 5.7042077 1.50155023 10.1591024 5.95644496 11.6606527 11.66065266 1.5015502 5.7042076-.1825801 11.775112-4.408198 15.8905453zm7.519-23.933-3.831 2.138c-1.337058-1.9875321-3.0453289-3.69817983-5.031-5.038l2.135-3.825c.0419509-.08117936.1228987-.13489234.214-.142.0771632-.01014226.1537494.02240689.2.085.9038188 1.07440042 1.6238545 2.29079102 2.131 3.6.0991739.29992434.3342323.53535352.634.635 1.3098454.5067245 2.526407 1.22753729 3.6 2.133.0617034.04688501.0937208.12311683.084.2-.0064101.0896819-.0575267.17011531-.136.214z"/><path id="Shape" d="m19.5 28c-8.0081289 0-14.5 6.4918711-14.5 14.5s6.4918711 14.5 14.5 14.5 14.5-6.4918711 14.5-14.5c-.0093678-8.0042454-6.4957546-14.4906322-14.5-14.5zm0 27c-6.9035594 0-12.5-5.5964406-12.5-12.5s5.5964406-12.5 12.5-12.5 12.5 5.5964406 12.5 12.5c-.0077154 6.900361-5.599639 12.4922846-12.5 12.5z"/><path id="Shape" d="m25 36c-1.6568542 0-3 1.3431458-3 3s1.3431458 3 3 3 3-1.3431458 3-3-1.3431458-3-3-3zm0 4c-.5522847 0-1-.4477153-1-1s.4477153-1 1-1 1 .4477153 1 1-.4477153 1-1 1z"/><path id="Shape" d="m13 43c-1.6568542 0-3 1.3431458-3 3s1.3431458 3 3 3 3-1.3431458 3-3-1.3431458-3-3-3zm0 4c-.5522847 0-1-.4477153-1-1s.4477153-1 1-1 1 .4477153 1 1-.4477153 1-1 1z"/><path id="Shape" d="m24 45c-1.6568542 0-3 1.3431458-3 3s1.3431458 3 3 3 3-1.3431458 3-3-1.3431458-3-3-3zm0 4c-.5522847 0-1-.4477153-1-1s.4477153-1 1-1 1 .4477153 1 1-.4477153 1-1 1z"/><path id="Shape" d="m16 33c-1.6568542 0-3 1.3431458-3 3s1.3431458 3 3 3 3-1.3431458 3-3-1.3431458-3-3-3zm0 4c-.5522847 0-1-.4477153-1-1s.4477153-1 1-1 1 .4477153 1 1-.4477153 1-1 1z"/><circle id="Oval" cx="20" cy="44" r="1"/><circle id="Oval" cx="17" cy="51" r="1"/><circle id="Oval" cx="11" cy="40" r="1"/><circle id="Oval" cx="29" cy="44" r="1"/><circle id="Oval" cx="22" cy="34" r="1"/></g></g></svg>