<svg height="480pt" viewBox="0 0 480.26319 480" width="480pt" xmlns="http://www.w3.org/2000/svg"><path d="m348.261719.132812c-55.648438.742188-110.921875 9.300782-164.191407 25.421876l-11.398437 3.25c-46.527344 13.230468-94.632813 26.925781-136.664063 48.925781-16.164062 8.675781-28.011718 23.664062-32.71875 41.394531-3.2499995 12.445312-3.59375 121.046875-3.113281 280.277344.085938 18.664062.085938 33.082031.085938 40.730468v32c0 4.417969 3.582031 8 8 8h464c4.417969 0 8-3.582031 8-8v-339.839843c.035156-72.945313-59.054688-132.109375-132-132.160157zm62.65625 34.335938c-7.878907 4.800781-15.007813 10.101562-21.902344 15.3125-20.6875 15.605469-40.242187 30.351562-79.953125 30.351562s-59.328125-14.777343-80.054688-30.402343c-6.402343-4.800781-13.039062-9.726563-20.25-14.269531 13.792969-3.5625 27.261719-6.617188 40.410157-9.160157 18.496093 9.542969 39.085937 14.300781 59.894531 13.832031 24.859375.699219 49.339844-6.203124 70.167969-19.785156 11.21875 3.074219 21.902343 7.835938 31.6875 14.121094zm-58.398438-18.199219c-13.828125 5.445313-28.59375 8.121094-43.457031 7.863281-9.546875.066407-19.070312-.964843-28.382812-3.074218 22.386718-3.199219 44.96875-4.84375 67.582031-4.925782 1.433593 0 2.839843.078126 4.265625.136719zm-309.054687 75.660157c40.566406-21.261719 87.871094-34.71875 133.597656-47.742188l9.433594-2.6875c11.710937 5.742188 22.738281 12.777344 32.878906 20.984375 21.914062 16.542969 44.585938 33.648437 89.6875 33.648437 45.105469 0 67.703125-17.074218 89.601562-33.601562 8.242188-6.515625 16.96875-12.398438 26.101563-17.601562 8.265625 7.269531 15.460937 15.671874 21.371094 24.953124 1.0625 1.671876 2.03125 3.394532 3 5.113282-22.199219 5.285156-42.800781 15.828125-60.074219 30.734375-20.71875 15.617187-40.289062 30.402343-80 30.402343s-59.28125-14.761718-80-30.402343c-21.878906-16.511719-44.519531-33.597657-89.597656-33.597657-45.082032 0-67.722656 17.085938-89.601563 33.597657-9.753906 7.914062-20.320312 14.765625-31.519531 20.449219.085938-1.003907.226562-2.003907.421875-2.992188 3.550781-13.386719 12.492187-24.703125 24.699219-31.257812zm110.191406 340.203124c-13.699219-1.324218-26.246094-8.25-34.664062-19.136718l-2.527344-3.199219c-7.59375-11.839844-18.519532-21.164063-31.402344-26.800781-3.324219-1.132813-6.738281-1.984375-10.207031-2.542969 7.433593-2.777344 14.910156-5.320313 22.105469-7.746094l3.476562-1.175781c14.605469-2.835938 29.722656-1.25 43.417969 4.558594 10.0625 5.59375 18.394531 13.84375 24.085937 23.851562 1.808594 2.535156 3.617188 5.085938 5.515625 7.597656 7.574219 10.070313 17.167969 18.445313 28.167969 24.59375zm-137.59375-175.714843c15.699219-6.367188 30.335938-15.097657 43.402344-25.886719 20.703125-15.625 40.269531-30.398438 80-30.398438 39.726562 0 59.277344 14.757813 80 30.398438 21.902344 16.527344 44.542968 33.601562 89.597656 33.601562 45.058594 0 67.730469-17.082031 89.601562-33.601562 18.015626-13.601562 35.296876-26.398438 65.597657-29.527344v39.925782c-35.671875 3.265624-55.855469 18.1875-75.199219 32.800781-20.695312 15.625-40.253906 30.402343-80 30.402343-39.742188 0-59.28125-14.761718-80-30.402343-21.878906-16.511719-44.519531-33.597657-89.597656-33.597657-45.082032 0-67.722656 17.085938-89.601563 33.597657-10.386719 8.472656-21.746093 15.675781-33.839843 21.457031-.015626-12.847656 0-25.886719.039062-38.769531zm443.464844 108.800781c-8.585938-13.457031-19.53125-25.253906-32.3125-34.816406 10.550781-8.984375 23.367187-14.898438 37.046875-17.09375v48.757812c-1.628907.96875-3.210938 2.019532-4.734375 3.144532zm4.734375-68.214844c-19.09375 2.566406-36.894531 11.078125-50.878907 24.328125-13.515624-7.667969-28.289062-12.871093-43.625-15.375 10.132813-5.703125 19.796876-12.199219 28.90625-19.425781 18.015626-13.601562 35.296876-26.398438 65.597657-29.527344zm-117.597657 23.128906c-3.136718 14.035157-7.84375 27.675782-14.039062 40.65625-5.027344 9.742188-11.617188 15.34375-18.144531 15.34375h-.074219c-6.710938 0-13.597656-5.671874-18.816406-15.546874-4.363282-9.066407-7.792969-18.550782-10.238282-28.308594-.695312-2.601563-1.472656-5.105469-2.304687-7.578125 21.085937-2.902344 42.335937-4.425781 63.617187-4.566407zm-330.664062-7.6875c15.722656-6.371093 30.382812-15.109374 43.464844-25.914062 20.703125-15.625 40.269531-30.398438 80-30.398438 39.726562 0 59.277344 14.757813 80 30.398438 12.582031 10.382812 26.59375 18.910156 41.597656 25.3125-17.4375 2.945312-35.3125 6.679688-53.792969 11.359375-16.757812-15.613281-38.320312-25.070313-61.160156-26.824219-2.222656-.160156-4.453125-.246094-6.679687-.246094-45.070313 0-67.71875 17.085938-89.597657 33.597657-10.371093 8.460937-21.714843 15.660156-33.785156 21.441406-.023437-12.175781-.039063-25.230469-.046875-38.726563zm4.800781 78.6875c-1.648437 1.386719-3.199219 2.878907-4.648437 4.472657 0-7.945313-.058594-17.082031-.082032-27.203125 15.695313-6.367188 30.328126-15.089844 43.394532-25.871094 20.703125-15.625 40.269531-30.398438 80-30.398438 1.832031 0 3.671875.070313 5.511718.199219 15.636719 1.203125 30.628907 6.746094 43.292969 16-1.527343.421875-3.015625.800781-4.542969 1.230469l-11.496093 3.273438c-23.734375 6.75-48.28125 13.734374-72.136719 21.894531l-8.246094 2.800781c-24.082031 8.089844-51.375 17.28125-71.03125 33.601562zm155.804688-42.921874 11.503906-3.269532c4.800781-1.386718 9.5625-2.617187 14.304687-3.882812 8.601563 9.621094 15.136719 20.90625 19.199219 33.152344l3.203125 9.601562c5.804688 19.257812 17.890625 36.015625 34.335938 47.597656-27.6875-2.183594-54.554688-9.199218-72.9375-33.527344-1.792969-2.398437-3.519532-4.800781-5.230469-7.199218-7.273437-12.375-17.855469-22.472656-30.5625-29.152344-2.796875-1.230469-5.660156-2.300781-8.582031-3.199219 11.648437-3.535156 23.3125-6.863281 34.765625-10.121093zm-145.597657 55.199218c2.976563-2.417968 6.101563-4.652344 9.359376-6.679687 13.058593-2.417969 26.488281-1.976563 39.359374 1.296875 9.921876 4.71875 18.28125 12.191406 24.074219 21.527344l2.597657 3.320312c2.6875 3.359375 5.683593 6.460938 8.953124 9.257812h-98.046874c.71875-10.972656 5.640624-21.246093 13.734374-28.6875zm209.039063-24.460937-3.289063-9.832031c-3.894531-11.695313-9.71875-22.65625-17.222656-32.433594 16.207032-3.902344 31.988282-7.105469 47.34375-9.601563 1.105469 3.035157 2.128906 6.113281 2.992188 9.378907 2.746094 10.898437 6.613281 21.484374 11.535156 31.589843 8.167969 15.28125 20.167969 24.082031 33 24.082031h.183594c12.679687-.089843 24.425781-8.800781 32.203125-23.960937 7.167969-15.027344 12.566406-30.835937 16.078125-47.113281 13.804687 1.746094 27.179687 5.976562 39.480468 12.480468-7.0625 9.355469-12.433593 19.878907-15.863281 31.089844l-5.273437 17.207032c-10.351563 30.582031-39.332032 50.929687-71.613282 50.277343-32.28125-.652343-60.417968-22.15625-69.523437-53.132812zm156.359375 7.757812 5.34375-17.421875c3.082031-9.878906 7.964844-19.101562 14.402344-27.203125 11.894531 8.628907 22.046875 19.433594 29.917968 31.839844.65625 1.027344 1.234376 2.089844 1.855469 3.136719-2.097656 2.757812-3.9375 5.707031-5.496093 8.800781l-10.964844 22.046875c-7.390625 14.878906-22.589844 24.273438-39.203125 24.226562h-30.023438c15.992188-11.050781 27.988281-26.972656 34.199219-45.394531zm49.304688 28.328125 10.550781-21.039062c4.773437 12.175781 7.453125 25.066406 7.929687 38.136718h-31.390625c5.296875-4.871093 9.683594-10.648437 12.941407-17.066406zm18.550781-230.105468c-35.671875 3.265624-55.855469 18.1875-75.199219 32.800781-20.695312 15.625-40.253906 30.402343-80 30.402343-39.742188 0-59.28125-14.761718-80-30.402343-21.878906-16.511719-44.519531-33.597657-89.597656-33.597657-45.082032 0-67.722656 17.085938-89.601563 33.597657-10.355469 8.441406-21.671875 15.625-33.71875 21.402343.0625-13.496093.144531-26.578124.261719-38.832031 15.570312-6.371093 30.085938-15.058593 43.058594-25.769531 20.703125-15.625 40.269531-30.398438 80-30.398438 39.726562 0 59.277344 14.757813 80 30.398438 21.902344 16.527344 44.542968 33.601562 89.597656 33.601562 45.058594 0 67.730469-17.082031 89.601562-33.601562 18.015626-13.601562 35.296876-26.398438 65.597657-29.527344zm-75.199219-23.199219c-20.695312 15.625-40.253906 30.402343-80 30.402343-39.742188 0-59.28125-14.761718-80-30.402343-21.878906-16.511719-44.519531-33.597657-89.597656-33.597657-45.082032 0-67.722656 17.085938-89.601563 33.597657-10.234375 8.332031-21.398437 15.449219-33.273437 21.210937.203125-15.386718.464844-28.746094.800781-38.992187 15.1875-6.378907 29.363281-14.941407 42.074219-25.417969 20.703125-15.625 40.269531-30.398438 80-30.398438 39.726562 0 59.277344 14.757813 80 30.398438 21.902344 16.527344 44.542968 33.601562 89.597656 33.601562 45.058594 0 67.695312-17.082031 89.601562-33.601562 16.390626-14.34375 36.246094-24.152344 57.597657-28.457031 4.839843 12.421875 7.5 25.582031 7.867187 38.90625-35.578125 3.277343-55.738281 18.183593-75.066406 32.75zm75.199219 302.402343h-448v-16h137.015625c4.621094.539063 9.265625.804688 13.914062.796876 5.75 0 11.558594-.335938 17.335938-.796876h279.734375zm0 0"/></svg>