<?xml version="1.0" encoding="iso-8859-1"?>
<!-- Generator: Adobe Illustrator 19.0.0, SVG Export Plug-In . SVG Version: 6.00 Build 0)  -->
<svg version="1.1" id="Capa_1" xmlns="http://www.w3.org/2000/svg" xmlns:xlink="http://www.w3.org/1999/xlink" x="0px" y="0px"
	 viewBox="0 0 512.001 512.001" style="enable-background:new 0 0 512.001 512.001;" xml:space="preserve">
<g>
	<g>
		<path d="M511.179,385.31c-1.859-4.483-5.31-5.962-9.01-7.436c3.666-4.313,6.536-9.036,2.54-14.806
			c-2.902-4.191-7.837-5.097-12.649-4.461c-0.097-7.239-2.686-14.897-10.699-15.212c-9.483-0.374-15.865,8.549-18.206,17.328
			c-6.05-4.643-13.491-6.883-21.273-6.546c-13.591,0.589-25.423,7.631-37.885,12.247c-13.506,5.004-27.106,6.956-41.473,7.061
			c-14.086,0.103-27.984-3.593-42.035-2.581c-14.732,1.061-29.713,6-41.351,14.984c-3.85,2.603-7.196,5.787-10.089,9.438
			c-3.908,4.933-6.804,10.46-8.65,16.361c-6.61-8.148-18.069-13.352-28.059-15.533c-20.009-4.368-40.767,0.836-60.752-3.489
			c-10.33-2.235-17.491-7.796-25.962-13.682c-7.842-5.449-16.697-10.068-26.077-12.147c-3.988-0.884-8.042-1.271-12.08-1.239
			c3.838-4.783,6.659-10.55,8.166-17.327c2.012-9.045,3.078-17.239,10.724-23.369c7.673-6.152,16.544-10.618,24.79-15.919
			c12.58-8.088,23.261-19.181,29.33-32.71c12.084,8.174,29.786,10.215,43.362,11.098c18.811,1.223,37.5-1.893,55.928-5.323
			c24.382-4.538,52.314-10.366,70.265-28.917c5.162-5.335,9.05-11.629,11.481-18.463c4.23,2.196,9.325,3.173,13.692,4.34
			c9.384,2.507,18.431,3.197,28.032,1.728c17.944-2.744,35.341-11.312,49.187-22.931c27.665-23.217,48.698-55.417,47.232-92.832
			c-0.716-18.267-8.835-33.393-20.972-46.684c-11.028-12.077-25.6-22.573-41.817-26.077c-17.039-3.681-34.877,1.343-46.972,14.106
			c-1.162,1.226-2.236,2.516-3.272,3.834c-0.267-11.168-5.7-22.184-15.231-28.444c-15.019-9.864-34.415-8.176-50.958-3.921
			c-9.936,2.556-19.608,6.182-29.663,8.271c-10.517,2.186-21.313,2.101-31.959,1.011c-17.867-1.828-35.351-7.576-52.815-0.543
			c-5.532,2.228-10.195,5.368-14.033,9.127c-1.845-7.197-6.307-14.027-11.551-18.361c-12.579-10.397-29.472-9.15-44.752-10.672
			c-9.849-0.981-19.685-2.358-29.401-4.257c-9.317-1.821-18.207-5.124-27.244-7.952c-13.948-4.365-27.856-6.895-40.087,1.398
			c-1.56-2.325-4.295-4.349-6.032-5.603c-4.309-3.11-9.405-5.225-14.804-4.996c-4.324,0.184-8.61,2.143-10.204,6.41
			c-1.329,3.558-0.253,6.21,1.027,8.967c-3.161,1.261-5.839,3.554-7.313,6.853c-2.035,4.553-0.378,7.952,2.06,11.259
			c-4.374,5.328-5.591,12.285,0.604,17.615c3.224,2.774,8.691,4.567,13.651,4.411c-0.104,14.814,6.735,28.101,17.183,38.55
			c22.327,22.33,54.507,34.729,85.483,38.271c15.21,1.739,33.197,2.152,46.701-6.209c7.585-4.696,12.063-12.049,15.473-20.099
			c0.292-0.689,0.559-1.376,0.811-2.062c2.876,6.136,7.058,11.772,12.569,16.38c27.679,23.142,68.423,24.332,102.507,20.462
			c19.409-2.204,40.154-5.08,56.499-16.641c6.473-4.578,13.466-10.977,19.024-18.357c0.363,0.846,0.785,1.683,1.296,2.501
			c5.033,8.061,18.357,10.203,21.264,19.431c3.038,9.643-10.473,19.215-18.305,21.477c-5.324,1.538-10.985,1.275-16.361,2.57
			c-4.254,1.024-8.14,3.152-11.517,5.902c-3.342,2.721-6.014,6.106-7.274,9.824c-12.351-6.938-27.629-5.098-41.117-2.622
			c-10.097,1.854-20.078,4.308-30.215,5.95c-10.133,1.641-20.353,1.841-30.595,2.006c-19.486,0.313-40.991,0.496-57.899,11.602
			c-6.732,4.422-12.452,10.303-16.017,17.568c-1.112,2.266-2.172,4.873-2.761,7.514c-23.241-14.131-55.521-3.345-77.284,8.765
			c-31.336,17.437-55.619,49.301-67.113,82.96c-6.869,20.116-10.472,45.255-3.52,65.864c3.03,8.983,8.858,16.714,17.437,21.041
			c6.835,3.448,15.595,5.932,23.458,4.69c-5.007,10.176-7.612,21.751-6.782,32.636c1.394,18.282,12.535,32.764,27.094,43.087
			c16.662,11.814,36.455,19.487,56.192,24.344c20.671,5.087,42.948,8.342,64.239,8.661c20.226,0.303,44.355-3.091,59.696-17.647
			c7.261-6.889,11.175-15.483,12.734-24.663c3.403,4.445,7.397,8.379,11.894,11.548c9.456,6.664,22.562,7.536,33.748,8.575
			c13.746,1.277,27.602,0.698,41.281-1.034c26.31-3.332,53.653-9.929,77.932-20.763c11.336-5.058,22.33-11.549,29.775-21.704
			c6.192-8.445,10.715-19.152,12.954-29.378c0.025-0.112,0.04-0.228,0.064-0.34c4.439,0.021,9.594-1.652,13.48-2.562
			c5.83-1.365,11.302-3.759,15.268-8.393C510.754,396.296,513.415,390.701,511.179,385.31z M14.84,50.839
			c-1.588-0.199-3.957-0.394-5.12-1.663c-2.46-2.686,0.96-5.324,2.914-6.994c1.968-1.684,1.371-4.49,0-6.249
			c-1.257-1.612-2.979-2.717-2.35-4.731c0.697-2.232,3.173-2.328,5.146-2.281c3.117,0.074,5.335-3.084,4.569-5.998
			c-0.428-1.629-4.015-6.882-2.967-8.076c1.655-1.885,8.705,1.512,9.971,2.192c1.101,0.592,3.464,2.532,5.897,3.944
			c-7.622,8.008-12.211,19.212-14.066,30.176C17.534,51.054,16.203,51.01,14.84,50.839z M178.969,88.085
			c-0.102,0.519-0.211,1.044-0.327,1.574c-2.183,9.998-6.757,21.88-14.184,28.869c-8.497,7.995-22.322,8.381-33.267,7.996
			c-26.306-0.925-53.076-9.516-74.786-24.437c-10.586-7.275-21.679-16.854-25.69-29.478c-3.839-12.081-1.146-25.876,5.259-36.62
			c2.774-4.652,6.439-8.927,11.281-11.501c6.172-3.28,12.527-2.366,19.054-0.759c15.447,3.803,29.866,9.845,45.692,12.299
			c9.182,1.424,18.415,2.548,27.678,3.295c7.407,0.597,15.09,0.344,22.339,2.14c6.495,1.609,12.271,4.773,15.963,10.518
			C184.932,62.796,181.273,76.415,178.969,88.085z M352.865,116.386c-11.994,10.356-27.507,14.078-42.777,16.513
			c-29.625,4.725-63.22,6.486-91.089-6.581c-13.408-6.287-24.91-15.651-28.084-30.779c-2.761-13.16,1.995-27.656,13.638-34.924
			c12.913-8.061,26.795-5.078,40.94-3.113c17.927,2.49,35.489,3.23,53.155-1.4c17.808-4.667,36.601-13.31,55.345-9.092
			c6.907,1.554,13.73,4.728,17.634,10.896C383.799,77.133,367.741,103.541,352.865,116.386z M386.632,164.205
			c13.417-5.718,27.769-20.459,21.7-36.18c-2.918-7.558-9.356-11.819-15.962-15.893c-2.965-1.829-6.616-3.84-7.494-7.482
			c-0.792-3.285,0.667-7.122,1.815-10.164c5.673-15.022,16.484-28.601,33.133-31.327c14.251-2.333,28.574,4.431,39.547,13.009
			c11.313,8.844,22.385,21.259,26.424,35.302c8.873,30.853-7.578,64.244-28.988,85.669c-12.835,12.844-27.035,23.362-44.59,28.747
			c-8.842,2.712-18.158,4.311-27.352,2.604c-3.778-0.701-7.487-1.795-11.192-2.8c-2.976-0.808-7.035-1.566-9.27-3.828
			c-0.042-0.043-0.086-0.078-0.129-0.119c0.114-1.42,0.181-2.848,0.174-4.287c-0.054-13.048-3.742-28.143-12.861-38.09
			C353.058,165.366,377.462,168.113,386.632,164.205z M175.608,215.746c1.096-2.661,2.759-5.115,4.469-7.417
			c3.968-5.341,9.503-9.357,15.523-12.094c14.451-6.569,31.245-6.187,46.765-6.373c17.165-0.205,33.527-2.14,50.338-5.554
			c13.108-2.662,29.53-7.614,42.561-2.03c12.099,5.185,16.359,20.808,16.903,32.824c0.512,11.291-3.21,21.75-11.211,29.8
			c-15.188,15.282-38.779,20.271-59.158,24.223c-32.277,6.259-67.335,11.163-97.371-4.89c0.168-0.766,0.348-1.527,0.486-2.306
			c1.537-8.633,0.687-17.678-2.512-25.848C179.669,229.1,172.276,223.833,175.608,215.746z M38.727,382.614
			c-6.493-3.83-9.901-10.361-11.623-17.494c-4.092-16.948-1.567-35.843,3.555-52.27c9.413-30.184,30.617-59.542,57.694-76.281
			c18.361-11.35,47.13-23.616,68.301-12.8c12.262,6.265,18.747,20.634,16.822,34.057c-2.649,18.469-15.217,32.433-30.501,41.896
			c-7.898,4.889-16.086,9.303-23.437,15.022c-7.598,5.91-11.824,13.06-13.956,22.415c-2.038,8.941-3.021,17.974-9.723,24.881
			c-3.285,3.385-7.182,5.958-11.017,8.595c-6.207,2.857-11.897,6.87-16.646,11.956c-1.684,1.804-3.26,3.755-4.741,5.802
			C55.197,389.195,45.844,386.813,38.727,382.614z M259.48,441.458c-0.43,12.35,0.797,25.66-7.62,35.845
			c-9.665,11.694-27.489,15.556-41.821,16.617c-19.388,1.435-38.929-1.584-58.012-4.719c-17.71-2.909-35.256-8.103-51.378-16.043
			c-14.004-6.896-28.823-16.115-35.349-30.994c-6.098-13.904-2.349-31.055,5.463-43.525c8.6-13.729,24.236-21.997,40.529-20.241
			c8.405,0.906,16.299,4.418,23.414,8.834c7.434,4.613,13.727,10.529,21.862,13.983c18.425,7.823,38.57,4.892,57.988,5.063
			c10.296,0.09,20.318,1.599,29.363,6.794C254.46,419.126,259.894,429.527,259.48,441.458z M468.377,401.125
			c-0.334,17.947-11.078,36.013-26.382,44.953c-19.309,11.28-42.74,17.032-64.45,21.667c-23.101,4.931-46.776,6.773-70.221,3.306
			c-5.22-0.772-10.902-1.446-15.603-4c-4.996-2.715-8.848-7.478-12.069-12.048c-5.25-7.448-8.812-15.949-9.358-25.122
			c-0.432-7.261,0.71-14.655,3.677-21.293c8.245-15.228,25.974-23.714,42.667-25.739c12.054-1.462,23.607,1.376,35.574,2.15
			c11.907,0.77,24.233,0.75,36.008-1.351c11.126-1.986,21.603-6.165,31.935-10.615c9.108-3.923,20.317-9.323,30.422-6.221
			C464.125,370.97,468.61,388.639,468.377,401.125z M493.984,397.412c-3.997,1.438-9.611,1.424-14.305,2.669
			c0.122-11.97-3.311-24.446-10.686-33.584c3.17-4.2,4.521-9.774,9.128-12.594c5.828-3.566,4.839,6.424,4.059,9.794
			c-0.978,4.227,3.221,7.045,6.921,5.32c1.313-0.612,7.639-2.677,8.141-0.118c0.404,2.058-4.82,5.821-6.027,7.298
			c-1.839,2.252-1.906,5.772,0.948,7.354c2.768,1.534,10.773,2.273,10.669,6.296C502.74,393.398,496.738,396.421,493.984,397.412z"
			/>
	</g>
</g>
<g>
</g>
<g>
</g>
<g>
</g>
<g>
</g>
<g>
</g>
<g>
</g>
<g>
</g>
<g>
</g>
<g>
</g>
<g>
</g>
<g>
</g>
<g>
</g>
<g>
</g>
<g>
</g>
<g>
</g>
</svg>
