<svg id="Layer_1" enable-background="new 0 0 511.94 511.94" height="512" viewBox="0 0 511.94 511.94" width="512" xmlns="http://www.w3.org/2000/svg"><g><g><path d="m267.883 237.733c13.268-.528 13.258-19.477 0-20h-.007c-13.268.529-13.251 19.478.007 20z"/><path d="m442.798 228.55c32.478-36.558 63.164-71.1 27.425-165.267-21.465-54.5-95.353-73.377-167.431-58.257-166.255 35.113-341.303 205.298-253.749 379.274 42.836 95.479 152.903 150.328 252.072 118.626 83.544-26.987 120.339-105.761 102.916-193.072-2.815-14.889-2.354-21.511 2.146-30.808 9.863-20.376 23.466-35.688 36.621-50.496zm-14.952-13.283c-8.165 9.19-16.993 19.127-25.149 30.66 1.127-7.914 2.718-16.165 4.976-24.783 4.716-18 16.404-33.333 28.779-49.567 10.622-13.726 22.622-30.16 29.231-45.925 3.955 42.572-15.201 64.135-37.837 89.615zm-118.114 214.134c-12.339-31.763-10.419-48.676-5.83-52.016 3.523-2.565 16.877-1.159 43.036 20.549-10.662 12.506-23.29 22.988-37.206 31.467zm97.305-251.608c-10.512-15.312-11.425-27.258-12.529-41.711-.917-12.007-1.958-25.617-8.73-42.251-2.408-5.914-.966-10.551-.05-11.011.748-.372 5.314-.317 14.039 6.781 7.687 6.254 20.273 19.438 37.352 46.935-9.32 14.361-20.395 27.158-30.082 41.257zm-99.865-153.253c46.681-11.807 115.415-1.232 138.03 33.447 11.124 16.192 11.978 36.067 2.715 58.323-12.642-19.129-24.558-33.297-35.528-42.223-16.979-13.814-28.746-12.597-35.632-9.143-11.519 5.781-15.604 21.441-9.502 36.428 14.368 37.012-1.437 57.586 28.659 94.924-3.14 6.243-5.758 12.797-7.588 19.78-.047.179-.093.359-.14.538-75.306-65.293-34.712-119.1-93.144-189.107 4.082-1.079 8.128-2.069 12.13-2.967zm-192.158 108.093c11.643 16.421 14.702 37.348 25.449 53.797 6.685 10.172 14.847 18.142 22.048 25.173 7.819 7.634 14.571 14.228 16.46 20.71 7.758 26.625 3.163 41.307-.06 42.944-.374.195-4.268-.358-10.375-8.285-13.42-17.417-27.779-29.663-40.448-40.468-20.309-17.321-36.445-31.083-41.177-59.345 8.426-12.193 17.869-23.711 28.103-34.526zm-42.398 57.709c9.003 22.816 25.38 36.784 42.494 51.38 12.506 10.667 25.438 21.696 37.583 37.458 9.942 12.905 19.303 16.037 26.045 16.037 25.284-1.458 29.445-33.694 19.434-68.498-3.359-11.527-12.263-20.221-21.689-29.425-6.791-6.631-13.812-13.487-19.307-21.848-3.865-5.882-6.753-13.468-9.812-21.5-4.329-11.372-9.142-24.015-17.999-35.558 6.727-6.279 13.716-12.286 20.911-18.014 19.089 42.285 53.436 65.138 82.969 98.188 3.701 4.118 10.027 4.438 14.122.756 4.108-3.691 4.447-10.014.756-14.122-9.667-10.761-19.425-20.209-28.862-29.346-21.909-21.214-41.004-39.704-52.537-67.844 33.952-24.11 71.346-42.374 107.128-54.197 65.811 72.821 14.191 128.58 109.677 205.022-3.389 21.087-3.54 39.654-3.678 56.544-.173 20.437-.287 37.717-6.034 54.703-15.073-16.233-25.671-22.901-34.47-28.436-13.432-8.45-22.306-14.033-41.993-57.865-2.262-5.039-8.181-7.289-13.219-5.025-5.038 2.263-7.288 8.181-5.025 13.219 21.134 47.056 32.073 55.581 49.587 66.6 9.341 5.876 19.87 12.5 36.573 31.969-1.992 3.893-4.143 7.651-6.441 11.277-19.584-16.562-49.063-34.007-66.699-20.603-15.472 11.262-15.451 39.337-.172 77.63-13.293 6.113-27.393 10.63-41.812 13.563-40.35-130.913-119.193-61.882-185.932-245.097 2.569-5.764 5.387-11.432 8.402-16.968zm-18.668 45.16c66.857 162.05 143.07 110.562 176.252 219.938-23.134 2.381-47.355.74-69.476-5.065-40.529-10.588-73.565-37.12-93.843-75.129-.068-.136-.139-.27-.213-.402-22.244-42.114-26.343-91.597-12.72-139.342zm240.999 248.399c-16.027 5.197-33.479 7.89-51.488 7.89-29.364-.001-60.201-7.163-88.713-22.31.307.082.615.164.923.245 45.539 11.89 96.33 8.161 139.488-10.121 42.521-18.018 74.633-49.073 91.982-88.495-7.044 62.36-48.752 98.706-92.192 112.791z"/></g></g></svg>