<?xml version="1.0" encoding="iso-8859-1"?>
<!-- Generator: Adobe Illustrator 16.0.0, SVG Export Plug-In . SVG Version: 6.00 Build 0)  -->
<!DOCTYPE svg PUBLIC "-//W3C//DTD SVG 1.1//EN" "http://www.w3.org/Graphics/SVG/1.1/DTD/svg11.dtd">
<svg version="1.1" id="Capa_1" xmlns="http://www.w3.org/2000/svg" xmlns:xlink="http://www.w3.org/1999/xlink" x="0px" y="0px"
	 width="472.049px" height="472.049px" viewBox="0 0 472.049 472.049" style="enable-background:new 0 0 472.049 472.049;"
	 xml:space="preserve">
<g>
	<path d="M420.657,125.218c0.419-21.546-10.665-39.514-32.312-52.204c-20.64-12.099-45.888-16.38-59.104-17.855l-95.363-10.648
		c-8.254-0.922-16.619-1.389-24.862-1.389c-32.813,0-64.194,7.349-90.751,21.253c-15.573,8.154-31.022,19.837-42.386,32.054
		c-15.752,16.934-23.805,34.958-23.287,52.122c0.362,12.021,6.19,22.261,11.333,31.295c3.015,5.297,5.864,10.3,7.18,14.838
		c3.898,13.435,3.657,29.116-0.718,46.607c-1.77,7.076-4.727,14.021-7.856,21.377c-3.291,7.732-6.694,15.729-8.906,24.409
		c-4.706,18.472,5.298,37.687,26.758,51.397c18.627,11.903,41.352,17.938,67.543,17.938c12.968,0,26.498-1.505,40.216-4.472
		c25.477-5.51,70.829-20.162,88.325-56.385c15.169-31.406,34.729-56.139,58.137-73.508c6.835-5.072,14.661-9.779,22.945-14.763
		c21.53-12.95,46.027-28.881,54.602-49.446C417.642,146.941,419.725,137.691,420.657,125.218z M395.449,128.059L395.449,128.059
		c-0.003,0.025-0.005,0.05-0.008,0.074c-0.594,5.506-2.332,11.324-5.311,17.783l-0.623,1.328
		c-7.582,16.205-25.682,27.092-44.844,38.619c-8.432,5.071-17.148,10.315-24.957,16.109c-26.686,19.801-48.808,47.629-65.751,82.711
		c-13.361,27.66-54.172,39.161-71.099,42.821c-11.984,2.593-23.737,3.907-34.931,3.907c-21.344,0-39.539-4.711-54.082-14.004
		c-8.787-5.614-18.248-15.311-15.993-24.16c1.738-6.824,4.625-13.607,7.683-20.791c3.371-7.922,6.857-16.113,9.106-25.1
		c5.462-21.838,5.622-41.905,0.474-59.643c-2.14-7.374-5.862-13.914-9.462-20.238c-4.061-7.134-7.896-13.872-8.071-19.681
		c-0.739-24.485,30.86-50.059,52.28-61.274c22.993-12.038,50.363-18.401,79.154-18.401c7.32,0,14.751,0.416,22.087,1.235
		l95.365,10.648c19.128,2.135,37.073,7.449,49.233,14.577C395.365,106.109,396.39,119.208,395.449,128.059z M463.639,203.566
		c0.025-0.32,0.039-0.641,0.039-0.961l0.049-79.736c0-0.059,0-0.117,0-0.175c-0.221-16.401-4.293-31.804-12.105-45.778
		C431.809,41.47,390.05,18.505,334.034,12.25L238.669,1.602C229.141,0.539,219.408,0,209.741,0
		c-32.997,0-65.569,6.251-94.196,18.078C83.673,31.247,57.611,50.597,38.081,75.594C9.292,112.442,0.9,150.231,15.056,179.272
		c2.086,4.28,4.324,8.143,6.489,11.879c5.295,9.142,9.479,16.362,9.248,25.584c-0.377,15.067-6.94,30.201-13.641,44.436
		l-0.129,0.276c-5.103,11.121-7.694,22.729-7.703,34.514l0.007,72.745c-0.077,28.757,13.854,54.106,40.288,73.308
		c20.622,14.98,48.377,25.498,76.149,28.855c0.045,0.004,0.091,0.012,0.136,0.016l0.478,0.053
		c7.195,0.736,14.671,1.111,22.221,1.111c0.003,0,0.004,0,0.008,0c29.748,0,60.625-5.863,86.94-16.51
		c30.398-12.295,54.735-30.812,70.381-53.551c0.057-0.082,0.111-0.166,0.167-0.25l39.483-60.434
		c7.141-4.921,30.723-21.609,55.007-43.587C440.365,261.715,461.58,230.038,463.639,203.566z M329.521,321.995
		c-1.396,0.935-2.59,2.144-3.51,3.55l-40.763,62.393c-30.115,43.629-92.417,59.111-136.65,59.111
		c-6.702,0-13.321-0.332-19.584-0.973l-0.313-0.035c-38.032-4.617-94.504-28.992-94.375-77.303l-0.007-72.771
		c0.006-8.157,1.83-16.263,5.384-24.008l0.078-0.166c7.481-15.892,15.505-34.515,16.003-54.434
		c0.407-16.274-6.507-28.21-12.608-38.741c-2.033-3.51-3.954-6.825-5.648-10.301c-13.928-28.574,9.523-63.6,20.252-77.333
		C90.062,49.668,146.87,25,209.74,25c8.745,0,17.545,0.487,26.155,1.447l95.364,10.648c47.775,5.334,82.771,23.808,98.54,52.018
		c5.748,10.282,8.751,21.665,8.927,33.833l-0.05,79.125C434.985,242.898,358.709,302.434,329.521,321.995z M323.098,125.712
		c4.354,5.356,3.544,13.229-1.812,17.584c-16.585,13.486-47.664,27.512-85.135,27.512c-2.609,0-5.252-0.078-7.919-0.218
		c-22.539,60.436-53.712,109.064-55.085,111.193c-2.391,3.705-6.411,5.725-10.516,5.725c-2.321,0-4.67-0.646-6.765-1.998
		c-5.801-3.742-7.469-11.479-3.727-17.281c0.402-0.623,29.329-45.826,50.764-101.364c-13.752-3.535-25.941-9.456-35.796-17.483
		c-13.381-10.899-21.055-24.925-21.055-38.48c0-6.903,5.597-12.5,12.5-12.5c6.903,0,12.5,5.597,12.5,12.5
		c0,11.778,17.521,30.162,50.418,34.043c35.083,4.139,67.495-7.586,84.044-21.044C310.869,119.545,318.741,120.357,323.098,125.712z
		"/>
</g>
<g>
</g>
<g>
</g>
<g>
</g>
<g>
</g>
<g>
</g>
<g>
</g>
<g>
</g>
<g>
</g>
<g>
</g>
<g>
</g>
<g>
</g>
<g>
</g>
<g>
</g>
<g>
</g>
<g>
</g>
</svg>
