<svg height="482pt" viewBox="-34 0 482 482.11385" width="482pt" xmlns="http://www.w3.org/2000/svg"><path d="m7.652344 172.832031c-11.398438 45.734375-9.945313 93.730469 4.199218 138.691407 4.410157 13.980468 18.34375 48.582031 31.929688 81.4375l-.222656.542968.550781.234375c6.671875 16.144531 13.253906 31.832031 18.542969 44.382813 10.925781 25.863281 35.933594 42.980468 64 43.800781v.191406h41.105468c12.351563.03125 22.695313-9.351562 23.863282-21.648437l.511718-3.304688c6.570313-42.777344 8.566407-86.132812 5.960938-129.335937-1.242188-20.269531-3.511719-40.703125-6.671875-60-.367187-4.882813.910156-9.75 3.625-13.832031l1.390625-2.09375c3.144531-4.691407 7.984375-7.976563 13.503906-9.167969.761719 3.925781.691406 7.972656-.207031 11.871093-12.785156 65.734376-12.488281 133.34375.878906 198.960938l1.777344 8.726562c2.023437 11.46875 11.992187 19.828126 23.636719 19.824219h63.921875c19.386719.035157 36.878906-11.628906 44.304687-29.535156l50.503906-121.207031c37.832032-90.804688 20.769532-195.21875-44-269.257813l-16.648437-19.023437c-22.789063-26.042969-55.714844-40.980469-90.320313-40.976563h-39.199218c-30.222656-5.796875-61.511719.441407-87.199219 17.382813l-4.242187 2.792968c-27.320313 18-50.835938 41.203126-69.199219 68.28125l-.382813.144532.109375.261718c-16.367187 24.203126-28.359375 51.089844-35.421875 79.441407zm231.710937-139.519531 5.601563 3.746094c18.128906 12.140625 34.464844 26.769531 48.519531 43.457031-33.28125-10.683594-67.925781-16.511719-102.871094-17.296875v-45.105469h12.527344c12.945313 2.679688 25.246094 7.839844 36.222656 15.199219zm69.53125 348c-28.832031 11.273438-59.042969 18.632812-89.824219 21.882812-.863281-8.210937-1.527343-16.429687-1.984374-24.65625 35.507812-3.335937 70.328124-11.921874 103.320312-25.472656-3.414062 8.507813-7.25 17.921875-11.511719 28.246094zm19.878907-49.367188c-35.398438 16.453126-73.324219 26.792969-112.175782 30.578126-.214844-9.601563-.199218-19.152344.144532-28.730469 43.359374-4.949219 85.464843-17.71875 124.269531-37.6875-.878907 3.3125-1.703125 6.632812-2.726563 9.914062-1.65625 5.222657-4.886718 14.039063-9.511718 25.941407zm-118.769532-118.167968c-5.636718-4.503906-12.296875-7.550782-19.390625-8.871094v-58.511719c52.96875 1.8125 105 14.476563 152.878907 37.199219 6.660156 30.28125 7.359374 61.570312 2.066406 92.121094l-9.457032 4.957031c-36.917968 19.34375-77.03125 31.84375-118.402343 36.898437 1.347656-20.039062 3.910156-39.976562 7.675781-59.703124 3.71875-16.425782-2.246094-33.535157-15.371094-44.089844zm-19.390625-83.390625v-51.160157c41.125.976563 81.75 9.226563 120 24.367188 12.15625 18.671875 21.585938 38.984375 28 60.320312-46.765625-20.441406-96.988281-31.816406-148-33.527343zm-16-.226563c-50.101562.3125-99.703125 9.953125-146.273437 28.433594 6.257812-19.351562 15.015625-37.800781 26.058594-54.878906 38.308593-15.203125 79.011718-23.492188 120.214843-24.488282zm-151.742187 48c47.90625-20.785156 99.519531-31.671875 151.742187-32v58.746094c-11.710937 2.171875-22.03125 9.015625-28.59375 18.953125-6.5625 9.941406-8.796875 22.121094-6.191406 33.742187 3.886719 20.328126 6.5 40.875 7.824219 61.527344-42.265625-3.273437-83.566406-14.300781-121.839844-32.527344l-4.40625-2.105468c-7.480469-35.105469-6.980469-71.445313 1.464844-106.335938zm123.285156 225.050782c-30.800781-3.25-61.027344-10.613282-89.871094-21.898438-3.953125-9.597656-7.871094-19.199219-11.527344-28.246094 33.007813 13.5625 67.847657 22.152344 103.375 25.496094-.449218 8.234375-1.105468 16.449219-1.976562 24.648438zm-119.679688-98.808594c38.554688 17.347656 79.855469 27.785156 122.023438 30.832031.304688 9.101563.320312 18.207031.121094 27.3125-38.878906-3.792969-76.835938-14.144531-112.257813-30.625-4.199219-10.777344-7.519531-19.710937-9.246093-25.207031-.238282-.761719-.40625-1.546875-.640626-2.3125zm50.929688 127.503906c-3.753906-8.894531-8.167969-19.402344-12.800781-30.488281 25.75 8.859375 52.417969 14.78125 79.496093 17.664062-1.441406 10.449219-3.089843 20.886719-5.199218 31.289063l-1.839844 9.125c-.707031 3.878906-4.109375 6.675781-8.050781 6.617187-22.527344.054688-42.882813-13.433593-51.605469-34.207031zm105.671875-188.914062-1.394531 2.097656c-4.785156 7.261718-6.96875 15.9375-6.183594 24.601562 3.199219 19.46875 5.378906 39.359375 6.585938 59.101563 2.53125 42.066406.585937 84.28125-5.808594 125.9375l-.578125 3.953125c-.296875 4.191406-3.792969 7.441406-8 7.429687h-15.894531c.425781-1.179687.757812-2.394531.984374-3.632812l1.824219-8.925781c13.390625-65.722657 13.6875-133.4375.871094-199.273438-2.363281-10.425781 1.417969-21.292969 9.746094-28 10.144531-8.199219 24.636719-8.199219 34.78125 0 .753906.628906 1.472656 1.296875 2.152343 2-7.796874 2.6875-14.5 7.855469-19.085937 14.710938zm52.960937 223.121093c-3.957031-.015625-7.316406-2.90625-7.921874-6.816406l-1.808594-8.933594c-2.113282-10.402343-3.757813-20.800781-5.199219-31.289062 27.070313-2.882813 53.726563-8.804688 79.472656-17.65625-4 9.601562-8.226562 19.710937-12.753906 30.464843-8.71875 20.78125-29.078125 34.28125-51.613281 34.230469v8zm86.023438-412.488281 16.648438 19.03125c60.757812 69.441406 76.765624 167.382812 41.277343 252.554688l-50.503906 121.214843c-4.949219 11.9375-16.613281 19.710938-29.535156 19.6875h-18.671875c9.328125-7.414062 16.660156-17.039062 21.335937-28 5.917969-14.078125 12.304688-29.335937 18.503907-44.351562l.582031-.238281-.238281-.578126c14.398437-34.839843 27.753906-68.199218 32.105468-82.136718 13.988282-44.742188 15.371094-92.472656 4-137.949219l-.546875-2.1875c-7.097656-28.375-19.117187-55.289063-35.511719-79.519531l.175782-.421875-.605469-.234375c-17.914063-26.347656-40.730469-49.007813-67.199219-66.742188l-5.601562-3.742187c-.953125-.640625-1.945313-1.195313-2.902344-1.792969 29.417969.421875 57.285156 13.289062 76.6875 35.40625zm-200.105469-17.976562 4.230469-2.789063c14.476562-9.542969 31.140625-15.25 48.425781-16.585937v46.945312c-35.03125.792969-69.765625 6.648438-103.121093 17.382812 14.558593-17.347656 31.558593-32.488281 50.464843-44.953124zm0 0"/></svg>