<?xml version="1.0" encoding="iso-8859-1"?>
<!-- Generator: Adobe Illustrator 19.0.0, SVG Export Plug-In . SVG Version: 6.00 Build 0)  -->
<svg version="1.1" id="Capa_1" xmlns="http://www.w3.org/2000/svg" xmlns:xlink="http://www.w3.org/1999/xlink" x="0px" y="0px"
	 viewBox="0 0 487.226 487.226" style="enable-background:new 0 0 487.226 487.226;" xml:space="preserve">
<g>
	<g>
		<path d="M462.522,310.425l-23.84-26.408c-21.573-23.903-36.792-52.846-44.256-84.168l-20.48-86.072
			c-0.559-2.226-2.056-4.099-4.104-5.136l21.672-69.376c0.884-2.698,1.327-5.521,1.312-8.36
			c-0.067-15.137-12.392-27.354-27.529-27.287c-11.933,0.053-22.461,7.82-26.031,19.207l-26.44,84.8h-58.24l21.44-68.64
			c0.778-2.596,1.182-5.29,1.2-8C277.218,15.853,264.943,3.592,249.811,3.6c-11.978,0.007-22.563,7.793-26.137,19.225l-26.488,84.8
			h-51l21.352-68.36c0.876-2.699,1.311-5.522,1.288-8.36c-0.067-15.137-12.392-27.354-27.529-27.287
			c-11.933,0.053-22.461,7.82-26.031,19.207l-26.44,84.8h-9.2c-3.375,0-6.387,2.119-7.528,5.296l-60.8,169.448
			c-13.364,37.154-14.912,77.532-4.432,115.6c6.11,22.302,19.464,41.938,37.96,55.816l14.152,10.64
			c16.628,12.442,36.832,19.176,57.6,19.2h272.8c23.635,0.041,46.443-8.697,64-24.52l1.176-0.976
			c20.783-18.805,32.65-45.517,32.672-73.544v-9.84C487.212,350.991,478.413,328.081,462.522,310.425z M354.53,27.625
			c1.879-6.014,8.278-9.365,14.292-7.486c4.719,1.475,7.951,5.822,8.004,10.766c0.019,1.172-0.154,2.34-0.512,3.456l-22.888,73.264
			h-23.8L354.53,27.625z M238.93,27.625c1.519-4.726,5.892-7.949,10.856-8c6.294-0.018,11.414,5.066,11.44,11.36
			c-0.017,1.144-0.192,2.28-0.52,3.376l-22.88,73.264h-23.88L238.93,27.625z M130.53,27.625c1.879-6.014,8.278-9.365,14.292-7.486
			c4.719,1.475,7.951,5.822,8.004,10.766c0.019,1.172-0.153,2.34-0.512,3.456l-22.888,73.264h-23.8L130.53,27.625z M177.786,467.625
			c-17.307-0.019-34.143-5.631-48-16l-14.24-10.64c-15.696-11.859-27.001-28.602-32.136-47.592
			c-3.411-12.268-5.434-24.88-6.032-37.6l-16,0.8c0.67,14.003,2.908,27.887,6.672,41.392c6.112,22.284,19.436,41.915,37.888,55.824
			l14.24,10.616c1.504,1.128,3.08,2.168,4.648,3.2h-8.24c-17.307-0.017-34.144-5.629-48-16l-14.16-10.648
			c-15.722-11.818-27.051-28.544-32.192-47.528c-9.541-34.812-8.096-71.72,4.136-105.68l58.888-164.144h98.4l-56.96,158.744
			c-13.353,37.157-14.898,77.532-4.424,115.6c6.114,22.298,19.464,41.932,37.952,55.816l14.2,10.64
			c1.512,1.128,3.088,2.168,4.656,3.2H177.786z M232.026,467.625c-17.307-0.018-34.144-5.631-48-16l-14.168-10.648
			c-15.737-11.811-27.081-28.538-32.232-47.528c-9.536-34.812-8.095-71.718,4.128-105.68l58.944-164.144h91.56l-56.96,158.744
			c-13.364,37.154-14.912,77.532-4.432,115.6c6.11,22.302,19.464,41.938,37.96,55.816l14.152,10.64
			c1.504,1.128,3.08,2.168,4.648,3.2H232.026z M471.226,384.585c0.024,23.375-9.801,45.679-27.064,61.44l-1.184,0.984
			c-14.681,13.293-33.787,20.643-53.592,20.616h-48.8c-17.307-0.017-34.144-5.629-48-16l-14.16-10.648
			c-15.722-11.818-27.051-28.544-32.192-47.528c-9.541-34.812-8.096-71.72,4.136-105.68l58.888-164.144h50.608l19.016,79.928
			c8.081,33.936,24.562,65.296,47.928,91.2l23.816,26.4c13.244,14.713,20.581,33.804,20.6,53.6V384.585z"/>
	</g>
</g>
<g>
	<g>
		<rect x="52.036" y="237.288" transform="matrix(0.3372 -0.9414 0.9414 0.3372 -168.4415 251.327)" width="84.464" height="16"/>
	</g>
</g>
<g>
	<g>
		<polygon points="118.098,155.241 110.026,177.609 125.066,183.081 133.162,160.649 		"/>
	</g>
</g>
<g>
	<g>
		<path d="M207.314,422.145l-12.976,9.36c6.134,8.509,13.537,16.026,21.952,22.288l9.552-12.8
			C218.737,435.697,212.488,429.34,207.314,422.145z"/>
	</g>
</g>
<g>
	<g>
		<path d="M197.794,287.761l-15.064-5.392c-13.339,37.088-14.904,77.39-4.48,115.4l7.776-1.904l7.64-2.4
			C184.127,358.646,185.568,321.731,197.794,287.761z"/>
	</g>
</g>
<g>
	<g>
		<path d="M438.378,331.857l-4.576-5.032c-7.734-8.556-17.601-14.906-28.592-18.4l-7.92-2.472
			c-13.54-4.215-27.643-6.349-41.824-6.328h-50.64c-7.408-0.015-14.714,1.726-21.32,5.08c-16.99,8.275-27.801,25.486-27.88,44.384
			c0.2,13.936,2.206,27.788,5.968,41.208c4.255,15.154,13.405,28.473,26.024,37.88l14.184,10.648
			c11.07,8.325,24.549,12.818,38.4,12.8h48.96c15.81,0.015,31.057-5.867,42.76-16.496l0.84-0.8
			c14.095-12.744,22.144-30.854,22.16-49.856v-9.728C454.899,358.896,449.005,343.616,438.378,331.857z M438.906,384.513
			c-0.014,14.494-6.161,28.305-16.92,38.016l-0.848,0.8c-8.762,7.947-20.171,12.343-32,12.328h-48.952
			c-10.387,0.007-20.495-3.362-28.8-9.6l-14.16-10.64c-9.8-7.294-16.906-17.63-20.208-29.392
			c-3.395-12.096-5.207-24.582-5.392-37.144c0.172-12.891,7.676-24.556,19.336-30.056c4.308-2.136,9.056-3.232,13.864-3.2h50.64
			c12.564-0.017,25.058,1.871,37.056,5.6l7.88,2.472c8.273,2.622,15.702,7.392,21.528,13.824l4.544,5.024
			c7.988,8.824,12.418,20.298,12.432,32.2V384.513z"/>
	</g>
</g>
<g>
	<g>
		<path d="M376.298,246.585c-5.645-12.702-10.119-25.893-13.368-39.408l-12.8-53.784c-1.888-8.107-9.14-13.824-17.464-13.768
			c-7.527,0.054-14.227,4.783-16.8,11.856l-33.6,93.6c-3.683,10.287-0.704,21.781,7.512,28.984l3.36,2.928
			c4.843,4.266,11.074,6.624,17.528,6.632h41.2c14.693-0.048,26.592-11.947,26.64-26.64
			C378.517,253.401,377.764,249.856,376.298,246.585z M359.282,264.513c-1.96,1.982-4.628,3.102-7.416,3.112h-41.2
			c-2.591-0.01-5.088-0.972-7.016-2.704l-3.352-2.88c-3.264-2.882-4.443-7.461-2.976-11.56v0l33.6-93.536
			c0.249-0.76,0.944-1.286,1.744-1.32c0.901-0.037,1.699,0.576,1.896,1.456l12.8,53.848c3.474,14.477,8.268,28.606,14.32,42.208
			c0.532,1.213,0.805,2.524,0.8,3.848C362.434,259.815,361.286,262.515,359.282,264.513z"/>
	</g>
</g>
<g>
</g>
<g>
</g>
<g>
</g>
<g>
</g>
<g>
</g>
<g>
</g>
<g>
</g>
<g>
</g>
<g>
</g>
<g>
</g>
<g>
</g>
<g>
</g>
<g>
</g>
<g>
</g>
<g>
</g>
</svg>
