<svg id="Capa_1" enable-background="new 0 0 512 512" height="512" viewBox="0 0 512 512" width="512" xmlns="http://www.w3.org/2000/svg"><g><path d="m352.84 0c-4.143 0-7.5 3.357-7.5 7.5v25.422h-17.281v-25.422c0-4.143-3.357-7.5-7.5-7.5s-7.5 3.357-7.5 7.5v25.422h-17.279v-25.422c0-4.143-3.357-7.5-7.5-7.5s-7.5 3.357-7.5 7.5v25.422h-17.28v-25.422c0-4.143-3.357-7.5-7.5-7.5s-7.5 3.357-7.5 7.5v25.422h-17.279v-25.422c0-4.143-3.357-7.5-7.5-7.5s-7.5 3.357-7.5 7.5v25.422h-17.279v-25.422c0-4.143-3.357-7.5-7.5-7.5s-7.5 3.357-7.5 7.5v25.422h-17.282v-25.422c0-4.143-3.357-7.5-7.5-7.5s-7.5 3.357-7.5 7.5v71.04c0 9.44 7.68 17.12 17.12 17.12h3.3c10.735 0 19.716 7.648 21.782 17.781h-20.344c-9.681 0-17.557 7.876-17.557 17.558v18.127c0 4.143 3.357 7.5 7.5 7.5s7.5-3.357 7.5-7.5v-18.127c0-1.41 1.146-2.558 2.557-2.558h164.965c1.41 0 2.557 1.147 2.557 2.558v74.461c0 14.805-4.826 29.194-9.936 44.428-4.593 13.693-9.627 28.74-11.966 46.22-17.858 16.468-40.173 25.529-63.138 25.529s-45.281-9.062-63.138-25.53c-2.338-17.479-7.373-32.526-11.965-46.219-5.109-15.233-9.936-29.623-9.936-44.428v-21.334c0-4.143-3.357-7.5-7.5-7.5s-7.5 3.357-7.5 7.5v21.334c0 17.254 5.204 32.771 10.714 49.197 6.157 18.356 12.523 37.338 12.523 61.18 0 31.954-4.128 50.531-8.12 68.496-3.485 15.685-6.777 30.499-6.777 52.05 0 20.607 8.781 39.566 24.726 53.385 16.782 14.544 39.94 22.232 66.973 22.232 27.032 0 50.191-7.688 66.974-22.232 15.943-13.818 24.725-32.777 24.725-53.385 0-9.071-.594-17.703-1.816-26.389-.577-4.103-4.375-6.952-8.472-6.382-4.102.577-6.959 4.37-6.382 8.472 1.124 7.985 1.67 15.934 1.67 24.299 0 16.19-6.942 31.124-19.549 42.05-14.016 12.146-33.778 18.567-57.15 18.567s-43.134-6.421-57.149-18.567c-12.607-10.926-19.55-25.859-19.55-42.05 0-19.904 2.976-33.293 6.42-48.796 3.947-17.763 8.416-37.887 8.475-71.089 18.392 13.077 39.815 20.139 61.804 20.139s43.414-7.062 61.806-20.139c.049 27.686 3.118 46.056 6.437 61.772.854 4.045 4.826 6.646 8.888 5.788 4.053-.855 6.645-4.835 5.788-8.888-3.177-15.047-6.117-32.648-6.117-59.333 0-23.842 6.366-42.823 12.523-61.18 5.51-16.427 10.714-31.943 10.714-49.197v-74.461c0-9.682-7.876-17.558-17.557-17.558h-20.344c2.066-10.133 11.047-17.781 21.782-17.781h3.3c9.44 0 17.12-7.68 17.12-17.12v-71.04c0-4.143-3.358-7.5-7.5-7.5zm-7.5 78.54c0 1.169-.951 2.12-2.12 2.12h-3.3c-19.022 0-34.748 14.344-36.955 32.781h-93.931c-2.207-18.438-17.932-32.781-36.955-32.781h-3.3c-1.169 0-2.12-.951-2.12-2.12v-30.618h178.68v30.618z"/><path d="m284.134 246.952v-20.411c0-15.513-12.621-28.134-28.134-28.134-15.514 0-28.135 12.621-28.135 28.134v20.411c0 15.513 12.621 28.134 28.135 28.134 15.513 0 28.134-12.621 28.134-28.134zm-41.269 0v-20.411c0-7.242 5.893-13.134 13.135-13.134s13.134 5.892 13.134 13.134v20.411c0 7.242-5.892 13.134-13.134 13.134s-13.135-5.892-13.135-13.134z"/></g></svg>