<?xml version="1.0" encoding="iso-8859-1"?>
<!-- Generator: Adobe Illustrator 19.0.0, SVG Export Plug-In . SVG Version: 6.00 Build 0)  -->
<svg version="1.1" id="Capa_1" xmlns="http://www.w3.org/2000/svg" xmlns:xlink="http://www.w3.org/1999/xlink" x="0px" y="0px"
	 viewBox="0 0 480 480" style="enable-background:new 0 0 480 480;" xml:space="preserve">
<g>
	<g>
		<path d="M312,168c-4.418,0-8,3.582-8,8v248c0,4.418,3.582,8,8,8s8-3.582,8-8V176C320,171.582,316.418,168,312,168z"/>
	</g>
</g>
<g>
	<g>
		<path d="M248,72c-4.418,0-8,3.582-8,8s3.582,8,8,8c30.913,0.035,55.965,25.087,56,56c0,4.418,3.582,8,8,8s8-3.582,8-8
			C319.956,104.254,287.746,72.044,248,72z"/>
	</g>
</g>
<g>
	<g>
		<path d="M352,432V152c0.037-45.126-29.055-85.118-72-98.976V40c0-22.091-17.909-40-40-40c-22.091,0-40,17.909-40,40v13.024
			c-42.945,13.858-72.037,53.85-72,98.976v280c-13.224,0.074-23.926,10.776-24,24c0,13.255,10.745,24,24,24h224
			c13.224-0.074,23.926-10.776,24-24C376,442.745,365.255,432,352,432z M357.552,461.696c-1.459,1.493-3.465,2.325-5.552,2.304H128
			c-4.418,0-8-3.582-8-8c-0.004-2.157,0.885-4.219,2.456-5.696c1.455-1.495,3.458-2.328,5.544-2.304h8c4.418,0,8-3.582,8-8V152
			c-0.042-40.14,27.118-75.208,65.992-85.208c3.537-0.909,6.01-4.099,6.008-7.752V40c0-13.255,10.745-24,24-24s24,10.745,24,24
			v19.04c-0.002,3.653,2.471,6.843,6.008,7.752c38.874,10,66.034,45.068,65.992,85.208v288c0,4.418,3.582,8,8,8h8
			c4.418,0,8,3.582,8,8C360.003,458.155,359.118,460.215,357.552,461.696z"/>
	</g>
</g>
<g>
</g>
<g>
</g>
<g>
</g>
<g>
</g>
<g>
</g>
<g>
</g>
<g>
</g>
<g>
</g>
<g>
</g>
<g>
</g>
<g>
</g>
<g>
</g>
<g>
</g>
<g>
</g>
<g>
</g>
</svg>
