<?xml version="1.0" encoding="iso-8859-1"?>
<!-- Generator: Adobe Illustrator 19.0.0, SVG Export Plug-In . SVG Version: 6.00 Build 0)  -->
<svg version="1.1" id="Capa_1" xmlns="http://www.w3.org/2000/svg" xmlns:xlink="http://www.w3.org/1999/xlink" x="0px" y="0px"
	 viewBox="0 0 512 512" style="enable-background:new 0 0 512 512;" xml:space="preserve">
<g>
	<g>
		<path d="M476.515,167.287v-60.832H35.485v60.832H0v177.426h35.485v60.832h441.03v-60.832H512V167.287H476.515z M496.792,329.505
			h-35.485v60.832H50.693v-60.832H15.208v-147.01h35.485v-60.832h410.614v60.832h35.485V329.505z"/>
	</g>
</g>
<g>
	<g>
		<path d="M425.822,217.98v15.208h-14.233l-23.787-23.787l-23.787,23.787h-14.233V217.98h-45.624v15.208h-17.754
			c-7.128-9.478-18.409-15.208-30.405-15.208c-11.995,0-23.275,5.73-30.406,15.208h-17.753V217.98h-45.624v15.208h-14.233
			l-23.787-23.787l-23.787,23.787H86.178V217.98H40.554v76.04h45.624v-15.208h14.233l23.787,23.787l23.787-23.787h14.233v15.208
			h45.624v-15.208h17.753c7.13,9.478,18.411,15.208,30.406,15.208c11.996,0,23.276-5.73,30.405-15.208h17.754v15.208h45.624v-15.208
			h14.233l23.787,23.787l23.787-23.787h14.233v15.208h45.624v-76.04H425.822z M456.238,278.812H441.03v-15.208h-35.74
			l-17.488,17.488l-17.488-17.488h-35.74v15.208h-15.208v-15.208h-41.415l-2.196,3.796c-4.074,7.039-11.643,11.412-19.755,11.412
			c-8.111,0-15.681-4.373-19.755-11.413l-2.197-3.795h-41.414v15.208h-15.208v-15.208h-35.74l-17.488,17.488l-17.488-17.488H70.97
			v15.208H55.762v-45.624H70.97v15.208h35.74l17.488-17.488l17.488,17.488h35.74v-15.208h15.208v15.208h41.414l2.197-3.795
			c4.074-7.04,11.644-11.413,19.755-11.413c8.112,0,15.681,4.373,19.755,11.412l2.196,3.796h41.415v-15.208h15.208v15.208h35.74
			l17.488-17.488l17.488,17.488h35.74v-15.208h15.208V278.812z"/>
	</g>
</g>
<g>
	<g>
		<rect x="248.396" y="349.782" width="15.208" height="15.208"/>
	</g>
</g>
<g>
	<g>
		<rect x="217.98" y="349.782" width="15.208" height="15.208"/>
	</g>
</g>
<g>
	<g>
		<rect x="278.812" y="349.782" width="15.208" height="15.208"/>
	</g>
</g>
<g>
	<g>
		<rect x="278.812" y="147.01" width="15.208" height="15.208"/>
	</g>
</g>
<g>
	<g>
		<rect x="248.396" y="147.01" width="15.208" height="15.208"/>
	</g>
</g>
<g>
	<g>
		<rect x="217.98" y="147.01" width="15.208" height="15.208"/>
	</g>
</g>
<g>
</g>
<g>
</g>
<g>
</g>
<g>
</g>
<g>
</g>
<g>
</g>
<g>
</g>
<g>
</g>
<g>
</g>
<g>
</g>
<g>
</g>
<g>
</g>
<g>
</g>
<g>
</g>
<g>
</g>
</svg>
