<svg id="Capa_1" enable-background="new 0 0 512.003 512.003" height="512" viewBox="0 0 512.003 512.003" width="512" xmlns="http://www.w3.org/2000/svg"><g><path d="m100.873 511.599c-3.342 0-6.706-.439-10.021-1.328-9.926-2.659-18.223-9.025-23.361-17.926-10.607-18.372-4.29-41.949 14.083-52.557l186.465-107.656c-3.031-5.238-4.983-11.066-6.892-16.768-2.458-7.34-4.779-14.272-9.017-18.511-4.238-4.238-11.171-6.56-18.511-9.018-8.662-2.9-17.62-5.899-24.354-12.634s-9.734-15.692-12.635-24.355c-2.458-7.34-4.779-14.272-9.017-18.511-4.239-4.239-11.173-6.561-18.514-9.019-.082-.027-.165-.055-.247-.083l-142.013 81.994c-3.586 2.07-8.173.843-10.245-2.745-2.071-3.587-.842-8.174 2.745-10.245l403.591-233.013c11.209-6.472 15.064-20.857 8.592-32.066-3.135-5.43-8.197-9.314-14.253-10.938-6.057-1.621-12.383-.791-17.813 2.346-5.985 3.455-19.399 20.302-31.234 35.165-14.976 18.808-29.122 36.571-38.777 42.146-8.248 4.762-17.677 5.341-26.795 5.9-7.726.475-15.023.922-20.214 3.919-5.19 2.997-9.227 9.093-13.5 15.546-5.044 7.617-10.26 15.493-18.508 20.255s-17.676 5.341-26.794 5.9c-7.726.475-15.023.922-20.214 3.919-5.19 2.997-9.227 9.093-13.5 15.546-5.044 7.617-10.26 15.493-18.508 20.255s-17.676 5.341-26.794 5.9c-7.726.475-15.023.922-20.214 3.919-5.19 2.997-9.227 9.093-13.5 15.546-5.044 7.617-10.26 15.493-18.508 20.255-14.765 8.524-76.308 22.255-83.277 23.793-4.044.895-8.047-1.664-8.939-5.708-.893-4.045 1.663-8.048 5.708-8.94 26.461-5.839 69.339-16.552 79.009-22.135 5.191-2.997 9.228-9.093 13.501-15.547 5.043-7.616 10.259-15.492 18.507-20.254 4.047-2.337 8.378-3.666 12.818-4.48-1.753-4.646-3.747-8.768-6.625-11.646-7.898-7.899-46.542-29.344-70.588-41.83-3.676-1.909-5.108-6.437-3.2-10.112s6.437-5.108 10.112-3.2c6.334 3.289 62.227 32.479 74.282 44.536 5.802 5.801 8.832 13.252 11.414 20.744 7.195-.451 13.923-1.019 18.795-3.831 1.569-.905 3.032-2.094 4.428-3.49l-89.805-89.802c-2.929-2.93-2.929-7.678 0-10.607 2.929-2.928 7.678-2.928 10.606 0l88.303 88.304c5.033-7.601 10.244-15.453 18.474-20.204 8.248-4.762 17.677-5.341 26.795-5.9 7.726-.475 15.023-.922 20.213-3.919 5.191-2.997 9.228-9.093 13.501-15.547 5.043-7.616 10.259-15.492 18.507-20.254s17.677-5.341 26.795-5.9c7.726-.475 15.023-.922 20.214-3.919 7.192-4.152 22.357-23.197 34.542-38.5 16.813-21.114 27.589-34.263 35.469-38.812 8.899-5.139 19.269-6.505 29.195-3.844 9.926 2.659 18.223 9.025 23.361 17.926 10.607 18.372 4.29 41.949-14.083 52.557l-244.708 141.282c4.552 2.034 8.852 4.585 12.499 8.232 6.734 6.735 9.734 15.692 12.635 24.354 2.458 7.34 4.779 14.272 9.017 18.511s11.171 6.56 18.51 9.018c8.663 2.9 17.62 5.899 24.355 12.634 6.734 6.735 9.734 15.692 12.635 24.354 2.458 7.34 4.779 14.273 9.017 18.511s11.171 6.561 18.511 9.018c8.663 2.901 17.62 5.9 24.354 12.635 7.884 7.884 16.95 28.705 26.548 50.748 7.584 17.419 16.181 37.163 21.068 42.049 4.434 4.435 10.329 6.876 16.599 6.876s12.165-2.441 16.599-6.875 6.875-10.329 6.875-16.6c0-6.27-2.441-12.165-6.875-16.598l-189.395-189.395c-2.929-2.93-2.929-7.678 0-10.607 2.929-2.928 7.678-2.928 10.606 0l91.386 91.386 164.5-94.973c3.587-2.07 8.174-.843 10.245 2.745 2.071 3.587.842 8.174-2.745 10.245l-161.019 92.964 11.044 11.044c7.729-3.748 16.343-4.276 24.697-4.789 7.726-.475 15.023-.922 20.214-3.919 5.19-2.997 9.227-9.093 13.5-15.546 5.044-7.617 10.26-15.493 18.508-20.255 14.765-8.524 76.309-22.254 83.277-23.792 4.041-.895 8.047 1.664 8.939 5.708.893 4.045-1.663 8.048-5.708 8.94-26.461 5.838-69.339 16.551-79.009 22.134-5.191 2.997-9.228 9.093-13.501 15.547-5.043 7.616-10.259 15.492-18.507 20.254s-17.677 5.341-26.795 5.9c-4.949.304-9.722.597-13.877 1.556l64.245 64.245c7.267 7.267 11.269 16.929 11.269 27.205 0 10.277-4.002 19.939-11.269 27.206s-16.928 11.269-27.205 11.269-19.939-4.002-27.206-11.27c-6.434-6.433-13.44-21.922-24.214-46.667-7.81-17.936-17.529-40.257-23.401-46.129-4.238-4.238-11.171-6.561-18.511-9.018-6.834-2.289-13.852-4.639-19.817-8.836l-189.245 109.262c-11.209 6.472-15.064 20.857-8.592 32.066 3.135 5.43 8.197 9.314 14.253 10.938 6.055 1.619 12.381.79 17.813-2.346 5.985-3.455 19.399-20.302 31.234-35.165 14.976-18.808 29.122-36.571 38.777-42.146 8.248-4.762 17.677-5.341 26.795-5.9 7.726-.475 15.023-.922 20.214-3.919 5.19-2.997 9.227-9.093 13.5-15.546 5.044-7.617 10.26-15.493 18.508-20.255s17.676-5.34 26.793-5.9c3.955-.242 7.69-.472 11.169-1.032 4.089-.66 7.939 2.122 8.598 6.211s-2.122 7.938-6.211 8.598c-4.209.679-8.493.941-12.636 1.196-7.726.474-15.023.922-20.213 3.918-5.191 2.997-9.228 9.093-13.501 15.547-5.043 7.616-10.259 15.492-18.507 20.254s-17.677 5.341-26.795 5.9c-7.726.475-15.023.922-20.214 3.919-7.192 4.152-22.357 23.197-34.542 38.5-16.813 21.114-27.589 34.263-35.469 38.812-5.928 3.421-12.508 5.169-19.174 5.17z"/></g></svg>