<svg id="Capa_1" enable-background="new 0 0 512 512" height="512" viewBox="0 0 512 512" width="512" xmlns="http://www.w3.org/2000/svg"><g><path d="m421.928 434.086c-4.263-10.296-11.342-18.523-20.184-23.981 8.837-5.457 15.911-13.679 20.174-23.969 8.041-19.415 3.94-40.843-11.056-55.569-5.806-5.702-8.852-9.501-14.935-13.637-3.426-2.33-8.09-1.44-10.418 1.985-2.329 3.425-1.44 8.089 1.985 10.418 4.467 3.037 6.617 5.784 12.762 11.84 12.63 12.448 12.254 28.483 7.805 39.223-4.448 10.738-15.516 22.21-33.24 22.21h-13.87c-2.995-14.759-14.647-26.411-29.407-29.405v-13.873c0-19.768 14.094-31.884 28.062-35.121 4.035-.935 6.547-4.964 5.613-8.999-.935-4.035-4.964-6.543-8.999-5.613-13.794 3.197-25.128 11.64-32.1 22.931-3.395-5.534-7.878-10.376-13.268-14.28 7.934-29.969 20.459-47.69 19.955-81.917-.298-17.673-6.554-34.869-17.725-48.554-11.283-13.821-27.052-23.507-44.413-27.275-.143-.03-.31-.13-.31-.309v-16.078h10.01c9.457 0 17.151-7.694 17.151-17.151v-25.258c0-9.457-7.694-17.151-17.151-17.151h-35.489v-36.51c19.705-1.598 40.744-1.73 60.917-.379 8.025.542 14.861-5.835 14.861-13.898v-19.15c0-7.329-5.728-13.44-13.043-13.914-27.072-1.747-56.782-.211-83.658 4.331-28.915 4.885-53.107 12.896-69.961 23.163-6.446 3.927-10.449 11.022-10.449 18.515v10.916c0 4.611 2.383 8.739 6.373 11.042 3.993 2.305 8.764 2.303 12.763-.006 3.926-2.269 8.396-4.41 13.315-6.378v22.268h-35.488c-9.457 0-17.151 7.694-17.151 17.151v25.258c0 9.457 7.694 17.151 17.151 17.151h10.014v16.081c0 .164-.169.275-.328.311-8.97 1.946-17.465 5.42-25.246 10.323-3.505 2.208-4.555 6.839-2.347 10.343 1.426 2.263 3.862 3.503 6.352 3.503 1.366 0 2.75-.373 3.991-1.155 6.299-3.969 13.174-6.781 20.43-8.355 7.153-1.552 12.148-7.706 12.148-14.969v-16.081h89.838v16.078c0 7.273 4.996 13.43 12.138 14.969 26.312 5.711 46.109 27.657 49.735 53.832h-213.6c1.103-8.087 3.738-15.915 7.788-23.003 2.055-3.596.806-8.177-2.791-10.232-3.595-2.055-8.177-.805-10.232 2.791-6.776 11.858-10.357 25.378-10.357 39.1 0 61.602 38.836 64.825 23.024 194.617-1.58 12.946-2.333 25.287-2.236 36.673.142 18.45 15.304 33.461 33.798 33.461h110.296c8.7 6.308 18.876 9.595 29.312 9.595 6.614 0 13.331-1.316 19.837-4.011 10.292-4.262 18.515-11.339 23.972-20.177 5.458 8.841 13.684 15.919 23.979 20.183 6.505 2.695 13.218 4.011 19.832 4.01 13.121-.001 25.844-5.182 35.721-15.06l7.295-7.304c14.857-14.853 19.093-36.139 11.055-55.55zm-238.533-385.409c-3.497-2.425-7.961-2.982-11.938-1.49-5.397 2.023-10.397 4.247-14.912 6.631v-7.106c0-2.331 1.217-4.465 3.255-5.706 30.131-18.357 89.167-28.759 143.859-25.399v17.017c-20.96-1.346-42.781-1.15-63.186.567-7.178.605-12.592 6.487-12.592 13.682v37.68h-38.885v-25.185c0-4.263-2.094-8.26-5.601-10.691zm-47.038 78.286v-25.258c0-1.186.966-2.152 2.152-2.152h139.859c1.186 0 2.152.966 2.152 2.152v25.258c0 1.186-.966 2.152-2.152 2.152-18.275 0-116.956 0-139.859 0-1.186 0-2.152-.965-2.152-2.152zm210.347 283.144c0 12.498-10.165 22.666-22.66 22.666-12.493 0-22.658-10.167-22.658-22.665 0-12.494 10.164-22.659 22.658-22.659s22.66 10.164 22.66 22.658zm-30.159-36.905c-14.759 2.995-26.411 14.647-29.405 29.406h-13.872c-17.724 0-28.791-11.473-33.239-22.21-4.449-10.74-4.735-26.685 7.805-39.224l7.279-7.279c22.642-22.646 61.432-6.629 61.432 25.434zm-215.326-129.21h214.439c-1.384 25.691-11.064 41.024-18.424 67.164-18.625-6.519-38.587-2.008-52.727 12.132l-7.279 7.279c-13.195 13.196-18.005 31.462-13.291 48.981h-96.138c.639-77.7-24.331-93.805-26.58-135.556zm20.609 224.826c-.092-10.744.624-22.431 2.126-34.737 1.778-14.596 2.877-27.699 3.427-39.534h103.184c4.122 6.415 9.507 11.685 15.782 15.56-8.839 5.457-15.915 13.681-20.177 23.972-7.647 18.462-4.185 38.616 8.95 53.322h-94.491c-10.289 0-18.723-8.333-18.801-18.583zm172.504 25.309c-10.741 4.448-26.684 4.736-39.217-7.796l-7.292-7.303c-12.532-12.531-12.245-28.471-7.797-39.208 4.448-10.738 15.516-22.212 33.242-22.212h13.872c2.994 14.762 14.646 26.418 29.405 29.413v13.863c0 17.726-11.474 28.795-22.213 33.243zm105.931-15.095-7.296 7.306c-12.53 12.53-28.468 12.241-39.203 7.795-10.741-4.45-22.219-15.52-22.219-33.251v-13.862c14.76-2.995 26.413-14.651 29.407-29.414h13.87c17.731 0 28.801 11.478 33.249 22.219 4.445 10.737 4.73 26.673-7.808 39.207z"/></g></svg>