<?xml version="1.0" encoding="UTF-8"?>
<svg xmlns="http://www.w3.org/2000/svg" id="Layer_32" data-name="Layer 32" viewBox="0 0 64 64" width="512" height="512"><path d="M6,28a45.017,45.017,0,0,0,5.135,20.811l-1.151.921A2.607,2.607,0,0,0,9,51.779a3.221,3.221,0,0,0,5.233,2.515l.29-.232A24.9,24.9,0,0,0,33.553,63h1.916A22.1,22.1,0,0,0,54.685,51.826l2.631-.878A1,1,0,0,0,58,50V43a1,1,0,0,0-1.64-.769L50.522,47.1l-.608.174A44.933,44.933,0,0,1,37.568,49h0a13.671,13.671,0,0,1-10.5-4.966l.8-.644A3.026,3.026,0,0,0,25.974,38a3.783,3.783,0,0,0-1.724.426A31.263,31.263,0,0,1,23,29.755V19.07A17.951,17.951,0,0,0,18,6.592V4.5a3.5,3.5,0,1,0-7,0V6.593A17.942,17.942,0,0,0,6,19.071ZM56,49.279l-1.73.577-1.789-1.789L56,45.135ZM37.563,51h0a46.9,46.9,0,0,0,12.9-1.806l.246-.07,2.036,2.036A20.089,20.089,0,0,1,35.469,61H33.553a22.887,22.887,0,0,1-17.469-8.187l9.4-7.517A15.694,15.694,0,0,0,37.563,51ZM25.974,40a1.027,1.027,0,0,1,.641,1.828l-13.631,10.9A1.221,1.221,0,0,1,11,51.779a.619.619,0,0,1,.233-.485h0l13.632-10.9A1.779,1.779,0,0,1,25.974,40ZM8,19.071A15.968,15.968,0,0,1,12.707,7.707,1,1,0,0,0,13,7V4.5a1.5,1.5,0,0,1,3,0V7a1,1,0,0,0,.293.707A15.967,15.967,0,0,1,21,19.07V29.755a33.344,33.344,0,0,0,1.539,9.934L12.73,47.536A43.015,43.015,0,0,1,8,28Z"/><path d="M17,21h2V18.605a12.868,12.868,0,0,0-2.168-7.16l-1.664,1.11A10.87,10.87,0,0,1,17,18.605Z"/><rect x="17" y="23" width="2" height="3"/></svg>
