<svg height="480pt" viewBox="-144 0 480 480" width="480pt" xmlns="http://www.w3.org/2000/svg"><path d="m0 8v48c0 .128906.0625.238281.0703125.367188.0078125.128906-.046875.234374 0 .359374l31.9999995 352c.375 4.105469 3.808594 7.253907 7.929688 7.273438h16v17.367188c-11.027344 3.890624-17.644531 15.164062-15.667969 26.691406 1.976563 11.523437 11.972657 19.949218 23.667969 19.941406h64c11.695312.007812 21.691406-8.417969 23.667969-19.941406 1.976562-11.527344-4.640625-22.800782-15.667969-26.691406v-17.367188h16c4.148438.015625 7.621094-3.140625 8-7.273438l32-352c0-.125-.046875-.238281-.039062-.359374.007812-.121094.039062-.238282.039062-.367188v-48c0-4.417969-3.582031-8-8-8h-176c-4.417969 0-8 3.582031-8 8zm128 456h-64c-4.417969 0-8-3.582031-8-8s3.582031-8 8-8h64c4.417969 0 8 3.582031 8 8s-3.582031 8-8 8zm-8-32h-48v-16h48zm24.695312-32h-97.390624l-30.503907-336h158.480469zm-128.695312-384h160v32h-160zm0 0"/></svg>