<?xml version="1.0" encoding="iso-8859-1"?>
<!-- Generator: Adobe Illustrator 19.0.0, SVG Export Plug-In . SVG Version: 6.00 Build 0)  -->
<svg version="1.1" id="Capa_1" xmlns="http://www.w3.org/2000/svg" xmlns:xlink="http://www.w3.org/1999/xlink" x="0px" y="0px"
	 viewBox="0 0 512.001 512.001" style="enable-background:new 0 0 512.001 512.001;" xml:space="preserve">
<g>
	<g>
		<path d="M411.366,0H100.639C79.996,0,63.202,16.794,63.202,37.436c0,20.643,16.794,37.437,37.436,37.437h0.25v53.022
			c0,86.782,30.24,140.89,55.609,170.998c34.539,40.992,74.047,55.598,99.504,55.598c0.78,0,1.567-0.016,2.357-0.042
			c0.098-0.003,0.198-0.009,0.296-0.013c0.753-0.028,1.511-0.068,2.273-0.119c0.006-0.001,0.011-0.001,0.017-0.001
			c4.121-0.277,8.375-0.887,12.739-1.839v10.789H257.21c-4.142,0-7.5,3.357-7.5,7.5s3.358,7.5,7.5,7.5h16.474v39.522H257.21
			c-4.142,0-7.5,3.357-7.5,7.5s3.358,7.5,7.5,7.5h16.474v29.364c0,5.489,1.3,10.985,3.759,15.896l6.73,13.438
			c0.859,1.714,0.171,3.163-0.164,3.706c-0.336,0.544-1.323,1.808-3.24,1.808h-48.231c-1.917,0-2.905-1.264-3.24-1.808
			c-0.336-0.543-1.023-1.992-0.165-3.707l6.73-13.437c2.458-4.91,3.758-10.407,3.758-15.896v-2.104h17.032
			c4.142,0,7.5-3.357,7.5-7.5c0-4.142-3.357-7.5-7.5-7.5H239.62v-39.522h17.032c4.142,0,7.5-3.357,7.5-7.5s-3.357-7.5-7.5-7.5
			H239.62V374.33c0-4.143-3.358-7.5-7.5-7.5c-4.142,0-7.5,3.357-7.5,7.5v16.196h-0.681c-4.142,0-7.5,3.357-7.5,7.5
			s3.358,7.5,7.5,7.5h0.681v39.522h-0.681c-4.142,0-7.5,3.358-7.5,7.5c0,4.143,3.358,7.5,7.5,7.5h0.681v2.104
			c0,3.17-0.751,6.345-2.171,9.18l-6.729,13.436c-2.942,5.874-2.638,12.717,0.813,18.307c3.452,5.589,9.434,8.926,16.003,8.926
			h48.231c6.568,0,12.551-3.337,16.002-8.926c3.452-5.59,3.756-12.433,0.814-18.306l-6.73-13.437
			c-1.42-2.836-2.171-6.011-2.171-9.18v-29.364h1.239c4.143,0,7.5-3.357,7.5-7.5s-3.357-7.5-7.5-7.5h-1.239v-39.522h1.239
			c4.143,0,7.5-3.357,7.5-7.5s-3.357-7.5-7.5-7.5h-1.239v-15.238c21.043-7.78,44.929-23.151,66.821-49.135
			c25.369-30.108,55.609-84.216,55.609-170.998V74.872h0.25c20.642,0,37.436-16.794,37.436-37.437
			C448.801,16.794,432.007,0,411.366,0z M411.366,59.872H188.342c-4.142,0-7.5,3.357-7.5,7.5s3.358,7.5,7.5,7.5h207.773v53.022
			c0,45.365-8.621,81.169-20.334,108.905H207.574c-4.142,0-7.5,3.357-7.5,7.5s3.358,7.5,7.5,7.5h161.22
			c-7.904,15.385-16.6,27.744-24.759,37.428c-14.883,17.665-38.615,37.573-63.984,46.06c-0.388,0.06-0.774,0.138-1.154,0.26
			c-7.114,2.278-13.873,3.576-20.139,3.874c-0.919,0.039-1.838,0.068-2.756,0.068c-31.704,0-64.34-23.936-84.367-46.069h125.674
			c4.143,0,7.5-3.357,7.5-7.5s-3.357-7.5-7.5-7.5H159.53c-21.536-29.686-43.642-77.854-43.642-150.526V74.872h42.113
			c4.142,0,7.5-3.357,7.5-7.5s-3.358-7.5-7.5-7.5h-57.363c-12.371,0-22.436-10.066-22.436-22.437
			C78.202,25.065,88.267,15,100.639,15h310.727c12.371,0,22.436,10.065,22.436,22.436C433.801,49.807,423.736,59.872,411.366,59.872
			z"/>
	</g>
</g>
<g>
</g>
<g>
</g>
<g>
</g>
<g>
</g>
<g>
</g>
<g>
</g>
<g>
</g>
<g>
</g>
<g>
</g>
<g>
</g>
<g>
</g>
<g>
</g>
<g>
</g>
<g>
</g>
<g>
</g>
</svg>
