<?xml version="1.0" encoding="iso-8859-1"?>
<!-- Generator: Adobe Illustrator 19.0.0, SVG Export Plug-In . SVG Version: 6.00 Build 0)  -->
<svg version="1.1" id="Capa_1" xmlns="http://www.w3.org/2000/svg" xmlns:xlink="http://www.w3.org/1999/xlink" x="0px" y="0px"
	 viewBox="0 0 512.002 512.002" style="enable-background:new 0 0 512.002 512.002;" xml:space="preserve">
<g>
	<g>
		<path d="M256.002,321.355c-23.755,0-43.081,19.33-43.081,43.091c0,4.144,3.357,7.501,7.5,7.501s7.5-3.357,7.5-7.5
			c0-15.489,12.597-28.091,28.081-28.091s28.081,12.602,28.081,28.091c0,10.204-5.545,19.614-14.472,24.557
			c-2.386,1.321-3.866,3.834-3.866,6.561v8.611c0,5.372-4.371,9.743-9.743,9.743s-9.743-4.371-9.743-9.743
			c0-4.143-3.357-7.5-7.5-7.5s-7.5,3.357-7.5,7.5c0,13.644,11.1,24.743,24.743,24.743c13.644,0,24.743-11.1,24.743-24.743v-4.467
			c11.413-8.004,18.338-21.137,18.338-35.263C299.083,340.685,279.757,321.355,256.002,321.355z"/>
	</g>
</g>
<g>
	<g>
		<path d="M367.556,314.337c-0.013-0.454-0.038-0.907-0.057-1.36c-0.021-0.494-0.04-0.989-0.069-1.483
			c-0.035-0.611-0.082-1.22-0.128-1.829c-0.025-0.318-0.046-0.636-0.074-0.953c-0.061-0.718-0.134-1.433-0.211-2.147
			c-0.021-0.193-0.04-0.386-0.063-0.579c-0.092-0.807-0.194-1.611-0.305-2.414c-0.011-0.083-0.023-0.165-0.034-0.248
			c-3.89-27.586-19.218-52.473-42.659-68.346l-22.698-15.371v-6.351c9.568-1.985,16.78-10.48,16.78-20.629
			c0-10.148-7.212-18.643-16.78-20.628v-1.728h5.085c4.143,0,7.5-3.357,7.5-7.5v-51.549c0-10.553-8.585-19.138-19.138-19.138h-7.542
			l-1.485-63.1C285.301,13.003,271.989,0,256.002,0s-29.299,13.003-29.675,28.984l-1.485,63.1H217.3
			c-10.553,0-19.138,8.585-19.138,19.138v51.549c0,4.143,3.357,7.5,7.5,7.5h5.085v1.728c-9.568,1.985-16.78,10.48-16.78,20.628
			c0,10.148,7.212,18.643,16.78,20.629v6.351l-22.698,15.371c-3.43,2.322-4.327,6.985-2.005,10.415
			c2.322,3.43,6.985,4.328,10.415,2.005l25.993-17.603c2.061-1.395,3.295-3.722,3.295-6.21v-17.391c0-4.143-3.357-7.5-7.5-7.5
			h-3.213c-3.346,0-6.067-2.722-6.067-6.067c0-3.345,2.722-6.066,6.067-6.066h3.213c4.143,0,7.5-3.357,7.5-7.5v-8.789h60.51v8.789
			c0,4.143,3.357,7.5,7.5,7.5h3.213c3.346,0,6.067,2.722,6.067,6.066c0,3.346-2.722,6.067-6.067,6.067h-3.213h-41.474
			c-4.143,0-7.5,3.357-7.5,7.5s3.357,7.5,7.5,7.5h33.974v9.891c0,2.488,1.234,4.814,3.295,6.21l25.993,17.603
			c15.238,10.319,26.442,25.122,32.34,42.006H164.178c2.818-8.062,6.829-15.707,11.947-22.574c2.476-3.321,1.789-8.02-1.532-10.495
			c-3.322-2.477-8.021-1.789-10.495,1.532c-8.126,10.903-13.901,23.465-17.018,36.663c-0.078,0.233-0.147,0.47-0.203,0.713
			c-0.756,3.329-1.332,6.697-1.743,10.08c-0.001,0.007-0.002,0.013-0.002,0.019c-0.159,1.309-0.295,2.621-0.402,3.934
			c-0.002,0.023-0.003,0.046-0.005,0.07c-0.093,1.156-0.161,2.313-0.213,3.47c-0.013,0.281-0.025,0.562-0.036,0.843
			c-0.044,1.196-0.074,2.391-0.074,3.586v138.123v15.56c0,22.648,18.426,41.074,41.074,41.074h141.049
			c22.648,0,41.074-18.426,41.074-41.074v-15.56V317.243C367.601,316.275,367.584,315.306,367.556,314.337z M222.493,111.222v44.049
			h-4.246h-5.085v-44.049c0-2.281,1.856-4.138,4.138-4.138h5.475C222.592,108.406,222.493,109.787,222.493,111.222z M241.323,29.338
			C241.509,21.432,248.094,15,256.002,15s14.493,6.432,14.679,14.338l1.477,62.746h-32.311L241.323,29.338z M248.502,155.27h-11.009
			v-44.048c0-1.906,0.334-3.289,0.644-4.138h10.365V155.27z M274.511,155.271h-11.009v-48.187h10.365
			c0.31,0.849,0.644,2.231,0.644,4.138V155.271z M298.842,155.271h-5.085h-4.246v-44.049c0-1.435-0.099-2.816-0.282-4.138h5.475
			c2.281,0,4.138,1.856,4.138,4.138V155.271z M352.601,470.926c0,14.377-11.698,26.074-26.075,26.074H185.478
			c-14.377,0-26.074-11.697-26.074-26.074v-8.06h193.197V470.926z M352.601,447.867H159.403V317.243
			c0-1.107,0.024-2.213,0.068-3.318c0.009-0.238,0.03-0.477,0.041-0.715c0.043-0.881,0.091-1.762,0.162-2.641
			c0.014-0.181,0.037-0.361,0.052-0.542c0.083-0.954,0.176-1.906,0.292-2.856c0.008-0.066,0.018-0.132,0.027-0.198
			c0.107-0.859,0.234-1.715,0.367-2.57h191.2v-0.001c0.162,1.049,0.303,2.1,0.425,3.153c0.006,0.049,0.01,0.099,0.016,0.148
			c0.106,0.93,0.194,1.862,0.269,2.794c0.017,0.207,0.033,0.415,0.048,0.623c0.059,0.799,0.103,1.599,0.139,2.399
			c0.01,0.242,0.025,0.483,0.034,0.726c0.036,1,0.058,2,0.058,2.999V447.867z"/>
	</g>
</g>
<g>
</g>
<g>
</g>
<g>
</g>
<g>
</g>
<g>
</g>
<g>
</g>
<g>
</g>
<g>
</g>
<g>
</g>
<g>
</g>
<g>
</g>
<g>
</g>
<g>
</g>
<g>
</g>
<g>
</g>
</svg>
