<?xml version="1.0" encoding="iso-8859-1"?>
<!-- Generator: Adobe Illustrator 19.0.0, SVG Export Plug-In . SVG Version: 6.00 Build 0)  -->
<svg version="1.1" id="Capa_1" xmlns="http://www.w3.org/2000/svg" xmlns:xlink="http://www.w3.org/1999/xlink" x="0px" y="0px"
	 viewBox="0 0 512.001 512.001" style="enable-background:new 0 0 512.001 512.001;" xml:space="preserve">
<g>
	<g>
		<path d="M65.933,118.791c-3.807-1.636-8.216,0.124-9.852,3.929c-10.873,25.299-16.385,52.202-16.385,79.961
			c-0.001,4.143,3.357,7.501,7.499,7.501s7.5-3.358,7.5-7.5c0-25.712,5.103-50.622,15.167-74.039
			C71.497,124.837,69.738,120.426,65.933,118.791z"/>
	</g>
</g>
<g>
	<g>
		<path d="M242.377,0c-34.947,0-69.404,9.042-99.646,26.147c-29.316,16.582-54.277,40.44-72.184,68.995
			c-2.202,3.509-1.14,8.138,2.368,10.339c3.51,2.199,8.138,1.139,10.339-2.369c16.587-26.451,39.708-48.55,66.861-63.909
			C178.11,23.37,210.013,15,242.377,15C345.865,15,430.06,99.194,430.06,202.682c0,35.719-10.071,70.458-29.125,100.462
			c-2.221,3.497-1.186,8.131,2.31,10.352c1.247,0.792,2.638,1.17,4.013,1.17c2.482,0,4.91-1.23,6.338-3.48
			c20.583-32.411,31.463-69.93,31.463-108.503C445.059,90.923,354.136,0,242.377,0z"/>
	</g>
</g>
<g>
	<g>
		<path d="M242.376,51.702c-20.347,0-40.104,4-58.721,11.888c-8.252,3.496-16.25,7.766-23.771,12.69
			c-3.465,2.269-4.435,6.917-2.166,10.383c2.269,3.465,6.919,4.436,10.383,2.166c6.773-4.435,13.975-8.279,21.405-11.427
			c16.756-7.1,34.544-10.699,52.87-10.699c74.979,0,135.98,61,135.98,135.98c0,17.878-3.443,35.303-10.233,51.79
			c-1.577,3.828,0.249,8.212,4.079,9.79c0.935,0.385,1.901,0.567,2.853,0.567c2.948,0,5.745-1.751,6.938-4.646
			c7.54-18.308,11.363-37.654,11.363-57.502C393.356,119.432,325.627,51.702,242.376,51.702z"/>
	</g>
</g>
<g>
	<g>
		<path d="M296.07,335.997c-1.345-3.917-5.609-6.005-9.528-4.659l-31.531,10.821c-2.785,0.955-4.753,3.453-5.032,6.384
			l-3.156,33.187c-1.645,17.302-9.667,33.339-22.587,45.157c-12.982,11.875-29.836,18.414-47.455,18.414
			c-38.809,0-70.382-31.573-70.382-70.382V239.156h39.732c31.215,0,56.61,25.395,56.61,56.61s-25.395,56.61-56.61,56.61h-16.024
			c-4.142,0-7.5,3.358-7.5,7.5c0,4.142,3.358,7.5,7.5,7.5h16.024c39.486,0,71.61-32.124,71.61-71.61
			c0-39.486-32.124-71.61-71.61-71.61h-39.732v-21.475c0-36.145,14.084-70.198,39.658-95.888c2.922-2.936,2.912-7.684-0.023-10.606
			c-2.937-2.923-7.685-2.912-10.607,0.023c-28.392,28.519-44.028,66.331-44.028,106.472v172.237
			c0,47.08,38.302,85.383,85.383,85.383c21.376,0,41.825-7.936,57.579-22.346c15.669-14.332,25.398-33.796,27.396-54.806
			l2.698-28.373l26.957-9.251C295.329,344.181,297.415,339.915,296.07,335.997z"/>
	</g>
</g>
<g>
	<g>
		<path d="M471.299,460.9l-117.57-203.636c1.285-3.014,2.328-6.142,3.084-9.375c3.918-16.757,0.47-35.174-9.971-53.258
			c-10.46-18.117-25.71-32.117-42.94-39.42c-17.958-7.611-35.941-7.13-50.638,1.355c-14.696,8.484-24.104,23.818-26.491,43.176
			c-2.291,18.574,2.208,38.78,12.668,56.897c10.441,18.085,24.667,30.279,41.138,35.264c5.156,1.561,10.445,2.361,15.756,2.432
			l40.667,70.438c-10.694,6.255-21.986,11.453-33.675,15.461c-2.786,0.955-4.754,3.452-5.034,6.384
			c-2.865,30.081-16.774,57.93-39.165,78.417c-22.54,20.613-51.785,31.965-82.348,31.965c-67.315,0-122.081-54.765-122.081-122.081
			c0-4.142-3.358-7.5-7.5-7.5s-7.5,3.358-7.5,7.5c0,75.586,61.494,137.081,137.081,137.081c34.319,0,67.159-12.748,92.473-35.897
			c23.949-21.912,39.256-51.332,43.434-83.28c11.009-4.07,21.661-9.126,31.816-15.059L412.2,495.022
			c1.389,2.406,3.91,3.751,6.502,3.751c1.272,0,2.562-0.324,3.743-1.006c3.587-2.071,4.816-6.658,2.745-10.245l-71.685-124.164
			c-0.004-0.007-0.007-0.014-0.012-0.021l-0.001-0.001l-41.009-71.031c5.281-1.423,10.439-3.581,15.422-6.458
			c0.876-0.506,1.733-1.031,2.578-1.571c0.318-0.203,0.624-0.416,0.937-0.623c0.514-0.341,1.027-0.682,1.529-1.036
			c0.377-0.266,0.745-0.54,1.115-0.813c0.418-0.308,0.835-0.617,1.244-0.934c0.397-0.307,0.786-0.62,1.173-0.935
			c0.364-0.296,0.724-0.594,1.08-0.897c0.4-0.34,0.796-0.683,1.185-1.032c0.324-0.29,0.643-0.585,0.961-0.882
			c0.396-0.37,0.791-0.74,1.176-1.118c0.293-0.288,0.577-0.583,0.863-0.876c0.387-0.396,0.776-0.791,1.151-1.196
			c0.264-0.286,0.517-0.58,0.775-0.87c0.377-0.424,0.759-0.844,1.123-1.276l113.513,196.611c2.071,3.587,6.658,4.817,10.245,2.745
			C472.141,469.074,473.37,464.487,471.299,460.9z M342.208,244.472c-0.782,3.344-1.949,6.514-3.457,9.5
			c-0.043,0.076-0.095,0.146-0.135,0.224c-3.383,6.565-8.561,12.276-15.08,16.691c-0.137,0.092-0.272,0.185-0.41,0.275
			c-0.885,0.587-1.788,1.155-2.721,1.693c-0.777,0.449-1.56,0.871-2.346,1.274c-0.183,0.094-0.367,0.178-0.55,0.27
			c-0.627,0.312-1.256,0.616-1.888,0.899c-0.155,0.07-0.311,0.134-0.466,0.201c-0.699,0.304-1.401,0.596-2.106,0.865
			c-0.068,0.026-0.135,0.051-0.203,0.076c-4.171,1.566-8.439,2.509-12.759,2.808c-0.108,0.008-0.213,0.031-0.32,0.043
			c-4.975,0.302-9.955-0.267-14.843-1.746c-12.757-3.861-23.993-13.685-32.493-28.408c-8.84-15.311-12.666-32.203-10.771-47.561
			c1.798-14.575,8.582-25.947,19.105-32.022c5.423-3.131,11.566-4.698,18.099-4.698c6.143,0,12.632,1.387,19.185,4.164
			c14.248,6.039,26.963,17.797,35.804,33.109C342.353,216.852,345.243,231.494,342.208,244.472z"/>
	</g>
</g>
<g>
</g>
<g>
</g>
<g>
</g>
<g>
</g>
<g>
</g>
<g>
</g>
<g>
</g>
<g>
</g>
<g>
</g>
<g>
</g>
<g>
</g>
<g>
</g>
<g>
</g>
<g>
</g>
<g>
</g>
</svg>
