<?xml version="1.0" encoding="iso-8859-1"?>
<!-- Generator: Adobe Illustrator 19.0.0, SVG Export Plug-In . SVG Version: 6.00 Build 0)  -->
<svg version="1.1" id="Capa_1" xmlns="http://www.w3.org/2000/svg" xmlns:xlink="http://www.w3.org/1999/xlink" x="0px" y="0px"
	 viewBox="0 0 512 512" style="enable-background:new 0 0 512 512;" xml:space="preserve">
<g>
	<g>
		<path d="M323.129,251.012v-17.081h12.576h13.942c4.143,0,7.5-3.358,7.5-7.5c0-4.142-3.357-7.5-7.5-7.5h-6.442V106.827
			c0-0.249-0.013-0.497-0.038-0.743c-0.015-0.149-0.041-0.294-0.064-0.44c-0.015-0.094-0.025-0.189-0.043-0.282
			c-0.034-0.174-0.081-0.344-0.127-0.514c-0.017-0.063-0.03-0.127-0.049-0.19c-0.052-0.173-0.115-0.341-0.18-0.509
			c-0.022-0.058-0.04-0.117-0.064-0.174c-0.065-0.159-0.141-0.313-0.217-0.466c-0.032-0.064-0.06-0.13-0.093-0.194
			c-0.074-0.139-0.156-0.272-0.238-0.405c-0.045-0.074-0.087-0.15-0.135-0.223c-0.079-0.119-0.167-0.233-0.252-0.347
			c-0.06-0.08-0.117-0.163-0.18-0.241c-0.086-0.106-0.18-0.205-0.271-0.306c-0.063-0.069-0.12-0.142-0.185-0.209l-20.02-20.474
			c-8.261-8.448-13.903-19.028-16.317-30.595l-9.296-44.547C294.71,2.491,291.645,0,288.093,0h-64.188
			c-3.552,0-6.616,2.491-7.342,5.968l-9.296,44.547c-2.414,11.567-8.057,22.146-16.317,30.595l-20.02,20.474
			c-0.065,0.067-0.122,0.14-0.185,0.209c-0.092,0.101-0.185,0.2-0.271,0.306c-0.063,0.078-0.12,0.161-0.18,0.241
			c-0.086,0.114-0.173,0.228-0.252,0.347c-0.048,0.073-0.09,0.149-0.135,0.223c-0.082,0.134-0.165,0.266-0.238,0.405
			c-0.034,0.064-0.062,0.13-0.094,0.195c-0.076,0.153-0.151,0.306-0.216,0.464c-0.024,0.058-0.043,0.119-0.065,0.178
			c-0.064,0.167-0.126,0.334-0.178,0.506c-0.019,0.063-0.032,0.127-0.049,0.19c-0.046,0.17-0.093,0.339-0.127,0.514
			c-0.018,0.093-0.028,0.188-0.043,0.282c-0.023,0.146-0.05,0.291-0.065,0.44c-0.025,0.246-0.038,0.494-0.038,0.743v112.104h-6.442
			c-4.143,0-7.5,3.358-7.5,7.5c0,4.142,3.357,7.5,7.5,7.5h13.942h12.576v17.085c-5.957,0.764-11.745,2.633-17.005,5.515
			c-3.633,1.99-4.964,6.549-2.974,10.181c1.99,3.633,6.548,4.966,10.181,2.974c4.852-2.658,10.364-4.063,15.94-4.063h1.357
			c4.143,0,7.5-3.358,7.5-7.5v-24.192h104.26v24.192c0,4.142,3.357,7.5,7.5,7.5h1.357c18.324,0,33.232,14.908,33.232,33.232v164.912
			c0,18.325-14.908,33.233-33.232,33.233H195.012c-18.324,0-33.232-14.908-33.232-33.233V298.855c0-3.315,0.484-6.585,1.441-9.717
			c1.209-3.962-1.022-8.154-4.984-9.363c-3.957-1.209-8.153,1.022-9.362,4.984c-1.39,4.553-2.095,9.296-2.095,14.096v164.912
			c0,26.596,21.637,48.233,48.232,48.233h121.975c26.596,0,48.232-21.637,48.232-48.233V298.855
			C365.22,274.34,346.835,254.039,323.129,251.012z M232.611,218.931h-16.777V154.75c0-4.142-3.357-7.5-7.5-7.5s-7.5,3.358-7.5,7.5
			v64.181h-4.464h-12.576V114.327h17.04v10.423c0,4.142,3.357,7.5,7.5,7.5s7.5-3.358,7.5-7.5v-10.423h16.777V218.931z
			 M264.389,218.931h-16.777V114.327h16.777V218.931z M296.166,218.931h-16.778V114.327h0h16.778V218.931z M303.676,99.328
			c-0.003,0-0.006,0-0.01,0c-0.003,0-0.006,0-0.01,0h-31.759c-0.003,0-0.006,0-0.01,0c-0.004,0-0.006,0-0.01,0h-31.758
			c-0.003,0-0.007,0-0.01,0s-0.006,0-0.01,0h-31.758c-0.003,0-0.007,0-0.01,0s-0.006,0-0.01,0h-14.207l7.559-7.73
			c10.266-10.499,17.278-23.645,20.278-38.018L230.002,15h51.994l8.051,38.58c3,14.374,10.012,27.519,20.276,38.018l7.559,7.73
			H303.676z M315.629,218.931h-4.463V114.327h17.039v104.604H315.629z"/>
	</g>
</g>
<g>
	<g>
		<path d="M323.085,377.209c-13.084-25.132-38.79-40.745-67.085-40.745s-54.001,15.613-67.085,40.745c-1.13,2.17-1.13,4.756,0,6.927
			c13.085,25.132,38.79,40.745,67.085,40.745s54-15.613,67.085-40.745C324.215,381.966,324.215,379.38,323.085,377.209z
			 M213.371,392.359c-3.491-3.463-6.593-7.373-9.205-11.687c2.612-4.314,5.714-8.225,9.205-11.688
			c-1.023,3.726-1.58,7.642-1.58,11.688C211.791,384.718,212.348,388.634,213.371,392.359z M255.999,409.88
			c-16.105,0-29.208-13.103-29.208-29.208c0-16.105,13.103-29.208,29.208-29.208c16.105,0,29.208,13.103,29.208,29.208
			C285.207,396.777,272.105,409.88,255.999,409.88z M298.628,392.359c1.023-3.725,1.58-7.642,1.58-11.687
			c0-4.046-0.557-7.962-1.58-11.688c3.491,3.463,6.593,7.374,9.205,11.688C305.22,384.986,302.118,388.896,298.628,392.359z"/>
	</g>
</g>
<g>
	<g>
		<path d="M255.999,291.119c-4.143,0-7.5,3.358-7.5,7.5v14.801c0,4.142,3.357,7.5,7.5,7.5s7.5-3.358,7.5-7.5v-14.801
			C263.499,294.477,260.142,291.119,255.999,291.119z"/>
	</g>
</g>
<g>
	<g>
		<path d="M229.033,317.552l-8.768-12.067c-2.435-3.351-7.124-4.094-10.476-1.659c-3.352,2.434-4.094,7.125-1.659,10.476
			l8.768,12.067c1.468,2.02,3.754,3.092,6.074,3.092c1.528,0,3.071-0.466,4.402-1.433
			C230.726,325.593,231.468,320.903,229.033,317.552z"/>
	</g>
</g>
<g>
	<g>
		<path d="M198.963,341.008l-14.314-4.649c-3.934-1.278-8.17,0.876-9.449,4.816c-1.28,3.939,0.876,8.17,4.816,9.45l14.314,4.649
			c0.77,0.25,1.55,0.369,2.318,0.369c3.161,0,6.102-2.016,7.131-5.185C205.061,346.519,202.903,342.288,198.963,341.008z"/>
	</g>
</g>
<g>
	<g>
		<path d="M336.798,341.176c-1.279-3.94-5.513-6.095-9.449-4.816l-14.314,4.649c-3.94,1.28-6.097,5.511-4.816,9.45
			c1.029,3.169,3.97,5.185,7.131,5.185c0.769,0,1.549-0.119,2.318-0.369l14.314-4.649
			C335.923,349.346,338.079,345.115,336.798,341.176z"/>
	</g>
</g>
<g>
	<g>
		<path d="M302.209,303.826c-3.349-2.433-8.041-1.693-10.476,1.659l-8.768,12.067c-2.434,3.351-1.692,8.041,1.659,10.476
			c1.332,0.968,2.874,1.433,4.403,1.433c2.318,0,4.606-1.072,6.073-3.092l8.768-12.067
			C306.303,310.951,305.559,306.261,302.209,303.826z"/>
	</g>
</g>
<g>
</g>
<g>
</g>
<g>
</g>
<g>
</g>
<g>
</g>
<g>
</g>
<g>
</g>
<g>
</g>
<g>
</g>
<g>
</g>
<g>
</g>
<g>
</g>
<g>
</g>
<g>
</g>
<g>
</g>
</svg>
