<svg id="Capa_1" enable-background="new 0 0 512 512" height="512" viewBox="0 0 512 512" width="512" xmlns="http://www.w3.org/2000/svg"><g><path d="m504.5 360.288c-4.142 0-7.5 3.358-7.5 7.5v27.597c0 1.378-1.122 2.5-2.5 2.5h-185.567c-9.519-20.361-30.155-33.709-52.933-33.709s-43.415 13.349-52.933 33.709h-185.567c-1.378 0-2.5-1.122-2.5-2.5v-278.77c0-1.378 1.122-2.5 2.5-2.5h80.991c4.142 0 7.5-3.358 7.5-7.5s-3.358-7.5-7.5-7.5h-80.991c-9.649 0-17.5 7.851-17.5 17.5v278.77c0 9.649 7.851 17.5 17.5 17.5h477c9.649 0 17.5-7.851 17.5-17.5v-27.597c0-4.142-3.358-7.5-7.5-7.5zm-248.5 18.887c14.432 0 27.707 7.21 35.694 18.709h-71.389c7.988-11.499 21.263-18.709 35.695-18.709z"/><path d="m494.5 99.115h-361.009c-4.142 0-7.5 3.358-7.5 7.5s3.358 7.5 7.5 7.5h361.009c1.378 0 2.5 1.122 2.5 2.5v216.172c0 4.142 3.358 7.5 7.5 7.5s7.5-3.358 7.5-7.5v-216.172c0-9.649-7.851-17.5-17.5-17.5z"/><path d="m226.049 227.489c.7-.689 1.393-1.386 2.075-2.1 2.862-2.994 2.755-7.742-.239-10.604-2.995-2.863-7.742-2.755-10.604.239-31.56 33.015-84.236 33.065-115.843 0-2.862-2.994-7.61-3.101-10.604-.239s-3.101 7.61-.239 10.604c.682.713 1.375 1.41 2.074 2.099l-8.733 10.408c-2.662 3.173-2.249 7.904.925 10.566 3.194 2.679 7.922 2.228 10.566-.925l8.712-10.383c4.962 3.558 10.219 6.612 15.718 9.124l-4.621 12.697c-1.784 4.903 1.868 10.067 7.047 10.067 3.063 0 5.94-1.891 7.048-4.937l4.628-12.715c5.802 1.593 11.787 2.642 17.898 3.113v13.574c0 4.142 3.358 7.5 7.5 7.5s7.5-3.358 7.5-7.5v-13.574c6.112-.47 12.097-1.52 17.9-3.113l4.628 12.715c1.42 3.901 5.73 5.897 9.613 4.483 3.893-1.417 5.899-5.721 4.483-9.613l-4.621-12.697c5.499-2.512 10.757-5.565 15.719-9.123l8.712 10.382c1.483 1.768 3.608 2.679 5.749 2.679 1.701 0 3.412-.576 4.817-1.755 3.173-2.663 3.587-7.393.924-10.566z"/><path d="m419.331 227.488c.7-.689 1.393-1.386 2.075-2.1 2.862-2.994 2.755-7.742-.239-10.604-2.995-2.863-7.742-2.755-10.604.239-31.467 32.917-84.144 33.161-115.843 0-2.862-2.994-7.61-3.101-10.604-.239s-3.101 7.61-.239 10.604c.682.713 1.375 1.41 2.074 2.099l-8.733 10.408c-2.663 3.173-2.249 7.903.924 10.566 3.193 2.68 7.921 2.228 10.566-.924l8.713-10.383c4.962 3.558 10.22 6.612 15.719 9.124l-4.621 12.697c-1.417 3.892.59 8.196 4.483 9.613 3.9 1.419 8.199-.598 9.613-4.483l4.628-12.715c5.802 1.593 11.786 2.642 17.897 3.113v13.574c0 4.142 3.358 7.5 7.5 7.5s7.5-3.358 7.5-7.5v-13.574c6.112-.47 12.097-1.52 17.9-3.113l4.628 12.715c1.42 3.901 5.73 5.897 9.613 4.483 3.893-1.417 5.899-5.721 4.483-9.613l-4.621-12.697c5.499-2.512 10.757-5.565 15.719-9.123l8.711 10.382c2.654 3.163 7.384 3.595 10.566.925 3.173-2.663 3.587-7.394.925-10.566z"/><path d="m47.435 159.049v170.184c0 6.893 5.607 12.5 12.5 12.5h392.131c6.893 0 12.5-5.607 12.5-12.5v-170.184c0-6.893-5.607-12.5-12.5-12.5h-392.131c-6.893 0-12.5 5.608-12.5 12.5zm15 2.5h387.131v165.184h-387.131z"/></g></svg>