<svg id="Capa_1" enable-background="new 0 0 512 512" height="512" viewBox="0 0 512 512" width="512" xmlns="http://www.w3.org/2000/svg"><g><path d="m446.18 86.112c-22.809 0-43.655 11.535-55.764 30.854l-41.676 66.44c-10.142-4.973-19.758-10.205-28.783-15.681-13.158-7.986-28.183-12.207-43.452-12.207h-41.012c-15.269 0-30.294 4.221-43.452 12.206-9.054 5.494-18.669 10.719-28.786 15.683l-41.671-66.439c-12.11-19.321-32.957-30.856-55.765-30.856-36.292 0-65.819 29.527-65.819 65.82v37.771c0 33.479 9.74 65.952 28.168 93.908l32.145 48.763c2.348 6.929 6.021 13.394 10.896 18.998 11.73 13.485 32.655 32.834 65.72 48.428 1.034.488 2.122.719 3.194.719 2.813 0 5.509-1.59 6.789-4.303 1.767-3.746.162-8.216-3.584-9.982-30.71-14.483-50.015-32.306-60.801-44.706-6.594-7.58-10.226-17.298-10.226-27.363v-51.298c20.534-3.962 86.476-18.981 143.154-57.268 6.781-4.583 14.642-5.545 20.043-5.545h41.005c5.401 0 13.262.962 20.044 5.546 56.677 38.286 122.619 53.305 143.152 57.267v51.298c0 10.065-3.632 19.783-10.226 27.363-21.523 24.742-72.675 66.637-173.472 69.358-28.458-.768-55.092-4.783-79.161-11.934-3.968-1.183-8.146 1.083-9.325 5.054s1.083 8.146 5.054 9.325c25.383 7.541 53.387 11.766 83.233 12.555.066.002.132.003.198.003s.132-.001.198-.003c106.667-2.822 161.438-47.896 184.592-74.513 4.875-5.604 8.548-12.07 10.896-18.999l32.145-48.763c18.429-27.957 28.169-60.429 28.169-93.909v-37.771c0-36.292-29.527-65.819-65.82-65.819zm-431.18 103.59v-37.771c0-28.021 22.798-50.819 50.82-50.819 17.61 0 33.706 8.905 43.057 23.825l40.695 64.883c-3.82 1.707-7.706 3.378-11.658 5.014l-39.658-63.238c-7.045-11.236-19.17-17.944-32.433-17.944-20.724 0-37.89 16.859-38.267 37.581-.076 4.142 3.221 7.561 7.362 7.636 4.152.031 7.56-3.222 7.635-7.362.229-12.603 10.668-22.854 23.27-22.854 8.066 0 15.44 4.079 19.725 10.913l38.176 60.875c-16.808 6.346-34.677 12.089-53.571 17.175-7.567 2.037-12.852 8.925-12.852 16.748v15.007c-9.677-18.353-14.761-38.743-14.761-59.667v-1.311c0-4.143-3.358-7.5-7.5-7.5s-7.5 3.357-7.5 7.5v1.311c0 28.077 8.167 55.308 23.619 78.749l6.142 9.312v22.787l-16.609-25.195c-16.808-25.501-25.692-55.119-25.692-85.655zm289.945 3.467c-7.857-5.311-17.692-8.117-28.442-8.117h-41.005c-10.75 0-20.585 2.807-28.441 8.116-51.383 34.71-112.492 49.757-134.756 54.366v-13.172c0-1.056.72-1.986 1.751-2.264 48.692-13.109 91.008-30.453 125.772-51.551 10.812-6.562 23.146-10.029 35.669-10.029h41.012c12.523 0 24.858 3.468 35.669 10.03 23.264 14.117 50.168 26.666 79.966 37.298 3.9 1.395 8.192-.641 9.584-4.543 1.392-3.901-.642-8.192-4.543-9.584-3.003-1.072-5.968-2.167-8.908-3.278l38.182-60.88c4.277-6.831 11.65-10.909 19.723-10.909 12.836 0 23.28 10.443 23.28 23.279v37.771c0 20.924-5.084 41.315-14.761 59.668v-15.008c0-7.823-5.285-14.711-12.852-16.748-3.325-.896-6.648-1.818-9.877-2.745-3.984-1.137-8.135 1.161-9.277 5.143s1.161 8.135 5.142 9.276c3.308.949 6.709 1.895 10.112 2.811 1.031.277 1.751 1.209 1.751 2.264v13.172c-22.26-4.61-83.368-19.656-134.751-54.366zm192.055-3.467c0 30.536-8.884 60.154-25.692 85.652l-16.609 25.195v-22.787l6.143-9.313c15.451-23.44 23.618-50.671 23.618-78.748v-37.771c0-21.107-17.172-38.279-38.28-38.279-13.274 0-25.4 6.71-32.434 17.944l-39.659 63.234c-3.952-1.635-7.84-3.307-11.661-5.014l40.698-64.881c9.349-14.918 25.445-23.823 43.055-23.823 28.022 0 50.82 22.798 50.82 50.819v37.772z"/><path d="m98.225 334.71c28.126 21.388 78.294 47.323 157.577 49.422.066.002.132.003.198.003s.132-.001.198-.003c79.282-2.099 129.451-28.034 157.577-49.422 3.297-2.507 3.937-7.213 1.43-10.51s-7.212-3.938-10.51-1.43c-26.347 20.035-73.521 44.332-148.695 46.361-75.174-2.029-122.348-26.326-148.695-46.361-3.297-2.509-8.003-1.868-10.51 1.43-2.507 3.297-1.867 8.003 1.43 10.51z"/><path d="m98.225 296.921c28.126 21.388 78.294 47.323 157.577 49.422.066.002.132.003.198.003s.132-.001.198-.003c79.282-2.099 129.451-28.034 157.577-49.422 3.297-2.507 3.937-7.213 1.43-10.51s-7.212-3.938-10.51-1.43c-26.347 20.035-73.521 44.332-148.695 46.361-75.174-2.029-122.348-26.326-148.695-46.361-3.297-2.509-8.003-1.869-10.51 1.43-2.507 3.297-1.867 8.003 1.43 10.51z"/></g></svg>