<svg id="Capa_1" enable-background="new 0 0 512 512" height="512" viewBox="0 0 512 512" width="512" xmlns="http://www.w3.org/2000/svg"><g><path d="m165.105 329.46c0 9.368 7.101 17.645 19.994 23.305 10.931 4.799 25.299 7.441 40.457 7.441 15.159 0 29.526-2.643 40.457-7.441 12.895-5.66 19.995-13.937 19.995-23.305s-7.101-17.645-19.994-23.306c-10.932-4.798-25.3-7.441-40.458-7.441s-29.526 2.643-40.457 7.441c-12.893 5.661-19.994 13.938-19.994 23.306zm60.451-15.747c29.409 0 45.452 10.402 45.452 15.747 0 5.344-16.043 15.747-45.452 15.747-29.408 0-45.451-10.402-45.451-15.747s16.043-15.747 45.451-15.747z"/><path d="m123.69 128.684c-28.023 0-50.821 20.631-50.821 45.989 0 13.346 6.603 35.736 50.821 35.736 44.22 0 50.822-22.39 50.822-35.736 0-25.358-22.799-45.989-50.822-45.989zm0 66.725c-35.821 0-35.821-15.607-35.821-20.736 0-17.087 16.069-30.989 35.821-30.989 19.753 0 35.822 13.902 35.822 30.989 0 5.129 0 20.736-35.822 20.736z"/><path d="m207.177 272.365c5.569-.765 11.881-1.632 18.379-1.632s12.811.867 18.38 1.632c4.598.631 8.917 1.225 12.833 1.225 4.903 0 9.173-.931 12.559-3.883 3.369-2.938 5.077-7.255 5.077-12.83 0-20.429-21.457-36.432-48.849-36.432s-48.848 16.003-48.848 36.432c0 5.575 1.708 9.892 5.077 12.83 6.091 5.309 15.036 4.08 25.392 2.658zm18.379-36.921c18.348 0 33.849 9.815 33.849 21.432 0 .76-.065 1.25-.125 1.536-2.184.62-8.566-.258-13.304-.908-6.045-.831-12.896-1.771-20.42-1.771-7.523 0-14.375.941-20.42 1.771-4.737.651-11.119 1.529-13.303.908-.06-.287-.125-.776-.125-1.536.001-11.617 15.501-21.432 33.848-21.432z"/><path d="m327.423 210.409c44.219 0 50.821-22.39 50.821-35.736 0-25.358-22.799-45.989-50.821-45.989-28.023 0-50.822 20.631-50.822 45.989 0 13.346 6.603 35.736 50.822 35.736zm0-66.725c19.752 0 35.821 13.902 35.821 30.989 0 5.129 0 20.736-35.821 20.736-35.822 0-35.822-15.607-35.822-20.736 0-17.087 16.069-30.989 35.822-30.989z"/><path d="m496.454 307.865c-1.038-6.258-5.398-11.461-11.378-13.579-20.412-7.229-42.273-9.793-63.76-7.533 2.695-7.514 5.088-15.133 7.14-22.775 1.56-5.828-1.272-12.023-6.727-14.725-7.808-3.879-14.512-8.995-19.519-14.876 6.763-5.164 15.271-8.939 24.778-10.97 5.61-1.223 9.764-6.062 10.098-11.744.288-4.653.435-9.344.435-13.943 0-29.168-5.624-56.595-16.716-81.519-10.62-23.865-25.985-44.897-45.669-62.511-38.689-34.623-91.813-53.69-149.585-53.69-48.199 0-92.892 13.074-129.248 37.809-3.425 2.33-4.312 6.995-1.982 10.419 2.331 3.424 6.996 4.313 10.42 1.982 33.857-23.034 75.633-35.21 120.81-35.21 54.076 0 103.647 17.71 139.583 49.868 37.543 33.596 57.388 79.536 57.388 132.852 0 3.75-.104 7.567-.312 11.386-12.026 2.808-22.832 8.021-31.341 15.139-5.293 4.443-6.114 12.2-1.869 17.658 6.17 7.935 14.606 14.815 24.48 19.98-2.577 9.343-5.685 18.646-9.259 27.732-22.189 5.088-42.995 15.407-60.578 30.141-19.657 16.472-34.606 37.869-43.23 61.875-4.562 12.697-7.299 25.968-8.202 39.369-21.676 10.905-44.081 16.438-66.661 16.438-34.977 0-70.057-13.548-101.529-39.199 3.273-9 4.806-18.027 4.557-26.843-.188-6.965-5.791-12.568-12.743-12.755-8.725-.245-17.625 1.243-26.529 4.434-23.689-29.403-41.523-64.329-51.675-101.191 9.873-5.163 18.312-12.047 24.493-19.997 4.226-5.463 3.398-13.213-1.891-17.65-8.505-7.115-19.316-12.33-31.331-15.132-.207-3.805-.312-7.627-.312-11.386 0-49.566 17.379-93.171 50.258-126.101 2.927-2.931 2.923-7.68-.009-10.607-2.93-2.926-7.679-2.923-10.606.008-35.747 35.803-54.642 83.073-54.642 136.7 0 4.604.146 9.296.434 13.917.334 5.712 4.489 10.552 10.13 11.777 9.481 2.026 17.991 5.802 24.747 10.963-5.005 5.879-11.709 10.996-19.508 14.872-5.464 2.706-8.297 8.9-6.736 14.733 10.73 40.008 30.06 77.925 55.894 109.648 3.541 4.354 9.486 5.937 14.799 3.938 6.749-2.538 13.706-3.892 20.251-3.95-.061 6.633-1.452 13.688-4.068 20.544-1.991 5.282-.409 11.238 3.935 14.82 34.448 28.429 73.206 43.455 112.083 43.455 22.541 0 44.856-4.967 66.496-14.749.223 4.718 1.09 16.565 2.985 20.935-18.144 18.997-31.087 34.068-36.14 41.754-2.275 3.461-1.314 8.112 2.146 10.387 3.454 2.272 8.107 1.322 10.387-2.146 4.147-6.308 16.702-20.936 34.99-40.075 15.283 5.259 31.303 7.898 47.318 7.898 15.985-.001 31.964-2.623 47.176-7.871 3.916-1.351 5.995-5.62 4.645-9.536-1.35-3.915-5.616-5.994-9.535-4.644-25.049 8.641-52.398 9.312-77.894 2.087 12.785-12.98 27.598-27.42 43.789-42.398 18.67-1.698 32.816-.599 45.573 3.528 3.956 1.281 8.175-.903 9.444-4.827 1.275-3.941-.886-8.169-4.827-9.444-10.016-3.24-20.603-4.878-32.852-5.014 16.282-14.535 33.611-29.267 51.434-43.395 3.246-2.573 3.791-7.291 1.218-10.537s-7.292-3.792-10.536-1.218c-7.909 6.27-15.77 12.7-23.524 19.21.432-7.929-.211-16.399-2.933-25.258-1.216-3.959-5.413-6.183-9.371-4.967-3.96 1.216-6.184 5.412-4.967 9.372 3.909 12.726 2.445 24.621-.01 35.641-28.653 24.975-64.598 60.049-72.84 68.394-2.263-19.832.05-40.048 6.809-58.862 7.727-21.508 21.126-40.683 38.749-55.45 36.487-30.576 84.895-37.664 126.791-22.828.834.295 1.442 1.021 1.588 1.896 3.635 21.895 1.591 44.507-5.911 65.391-7.727 21.508-21.126 40.682-38.749 55.45-3.596 3.013-7.383 5.857-11.258 8.452-3.442 2.305-4.363 6.963-2.059 10.405 2.304 3.441 6.963 4.363 10.404 2.058 4.32-2.893 8.542-6.062 12.547-9.418 19.657-16.472 34.606-37.868 43.23-61.875 8.364-23.286 10.643-48.501 6.589-72.917z"/></g></svg>