<?xml version="1.0" encoding="iso-8859-1"?>
<!-- Generator: Adobe Illustrator 19.0.0, SVG Export Plug-In . SVG Version: 6.00 Build 0)  -->
<svg version="1.1" id="Capa_1" xmlns="http://www.w3.org/2000/svg" xmlns:xlink="http://www.w3.org/1999/xlink" x="0px" y="0px"
	 viewBox="0 0 512 512" style="enable-background:new 0 0 512 512;" xml:space="preserve">
<g>
	<g>
		<path d="M408.543,248.45c-2.751-9.004-6.205-17.861-10.262-26.326c-1.79-3.736-6.27-5.311-10.005-3.521
			c-3.735,1.791-5.311,6.27-3.521,10.005c3.733,7.789,6.91,15.939,9.443,24.227c9.983,32.661,15.046,67.027,15.046,102.145
			c0,34.632-4.938,68.564-14.678,100.853c-8.664,28.724-37.293,45.932-66.59,40.029c-32.61-6.569-67.275-9.9-103.031-9.9
			c-35.756,0-70.42,3.331-103.031,9.9c-29.297,5.899-57.928-11.307-66.59-40.029c-9.739-32.288-14.678-66.219-14.678-100.853
			c0-35.117,5.063-69.484,15.047-102.145c5.355-17.519,13.314-33.821,23.592-48.537h32.582c4.143,0,7.5-3.358,7.5-7.5
			s-3.357-7.5-7.5-7.5H91.042c8.467-9.645,18.064-18.414,28.694-26.17c30.708-22.404,67.089-34.247,105.21-34.247
			c45.708,0,89.117,17.181,122.232,48.379c3.013,2.839,7.76,2.699,10.602-0.316c2.84-3.015,2.699-7.762-0.316-10.602
			c-35.908-33.83-82.971-52.461-132.518-52.461c-41.319,0-80.758,12.839-114.051,37.13c-33.479,24.426-57.528,58.12-69.547,97.44
			c-10.418,34.083-15.701,69.924-15.701,106.53c0,36.101,5.153,71.489,15.316,105.185c5.241,17.377,16.683,32.093,32.215,41.439
			c15.559,9.361,33.915,12.544,51.699,8.962c31.637-6.373,65.305-9.604,100.068-9.604s68.431,3.231,100.068,9.604
			c4.763,0.96,9.565,1.434,14.347,1.434c13.067,0,25.961-3.543,37.353-10.396c15.532-9.346,26.974-24.062,32.215-41.439
			c10.163-33.694,15.316-69.083,15.316-105.185C424.244,318.375,418.961,282.534,408.543,248.45z"/>
	</g>
</g>
<g>
	<g>
		<path d="M272.914,267.492c-3.433-2.319-8.095-1.416-10.413,2.016c-2.318,3.433-1.416,8.095,2.017,10.414
			c19.544,13.204,31.213,35.147,31.213,58.699c0,39.03-31.754,70.784-70.784,70.784s-70.783-31.753-70.783-70.784
			c0-39.031,31.753-70.784,70.783-70.784c5.145,0,10.278,0.554,15.255,1.646c4.044,0.888,8.046-1.672,8.933-5.718
			c0.889-4.046-1.672-8.045-5.718-8.933c-6.03-1.324-12.244-1.995-18.47-1.995c-47.301,0-85.784,38.482-85.784,85.784
			s38.481,85.785,85.783,85.785c47.302,0,85.784-38.482,85.784-85.785C310.73,310.08,296.593,283.49,272.914,267.492z"/>
	</g>
</g>
<g>
	<g>
		<path d="M224.946,280.526c-32.034,0-58.095,26.061-58.095,58.095c0,11.52,3.367,22.655,9.736,32.203
			c2.299,3.446,6.955,4.376,10.401,2.077c3.446-2.299,4.376-6.956,2.077-10.401c-4.72-7.075-7.215-15.332-7.215-23.879
			c0-23.763,19.332-43.095,43.095-43.095c23.763,0,43.095,19.332,43.095,43.095c0,23.763-19.332,43.095-43.095,43.095
			c-5.514,0-10.88-1.025-15.949-3.045c-3.846-1.532-8.211,0.341-9.744,4.19c-1.534,3.847,0.342,8.209,4.19,9.743
			c6.846,2.729,14.08,4.112,21.504,4.112c32.033,0,58.095-26.061,58.095-58.095S256.98,280.526,224.946,280.526z"/>
	</g>
</g>
<g>
	<g>
		<path d="M224.946,312.067c-14.642,0-26.554,11.912-26.554,26.554c0,14.642,11.912,26.553,26.554,26.553
			c14.642,0,26.554-11.912,26.554-26.553C251.5,323.98,239.588,312.067,224.946,312.067z M224.946,350.174
			c-6.371,0-11.554-5.183-11.554-11.553c0-6.37,5.183-11.554,11.554-11.554c6.371,0,11.554,5.183,11.554,11.554
			C236.5,344.992,231.317,350.174,224.946,350.174z"/>
	</g>
</g>
<g>
	<g>
		<path d="M407.96,47.512H257.25c-8.964,0-16.256-7.292-16.256-16.256S248.286,15,257.25,15h82.833c4.143,0,7.5-3.358,7.5-7.5
			s-3.357-7.5-7.5-7.5H257.25c-17.234,0-31.256,14.021-31.256,31.256s14.021,31.256,31.256,31.256h150.71
			c34.955,0,63.393,28.438,63.393,63.393s-28.438,63.392-63.393,63.392H172.441c-36.433,0-66.073,29.64-66.073,66.073v83.25
			c0,65.383,53.193,118.578,118.578,118.578s118.578-53.193,118.578-118.578S290.33,220.044,224.946,220.044
			c-44.464,0-83.284,24.605-103.578,60.91V255.37c0-28.162,22.911-51.073,51.073-51.073H407.96
			c43.226,0,78.393-35.166,78.393-78.392C486.352,82.679,451.185,47.512,407.96,47.512z M224.946,235.043
			c57.112,0,103.578,46.464,103.578,103.578c0,57.112-46.465,103.578-103.578,103.578c-57.112,0-103.578-46.465-103.578-103.578
			C121.368,281.508,167.833,235.043,224.946,235.043z"/>
	</g>
</g>
<g>
</g>
<g>
</g>
<g>
</g>
<g>
</g>
<g>
</g>
<g>
</g>
<g>
</g>
<g>
</g>
<g>
</g>
<g>
</g>
<g>
</g>
<g>
</g>
<g>
</g>
<g>
</g>
<g>
</g>
</svg>
