<?xml version="1.0" encoding="iso-8859-1"?>
<!-- Generator: Adobe Illustrator 19.0.0, SVG Export Plug-In . SVG Version: 6.00 Build 0)  -->
<svg version="1.1" id="Capa_1" xmlns="http://www.w3.org/2000/svg" xmlns:xlink="http://www.w3.org/1999/xlink" x="0px" y="0px"
	 viewBox="0 0 512 512" style="enable-background:new 0 0 512 512;" xml:space="preserve">
<g>
	<g>
		<path d="M224.35,76.833l-20-30.337C202.5,43.689,199.363,42,196.001,42h-10V10c0-5.523-4.477-10-10-10h-40
			c-5.523,0-10,4.477-10,10v32h-10c-3.362,0-6.499,1.689-8.349,4.496l-20,30.337c-1.077,1.633-1.651,3.547-1.651,5.504V122v380
			c0,5.523,4.477,10,10,10h120c5.522,0,10-4.477,10-10V122V82.337C226.001,80.38,225.427,78.466,224.35,76.833z M146.001,20h20v22
			h-20V20z M206.001,220.726c-33.877,4.868-60,34.072-60,69.274v2.282c0,5.523,4.477,10,10,10s10-4.477,10-10V290
			c0-24.146,17.205-44.348,40-48.994v127.959c-10.013-2.08-19.313-7.234-26.44-14.834c-3.778-4.028-10.107-4.231-14.135-0.454
			c-4.029,3.778-4.232,10.106-0.454,14.135c10.909,11.633,25.48,19.159,41.029,21.442V412h-30c-5.523,0-10,4.477-10,10
			s4.477,10,10,10h30v60h-100V132h100V220.726z M206.001,112h-100V85.336L121.386,62h69.23l15.385,23.336V112z"/>
	</g>
</g>
<g>
	<g>
		<path d="M359.847,62.769L286.001,32h70c5.522,0,10-4.477,10-10s-4.478-10-10-10H236.006c-0.002,0-0.004,0-0.006,0
			c-0.241,0-0.48,0.017-0.719,0.034c-0.085,0.006-0.17,0.005-0.255,0.014c-0.171,0.017-0.339,0.048-0.508,0.073
			c-0.155,0.023-0.31,0.04-0.463,0.071c-0.011,0.002-0.022,0.004-0.033,0.006c-0.152,0.031-0.299,0.074-0.449,0.112
			c-0.157,0.039-0.314,0.073-0.47,0.12c-0.004,0.001-0.008,0.002-0.012,0.004c-0.154,0.047-0.303,0.105-0.453,0.159
			c-0.156,0.055-0.312,0.107-0.466,0.17c-0.142,0.059-0.278,0.128-0.417,0.193c-0.157,0.074-0.316,0.144-0.47,0.226
			c-0.131,0.071-0.256,0.151-0.384,0.227c-0.153,0.091-0.307,0.177-0.455,0.277c-0.115,0.077-0.224,0.164-0.336,0.246
			c-0.138,0.101-0.28,0.197-0.414,0.305c-0.012,0.01-0.024,0.022-0.037,0.032c-0.072,0.059-0.137,0.124-0.207,0.185
			c-0.173,0.15-0.346,0.3-0.509,0.462c-0.005,0.005-0.01,0.009-0.015,0.013c-0.034,0.034-0.062,0.071-0.095,0.105
			c-0.007,0.007-0.013,0.015-0.02,0.022c-0.18,0.186-0.358,0.375-0.524,0.577c-0.007,0.009-0.014,0.018-0.021,0.027
			c-0.081,0.099-0.152,0.204-0.229,0.305c-0.109,0.144-0.223,0.284-0.325,0.436c-0.01,0.015-0.018,0.03-0.028,0.044
			c-0.102,0.152-0.19,0.31-0.283,0.466c-0.074,0.124-0.152,0.245-0.221,0.373c-0.084,0.157-0.155,0.318-0.23,0.478
			c-0.064,0.136-0.132,0.27-0.19,0.409c-0.064,0.155-0.116,0.313-0.172,0.47c-0.054,0.151-0.112,0.3-0.159,0.454
			c-0.002,0.007-0.006,0.015-0.008,0.022v0.001c-0.045,0.15-0.077,0.303-0.115,0.455c-0.039,0.156-0.083,0.31-0.115,0.469
			c-0.041,0.204-0.066,0.408-0.093,0.612c-0.016,0.118-0.039,0.234-0.051,0.353c-0.031,0.308-0.045,0.616-0.047,0.922
			c0,0.024-0.003,0.049-0.003,0.073c0,0.239,0.017,0.476,0.034,0.713c0.006,0.087,0.006,0.174,0.014,0.26
			c0.017,0.174,0.048,0.345,0.075,0.517c0.023,0.151,0.039,0.304,0.069,0.454c0.002,0.012,0.004,0.023,0.006,0.035
			c0.03,0.151,0.074,0.297,0.111,0.446c0.039,0.157,0.073,0.315,0.12,0.47c0.001,0.005,0.003,0.009,0.004,0.014
			c0.046,0.153,0.104,0.3,0.158,0.449c0.056,0.157,0.108,0.314,0.172,0.469c0.058,0.14,0.126,0.274,0.19,0.41
			c0.075,0.16,0.146,0.321,0.23,0.477c0.068,0.128,0.147,0.249,0.221,0.373c0.093,0.156,0.181,0.314,0.283,0.466
			c0.077,0.114,0.163,0.221,0.244,0.333c0.101,0.139,0.197,0.281,0.305,0.414c0.011,0.013,0.022,0.025,0.033,0.038
			c0.061,0.074,0.128,0.141,0.191,0.213c0.148,0.17,0.295,0.341,0.455,0.501c0.005,0.005,0.009,0.01,0.014,0.016l100,100
			c1.955,1.954,4.513,2.93,7.073,2.93s5.118-0.976,7.071-2.929c3.905-3.905,3.905-10.237,0-14.143l-64.255-64.255l73.338,30.558
			c1.257,0.524,2.56,0.771,3.842,0.771c3.916,0,7.635-2.315,9.234-6.156C367.355,70.748,364.945,64.894,359.847,62.769z"/>
	</g>
</g>
<g>
	<g>
		<path d="M405.801,20.05c-0.12-0.64-0.32-1.27-0.57-1.88c-0.25-0.6-0.56-1.18-0.92-1.72c-0.359-0.55-0.779-1.06-1.24-1.52
			c-0.46-0.46-0.97-0.88-1.52-1.24c-0.54-0.36-1.12-0.67-1.73-0.92c-0.6-0.25-1.229-0.44-1.869-0.57c-1.29-0.26-2.62-0.26-3.9,0
			c-0.64,0.13-1.27,0.32-1.88,0.57c-0.601,0.25-1.18,0.56-1.72,0.92c-0.551,0.36-1.061,0.78-1.521,1.24
			c-0.46,0.46-0.88,0.97-1.24,1.52c-0.37,0.54-0.67,1.12-0.92,1.72c-0.25,0.61-0.45,1.24-0.569,1.88c-0.131,0.64-0.2,1.3-0.2,1.95
			s0.069,1.31,0.2,1.95c0.119,0.64,0.319,1.27,0.569,1.88c0.25,0.6,0.55,1.18,0.92,1.72c0.36,0.55,0.78,1.06,1.24,1.52
			c0.46,0.46,0.97,0.88,1.521,1.24c0.54,0.36,1.119,0.67,1.72,0.92c0.61,0.25,1.24,0.45,1.88,0.58s1.3,0.19,1.95,0.19
			c0.649,0,1.31-0.06,1.95-0.19s1.27-0.33,1.869-0.58c0.61-0.25,1.19-0.56,1.73-0.92c0.55-0.36,1.06-0.78,1.52-1.24
			c0.461-0.46,0.881-0.97,1.24-1.52c0.36-0.54,0.67-1.12,0.92-1.72c0.25-0.61,0.45-1.24,0.57-1.88c0.13-0.64,0.2-1.3,0.2-1.95
			C406.001,21.35,405.931,20.69,405.801,20.05z"/>
	</g>
</g>
<g>
	<g>
		<path d="M395.8,118.05c-0.119-0.64-0.32-1.27-0.57-1.87c-0.25-0.61-0.56-1.19-0.92-1.73c-0.359-0.55-0.779-1.06-1.24-1.52
			c-0.46-0.46-0.97-0.88-1.52-1.24c-0.54-0.36-1.12-0.67-1.73-0.92c-0.6-0.25-1.229-0.45-1.869-0.57c-1.29-0.26-2.62-0.26-3.9,0
			c-0.64,0.12-1.27,0.32-1.87,0.57c-0.61,0.25-1.189,0.56-1.729,0.92c-0.551,0.36-1.061,0.78-1.521,1.24
			c-0.46,0.46-0.88,0.97-1.24,1.52c-0.37,0.54-0.67,1.12-0.92,1.73c-0.25,0.6-0.45,1.23-0.58,1.87c-0.13,0.64-0.19,1.3-0.19,1.95
			c0,2.63,1.069,5.21,2.93,7.07c0.46,0.46,0.97,0.88,1.521,1.24c0.54,0.36,1.119,0.67,1.729,0.92c0.601,0.25,1.23,0.45,1.87,0.57
			c0.64,0.13,1.3,0.2,1.95,0.2c0.649,0,1.31-0.07,1.95-0.2c0.64-0.12,1.27-0.32,1.869-0.57c0.61-0.25,1.19-0.56,1.73-0.92
			c0.55-0.36,1.06-0.78,1.52-1.24c0.461-0.46,0.881-0.97,1.24-1.52c0.36-0.54,0.67-1.12,0.92-1.72c0.25-0.61,0.45-1.24,0.57-1.88
			c0.13-0.64,0.2-1.3,0.2-1.95S395.93,118.69,395.8,118.05z"/>
	</g>
</g>
<g>
	<g>
		<path d="M423.07,74.93c-0.46-0.46-0.97-0.88-1.52-1.24c-0.54-0.36-1.12-0.67-1.73-0.92c-0.6-0.25-1.229-0.45-1.869-0.57
			c-1.29-0.26-2.61-0.26-3.9,0c-0.64,0.12-1.27,0.32-1.87,0.57c-0.61,0.25-1.189,0.56-1.729,0.92c-0.551,0.36-1.061,0.78-1.521,1.24
			c-1.86,1.86-2.93,4.44-2.93,7.07c0,0.65,0.06,1.31,0.189,1.95c0.13,0.64,0.33,1.27,0.58,1.87c0.25,0.61,0.55,1.19,0.92,1.73
			c0.36,0.55,0.78,1.06,1.24,1.52c0.46,0.46,0.97,0.88,1.521,1.24c0.54,0.37,1.119,0.67,1.729,0.92c0.601,0.25,1.23,0.45,1.87,0.58
			c0.64,0.13,1.3,0.19,1.95,0.19c0.649,0,1.31-0.06,1.95-0.19s1.27-0.33,1.869-0.58c0.61-0.25,1.19-0.55,1.73-0.92
			c0.55-0.36,1.06-0.78,1.52-1.24c0.461-0.46,0.881-0.97,1.24-1.52c0.36-0.54,0.67-1.12,0.92-1.73c0.25-0.6,0.45-1.23,0.57-1.87
			c0.13-0.64,0.2-1.3,0.2-1.95C426.001,79.37,424.931,76.79,423.07,74.93z"/>
	</g>
</g>
<g>
	<g>
		<path d="M385.8,180.05c-0.119-0.64-0.32-1.27-0.57-1.88c-0.25-0.6-0.56-1.18-0.92-1.72c-0.359-0.55-0.779-1.06-1.24-1.52
			c-0.46-0.46-0.97-0.88-1.52-1.24c-0.54-0.36-1.12-0.67-1.73-0.92c-0.6-0.25-1.229-0.45-1.869-0.57c-1.29-0.26-2.61-0.26-3.9,0
			c-0.64,0.12-1.27,0.32-1.87,0.57c-0.61,0.25-1.189,0.56-1.729,0.92c-0.551,0.36-1.061,0.78-1.521,1.24
			c-0.46,0.46-0.88,0.97-1.24,1.52c-0.37,0.54-0.67,1.12-0.92,1.72c-0.25,0.61-0.45,1.24-0.569,1.88c-0.131,0.64-0.2,1.3-0.2,1.95
			c0,0.65,0.069,1.31,0.2,1.95c0.119,0.64,0.319,1.27,0.569,1.88c0.25,0.6,0.55,1.18,0.92,1.72c0.36,0.55,0.78,1.06,1.24,1.52
			c0.46,0.46,0.97,0.88,1.521,1.24c0.54,0.36,1.119,0.67,1.729,0.92c0.601,0.25,1.23,0.45,1.87,0.57c0.64,0.13,1.3,0.2,1.95,0.2
			c0.649,0,1.31-0.07,1.95-0.2c0.64-0.12,1.27-0.32,1.869-0.57c0.61-0.25,1.19-0.56,1.73-0.92c0.55-0.36,1.06-0.78,1.52-1.24
			c0.461-0.46,0.881-0.97,1.24-1.52c0.36-0.54,0.67-1.12,0.92-1.72c0.25-0.61,0.45-1.24,0.57-1.88c0.13-0.64,0.2-1.3,0.2-1.95
			C386,181.35,385.93,180.69,385.8,180.05z"/>
	</g>
</g>
<g>
	<g>
		<path d="M164.071,322.21c-0.46-0.46-0.97-0.88-1.52-1.24c-0.54-0.36-1.12-0.67-1.73-0.92c-0.6-0.25-1.23-0.44-1.87-0.57
			c-3.25-0.66-6.7,0.41-9.02,2.73c-1.86,1.86-2.93,4.44-2.93,7.07c0,0.65,0.07,1.31,0.2,1.96c0.12,0.63,0.32,1.26,0.57,1.87
			c0.25,0.6,0.56,1.18,0.92,1.72c0.36,0.55,0.78,1.06,1.24,1.52c1.86,1.86,4.44,2.93,7.07,2.93c0.65,0,1.31-0.06,1.95-0.19
			c0.64-0.13,1.27-0.32,1.87-0.57c0.61-0.25,1.19-0.56,1.73-0.92c0.55-0.37,1.06-0.79,1.52-1.25c0.46-0.46,0.88-0.97,1.24-1.52
			c0.36-0.54,0.67-1.12,0.92-1.72c0.25-0.61,0.45-1.24,0.57-1.87c0.13-0.65,0.2-1.31,0.2-1.96
			C167.001,326.65,165.931,324.07,164.071,322.21z"/>
	</g>
</g>
<g>
</g>
<g>
</g>
<g>
</g>
<g>
</g>
<g>
</g>
<g>
</g>
<g>
</g>
<g>
</g>
<g>
</g>
<g>
</g>
<g>
</g>
<g>
</g>
<g>
</g>
<g>
</g>
<g>
</g>
</svg>
