<svg id="Capa_1" enable-background="new 0 0 512 512" height="512" viewBox="0 0 512 512" width="512" xmlns="http://www.w3.org/2000/svg"><g><path d="m391.204 419.912-65.503-3.339c-2.785-6.092-8.923-10.344-16.047-10.344h-79.879v-264.148c0-5.373-2.401-10.387-6.589-13.754-1.7-1.368-3.604-2.383-5.615-3.037v-107.64c0-9.732-7.918-17.65-17.651-17.65h-22.273c-4.142 0-7.5 3.357-7.5 7.5s3.358 7.5 7.5 7.5h22.273c1.462 0 2.651 1.188 2.651 2.65v20.608h-120.432v-20.608c0-1.461 1.189-2.65 2.651-2.65h55.83c4.142 0 7.5-3.357 7.5-7.5s-3.358-7.5-7.5-7.5h-55.83c-9.733 0-17.651 7.918-17.651 17.65v138.293c-7.163 2.337-12.204 9.135-12.204 16.78v101.383c0 4.143 3.358 7.5 7.5 7.5s7.5-3.357 7.5-7.5v-101.383c0-1.235.875-2.323 2.082-2.589l92.348-20.279v256.791c-18.676 2.036-35.119 11.583-46.258 25.546v-226.553c0-4.143-3.358-7.5-7.5-7.5s-7.5 3.357-7.5 7.5v288.711c0 .903.09 1.783.221 2.65h-30.743c-1.461 0-2.65-1.189-2.65-2.65v-183.218c0-4.143-3.358-7.5-7.5-7.5s-7.5 3.357-7.5 7.5v183.218c0 9.732 7.918 17.65 17.65 17.65h135.444c4.142 0 7.5-3.357 7.5-7.5s-3.358-7.5-7.5-7.5h-87.271c-1.461 0-2.65-1.188-2.65-2.65v-19.362c0-29.643 24.116-53.758 53.758-53.758h137.789c1.461 0 2.65 1.189 2.65 2.65v70.47c0 1.462-1.189 2.65-2.65 2.65h-64.598c-4.142 0-7.5 3.357-7.5 7.5s3.358 7.5 7.5 7.5h64.598c7.125 0 13.262-4.252 16.047-10.344l65.503-3.339c9.393-.479 16.751-8.223 16.751-17.628v-43.149c0-9.405-7.358-17.148-16.752-17.628zm-188.633-366.653v72.85l-120.432 26.445v-61.296h44.164c4.142 0 7.5-3.357 7.5-7.5s-3.358-7.5-7.5-7.5h-44.164v-22.999zm8.985 86.233c1.078-.235 1.86.227 2.229.523.37.297.989.961.989 2.065v264.148h-35.41v-259.667zm181.4 341.197c0 1.412-1.105 2.575-2.516 2.647l-63.136 3.218v-54.881l63.136 3.218c1.411.072 2.516 1.235 2.516 2.647z"/><path d="m126.303 104.877h-23.543c-4.142 0-7.5 3.357-7.5 7.5s3.358 7.5 7.5 7.5h23.543c4.142 0 7.5-3.357 7.5-7.5s-3.358-7.5-7.5-7.5z"/><path d="m449.587 451.633-10.569-.031c-.007 0-.015 0-.022 0-4.132 0-7.487 3.344-7.5 7.478-.012 4.143 3.336 7.51 7.478 7.522l10.569.031h.022c4.132 0 7.487-3.344 7.5-7.478.012-4.142-3.336-7.509-7.478-7.522z"/><path d="m434.499 440.186c1.311 0 2.64-.344 3.846-1.066l9.168-5.491c3.554-2.129 4.709-6.734 2.581-10.288s-6.735-4.71-10.288-2.581l-9.168 5.491c-3.554 2.129-4.709 6.734-2.581 10.288 1.406 2.346 3.892 3.647 6.442 3.647z"/><path d="m447.376 484.626-9.138-5.547c-3.541-2.149-8.153-1.021-10.303 2.52s-1.021 8.153 2.52 10.303l9.138 5.547c1.216.738 2.559 1.09 3.884 1.09 2.534 0 5.007-1.284 6.418-3.609 2.15-3.542 1.022-8.155-2.519-10.304z"/></g></svg>