<?xml version="1.0" encoding="iso-8859-1"?>
<!-- Generator: Adobe Illustrator 19.0.0, SVG Export Plug-In . SVG Version: 6.00 Build 0)  -->
<svg version="1.1" id="Capa_1" xmlns="http://www.w3.org/2000/svg" xmlns:xlink="http://www.w3.org/1999/xlink" x="0px" y="0px"
	 viewBox="0 0 512 512" style="enable-background:new 0 0 512 512;" xml:space="preserve">
<g>
	<g>
		<path d="M496.187,148.003c-0.073-0.147-0.142-0.296-0.225-0.44c-0.114-0.197-0.238-0.383-0.366-0.566
			c-20.808-35.44-59.319-59.288-103.302-59.288c-0.001,0-0.001,0-0.002,0c-0.001,0-0.001,0-0.002,0c-0.002,0-0.005,0-0.008,0
			c-1.39,0-2.772,0.033-4.151,0.08c-0.369,0.012-0.737,0.026-1.105,0.042c-1.325,0.058-2.647,0.13-3.961,0.23
			c-0.322,0.024-0.642,0.059-0.964,0.086c-0.996,0.084-1.988,0.181-2.977,0.289c-0.551,0.06-1.102,0.122-1.652,0.189
			c-0.969,0.12-1.933,0.253-2.894,0.396c-0.863,0.128-1.722,0.27-2.58,0.416c-0.491,0.084-0.981,0.17-1.469,0.26
			c-2.715,0.498-5.406,1.091-8.071,1.775c-0.032,0.008-0.064,0.016-0.095,0.025c-14.281,3.677-27.803,9.984-40.008,18.788
			c-0.143,0.09-0.284,0.185-0.422,0.285c-54.225,39.399-77.64,39.398-131.863,0c-0.138-0.1-0.278-0.195-0.421-0.284
			c-20.48-14.77-44.652-22.576-69.939-22.576C53.702,87.71,0,141.411,0,207.419c0,27.284,9.27,53.577,26.217,74.744
			c-3.595,4.492-6.873,9.246-9.801,14.231c-0.133,0.189-0.261,0.382-0.379,0.586c-0.087,0.151-0.16,0.305-0.235,0.459
			C5.752,314.953,0,335.234,0,356.834c0,21.604,5.754,41.889,15.808,59.405c0.074,0.15,0.144,0.301,0.229,0.448
			c0.081,0.14,0.178,0.264,0.266,0.397c20.784,35.533,59.349,59.457,103.402,59.457c44.053,0,82.618-23.923,103.402-59.456
			c0.088-0.133,0.186-0.257,0.267-0.397c0.085-0.147,0.155-0.298,0.229-0.448c10.054-17.516,15.808-37.801,15.808-59.405
			c0-21.6-5.752-41.881-15.803-59.395c-0.075-0.154-0.148-0.308-0.235-0.459c-0.118-0.204-0.246-0.397-0.379-0.586
			c-9.854-16.776-23.676-30.95-40.169-41.227c10.39-13.69,16.044-30.322,16.044-47.748c0-43.654-35.511-79.17-79.16-79.17
			c-43.654,0-79.17,35.516-79.17,79.17c0,8.991,1.498,17.82,4.453,26.242c1.371,3.909,5.653,5.965,9.56,4.595
			c3.909-1.371,5.965-5.651,4.594-9.56c-2.394-6.822-3.607-13.981-3.607-21.277c0-35.384,28.787-64.17,64.17-64.17
			c35.378,0,64.16,28.786,64.16,64.17c0,14.911-5.102,29.108-14.445,40.534c-15.151-6.946-31.99-10.825-49.719-10.825
			c-32.318,0-61.68,12.879-83.239,33.766C22.585,252.719,15,230.479,15,207.419c0-57.737,46.973-104.71,104.71-104.71
			c22.269,0,43.548,6.921,61.537,20.014c0.138,0.101,0.278,0.195,0.421,0.285c43.376,31.441,71.468,39.754,106.758,24.944
			c-0.012,0.023-0.024,0.046-0.036,0.069c-10.05,17.513-15.802,37.794-15.802,59.393c0,21.556,5.73,41.798,15.742,59.287
			c-19.284-8.063-37.797-9.624-58.781-2.237c-3.907,1.375-5.959,5.658-4.583,9.566c1.376,3.906,5.657,5.959,9.565,4.583
			c26.241-9.236,48.294-2.767,87.401,25.644c0.138,0.101,0.278,0.195,0.422,0.285c12.137,8.754,25.576,15.04,39.77,18.726
			c0.179,0.047,0.359,0.093,0.538,0.139c2.536,0.646,5.095,1.211,7.676,1.689c0.643,0.12,1.288,0.233,1.935,0.342
			c0.592,0.099,1.182,0.204,1.776,0.295c1.18,0.181,2.366,0.34,3.557,0.486c0.45,0.055,0.901,0.105,1.352,0.155
			c1.164,0.129,2.331,0.245,3.505,0.341c0.17,0.014,0.339,0.032,0.51,0.045c1.393,0.108,2.796,0.185,4.202,0.244
			c0.267,0.011,0.535,0.021,0.802,0.031c1.434,0.051,2.872,0.086,4.318,0.086c44.054,0,82.62-23.925,103.404-59.46
			c0.088-0.132,0.184-0.254,0.264-0.393c0.084-0.146,0.154-0.295,0.227-0.444c1.304-2.271,2.531-4.591,3.687-6.952
			c7.759-15.848,12.123-33.65,12.123-52.453c0-0.001,0-0.001,0-0.002c0-0.001,0-0.001,0-0.002
			C512,185.809,506.244,165.521,496.187,148.003z M112.206,252.399v17.105c0,4.143,3.358,7.5,7.5,7.5c4.142,0,7.5-3.357,7.5-7.5
			v-17.105c32.892,2.339,61.633,19.936,79.164,45.739l-14.785,8.536c-3.587,2.071-4.816,6.658-2.745,10.245
			c1.389,2.406,3.91,3.751,6.502,3.751c1.272,0,2.563-0.324,3.743-1.006l14.805-8.548c6.736,13.822,10.522,29.335,10.522,45.718
			c0,16.382-3.785,31.895-10.521,45.717l-14.805-8.547c-3.587-2.07-8.175-0.843-10.245,2.745c-2.071,3.587-0.842,8.174,2.745,10.245
			l14.785,8.536c-17.531,25.803-46.272,43.4-79.165,45.739v-17.105c0-4.143-3.358-7.5-7.5-7.5c-4.142,0-7.5,3.357-7.5,7.5v17.105
			c-32.893-2.34-61.633-19.936-79.165-45.739l14.785-8.536c3.587-2.071,4.816-6.658,2.745-10.245
			c-2.072-3.588-6.659-4.815-10.245-2.745l-14.805,8.547C18.785,388.729,15,373.216,15,356.834c0-16.382,3.785-31.896,10.522-45.718
			l14.804,8.548c1.181,0.682,2.471,1.006,3.743,1.006c2.592,0,5.113-1.345,6.502-3.751c2.071-3.587,0.842-8.174-2.745-10.245
			l-14.785-8.536C50.573,272.336,79.314,254.74,112.206,252.399z M486.862,252.336c-0.127,0.266-0.255,0.532-0.384,0.797
			l-14.805-8.548c-3.586-2.07-8.174-0.843-10.245,2.745c-2.071,3.587-0.842,8.174,2.745,10.245l14.784,8.536
			c-17.531,25.8-46.272,43.396-79.164,45.736v-17.103c0-4.143-3.357-7.5-7.5-7.5s-7.5,3.357-7.5,7.5v17.098
			c-0.233-0.016-0.468-0.023-0.701-0.041c-0.154-0.012-0.307-0.028-0.46-0.041c-1.035-0.085-2.067-0.189-3.096-0.303
			c-0.376-0.042-0.753-0.083-1.128-0.129c-1.053-0.129-2.103-0.273-3.15-0.434c-0.508-0.078-1.013-0.167-1.518-0.252
			c-0.591-0.1-1.181-0.206-1.77-0.315c-1.375-0.258-2.741-0.538-4.096-0.848c-0.068-0.015-0.137-0.029-0.204-0.045
			c-0.771-0.178-1.537-0.368-2.301-0.563c-0.181-0.046-0.36-0.094-0.54-0.141c-10.69-2.795-20.72-7.238-29.798-13.046
			c-0.087-0.056-0.174-0.112-0.261-0.167c-11.916-7.672-22.182-17.694-30.139-29.406l14.785-8.536
			c3.587-2.071,4.816-6.658,2.745-10.245c-2.072-3.588-6.659-4.814-10.245-2.745l-14.805,8.548
			c-6.736-13.822-10.522-29.335-10.522-45.717c0-16.382,3.784-31.896,10.52-45.718l14.805,8.547
			c1.182,0.683,2.471,1.006,3.743,1.006c2.592,0,5.113-1.345,6.502-3.751c2.071-3.588,0.842-8.175-2.745-10.245l-14.785-8.536
			c14.118-20.779,35.504-36.239,60.474-42.694c0.029-0.008,0.059-0.015,0.088-0.023c2.299-0.592,4.63-1.103,6.987-1.539
			c0.438-0.081,0.877-0.159,1.317-0.234c0.621-0.107,1.242-0.214,1.867-0.31c0.971-0.148,1.945-0.282,2.922-0.402
			c0.474-0.059,0.95-0.111,1.426-0.164c0.861-0.094,1.725-0.18,2.59-0.254c0.297-0.025,0.592-0.056,0.889-0.079
			c0.201-0.015,0.404-0.021,0.605-0.035v17.1c0,4.143,3.357,7.5,7.5,7.5s7.5-3.357,7.5-7.5v-17.104
			c32.892,2.341,61.632,19.937,79.163,45.739l-14.784,8.535c-3.587,2.071-4.816,6.658-2.745,10.245
			c1.389,2.406,3.91,3.751,6.502,3.751c1.272,0,2.563-0.324,3.743-1.006l14.803-8.547C493.214,175.521,497,191.034,497,207.417
			C497,223.484,493.357,238.716,486.862,252.336z"/>
	</g>
</g>
<g>
	<g>
		<path d="M420.453,232.123l-13.575-25.184c4.145-1.243,7.443-3.591,9.897-7.047c2.451-3.453,3.679-8.014,3.679-13.679
			c0-14.439-8.186-21.659-24.56-21.659h-20.52c-1.243,0-2.279,0.414-3.108,1.243c-0.829,0.829-1.244,1.798-1.244,2.901v67.361
			c-0.001,1.314,0.672,2.35,2.02,3.11c1.347,0.761,2.917,1.14,4.715,1.14c1.865,0,3.454-0.379,4.767-1.14
			c1.313-0.76,1.97-1.796,1.97-3.109v-27.048h8.705l14.716,28.603c1.104,2.143,2.658,3.213,4.663,3.213
			c2.003,0,3.902-0.742,5.7-2.229c1.796-1.484,2.694-3.091,2.694-4.819C420.972,233.091,420.798,232.537,420.453,232.123z
			 M395.892,198.442h-11.399v-22.074h11.399c7.392,0,11.089,3.697,11.089,11.089C406.981,194.781,403.284,198.442,395.892,198.442z"
			/>
	</g>
</g>
<g>
	<g>
		<path d="M140.146,379.676c-0.726-1.174-1.71-1.762-2.954-1.762h-25.287v-59.796c0-1.381-0.657-2.417-1.969-3.108
			c-1.313-0.69-2.902-1.036-4.767-1.036s-3.455,0.346-4.767,1.036c-1.313,0.691-1.969,1.728-1.969,3.108v67.361
			c0,1.314,0.586,2.35,1.761,3.11c1.174,0.761,2.555,1.14,4.146,1.14h32.852c1.244,0,2.228-0.586,2.954-1.762
			c0.725-1.174,1.088-2.556,1.088-4.146C141.234,382.232,140.871,380.851,140.146,379.676z"/>
	</g>
</g>
<g>
	<g>
		<path d="M222.306,53.792h-10.833V42.958c0-4.143-3.358-7.5-7.5-7.5c-4.142,0-7.5,3.357-7.5,7.5v10.833h-10.834
			c-4.142,0-7.5,3.357-7.5,7.5s3.358,7.5,7.5,7.5h10.834v10.834c0,4.143,3.358,7.5,7.5,7.5c4.142,0,7.5-3.357,7.5-7.5V68.792h10.833
			c4.142,0,7.5-3.357,7.5-7.5S226.448,53.792,222.306,53.792z"/>
	</g>
</g>
<g>
	<g>
		<path d="M375.408,376.331c-11.461-2.2-16.505-3.961-19.272-6.729c-2.768-2.768-4.528-7.811-6.729-19.273
			c-0.678-3.533-3.768-6.087-7.365-6.087s-6.688,2.554-7.365,6.087c-2.2,11.462-3.961,16.505-6.729,19.273
			c-2.769,2.768-7.813,4.528-19.273,6.729c-3.533,0.678-6.087,3.769-6.087,7.365c0,3.597,2.554,6.688,6.087,7.365
			c11.461,2.2,16.505,3.961,19.273,6.728c2.768,2.769,4.528,7.812,6.729,19.274c0.678,3.533,3.769,6.087,7.365,6.087
			c3.597,0,6.688-2.554,7.365-6.087c2.2-11.462,3.961-16.506,6.729-19.274c2.768-2.768,7.812-4.528,19.272-6.728
			c3.533-0.678,6.087-3.769,6.087-7.365C381.495,380.101,378.941,377.01,375.408,376.331z M342.042,391.568
			c-2.061-3.274-4.598-5.811-7.873-7.872c3.275-2.062,5.812-4.598,7.873-7.872c2.061,3.274,4.598,5.811,7.872,7.872
			C346.64,385.758,344.103,388.294,342.042,391.568z"/>
	</g>
</g>
<g>
</g>
<g>
</g>
<g>
</g>
<g>
</g>
<g>
</g>
<g>
</g>
<g>
</g>
<g>
</g>
<g>
</g>
<g>
</g>
<g>
</g>
<g>
</g>
<g>
</g>
<g>
</g>
<g>
</g>
</svg>
