<svg id="Capa_1" enable-background="new 0 0 512.001 512.001" height="512" viewBox="0 0 512.001 512.001" width="512" xmlns="http://www.w3.org/2000/svg"><g><path d="m261.545 421.406h-11.01c-4.143 0-7.5 3.357-7.5 7.5s3.357 7.5 7.5 7.5h11.01c4.143 0 7.5-3.357 7.5-7.5s-3.357-7.5-7.5-7.5z"/><path d="m269.984 275.844c-2.116-3.562-6.717-4.734-10.278-2.618-3.406 2.024-8.276 6.371-10.307 12.236-14.581 3.07-25.562 16.031-25.562 31.512 0 17.757 14.446 32.203 32.204 32.203s32.204-14.446 32.204-32.203c0-14.022-9.011-25.973-21.544-30.383.252-.191.494-.361.713-.497 3.524-2.128 4.676-6.705 2.57-10.25zm3.261 41.13c0 9.485-7.718 17.203-17.204 17.203s-17.204-7.718-17.204-17.203c0-9.481 7.71-17.195 17.189-17.203h.005c.004 0 .008-.001.012-.001 9.485.001 17.202 7.718 17.202 17.204z"/><path d="m335.612 83.611c0-10.571-5.09-20.606-13.613-26.842-.722-.528-1.445-1.052-2.168-1.575l-.399-.289c-3.355-2.428-8.045-1.677-10.474 1.679-2.428 3.355-1.677 8.045 1.679 10.474l.402.291c.699.506 1.399 1.012 2.1 1.524 4.68 3.424 7.474 8.934 7.474 14.738v301.069c-42.88 8.316-86.261 8.316-129.143 0v-358.614c0-3.392 1.522-6.551 4.178-8.669 2.612-2.082 5.968-2.856 9.199-2.117 26.437 6.029 53.047 17.568 81.354 35.275 3.514 2.196 8.14 1.131 10.336-2.381s1.131-8.14-2.381-10.336c-29.752-18.611-57.874-30.774-85.973-37.184-7.712-1.761-15.688.07-21.889 5.016-6.243 4.979-9.824 12.414-9.824 20.396 2.744 348.876-7.084 384.603 10.752 466.739 2.415 11.123 12.42 19.196 23.787 19.196h37.533c4.143 0 7.5-3.357 7.5-7.5s-3.357-7.5-7.5-7.5h-37.533c-4.361 0-8.2-3.104-9.129-7.38-6.459-29.745-9.931-59.863-10.363-89.666 21.432 3.975 42.978 5.963 64.526 5.963 21.543 0 43.085-1.987 64.512-5.96-.432 29.802-3.903 59.919-10.363 89.664-.929 4.276-4.768 7.38-9.129 7.38h-22.534c-4.143 0-7.5 3.357-7.5 7.5s3.357 7.5 7.5 7.5h22.534c11.367 0 21.371-8.073 23.787-19.196 17.573-80.925 8.068-114.373 10.762-409.195z"/><path d="m289.922 99.246c0-7.869-6.401-14.271-14.271-14.271h-39.223c-7.869 0-14.271 6.401-14.271 14.271v89.75c0 4.143 3.357 7.5 7.5 7.5s7.5-3.357 7.5-7.5v-89.02h37.764v142.598h-37.764v-23.59c0-4.143-3.357-7.5-7.5-7.5s-7.5 3.357-7.5 7.5v24.319c0 7.869 6.401 14.271 14.271 14.271h39.223c7.869 0 14.271-6.401 14.271-14.271z"/></g></svg>