<svg id="Capa_1" enable-background="new 0 0 512 512" height="512" viewBox="0 0 512 512" width="512" xmlns="http://www.w3.org/2000/svg"><g><path d="m504.527 193.239c4.47-1.68 7.473-6.004 7.473-10.762v-24.88c0-3.627-1.654-6.964-4.54-9.155-2.886-2.193-6.547-2.893-10.041-1.92l-52.859 14.71c-2.612.728-5.311 1.096-8.02 1.096h-53.311v-85.264c0-6.626-3.825-12.792-9.746-15.708-13.952-6.872-28.585-10.438-44.733-10.903-12.953-.376-26.778 1.232-43.52 5.052-4.038.922-6.565 4.942-5.645 8.98.923 4.039 4.941 6.564 8.98 5.645 23.247-5.304 50.728-8.892 78.289 4.684.835.41 1.374 1.294 1.374 2.251v156.391c-74.589-16.097-149.871-16.097-224.46 0v-146.602c0-1.158.688-1.802 1.098-2.082.399-.273 1.229-.67 2.274-.264 37.657 14.579 74.787 4.02 107.547-5.298 3.984-1.133 6.295-5.281 5.162-9.266-1.134-3.984-5.281-6.299-9.266-5.162-30.493 8.673-65.056 18.502-98.021 5.74-5.365-2.084-11.412-1.387-16.169 1.87-4.775 3.269-7.626 8.674-7.626 14.461v75.474c-54.115-.339-54.478.812-61.329-1.096l-52.859-14.71c-3.497-.972-7.155-.273-10.041 1.92-2.884 2.192-4.538 5.529-4.538 9.156v24.88c0 4.758 3.003 9.082 7.469 10.76 4.391 1.652 7.341 5.904 7.341 10.58 0 4.683-2.95 8.938-7.298 10.575-4.493 1.659-7.512 5.99-7.512 10.776v23.989c0 4.785 3.019 9.116 7.468 10.759 4.392 1.653 7.342 5.91 7.342 10.592 0 4.676-2.95 8.928-7.298 10.564-4.493 1.659-7.512 5.99-7.512 10.775v24c0 4.758 3.003 9.082 7.477 10.763 4.387 1.645 7.333 5.896 7.333 10.577 0 4.683-2.946 8.934-7.337 10.579-4.47 1.68-7.473 6.004-7.473 10.761v24c0 4.758 3.003 9.082 7.477 10.763 4.387 1.645 7.333 5.896 7.333 10.578s-2.946 8.933-7.337 10.578c-4.47 1.68-7.473 6.004-7.473 10.762v24.88c0 3.63 1.656 6.97 4.545 9.164 2.919 2.217 6.59 2.883 10.037 1.92l52.858-14.719c7.423-2.067-4.546-.907 261.42-1.096 4.143-.003 7.5-3.357 7.5-7.5s-3.357-7.5-7.5-7.5h-251.009v-253.029h50.919v59.598c-3.611.885-7.221 1.794-10.828 2.755-9.565 2.547-16.246 11.259-16.246 21.185v51.128c0 4.143 3.357 7.5 7.5 7.5s7.5-3.357 7.5-7.5v-51.128c0-3.139 2.1-5.89 5.105-6.69 89.049-23.715 179.35-23.715 268.398 0 3.006.801 5.105 3.552 5.105 6.69v51.128c0 4.143 3.357 7.5 7.5 7.5s7.5-3.357 7.5-7.5v-51.128c0-9.926-6.681-18.638-16.246-21.185-3.608-.961-7.218-1.87-10.829-2.755v-59.598h50.92v253.029h-70.289c-4.143 0-7.5 3.357-7.5 7.5s3.357 7.49 7.5 7.5c75.576.178 73.814-.822 80.698 1.096l52.86 14.72c7.319 2.038 14.581-3.457 14.581-11.085v-24.88c0-4.758-3.003-9.082-7.477-10.763-4.387-1.645-7.333-5.896-7.333-10.577 0-4.683 2.946-8.934 7.337-10.579 4.47-1.68 7.473-6.004 7.473-10.762v-24c0-4.757-3.003-9.081-7.477-10.762-4.387-1.645-7.333-5.896-7.333-10.578s2.946-8.933 7.337-10.578c4.47-1.68 7.473-6.004 7.473-10.762v-24c0-4.785-3.019-9.116-7.469-10.76-4.391-1.652-7.341-5.904-7.341-10.58 0-4.682 2.95-8.938 7.298-10.575 4.493-1.659 7.512-5.99 7.512-10.775v-23.989c0-4.785-3.019-9.116-7.469-10.76-4.391-1.652-7.341-5.908-7.341-10.591.001-4.676 2.952-8.928 7.338-10.578zm-489.527 234.281c8.949-4.36 14.81-13.577 14.81-23.652 0-10.077-5.861-19.296-14.81-23.653v-19.375c8.949-4.36 14.81-13.577 14.81-23.653s-5.862-19.295-14.81-23.652v-19.377c8.948-4.368 14.81-13.585 14.81-23.65 0-10.057-5.846-19.268-14.81-23.656v-19.374c8.948-4.368 14.81-13.589 14.81-23.66 0-10.063-5.859-19.28-14.81-23.649v-17.959l47.851 13.316v256.634l-47.851 13.325zm482-247.353c-8.948 4.368-14.81 13.585-14.81 23.65 0 10.059 5.847 19.27 14.81 23.656v19.374c-8.949 4.368-14.81 13.59-14.81 23.66 0 10.053 5.847 19.259 14.81 23.646v19.381c-8.949 4.36-14.81 13.577-14.81 23.652 0 10.077 5.861 19.296 14.81 23.653v19.374c-8.949 4.36-14.81 13.577-14.81 23.653s5.861 19.295 14.81 23.652v17.965l-47.851-13.325v-256.633l47.851-13.316z"/><path d="m256 256.464c-17.708 0-34.459 4.584-47.167 12.907-13.688 8.964-21.226 21.207-21.226 34.474s7.538 25.51 21.226 34.474c12.708 8.323 29.459 12.907 47.167 12.907s34.459-4.584 47.167-12.907c13.688-8.964 21.226-21.207 21.226-34.474s-7.538-25.51-21.226-34.474c-12.708-8.324-29.459-12.907-47.167-12.907zm0 79.761c-28.941 0-53.393-14.829-53.393-32.381s24.451-32.381 53.393-32.381 53.393 14.829 53.393 32.381-24.452 32.381-53.393 32.381z"/></g></svg>