<svg id="Capa_1" enable-background="new 0 0 512 512" height="512" viewBox="0 0 512 512" width="512" xmlns="http://www.w3.org/2000/svg"><g><path d="m499.484 281.887c-13.43-31.364-35.965-57.999-67.021-79.26l9.25-52.462c.546-3.095-.146-6.218-1.949-8.793-.088-.125-.187-.239-.279-.36 4.056-6.367 11.068-13.805 17.914-21.056 16.56-17.54 33.684-35.678 25.764-53.552-8.061-18.206-36.732-29.244-60.876-33.502-24.148-4.26-54.875-3.698-68.686 10.658-13.546 14.092-3.657 36.994 5.906 59.142 3.952 9.152 7.997 18.536 9.632 25.904-.129.083-.262.156-.388.245-2.575 1.802-4.293 4.5-4.839 7.595l-5.533 31.38c-12.607-3.828-25.728-6.953-39.185-9.314v-26.052c0-6.877-5.599-12.472-12.482-12.472h-1.886v-55.499c0-22.241-22.485-39.651-41.347-50.339-5.738-3.251-12.562-3.21-18.26.109-5.698 3.32-9.1 9.241-9.1 15.837v33.577c0 4.143 3.358 7.501 7.501 7.501s7.501-3.358 7.501-7.501v-33.577c0-2.559 2.735-4.157 4.962-2.894 29.358 16.636 33.742 30.502 33.742 37.287v55.499h-38.703v-21.31c0-4.143-3.358-7.501-7.501-7.501s-7.501 3.358-7.501 7.501v21.31h-1.886c-6.883 0-12.482 5.595-12.482 12.472v22.195c-12.794 1.185-25.437 3.043-37.732 5.537-4.932-5.447-11.694-9.017-18.998-9.986l-4.603-26.085c-.634-3.58-2.62-6.701-5.594-8.787-2.984-2.094-6.6-2.896-10.185-2.262l-1.162.205-9.03-51.21c-1.431-8.107-9.193-13.543-17.297-12.11l-27.763 4.893c-3.927.693-7.35 2.873-9.637 6.14-2.288 3.267-3.166 7.229-2.473 11.156l9.029 51.212-1.161.205c-3.581.634-6.701 2.621-8.788 5.595-2.094 2.984-2.897 6.604-2.261 10.185l4.603 26.082c-9.708 5.064-16.337 15.107-16.705 26.462-.23 7.168-.352 15.502-.219 24.377-22.014 18.747-38.562 40.802-49.186 65.625-8.807 20.584-12.286 48.979-12.553 71.187-.68 41.015 8.142 96.715 35.68 126.837 12.343 13.501 27.04 20.346 43.68 20.346h49.576c4.143 0 7.501-3.358 7.501-7.501s-3.358-7.501-7.501-7.501h-49.576c-28.381 0-44.892-27.77-53.708-54.751h460.555c-5.787 17.369-13.274 30.877-20.959 39.284-9.383 10.263-20.353 15.467-32.608 15.467h-268.7c-4.143 0-7.501 3.358-7.501 7.501s3.358 7.501 7.501 7.501h268.699c16.641 0 31.337-6.846 43.68-20.346 11.675-12.771 20.385-31.663 27.175-54.599 11.086-37.449 12.797-104.056-4.047-143.427zm-13.792 5.903c1.202 2.808 2.308 5.817 3.324 8.991-18.028-20.998-43.221-38.841-74.44-52.579l5.431-30.784c.234.014.468.031.701.031.295 0 .59-.011.883-.034 29.904 19.897 51.478 44.895 64.101 74.375zm-59.314-137.044-8.319 47.185-45.326-7.992c-.027-.005-.052-.013-.078-.018s-.052-.005-.078-.01l-2.77-.488 8.319-47.185zm-48.942 55.256 27.782 4.898-4.854 27.513c-8.723-3.315-17.751-6.314-27.059-8.976zm-13.019-152.043c7.763-8.07 30.491-10.653 55.266-6.283 24.77 4.369 45.233 14.568 49.765 24.804 3.878 8.754-11 24.514-22.956 37.178-8.385 8.881-16.39 17.362-21.101 25.68l-41.064-7.24c-1.582-9.425-6.204-20.132-11.045-31.343-6.905-15.992-15.499-35.895-8.865-42.796zm-8.659 128.74-1.288 7.305c-.546 3.095.146 6.218 1.948 8.793 1.538 2.196 3.729 3.761 6.259 4.515l-3.93 22.301c-12.777-3.096-25.991-5.599-39.552-7.486v-44.364c12.568 2.306 24.818 5.29 36.563 8.936zm-119.004-47.709h67.439v81.308c-22.458-2.337-44.862-2.999-67.439-2.085zm-15.002 80.088c-5.313.388-10.598.843-15.828 1.41-4.361-15.738-9.839-30.966-14.333-42.487 9.872-1.855 19.962-3.285 30.161-4.271zm-71.751-63.672-56.775 10.009-4.115-23.317 56.774-10.013zm-57.937-81.794 27.622-4.87 9.018 51.14-27.623 4.872zm-15.075 122.759c.243-7.491 5.778-13.875 13.157-15.179l68.133-12.012c7.46-1.319 14.795 2.881 17.555 9.765 4.429 11.049 10.347 26.926 15.05 43.466-38.06 5.479-77.569 16.42-111.726 34.705-2.663-21.149-2.701-44.131-2.169-60.745zm-14.478 43.467c.529 8.517 1.362 17.131 2.624 25.397-16.646 10.442-30.751 22.36-42.051 35.514 5.917-18.633 19.256-41.312 39.427-60.911zm-41.01 179.667c-5.556-23.691-7.915-52.58-5.55-80.216.799-1.902 1.629-3.681 2.473-5.298 70.492-135.016 404.934-134.627 475.223 0 .858 1.642 1.699 3.449 2.511 5.385 2.404 28.052-.127 57.754-5.609 80.128h-469.048z"/><path d="m302.671 290.223h-93.27c-6.586 0-11.943 5.358-11.943 11.943v33.945c0 6.585 5.357 11.943 11.943 11.943h93.27c6.586 0 11.943-5.358 11.943-11.943v-33.945c0-6.585-5.357-11.943-11.943-11.943zm-3.059 42.83h-87.152v-27.828h87.152z"/></g></svg>