<svg id="Capa_1" enable-background="new 0 0 512 512" height="512" viewBox="0 0 512 512" width="512" xmlns="http://www.w3.org/2000/svg"><g><path d="m499.5 3.446h-200.89c-6.893 0-12.5 5.603-12.5 12.49v246.34c0 4.142 3.358 7.5 7.5 7.5s7.5-3.358 7.5-7.5v-243.83h195.89v392.26c0 18.014-10.931 30.212-22.99 38.19v-114.96c0-10.217-8.317-18.53-18.54-18.53h-112.83c-10.223 0-18.54 8.312-18.54 18.53v46.064c-3.919 2.159-6.795 4.524-8.627 7.116h-14.363v-89.84c0-4.142-3.358-7.5-7.5-7.5s-7.5 3.358-7.5 7.5v89.84h-101.728v-37.085c0-7.638-3.208-15.002-8.8-20.205s-13.167-7.872-20.786-7.318l-131.436 9.509c-13.099.948-23.36 11.979-23.36 25.112v10.406c0 4.142 3.358 7.5 7.5 7.5s7.5-3.358 7.5-7.5v-10.406c0-5.309 4.148-9.768 9.443-10.151l131.436-9.509c3.525-.257 6.897.931 9.487 3.34s4.017 5.684 4.017 9.222v89.17c0 3.538-1.426 6.812-4.016 9.222s-5.953 3.6-9.488 3.341l-131.435-9.51c-5.296-.383-9.444-4.842-9.444-10.152v-29.568c0-4.142-3.358-7.5-7.5-7.5s-7.5 3.358-7.5 7.5v29.568c0 13.134 10.261 24.165 23.361 25.112 0 0 132.75 9.581 133.407 9.581 6.939 0 13.706-2.638 18.814-7.39 5.592-5.203 8.799-12.567 8.799-20.205v-37.084h101.729v8.59c0 23.024 13.464 42.628 38.031 55.613.425 13.515 9.371 25.059 25.344 32.579 27.339 12.872 71.797 12.874 99.14 0 15.973-7.521 24.919-19.065 25.344-32.579 24.566-12.985 38.031-32.589 38.031-55.613v-394.77c0-6.887-5.607-12.49-12.5-12.49zm-170.589 391.17c11.322-8.567 54.733-14.818 66.386-10.022v20.042c-11.095 4.567-54.561-1.074-66.386-10.02zm-27.801 16.09v-8.59h14.363c1.832 2.592 4.709 4.958 8.627 7.116v39.664c-12.059-7.978-22.99-20.176-22.99-38.19zm157.9 54.61c0 18.336-30.89 28.23-59.955 28.23s-59.955-9.894-59.955-28.23v-50.2c.248.072.479.147.73.218 15.554 4.402 44.067 8.453 59.087 3.849 10.271-3.147 11.379-9.904 11.379-12.663v-23.808c0-2.759-1.109-9.516-11.379-12.663-15.086-4.624-43.57-.542-59.087 3.849-.252.071-.483.146-.731.218v-40.18c0-1.946 1.588-3.53 3.54-3.53h112.83c1.952 0 3.54 1.583 3.54 3.53v131.38z"/><path d="m34.386 271.072c2.378 13.588 14.116 23.45 27.91 23.45h107.277c13.794 0 25.533-9.862 27.911-23.45l27.302-156.017c1.458-8.333-.827-16.828-6.269-23.305s-13.415-10.192-21.875-10.192h-31.082v-56.545c0-7.209-5.865-13.075-13.075-13.075h-73.101c-7.209 0-13.075 5.865-13.075 13.075v56.546h-31.081c-8.46 0-16.433 3.715-21.875 10.192s-7.727 14.971-6.269 23.305zm116.175-244.134v14.318l-69.252 10.47v-24.788zm-69.252 39.958 69.252-10.47v25.133h-69.252zm-56.472 34.504c2.585-3.077 6.372-4.841 10.391-4.841h161.415c4.019 0 7.806 1.765 10.391 4.841s3.67 7.111 2.978 11.069l-27.302 156.017c-1.119 6.395-6.643 11.036-13.135 11.036h-107.279c-6.492 0-12.016-4.641-13.135-11.036l-27.302-156.017c-.692-3.958.393-7.993 2.978-11.069z"/></g></svg>