<svg id="Capa_1" enable-background="new 0 0 511.997 511.997" height="512" viewBox="0 0 511.997 511.997" width="512" xmlns="http://www.w3.org/2000/svg"><g><path d="m453.515 5.624c-2.668-2.393-6.237-3.54-9.804-3.154l-41.687 4.542c-5.324.581-9.863 3.469-12.703 7.595h-114.255c-4.143 0-7.5 3.357-7.5 7.5s3.357 7.5 7.5 7.5h30.46c1.525 0 2.767 1.241 2.767 2.767v19.516c0 1.526-1.241 2.768-2.767 2.768h-86.079v-25.052h18.592c4.142 0 7.5-3.357 7.5-7.5s-3.358-7.5-7.5-7.5h-18.89c-1.497-8.292-8.752-14.606-17.469-14.606h-31.162c-9.797 0-17.767 7.97-17.767 17.767v70.613h-20.851c-10.119 0-18.352 8.232-18.352 18.352v40.916h-.633c-16.103 0-29.204 13.101-29.204 29.203v3.577c0 8.923 7.259 16.182 16.182 16.182h3.8v27.643c-28.056 7.551-48.847 32.971-49.38 63.254-.013.182-.03 84.741-.03 84.741 0 4.143 3.358 7.5 7.5 7.5s7.5-3.357 7.5-7.5v-35.483h138.883c-.519 2.424-.799 4.935-.799 7.512 0 19.757 16.074 35.831 35.831 35.831s35.83-16.074 35.83-35.831c0-2.576-.279-5.088-.799-7.512h24.679v117.641h-233.624v-45.13c0-4.143-3.358-7.5-7.5-7.5s-7.5 3.357-7.5 7.5v71.528c0 17.2 13.994 31.194 31.194 31.194h201.237c17.2 0 31.194-13.994 31.194-31.194 0 0-.01-193.26-.036-193.51-.627-30.187-21.382-55.503-49.369-63.038v-27.645h3.8c8.923 0 16.182-7.259 16.182-16.182v-3.577c0-16.103-13.101-29.203-29.204-29.203h-.632v-40.916c0-10.119-8.233-18.352-18.353-18.352h-20.851v-18.724h86.079c8.244 0 15.174-5.653 17.17-13.28h66.626c2.84 4.126 7.379 7.013 12.704 7.594l41.686 4.543c.455.05.91.074 1.364.074 3.097 0 6.112-1.142 8.439-3.229 2.668-2.394 4.198-5.821 4.198-9.405v-40.925c.001-3.584-1.529-7.011-4.197-9.405zm-210.316 359.482c-11.486 0-20.831-9.345-20.831-20.831 0-11.485 9.345-20.83 20.831-20.83s20.83 9.345 20.83 20.83c0 11.487-9.344 20.831-20.83 20.831zm27.847-43.342c-6.574-8.117-16.613-13.318-27.848-13.318s-21.273 5.202-27.848 13.318h-146.066v-26.209h233.626v26.209zm15.669 175.233h-201.237c-8.93 0-16.194-7.265-16.194-16.194v-11.398h233.626v11.398c0 8.929-7.265 16.194-16.195 16.194zm15.549-216.442h-232.335c3.916-24.674 25.332-43.597 51.09-43.597h130.155c25.759 0 47.174 18.923 51.09 43.597zm-48.759-58.538c-.775-.027-1.549-.059-2.331-.059h-130.154c-.78 0-1.552.032-2.326.059v-25.408h134.812v25.408zm-9.855-115.286v40.916h-11.591c-4.142 0-7.5 3.357-7.5 7.5s3.358 7.5 7.5 7.5h27.224c7.832 0 14.204 6.371 14.204 14.203v3.577c0 .651-.53 1.182-1.182 1.182h-172.412c-.651 0-1.182-.53-1.182-1.182v-3.577c0-7.832 6.372-14.203 14.204-14.203h82.117c4.142 0 7.5-3.357 7.5-7.5s-3.358-7.5-7.5-7.5h-66.484v-40.916c0-1.848 1.503-3.352 3.352-3.352h108.398c1.848.001 3.352 1.505 3.352 3.352zm-75.899-18.351v-70.613c0-1.525 1.241-2.767 2.767-2.767h31.162c1.526 0 2.767 1.241 2.767 2.767v70.613zm218.432-58.774v11.771h-62.891v-9.004c0-.943-.095-1.863-.238-2.767zm56.53 23.709-39.063-4.257c-1.407-.153-2.468-1.335-2.468-2.75v-21.633c0-1.415 1.062-2.598 2.468-2.751l39.063-4.257z"/><path d="m97.331 401.724c-4.142 0-7.5 3.357-7.5 7.5s3.358 7.5 7.5 7.5h67.98c4.142 0 7.5-3.357 7.5-7.5s-3.358-7.5-7.5-7.5z"/><path d="m97.331 441.422h33.015c4.142 0 7.5-3.357 7.5-7.5s-3.358-7.5-7.5-7.5h-33.015c-4.142 0-7.5 3.357-7.5 7.5s3.357 7.5 7.5 7.5z"/><path d="m264.377 441.422c9.786 0 17.748-7.962 17.748-17.749v-8.226c0-9.787-7.962-17.749-17.748-17.749h-29.223c-9.787 0-17.749 7.962-17.749 17.749v8.226c0 9.787 7.962 17.749 17.749 17.749zm-31.971-17.749v-8.226c0-1.516 1.233-2.749 2.749-2.749h29.223c1.516 0 2.748 1.233 2.748 2.749v8.226c0 1.516-1.232 2.749-2.748 2.749h-29.223c-1.516 0-2.749-1.234-2.749-2.749z"/><path d="m182.904 383.961v-.106c0-4.143-3.358-7.5-7.5-7.5s-7.5 3.357-7.5 7.5v.106c0 4.143 3.358 7.5 7.5 7.5s7.5-3.357 7.5-7.5z"/></g></svg>