<svg id="Capa_1" enable-background="new 0 0 512 512" height="512" viewBox="0 0 512 512" width="512" xmlns="http://www.w3.org/2000/svg"><g><path d="m392.764 389.257c-13.459 0-25.911 4.368-36.035 11.747-.576-.421-1.158-.831-1.745-1.23v-226.627c0-10.937-5.276-21.314-14.114-27.761l-48.57-35.418v-17.374c8.603-2.2 14.992-9.994 14.992-19.272v-13.208c6.85-3.152 11.628-10.063 11.628-18.084v-22.117c-.001-10.98-8.934-19.913-19.915-19.913h-185.129c-10.98 0-19.914 8.933-19.914 19.913v22.116c0 8.022 4.778 14.934 11.63 18.085v13.207c0 9.279 6.39 17.074 14.994 19.273v17.373l-48.57 35.418c-8.838 6.445-14.114 16.824-14.114 27.761v100.606c0 4.142 3.357 7.499 7.499 7.499s7.499-3.357 7.499-7.499v-15.756h267.086v134.349c-13.684-4.568-28.779-4.206-42.694 1.511-3.831 1.574-5.66 5.955-4.087 9.786 1.574 3.831 5.955 5.66 9.786 4.087 14.163-5.819 29.941-4.306 42.546 3.773-7.299 8.803-12.172 19.676-13.632 31.59h-57.039c.783-4.726 2.309-9.392 4.611-13.83 1.907-3.677.472-8.203-3.205-10.11-3.675-1.905-8.202-.472-10.109 3.205-.571 1.1-1.093 2.214-1.592 3.335h-130.658v-43.516c0-9.648-7.85-17.498-17.498-17.498h-43.516v-53.904c0-4.142-3.357-7.499-7.499-7.499s-7.499 3.357-7.499 7.499v166.788c0 18.946 15.413 34.359 34.358 34.359 0 0 227.359.078 228.374.078 12.619 0 25.274-3.916 36.089-11.825 10.126 7.381 22.58 11.751 36.042 11.751 33.82 0 61.334-27.515 61.334-61.334s-27.514-61.334-61.334-61.334zm-257.18-296.022h74.443c4.142 0 7.499-3.357 7.499-7.499s-3.357-7.499-7.499-7.499h-84.521c-2.711 0-4.916-2.205-4.916-4.915v-11.379h171.703v11.379c0 2.711-2.205 4.915-4.916 4.915h-40.329c-4.142 0-7.499 3.357-7.499 7.499s3.357 7.499 7.499 7.499h30.254v13.046h-141.718zm-26.624-73.322c0-2.711 2.205-4.915 4.916-4.915h185.129c2.711 0 4.916 2.205 4.916 4.915v22.116c0 2.711-2.205 4.915-4.916 4.915h-185.129c-2.711 0-4.916-2.205-4.916-4.915zm-28.108 137.591 49.676-36.225h151.828l49.676 36.225c4.98 3.632 7.953 9.48 7.953 15.643v29.909h-267.086v-29.909c0-6.163 2.974-12.011 7.953-15.643zm-7.953 85.496v-24.946h267.086v24.946zm346.877 169.978-64.625 64.625c-5.481-7.611-8.723-16.937-8.723-27.012 0-25.55 20.786-46.336 46.336-46.336 10.075 0 19.401 3.242 27.012 8.723zm-98.347 83.99c-.264-.028-.532-.044-.804-.044h-2.385c-11.074-.575-21.948-5.137-30.382-13.57-7.071-7.07-11.469-15.935-13.001-25.262h57.048c1.459 11.909 6.329 22.777 13.623 31.578-7.386 4.739-15.736 7.155-24.099 7.298zm-205.014-117.291c1.378 0 2.5 1.121 2.5 2.5v43.516h-46.016v-46.015h43.516zm-24.155 117.247c-10.675 0-19.36-8.685-19.36-19.361v-36.873h187.155c-3.16 19.111 2.895 38.963 17.199 53.268 1.038 1.038 2.114 2.016 3.206 2.965h-188.2zm300.504.004c-10.072 0-19.397-3.241-27.007-8.72l64.624-64.624c5.479 7.61 8.72 16.935 8.72 27.007 0 25.551-20.787 46.337-46.337 46.337z"/><path d="m145.814 272.591h-18.678c-6.751 0-12.243 5.492-12.243 12.243v5.688h-5.688c-6.751 0-12.243 5.492-12.243 12.243v18.677c0 6.751 5.492 12.243 12.243 12.243h5.688v5.688c0 6.751 5.492 12.243 12.243 12.243h18.678c6.751 0 12.243-5.492 12.243-12.243v-5.688h5.688c6.751 0 12.243-5.492 12.243-12.243v-18.677c0-6.751-5.492-12.243-12.243-12.243h-5.688v-5.688c0-6.75-5.492-12.243-12.243-12.243zm15.176 32.93v13.168h-10.432c-4.142 0-7.499 3.357-7.499 7.499v10.432h-13.168v-10.432c0-4.142-3.357-7.499-7.499-7.499h-10.433v-13.168h10.433c4.142 0 7.499-3.357 7.499-7.499v-10.432h13.168v10.432c0 4.142 3.357 7.499 7.499 7.499z"/><path d="m194.661 370.679h-40.585c-4.142 0-7.499 3.357-7.499 7.499s3.357 7.499 7.499 7.499h40.585c4.142 0 7.499-3.357 7.499-7.499s-3.357-7.499-7.499-7.499z"/><path d="m146.577 402.936c0 4.142 3.357 7.499 7.499 7.499h97.642c4.142 0 7.499-3.357 7.499-7.499s-3.357-7.499-7.499-7.499h-97.642c-4.141 0-7.499 3.357-7.499 7.499z"/><path d="m233.797 291.503h77.627c4.142 0 7.499-3.357 7.499-7.499s-3.357-7.499-7.499-7.499h-77.627c-4.142 0-7.499 3.357-7.499 7.499s3.357 7.499 7.499 7.499z"/><path d="m233.797 319.601h77.627c4.142 0 7.499-3.357 7.499-7.499s-3.357-7.499-7.499-7.499h-77.627c-4.142 0-7.499 3.357-7.499 7.499s3.357 7.499 7.499 7.499z"/><path d="m233.797 347.697h77.627c4.142 0 7.499-3.357 7.499-7.499s-3.357-7.499-7.499-7.499h-77.627c-4.142 0-7.499 3.357-7.499 7.499s3.357 7.499 7.499 7.499z"/></g></svg>