<svg id="Capa_1" enable-background="new 0 0 512 512" height="512" viewBox="0 0 512 512" width="512" xmlns="http://www.w3.org/2000/svg"><g><path d="m490.008 299.951c-1.739-3.758-6.195-5.396-9.956-3.657-3.759 1.739-5.397 6.196-3.658 9.956 17.956 38.812 21.085 58.435 20.548 68.062-.789 14.137-10.242 39.48-22.478 60.262-13.47 22.876-28.285 37.087-38.664 37.087h-169.298c13.444-13.732 21.496-31.129 21.496-50.034 0-1.384-.043-2.759-.128-4.126h105.951c9.942 0 18.03-8.093 18.03-18.04v-133.1c0-9.942-8.088-18.03-18.03-18.03h-133.1c-9.942 0-18.03 8.088-18.03 18.03v87.688c-15.309-8.034-33.511-12.698-53.023-12.698-9.268 0-18.239 1.053-26.746 3.019 15.668-49.703 60.581-122.361 74.938-144.916 2.103-3.309 5.707-5.283 9.641-5.283h159.54c3.928 0 7.534 1.978 9.641 5.284 9.352 14.708 27.552 44.139 44.378 75.989 1.935 3.663 6.472 5.063 10.135 3.129 3.662-1.936 5.063-6.473 3.128-10.135-17.071-32.315-35.51-62.134-44.987-77.039-4.88-7.657-13.215-12.229-22.295-12.229h-8.098v-56.786c0-8.837-7.189-16.025-16.025-16.025h-14.828v-17.289h39.352c7.047 0 12.78-5.733 12.78-12.78v-21.12c0-7.047-5.733-12.78-12.78-12.78h-39.352v-10.033c0-12.273-9.985-22.259-22.258-22.259h-37.125c-12.273 0-22.259 9.985-22.259 22.259v10.032h-199.758c-47.801 0-86.69 38.889-86.69 86.69v248.041c0 37.407 30.437 67.841 67.85 67.841h27.729c12.273 32.919 49.807 56.941 94.089 56.941 21.485 0 41.379-5.659 57.574-15.241h188.559c22.101 0 41.809-27.865 51.589-44.475 13.737-23.329 23.594-50.269 24.529-67.038.933-16.716-6.235-41.312-21.911-75.197zm-232.317-33.591c0-1.671 1.359-3.03 3.03-3.03h133.1c1.67 0 3.03 1.359 3.03 3.03v133.1c0 1.677-1.359 3.04-3.03 3.04h-108.65c-4.516-15.026-14.223-28.404-27.48-38.787zm126.252-143.976v56.786h-113.348v-56.786c0-.565.46-1.025 1.026-1.025h111.297c.565 0 1.025.46 1.025 1.025zm21.278-64.995v16.681h-37.131v-16.681zm-96.514-32.291h37.125c4.002 0 7.258 3.256 7.258 7.259v74.002h-51.642c0-11.867 0-43.262 0-74.002 0-4.003 3.256-7.259 7.259-7.259zm-240.857 404.863c-29.142 0-52.85-23.704-52.85-52.841v-248.041c0-39.53 32.16-71.69 71.69-71.69h199.758v16.681h-199.758c-30.332 0-55.01 24.678-55.01 55.01v48.16c0 4.143 3.358 7.5 7.5 7.5s7.5-3.357 7.5-7.5v-48.16c0-22.061 17.949-40.01 40.01-40.01h199.758v17.289h-14.827c-8.837 0-16.026 7.188-16.026 16.025v56.786h-8.094c-9.094 0-17.43 4.574-22.297 12.232-19.927 31.308-66.738 108.19-79.422 158.402-23.915 9.78-42.297 27.286-50.202 48.487h-27.73c-11.673 0-21.17-9.497-21.17-21.171v-164.88c0-4.143-3.358-7.5-7.5-7.5s-7.5 3.357-7.5 7.5v164.88c0 19.944 16.226 36.171 36.17 36.171h24.016c-.348 2.741-.528 5.521-.528 8.336 0 2.814.18 5.594.528 8.334zm38.487-8.334c0-35.993 37.382-65.276 83.33-65.276 21.504 0 41.361 6.099 55.929 16.929.146.108.289.219.438.322 13.741 9.518 22.987 23.012 25.958 37.908l.002.01c.657 3.295 1.003 6.67 1.003 10.107 0 35.993-37.382 65.275-83.33 65.275s-83.33-29.282-83.33-65.275z"/><path d="m294.141 319.084h66.256c4.142 0 7.5-3.357 7.5-7.5s-3.358-7.5-7.5-7.5h-66.256c-4.142 0-7.5 3.357-7.5 7.5s3.358 7.5 7.5 7.5z"/><path d="m343.833 346.746h-33.128c-4.142 0-7.5 3.357-7.5 7.5s3.358 7.5 7.5 7.5h33.128c4.142 0 7.5-3.357 7.5-7.5s-3.358-7.5-7.5-7.5z"/></g></svg>