<svg id="Capa_1" enable-background="new 0 0 511.999 511.999" height="512" viewBox="0 0 511.999 511.999" width="512" xmlns="http://www.w3.org/2000/svg"><g><path d="m448.23 52.843v-35.262c0-9.694-7.887-17.581-17.582-17.581h-163.648c-9.694 0-17.582 7.887-17.582 17.581v35.263c-8.671 4.675-14.577 13.843-14.577 24.365v3.323c0 8.249 6.455 15.001 14.577 15.514v245.61c-23.377-10.085-50.223-9.684-73.314 1.229-11.937-5.677-24.738-8.562-38.075-8.562-11.287 0-22.323 2.113-32.803 6.281-3.849 1.53-5.729 5.892-4.198 9.74s5.89 5.732 9.741 4.197c8.708-3.463 17.88-5.219 27.26-5.219 7.599 0 14.983 1.129 22.07 3.351-3.048 2.34-5.991 4.88-8.78 7.669-12.089 12.09-19.945 26.828-23.595 42.362h-60.64c3.067-10.643 8.512-20.539 16.058-28.922 2.771-3.078 2.522-7.82-.556-10.592-3.078-2.77-7.82-2.521-10.592.557-14.704 16.333-22.802 37.433-22.802 59.413 0 48.985 39.853 88.838 88.838 88.838 13.316 0 26.096-2.876 38.015-8.533 11.752 5.584 24.695 8.533 38.093 8.533 13.317 0 26.185-2.912 37.881-8.431 3.094 5.045 8.643 8.429 14.983 8.429h163.648c9.694 0 17.581-7.887 17.581-17.581v-22.728c0-.007.001-.013.001-.019s-.001-.013-.001-.019v-96.013c0-4.143-3.358-7.5-7.5-7.5s-7.5 3.357-7.5 7.5v88.532h-140.288c5.472-10.533 8.683-21.938 9.656-33.501h63.651c9.649 0 17.5-7.851 17.5-17.5v-232.707c0-9.649-7.851-17.5-17.5-17.5h-101.831v-33.662h168.811v209.312c0 4.143 3.358 7.5 7.5 7.5s7.5-3.357 7.5-7.5v-242.563c8.122-.514 14.578-7.266 14.578-15.514v-3.323c0-10.524-5.907-19.691-14.578-24.367zm-15-35.262v31.965h-16.986v-34.546h14.404c1.424 0 2.582 1.158 2.582 2.581zm-136.825 31.965v-34.546h14.959v34.546zm29.96-34.546h14.96v34.546h-14.96zm29.96 0h14.959v34.546h-14.959zm29.959 0h14.96v34.546h-14.96zm-119.284 0h14.405v34.546h-16.986v-31.965c0-1.423 1.158-2.581 2.581-2.581zm-105.075 460.372c-1.299-1.299-2.519-2.647-3.7-4.016l104.106-104.106c1.369 1.182 2.717 2.401 4.016 3.701 1.301 1.301 2.522 2.65 3.705 4.021l-104.108 104.108c-1.373-1.188-2.722-2.411-4.019-3.708zm0-104.422c14.396-14.396 33.301-21.592 52.211-21.592 12.314 0 24.622 3.074 35.691 9.181l-100.313 100.314c-15.482-28.062-11.359-64.132 12.411-87.903zm-36.398 46.755c-.222 3.637-.222 7.283.001 10.92h-61.113c-.133-1.806-.224-3.624-.224-5.464 0-1.828.086-3.646.22-5.456zm12.502 79.294c-33.614 0-62.034-22.586-70.931-53.374h60.627c3.651 15.532 11.506 30.267 23.594 42.354 2.773 2.773 5.71 5.319 8.767 7.673-7.082 2.22-14.462 3.347-22.057 3.347zm40.401-9.191 100.332-100.333c15.479 28.061 11.354 64.128-12.414 87.897-13.946 13.946-32.488 21.627-52.211 21.627-12.699 0-24.899-3.201-35.707-9.191zm254.8-8.639v15.247c0 1.423-1.158 2.581-2.581 2.581h-163.649c-.821 0-1.545-.392-2.018-.991 4.229-2.965 8.244-6.298 11.972-10.026 2.187-2.187 4.234-4.461 6.144-6.811zm-66.98-63.501h-63.65c-1.138-13.561-5.374-26.899-12.702-38.873h58.671c4.142 0 7.5-3.357 7.5-7.5s-3.358-7.5-7.5-7.5h-70.235c-.462-.483-.905-.977-1.38-1.452-3.918-3.917-8.125-7.368-12.535-10.399v-52.698h48.537v4.329c0 7.444 6.056 13.5 13.5 13.5h16.369c7.444 0 13.5-6.056 13.5-13.5v-4.329h12.425v115.923c0 1.378-1.122 2.499-2.5 2.499zm-38.294-115.594v-88.105h13.369v88.105zm38.294-122.114c1.378 0 2.5 1.121 2.5 2.5v101.785h-12.425v-71.776c0-7.444-6.056-13.5-13.5-13.5h-16.369c-7.444 0-13.5 6.056-13.5 13.5v71.776h-48.537v-22.348h8.645c4.142 0 7.5-3.357 7.5-7.5s-3.358-7.5-7.5-7.5h-8.645v-8.376h26.363c4.142 0 7.5-3.357 7.5-7.5s-3.358-7.5-7.5-7.5h-26.363v-8.375h26.363c4.142 0 7.5-3.357 7.5-7.5s-3.358-7.5-7.5-7.5h-26.363v-20.186zm-101.831-63.662v-18.201h101.87c4.142 0 7.5-3.357 7.5-7.5s-3.358-7.5-7.5-7.5h-115.882c-.312 0-.565-.253-.565-.564v-3.323c0-6.982 5.68-12.663 12.663-12.663h172.641c6.982 0 12.663 5.681 12.663 12.663v3.323c0 .312-.253.564-.565.564h-43.927c-4.142 0-7.5 3.357-7.5 7.5s3.358 7.5 7.5 7.5h29.915v18.201z"/><path d="m248.669 445.809-11.887 11.887c-2.929 2.93-2.929 7.678 0 10.607 1.464 1.464 3.384 2.196 5.303 2.196s3.839-.732 5.303-2.196l11.887-11.887c2.929-2.93 2.929-7.678 0-10.607-2.928-2.928-7.677-2.928-10.606 0z"/><path d="m348.569 336.567h-43.72c-4.142 0-7.5 3.357-7.5 7.5s3.358 7.5 7.5 7.5h43.72c4.142 0 7.5-3.357 7.5-7.5s-3.358-7.5-7.5-7.5z"/><path d="m348.569 385.4c-4.142 0-7.5 3.357-7.5 7.5v.104c0 4.143 3.358 7.5 7.5 7.5s7.5-3.357 7.5-7.5v-.104c0-4.142-3.358-7.5-7.5-7.5z"/></g></svg>