<svg id="Capa_1" enable-background="new 0 0 512 512" height="512" viewBox="0 0 512 512" width="512" xmlns="http://www.w3.org/2000/svg"><g><path d="m415.385 0h-45.81c-4.143 0-7.5 3.357-7.5 7.5s3.357 7.5 7.5 7.5h45.81c1.379 0 2.5 1.121 2.5 2.5v84.643c0 1.379-1.121 2.5-2.5 2.5h-23.225v-57.033c0-6.893-5.607-12.5-12.5-12.5h-247.32c-6.893 0-12.5 5.607-12.5 12.5v57.032h-23.225c-1.378 0-2.5-1.121-2.5-2.5v-84.642c0-1.379 1.122-2.5 2.5-2.5h237.959c4.143 0 7.5-3.357 7.5-7.5s-3.357-7.5-7.5-7.5h-237.959c-9.649 0-17.5 7.851-17.5 17.5v84.643c0 9.649 7.851 17.5 17.5 17.5h62.316l49.983 86.567c3.538 6.127 6.043 12.661 7.521 19.493h-4.55c-6.893 0-12.5 5.607-12.5 12.5v166.287c0 4.143 3.358 7.5 7.5 7.5s7.5-3.357 7.5-7.5v-36.078c10.352 11.229 25.173 18.279 41.614 18.279s31.262-7.05 41.614-18.28v96.511c0 17.688-14.39 32.077-32.077 32.077h-19.074c-17.687 0-32.077-14.39-32.077-32.077v-25.432c0-4.143-3.358-7.5-7.5-7.5s-7.5 3.357-7.5 7.5v25.433c0 25.958 21.119 47.077 47.077 47.077h19.074c25.958 0 47.077-21.119 47.077-47.077v-226.72c0-6.893-5.607-12.5-12.5-12.5h-4.55c1.479-6.833 3.983-13.366 7.521-19.493l49.983-86.567h62.316c9.649 0 17.5-7.851 17.5-17.5v-84.643c.002-9.649-7.849-17.5-17.498-17.5zm-38.225 50.11v19.767h-242.32v-19.767zm-242.32 34.767h242.32v19.766h-242.32zm158.967 34.766-17.152 29.707c-4.249 7.359-12.164 11.931-20.655 11.931-8.492 0-16.406-4.571-20.655-11.931l-17.153-29.707zm3.807 210.434c0 22.946-18.668 41.614-41.614 41.614s-41.614-18.668-41.614-41.614v-89.374h83.228zm-7.52-131.367c-4.868 8.433-8.162 17.486-9.831 26.993h-48.526c-1.669-9.506-4.963-18.559-9.832-26.993l-45.653-79.067h24.62l21.483 37.207c6.919 11.985 19.811 19.431 33.645 19.431 13.833 0 26.726-7.445 33.646-19.431l21.483-37.207h24.62z"/><path d="m240.973 279.524h30.054c4.143 0 7.5-3.357 7.5-7.5s-3.357-7.5-7.5-7.5h-30.054c-4.142 0-7.5 3.357-7.5 7.5s3.358 7.5 7.5 7.5z"/><path d="m240.973 307.463h30.054c4.143 0 7.5-3.357 7.5-7.5s-3.357-7.5-7.5-7.5h-30.054c-4.142 0-7.5 3.357-7.5 7.5s3.358 7.5 7.5 7.5z"/><path d="m240.973 335.401h30.054c4.143 0 7.5-3.357 7.5-7.5s-3.357-7.5-7.5-7.5h-30.054c-4.142 0-7.5 3.357-7.5 7.5s3.358 7.5 7.5 7.5z"/></g></svg>