<svg id="Layer_3" enable-background="new 0 0 64 64" height="512" viewBox="0 0 64 64" width="512" xmlns="http://www.w3.org/2000/svg"><g><path d="m28 29h-1v-3-4c0-.553-.448-1-1-1h-1c0-5.514-4.486-10-10-10s-10 4.486-10 10h-1c-.552 0-1 .447-1 1v4 3h-1c-.552 0-1 .447-1 1v32c0 .553.448 1 1 1h26c.552 0 1-.447 1-1v-32c0-.553-.448-1-1-1zm-13-16c4.411 0 8 3.589 8 8h-16c0-4.411 3.589-8 8-8zm-10 10h1 18 1v2h-20zm0 4h20v2h-20zm22 34h-24v-30h1 22 1z"/><path d="m62 19h-1v-5c0-7.168-5.832-13-13-13s-13 5.832-13 13v5h-1c-.552 0-1 .447-1 1v4c0 .553.448 1 1 1h1v2c0 .379.214.725.553.895l1.447.723v.764l-1.447.724c-.339.169-.553.515-.553.894v3 28c0 .553.448 1 1 1h24c.552 0 1-.447 1-1v-28-9h1c.552 0 1-.447 1-1v-4c0-.553-.448-1-1-1zm-25-5c0-6.065 4.935-11 11-11s11 4.935 11 11v5h-22zm22 47h-22v-26h22zm0-28h-22v-1.382l1.447-.724c.339-.169.553-.515.553-.894h9v-2h-9c0-.379-.214-.725-.553-.895l-1.447-.723v-1.382h22zm2-10h-1-24-1v-2h1 24 1z"/><path d="m21 39c-2.548 0-4.775 1.373-6 3.413-1.225-2.04-3.452-3.413-6-3.413-.552 0-1 .447-1 1v4c0 3.859 3.14 7 7 7s7-3.141 7-7v-4c0-.553-.448-1-1-1zm-11 5v-2.899c2.279.465 4 2.484 4 4.899v2.899c-2.279-.464-4-2.484-4-4.899zm10 0c0 2.415-1.721 4.435-4 4.899v-2.899c0-2.415 1.721-4.435 4-4.899z"/><path d="m48 53c3.86 0 7-3.141 7-7v-4c0-.553-.448-1-1-1-2.548 0-4.775 1.373-6 3.413-1.225-2.04-3.452-3.413-6-3.413-.552 0-1 .447-1 1v4c0 3.859 3.14 7 7 7zm5-9.899v2.899c0 2.415-1.721 4.435-4 4.899v-2.899c0-2.415 1.721-4.435 4-4.899zm-10 0c2.279.465 4 2.484 4 4.899v2.899c-2.279-.465-4-2.484-4-4.899z"/></g></svg>