<?xml version="1.0" encoding="iso-8859-1"?>
<!-- Generator: Adobe Illustrator 19.0.0, SVG Export Plug-In . SVG Version: 6.00 Build 0)  -->
<svg version="1.1" id="Capa_1" xmlns="http://www.w3.org/2000/svg" xmlns:xlink="http://www.w3.org/1999/xlink" x="0px" y="0px"
	 viewBox="0 0 512 512" style="enable-background:new 0 0 512 512;" xml:space="preserve">
<g>
	<g>
		<path d="M330.315,407.238c-4.111-0.557-7.886,2.313-8.445,6.418c-1.754,12.864-6.713,22.455-15.161,29.322
			c-11.208,9.11-29.217,14.127-50.709,14.127s-39.501-5.017-50.709-14.127c-10.689-8.688-15.885-22-15.885-40.697
			c0-13.721,2.977-27.259,8.635-39.206l0.288-0.621c19.67-43.278,28.831-77.104,28.831-106.451s-9.161-63.173-28.854-106.502
			l-0.29-0.626c-5.632-11.891-8.609-25.429-8.609-39.15c0-18.697,5.196-32.009,15.885-40.697
			c11.207-9.114,29.215-14.131,50.707-14.131s39.501,5.017,50.709,14.127c10.689,8.688,15.885,22,15.885,40.697
			c0,13.722-2.977,27.26-8.633,39.201l-0.289,0.624C294.001,192.822,284.84,226.649,284.84,256s9.161,63.178,28.857,106.509
			l0.288,0.619c3.372,7.121,5.795,14.819,7.202,22.883c0.712,4.081,4.601,6.812,8.678,6.099c4.081-0.712,6.812-4.597,6.1-8.677
			c-1.64-9.394-4.473-18.385-8.398-26.674l-0.238-0.513c-18.753-41.258-27.487-73.112-27.487-100.247s8.734-58.989,27.462-100.192
			l0.239-0.516c6.576-13.884,10.052-29.642,10.052-45.57c0-23.501-7.008-40.62-21.424-52.337
			c-13.876-11.277-35.244-17.487-60.172-17.487c-24.927,0-46.296,6.21-60.17,17.488c-14.417,11.717-21.424,28.837-21.424,52.337
			c0,15.928,3.476,31.686,10.027,45.515l0.24,0.519c18.753,41.26,27.487,73.113,27.487,100.245s-8.734,58.984-27.463,100.193
			l-0.238,0.514c-6.577,13.885-10.053,29.644-10.053,45.571c0,23.5,7.008,40.62,21.424,52.337
			c13.874,11.277,35.243,17.488,60.17,17.488c24.928,0,46.296-6.21,60.17-17.487c11.384-9.252,18.302-22.352,20.564-38.935
			C337.293,411.578,334.418,407.797,330.315,407.238z"/>
	</g>
</g>
<g>
	<g>
		<path d="M389.061,185.476l-27.914-7.613c0.807-1.83,1.623-3.67,2.477-5.549c9.071-19.175,13.866-40.818,13.866-62.592
			c0-35.268-12.503-64.071-36.157-83.297C320.065,9.138,290.557,0,255.999,0c-39.09,0-71.164,11.455-92.755,33.126
			c-2.923,2.935-2.914,7.683,0.02,10.607c2.934,2.922,7.682,2.914,10.607-0.02C192.585,24.929,220.985,15,255.999,15
			c31.072,0,57.309,7.976,75.873,23.065c20.316,16.513,30.618,40.622,30.618,71.657c0,19.589-4.305,39.031-12.448,56.226
			c-0.017,0.035-0.033,0.071-0.05,0.107c-3.044,6.697-5.786,13.089-8.262,19.227c-0.06,0.149-0.125,0.304-0.185,0.453
			c-0.479,1.191-0.931,2.357-1.388,3.528c-0.343,0.877-0.692,1.76-1.023,2.626c-0.355,0.928-0.694,1.842-1.035,2.758
			c-0.423,1.134-0.841,2.263-1.243,3.377c-0.253,0.702-0.5,1.398-0.745,2.093c-0.484,1.37-0.951,2.725-1.403,4.065
			c-0.154,0.458-0.309,0.918-0.46,1.372c-0.557,1.68-1.088,3.337-1.594,4.972c-0.04,0.131-0.083,0.264-0.124,0.395
			c-2.904,9.434-4.969,18.141-6.239,26.276c-0.023,0.144-0.044,0.286-0.066,0.43c-0.215,1.402-0.406,2.788-0.573,4.157
			c-0.034,0.274-0.068,0.549-0.1,0.822c-0.142,1.228-0.263,2.442-0.367,3.644c-0.03,0.347-0.065,0.697-0.092,1.042
			c-0.089,1.146-0.156,2.277-0.211,3.401c-0.017,0.35-0.043,0.707-0.057,1.055c-0.056,1.433-0.09,2.852-0.09,4.252
			c0,1.4,0.034,2.819,0.09,4.252c0.014,0.348,0.04,0.704,0.057,1.055c0.054,1.124,0.121,2.255,0.211,3.401
			c0.027,0.345,0.062,0.695,0.092,1.042c0.104,1.202,0.225,2.417,0.367,3.644c0.032,0.273,0.066,0.548,0.1,0.822
			c0.167,1.369,0.358,2.754,0.573,4.157c0.022,0.143,0.043,0.286,0.066,0.43c1.27,8.135,3.335,16.842,6.239,26.276
			c0.04,0.131,0.083,0.264,0.124,0.395c0.506,1.635,1.037,3.292,1.594,4.972c0.15,0.455,0.306,0.914,0.46,1.372
			c0.452,1.341,0.919,2.695,1.403,4.065c0.245,0.694,0.492,1.391,0.745,2.093c0.402,1.114,0.82,2.243,1.243,3.377
			c0.341,0.916,0.68,1.829,1.035,2.758c0.331,0.866,0.68,1.749,1.023,2.626c0.458,1.171,0.91,2.337,1.388,3.528
			c0.06,0.149,0.125,0.303,0.185,0.453c2.476,6.138,5.218,12.53,8.262,19.228c0.017,0.036,0.033,0.071,0.05,0.106
			c8.143,17.195,12.448,36.638,12.448,56.227c0,31.035-10.302,55.144-30.618,71.657C313.308,489.024,287.071,497,255.999,497
			s-57.309-7.976-75.873-23.065c-20.317-16.513-30.618-40.622-30.618-71.657c0-19.591,4.305-39.034,12.449-56.228
			c0.017-0.036,0.034-0.071,0.05-0.107c2.88-6.338,5.48-12.392,7.852-18.228c0.204-0.501,0.419-1.014,0.619-1.512
			c0.435-1.083,0.846-2.144,1.264-3.211c0.387-0.987,0.778-1.979,1.15-2.952c0.327-0.857,0.64-1.701,0.956-2.548
			c0.452-1.21,0.897-2.412,1.325-3.599c0.231-0.642,0.457-1.28,0.682-1.916c0.507-1.435,0.997-2.854,1.469-4.257
			c0.136-0.404,0.273-0.809,0.406-1.211c0.577-1.74,1.128-3.457,1.651-5.15c0.024-0.078,0.05-0.158,0.074-0.236
			c2.913-9.456,4.983-18.182,6.254-26.334c0.021-0.134,0.041-0.267,0.061-0.401c0.216-1.411,0.408-2.806,0.576-4.184
			c0.033-0.268,0.066-0.536,0.097-0.802c0.143-1.233,0.265-2.453,0.369-3.661c0.03-0.343,0.064-0.69,0.091-1.031
			c0.09-1.147,0.157-2.281,0.211-3.407c0.017-0.349,0.043-0.704,0.057-1.052c0.056-1.433,0.09-2.853,0.09-4.252
			c0-1.4-0.034-2.819-0.09-4.252c-0.014-0.347-0.04-0.702-0.057-1.051c-0.055-1.126-0.122-2.259-0.211-3.407
			c-0.027-0.341-0.061-0.688-0.091-1.031c-0.104-1.208-0.226-2.427-0.369-3.661c-0.031-0.266-0.064-0.535-0.097-0.802
			c-0.168-1.378-0.36-2.773-0.576-4.184c-0.021-0.134-0.04-0.267-0.061-0.401c-1.271-8.152-3.342-16.878-6.254-26.334
			c-0.024-0.078-0.05-0.158-0.074-0.236c-0.523-1.693-1.074-3.41-1.651-5.15c-0.133-0.402-0.27-0.807-0.406-1.211
			c-0.472-1.403-0.962-2.822-1.469-4.257c-0.224-0.636-0.45-1.274-0.682-1.916c-0.428-1.187-0.873-2.39-1.325-3.599
			c-0.316-0.846-0.629-1.69-0.956-2.548c-0.372-0.973-0.763-1.964-1.15-2.952c-0.418-1.067-0.828-2.127-1.264-3.211
			c-0.2-0.498-0.416-1.01-0.619-1.512c-2.371-5.836-4.971-11.89-7.852-18.228c-0.017-0.036-0.033-0.072-0.05-0.107
			c-8.144-17.194-12.449-36.637-12.449-56.228c0-16.372,2.943-31.023,8.749-43.546c1.742-3.758,0.107-8.217-3.65-9.959
			c-3.759-1.743-8.216-0.107-9.959,3.65c-6.728,14.514-10.139,31.288-10.139,49.855c0,21.776,4.795,43.419,13.866,62.593
			c0.854,1.88,1.67,3.719,2.477,5.548l-27.914,7.613c-14.329,3.908-24.336,17.011-24.336,31.863v77.322
			c0,14.852,10.008,27.955,24.336,31.863l27.914,7.613c-0.806,1.829-1.623,3.669-2.477,5.548
			c-9.071,19.174-13.866,40.817-13.866,62.593c0,35.268,12.503,64.071,36.156,83.297C191.934,502.862,221.442,512,255.999,512
			c34.558,0,64.065-9.138,85.334-26.425c23.654-19.226,36.157-48.029,36.157-83.297c0-21.774-4.795-43.417-13.866-62.592
			c-2.096-4.612-4.042-9.066-5.852-13.38c-0.034-0.082-0.061-0.168-0.098-0.248c-9.767-23.347-15.469-42.805-17.291-59.072
			c-0.022-0.203-0.042-0.405-0.063-0.608c-0.108-1.01-0.202-2.009-0.279-2.995c-0.041-0.538-0.071-1.067-0.103-1.598
			c-0.044-0.695-0.091-1.393-0.12-2.075c-0.05-1.253-0.082-2.493-0.082-3.71c0-1.186,0.032-2.394,0.08-3.613
			c0.023-0.566,0.059-1.142,0.092-1.716c0.034-0.605,0.072-1.214,0.118-1.828c0.063-0.818,0.133-1.643,0.216-2.478
			c0.027-0.271,0.057-0.545,0.086-0.818c1.608-14.999,6.537-32.725,14.944-53.739l29.842,8.139
			c7.821,2.133,13.283,9.284,13.283,17.391v77.322c0,8.107-5.462,15.258-13.283,17.391l-7.484,2.042
			c-3.996,1.09-6.352,5.213-5.262,9.21c1.089,3.996,5.216,6.353,9.209,5.262l7.484-2.042c14.328-3.908,24.336-17.01,24.336-31.863
			v-77.322C413.397,202.486,403.389,189.384,389.061,185.476z M126.885,312.052c-7.821-2.133-13.284-9.285-13.284-17.391v-77.322
			c0-8.106,5.462-15.258,13.284-17.391l29.842-8.139c8.405,21.008,13.334,38.731,14.943,53.728c0.029,0.278,0.06,0.558,0.087,0.834
			c0.083,0.832,0.153,1.653,0.215,2.468c0.046,0.617,0.084,1.227,0.118,1.835c0.033,0.572,0.069,1.147,0.092,1.711
			c0.048,1.22,0.08,2.429,0.08,3.614s-0.032,2.394-0.08,3.614c-0.023,0.564-0.059,1.139-0.092,1.711
			c-0.034,0.608-0.072,1.219-0.118,1.835c-0.062,0.815-0.132,1.636-0.215,2.469c-0.027,0.277-0.058,0.556-0.087,0.834
			c-1.609,14.999-6.538,32.721-14.943,53.729L126.885,312.052z"/>
	</g>
</g>
<g>
</g>
<g>
</g>
<g>
</g>
<g>
</g>
<g>
</g>
<g>
</g>
<g>
</g>
<g>
</g>
<g>
</g>
<g>
</g>
<g>
</g>
<g>
</g>
<g>
</g>
<g>
</g>
<g>
</g>
</svg>
