<?xml version="1.0" encoding="iso-8859-1"?>
<!-- Generator: Adobe Illustrator 19.0.0, SVG Export Plug-In . SVG Version: 6.00 Build 0)  -->
<svg version="1.1" id="Capa_1" xmlns="http://www.w3.org/2000/svg" xmlns:xlink="http://www.w3.org/1999/xlink" x="0px" y="0px"
	 viewBox="0 0 512 512" style="enable-background:new 0 0 512 512;" xml:space="preserve">
<g>
	<g>
		<path d="M385.372,281.469v-6.217c0-8.4-5.195-15.609-12.541-18.585v-32.52c7.343-2.976,12.538-10.185,12.538-18.586v-12.263
			c0-40.508-31.424-73.793-71.173-76.815V21.581c0-11.9-9.682-21.581-21.581-21.581h-22.171h-28.891h-22.171
			c-11.899,0-21.581,9.682-21.581,21.581v94.891c-10.695,0.822-21.162,3.859-30.574,8.923c-3.647,1.962-5.014,6.511-3.051,10.158
			c1.962,3.648,6.509,5.015,10.158,3.051c8.958-4.819,19.109-7.367,29.357-7.367h1.609h30.699h40h30.697h1.609
			c34.222,0,62.063,27.841,62.063,62.063v12.263c0,2.779-2.262,5.041-5.041,5.041h-27.331c-4.143,0-7.5,3.358-7.5,7.5
			c0,4.143,3.357,7.5,7.5,7.5h19.831v29.608h-10.495c-4.143,0-7.5,3.357-7.5,7.5s3.357,7.5,7.5,7.5h17.995
			c2.779,0,5.041,2.262,5.041,5.041v6.217c0,2.779-2.262,5.041-5.041,5.041c-4.143,0-7.5,3.357-7.5,7.5v44.608
			c0,4.143,3.357,7.5,7.5,7.5c2.779,0,5.041,2.262,5.041,5.041v6.217c0,2.779-2.262,5.041-5.041,5.041c-4.143,0-7.5,3.357-7.5,7.5
			v37.108H206.996c-4.143,0-7.5,3.357-7.5,7.5s3.357,7.5,7.5,7.5h158.313c0.007,0,0.013,0.001,0.019,0.001
			c2.779,0,5.041,2.262,5.041,5.041v47.257c0,12.504-10.172,22.676-22.676,22.676H164.305c-12.504,0-22.676-10.172-22.676-22.676
			v-47.257c0-2.779,2.262-5.041,5.041-5.041c0.007,0,0.013-0.001,0.019-0.001h30.31c4.143,0,7.5-3.357,7.5-7.5s-3.357-7.5-7.5-7.5
			h-22.828l-0.001-29.608h13.829c4.143,0,7.5-3.357,7.5-7.5s-3.357-7.5-7.5-7.5H146.67c-2.779,0-5.041-2.262-5.041-5.041v-6.217
			c0-0.695,0.141-1.357,0.397-1.96c0.766-1.809,2.56-3.081,4.645-3.081c0.251,0,0.501-0.013,0.749-0.038
			c0.174-0.017,0.343-0.048,0.513-0.077c0.071-0.012,0.144-0.018,0.215-0.033c0.203-0.041,0.402-0.094,0.599-0.15
			c0.037-0.011,0.075-0.017,0.111-0.029c0.197-0.06,0.389-0.132,0.579-0.207c0.037-0.015,0.075-0.026,0.111-0.041
			c0.176-0.073,0.346-0.157,0.515-0.243c0.049-0.025,0.101-0.046,0.15-0.072c0.148-0.079,0.288-0.169,0.43-0.257
			c0.067-0.042,0.136-0.079,0.202-0.122c0.115-0.077,0.222-0.163,0.332-0.246c0.086-0.065,0.176-0.125,0.259-0.194
			c0.064-0.053,0.122-0.112,0.184-0.167c0.119-0.105,0.241-0.207,0.354-0.32c0.12-0.121,0.23-0.25,0.341-0.377
			c0.047-0.054,0.099-0.104,0.144-0.159c0.079-0.096,0.148-0.197,0.222-0.296c0.073-0.098,0.149-0.192,0.217-0.293
			c0.054-0.081,0.101-0.167,0.152-0.25c0.077-0.126,0.157-0.25,0.227-0.38c0.036-0.068,0.066-0.139,0.1-0.208
			c0.075-0.15,0.15-0.3,0.215-0.456c0.026-0.063,0.046-0.129,0.07-0.192c0.063-0.164,0.126-0.327,0.178-0.497
			c0.025-0.081,0.041-0.164,0.063-0.246c0.041-0.153,0.085-0.306,0.116-0.463c0.032-0.158,0.051-0.318,0.073-0.478
			c0.011-0.083,0.029-0.165,0.037-0.249c0.026-0.251,0.039-0.504,0.039-0.759l-0.001-44.608c0-4.143-3.357-7.5-7.5-7.5
			c-2.779,0-5.041-2.262-5.041-5.041v-6.217c0-0.695,0.141-1.357,0.397-1.96c0.766-1.809,2.56-3.081,4.645-3.081
			c4.143,0,7.5-3.357,7.5-7.5v-37.108h153.831c4.143,0,7.5-3.357,7.5-7.5c0-4.142-3.357-7.5-7.5-7.5H146.671c0,0,0,0-0.001,0h-0.001
			c-2.779,0-5.041-2.262-5.041-5.041v-12.263c0-13.283,4.135-25.949,11.957-36.63c2.447-3.342,1.723-8.035-1.619-10.482
			c-3.341-2.447-8.035-1.723-10.482,1.619c-9.719,13.271-14.855,29.001-14.855,45.493v12.263c0,8.4,5.195,15.609,12.541,18.585
			v32.52c-6.887,2.789-11.883,9.3-12.481,17.025c-0.04,0.515-0.06,1.035-0.06,1.56v6.217c0,1.05,0.081,2.081,0.238,3.088
			c0.884,5.69,4.176,10.586,8.792,13.635c1.102,0.728,2.273,1.36,3.512,1.861v32.52c-6.887,2.789-11.883,9.3-12.481,17.025
			c-0.04,0.515-0.06,1.035-0.06,1.56v6.217c0,1.05,0.081,2.081,0.238,3.088c0.884,5.69,4.176,10.586,8.792,13.635
			c1.102,0.728,2.273,1.36,3.512,1.861v32.521c-7.346,2.976-12.541,10.185-12.541,18.585v47.257
			c0,20.774,16.901,37.676,37.676,37.676h183.389c20.775,0,37.676-16.901,37.676-37.676v-47.257c0-8.4-5.195-15.609-12.541-18.585
			v-32.521c7.346-2.975,12.541-10.185,12.541-18.585v-6.217c0-8.4-5.195-15.609-12.541-18.585v-32.52
			C380.177,297.078,385.372,289.869,385.372,281.469z M228.499,21.581v94.655h-15.697V21.581c0-3.629,2.952-6.581,6.581-6.581h9.624
			C228.677,17.038,228.499,19.237,228.499,21.581z M268.499,116.236h-25V21.581c0-2.931,0.446-5.197,0.882-6.581h23.236
			c0.436,1.384,0.882,3.65,0.882,6.581V116.236z M299.196,116.236h-15.697V21.581c0-2.344-0.178-4.543-0.508-6.581h9.624
			c3.629,0,6.581,2.952,6.581,6.581V116.236z"/>
	</g>
</g>
<g>
	<g>
		<path d="M255.999,238.447c-12.365,0-24.383,3.512-34.752,10.154c-3.487,2.234-4.504,6.874-2.27,10.361
			c2.236,3.489,6.872,4.502,10.361,2.27c7.949-5.093,17.168-7.785,26.66-7.785c27.294,0,49.5,22.206,49.5,49.5v31.806
			c-6.946,23.473-25.749,41.315-49.5,47.022c-23.751-5.707-42.554-23.549-49.5-47.022v-31.806c0-7.926,1.814-15.494,5.393-22.493
			c1.886-3.688,0.425-8.206-3.263-10.092c-3.688-1.888-8.207-0.425-10.092,3.264c-4.604,9.005-7.037,19.143-7.037,29.321v32.863
			c0,0.685,0.094,1.365,0.278,2.024c8.362,29.842,32.365,52.435,62.641,58.963c0.521,0.112,1.051,0.169,1.581,0.169
			c0.53,0,1.06-0.057,1.581-0.169c30.275-6.528,54.278-29.121,62.641-58.963c0.185-0.658,0.278-1.339,0.278-2.024v-32.863
			C320.499,267.382,291.564,238.447,255.999,238.447z"/>
	</g>
</g>
<g>
	<g>
		<path d="M292.031,298.716h-17.042v-17.042c0-4.143-3.357-7.5-7.5-7.5h-22.98c-4.143,0-7.5,3.358-7.5,7.5v17.042h-17.042
			c-4.143,0-7.5,3.357-7.5,7.5v22.982c0,4.143,3.357,7.5,7.5,7.5h17.042v17.042c0,4.143,3.357,7.5,7.5,7.5h22.98
			c4.143,0,7.5-3.357,7.5-7.5v-17.042h17.042c4.143,0,7.5-3.357,7.5-7.5v-22.982C299.531,302.073,296.174,298.716,292.031,298.716z
			 M284.531,321.698h-17.042c-4.143,0-7.5,3.357-7.5,7.5v17.042h-7.98v-17.042c0-4.143-3.357-7.5-7.5-7.5h-17.042v-7.982h17.042
			c4.143,0,7.5-3.357,7.5-7.5v-17.042h7.98v17.042c0,4.143,3.357,7.5,7.5,7.5h17.042V321.698z"/>
	</g>
</g>
<g>
</g>
<g>
</g>
<g>
</g>
<g>
</g>
<g>
</g>
<g>
</g>
<g>
</g>
<g>
</g>
<g>
</g>
<g>
</g>
<g>
</g>
<g>
</g>
<g>
</g>
<g>
</g>
<g>
</g>
</svg>
