<svg id="Capa_1" enable-background="new 0 0 511.658 511.658" height="512" viewBox="0 0 511.658 511.658" width="512" xmlns="http://www.w3.org/2000/svg"><g><path d="m211.525 511.658h-111.545c-15.878 0-30.098-10.08-35.384-25.083l-.481-1.363c-12.638-35.839-33.789-95.823-33.789-194.554 0-107.684 31.061-199.125 44.324-238.173l1.405-4.142c3.781-11.177 14.25-18.686 26.05-18.686h23.647c4.143 0 7.5 3.357 7.5 7.5s-3.357 7.5-7.5 7.5h-23.647c-5.364 0-10.122 3.413-11.841 8.492l-1.411 4.159c-.259.764-.524 1.545-.797 2.349h35.434c2.271 0 4.421 1.03 5.845 2.801.074.089 10.234 12.199 26.418 12.199 16.157 0 26.319-12.077 26.418-12.199 1.424-1.771 3.573-2.801 5.845-2.801h35.434c-.271-.798-.535-1.578-.795-2.343l-1.413-4.165c-1.719-5.079-6.477-8.492-11.841-8.492h-53.647c-4.143 0-7.5-3.357-7.5-7.5s3.357-7.5 7.5-7.5h53.646c11.8 0 22.269 7.509 26.05 18.686l1.407 4.147c2.796 8.231 6.224 18.322 9.936 30.128 5.938-23.458 12.391-41.756 17.473-56.17l.482-1.367c5.286-15.001 19.506-25.081 35.384-25.081h111.546c15.878 0 30.098 10.08 35.384 25.083l.484 1.373c12.637 35.839 33.786 95.823 33.786 194.544 0 107.684-31.061 199.125-44.324 238.173l-1.405 4.142c-3.781 11.177-14.25 18.686-26.05 18.686h-23.647c-4.143 0-7.5-3.357-7.5-7.5s3.357-7.5 7.5-7.5h23.647c5.364 0 10.122-3.413 11.841-8.492l1.411-4.159c.259-.764.524-1.545.797-2.349h-35.434c-2.271 0-4.421-1.029-5.845-2.8-.074-.09-10.235-12.2-26.418-12.2-16.157 0-26.319 12.077-26.418 12.199-1.424 1.771-3.573 2.801-5.845 2.801h-35.435c.268.789.53 1.563.788 2.32l1.42 4.188c1.719 5.079 6.477 8.492 11.841 8.492h53.648c4.143 0 7.5 3.357 7.5 7.5s-3.357 7.5-7.5 7.5h-53.648c-11.8 0-22.269-7.509-26.05-18.686l-1.414-4.17c-2.656-7.821-6.118-18.012-9.9-30.046-5.921 23.268-12.403 41.653-17.499 56.108l-.483 1.369c-5.287 15.002-19.508 25.082-35.385 25.082zm-142.008-391.993c-12.171 44.982-24.19 104.95-24.19 170.993 0 96.163 20.617 154.632 32.936 189.565l.481 1.366c3.176 9.013 11.711 15.068 21.237 15.068h111.545c9.526 0 18.062-6.056 21.238-15.068l.483-1.371c12.317-34.934 32.933-93.402 32.933-189.561 0-38.969-4.199-79.813-12.481-121.397-.81-4.063 1.828-8.012 5.891-8.82 4.062-.813 8.011 1.828 8.82 5.891 8.474 42.548 12.771 84.377 12.771 124.327 0 39.739-3.428 73.204-8.347 101.342h169.306c12.171-44.982 24.192-104.957 24.192-171 0-96.153-20.615-154.622-32.933-189.557l-.484-1.375c-3.176-9.012-11.711-15.068-21.237-15.068h-111.546c-9.526 0-18.062 6.056-21.237 15.067l-.482 1.37c-6.713 19.037-15.87 45.009-22.886 80.749 2.024 7.342 4.055 15.108 6.046 23.28.98 4.024-1.487 8.082-5.512 9.063-4.032.982-8.083-1.489-9.063-5.512-1.61-6.612-3.249-12.956-4.89-19.024zm321.898 317.335h37.205c2.854-8.699 6.035-18.76 9.307-30h-164.064c3.271 11.227 6.442 21.237 9.321 30h37.211c5.113-5.025 17.528-15 35.51-15 17.981 0 30.396 9.975 35.51 15zm-317.688-332.327 164.168.313c-3.295-11.319-6.508-21.461-9.421-30.327h-37.211c-5.113 5.025-17.528 15-35.51 15s-30.396-9.975-35.51-15h-37.205c-2.855 8.704-6.037 18.764-9.311 30.014zm82.026 251.093c-.87 0-1.739-.151-2.569-.454l-32.54-11.864c-28.166-10.269-47.09-37.312-47.09-67.291v-34.636c0-2.447 1.194-4.741 3.2-6.145 2.005-1.403 4.568-1.74 6.869-.901l32.54 11.864c17.585 6.411 31.566 19.358 39.59 35.479 8.023-16.12 22.005-29.067 39.59-35.479l32.54-11.864c2.303-.839 4.865-.502 6.869.901 2.006 1.403 3.2 3.697 3.2 6.145v34.636c0 29.979-18.924 57.022-47.09 67.291l-32.54 11.864c-.83.302-1.699.454-2.569.454zm-67.199-103.528v23.918c0 23.701 14.961 45.08 37.229 53.199l22.471 8.192v-23.917c0-23.701-14.961-45.08-37.229-53.199zm74.699 61.392v23.918l22.471-8.192c22.268-8.119 37.229-29.498 37.229-53.199v-23.918l-22.471 8.192c-22.268 8.119-37.229 29.498-37.229 53.199zm192.652-36.63c-28.632 0-51.925-23.293-51.925-51.924 0-23.022 12.854-50.346 40.454-85.989 2.766-3.573 6.946-5.623 11.47-5.623s8.705 2.05 11.472 5.624c27.599 35.643 40.453 62.966 40.453 85.988 0 28.631-23.293 51.924-51.924 51.924zm0-128.226c-24.846 32.184-36.925 57.146-36.925 76.302 0 20.359 16.564 36.924 36.925 36.924 20.359 0 36.924-16.564 36.924-36.924 0-19.156-12.079-44.119-36.924-76.302z"/></g></svg>