<svg height="512pt" viewBox="-68 0 512 512.00228" width="512pt" xmlns="http://www.w3.org/2000/svg"><path d="m238.933594 145.066406v-85.332031c-.035156-32.976563-26.757813-59.6953125-59.734375-59.734375h-119.464844c-32.972656.0390625-59.6953125 26.757812-59.734375 59.734375v418.132813c0 18.851562 15.28125 34.132812 34.132812 34.132812h311.417969c15.78125.195312 28.921875-12.070312 29.816407-27.828125 1.46875-13.117187-6.285157-25.523437-18.722657-29.949219 6.191407-19.835937 4.40625-41.304687-4.976562-59.847656-10.34375-17.414062-26.972657-30.199219-46.464844-35.71875-3.421875-.859375-7.015625.476562-9.046875 3.359375-2.035156 2.882813-2.082031 6.71875-.125 9.652344 4.664062 5.828125 5.65625 13.785156 2.558594 20.574219-3.335938 6.265624-15.640625 19.335937-59.65625 24.089843zm-196.265625 25.601563c-4.714844 0-8.535157 3.820312-8.535157 8.53125v8.535156h-17.066406v-34.132813h204.800782v34.132813h-170.667969v-8.535156c0-4.710938-3.820313-8.53125-8.53125-8.53125zm110.933593-76.800781v9.964843c-2.738281-.230469-5.539062-.347656-8.304687-.527343-1.902344-.121094-3.777344-.265626-5.699219-.359376-6.671875-.332031-13.378906-.546874-20.128906-.546874s-13.476562.214843-20.148438.546874c-1.894531.09375-3.746093.238282-5.632812.359376-2.78125.179687-5.597656.289062-8.351562.527343v-27.03125c0-14.140625 11.460937-25.601562 25.597656-25.601562h59.734375c9.425781 0 17.066406 7.640625 17.066406 17.066406h-8.535156c-14.136719 0-25.597657 11.460937-25.597657 25.601563zm-75.871093 27.851562c20.855469-2.253906 41.859375-2.824219 62.804687-1.707031 6.980469.375 13.894532.941406 20.667969 1.707031 32.042969 3.617188 49.042969 10.242188 56.320313 14.816406h-195.96875c7.324218-4.660156 24.3125-11.222656 56.175781-14.816406zm-17.996094-104.652344h119.464844c23.554687.027344 42.640625 19.113282 42.667969 42.667969v59.730469c-16.234376-7.25-33.515626-11.890625-51.199219-13.753906v-11.84375c0-4.714844 3.820312-8.535157 8.53125-8.535157h8.535156c9.425781 0 17.066406-7.640625 17.066406-17.066406 0-18.851563-15.28125-34.132813-34.132812-34.132813h-59.734375c-23.550782.027344-42.636719 19.113282-42.664063 42.667969v28.910157c-17.6875 1.859374-34.964843 6.503906-51.203125 13.753906v-59.730469c.03125-23.554687 19.117188-42.640625 42.667969-42.667969zm-42.667969 460.800782v-17.066407h92.339844c-2.125 3.824219-3.921875 7.820313-5.375 11.945313-2.515625 7.289062-1.996094 15.285156 1.441406 22.1875h-71.339844c-9.425781 0-17.066406-7.640625-17.066406-17.066406zm296.578125-77.570313c2.917969-5.363281 4.28125-11.4375 3.941407-17.535156 7.945312 4.890625 14.527343 11.714843 19.125 19.832031 7.464843 15.539062 8.445312 33.410156 2.71875 49.671875h-70.433594c-4.710938 0-8.53125 3.820313-8.53125 8.535156 0 4.710938 3.820312 8.53125 8.53125 8.53125h76.734375c.777343.03125 1.550781.109375 2.320312.242188 3.144531.363281 6.011719 1.972656 7.957031 4.46875 1.945313 2.496093 2.808594 5.667969 2.394532 8.808593-.070313 3.316407-1.46875 6.46875-3.886719 8.742188-2.417969 2.269531-5.648437 3.476562-8.964844 3.339844h-213.136719c-4.230468.019531-8.203124-2.035156-10.625-5.503906-2.332031-3.207032-2.945312-7.351563-1.636718-11.09375 9.835937-28.21875 38.175781-43.136719 81.953125-43.136719 76.746093 0 103.023437-18.976563 111.539062-34.902344zm-111.539062 17.835937c-40.109375 0-64.605469 11.203126-79.601563 25.601563h-105.4375v-238.933594h17.066406v68.265625c0 4.714844 3.820313 8.535156 8.535157 8.535156 4.710937 0 8.53125-3.820312 8.53125-8.535156v-68.265625h170.667969v212.8125c-6.144532.308594-12.621094.519531-19.761719.519531zm0 0"/><path d="m204.375 330.144531c-.914062-2.785156-3.195312-4.910156-6.042969-5.621093-9.503906-2.167969-17.011719-9.441407-19.488281-18.867188-4.488281-10.15625-10.660156-24.054688-33.777344-24.054688-9.21875-.5625-18.328125 2.277344-25.597656 7.976563-7.273438-5.699219-16.378906-8.539063-25.601562-7.976563-23.117188 0-29.285157 13.898438-33.773438 24.054688-2.476562 9.425781-9.988281 16.699219-19.492188 18.867188-2.847656.707031-5.132812 2.835937-6.046874 5.625-.914063 2.789062-.328126 5.855468 1.550781 8.113281.988281 1.175781 24.148437 28.585937 52.335937 28.585937h.433594c11.484375-.203125 22.445312-4.839844 30.59375-12.9375 8.148438 8.09375 19.109375 12.726563 30.589844 12.929688h.4375c28.160156 0 51.34375-27.410156 52.332031-28.585938 1.875-2.257812 2.460937-5.320312 1.546875-8.109375zm-53.871094 19.628907h-.316406c-9.734375-.570313-18.636719-5.667969-24.054688-13.773438-1.621093-2.023438-4.070312-3.203125-6.664062-3.203125s-5.046875 1.179687-6.664062 3.203125c-5.417969 8.105469-14.324219 13.203125-24.058594 13.773438h-.3125c-11.507813-1.085938-22.304688-6.027344-30.644532-14.03125 8.328126-5.582032 14.617188-13.71875 17.917969-23.183594 4.21875-9.53125 6.144531-13.890625 18.160157-13.890625 15.710937 0 16.972656 7.3125 17.066406 8.53125v.050781c-.042969 4.714844 3.746094 8.570312 8.457031 8.613281 4.714844.039063 8.566406-3.746093 8.609375-8.457031.113281-1.539062 1.484375-8.738281 17.066406-8.738281 12.015625 0 13.945313 4.359375 18.175782 13.898437 3.304687 9.464844 9.59375 17.601563 17.921874 23.1875-8.339843 8.011719-19.148437 12.957032-30.660156 14.027344zm0 0"/></svg>