<?xml version="1.0" encoding="iso-8859-1"?>
<!-- Generator: Adobe Illustrator 19.0.0, SVG Export Plug-In . SVG Version: 6.00 Build 0)  -->
<svg version="1.1" id="Capa_1" xmlns="http://www.w3.org/2000/svg" xmlns:xlink="http://www.w3.org/1999/xlink" x="0px" y="0px"
	 viewBox="0 0 512 512" style="enable-background:new 0 0 512 512;" xml:space="preserve">
<g>
	<g>
		<path d="M282.823,29.605c-1.141-3.982-5.296-6.284-9.275-5.145c-3.982,1.141-6.285,5.293-5.145,9.275
			c2.27,7.923,3.47,17.171,3.47,26.745v11.41c0,4.142,3.357,7.5,7.5,7.5c4.142,0,7.5-3.358,7.5-7.5V60.48
			C286.873,49.529,285.473,38.852,282.823,29.605z"/>
	</g>
</g>
<g>
	<g>
		<path d="M238.437,24.458c-3.983-1.137-8.134,1.17-9.27,5.153c-2.643,9.257-4.039,19.932-4.039,30.869v11.41
			c0,4.142,3.358,7.5,7.5,7.5c4.142,0,7.499-3.358,7.499-7.5V60.48c0-9.564,1.197-18.814,3.463-26.751
			C244.727,29.746,242.42,25.595,238.437,24.458z"/>
	</g>
</g>
<g>
	<g>
		<path d="M336.25,457.5h-72.135c-0.339,0-0.615-0.276-0.615-0.615v-12.629h11.846c4.647,0,9.025-2.043,12.01-5.605
			s4.23-8.229,3.417-12.804l-3.179-17.89v-54.643c0-4.142-3.358-7.5-7.5-7.5c-4.142,0-7.5,3.358-7.5,7.5v55.304
			c0,0.44,0.039,0.879,0.116,1.312l3.294,18.541c0.014,0.076,0.055,0.307-0.146,0.546c-0.201,0.239-0.435,0.239-0.513,0.239h-38.691
			c-0.077,0-0.312,0-0.513-0.239c-0.2-0.239-0.159-0.47-0.146-0.546l3.294-18.54c0.077-0.433,0.116-0.872,0.116-1.312V330.5h40.687
			h18.66c9.775,0,17.728-7.953,17.728-17.728V60.482C316.482,27.132,289.35,0,256,0c-33.35,0-60.482,27.132-60.482,60.482v11.411
			c0,4.142,3.358,7.5,7.5,7.5c4.142,0,7.5-3.358,7.5-7.5V60.482C210.518,35.403,230.921,15,256,15s45.482,20.403,45.482,45.482
			v252.291c0,1.504-1.224,2.728-2.728,2.728h-18.66h-48.187h-18.66c-1.504,0-2.728-1.224-2.728-2.728v-210.88
			c0-4.142-3.358-7.5-7.5-7.5c-4.142,0-7.5,3.358-7.5,7.5v210.88c0,9.775,7.953,17.728,17.728,17.728h11.16v77.456l-3.179,17.889
			c-0.813,4.575,0.432,9.243,3.417,12.805c2.985,3.563,7.362,5.605,12.01,5.605H248.5v12.629c0,8.61,7.005,15.615,15.615,15.615
			h72.135c6.755,0,12.25,5.495,12.25,12.25S343.005,497,336.25,497h-160.5c-6.755,0-12.25-5.495-12.25-12.25V300
			c0-4.142-3.358-7.5-7.5-7.5c-4.142,0-7.5,3.358-7.5,7.5v184.75c0,15.026,12.224,27.25,27.25,27.25h160.5
			c15.026,0,27.25-12.224,27.25-27.25S351.276,457.5,336.25,457.5z"/>
	</g>
</g>
<g>
</g>
<g>
</g>
<g>
</g>
<g>
</g>
<g>
</g>
<g>
</g>
<g>
</g>
<g>
</g>
<g>
</g>
<g>
</g>
<g>
</g>
<g>
</g>
<g>
</g>
<g>
</g>
<g>
</g>
</svg>
