<?xml version="1.0" encoding="iso-8859-1"?>
<!-- Generator: Adobe Illustrator 19.0.0, SVG Export Plug-In . SVG Version: 6.00 Build 0)  -->
<svg version="1.1" id="Capa_1" xmlns="http://www.w3.org/2000/svg" xmlns:xlink="http://www.w3.org/1999/xlink" x="0px" y="0px"
	 viewBox="0 0 512 512" style="enable-background:new 0 0 512 512;" xml:space="preserve">
<g>
	<g>
		<path d="M241.673,150.366l-48.056-31.844c1.608-0.789,3.065-1.89,4.261-3.283c2.543-2.962,3.663-6.875,3.072-10.734
			l-14.263-93.156C185.68,4.773,180.122,0,173.469,0h-21.575h-21.805h-21.575c-6.652,0-12.211,4.773-13.217,11.348l-14.264,93.158
			c-0.591,3.859,0.529,7.772,3.073,10.734c1.196,1.392,2.653,2.493,4.261,3.282L40.31,150.367
			c-9.693,6.424-15.481,17.201-15.481,28.83V231v176.707V504.5c0,4.142,3.358,7.5,7.5,7.5c4.142,0,7.5-3.358,7.5-7.5v-89.293h38.749
			c15.756,0,28.575-12.819,28.575-28.575V252.075c0-15.756-12.819-28.575-28.575-28.575H39.83v-44.304
			c0-6.586,3.277-12.689,8.767-16.326l64.846-42.97h11.858h31.381c0,0,11.859,0,11.859,0l64.846,42.97
			c5.489,3.638,8.767,9.741,8.767,16.326v29.821c0,4.142,3.358,7.5,7.5,7.5c4.142,0,7.5-3.358,7.5-7.5v-29.821
			C257.154,167.567,251.367,156.79,241.673,150.366z M78.579,238.5c7.485,0,13.575,6.09,13.575,13.575v134.557
			c0,7.485-6.09,13.575-13.575,13.575H39.83V238.5H78.579z M115.88,104.9h-4.697H96.148L109.913,15h10.588L115.88,104.9z
			 M130.9,104.9l4.621-89.9h10.941l4.621,89.9H130.9z M170.8,104.9h-4.697L161.482,15h10.589l13.764,89.9H170.8z"/>
	</g>
</g>
<g>
	<g>
		<path d="M479.671,357.04H419.19c-1.989,0-3.896,0.79-5.303,2.197l-40.971,40.971H160.596c-5.456,0-9.896-4.435-9.896-9.886
			c0-5.452,4.439-9.887,9.896-9.887h190.443c1.989,0,3.897-0.79,5.303-2.197l48.448-48.447h74.88c4.142,0,7.5-3.358,7.5-7.5
			c0-4.142-3.358-7.5-7.5-7.5h-77.987c-1.989,0-3.897,0.79-5.303,2.197l-45.143,45.143v-60.437c0-7.658-3.64-14.479-9.277-18.834
			c0.136-0.926,0.174-1.869,0.081-2.815c-2.733-27.752-25.85-48.68-53.77-48.68h-52.773c-12.051,0-22.68-9.873-23.209-21.56
			c-0.216-4.759,1.046-9.383,3.65-13.372c1.505-2.305,1.626-5.25,0.315-7.67c-1.311-2.421-3.842-3.929-6.595-3.929h-7.155
			c-14.185,0-27.74,5.518-38.17,15.538c-10.531,10.117-16.453,23.482-16.673,37.633c-0.228,14.601,5.284,28.368,15.52,38.766
			c1.581,1.606,3.254,3.087,4.99,4.466c-6.974,4.154-11.658,11.767-11.658,20.457v64.082c-11.791,1.954-20.813,12.214-20.813,24.546
			c0,13.722,11.169,24.886,24.896,24.886h81.558V504.5c0,4.142,3.358,7.5,7.5,7.5c4.142,0,7.5-3.358,7.5-7.5v-89.293h118.868
			c1.989,0,3.897-0.79,5.303-2.197l40.971-40.971h57.374c4.142,0,7.5-3.358,7.5-7.5C487.171,360.398,483.813,357.04,479.671,357.04z
			 M191.657,365.431h-20.144v-63.738c0-4.851,3.946-8.797,8.797-8.797h11.347V365.431z M226.8,365.431h-20.144v-72.535H226.8
			V365.431z M261.945,365.431H241.8v-72.535h20.144V365.431z M299.091,365.431h-22.147v-72.535h22.147V365.431z M336.237,301.693
			v63.738h-22.146v-72.535h13.349C332.292,292.896,336.237,296.842,336.237,301.693z M162.659,238.239
			c0.303-19.425,16.21-36.038,35.62-38.173c-0.803,3.378-1.135,6.876-0.974,10.419c0.896,19.785,18.03,35.88,38.194,35.88h52.773
			c18.936,0,34.813,13.32,38.317,31.532H201.685c-10.541,0-20.419-4.137-27.815-11.65
			C166.476,258.736,162.494,248.789,162.659,238.239z"/>
	</g>
</g>
<g>
</g>
<g>
</g>
<g>
</g>
<g>
</g>
<g>
</g>
<g>
</g>
<g>
</g>
<g>
</g>
<g>
</g>
<g>
</g>
<g>
</g>
<g>
</g>
<g>
</g>
<g>
</g>
<g>
</g>
</svg>
