<svg height="511pt" viewBox="-54 0 511 511.99802" width="511pt" xmlns="http://www.w3.org/2000/svg"><path d="m399.34375 465.609375-60.488281-81.640625c-2.476563-3.347656-7.199219-4.046875-10.542969-1.570312-3.34375 2.480468-4.046875 7.199218-1.566406 10.542968l60.484375 81.640625c4.597656 6.207031 3.285156 14.992188-2.917969 19.589844-3.007812 2.222656-6.699219 3.144531-10.398438 2.59375-3.699218-.550781-6.960937-2.507813-9.1875-5.515625l-197.210937-266.277344c-.789063-1.066406-1.847656-1.90625-3.066406-2.429687l-39.035157-16.863281c-2.582031-1.257813-4.683593-3.261719-6.082031-5.796876-.164062-.289062-.34375-.570312-.539062-.839843-2.761719-3.726563-14.964844-20.167969-25.179688-33.925781-2.480469-3.339844-7.203125-4.039063-10.546875-1.558594-3.339844 2.484375-4.039062 7.203125-1.558594 10.546875 9.902344 13.332031 21.675782 29.195312 24.894532 33.539062 2.949218 5.117188 7.308594 9.152344 12.632812 11.691407.082032.042968.167969.082031.257813.117187l37.316406 16.121094 196 264.648437c4.625 6.242188 11.402344 10.308594 19.082031 11.453125 1.453125.214844 2.90625.320313 4.347656.320313 6.183594 0 12.183594-1.964844 17.246094-5.714844 12.882813-9.539062 15.601563-27.785156 6.058594-40.671875zm0 0"/><path d="m18.3125 63.722656c-4.597656-6.207031-3.289062-14.992187 2.917969-19.585937 6.203125-4.59375 14.992187-3.289063 19.585937 2.917969l98.554688 133.074218c.792968 1.066406 1.851562 1.90625 3.070312 2.433594l39.035156 16.859375c2.464844 1.207031 4.503907 3.082031 5.894532 5.4375.167968.28125.351562.550781.554687.808594 1.191407 1.566406 22.816407 30.710937 118.257813 159.523437 1.480468 1.996094 3.757812 3.050782 6.0625 3.050782 1.558594 0 3.132812-.480469 4.480468-1.480469 3.347657-2.480469 4.046876-7.199219 1.570313-10.542969-98.207031-132.542969-115-155.175781-118.105469-159.296875-2.9375-4.851563-7.199218-8.707031-12.335937-11.160156-.082031-.039063-.167969-.078125-.257813-.117188l-37.316406-16.117187-6.21875-8.394532 41.027344-30.382812c6.863281-5.082031 8.308594-14.800781 3.226562-21.664062l-16.671875-22.511719-21.402343-28.898438-21.398438-28.894531c-.003906-.003906-.003906-.003906-.003906-.007812l-16.671875-22.507813c-5.082031-6.863281-14.800781-8.3125-21.664063-3.230469l-41.496094 30.730469c-10.058593-9.050781-25.460937-10.105469-36.75-1.746094-12.882812 9.542969-15.601562 27.789063-6.054687 40.683594l54.640625 73.570313c2.480469 3.339843 7.203125 4.039062 10.542969 1.554687 3.34375-2.480469 4.039062-7.199219 1.558593-10.542969zm145.703125 37.878906 12.1875 16.457032c.136719.179687.097656.441406-.085937.578125l-40.910157 30.296875-12.433593-16.785156 33.078124-24.496094zm-21.402344-28.898437 12.433594 16.785156-33.078125 24.496094-8.167969 6.050781-12.429687-16.785156 37.535156-27.800781zm-21.402343-28.898437 12.429687 16.785156-33.074219 24.496094-8.167968 6.050781-12.433594-16.789063 33.078125-24.496094zm-21.738282-28.65625c.183594-.132813.445313-.09375.582032.085937l12.183593 16.453125-34.523437 25.570312-6.71875 4.976563-12.433594-16.785156zm0 0"/></svg>