<svg id="Capa_1" enable-background="new 0 0 511.998 511.998" height="512" viewBox="0 0 511.998 511.998" width="512" xmlns="http://www.w3.org/2000/svg"><g><path d="m490.987 46.944v-23.481c0-12.938-10.525-23.463-23.464-23.463h-317.611c-12.938 0-23.464 10.525-23.464 23.463v23.481c-7.483 2.237-12.957 9.177-12.957 17.378v7.621c0 8.201 5.473 15.141 12.957 17.378v191.265c0 4.143 3.358 7.5 7.5 7.5s7.5-3.357 7.5-7.5v-190.5h238.505c4.143 0 7.5-3.357 7.5-7.5s-3.357-7.5-7.5-7.5h-248.319c-1.732 0-3.142-1.41-3.142-3.143v-7.621c0-1.732 1.41-3.143 3.142-3.143h354.168c1.732 0 3.142 1.41 3.142 3.143v7.621c0 1.732-1.409 3.143-3.142 3.143h-68.822c-4.143 0-7.5 3.357-7.5 7.5s3.357 7.5 7.5 7.5h59.008v398.449c0 4.666-3.797 8.463-8.464 8.463h-276.207c12.47-10.386 20.982-25.358 22.945-42.301h122.48c4.143 0 7.5-3.357 7.5-7.5s-3.357-7.5-7.5-7.5h-122.48c-2.038-17.589-11.142-33.044-24.397-43.46v-12.238h237.705v52.556c0 1.732-1.41 3.143-3.143 3.143h-50.657c-4.143 0-7.5 3.357-7.5 7.5s3.357 7.5 7.5 7.5h50.658c10.004 0 18.143-8.139 18.143-18.143v-261.045c0-10.004-8.139-18.143-18.143-18.143h-231.42c-10.004 0-18.143 8.139-18.143 18.143v211.89c-7.686-3.22-16.116-5.005-24.957-5.005-2.869 0-5.689.207-8.46.57v-65.353c0-4.143-3.358-7.5-7.5-7.5s-7.5 3.357-7.5 7.5v69.197c-5.406 2.108-10.467 4.909-15.059 8.315-11.872-8.813-26.392-13.3-41.307-12.673-16.262.686-31.562 7.405-43.078 18.922-25.266 25.267-25.266 66.377 0 91.644 12.547 12.547 29.197 18.896 45.881 18.896 13.54-.001 27.095-4.199 38.497-12.648 10.777 7.995 24.108 12.734 38.527 12.734h.002.001 317.611c12.938 0 23.464-10.525 23.464-23.463v-399.215c7.483-2.238 12.956-9.177 12.956-17.378v-7.621c0-8.201-5.473-15.14-12.956-17.378zm-301.122 322.055v-158.403h22.874c-1.067 3.335-1.648 6.884-1.648 10.568 0 19.165 15.592 34.757 34.757 34.757s34.756-15.592 34.756-34.757c0-3.684-.581-7.234-1.648-10.568h148.614v158.403zm75.739-147.835c0 10.894-8.863 19.757-19.756 19.757-10.894 0-19.757-8.863-19.757-19.757s8.863-19.757 19.757-19.757 19.756 8.864 19.756 19.757zm-72.596-48.797h231.42c1.732 0 3.143 1.41 3.143 3.143v20.086h-158.21c-6.193-5.7-14.452-9.188-23.513-9.188s-17.32 3.488-23.513 9.188h-32.47v-20.086c0-1.733 1.41-3.143 3.143-3.143zm6.702 274.83c0 27.46-22.341 49.801-49.801 49.801-11.029 0-21.227-3.609-29.489-9.701l69.589-69.589c6.092 8.262 9.701 18.46 9.701 29.489zm-20.307-40.097-69.59 69.591c-6.094-8.262-9.704-18.463-9.704-29.494 0-27.461 22.34-49.802 49.801-49.802 11.03.001 21.23 3.611 29.493 9.705zm-141.793 4.88c8.851-8.852 20.607-14.016 33.104-14.542 10.55-.446 20.848 2.445 29.534 8.189-7.926 9.453-13.201 21.192-14.692 34.071h-61.939c1.534-10.151 6.193-19.917 13.993-27.718zm0 70.429c-7.798-7.798-12.458-17.562-13.992-27.711h61.937c1.492 12.876 6.764 24.612 14.687 34.063-19.393 12.79-45.81 10.472-62.632-6.352zm112.302-467.409h317.611c4.667 0 8.464 3.797 8.464 8.463v22.717h-334.539v-22.717c0-4.666 3.797-8.463 8.464-8.463z"/><path d="m228.409 319.586h80.994c7.656 0 13.886-6.229 13.886-13.886v-17.42c0-7.656-6.229-13.886-13.886-13.886h-80.994c-7.656 0-13.885 6.229-13.885 13.886v17.42c0 7.656 6.229 13.886 13.885 13.886zm1.115-30.191h78.765v15.191h-78.765z"/><path d="m395.412 333.039h-173.388c-4.142 0-7.5 3.357-7.5 7.5s3.358 7.5 7.5 7.5h173.388c4.143 0 7.5-3.357 7.5-7.5s-3.357-7.5-7.5-7.5z"/><path d="m395.412 304.586h-22.391c-4.143 0-7.5 3.357-7.5 7.5s3.357 7.5 7.5 7.5h22.391c4.143 0 7.5-3.357 7.5-7.5s-3.357-7.5-7.5-7.5z"/><path d="m373.021 294.104h22.391c4.143 0 7.5-3.357 7.5-7.5s-3.357-7.5-7.5-7.5h-22.391c-4.143 0-7.5 3.357-7.5 7.5s3.358 7.5 7.5 7.5z"/></g></svg>