<svg id="Capa_1" enable-background="new 0 0 512.067 512.067" height="512" viewBox="0 0 512.067 512.067" width="512" xmlns="http://www.w3.org/2000/svg"><g><path d="m202.944 389.398c-1.044-14.392-6.95-19.741-9.999-25.672-1.895-3.686-6.416-5.136-10.099-3.243-3.685 1.893-5.137 6.415-3.243 10.099 3.806 7.405 7.636 9.65 8.38 19.902.526 7.259-1.033 10.694-3.008 15.044-2.277 5.018-5.111 11.262-4.31 22.329.803 11.067 4.508 16.838 7.485 21.475 2.581 4.021 4.62 7.196 5.146 14.456.132 1.821.137 3.452.016 4.984-.327 4.129 2.755 7.742 6.884 8.069 4.118.328 7.741-2.747 8.069-6.884.182-2.295.18-4.668-.008-7.254-.803-11.067-4.508-16.838-7.485-21.476-2.581-4.021-4.62-7.196-5.146-14.456-.526-7.259 1.033-10.694 3.008-15.044 2.278-5.017 5.111-11.262 4.31-22.329z"/><path d="m286.99 373.495c4.472 1.68 8.004 3.007 12.765 8.511 4.762 5.506 5.565 9.193 6.583 13.861 1.174 5.384 2.635 12.084 9.892 20.477 1.696 1.961 3.372 3.641 5.125 5.136 3.151 2.688 7.886 2.312 10.573-.839 2.688-3.151 2.312-7.885-.839-10.573-1.169-.998-2.318-2.154-3.513-3.535-4.762-5.506-5.565-9.193-6.583-13.861-1.174-5.384-2.635-12.084-9.893-20.478-7.258-8.393-13.678-10.804-18.836-12.742-3.532-1.327-6.322-2.375-9.619-5.296-3.102-2.747-7.841-2.459-10.588.641-2.746 3.101-2.46 7.84.641 10.587 5.374 4.761 10.111 6.54 14.292 8.111z"/><path d="m186.597 230.03c10.643 0 20.138-7.135 23.09-17.352 1.15-3.979-1.144-8.137-5.123-9.287-3.977-1.15-8.137 1.144-9.287 5.123-1.108 3.836-4.678 6.516-8.68 6.516-4.979 0-9.031-4.052-9.031-9.032s4.052-9.032 9.031-9.032c4.143 0 7.5-3.358 7.5-7.5s-3.357-7.5-7.5-7.5c-13.251 0-24.031 10.781-24.031 24.032s10.78 24.032 24.031 24.032z"/><path d="m349.482 250.591c2.929-2.929 2.929-7.678-.001-10.607-2.928-2.929-7.677-2.928-10.606 0-2.718 2.718-7.117 2.718-9.836 0-2.712-2.712-2.712-7.125 0-9.837 2.929-2.929 2.929-7.678-.001-10.607-2.928-2.929-7.677-2.928-10.606 0-8.56 8.56-8.56 22.489.001 31.05 4.146 4.146 9.66 6.43 15.524 6.43 5.865.002 11.378-2.282 15.525-6.429z"/><path d="m300.789 295.613c-2.931 0-5.594-1.496-7.125-4.002-2.158-3.536-6.775-4.651-10.31-2.491-3.535 2.159-4.65 6.775-2.491 10.31 4.277 7.003 11.726 11.184 19.926 11.184 12.869 0 23.339-10.47 23.339-23.338s-10.47-23.338-23.339-23.338c-4.143 0-7.5 3.358-7.5 7.5s3.357 7.5 7.5 7.5c4.598 0 8.339 3.741 8.339 8.338s-3.741 8.337-8.339 8.337z"/><path d="m262.912 135.853 6.636-6.635c2.93-2.929 2.93-7.678.001-10.607-2.929-2.928-7.678-2.929-10.606 0l-6.636 6.635c-2.93 2.929-2.93 7.678-.001 10.607 2.928 2.927 7.676 2.929 10.606 0z"/><path d="m279.458 108.261h9.384c4.143 0 7.5-3.358 7.5-7.5s-3.357-7.5-7.5-7.5h-9.384c-4.143 0-7.5 3.358-7.5 7.5s3.358 7.5 7.5 7.5z"/><path d="m193.756 83.305c4.143 0 7.5-3.358 7.5-7.5v-9.384c0-4.142-3.357-7.5-7.5-7.5s-7.5 3.358-7.5 7.5v9.384c0 4.142 3.358 7.5 7.5 7.5z"/><path d="m224.056 116.92h6.776c4.143 0 7.5-3.358 7.5-7.5s-3.357-7.5-7.5-7.5h-6.776c-4.143 0-7.5 3.358-7.5 7.5s3.357 7.5 7.5 7.5z"/><path d="m143.035 330.849c.299 4.131 3.909 7.235 8.022 6.938 4.132-.3 7.238-3.892 6.938-8.023l-1.674-23.085c12.582 10.243 25.756 29.001 47.596 34.344 20.314 4.97 41.42-6.82 61.647-6.82 19.638 0 41.598 11.723 61.651 6.82 14.201-3.475 24.701-12.591 33.854-21.436l-12.057 166.302c-.454 6.269-5.733 11.179-12.019 11.179h-155.661c-6.285 0-11.564-4.91-12.019-11.179l-8.7-120.002c-.3-4.131-3.894-7.229-8.022-6.938-4.132.3-7.238 3.892-6.938 8.023l8.7 120.002c1.021 14.071 12.871 25.094 26.979 25.094h155.662c14.108 0 25.959-11.022 26.979-25.094.738-10.184 15.964-220.198 16.684-230.129.3-4.131-2.807-7.723-6.938-8.023-4.115-.288-7.723 2.807-8.022 6.938l-3.011 41.536c-11.973 10.542-23.157 25.271-39.034 29.156-8.385 2.052-18.697-.351-29.615-2.895-9.188-2.141-18.69-4.354-28.472-4.354-10.09 0-19.792 2.33-29.556 4.605.917-36.844 15.697-71.346 41.855-97.502 12.103-12.104 28.181-19.266 45.172-20.163 19.881-.784 36.051-7.091 47.594-18.423l-2.386 32.915c-.3 4.131 2.807 7.723 6.938 8.023 4.181.299 7.726-2.852 8.022-6.938 5.493-76.443 5.359-72.23 5.199-73.582.77-17.242-5.966-35.811-20.087-54.876-16.296-22.003-42.303-44.241-71.351-61.012-6.146-3.548-12.615-6.941-19.229-10.083-3.738-1.778-8.215-.186-9.993 3.555-1.777 3.741-.186 8.215 3.556 9.993 6.254 2.972 12.366 6.177 18.167 9.526 27.333 15.781 51.68 36.538 66.797 56.949 18.232 24.617 22.001 46.584 11.2 65.292-8.584 14.868-23.731 22.833-45.119 23.677-20.797 1.098-40.36 9.813-55.088 24.541-29.691 29.691-46.114 69.115-46.291 111.078-4.848.618-9.394.676-13.484-.325-1.16-.284-2.295-.625-3.406-1.019 2.266-45.295 21.057-87.699 53.241-119.883 17.205-17.207 39.413-26.969 62.671-28.546 17.021-.503 29.317-6.184 35.302-16.551 7.654-13.257 3.513-31.619-11.661-51.703-13.832-18.31-35.563-36.541-61.19-51.336-25.627-14.796-52.281-24.5-75.055-27.325-24.98-3.097-42.953 2.496-50.606 15.753-7.654 13.257-3.513 31.619 11.661 51.703 13.832 18.31 35.563 36.541 61.19 51.336 17.239 9.953 34.942 17.601 51.616 22.402-5.832 2.56-11.451 5.618-16.794 9.152-14.242-5.09-28.638-11.753-41.85-19.381-27.332-15.78-51.679-36.538-66.797-56.949-15.009-20.265-23.749-43.556-11.2-65.292 19.35-33.515 67.536-24.287 94.536-15.804 3.955 1.243 8.162-.956 9.403-4.907 1.241-3.952-.955-8.162-4.907-9.403-54.022-16.973-93.804-8.941-112.022 22.614-6.346 10.992-8.908 22.872-7.732 35.346.608 8.395 18.127 250.037 19.154 264.189zm76.715-283.26c-10.042 10.582-9.563 27.679 1.2 38.444 5.43 5.43 12.617 8.43 20.146 8.43 7.153 0 13.804-2.723 18.793-7.712 5.551-5.552 8.088-13.027 7.647-20.456 2.472 1.318 4.94 2.688 7.402 4.109 23.928 13.814 44.072 30.644 56.723 47.388 10.981 14.535 14.958 27.68 10.639 35.161-.792 1.371-1.87 2.596-3.211 3.669.886-8.076-2.1-16.922-8.776-23.598-11.243-11.242-27.889-11.768-37.345-2.312-6.533 6.532-8.641 16.979-4.566 27.04-15.427-4.139-32.998-11.31-51.273-21.861-23.928-13.815-44.072-30.644-56.723-47.388-10.981-14.535-14.958-27.68-10.639-35.161 3.399-5.888 12.404-9.079 24.896-9.079 8.268 0 17.081 1.41 25.087 3.326zm29.532 28.555c-4.553 4.554-12.49 4.517-17.724-.718-5.085-5.085-5.407-13.037-.72-17.725 4.645-4.643 12.592-4.416 17.727.718h-.001c5.085 5.085 5.406 13.036.718 17.725zm72.735 83.618c-3.745 3.745-11.135 2.688-16.133-2.311-4.416-4.416-6.496-11.947-2.311-16.132 4.234-4.235 11.807-2.013 16.131 2.311h.001c4.999 4.999 6.057 12.387 2.312 16.132zm-178.268-46.729c16.297 22.003 42.303 44.241 71.351 61.012 11.262 6.502 23.341 12.344 35.497 17.188-1.324 1.206-2.621 2.444-3.888 3.71-33.001 33.002-52.991 75.933-57.083 122.048-4.375-3.499-8.475-7.521-12.514-11.483-10.493-10.294-12.392-11.657-22.188-18.096l-12.804-176.623c.532.747 1.074 1.495 1.629 2.244z"/></g></svg>