<svg id="Layer_1" enable-background="new 0 0 512.105 512.105" height="512" viewBox="0 0 512.105 512.105" width="512" xmlns="http://www.w3.org/2000/svg"><g><path d="m512.084 269.102c-.312-36.058-38.94-43.343-67.434-44.009-9.692-.207-10.045 14.77-.35 14.996 19.927.465 52.271 2.777 52.787 29.342.373 13.981-4.182 54.667-54.403 130.317l-.209.315c-19.145 28.839-30.701 46.247-65.024 85.048-5.831 6.591-19.723 16.595-47.256 9.543-29.937-7.668-57.463-31.675-62.667-54.654-1.862-8.219.445-21.165 22.006-36.163 3.888-2.704 4.334-6.738 3.536-9.371-1.901-6.272-9.192-7.247-20.098-8.019-31.725-2.244-55.975-6.536-72.499-37.547-7.365-13.824-18.147-42.193-19.116-72.055l13.372 15.829c4.283 5.071 12.824 2.227 13.216-4.397 3.871-65.437-2.582-146.896-5.684-186.043-.264-3.332-.505-6.375-.715-9.098-.015-.189.256-.143.344-.05 14.857 15.718 26.006 33.921 34.379 52.288l-12.627 8.924c-8.079 5.711.992 17.666 8.657 12.25l9.9-6.997c2.421 6.328 4.537 12.601 6.389 18.729l-19.079 13.927c-7.98 5.824 1.244 17.662 8.844 12.115l14.465-10.559c1.457 5.953 2.669 11.665 3.677 17.03.089.474.171.941.258 1.413l-24.594 19.645c-7.684 6.139 1.954 17.638 9.361 11.72l17.921-14.314c3.102 23.418 7.233 54.502-1.549 77.514-3.395 8.806 10.498 14.47 13.996 5.396.206-.534 4.641-12.234 5.407-29.163 48.935-21.564 92.622-35.195 129.88-40.48 9.601-1.363 7.497-16.2-2.107-14.852-21.596 3.064-45.201 8.808-70.582 17.128 10.684-28.492 24.183-78.11-15.696-91.369-17.657-5.869-39.518-7.699-65.042-5.448-12.666-30.676-28.132-51.634-40.954-65.2-9.452-10-27.283-2.499-26.2 11.509 1.687 21.842 3.442 43.676 4.753 65.546-24.767 6.849-51.651 16.498-80.095 28.754-.269-12.369-1.499-33.399-6.122-58.168-6.764-36.213-22.402-87.403-58.52-125.615-9.452-9.999-27.282-2.496-26.2 11.51.211 2.731.453 5.784.717 9.126 2.778 35.064 8.268 104.369 6.493 164.916l-13.385-15.843c-4.143-4.904-12.395-2.442-13.174 3.931-4.778 39.095 6.86 84.715 28.959 113.519 6.083 7.929 17.685-1.592 11.9-9.131-16.207-21.124-26.317-53.711-26.877-84.119l13.504 15.984c4.283 5.069 12.824 2.228 13.216-4.397 3.871-65.438-2.583-146.896-5.684-186.044-.264-3.332-.505-6.375-.715-9.097-.015-.189.256-.144.344-.05 14.857 15.718 26.006 33.921 34.379 52.289l-12.627 8.923c-8.079 5.71.993 17.667 8.657 12.25l9.901-6.997c2.421 6.328 4.537 12.601 6.389 18.729l-19.079 13.927c-7.98 5.824 1.244 17.662 8.844 12.115l14.465-10.559c1.457 5.953 2.67 11.665 3.677 17.03.089.474.171.941.258 1.413l-24.595 19.645c-7.684 6.139 1.953 17.637 9.361 11.721l17.921-14.314c3.727 28.135 2.984 48.253 2.974 48.491-.002.043.004.085.003.127-.002.062-.009.122-.009.184 0 16.617-4.479 28.611-4.518 28.712-3.394 8.806 10.498 14.47 13.996 5.396.206-.534 4.642-12.239 5.407-29.175 28.854-12.714 56.088-22.742 81.087-29.849 1.533 29.578 2.499 62.491 1.6 93.163l-13.385-15.843c-4.143-4.904-12.395-2.443-13.174 3.93-4.865 39.817 10.277 81.3 19.992 99.534 9.131 17.137 21.558 29.72 36.29 37.119-3.781 4.418-7.836 9.073-12.252 14.065-5.831 6.592-19.722 16.595-47.257 9.543-29.937-7.668-57.463-31.675-62.666-54.654-1.862-8.219.445-21.165 22.006-36.163 5.984-4.163 4.843-9.262 4.351-10.726-2.039-6.059-8.199-7.774-25.361-7.067l-.192.008c-9.228.115-18.964.018-27.718-2.397-9.346-2.587-13.338 11.88-3.99 14.459 10.669 2.944 22.096 3.056 31.974 2.936.062-.001.25-.006.546-.019.028-.001.055-.002.082-.003-13.833 13.2-19.59 27.876-16.327 42.284 3.322 14.671 12.737 29.009 27.228 41.464 13.396 11.515 29.855 20.183 46.346 24.407 21.469 5.5 46.697 3.407 62.215-14.135 5.901-6.671 11.167-12.751 16.007-18.476 10.029 2.469 20.283 2.057 30.503 2.629-13.683 13.149-19.365 27.75-16.119 42.084 3.322 14.671 12.738 29.009 27.228 41.465 13.396 11.515 29.855 20.183 46.347 24.407 21.469 5.499 46.696 3.407 62.214-14.136 35.011-39.58 46.783-57.312 66.286-86.69l.209-.316c52.509-79.096 57.297-123.47 56.902-138.942zm-198.031-101.436c32.936 10.95 9.994 64.204 1.636 83.651-12.379 4.518-25.131 9.589-38.263 15.249-.269-12.369-1.499-33.399-6.122-58.168-3.176-17.016-7.305-32.222-12.018-45.802 26.726-1.855 44.369 1.613 54.767 5.07z"/><path d="m316.107 383.455c.283 3.719 4.292 7.192 8.048 6.908 65.684-5.01 129.882-45.897 132.583-47.636 8.152-5.247.038-17.857-8.116-12.615-.631.405-63.772 40.578-125.607 45.293-4.131.317-7.223 3.92-6.908 8.05z"/></g></svg>