<svg height="511pt" viewBox="-18 1 511 511.99897" width="511pt" xmlns="http://www.w3.org/2000/svg"><path d="m460.136719 49.011719h-165.867188v-18.136719h165.867188c8.535156 0 15.441406-6.914062 15.441406-15.4375 0-8.53125-6.90625-15.4375-15.441406-15.4375-9.890625 0-335.664063 0-345.820313 0-8.519531 0-15.4375 6.90625-15.4375 15.4375 0 8.523438 6.917969 15.4375 15.4375 15.4375h30.714844v18.136719h-30.714844c-8.519531 0-15.4375 6.90625-15.4375 15.4375 0 8.523437 6.917969 15.441406 15.4375 15.441406h30.714844v142.421875h-72.625c-6.859375 0-12.535156 4.683594-14.140625 9.242188l-56.300781 120.054687c-3.621094 7.71875-.296875 16.914063 7.421875 20.53125 7.71875 3.621094 16.914062.300781 20.535156-7.421875l34.902344-74.429688 31.914062 208.609376c1.152344 7.542968 7.636719 13.101562 15.253907 13.101562h211.691406c7.625 0 14.109375-5.558594 15.261718-13.101562l31.917969-208.609376 34.902344 74.429688c3.625 7.726562 12.824219 11.039062 20.535156 7.421875 7.71875-3.621094 11.042969-12.8125 7.421875-20.53125-.078125-.167969-56.390625-120.246094-56.46875-120.414063-2.15625-4.8125-7.511718-8.882812-13.957031-8.882812h-69.027344v-142.421875h165.867188c8.535156 0 15.441406-6.917969 15.441406-15.441406 0-8.53125-6.90625-15.4375-15.441406-15.4375zm-196.746094 30.878906v142.421875h-87.484375c0-5.28125 0-186.605469 0-191.4375h87.484375zm-138.140625 401.234375-31.628906-206.824219 114.625 91.003907c5.632812 4.476562 13.570312 4.46875 19.195312 0l114.625-91.003907-31.640625 206.824219zm92.585938-147.625-101.152344-80.308594h202.316406zm0 0"/><path d="m205.722656 131.214844c-8.519531 0-15.4375 6.917968-15.4375 15.441406v46.941406c0 8.53125 6.917969 15.4375 15.4375 15.4375 8.535156 0 15.4375-6.90625 15.4375-15.4375v-46.941406c0-8.523438-6.902344-15.441406-15.4375-15.441406zm0 0"/><path d="m234.574219 40.890625c-8.582031 0-15.441407 6.960937-15.441407 15.4375v53.480469c0 8.53125 6.90625 15.4375 15.441407 15.4375 8.519531 0 15.4375-6.90625 15.4375-15.4375 0-35.789063 0-29.121094 0-53.480469 0-8.496094-6.886719-15.4375-15.4375-15.4375zm0 0"/></svg>