<svg height="512pt" viewBox="0 -32 512 512" width="512pt" xmlns="http://www.w3.org/2000/svg"><path d="m82.304688 81.292969c0 5.578125-4.523438 10.097656-10.101563 10.097656-5.574219 0-10.097656-4.519531-10.097656-10.097656s4.523437-10.097657 10.097656-10.097657c5.578125 0 10.101563 4.519532 10.101563 10.097657zm0 0"/><path d="m116.640625 132.796875c0 5.578125-4.523437 10.097656-10.101563 10.097656-5.578124 0-10.097656-4.519531-10.097656-10.097656s4.519532-10.101563 10.097656-10.101563c5.578126 0 10.101563 4.523438 10.101563 10.101563zm0 0"/><path d="m201.46875 132.796875c0 5.578125-4.523438 10.097656-10.101562 10.097656-5.574219 0-10.097657-4.519531-10.097657-10.097656s4.523438-10.101563 10.097657-10.101563c5.578124 0 10.101562 4.523438 10.101562 10.101563zm0 0"/><path d="m235.804688 81.292969c0 5.578125-4.523438 10.097656-10.101563 10.097656s-10.097656-4.519531-10.097656-10.097656 4.519531-10.097657 10.097656-10.097657 10.101563 4.519532 10.101563 10.097657zm0 0"/><path d="m159.054688 81.292969c0 5.578125-4.523438 10.097656-10.101563 10.097656-5.574219 0-10.097656-4.519531-10.097656-10.097656s4.523437-10.097657 10.097656-10.097657c5.578125 0 10.101563 4.519532 10.101563 10.097657zm0 0"/><path d="m159.054688 177.230469c0 5.578125-4.523438 10.097656-10.101563 10.097656-5.574219 0-10.097656-4.519531-10.097656-10.097656s4.523437-10.097657 10.097656-10.097657c5.578125 0 10.101563 4.519532 10.101563 10.097657zm0 0"/><path d="m82.304688 177.230469c0 5.578125-4.523438 10.097656-10.101563 10.097656-5.574219 0-10.097656-4.519531-10.097656-10.097656s4.523437-10.097657 10.097656-10.097657c5.578125 0 10.101563 4.519532 10.101563 10.097657zm0 0"/><path d="m82.304688 273.167969c0 5.578125-4.523438 10.097656-10.101563 10.097656-5.574219 0-10.097656-4.519531-10.097656-10.097656s4.523437-10.101563 10.097656-10.101563c5.578125 0 10.101563 4.523438 10.101563 10.101563zm0 0"/><path d="m116.640625 221.664062c0 5.578126-4.523437 10.097657-10.101563 10.097657-5.578124 0-10.097656-4.519531-10.097656-10.097657 0-5.578124 4.519532-10.097656 10.097656-10.097656 5.578126 0 10.101563 4.519532 10.101563 10.097656zm0 0"/><path d="m201.46875 221.664062c0 5.578126-4.523438 10.097657-10.101562 10.097657-5.574219 0-10.097657-4.519531-10.097657-10.097657 0-5.578124 4.523438-10.097656 10.097657-10.097656 5.578124 0 10.101562 4.519532 10.101562 10.097656zm0 0"/><path d="m159.054688 273.167969c0 5.578125-4.523438 10.097656-10.101563 10.097656-5.574219 0-10.097656-4.519531-10.097656-10.097656s4.523437-10.101563 10.097656-10.101563c5.578125 0 10.101563 4.523438 10.101563 10.101563zm0 0"/><path d="m296.394531 174.199219c0 5.578125-4.519531 10.101562-10.097656 10.101562s-10.101563-4.523437-10.101563-10.101562c0-5.574219 4.523438-10.097657 10.101563-10.097657s10.097656 4.523438 10.097656 10.097657zm0 0"/><path d="m330.730469 225.703125c0 5.578125-4.523438 10.101563-10.097657 10.101563-5.578124 0-10.101562-4.523438-10.101562-10.101563s4.523438-10.097656 10.101562-10.097656c5.574219 0 10.097657 4.519531 10.097657 10.097656zm0 0"/><path d="m415.558594 225.703125c0 5.578125-4.519532 10.101563-10.097656 10.101563-5.578126 0-10.101563-4.523438-10.101563-10.101563s4.523437-10.097656 10.101563-10.097656c5.578124 0 10.097656 4.519531 10.097656 10.097656zm0 0"/><path d="m449.894531 174.199219c0 5.578125-4.523437 10.101562-10.097656 10.101562-5.578125 0-10.101563-4.523437-10.101563-10.101562 0-5.574219 4.523438-10.097657 10.101563-10.097657 5.574219 0 10.097656 4.523438 10.097656 10.097657zm0 0"/><path d="m373.144531 174.199219c0 5.578125-4.523437 10.101562-10.097656 10.101562-5.578125 0-10.101563-4.523437-10.101563-10.101562 0-5.574219 4.523438-10.097657 10.101563-10.097657 5.574219 0 10.097656 4.523438 10.097656 10.097657zm0 0"/><path d="m373.144531 270.136719c0 5.578125-4.523437 10.101562-10.097656 10.101562-5.578125 0-10.101563-4.523437-10.101563-10.101562s4.523438-10.097657 10.101563-10.097657c5.574219 0 10.097656 4.519532 10.097656 10.097657zm0 0"/><path d="m449.894531 270.136719c0 5.578125-4.523437 10.101562-10.097656 10.101562-5.578125 0-10.101563-4.523437-10.101563-10.101562s4.523438-10.097657 10.101563-10.097657c5.574219 0 10.097656 4.519532 10.097656 10.097657zm0 0"/><path d="m296.394531 270.136719c0 5.578125-4.519531 10.101562-10.097656 10.101562s-10.101563-4.523437-10.101563-10.101562 4.523438-10.097657 10.101563-10.097657 10.097656 4.519532 10.097656 10.097657zm0 0"/><path d="m296.394531 366.074219c0 5.578125-4.519531 10.101562-10.097656 10.101562s-10.101563-4.523437-10.101563-10.101562 4.523438-10.097657 10.101563-10.097657 10.097656 4.519532 10.097656 10.097657zm0 0"/><path d="m330.730469 314.570312c0 5.578126-4.523438 10.101563-10.097657 10.101563-5.578124 0-10.101562-4.523437-10.101562-10.101563 0-5.574218 4.523438-10.097656 10.101562-10.097656 5.574219 0 10.097657 4.523438 10.097657 10.097656zm0 0"/><path d="m415.558594 314.570312c0 5.578126-4.519532 10.101563-10.097656 10.101563-5.578126 0-10.101563-4.523437-10.101563-10.101563 0-5.574218 4.523437-10.097656 10.101563-10.097656 5.578124 0 10.097656 4.523438 10.097656 10.097656zm0 0"/><path d="m449.894531 366.074219c0 5.578125-4.523437 10.101562-10.097656 10.101562-5.578125 0-10.101563-4.523437-10.101563-10.101562s4.523438-10.097657 10.101563-10.097657c5.574219 0 10.097656 4.519532 10.097656 10.097657zm0 0"/><path d="m373.144531 366.074219c0 5.578125-4.523437 10.101562-10.097656 10.101562-5.578125 0-10.101563-4.523437-10.101563-10.101562s4.523438-10.097657 10.101563-10.097657c5.574219 0 10.097656 4.519532 10.097656 10.097657zm0 0"/><path d="m512 241.863281c0-11.484375-5.429688-21.726562-13.855469-28.292969 5.078125-3.941406 9.121094-9.238281 11.5-15.457031 1.492188-3.90625-.464843-8.285156-4.371093-9.777343-3.902344-1.496094-8.285157.460937-9.777344 4.367187-3.046875 7.960937-10.820313 13.308594-19.347656 13.308594-4.179688 0-7.574219 3.390625-7.574219 7.574219 0 4.183593 3.394531 7.574218 7.574219 7.574218 11.417968 0 20.703124 9.285156 20.703124 20.703125 0 11.414063-9.285156 20.699219-20.703124 20.699219-4.179688 0-7.574219 3.390625-7.574219 7.574219 0 4.183593 3.394531 7.574219 7.574219 7.574219 11.417968 0 20.703124 9.289062 20.703124 20.703124 0 11.414063-9.285156 20.703126-20.703124 20.703126-4.179688 0-7.574219 3.390624-7.574219 7.574218 0 4.179688 3.394531 7.574219 7.574219 7.574219 11.417968 0 20.703124 9.285156 20.703124 20.699219 0 11.417968-9.285156 20.703125-20.703124 20.703125-4.179688 0-7.574219 3.390625-7.574219 7.574219 0 4.183593 3.394531 7.574218 7.574219 7.574218 11.417968 0 20.703124 9.285156 20.703124 20.703125 0 11.414063-9.285156 20.699219-20.703124 20.699219-11.414063 0-20.699219-9.285156-20.699219-20.699219 0-4.183593-3.390625-7.574219-7.574219-7.574219s-7.574219 3.390626-7.574219 7.574219c0 11.414063-9.289062 20.699219-20.703125 20.699219-11.414062 0-20.703125-9.285156-20.703125-20.699219 0-4.183593-3.390625-7.574219-7.574219-7.574219-4.179687 0-7.574218 3.390626-7.574218 7.574219 0 11.414063-9.285156 20.699219-20.699219 20.699219s-20.703125-9.285156-20.703125-20.699219c0-4.183593-3.390625-7.574219-7.574219-7.574219-4.183593 0-7.574219 3.390626-7.574219 7.574219 0 11.414063-9.285156 20.699219-20.703124 20.699219-11.414063 0-20.699219-9.285156-20.699219-20.699219 0-4.183593-3.390625-7.574219-7.574219-7.574219s-7.574219 3.390626-7.574219 7.574219c0 11.414063-9.289062 20.699219-20.703125 20.699219-11.414062 0-20.703125-9.285156-20.703125-20.699219 0-11.417969 9.289063-20.703125 20.703125-20.703125 4.183594 0 7.574219-3.390625 7.574219-7.574218 0-4.183594-3.390625-7.574219-7.574219-7.574219-11.414062 0-20.703125-9.285157-20.703125-20.703125 0-11.414063 9.289063-20.699219 20.703125-20.699219 4.183594 0 7.574219-3.394531 7.574219-7.574219 0-4.183594-3.390625-7.574218-7.574219-7.574218-11.414062 0-20.703125-9.289063-20.703125-20.703126 0-11.414062 9.289063-20.703124 20.703125-20.703124 4.183594 0 7.574219-3.390626 7.574219-7.574219 0-4.183594-3.390625-7.574219-7.574219-7.574219-11.414062 0-20.703125-9.285156-20.703125-20.699219 0-11.417969 9.289063-20.703125 20.703125-20.703125 4.183594 0 7.574219-3.390625 7.574219-7.574218 0-4.183594-3.390625-7.574219-7.574219-7.574219-11.414062 0-20.703125-9.285157-20.703125-20.703125 0-11.414063 9.289063-20.699219 20.703125-20.699219 4.183594 0 7.574219-3.390625 7.574219-7.574219s-3.390625-7.574218-7.574219-7.574218c-11.414062 0-20.703125-9.289063-20.703125-20.703126 0-11.414062 9.289063-20.703124 20.703125-20.703124 11.414063 0 20.703125 9.289062 20.703125 20.703124 0 4.183594 3.390625 7.574219 7.574219 7.574219s7.574219-3.390625 7.574219-7.574219c0-11.414062 9.285156-20.703124 20.699219-20.703124 11.417968 0 20.703124 9.289062 20.703124 20.703124 0 4.183594 3.390626 7.574219 7.574219 7.574219 4.183594 0 7.574219-3.390625 7.574219-7.574219 0-11.414062 9.289062-20.703124 20.703125-20.703124s20.699219 9.289062 20.699219 20.703124c0 4.183594 3.394531 7.574219 7.574218 7.574219 4.183594 0 7.574219-3.390625 7.574219-7.574219 0-11.414062 9.289063-20.703124 20.703125-20.703124 11.414063 0 20.703125 9.289062 20.703125 20.703124 0 4.183594 3.390625 7.574219 7.574219 7.574219s7.574219-3.390625 7.574219-7.574219c0-11.414062 9.285156-20.703124 20.699219-20.703124 11.417968 0 20.703124 9.289062 20.703124 20.703124 0 11.414063-9.285156 20.703126-20.703124 20.703126-4.179688 0-7.574219 3.390624-7.574219 7.574218s3.394531 7.574219 7.574219 7.574219c4.253906 0 8.335937 1.277344 11.804687 3.691406 3.433594 2.386719 8.15625 1.539063 10.542969-1.890625 2.019531-2.898437 1.730468-6.710937-.472656-9.265625 8.496093-6.5625 13.976562-16.847656 13.976562-28.386719 0-19.769531-16.082031-35.851562-35.851562-35.851562-11.472657 0-21.707032 5.417969-28.273438 13.835938-6.566406-8.417969-16.800781-13.835938-28.277344-13.835938-11.476562 0-21.710937 5.417969-28.277344 13.835938-6.5625-8.417969-16.796874-13.835938-28.273437-13.835938s-21.710937 5.417969-28.277344 13.835938c-6.566406-8.417969-16.800781-13.835938-28.277343-13.835938-2.976563 0-5.867188.371094-8.636719 1.058594.023437-.519532.054687-1.039063.054687-1.5625 0-11.476563-5.417968-21.710938-13.835937-28.277344 8.417969-6.566406 13.835937-16.800781 13.835937-28.273438 0-19.769531-16.082031-35.851562-35.851562-35.851562-11.472656 0-21.707032 5.417969-28.273438 13.835938-6.566406-8.417969-16.800781-13.835938-28.277344-13.835938-11.476562 0-21.710937 5.417969-28.277343 13.835938-6.566407-8.417969-16.796875-13.835938-28.273438-13.835938-11.476562 0-21.710937 5.417969-28.277343 13.835938-6.566407-8.417969-16.800782-13.835938-28.277344-13.835938-11.472656 0-21.707032 5.417969-28.273438 13.835938-6.566406-8.417969-16.800781-13.835938-28.277344-13.835938-19.769531 0-35.851562 16.082031-35.851562 35.851562 0 11.472657 5.417969 21.707032 13.835938 28.273438-8.417969 6.566406-13.835938 16.800781-13.835938 28.277344 0 11.464844 5.410156 21.6875 13.8125 28.253906-2.382812 1.867188-4.546875 4.050781-6.445312 6.527344-2.542969 3.320312-1.910157 8.074218 1.410156 10.617187 1.375 1.050781 2.992187 1.558594 4.601562 1.558594 2.273438 0 4.527344-1.023437 6.019532-2.96875 3.957031-5.171875 9.957031-8.136719 16.453124-8.136719 4.183594 0 7.574219-3.394531 7.574219-7.574218 0-4.183594-3.390625-7.574219-7.574219-7.574219-11.414062 0-20.703124-9.289063-20.703124-20.703125 0-11.414063 9.289062-20.703125 20.703124-20.703125 4.183594 0 7.574219-3.390625 7.574219-7.574219s-3.390625-7.574219-7.574219-7.574219c-11.414062 0-20.703124-9.285156-20.703124-20.699219 0-11.417968 9.289062-20.703124 20.703124-20.703124 11.414063 0 20.703126 9.285156 20.703126 20.703124 0 4.179688 3.390624 7.574219 7.574218 7.574219 4.179688 0 7.570313-3.394531 7.570313-7.574219 0-11.417968 9.289062-20.703124 20.703125-20.703124 11.414062 0 20.703125 9.285156 20.703125 20.703124 0 4.179688 3.390625 7.574219 7.574219 7.574219 4.183593 0 7.574218-3.394531 7.574218-7.574219 0-11.417968 9.285156-20.703124 20.699219-20.703124 11.417969 0 20.703125 9.285156 20.703125 20.703124 0 4.179688 3.390625 7.574219 7.574219 7.574219 4.183593 0 7.574219-3.394531 7.574219-7.574219 0-11.417968 9.289062-20.703124 20.703124-20.703124 11.414063 0 20.703126 9.285156 20.703126 20.703124 0 4.179688 3.390624 7.574219 7.570312 7.574219 4.183594 0 7.574219-3.394531 7.574219-7.574219 0-11.417968 9.289062-20.703124 20.703125-20.703124 11.414062 0 20.703125 9.285156 20.703125 20.703124 0 11.414063-9.289063 20.699219-20.703125 20.699219-4.183594 0-7.574219 3.390625-7.574219 7.574219s3.390625 7.574219 7.574219 7.574219c11.414062 0 20.703125 9.289062 20.703125 20.703125 0 5.09375-1.878907 9.914062-5.132813 13.628906-6.578125-8.003906-16.542968-13.125-27.6875-13.125-19.769531 0-35.851562 16.082031-35.851562 35.851562 0 11.476563 5.417968 21.710938 13.835937 28.273438-8.417969 6.566406-13.835937 16.800781-13.835937 28.277344 0 11.476562 5.417968 21.710937 13.835937 28.277344-8.417969 6.566406-13.835937 16.800781-13.835937 28.273437 0 11.476563 5.417968 21.710937 13.835937 28.277344-8.417969 6.566406-13.835937 16.800781-13.835937 28.277343 0 10.265626 4.34375 19.527344 11.28125 26.066407-2.535156 8.671875-10.5 14.832031-19.863282 14.832031-11.417968 0-20.703124-9.289062-20.703124-20.703125 0-4.183594-3.390626-7.574219-7.574219-7.574219-4.183594 0-7.574219 3.390625-7.574219 7.574219 0 11.414063-9.289062 20.703125-20.703125 20.703125s-20.699219-9.289062-20.699219-20.703125c0-4.183594-3.394531-7.574219-7.574218-7.574219-4.183594 0-7.574219 3.390625-7.574219 7.574219 0 11.414063-9.289063 20.703125-20.703125 20.703125-11.414063 0-20.703125-9.285156-20.703125-20.703125 0-4.179687-3.390625-7.574219-7.574219-7.574219s-7.574219 3.394532-7.574219 7.574219c0 11.417969-9.285156 20.703125-20.699219 20.703125-11.417968 0-20.703124-9.285156-20.703124-20.703125 0-11.414063 9.285156-20.699219 20.703124-20.699219 4.179688 0 7.574219-3.390625 7.574219-7.574218 0-4.183594-3.394531-7.574219-7.574219-7.574219-11.417968 0-20.703124-9.289063-20.703124-20.703125 0-11.414063 9.285156-20.703125 20.703124-20.703125 4.179688 0 7.574219-3.390625 7.574219-7.574219 0-4.179688-3.394531-7.570312-7.574219-7.570312-11.417968 0-20.703124-9.289063-20.703124-20.703126 0-11.414062 9.285156-20.703124 20.703124-20.703124 4.179688 0 7.574219-3.390626 7.574219-7.574219 0-4.183594-3.394531-7.574219-7.574219-7.574219-6.761718 0-13.117187-3.316406-16.996093-8.878906-2.390625-3.429688-7.113281-4.269532-10.542969-1.875-3.429688 2.394531-4.273438 7.113281-1.878906 10.542968 2.085937 2.992188 4.585937 5.605469 7.394531 7.789063-8.414063 6.566406-13.828125 16.796875-13.828125 28.273437 0 11.472657 5.417969 21.707032 13.835938 28.273438-8.417969 6.566406-13.835938 16.800781-13.835938 28.277344 0 11.476562 5.417969 21.710937 13.835938 28.277344-8.417969 6.566406-13.835938 16.800781-13.835938 28.273437 0 19.769531 16.082031 35.851563 35.851562 35.851563 11.472657 0 21.707032-5.417969 28.273438-13.835938 6.566406 8.417969 16.800781 13.835938 28.277344 13.835938 11.476562 0 21.710937-5.417969 28.277344-13.835938 6.5625 8.417969 16.796874 13.835938 28.273437 13.835938s21.710937-5.417969 28.277344-13.835938c6.566406 8.417969 16.800781 13.835938 28.277343 13.835938 2.972657 0 5.859376-.363282 8.628907-1.042969-.023438.515625-.046875 1.027343-.046875 1.546875 0 11.476562 5.417968 21.710937 13.835937 28.277344-8.417969 6.566406-13.835937 16.800781-13.835937 28.277343 0 19.765625 16.082031 35.847657 35.847656 35.847657 11.476562 0 21.710938-5.417969 28.277344-13.835938 6.566406 8.417969 16.800781 13.835938 28.277344 13.835938 11.476562 0 21.707031-5.417969 28.273437-13.835938 6.566406 8.417969 16.800781 13.835938 28.277344 13.835938 11.476562 0 21.710937-5.417969 28.277343-13.835938 6.566407 8.417969 16.796876 13.835938 28.273438 13.835938s21.710938-5.417969 28.277344-13.835938c6.566406 8.417969 16.800781 13.835938 28.277344 13.835938 19.765624 0 35.847656-16.082032 35.847656-35.847657 0-11.476562-5.417969-21.710937-13.835938-28.277343 8.417969-6.566407 13.835938-16.800782 13.835938-28.277344 0-11.476563-5.417969-21.707032-13.835938-28.273438 8.417969-6.566406 13.835938-16.800781 13.835938-28.277344 0-11.476562-5.417969-21.710937-13.835938-28.277343 8.421875-6.566407 13.839844-16.796875 13.839844-28.273438zm0 0"/></svg>