<svg id="Capa_1" enable-background="new 0 0 512 512" height="512" viewBox="0 0 512 512" width="512" xmlns="http://www.w3.org/2000/svg"><g><path d="m448.626 154.67-30.626-67.786v-69.384c0-9.649-7.851-17.5-17.5-17.5h-177.734c-4.143 0-7.5 3.357-7.5 7.5s3.357 7.5 7.5 7.5h177.734c1.379 0 2.5 1.121 2.5 2.5v33.5h-294v-33.5c0-1.379 1.121-2.5 2.5-2.5h76.266c4.143 0 7.5-3.357 7.5-7.5s-3.357-7.5-7.5-7.5h-76.266c-9.649 0-17.5 7.851-17.5 17.5v69.384l-30.626 67.786c-4.562 10.095-6.874 20.83-6.874 31.909v146.634c0 4.143 3.357 7.5 7.5 7.5s7.5-3.357 7.5-7.5v-146.634c0-8.935 1.865-17.592 5.544-25.733l29.298-64.846h203.786c4.143 0 7.5-3.357 7.5-7.5s-3.357-7.5-7.5-7.5h-201.128v-15h294v15h-57.872c-4.143 0-7.5 3.357-7.5 7.5s3.357 7.5 7.5 7.5h60.53l29.298 64.846c3.679 8.142 5.544 16.799 5.544 25.733v302.921c0 4.136-3.364 7.5-7.5 7.5h-354c-4.136 0-7.5-3.364-7.5-7.5v-121.287c0-4.143-3.357-7.5-7.5-7.5s-7.5 3.357-7.5 7.5v121.287c0 12.406 10.094 22.5 22.5 22.5h354c12.406 0 22.5-10.094 22.5-22.5v-302.921c0-11.079-2.312-21.814-6.874-31.909z"/><path d="m286.354 256.17c.584 1.011 1.248 1.951 1.968 2.83-.72.879-1.384 1.819-1.968 2.83-3.734 6.468-3.733 14.189.001 20.657l6.481 11.227c3.734 6.468 10.422 10.329 17.891 10.329 1.167 0 2.312-.105 3.434-.289.401 1.063.883 2.107 1.467 3.118 3.734 6.468 10.422 10.329 17.891 10.329h12.963c7.469 0 14.156-3.861 17.891-10.329.584-1.011 1.065-2.055 1.467-3.118 1.121.184 2.266.289 3.434.289 7.469 0 14.157-3.861 17.891-10.329l6.481-11.227c3.734-6.468 3.734-14.189.001-20.657-.584-1.011-1.248-1.951-1.968-2.83.72-.879 1.384-1.819 1.968-2.83 3.733-6.468 3.733-14.189-.001-20.657l-6.481-11.227c-3.733-6.468-10.422-10.329-17.891-10.329-1.167 0-2.312.105-3.434.289-.401-1.063-.883-2.107-1.467-3.118-3.734-6.468-10.422-10.329-17.891-10.329h-12.963c-7.469 0-14.156 3.861-17.891 10.329-.584 1.011-1.065 2.055-1.467 3.118-1.121-.184-2.266-.289-3.434-.289-7.469 0-14.157 3.861-17.891 10.329l-6.481 11.227c-3.734 6.467-3.734 14.189-.001 20.657zm19.473 30.044-6.481-11.227c-1.475-2.554-.491-4.808-.001-5.658.491-.851 1.952-2.829 4.901-2.829h12.963c2.948 0 4.409 1.979 4.9 2.829s1.475 3.104 0 5.658l-6.481 11.227c-1.475 2.554-3.918 2.829-4.9 2.829s-3.426-.275-4.901-2.829zm34.173-32.872c1.167 0 2.312-.105 3.434-.289.603 1.379 1.129 3.02 3.434 5.947-.893 1.212-2.051 2.488-3.434 5.947-1.496-.167-3.18-.532-6.867 0-.603-1.379-1.129-3.02-3.434-5.947.893-1.212 2.051-2.488 3.434-5.947 1.121.184 2.266.289 3.433.289zm11.382 46.03c-.491.851-1.952 2.829-4.9 2.829h-12.963c-2.948 0-4.409-1.979-4.9-2.829s-1.475-3.104 0-5.658l6.481-11.227c1.475-2.554 3.918-2.829 4.9-2.829s3.426.275 4.9 2.829l6.481 11.227c1.475 2.554.492 4.807.001 5.658zm29.272-24.385-6.481 11.227c-1.475 2.554-3.918 2.829-4.9 2.829s-3.426-.275-4.9-2.829l-6.481-11.227c-1.475-2.554-.491-4.808 0-5.658s1.952-2.829 4.9-2.829h12.963c2.949 0 4.41 1.979 4.901 2.829.49.851 1.473 3.105-.002 5.658zm-6.481-43.201 6.481 11.227c1.475 2.554.491 4.808.001 5.658-.491.851-1.952 2.829-4.901 2.829h-12.963c-2.948 0-4.409-1.979-4.9-2.829s-1.475-3.104 0-5.658l6.481-11.227c1.475-2.554 3.918-2.829 4.9-2.829s3.426.275 4.901 2.829zm-45.555-13.158c.491-.851 1.952-2.829 4.9-2.829h12.963c2.948 0 4.409 1.979 4.9 2.829s1.475 3.104 0 5.658l-6.481 11.227c-1.475 2.554-3.918 2.829-4.9 2.829s-3.426-.275-4.9-2.829l-6.481-11.227c-1.475-2.554-.492-4.807-.001-5.658zm-29.272 24.385 6.481-11.227c1.475-2.554 3.918-2.829 4.9-2.829s3.426.275 4.9 2.829l6.481 11.227c1.475 2.554.491 4.808 0 5.658s-1.952 2.829-4.9 2.829h-12.963c-2.949 0-4.41-1.979-4.901-2.829-.49-.851-1.473-3.105.002-5.658z"/><path d="m123.622 405.04c-4.127-1.377-8.574-1.183-12.52.546-10.473 4.57-19.613 14.512-22.861 26.205-3.35 11.781-.999 24.216 6.448 34.115 7.657 10.178 19.336 16.094 32.044 16.094 7.789 0 39.323.286 45.835.286 14.237 0 23.118-5.908 28.185-13.066 4.143 2.189 8.739 3.351 13.49 3.351 6.568 0 12.139-1.198 17.044-3.749 8.11 1.44 16.415 2.178 24.713 2.178 35.426 0 69.263-13.226 95.277-37.24 3.044-2.81 3.233-7.555.424-10.598s-7.555-3.232-10.598-.424c-23.235 21.45-53.458 33.262-85.103 33.262-3.599 0-7.198-.161-10.778-.465 12.653-19.431 19.788-38.794 19.421-54.963.139-26.34-16.383-44.407-41.731-44.482-7.737 0-15.197 2.283-21.532 6.39-.437-6.622 1.8-13.289 6.444-18.32 2.81-3.043 2.62-7.788-.424-10.598-3.045-2.81-7.788-2.621-10.598.424-6.539 7.083-10.128 16.182-10.457 25.483-4.969-2.194-10.397-3.379-15.969-3.379-12.532.184-25.449 5.229-32.999 15.498-4.562-13.129-6.877-26.889-6.877-41.087 0-6.588.52-13.164 1.534-19.634 5.093 1.382 10.442 2.133 15.966 2.133 33.636 0 61-27.364 61-61 0-12.302-3.672-23.756-9.961-33.348 17.555-8.946 37.089-13.652 56.961-13.652 5.853 0 11.685.417 17.448 1.218-11.533 14.511-18.448 32.849-18.448 52.782 0 46.869 38.131 85 85 85 15.046 0 29.181-3.946 41.453-10.833-.481 22.85-7.11 45.022-19.282 64.283-2.213 3.502-1.168 8.134 2.333 10.347 1.244.786 2.63 1.161 4 1.161 2.487 0 4.92-1.236 6.347-3.494 14.163-22.411 21.649-48.333 21.649-74.964 0-2.615-.098-5.242-.243-7.858 17.611-15.585 28.743-38.332 28.743-63.642 0-46.869-38.131-85-85-85-20.405 0-39.149 7.232-53.816 19.26-9.867-2.159-20.001-3.26-30.184-3.26-23.438 0-46.465 5.847-66.925 16.943-10.848-9.898-25.268-15.943-41.075-15.943-33.636 0-61 27.364-61 61 0 22.662 12.431 42.462 30.823 52.98-1.537 8.381-2.323 16.943-2.323 25.52 0 21.254 4.63 41.64 13.738 60.632-.541 3.485-1.052 9.842-.399 15.649zm286.378-146.04c0 38.598-31.402 70-70 70s-70-31.402-70-70 31.402-70 70-70 70 31.402 70 70zm-308-7c0-25.364 20.636-46 46-46s46 20.636 46 46-20.636 46-46 46-46-20.636-46-46zm67.646 215.183c-.779-.05-42.477-.165-42.854-.183-7.974-.031-15.305-3.717-20.115-10.111-4.066-5.314-6.345-14.543-3.658-22.129 2.299-6.889 7.438-12.515 14.102-15.435.331-.143 1.014-.308 1.758-.055l-.001-.001 25.132 8.384-2.306 6.339c-1.416 3.893.592 8.196 4.484 9.611.846.309 1.712.454 2.562.454 3.064 0 5.941-1.892 7.049-4.938l2.443-6.718 32.111 10.713c1.907 3.562 2.295 7.78 1.005 11.648-2.242 6.723-6.662 12.421-21.712 12.421zm-26.014-63.248c-.716-10.29 1.612-18.78 6.73-24.553 3.919-4.54 11.863-8.346 20.014-8.293 7.993 0 15.52 3.915 20.134 10.473 1.405 1.996 3.693 3.184 6.134 3.184s4.729-1.188 6.134-3.184c4.614-6.558 12.142-10.473 20.135-10.473 16.362.095 26.905 10.887 26.731 29.482 0 13.634-4.604 26.692-15.892 45.076-5.542 9.026-10.282 11.924-19.509 11.924-2.722 0-5.339-.786-7.603-2.261 1.416-7.981-.474-16.297-5.374-22.929-.917-1.242-2.194-2.17-3.659-2.658l-52.803-17.615c-.587-2.764-.987-5.503-1.172-8.173z"/><path d="m169.5 266c0-4.143-3.357-7.5-7.5-7.5h-28c-4.143 0-7.5 3.357-7.5 7.5s3.357 7.5 7.5 7.5h28c4.143 0 7.5-3.357 7.5-7.5z"/><path d="m167 245.5c4.143 0 7.5-3.357 7.5-7.5s-3.357-7.5-7.5-7.5h-38c-4.143 0-7.5 3.357-7.5 7.5s3.357 7.5 7.5 7.5z"/><path d="m307 157.5c12.683 0 23-10.317 23-23s-10.317-23-23-23h-102c-12.683 0-23 10.317-23 23s10.317 23 23 23zm-110-23c0-4.411 3.589-8 8-8h102c4.411 0 8 3.589 8 8s-3.589 8-8 8h-102c-4.411 0-8-3.589-8-8z"/></g></svg>