<svg id="Capa_1" enable-background="new 0 0 512.003 512.003" height="512" viewBox="0 0 512.003 512.003" width="512" xmlns="http://www.w3.org/2000/svg"><g id="XMLID_670_"><g id="XMLID_523_"><path id="XMLID_570_" d="m483.483 348.002h-1.483v-24.646c0-10.672-8.682-19.354-19.353-19.354h-6.684c-.722-32.043-22.894-61.872-57.552-76.097-19.945-8.187-29.664-15.328-34.302-19.876-7.227-7.09-18.988-7.089-26.217-.001-4.639 4.549-14.357 11.69-34.304 19.877-21.236 8.716-37.785 23.292-47.588 40.645-9.803-17.353-26.352-31.929-47.589-40.645-19.945-8.187-29.664-15.328-34.302-19.876-7.227-7.09-18.988-7.089-26.217-.001-4.639 4.549-14.357 11.69-34.304 19.877-34.657 14.225-56.828 44.054-57.551 76.097h-6.684c-10.671 0-19.353 8.682-19.353 19.354v24.646h-1.484c-15.724 0-28.516 12.792-28.516 28.517v106.967c0 15.725 12.792 28.517 28.516 28.517h454.967c15.724 0 28.517-12.792 28.517-28.517v-106.967c0-15.725-12.792-28.517-28.517-28.517zm-172.301-101.594c17.788-7.301 31.174-15.114 39.818-23.24 8.644 8.125 22.031 15.94 39.817 23.24 27.009 11.085 44.385 33.641 45.142 57.595h-169.918c.757-23.954 18.133-46.51 45.141-57.595zm-190 0c17.788-7.301 31.174-15.114 39.818-23.24 8.644 8.125 22.031 15.94 39.817 23.24 27.009 11.085 44.385 33.641 45.142 57.595h-169.918c.757-23.954 18.133-46.51 45.141-57.595zm-71.182 77.594h412v24h-412zm442 159.484c0 4.696-3.82 8.517-8.517 8.517h-454.967c-4.696 0-8.516-3.82-8.516-8.517v-106.967c0-4.696 3.82-8.517 8.516-8.517h454.967c4.696 0 8.517 3.82 8.517 8.517z"/><path id="XMLID_576_" d="m502 128.005h-246c-5.514 0-10-4.486-10-10s4.486-10 10-10h246c5.523 0 10-4.478 10-10s-4.477-10-10-10h-138.238l140.895-38.83c5.325-1.468 8.451-6.974 6.984-12.298-1.468-5.325-6.974-8.449-12.297-6.983l-158.339 43.637c-5.156-5.89-11.167-11.203-17.922-15.806l138.181-38.082c5.325-1.468 8.451-6.973 6.984-12.298-1.468-5.325-6.975-8.449-12.297-6.983l-159.317 43.906c-15.354-6.933-23.33-12.917-27.399-16.906-7.228-7.088-18.988-7.087-26.216-.001-4.64 4.55-14.358 11.691-34.304 19.878-1.305.536-2.623 1.106-3.917 1.695-5.026 2.29-7.244 8.221-4.955 13.246 2.29 5.027 8.221 7.245 13.246 4.955 1.064-.485 2.148-.954 3.219-1.395 17.788-7.301 31.174-15.114 39.818-23.24 8.644 8.125 22.031 15.94 39.817 23.24 12.69 5.208 23.357 12.885 31.154 22.265h-71.097c-16.542 0-30 13.458-30 30s13.458 30 30 30h79.137c-10.677 17.196-32.899 19.33-43.193 19.33h-71.635c-12.541 0-42.339-3.143-48.176-32.247-.419-2.093-.711-4.231-.867-6.354-.404-5.509-5.185-9.633-10.705-9.242-5.508.404-9.646 5.197-9.241 10.705.216 2.95.622 5.918 1.204 8.824 3.682 18.356 14.481 32.347 31.231 40.458 14.115 6.836 28.961 7.856 36.555 7.856h71.635c7.441 0 22.007-.983 35.96-7.571 14.197-6.704 24.208-17.604 29.318-31.759h144.777c5.523 0 10-4.478 10-10s-4.477-10-10-10z"/><path id="XMLID_577_" d="m173.9 96.262c2.63 0 5.21-1.07 7.07-2.93s2.93-4.44 2.93-7.07-1.07-5.21-2.93-7.07c-1.86-1.859-4.44-2.93-7.07-2.93s-5.21 1.07-7.07 2.93-2.93 4.44-2.93 7.07 1.07 5.21 2.93 7.07 4.44 2.93 7.07 2.93z"/></g></g></svg>