<svg id="Layer_1" height="512" viewBox="0 0 512 512" width="512" xmlns="http://www.w3.org/2000/svg" data-name="Layer 1"><path d="m95.663 307.131a3 3 0 0 0 2.737 1.769c.077 0 .155 0 .232-.008a3 3 0 0 0 2.663-2.2l47.4-172.991a3 3 0 0 0 -4.62-3.247 144.064 144.064 0 0 0 -48.412 176.677zm18.137-68.791a7.263 7.263 0 0 1 3.228-11.781zm26.786-97.755-21.825 79.648a13.257 13.257 0 0 0 -6.692 24.425l-14.237 51.968c-1.491-3.982-2.8-8.046-3.926-12.153a138.286 138.286 0 0 1 46.684-143.888z"/><path d="m281.8 379.284a3 3 0 0 0 3.163.47 143.968 143.968 0 0 0 58.3-216.23 3 3 0 0 0 -5.322.984l-57.079 211.72a3 3 0 0 0 .938 3.056zm47.4-159.318a7.258 7.258 0 1 1 -3.624 13.44zm-20.259 75.145a17.869 17.869 0 0 1 6.021 15.548 18.077 18.077 0 0 1 -14.412 15.577zm-10.082 37.4a24.108 24.108 0 0 0 22.065-21.172 23.832 23.832 0 0 0 -10.3-22.477l13.355-49.535a13.324 13.324 0 0 0 5.4 1.156 13.255 13.255 0 0 0 12.779-16.76 13.319 13.319 0 0 0 -11.364-9.666l11.254-41.744a137.938 137.938 0 0 1 -53.718 199.241z"/><path d="m189.945 385.9a3 3 0 0 0 1.9 1.614 126.062 126.062 0 0 0 34.526 4.9c15.63 0 31.72-2.985 49.448-9.01a3 3 0 0 0 1.957-2.165l53.241-230.4a3 3 0 0 0 -.5-2.451c-5.546-7.551-13.214-13.982-23.443-19.663a3 3 0 0 0 -4.2 1.4l-112.953 253.275a3 3 0 0 0 .024 2.5zm95.329-63.742a17.85 17.85 0 0 1 -6-15.542 18.092 18.092 0 0 1 13.126-15.291zm21.726-186.546a63.5 63.5 0 0 1 17.859 15.244l-30.974 134.044a23.834 23.834 0 0 0 -20.717 23.573 9.293 9.293 0 0 0 -1.008-2.917l-1.649-3.007a9.274 9.274 0 0 0 -12.863-3.519l-4.975 2.95-1.573-2.88a11.264 11.264 0 0 0 -8.669-5.643 6.292 6.292 0 0 0 -5.636 2.712c-5.227 7.679-5.313 18.106-.227 27.213 4.88 8.735 13.2 14.041 21.9 14.041.323 0 .649-.007.974-.022a6.356 6.356 0 0 0 5.3-3.371 11.269 11.269 0 0 0 -.123-10.262l-1.576-2.875 5.163-2.607a9.2 9.2 0 0 0 4.677-5.529 9.292 9.292 0 0 0 .378-1.888 23.773 23.773 0 0 0 10.539 17.678l-11.487 49.708c-27.69 9.171-51.192 10.548-75.478 4.381zm-51.44 171.629 5.149-3.054a3.274 3.274 0 0 1 4.541 1.242l1.649 3.008a3.274 3.274 0 0 1 -1.4 4.5l-5.345 2.7zm3.953 23.853c-.174.309-.264.313-.343.316-6.766.315-13.42-3.887-17.365-10.952-3.113-5.571-4.761-13.991-.052-20.91.036-.052.079-.109.387-.1a5.369 5.369 0 0 1 3.7 2.532l13.523 24.67a5.367 5.367 0 0 1 .149 4.444z"/><path d="m100.809 317.474c15.439 26.775 36.073 46.664 61.329 59.117a3 3 0 0 0 4.3-2.3l34.862-263.691a3 3 0 0 0 -3.582-3.331 145.638 145.638 0 0 0 -35.511 12.346 3 3 0 0 0 -1.525 1.8l-60.14 193.677a3 3 0 0 0 .267 2.382zm56.04-163.487a17.943 17.943 0 0 1 -9.73 31.337zm-11.632 37.462a23.938 23.938 0 0 0 13.529-43.57l7.285-23.461a140.012 140.012 0 0 1 28.759-10.349l-33.742 255.219c-22.127-11.818-40.4-29.856-54.384-53.682z"/><path d="m169.929 380.172a28.078 28.078 0 0 0 14.467 5.311h.149a3 3 0 0 0 2.778-1.87l105.809-260.079a3 3 0 0 0 -1.507-3.847c-28.917-13.539-57.086-18.3-83.727-14.157a3 3 0 0 0 -2.511 2.558l-36.733 269.2a3 3 0 0 0 1.275 2.884zm19.471-110.515a13.3 13.3 0 1 0 .433-3.178l21.2-155.342c24-3.254 49.363 1.044 75.466 12.8l-103.88 255.321a22.566 22.566 0 0 1 -7.762-3.044zm11.34-6.839a7.307 7.307 0 0 1 1.927-.26 7.276 7.276 0 1 1 -1.927.26z"/><path d="m152.155 227.723a13.193 13.193 0 0 0 6.555 1.751 13.286 13.286 0 0 0 12.818-16.769 13.266 13.266 0 1 0 -19.373 15.018zm4.661-18.53a7.307 7.307 0 0 1 1.927-.26 7.276 7.276 0 1 1 -1.927.26z"/><path d="m229.658 365.291a13.2 13.2 0 0 0 6.555 1.75 13.27 13.27 0 1 0 -12.775-9.775 13.182 13.182 0 0 0 6.22 8.025zm4.661-18.531a7.266 7.266 0 1 1 -5.093 8.924 7.232 7.232 0 0 1 5.093-8.924z"/><path d="m227.249 241.383a23.948 23.948 0 1 0 -6.31.85 23.989 23.989 0 0 0 6.31-.85zm-23.64-18.378a17.959 17.959 0 1 1 22.058 12.59 17.84 17.84 0 0 1 -22.058-12.59z"/><path d="m270.09 262.72a19.575 19.575 0 0 0 9.725 2.6 19.805 19.805 0 0 0 5.22-.7 19.683 19.683 0 1 0 -14.945-1.892zm6.15-30.291a13.739 13.739 0 0 1 3.628-.491 13.706 13.706 0 1 1 -3.628.491z"/><path d="m144.278 295.988a24.464 24.464 0 0 0 2.749.156 24.017 24.017 0 1 0 -2.749-.156zm-15.143-25.832a17.966 17.966 0 0 1 17.81-15.937 18.317 18.317 0 0 1 2.06.117 17.959 17.959 0 1 1 -19.87 15.82z"/><path d="m224.815 157.342a10.369 10.369 0 0 0 2.723-.351l3.162-.864 1.335 5.627a9.288 9.288 0 0 0 9 7.139 9.33 9.33 0 0 0 2.463-.333l3.31-.9a9.274 9.274 0 0 0 6.413-11.692l-1.713-5.524 3.163-.865a11.262 11.262 0 0 0 7.5-7.121 6.276 6.276 0 0 0 -1.328-6.111c-6.253-6.868-16.373-9.377-26.414-6.548-9.989 2.816-17.252 10.093-18.954 18.991a6.355 6.355 0 0 0 2.046 5.939 11.027 11.027 0 0 0 7.294 2.613zm22.422 2.943a3.243 3.243 0 0 1 -2.007 1.583l-3.309.9a3.272 3.272 0 0 1 -4.048-2.4l-1.382-5.826 9.23-2.522 1.773 5.718a3.249 3.249 0 0 1 -.257 2.547zm-25.862-10.371c1.272-6.653 6.9-12.148 14.689-14.344a24.23 24.23 0 0 1 6.508-.9 18.28 18.28 0 0 1 13.841 5.71c.042.047.09.1 0 .4a5.369 5.369 0 0 1 -3.323 3.007l-27.134 7.413a5.355 5.355 0 0 1 -4.353-.883c-.26-.237-.243-.325-.228-.403z"/><path d="m328.7 287.863a11.265 11.265 0 0 0 .519 10.331 6.284 6.284 0 0 0 5.313 2.974h.19c9.285-.273 17.78-6.322 22.169-15.784 4.367-9.414 3.573-19.665-2.072-26.751a6.368 6.368 0 0 0 -5.839-2.314 11.269 11.269 0 0 0 -8.239 6.122l-1.4 2.963-5.14-2.652a9.277 9.277 0 0 0 -12.633 4.273l-1.467 3.1a9.273 9.273 0 0 0 4.7 12.48l5.309 2.3zm17.464-22.857a5.362 5.362 0 0 1 3.5-2.729 1.684 1.684 0 0 1 .182-.012c.192 0 .235.054.275.1 4.22 5.3 4.727 13.148 1.322 20.487-2.686 5.79-8.536 12.065-16.9 12.312-.062 0-.133 0-.3-.257a5.373 5.373 0 0 1 -.118-4.48zm-18.988 12.094a3.274 3.274 0 0 1 -1.658-4.406l1.467-3.1a3.275 3.275 0 0 1 4.461-1.508l5.321 2.744-4.1 8.648z"/><path d="m131.609 344.216a6.285 6.285 0 0 0 5.313 2.973h.19c9.285-.274 17.78-6.323 22.168-15.785 4.367-9.414 3.573-19.665-2.072-26.75a6.339 6.339 0 0 0 -5.839-2.314 11.265 11.265 0 0 0 -8.238 6.121l-1.4 2.963-5.141-2.651a9.273 9.273 0 0 0 -12.632 4.273l-1.468 3.1a9.275 9.275 0 0 0 4.7 12.481l5.308 2.3-1.4 2.964a11.263 11.263 0 0 0 .511 10.325zm16.945-33.189a5.366 5.366 0 0 1 3.5-2.729 1.684 1.684 0 0 1 .182-.012c.192 0 .236.055.276.1 4.219 5.3 4.726 13.148 1.321 20.487-2.685 5.79-8.536 12.065-16.9 12.312-.067 0-.134 0-.3-.257a5.367 5.367 0 0 1 -.118-4.479zm-18.986 12.091a3.273 3.273 0 0 1 -1.658-4.407l1.467-3.1a3.275 3.275 0 0 1 4.46-1.509l5.321 2.744-4.095 8.648z"/><path d="m36.169 305.963 201.517 141.161a53.719 53.719 0 0 0 30.93 9.806 54.9 54.9 0 0 0 9.5-.834 53.758 53.758 0 0 0 34.933-22.246l118.03-168.5a54.173 54.173 0 0 0 -13.274-75.365l-201.515-141.157a54.174 54.174 0 0 0 -75.366 13.272l-118.024 168.5a54.109 54.109 0 0 0 13.274 75.364zm-8.36-71.922 118.029-168.5a48.168 48.168 0 0 1 67.009-11.8l201.517 141.159a48.167 48.167 0 0 1 11.8 67.009l-118.03 168.5a48.111 48.111 0 0 1 -67.009 11.8l-201.514-141.16a48.113 48.113 0 0 1 -11.8-67.008z"/><path d="m49.325 295.242q.606 2.13 1.332 4.066a3 3 0 1 0 5.615-2.114c-.369-.982-.706-2.02-1.024-3.091 7.174-4.222 12.467-10.735 15.74-19.411a3 3 0 0 0 -1.142-3.554 2.906 2.906 0 0 0 -.308-.18 47.686 47.686 0 0 0 1.247-11.515 3 3 0 0 0 -3.439-2.948 44.283 44.283 0 0 0 -2.5-12.038 3 3 0 0 0 -2.618-2.006 2.97 2.97 0 0 0 -.961.086 51.489 51.489 0 0 1 -.1-11.364 3 3 0 0 0 -4.667-2.773 46.314 46.314 0 0 0 -10.341 9.347 3 3 0 0 0 -4.324.563 42.922 42.922 0 0 0 -5.792 10.257 3.178 3.178 0 0 0 -.458 0 3 3 0 0 0 -2.615 1.933 26.536 26.536 0 0 0 -1.615 14.451 3.044 3.044 0 0 0 -.612.288 3 3 0 0 0 -1.381 3.057c2.597 15.214 9.315 24.261 19.963 26.946zm-9.906-25.642a17.6 17.6 0 0 1 -2.3-11.282 3 3 0 0 0 3.721-3.048 15.177 15.177 0 0 1 2.117-7.555 3 3 0 0 0 4.672-1.041 29.12 29.12 0 0 1 7.28-9.464 52.086 52.086 0 0 0 1.9 13.508 3 3 0 0 0 4.047 1.955 29.327 29.327 0 0 1 .175 10.3 3 3 0 0 0 3.28 3.492 31.543 31.543 0 0 1 -3.08 9.822 3 3 0 0 0 .542 3.5 28.464 28.464 0 0 1 -7.98 8.148c-1.645-8.957-1.982-20.473-1.058-35.36a3 3 0 1 0 -5.988-.372c-.933 15.023-.6 26.849 1.047 36.248-3.56-1.61-8.069-5.3-10.91-14.364a3 3 0 0 0 2.538-4.483z"/><path d="m395.655 398.618a44.093 44.093 0 1 0 44.093 44.093 44.143 44.143 0 0 0 -44.093-44.093zm0 82.185a38.093 38.093 0 1 1 38.093-38.092 38.135 38.135 0 0 1 -38.093 38.089z"/><path d="m418.857 435.207-14.034-2.534-5.867-13a3 3 0 0 0 -5.378-.185l-6.746 12.564-14.174 1.565a3 3 0 0 0 -1.838 5.057l9.865 10.3-2.892 13.963a3 3 0 0 0 4.242 3.311l12.842-6.2 12.387 7.064a3 3 0 0 0 4.459-3.011l-1.923-14.125 10.547-9.6a3 3 0 0 0 -1.486-5.171zm-14.266 11.393a3 3 0 0 0 -.953 2.624l1.318 9.669-8.477-4.835a3 3 0 0 0 -2.79-.1l-8.789 4.242 1.978-9.556a3 3 0 0 0 -.771-2.683l-6.75-7.047 9.7-1.071a3 3 0 0 0 2.314-1.563l4.616-8.6 4.013 8.899a3 3 0 0 0 2.2 1.718l9.6 1.734z"/><path d="m487.087 371.417a33.011 33.011 0 1 0 -33.011 33.012 33.048 33.048 0 0 0 33.011-33.012zm-60.022 0a27.011 27.011 0 1 1 27.011 27.012 27.041 27.041 0 0 1 -27.011-27.012z"/><path d="m463.64 390.338a3 3 0 0 0 2.972-3.405l-1.35-9.9 7.389-6.723a3 3 0 0 0 -1.486-5.171l-9.831-1.775-4.11-9.1a3 3 0 0 0 -2.632-1.763 2.964 2.964 0 0 0 -2.746 1.578l-4.726 8.8-9.929 1.1a3 3 0 0 0 -1.837 5.057l6.91 7.214-2.026 9.781a3 3 0 0 0 4.242 3.31l9-4.342 8.677 4.949a2.993 2.993 0 0 0 1.483.39zm-4.54-14.055.742 5.438-4.763-2.721a3 3 0 0 0 -2.791-.1l-4.942 2.386 1.112-5.374a3 3 0 0 0 -.77-2.684l-3.8-3.963 5.454-.6a3 3 0 0 0 2.314-1.563l2.6-4.835 2.259 5a3 3 0 0 0 2.2 1.718l5.4.975-4.059 3.694a3 3 0 0 0 -.956 2.629z"/><path d="m299.805 43.437a6.278 6.278 0 0 0 -1.328-6.112c-6.253-6.868-16.373-9.377-26.415-6.548-9.988 2.816-17.251 10.093-18.953 18.991a6.355 6.355 0 0 0 2.046 5.939 11.027 11.027 0 0 0 7.287 2.617 10.369 10.369 0 0 0 2.723-.351l3.162-.864 1.335 5.628a9.288 9.288 0 0 0 9 7.138 9.338 9.338 0 0 0 2.464-.333l3.309-.9a9.274 9.274 0 0 0 6.413-11.692l-1.713-5.525 3.162-.864a11.262 11.262 0 0 0 7.508-7.124zm-14.941 17.83a3.243 3.243 0 0 1 -2.007 1.583l-3.309.9a3.272 3.272 0 0 1 -4.048-2.4l-1.382-5.826 9.23-2.524 1.773 5.718a3.249 3.249 0 0 1 -.257 2.549zm-21.281-9.082a5.362 5.362 0 0 1 -4.354-.883c-.259-.24-.242-.328-.227-.407 1.272-6.651 6.9-12.147 14.688-14.343a24.231 24.231 0 0 1 6.509-.9 18.282 18.282 0 0 1 13.841 5.71c.042.047.09.1 0 .4a5.37 5.37 0 0 1 -3.323 3.006z"/><path d="m303.483 57.634a9.2 9.2 0 0 0 -2.332 6.857l.252 3.422a9.276 9.276 0 0 0 9.226 8.595 9.388 9.388 0 0 0 1.016-.055l5.75-.619.241 3.27a11.262 11.262 0 0 0 5.545 8.731 6.68 6.68 0 0 0 3.066.77 6.115 6.115 0 0 0 3.187-.9c7.942-4.817 12.35-14.267 11.5-24.664-.844-10.343-6.589-18.869-14.994-22.25a6.357 6.357 0 0 0 -6.222.867 11.267 11.267 0 0 0 -4.147 9.388l.24 3.269-5.78.229a9.2 9.2 0 0 0 -6.548 3.09zm19.777-11.134a.661.661 0 0 1 .349-.167.232.232 0 0 1 .094.022c6.283 2.527 10.6 9.107 11.253 17.171.519 6.362-1.477 14.706-8.633 19.046-.054.032-.114.07-.392-.074a5.37 5.37 0 0 1 -2.312-3.839l-2.063-28.057a5.368 5.368 0 0 1 1.704-4.102zm-7.007 13.8.7 9.542-5.953.645a3.274 3.274 0 0 1 -3.616-3.014l-.251-3.422a3.274 3.274 0 0 1 3.136-3.511z"/><path d="m106.333 79.586a4.6 4.6 0 0 0 -6.766-6.059c-13.327 8.45-32.508 25.808-53.11 48.018a3 3 0 0 0 -5.495.218l-.074.187c-2.5 6.336-5.7 16.608-3.548 23.494l-5.253 6.336a5.525 5.525 0 0 0 4.244 9.049c.174 0 .349-.008.524-.025a5.487 5.487 0 0 0 3.738-1.974l5.4-6.515c.376.031.759.051 1.155.051 5.242 0 12.319-2.716 21.6-8.222a3 3 0 0 0 -1.267-5.569l-.461-.041c14.25-27.284 27-46.446 38.921-58.457a2.962 2.962 0 0 0 .392-.491zm-62.185 65.9c-1.912-1.629-2.026-6.329-.5-12.589a3 3 0 0 0 2.934 1.443l7.418-.893.506 7.46a3 3 0 0 0 2.291 2.714c-4.947 2.199-10.341 3.824-12.649 1.86zm16.4-7.519-.231-.02-.546-8.051a3 3 0 0 0 -3.349-2.776l-7.8.932c16.2-17.647 31.985-32.706 44.407-42.458-10.129 12.572-20.844 29.866-32.478 52.368z"/><path d="m464.1 268.057a3 3 0 0 0 -3.763 1.959c-.315 1-.692 2.025-1.1 3.064-8.249-1.1-16.435.751-24.365 5.557a3 3 0 0 0 -1.3 3.5 3.1 3.1 0 0 0 .132.332 47.651 47.651 0 0 0 -8.089 8.29 3 3 0 0 0 .886 4.441 44.208 44.208 0 0 0 -5.464 11.014 3 3 0 0 0 1.63 3.72 51.433 51.433 0 0 1 -6.936 9 3 3 0 0 0 1.969 5.066 46.435 46.435 0 0 0 13.9-.97 3 3 0 0 0 3.749 2.226 42.916 42.916 0 0 0 10.889-4.5 3.032 3.032 0 0 0 .358.286 3 3 0 0 0 3.249.089 26.539 26.539 0 0 0 10.19-10.373 2.973 2.973 0 0 0 .66.151 3.009 3.009 0 0 0 2.973-1.553c7.349-13.574 7.648-24.838.928-33.524q.839-2.049 1.462-4.02a3 3 0 0 0 -1.958-3.755zm-2.77 32.11a3 3 0 0 0 -4.765 1.96 17.606 17.606 0 0 1 -5.152 10.3 3 3 0 0 0 -4.809.1 15.18 15.18 0 0 1 -6.329 4.638 3 3 0 0 0 -4.317-2.066 29.089 29.089 0 0 1 -11.57 2.952 52.145 52.145 0 0 0 6.844-11.8 3 3 0 0 0 -1.978-4.036 29.378 29.378 0 0 1 6.217-8.209 3 3 0 0 0 -.425-4.771 31.529 31.529 0 0 1 8.487-5.827 3 3 0 0 0 1.733-3.088 28.471 28.471 0 0 1 11.308-1.486c-4.234 8.064-11.077 17.332-20.994 28.474a3 3 0 1 0 4.482 3.989c10-11.241 17.044-20.749 21.549-29.161 1.806 3.464 3.079 9.143-.282 18.031z"/><path d="m53.1 408.524a16.372 16.372 0 0 0 8.831 2.591 16.7 16.7 0 0 0 3.6-.395 16.492 16.492 0 1 0 -12.429-2.2zm.018-19.543a10.424 10.424 0 0 1 6.578-4.6 10.607 10.607 0 0 1 2.288-.252 10.494 10.494 0 1 1 -8.866 4.855z"/><path d="m35.957 435.425a48.064 48.064 0 0 0 25.913 7.6 48.763 48.763 0 0 0 10.557-1.161 48.034 48.034 0 0 0 28.645-18.76l11.085 7.066-5.212 8.177a3 3 0 0 0 .917 4.142l58.884 37.533a15.6 15.6 0 0 0 8.406 2.465 15.829 15.829 0 0 0 3.424-.376 15.695 15.695 0 0 0 5.043-28.56l-58.884-37.533a3 3 0 0 0 -4.142.917l-5.212 8.176-11.081-7.066a48.445 48.445 0 0 0 -16.32-64.23 48.389 48.389 0 0 0 -52.018 81.61zm144.443 23.185a9.7 9.7 0 0 1 -10.424 16.353l-39.3-25.049 10.424-16.353zm-56.354-35.921 12 7.647-10.424 16.353-12-7.647zm-97.82-50.853a42.388 42.388 0 1 1 12.961 58.529 42.393 42.393 0 0 1 -12.966-58.529z"/><path d="m478.7 60.613c-1.926-3.329-3.188-7.558-4.523-12.037-2.463-8.258-5.01-16.8-12.286-21.007-7.026-4.066-15.574-2.075-23.839-.151-4.477 1.042-9.106 2.12-13.19 2.12s-8.714-1.078-13.19-2.12c-8.265-1.923-16.812-3.916-23.84.151-7.275 4.21-9.822 12.749-12.285 21.007-1.336 4.479-2.6 8.708-4.523 12.037-1.822 3.148-4.778 6.229-7.908 9.491-5.761 6-12.29 12.81-12.29 21.587s6.529 15.583 12.29 21.587c3.13 3.263 6.087 6.344 7.908 9.493 1.926 3.328 3.187 7.558 4.523 12.036 2.463 8.258 5.01 16.8 12.285 21.007a19 19 0 0 0 9.728 2.373c4.572 0 9.388-1.122 14.112-2.222 4.477-1.042 9.106-2.12 13.19-2.12s8.713 1.078 13.189 2.12c8.266 1.925 16.814 3.916 23.841-.151 7.275-4.21 9.822-12.749 12.285-21.007 1.335-4.478 2.6-8.708 4.523-12.036 1.821-3.149 4.777-6.23 7.907-9.493 5.761-6 12.29-12.809 12.29-21.587s-6.529-15.583-12.29-21.587c-3.126-3.262-6.082-6.343-7.907-9.491zm3.578 48.512c-3.239 3.375-6.588 6.866-8.772 10.641-2.28 3.941-3.7 8.712-5.079 13.326-2.226 7.464-4.328 14.513-9.54 17.529-4.973 2.878-12.017 1.238-19.475-.5-4.807-1.119-9.777-2.276-14.55-2.276s-9.744 1.157-14.551 2.277c-7.456 1.735-14.5 3.377-19.474.5-5.212-3.016-7.315-10.065-9.541-17.529-1.376-4.614-2.8-9.385-5.079-13.326-2.184-3.775-5.533-7.266-8.771-10.641-5.462-5.692-10.62-11.068-10.62-17.434s5.158-11.741 10.619-17.432c3.239-3.376 6.588-6.866 8.772-10.641 2.28-3.941 3.7-8.713 5.079-13.327 2.226-7.463 4.329-14.513 9.541-17.529a13.262 13.262 0 0 1 6.763-1.563c3.843 0 8.206 1.016 12.72 2.067 4.807 1.119 9.777 2.276 14.551 2.276s9.743-1.157 14.55-2.276c7.458-1.737 14.5-3.377 19.474-.5 5.213 3.016 7.315 10.066 9.541 17.529 1.376 4.614 2.8 9.386 5.079 13.327 2.184 3.775 5.533 7.265 8.772 10.64 5.456 5.687 10.613 11.063 10.613 17.428s-5.157 11.742-10.618 17.434z"/><path d="m449.731 48.629c-7.457-4.314-16.373-4.675-24.865-4.675s-17.408.361-24.866 4.675-12.059 11.544-16.482 19.189c-3.729 6.445-8.37 14.466-8.37 23.873s4.641 17.429 8.37 23.874c4.424 7.646 9.013 14.867 16.482 19.188s16.373 4.676 24.866 4.676 17.408-.361 24.865-4.676 12.06-11.543 16.483-19.188c3.729-6.445 8.369-14.467 8.369-23.874s-4.641-17.428-8.37-23.873c-4.423-7.646-9.013-14.866-16.482-19.189zm11.29 63.931c-4 6.915-8.105 13.419-14.3 17-6.17 3.57-14.183 3.869-21.86 3.869s-15.69-.3-21.861-3.869c-6.189-3.581-10.293-10.084-14.294-17-3.369-5.824-7.563-13.072-7.563-20.869s4.194-15.044 7.563-20.868c4-6.915 8.1-13.419 14.294-17 6.171-3.57 14.183-3.869 21.861-3.869s15.69.3 21.86 3.869c6.19 3.581 10.294 10.085 14.294 17 3.37 5.824 7.563 13.073 7.563 20.868s-4.188 15.045-7.557 20.869z"/></svg>