<svg id="Capa_1" enable-background="new 0 0 512 512" height="512" viewBox="0 0 512 512" width="512" xmlns="http://www.w3.org/2000/svg"><g><path d="m197.227 237.006 12.509 3.981c.756.241 1.522.355 2.276.355 3.178 0 6.128-2.036 7.144-5.227 1.257-3.946-.925-8.164-4.872-9.421l-9.152-2.912 2.054-9.381c.886-4.046-1.676-8.044-5.722-8.93-4.047-.884-8.043 1.677-8.929 5.722l-2.807 12.823-24.025 13.871v-27.635l9.701-8.842c3.061-2.79 3.281-7.533.491-10.594-2.789-3.062-7.535-3.281-10.594-.491l-7.098 6.469-7.098-6.469c-3.06-2.79-7.804-2.571-10.594.491-2.79 3.061-2.57 7.805.491 10.594l9.701 8.842v27.635l-23.933-13.818-2.806-12.823c-.885-4.045-4.878-6.608-8.929-5.723-4.046.886-6.608 4.883-5.722 8.929l2.053 9.382-9.152 2.912c-3.947 1.256-6.128 5.474-4.872 9.421 1.016 3.191 3.965 5.227 7.144 5.227.754 0 1.52-.114 2.276-.355l12.509-3.981 23.932 13.817-23.932 13.817-12.509-3.981c-3.948-1.255-8.164.925-9.42 4.872-1.257 3.947.925 8.164 4.872 9.421l9.152 2.912-2.053 9.382c-.886 4.046 1.677 8.044 5.722 8.929.54.118 1.079.175 1.61.175 3.448 0 6.552-2.392 7.319-5.897l2.806-12.823 23.933-13.818v27.742l-9.701 8.842c-3.061 2.79-3.281 7.533-.491 10.594 2.79 3.062 7.534 3.28 10.594.491l7.098-6.469 7.098 6.469c1.437 1.31 3.246 1.957 5.049 1.957 2.036 0 4.065-.824 5.544-2.448 2.79-3.061 2.57-7.805-.491-10.594l-9.701-8.842v-27.742l24.025 13.871 2.807 12.824c.768 3.506 3.871 5.897 7.319 5.897.53 0 1.07-.057 1.61-.175 4.047-.886 6.608-4.884 5.722-8.93l-2.054-9.382 9.152-2.912c3.947-1.256 6.128-5.474 4.872-9.421s-5.477-6.126-9.42-4.872l-12.509 3.981-24.024-13.871z"/><path d="m488.812 365.047h-13.4l2.89-1.435c11.189-5.564 15.766-19.189 10.208-30.366l-5.013-10.106c-5.561-11.182-19.181-15.764-30.369-10.217l-26.032 12.927 11.643-34.824c3.955-11.853-2.464-24.712-14.304-28.664l-10.705-3.582c-5.743-1.916-11.884-1.48-17.297 1.223-5.416 2.705-9.453 7.356-11.367 13.093l-17.627 52.742c-7.124-2.763-14.748-4.209-22.457-4.209-11.461 0-22.634 3.194-32.3 9.1 5.638-59.867 4.925-120.484-2.159-180.24-.488-4.114-4.22-7.051-8.33-6.564-4.113.488-7.052 4.217-6.565 8.33 6.458 54.461 7.523 109.65 3.223 164.303-10.628-8.547-24.114-13.677-38.783-13.677-8.15 0-16.069 1.555-23.537 4.622-3.831 1.573-5.662 5.955-4.088 9.786 1.573 3.832 5.953 5.663 9.786 4.088 5.651-2.321 11.652-3.497 17.838-3.497 25.914 0 46.996 21.078 46.996 46.986 0 .06-.003.12-.003.18h-93.976c0-.06-.003-.12-.003-.18 0-8.475 2.279-16.776 6.591-24.007 2.122-3.557.958-8.16-2.599-10.282-3.556-2.121-8.161-.958-10.282 2.6-5.697 9.552-8.708 20.511-8.708 31.689 0 .06.003.12.003.18h-5.053c-12.786 0-23.188 10.402-23.188 23.188v8.52c0 3.489.779 6.798 2.165 9.769h-142.399c-19.488-103.284-19.488-207.903-.001-311.185h257.284c1.436 7.615 2.766 15.252 3.966 22.779.651 4.089 4.491 6.88 8.586 6.225 4.091-.652 6.877-4.496 6.225-8.586-1.508-9.458-3.22-19.085-5.085-28.628v-51.381c0-3.901-2.22-7.436-5.792-9.227-3.769-1.89-8.194-1.507-11.546.997l-10.441 7.793c-2.245 1.676-5.763 1.677-8.01 0l-10.663-7.958c-7.52-5.61-18.432-5.609-25.95 0l-10.664 7.957c-2.244 1.676-5.763 1.676-8.009-.001l-10.651-7.951c-7.518-5.614-18.433-5.616-25.953-.003l-10.663 7.957c-2.248 1.676-5.766 1.675-8.01 0l-10.662-7.956c-7.52-5.613-18.435-5.611-25.953.002l-10.651 7.951c-2.246 1.677-5.763 1.677-8.011 0l-10.65-7.951c-7.516-5.613-18.433-5.616-25.953-.003l-10.661 7.956c-2.246 1.676-5.763 1.676-8.009 0l-10.429-7.784c-3.355-2.505-7.78-2.885-11.548-.995-3.571 1.791-5.79 5.326-5.79 9.226v51.378c-21.223 108.69-21.223 218.898.001 327.591v51.372c0 3.909 2.222 7.449 5.801 9.238 3.77 1.884 8.197 1.496 11.532-1.007l10.427-7.778c2.251-1.677 5.768-1.68 8.013-.001l10.671 7.961c7.516 5.602 18.424 5.603 25.95-.006l10.642-7.953c2.247-1.675 5.767-1.674 8.01-.004l10.663 7.963c3.758 2.801 8.364 4.202 12.97 4.202 4.608 0 9.217-1.402 12.978-4.206l10.662-7.961c2.242-1.677 5.755-1.677 8.005.004l10.67 7.96c7.516 5.604 18.425 5.604 25.951-.005l10.642-7.953c2.244-1.673 5.761-1.672 7.999-.017 4.63 13.389 17.068 22.321 31.325 22.321h120.229c4.142 0 7.499-3.358 7.499-7.499s-3.357-7.499-7.499-7.499h-120.228c-8.013 0-14.992-5.143-17.365-12.796l-12.749-41.118h244.417l-12.749 41.118c-2.374 7.654-9.352 12.796-17.365 12.796h-28.962c-4.142 0-7.499 3.358-7.499 7.499s3.357 7.499 7.499 7.499h28.962c14.624 0 27.359-9.385 31.69-23.353l14.127-45.56h9.978c12.786 0 23.188-10.402 23.188-23.188v-8.52c-.002-12.786-10.403-23.188-23.19-23.188zm-454.099-317.717c7.519 5.612 18.433 5.61 25.95 0l10.662-7.956c2.246-1.676 5.763-1.676 8.011.001l10.65 7.951c7.521 5.614 18.437 5.614 25.956 0l10.651-7.952c2.245-1.677 5.762-1.677 8.009 0l10.663 7.957c7.518 5.611 18.432 5.611 25.95 0l10.664-7.957c2.245-1.677 5.762-1.676 8.009.002l10.651 7.951c7.518 5.614 18.433 5.616 25.953.003l10.663-7.956c2.245-1.677 5.763-1.677 8.01 0l10.662 7.957c7.52 5.613 18.435 5.611 25.953-.001l3.807-2.842v35.852h-254.671v-35.844zm425.083 279.029c3.781-1.875 8.391-.324 10.269 3.454l5.012 10.105c1.879 3.779.33 8.383-3.449 10.262l-29.944 14.867h-59.799zm-60.503-48.511c.647-1.94 2.012-3.511 3.842-4.425 1.83-.915 3.908-1.061 5.842-.416l10.705 3.582c4.001 1.335 6.167 5.683 4.831 9.686l-16.382 48.993-33.607 16.688zm-80.616 66.852c7.724-5.227 16.886-8.071 26.306-8.071 6.09 0 12.11 1.183 17.697 3.45l-7.116 21.292-7.403 3.676h-26.101c0-.06.003-.12.003-.18.001-7.06-1.202-13.84-3.386-20.167zm-118.143 109.832-10.642 7.953c-2.246 1.675-5.766 1.677-8.012.001l-10.663-7.955c-7.52-5.62-18.436-5.622-25.956-.002l-10.654 7.955c-2.245 1.676-5.765 1.675-8.01.004l-10.663-7.963c-7.518-5.604-18.427-5.603-25.951.006l-10.642 7.953c-2.248 1.676-5.768 1.674-8.012.001l-10.663-7.955c-7.509-5.613-18.424-5.616-25.953-.004l-3.796 2.831v-35.837h172.585l8.944 28.845c-4.249.203-8.442 1.581-11.912 4.167zm296.467-57.777c0 4.515-3.674 8.189-8.189 8.189h-295.777c-4.515 0-8.189-3.674-8.189-8.189v-8.52c0-4.515 3.674-8.189 8.189-8.189h295.778c4.515 0 8.189 3.674 8.189 8.189v8.52z"/></g></svg>