<?xml version="1.0"?>
<svg xmlns="http://www.w3.org/2000/svg" id="Outline" viewBox="0 0 512 512" width="512" height="512"><path d="M192,360a24,24,0,1,0-24,24A24.028,24.028,0,0,0,192,360Zm-24,8a8,8,0,1,1,8-8A8.009,8.009,0,0,1,168,368Z"/><path d="M221.657,106.343a8,8,0,0,0-11.314,0L196.686,120H184V107.314l13.657-13.657a8,8,0,0,0-11.314-11.314L176,92.687,165.657,82.343a8,8,0,0,0-11.314,11.314L168,107.314V120H155.314l-13.657-13.657a8,8,0,0,0-11.314,11.314L140.686,128l-10.343,10.343a8,8,0,0,0,11.314,11.314L155.314,136H168v12.686l-13.657,13.657a8,8,0,0,0,11.314,11.314L176,163.313l10.343,10.344a8,8,0,0,0,11.314-11.314L184,148.686V136h12.686l13.657,13.657a8,8,0,0,0,11.314-11.314L211.314,128l10.343-10.343A8,8,0,0,0,221.657,106.343Z"/><path d="M488,176H316.18c-4.166-53.526-10.508-106.773-11.945-118.58l14.92-29.842A8,8,0,0,0,312,16H24a8,8,0,0,0-7.155,11.578L31.766,57.42C29.578,75.41,16,189.77,16,256S29.578,436.59,31.766,454.58L16.845,484.422A8,8,0,0,0,24,496H488a8,8,0,0,0,8-8V184A8,8,0,0,0,488,176ZM112,256a16,16,0,1,1,30.874,5.894,8,8,0,0,0,5.338,10.669,16,16,0,1,1-19.086,9.543,8,8,0,0,0-5.327-10.667c-.406-.111-.8-.233-1.161-.362a8,8,0,0,0-10.668,8c.018.307.03.616.03.927a16,16,0,1,1-10.638-15.076,8,8,0,0,0,10.668-8C112.012,256.62,112,256.311,112,256Zm13.881,58.349-9.458,18.918-5.346-2.672-4.107-20.536a32.025,32.025,0,0,0,9.611-5.574A32.227,32.227,0,0,0,125.881,314.349ZM90.962,311.6l5.193,25.968a8,8,0,0,0,4.267,5.587l16,8a7.993,7.993,0,0,0,10.733-3.577l13.867-27.732c.982.091,1.972.154,2.978.154a32,32,0,0,0,15.733-59.864,32,32,0,0,0-62.725-12.12Q96.506,248,96,248a32.047,32.047,0,0,0-31.654,27.32C64.124,268.523,64,262.034,64,256c0-13.087.575-29.206,1.711-48H224v16H200a8,8,0,0,0-8,8v32a8,8,0,0,0,8,8h24v16a7.976,7.976,0,0,0-5.657,2.343l-24,24a8,8,0,0,0,0,11.314l24,24A7.974,7.974,0,0,0,224,352v32H72.307c-2.915-29.381-6.051-65.461-7.494-96.861A32.083,32.083,0,0,0,90.962,311.6ZM224,256H208V240h16Zm0,76.687L211.313,320,224,307.313ZM224,184v8H58.2a8,8,0,0,0-7.982,7.475C48.746,221.843,48,240.86,48,256c0,38.979,4.955,95.912,9.111,136.809A8,8,0,0,0,65.07,400H224v48H47.09C43.791,420.325,32,317.108,32,256S43.792,91.677,47.09,64H288.911c2.073,17.367,7.49,64.446,11.22,112H232A8,8,0,0,0,224,184ZM299.056,32l-8,16H44.944l-8-16ZM44.944,464H224v16H36.944ZM480,480H240V192H480Z"/><path d="M264,464H456a8,8,0,0,0,8-8V216a8,8,0,0,0-8-8H264a8,8,0,0,0-8,8V456A8,8,0,0,0,264,464Zm17.543-85.688C301.058,391.978,329.776,400,360,400c30.358,0,58.938-8,78.456-21.691l7.853,13.09C423.671,407.087,392.6,416,360,416s-63.671-8.913-86.309-24.6Zm8.254-13.757L360,247.549l70.2,117.008C413.426,376.805,387.721,384,360,384,332.419,384,306.594,376.788,289.8,364.555ZM272,448V409.319C296.388,423.852,327.6,432,360,432s63.612-8.148,88-22.681V448Zm88-224h88V363.116L366.86,227.884a8,8,0,0,0-13.72,0L272,363.116V224Z"/><path d="M368,344a24,24,0,0,0-40.97-16.971h0A24,24,0,1,0,368,344Zm-18.344,5.657a8,8,0,1,1-11.313-11.313h0a8,8,0,1,1,11.312,11.314Z"/><circle cx="360" cy="296" r="8"/><path d="M392.845,355.578a8,8,0,1,0,14.31-7.156l-8-16a8,8,0,0,0-14.31,7.156Z"/></svg>
