<svg id="Layer_1" enable-background="new 0 0 512.006 512.006" height="512" viewBox="0 0 512.006 512.006" width="512" xmlns="http://www.w3.org/2000/svg"><g><path d="m483.706 400.462c-7.763-4.054-11.876-8.581-13.96-11.665-4.033-5.97-12.989-6.13-17.162-.23-1.583 2.242-5.707 6.815-15.531 12.26-18.953 10.501-28.211 24.202-28.304 41.883-.133 25.747 28.664 43.15 50.916 30.043 21.889 12.891 48.25-1.992 51.857-25.997 2.857-18.996-7.022-35.437-27.816-46.294zm12.982 44.065c-1.849 12.307-13.363 21.006-25.794 16.935 3.068-5.012 4.836-10.896 4.836-17.184 0-9.674-15-9.674-15 0 0 9.949-8.121 18.049-18.124 18.101-10.368-.038-18.91-9.373-18.858-19.591.062-11.934 6.6-21.099 20.573-28.841 6.967-3.86 12.539-7.921 16.643-12.119 3.43 3.794 8.485 8.111 15.798 11.93 15.107 7.888 21.811 18.239 19.926 30.769z"/><path d="m441.142 362.085c.295-6.843-.985-13.191-3.744-18.917 27.661-22.863 44.66-56.595 46.556-92.393h7.682c11.229 0 20.364-9.136 20.364-20.365v-41.609c0-11.229-9.136-20.365-20.364-20.365h-21.636c-3.779-28.832-27.626-50.865-56.722-51.77 15.311-14.636 20.151-39.054 17.23-59.508-.472-3.3-3.064-5.893-6.364-6.364-1.281-.182-27.23-3.686-48.154 8.365-15.412-18.458-40.791-24.225-41.974-24.485-3.258-.716-6.593.804-8.191 3.729-.27.494-3.638 6.75-6.355 15.923-8.413-9.435-20.579-15.387-34.03-15.387h-60.281c-4.142 0-7.5 3.358-7.5 7.5 0 16.759-14.449 30.917-31.552 30.917h-19.785c-22.775 0-41.725 17.038-45.252 39.281h-20.485c-29.769 0-54.701 22.416-58.581 51.798h-21.639c-11.229.002-20.365 9.138-20.365 20.367v41.609c0 11.229 9.136 20.365 20.365 20.365h7.678c3.497 67.713 59.686 121.726 128.254 121.726h17.956c9.674 0 9.674-15 0-15h-17.956c-60.295 0-109.753-47.288-113.231-106.726h425.864c-1.863 31.072-16.604 60.314-40.489 80.333-5.152-4.856-11.808-8.941-19.861-12.112-8.149-3.208-12.719-7.274-15.117-10.121-2.219-2.633-5.589-4.008-9.015-3.679-3.396.325-6.414 2.294-8.075 5.269-1.338 2.397-4.954 7.383-14.146 13.835-9.885 6.939-16.631 14.523-20.386 22.97-5.047-4.275-7.367-7.561-8.382-9.371-3.477-6.202-12.518-7.006-17.093-1.554-2.392 2.85-6.953 6.925-15.096 10.151-7.407 2.934-13.629 6.64-18.582 11.006h-65.021c-9.674 0-9.674 15 0 15h54.037c-2.194 5.258-3.187 11.005-2.91 17.148.849 18.793 13.213 32.171 31.499 34.081 5.984.625 11.98-.374 17.376-2.837 12.27 9.066 29.262 8.505 41.078-1.156 6.185-5.057 10.475-12.114 12.109-19.761 7.634.371 15.332-1.992 21.473-6.549 5.401 2.452 11.397 3.437 17.382 2.802 18.282-1.949 30.619-15.351 31.431-34.146zm-25.054-296.851c.287 9.513-.831 28.259-12.579 40.007-3.611 3.612-8.003 6.492-13.108 8.604-2.67-12.092-9.942-22.425-19.832-28.976 9.408-15.654 28.417-20.119 45.519-19.635zm-79.567-14.224c7.162 2.438 19.479 7.757 27.702 17.453-2.845 3.056-5.333 6.495-7.441 10.283-8.314-2.119-17.271-1.388-25.779-1.388-.135-10.473 3.123-20.457 5.518-26.348zm-321.521 179.4v-41.609c0-2.958 2.407-5.365 5.365-5.365h358.665c9.674 0 9.674-15 0-15h-321.852c3.723-21.016 21.869-36.798 43.405-36.798h97.797c9.674 0 9.674-15 0-15h-62.033c3.28-13.917 15.474-24.281 29.973-24.281h84.88c9.674 0 9.674-15 0-15h-31.016c6.036-6.449 10.273-14.547 11.823-23.417h53.432c16.82 0 30.654 13.905 30.838 30.998.045 4.11 3.39 7.419 7.5 7.419h21.903c14.253 0 26.723 10.494 29.972 24.281h-20.686c-9.674 0-9.674 15 0 15h56.451c21.658 0 39.706 15.741 43.409 36.798h-35.821c-9.674 0-9.674 15 0 15h72.631c2.958 0 5.364 2.407 5.364 5.365v41.609c0 2.958-2.406 5.365-5.364 5.365h-471.271c-2.958 0-5.365-2.407-5.365-5.365zm341.505 164.412c-1.589 15.988-22.394 23.891-32.97 10.911-3.06-3.756-4.469-8.469-3.967-13.271 1.006-9.622-13.914-11.184-14.918-1.56-.641 6.128.415 12.173 3.004 17.6-12.783 2.742-23.315-7.092-23.876-19.53-.317-7.01 1.917-13.082 6.666-18.171 10.265-8.427 23.415-11.706 33.302-20.584 4.986 6.295 11.475 11.142 17.977 15.75 11.167 8.592 15.876 17.826 14.782 28.855zm45.794-13.812c2.52-5.309 3.655-11.347 2.99-17.599-.438-4.118-4.124-7.095-8.252-6.664-4.119.439-7.103 4.133-6.664 8.252 1.157 10.864-8.264 20.76-19.201 19.968-1.623-10.458-7.212-19.753-16.885-28.107 2.083-7.35 7.435-13.879 16.559-20.283 6.518-4.575 11.628-9.203 15.264-13.813 3.812 3.41 9.297 7.167 16.974 10.19 12.405 4.884 23.7 13.93 23.072 28.485-.537 12.432-11.065 22.304-23.857 19.571z"/></g></svg>