<svg id="Capa_1" enable-background="new 0 0 512 512" height="512" viewBox="0 0 512 512" width="512" xmlns="http://www.w3.org/2000/svg"><g><g><path d="m198.467 140.525c1.303 2.657 3.968 4.201 6.74 4.201 1.108 0 2.234-.247 3.296-.768 3.719-1.823 5.256-6.316 3.433-10.035l-3.566-7.275c-1.824-3.72-6.317-5.255-10.036-3.434-3.719 1.823-5.256 6.316-3.433 10.035z"/><path d="m157.13 129.493c1.108 0 2.234-.247 3.296-.768l7.275-3.566c3.719-1.823 5.256-6.316 3.433-10.035-1.823-3.721-6.316-5.257-10.036-3.434l-7.275 3.566c-3.719 1.823-5.256 6.316-3.433 10.035 1.303 2.659 3.967 4.202 6.74 4.202z"/><path d="m488.285 350.175h-13.785v-7.434c0-6.948-2.888-13.68-7.925-18.468-2.083-1.981-4.432-3.556-6.956-4.708.808-3.183 1.142-6.51.93-9.907-.206-3.324-.956-6.509-2.131-9.49 9.207-2.199 16.082-10.476 16.082-20.348 0-9.321-6.126-17.232-14.56-19.938.573-2.769.791-5.636.609-8.552-.207-3.324-.956-6.51-2.132-9.491 9.207-2.199 16.082-10.476 16.082-20.348 0-9.321-6.126-17.232-14.56-19.938.573-2.769.791-5.635.609-8.552-.262-4.212-1.376-8.21-3.158-11.836 9.72-1.807 17.108-10.336 17.108-20.572 0-11.546-9.394-20.939-20.939-20.939-16.031 0-24.796 3.18-31.838 5.734-5.352 1.942-8.888 3.225-17.557 3.225-8.668 0-12.205-1.282-17.557-3.225-.809-.293-1.644-.596-2.507-.9.34-.374.684-.743 1.017-1.126 13.776-15.893 18.691-37.513 13.147-57.833-1.145-4.196-4.673-7.255-8.987-7.792-20.905-2.607-41.607 5.327-55.383 21.219-.924 1.065-1.798 2.16-2.641 3.272-1.033-1.027-2.091-2.034-3.204-2.999-15.891-13.775-37.512-18.692-57.836-13.146-4.192 1.146-7.25 4.672-7.789 8.986-2.091 16.783 2.615 33.434 12.774 46.477-5.06-1.105-11.234-1.892-19.206-1.892-3.783 0-7.149.182-10.196.486 1.81-2.9 3.418-5.971 4.788-9.206 1.239-2.926 1.206-6.269-.091-9.171-1.297-2.901-3.765-5.155-6.771-6.184l-104.505-35.745c-3.006-1.027-6.338-.758-9.141.742-2.802 1.5-4.875 4.122-5.687 7.192-5.121 19.364-1.07 39.235 9.562 54.788-3.253.906-6.028 1.909-8.571 2.832-5.351 1.941-8.886 3.224-17.553 3.224s-12.201-1.282-17.552-3.224c-7.042-2.556-15.807-5.735-31.836-5.735-11.546 0-20.939 9.394-20.939 20.939 0 10.236 7.388 18.765 17.108 20.572-1.782 3.626-2.896 7.624-3.158 11.836-.181 2.917.036 5.784.609 8.552-8.435 2.706-14.56 10.617-14.56 19.938 0 9.872 6.875 18.148 16.082 20.348-1.176 2.981-1.925 6.167-2.132 9.491-.181 2.917.036 5.784.609 8.552-8.435 2.706-14.56 10.617-14.56 19.938 0 9.871 6.875 18.148 16.082 20.348-1.175 2.981-1.925 6.167-2.131 9.49-.211 3.396.122 6.723.93 9.906-2.524 1.153-4.873 2.729-6.957 4.709-5.036 4.788-7.924 11.52-7.924 18.468v7.434h-13.783c-13.076.001-23.715 10.639-23.715 23.716 0 13.076 10.639 23.715 23.715 23.715h31.572l12.869 27.144c2.881 6.077 9.088 10.004 15.813 10.004h272.031c4.142 0 7.5-3.357 7.5-7.5s-3.358-7.5-7.5-7.5h-272.031c-.96 0-1.848-.562-2.259-1.43l-9.822-20.718h368.226l-9.822 20.718c-.412.868-1.299 1.43-2.259 1.43h-36.033c-4.142 0-7.5 3.357-7.5 7.5s3.358 7.5 7.5 7.5h36.031c6.725 0 12.932-3.927 15.813-10.004l12.869-27.144h31.572c13.077 0 23.715-10.639 23.715-23.715 0-13.077-10.639-23.715-23.715-23.715zm-143.057-241.394c9.847-11.36 24.347-17.385 39.255-16.436 3.048 14.626-.854 29.831-10.7 41.189-2.204 2.542-4.638 4.796-7.241 6.778-3.449-.409-7.323-.66-11.773-.66-.476 0-.924.012-1.387.017l11.477-13.239c2.713-3.13 2.375-7.867-.754-10.58s-7.867-2.375-10.58.754l-20.008 23.08c.086-11.208 4.102-22.127 11.711-30.903zm-68.195-8.919c14.625-3.05 29.832.854 41.19 10.7 1.882 1.631 3.605 3.39 5.183 5.245-1.539 3.646-2.72 7.415-3.537 11.264l-17.975-15.583c-3.13-2.714-7.866-2.374-10.58.754-2.713 3.13-2.375 7.867.754 10.58l26.721 23.165c.026.27.06.54.089.81-2.606.824-5.232 1.412-8.926 1.669-5.951-1.947-11.557-5.077-16.484-9.348-11.359-9.847-17.378-24.346-16.435-39.256zm-138.975-4.571 97.113 33.217c-3.925 7.653-9.612 13.967-16.35 18.672-3.181.898-6.634 1.433-12.218 1.433-8.666 0-12.201-1.282-17.551-3.224-1.505-.546-3.097-1.12-4.814-1.687.348-.524.652-1.086.865-1.709l2.623-7.667c1.341-3.92-.75-8.184-4.669-9.524-3.918-1.337-8.183.751-9.523 4.669l-2.623 7.667c-.384 1.123-.478 2.272-.337 3.374-3.829-.529-8.216-.858-13.357-.858-2.259 0-4.36.069-6.346.185-10.746-11.762-15.876-28.205-12.813-44.548zm-85.558 65.301c0-3.275 2.665-5.939 5.939-5.939 13.392 0 20.167 2.458 26.72 4.835 5.844 2.121 11.364 4.124 22.668 4.124s16.825-2.003 22.669-4.124c6.552-2.377 13.328-4.835 26.721-4.835 13.392 0 20.167 2.458 26.719 4.835 5.844 2.121 11.364 4.124 22.667 4.124 11.305 0 16.824-2.003 22.668-4.124 6.552-2.377 13.327-4.835 26.72-4.835s20.168 2.458 26.721 4.835c5.845 2.121 11.365 4.124 22.669 4.124s16.824-2.003 22.669-4.124c6.552-2.377 13.328-4.835 26.72-4.835 13.394 0 20.17 2.458 26.723 4.836 5.846 2.12 11.368 4.123 22.672 4.123 11.306 0 16.827-2.003 22.672-4.123 6.553-2.378 13.329-4.836 26.723-4.836 3.275 0 5.939 2.664 5.939 5.939s-2.665 5.939-5.939 5.939c-11.305 0-16.826 2.003-22.674 4.124-6.553 2.378-13.33 4.836-26.721 4.836s-20.168-2.458-26.723-4.837c-5.845-2.12-11.366-4.123-22.672-4.123-11.305 0-16.824 2.003-22.667 4.123-2.508.91-5.102 1.852-8.05 2.644-4 1.076-6.371 5.19-5.295 9.19 1.075 4 5.191 6.37 9.19 5.296 3.566-.959 6.597-2.059 9.271-3.029 5.35-1.941 8.884-3.224 17.551-3.224 8.669 0 12.205 1.282 17.558 3.225 7.043 2.556 15.809 5.735 31.837 5.735s24.793-3.18 31.838-5.735c1.657-.601 3.14-1.139 4.654-1.595 2.813 2.813 4.661 6.589 4.921 10.769.151 2.434-.212 4.802-1.033 6.998-10.542.912-17.233 3.33-22.824 5.358-5.352 1.942-8.888 3.225-17.557 3.225-8.668 0-12.205-1.283-17.556-3.224-7.042-2.556-15.805-5.736-31.839-5.736-16.033 0-24.796 3.181-31.836 5.735-5.351 1.942-8.886 3.225-17.553 3.225s-12.202-1.282-17.552-3.224c-7.042-2.556-15.805-5.736-31.837-5.736-16.033 0-24.796 3.181-31.837 5.736-5.35 1.941-8.884 3.224-17.551 3.224-8.666 0-12.201-1.282-17.55-3.224-7.041-2.556-15.804-5.736-31.836-5.736-16.034 0-24.797 3.181-31.837 5.735-5.351 1.942-8.886 3.225-17.553 3.225s-12.201-1.282-17.551-3.224c-5.591-2.029-12.282-4.447-22.822-5.359-.82-2.196-1.184-4.564-1.033-6.998.26-4.18 2.108-7.956 4.92-10.768 1.514.456 2.996.993 4.652 1.594 7.042 2.556 15.807 5.735 31.834 5.735s24.792-3.18 31.836-5.735c5.352-1.942 8.887-3.225 17.554-3.225 8.666 0 12.201 1.282 17.553 3.225 7.042 2.556 15.806 5.735 31.833 5.735s24.791-3.18 31.836-5.736c5.351-1.941 8.885-3.224 17.552-3.224s12.202 1.282 17.56 3.227c4.111 1.491 8.771 3.182 15.097 4.341 4.074.752 7.982-1.95 8.729-6.025.747-4.074-1.951-7.982-6.025-8.729-5.093-.934-8.953-2.334-12.691-3.689-5.845-2.121-11.365-4.124-22.669-4.124s-16.824 2.003-22.671 4.124c-6.552 2.378-13.328 4.836-26.717 4.836s-20.165-2.458-26.719-4.836c-5.844-2.121-11.364-4.124-22.667-4.124-11.304 0-16.825 2.003-22.672 4.124-6.552 2.378-13.328 4.836-26.718 4.836s-20.166-2.458-26.72-4.836c-5.844-2.121-11.364-4.124-22.668-4.124-3.275 0-5.94-2.664-5.94-5.94zm0 60.899c0-3.275 2.665-5.939 5.939-5.939 13.395 0 20.168 2.459 26.72 4.836 5.844 2.121 11.364 4.124 22.668 4.124s16.825-2.003 22.67-4.124c6.55-2.377 13.324-4.836 26.72-4.836 13.395 0 20.168 2.459 26.719 4.836 5.844 2.121 11.364 4.124 22.667 4.124 11.305 0 16.824-2.003 22.668-4.124 6.551-2.377 13.324-4.836 26.72-4.836 13.395 0 20.169 2.459 26.721 4.837 5.845 2.12 11.365 4.123 22.669 4.123s16.824-2.003 22.67-4.124c6.55-2.377 13.324-4.836 26.719-4.836 13.396 0 20.17 2.459 26.723 4.837 5.846 2.12 11.368 4.123 22.672 4.123 11.306 0 16.827-2.003 22.673-4.124 6.551-2.377 13.325-4.836 26.722-4.836 3.275 0 5.939 2.664 5.939 5.939s-2.665 5.939-5.939 5.939c-11.305 0-16.826 2.003-22.673 4.124-6.551 2.377-13.325 4.836-26.722 4.836s-20.171-2.459-26.723-4.837c-5.845-2.12-11.366-4.123-22.672-4.123-11.305 0-16.824 2.003-22.668 4.124-6.551 2.377-13.325 4.836-26.72 4.836-13.396 0-20.169-2.459-26.72-4.836-5.845-2.121-11.365-4.124-22.669-4.124s-16.824 2.003-22.669 4.124c-6.55 2.377-13.324 4.836-26.719 4.836s-20.168-2.458-26.719-4.836c-5.844-2.121-11.364-4.124-22.667-4.124-11.304 0-16.825 2.003-22.671 4.124-6.55 2.377-13.324 4.836-26.719 4.836s-20.168-2.459-26.72-4.836c-5.844-2.121-11.364-4.124-22.668-4.124-3.276 0-5.941-2.664-5.941-5.939zm392.046 37.767c-10.541.912-17.233 3.33-22.824 5.358-5.352 1.942-8.888 3.225-17.557 3.225-8.668 0-12.205-1.282-17.556-3.224-7.042-2.556-15.805-5.736-31.839-5.736-16.033 0-24.796 3.181-31.836 5.736-5.351 1.941-8.886 3.224-17.553 3.224s-12.202-1.282-17.552-3.224c-7.042-2.556-15.805-5.736-31.837-5.736-16.033 0-24.796 3.181-31.837 5.736-5.35 1.941-8.884 3.224-17.551 3.224-8.666 0-12.201-1.282-17.55-3.224-7.041-2.556-15.804-5.736-31.836-5.736-16.034 0-24.797 3.181-31.837 5.736-5.351 1.941-8.886 3.224-17.553 3.224s-12.201-1.282-17.551-3.224c-5.591-2.029-12.282-4.447-22.822-5.359-.82-2.196-1.184-4.564-1.033-6.998.2-3.217 1.336-6.203 3.13-8.691 2.178.541 4.142 1.252 6.439 2.086 7.042 2.556 15.804 5.736 31.837 5.736s24.796-3.181 31.836-5.735c5.352-1.942 8.887-3.225 17.554-3.225 8.666 0 12.201 1.282 17.55 3.224 7.041 2.556 15.803 5.736 31.836 5.736s24.796-3.181 31.836-5.736c5.351-1.941 8.885-3.224 17.552-3.224s12.202 1.282 17.552 3.224c7.042 2.556 15.804 5.736 31.837 5.736s24.796-3.181 31.837-5.736c5.35-1.941 8.884-3.224 17.551-3.224 8.669 0 12.205 1.282 17.556 3.224 7.042 2.556 15.805 5.736 31.839 5.736s24.798-3.181 31.838-5.735c2.299-.834 4.265-1.546 6.445-2.087 1.794 2.489 2.93 5.474 3.13 8.692.153 2.433-.211 4.801-1.031 6.997zm-392.046 20.562c0-3.275 2.665-5.939 5.939-5.939 13.395 0 20.168 2.459 26.72 4.836 5.844 2.121 11.364 4.124 22.668 4.124s16.825-2.003 22.67-4.124c6.55-2.377 13.324-4.836 26.72-4.836 13.395 0 20.168 2.459 26.719 4.836 5.844 2.121 11.364 4.124 22.667 4.124 11.305 0 16.824-2.003 22.668-4.124 6.551-2.377 13.324-4.836 26.72-4.836 13.395 0 20.169 2.459 26.721 4.836 5.845 2.121 11.365 4.124 22.669 4.124s16.824-2.003 22.67-4.124c6.55-2.377 13.324-4.836 26.719-4.836 13.396 0 20.17 2.459 26.723 4.837 5.846 2.12 11.368 4.123 22.672 4.123 11.306 0 16.827-2.003 22.673-4.124 6.551-2.377 13.325-4.836 26.722-4.836 3.275 0 5.939 2.664 5.939 5.939s-2.665 5.939-5.939 5.939c-11.305 0-16.826 2.003-22.673 4.124-6.551 2.377-13.325 4.836-26.722 4.836s-20.171-2.459-26.723-4.837c-5.845-2.12-11.366-4.123-22.672-4.123-11.305 0-16.824 2.003-22.668 4.124-6.551 2.377-13.325 4.836-26.72 4.836-13.396 0-20.169-2.459-26.72-4.837-5.845-2.12-11.365-4.123-22.669-4.123s-16.824 2.003-22.669 4.124c-6.55 2.377-13.324 4.836-26.719 4.836s-20.168-2.459-26.719-4.836c-5.844-2.121-11.364-4.124-22.667-4.124-11.304 0-16.825 2.003-22.671 4.124-6.55 2.377-13.324 4.836-26.719 4.836s-20.168-2.459-26.72-4.836c-5.844-2.121-11.364-4.124-22.668-4.124-3.276 0-5.941-2.664-5.941-5.939zm392.047 37.765c-10.538.913-17.301 3.356-22.83 5.362-5.352 1.94-8.887 3.223-17.552 3.223-8.664 0-12.199-1.281-17.556-3.224-7.042-2.556-15.805-5.736-31.839-5.736-16.033 0-24.796 3.181-31.842 5.738-5.35 1.94-8.884 3.222-17.546 3.222s-12.196-1.281-17.552-3.224c-7.042-2.556-15.805-5.736-31.837-5.736-16.033 0-24.796 3.181-31.841 5.737-5.35 1.94-8.884 3.223-17.547 3.223-8.662 0-12.196-1.282-17.55-3.224-7.041-2.556-15.804-5.736-31.836-5.736-16.034 0-24.797 3.181-31.843 5.738-5.35 1.939-8.884 3.222-17.547 3.222-8.662 0-12.196-1.281-17.551-3.224-5.525-2.005-12.287-4.449-22.822-5.361-.82-2.196-1.183-4.563-1.032-6.997.2-3.217 1.335-6.202 3.129-8.69 2.178.541 4.142 1.252 6.439 2.086 7.042 2.556 15.804 5.736 31.837 5.736s24.796-3.181 31.836-5.735c5.352-1.942 8.887-3.225 17.554-3.225 8.666 0 12.201 1.282 17.55 3.224 7.041 2.556 15.803 5.736 31.836 5.736s24.796-3.181 31.836-5.736c5.351-1.941 8.885-3.224 17.552-3.224s12.202 1.282 17.552 3.224c7.042 2.556 15.804 5.736 31.837 5.736s24.796-3.181 31.837-5.736c5.35-1.941 8.884-3.224 17.551-3.224 8.669 0 12.205 1.282 17.556 3.224 7.042 2.556 15.805 5.736 31.839 5.736s24.798-3.181 31.838-5.735c2.3-.834 4.265-1.545 6.446-2.087 1.794 2.489 2.929 5.474 3.13 8.691.151 2.432-.213 4.8-1.032 6.996zm43.738 65.02h-464.57c-4.806 0-8.715-3.909-8.715-8.715s3.91-8.716 8.715-8.716h116.285c4.142 0 7.5-3.357 7.5-7.5s-3.358-7.5-7.5-7.5h-87.5v-7.434c0-2.9 1.158-5.599 3.26-7.597 2.061-1.958 4.758-2.946 7.554-2.816 10.275.52 16.157 2.654 21.854 4.721 5.843 2.119 11.361 4.121 22.66 4.121s16.818-2.002 22.67-4.124c6.55-2.377 13.324-4.836 26.72-4.836 13.395 0 20.168 2.459 26.726 4.839 5.843 2.119 11.362 4.121 22.661 4.121s16.818-2.002 22.668-4.124c6.551-2.377 13.324-4.836 26.72-4.836 13.395 0 20.169 2.459 26.729 4.84 5.843 2.119 11.362 4.12 22.66 4.12s16.817-2.001 22.67-4.124c6.55-2.377 13.324-4.836 26.719-4.836 13.396 0 20.17 2.459 26.732 4.84 5.844 2.119 11.364 4.12 22.663 4.12 11.3 0 16.82-2.002 22.673-4.124 5.688-2.063 11.569-4.198 21.848-4.718 2.811-.139 5.495.858 7.554 2.816 2.103 1.999 3.26 4.696 3.26 7.597v7.434h-283.501c-4.142 0-7.5 3.357-7.5 7.5s3.358 7.5 7.5 7.5h312.285c4.806 0 8.715 3.91 8.715 8.716s-3.91 8.715-8.715 8.715z"/></g></g></svg>