<svg id="Layer_1" enable-background="new 0 0 512 512" height="512" viewBox="0 0 512 512" width="512" xmlns="http://www.w3.org/2000/svg"><g><path d="m406.408 88.954c1.919 0 3.839-.732 5.304-2.196l.115-.115c2.929-2.93 2.929-7.678 0-10.607-2.93-2.928-7.678-2.928-10.607 0l-.115.115c-2.929 2.93-2.929 7.678 0 10.607 1.464 1.464 3.384 2.196 5.303 2.196z"/><path d="m362.81 62.309-.145.114c-3.249 2.569-3.801 7.285-1.232 10.535 1.48 1.872 3.674 2.849 5.889 2.849 1.629 0 3.27-.528 4.646-1.616l.145-.114c3.249-2.569 3.801-7.285 1.232-10.535-2.569-3.248-7.285-3.799-10.535-1.233z"/><path d="m404.161 53.136.115-.145c2.582-3.239 2.05-7.958-1.188-10.54-3.24-2.583-7.959-2.051-10.54 1.188l-.115.145c-2.582 3.239-2.05 7.958 1.188 10.54 1.382 1.102 3.031 1.636 4.671 1.636 2.204 0 4.389-.967 5.869-2.824z"/><path d="m166.12 104.733c-1.372 3.56-3.94 5.908-3.938 5.908-3.136 2.707-3.482 7.443-.775 10.578 1.483 1.718 3.575 2.599 5.68 2.599 1.736 0 3.481-.6 4.898-1.823 6.827-5.895 16.44-21.593 3.962-38.815-6.873-9.483-3.088-13.203.572-16.801.48-.472.902-.891 1.24-1.255 2.816-3.037 2.638-7.782-.398-10.6-3.04-2.816-7.784-2.638-10.6.398-.205.222-.465.472-.756.758-2.221 2.182-6.354 6.244-8.094 12.509-2.087 7.516-.105 15.521 5.889 23.792 3.179 4.385 3.936 8.557 2.32 12.752z"/><path d="m108.879 161.729c-1.37 3.55-3.936 5.891-3.934 5.891h.001c-3.139 2.703-3.491 7.439-.788 10.577 1.483 1.723 3.578 2.605 5.686 2.605 1.733 0 3.476-.598 4.892-1.817 6.831-5.885 16.452-21.564 3.974-38.786-6.883-9.514-3.094-13.237.57-16.837.479-.47.899-.888 1.236-1.252 2.818-3.035 2.641-7.781-.396-10.599-3.036-2.818-7.781-2.643-10.599.396-.205.22-.464.47-.754.755-2.222 2.183-6.355 6.244-8.097 12.515-2.088 7.519-.108 15.53 5.888 23.818 3.176 4.384 3.935 8.549 2.321 12.734z"/><path d="m221.809 56.608c-1.372 3.56-3.939 5.908-3.938 5.908-3.135 2.707-3.482 7.443-.775 10.578 1.483 1.718 3.575 2.599 5.68 2.599 1.736 0 3.481-.6 4.898-1.823 6.827-5.895 16.441-21.593 3.962-38.814-6.873-9.485-3.087-13.205.574-16.802.479-.472.9-.89 1.238-1.254 2.817-3.037 2.64-7.782-.396-10.6-3.038-2.818-7.783-2.639-10.6.396-.205.222-.465.472-.756.757-2.221 2.183-6.354 6.244-8.095 12.509-2.088 7.517-.106 15.521 5.888 23.795 3.178 4.384 3.937 8.556 2.32 12.751z"/><path d="m282.392 201.138c-2.929 2.93-2.929 7.678 0 10.607 1.465 1.464 3.385 2.196 5.304 2.196s3.839-.732 5.304-2.196l.115-.115c2.929-2.93 2.929-7.678 0-10.607-2.93-2.928-7.678-2.928-10.607 0z"/><path d="m244.052 187.332-.144.115c-3.229 2.593-3.746 7.313-1.153 10.544 1.481 1.846 3.657 2.805 5.854 2.805 1.646 0 3.306-.54 4.69-1.651l.144-.115c3.23-2.593 3.746-7.313 1.153-10.544-2.592-3.229-7.312-3.749-10.544-1.154z"/><path d="m274.279 168.114c-2.929 2.93-2.929 7.678 0 10.607 1.465 1.464 3.385 2.196 5.304 2.196s3.839-.732 5.304-2.196l.115-.115c2.929-2.93 2.929-7.678 0-10.607-2.93-2.928-7.678-2.928-10.607 0z"/><path d="m163.68 325.957-.115.144c-2.593 3.23-2.076 7.951 1.153 10.544 1.385 1.111 3.043 1.651 4.69 1.651 2.196 0 4.372-.96 5.854-2.805l.115-.144c2.593-3.23 2.076-7.951-1.153-10.544-3.23-2.591-7.951-2.075-10.544 1.154z"/><path d="m125.037 322.972c1.463 1.453 3.374 2.179 5.285 2.179 1.928 0 3.855-.739 5.321-2.215l.144-.145c2.919-2.938 2.903-7.688-.036-10.606s-7.688-2.903-10.606.036l-.144.145c-2.919 2.938-2.903 7.687.036 10.606z"/><path d="m156.113 292.353-.115.115c-2.929 2.93-2.929 7.678 0 10.607 1.465 1.464 3.385 2.196 5.304 2.196s3.839-.732 5.304-2.196l.115-.115c2.929-2.93 2.929-7.678 0-10.607-2.93-2.927-7.678-2.927-10.608 0z"/><path d="m506.198 2.196c-2.932-2.929-7.68-2.929-10.606.003l-27.346 27.363c-22.189-22.386-41.081-23.507-62.878-24.786-2.586-.151-5.25-.308-8.008-.503-17.394-1.23-29.362-.164-46.49 9.123-23.629 12.878-48.306 49.375-51.774 76.58-1.784 14.094.548 28.876 6.552 41.849-8.496-1.888-16.96-2.658-24.988-3.388-22.931-2.066-51.773-1.351-71.458 22.713-21.728 26.554-38.871 51.01-28.539 81.429 1.571 4.638 4.528 9.818 8.034 15.319-12.108-3.941-25.154-4.588-36.621-3.13-6.622.839-14.262 3.262-22.709 7.202-3.753 1.751-5.377 6.214-3.626 9.968 1.751 3.753 6.211 5.379 9.968 3.626 6.936-3.235 13.248-5.281 18.255-5.915 18.989-2.411 43.171 1.96 54.389 21.379.888 2.278 1.93 4.518 3.093 6.668 3.15 8.448 9.673 18.592 15.984 28.403 5.344 8.309 10.869 16.899 12.605 22.026 7.891 23.253-5.775 42.496-25.939 67.139-12.04 14.697-29.54 19.857-58.512 17.246-18.055-1.612-36.724-3.28-52.032-17.91-19.616-18.781-20.443-32.94-21.695-54.374-.156-2.663-.316-5.408-.518-8.249-1.849-26.226 5.795-43.818 25.56-58.827 3.3-2.505 3.943-7.209 1.438-10.508-2.503-3.299-7.209-3.945-10.508-1.438-23.971 18.201-33.671 40.354-31.452 71.829.197 2.78.354 5.464.506 8.067 1.194 20.451 2.254 38.341 20.943 58.845l-37.436 37.434c-4.404-1.879-9.275-2.847-14.369-2.659-.005 0-.011 0-.016.001-18.52.702-33.045 16.341-32.38 34.861.322 8.973 4.127 17.285 10.712 23.407 6.279 5.837 14.362 9.01 22.895 9.01.412 0 .825-.007 1.239-.021 8.985-.34 17.301-4.149 23.415-10.727 6.122-6.586 9.306-15.162 8.966-24.135-.286-7.963-3.34-15.188-8.197-20.788l36.098-36.098c17.933 13.862 38.584 15.709 55.49 17.219 4.803.433 9.863.743 15.046.743 19.561 0 40.846-4.426 56.412-23.427 21.727-26.553 38.871-51.01 28.539-81.458-1.615-4.767-4.884-10.54-8.772-16.797 8.9 3.44 18.476 5.224 27.995 5.224 3.138-.001 6.271-.194 9.369-.587 28.601-3.643 65.032-29.092 77.961-54.456 7.98-15.632 8.875-27.454 7.734-43.81-.195-2.759-.352-5.423-.504-8.009-.786-13.395-1.515-25.692-7.159-38.342 1.05.697 2.1 1.398 3.145 2.096 8.604 5.744 16.732 11.17 23.649 13.514 6.031 2.048 12.012 3.079 18.048 3.079 11.427 0 23.048-3.697 35.565-11.198 3.553-2.13 4.707-6.736 2.578-10.289-2.13-3.554-6.738-4.704-10.289-2.578-15.27 9.151-27.94 11.245-41.084 6.781-5.05-1.711-12.721-6.832-20.14-11.784-9.021-6.022-18.348-12.249-26.917-15.395-2.644-.97-5.109-2.183-7.417-3.581-2.142-1.79-4.322-3.387-6.527-4.829-14.019-12.558-19.663-33.39-17.501-50.482 2.854-22.388 24.685-54.732 44.059-65.292 14.029-7.605 23.142-8.41 38.267-7.338 2.821.199 5.545.359 8.189.515 21.472 1.259 35.656 2.091 54.438 21.732 14.592 15.214 16.292 33.921 17.936 52.006 2.608 28.97-2.557 46.467-17.271 58.505-3.206 2.623-3.679 7.348-1.056 10.554 2.623 3.207 7.349 3.679 10.554 1.056 24.063-19.686 24.778-48.529 22.712-71.466-1.481-16.304-3.137-34.405-13.986-50.932l28.386-28.403c2.928-2.928 2.926-7.677-.004-10.605zm-455.299 488.843c-3.391 3.648-8.006 5.761-12.98 5.949-4.971.172-9.718-1.592-13.368-4.984-3.648-3.392-5.756-7.994-5.935-12.96-.369-10.269 7.684-18.94 17.952-19.333 10.27-.344 18.926 7.686 19.295 17.96.187 4.974-1.575 9.722-4.964 13.368zm271.483-336.681c2.151 1.843 8.233 6.28 8.936 6.954.002.001.003.003.005.004 19.636 18.802 20.467 32.978 21.727 54.437.155 2.644.315 5.368.515 8.183.995 14.263.331 23.278-6.133 35.94-10.627 20.847-42.941 43.393-66.488 46.393-20.544 2.593-46.47-6.068-56.967-26.992-.731-1.444-1.373-2.937-1.93-4.456-3.146-8.566-9.371-17.894-15.393-26.913-4.953-7.419-10.074-15.091-11.787-20.147-7.889-23.225 5.776-42.466 25.943-67.112 10.057-12.293 23.917-17.92 45.095-17.92 4.173 0 8.634.219 13.401.647 14.687 1.336 29.778 2.709 43.076 10.982z"/></g></svg>