<svg id="Capa_1" enable-background="new 0 0 512 512" height="512" viewBox="0 0 512 512" width="512" xmlns="http://www.w3.org/2000/svg"><g><path d="m254.066 495.812c1.14 0 2.287-.026 3.434-.079 39.72-1.875 70.4-35.595 68.525-75.315-.975-20.65-10.778-39.884-26.915-52.806-3.277-2.627-8.027-2.273-10.878.811l-2.054 2.222c-4.678-9.825-10.323-19.16-16.851-27.867l-8.817-11.766c-2.651-3.535-7.665-4.251-11.2-1.6-.606.455-1.145.994-1.6 1.6l-8.822 11.761c-7.115 9.498-13.177 19.74-18.08 30.547-1.031-.98-2.05-1.97-3.1-2.93l-.537-.49c-3.018-2.754-7.625-2.792-10.688-.088-29.823 26.302-32.678 71.8-6.376 101.624 13.658 15.486 33.309 24.364 53.959 24.376zm-2.377-143.439 2.421-3.228 2.421 3.228c7.257 9.687 13.297 20.228 17.986 31.386-7.792 9.463-14.709 19.614-20.664 30.328-6.15-10.033-13.17-19.507-20.977-28.312 4.794-11.903 11.118-23.131 18.813-33.401zm-39.743 34.587c14.147 13.873 25.982 29.922 35.055 47.537 2.026 3.926 6.851 5.467 10.778 3.441 1.477-.762 2.679-1.965 3.441-3.441l3.907-7.573c7.695-14.918 17.37-28.728 28.764-41.054l.707-.766c10.694 11.098 16.288 26.145 15.443 41.534-1.621 28.698-24.575 51.58-53.277 53.111-30.893 1.465-57.125-22.392-58.59-53.285-.685-14.453 4.25-28.61 13.772-39.504z"/><path d="m417.27 223.083c29.415.003 54.068-22.24 57.082-51.5 3.411-32.978-9.924-65.472-35.517-86.547l-40.551-33.47c-3.408-2.812-8.45-2.329-11.262 1.079-.422.512-.779 1.074-1.063 1.675l-22.455 47.541c-14.191 29.962-12.431 65.042 4.688 93.433 10.345 17.237 28.974 27.785 49.078 27.789zm-39.3-114.389 18.063-38.24 32.618 26.919c21.461 17.674 32.644 44.923 29.785 72.578-2.321 22.708-22.611 39.234-45.318 36.913-12.944-1.323-24.509-8.664-31.215-19.813-14.358-23.81-15.835-53.23-3.933-78.357z"/><path d="m413.291 184.401c.963 4.313 5.241 7.028 9.554 6.065s7.028-5.241 6.065-9.554l-15.7-70.268c-.963-4.312-5.24-7.027-9.552-6.064s-7.027 5.24-6.064 9.552z"/><path d="m394.179 180.276c4.422 0 8.007-3.585 8.007-8.007 0-.585-.064-1.168-.191-1.739l-6.977-31.23c-.963-4.312-5.24-7.026-9.552-6.063s-7.026 5.24-6.063 9.552l6.977 31.23c.815 3.653 4.055 6.252 7.799 6.257z"/><path d="m433.225 163.554c.943 4.317 5.206 7.052 9.522 6.109 4.317-.943 7.052-5.206 6.109-9.522-.005-.025-.011-.05-.017-.075l-6.976-31.231c-.963-4.312-5.24-7.026-9.552-6.063s-7.026 5.24-6.063 9.552z"/><path d="m193.23 252.325c11.085 8.242 26.529 7.144 36.337-2.583l5.589-5.589c2.508-2.521 5.92-3.935 9.476-3.925 2.899.006 5.72.946 8.043 2.68l10.453 7.84c12.287 9.195 29.699 6.707 38.92-5.56 9.417-12.444 7.171-30.131-5.057-39.827l-7.039-5.631c-12.555-10.017-28.134-15.481-44.195-15.5-18.773-.051-36.787 7.41-50.025 20.721l-5.478 5.479c-10.858 10.855-10.86 28.457-.004 39.315.931.931 1.927 1.795 2.98 2.585zm8.337-30.583 5.479-5.48c10.244-10.3 24.184-16.074 38.711-16.034 12.429.016 24.486 4.247 34.2 12l7.04 5.631c5.444 4.317 6.444 12.192 2.252 17.733-3.914 5.206-11.304 6.262-16.52 2.36l-10.453-7.84c-5.096-3.805-11.283-5.867-17.643-5.88-7.802-.021-15.289 3.08-20.791 8.612l-5.587 5.588c-4.163 4.129-10.718 4.597-15.424 1.1-5.213-3.911-6.269-11.307-2.358-16.52.335-.446.701-.868 1.095-1.263z"/><path d="m369.842 339.24 9.008.346c.9.035 1.793.052 2.691.052 15.14-.013 29.88-4.862 42.069-13.842 15.13-11.113 25.185-27.818 27.924-46.39l1.151-7.664c2.281-15.183-8.178-29.341-23.361-31.622-1.301-.196-2.615-.298-3.93-.308h-.2c-13.737.058-25.393 10.094-27.492 23.669l-1.174 7.815c-.519 3.519-2.424 6.683-5.29 8.789-2.31 1.698-5.1 2.617-7.967 2.623h-.1l-13.061-.096h-.2c-15.269.016-27.673 12.332-27.8 27.6-.18 15.604 12.135 28.495 27.732 29.028zm.068-40.628h.087l13.065.1h.209c6.289-.013 12.41-2.028 17.476-5.753 6.289-4.619 10.468-11.562 11.606-19.282l1.174-7.815c.889-5.763 5.836-10.024 11.667-10.05h.085c6.517.048 11.761 5.37 11.713 11.887-.004.558-.048 1.115-.131 1.666l-1.151 7.664c-4.146 27.585-28.37 47.642-56.245 46.569l-9.007-.347c-6.945-.236-12.429-5.977-12.348-12.925.054-6.481 5.319-11.708 11.8-11.714z"/><path d="m248.355 18.681-39.5 39.488c-12.042 11.976-18.791 28.272-18.745 45.255v.305c.028 22.959 12.327 44.152 32.247 55.568 30.689 17.537 69.784 6.875 87.321-23.814 5.526-9.67 8.433-20.616 8.432-31.754v-.305c.046-16.983-6.703-33.279-18.745-45.255l-39.486-39.487-.011-.01c-3.361-3.309-7.979-3.316-11.513.009zm-3.798 48.146 9.553-22.29 9.553 22.29c4.266 9.921 6.46 20.61 6.447 31.409-.034 17.268-5.646 34.064-16 47.884-10.354-13.821-15.966-30.616-16-47.885-.013-10.8 2.181-21.487 6.447-31.408zm57.553 36.597v.305c-.021 17.22-9.245 33.115-24.185 41.676-1.918 1.093-3.91 2.05-5.962 2.865 9.216-15.065 14.11-32.375 14.147-50.035.015-12.966-2.619-25.799-7.74-37.711l-.542-1.264 10.222 10.222c9.032 8.982 14.094 21.204 14.06 33.942zm-96 0c-.035-12.738 5.028-24.96 14.06-33.942l10.222-10.222-.542 1.264c-5.121 11.912-7.755 24.745-7.74 37.712.037 17.66 4.931 34.97 14.148 50.035-2.052-.816-4.044-1.773-5.963-2.866-14.94-8.561-24.164-24.456-24.185-41.676z"/><path d="m142.11 236.656c-2.518 0-4.889 1.186-6.4 3.2l-12.507 16.676c-8.473 11.346-13.064 25.12-13.093 39.28 0 17.673 14.327 32 32 32s32-14.327 32-32c-.029-14.16-4.62-27.934-13.093-39.28l-12.507-16.676c-1.511-2.015-3.882-3.2-6.4-3.2zm8.875 72.469c-7.353 4.902-17.286 2.915-22.188-4.438-1.752-2.628-2.687-5.716-2.687-8.875.022-10.7 3.492-21.107 9.894-29.68l6.106-8.142 6.106 8.142c6.402 8.573 9.872 18.98 9.894 29.68.005 5.351-2.67 10.349-7.125 13.313z"/><path d="m55.021 246.288c9.693 2.53 19.943 1.868 29.23-1.887l12.873-5.234c4.093-1.665 6.061-6.332 4.397-10.424-.285-.702-.669-1.36-1.14-1.954l-8.629-10.893c-6.237-7.839-14.833-13.459-24.515-16.029-12.819-3.373-25.945 4.284-29.319 17.103-3.373 12.818 4.284 25.944 17.103 29.318zm.8-29.2c1.46-1.299 3.346-2.016 5.3-2.016.689 0 1.375.089 2.042.264 6.338 1.683 11.965 5.364 16.047 10.496l2 2.531-2.992 1.217c-6.077 2.455-12.783 2.887-19.125 1.232-4.273-1.125-6.824-5.5-5.7-9.773.402-1.527 1.247-2.901 2.429-3.949z"/><path d="m311.81 280.512c-8.148-5.826-17.956-8.872-27.971-8.686l-13.894.287c-4.417.091-7.925 3.745-7.834 8.162.016.76.139 1.513.367 2.238l4.166 13.257c3.024 9.547 9.043 17.867 17.166 23.725 10.747 7.758 25.749 5.336 33.507-5.411s5.336-25.749-5.411-33.507c-.032-.023-.064-.046-.096-.069zm-11.181 26.981c-2.504.945-5.314.573-7.486-.989-5.317-3.837-9.256-9.286-11.233-15.538l-.968-3.081 3.229-.067c6.555-.118 12.974 1.875 18.308 5.686 3.589 2.577 4.409 7.576 1.831 11.164-.921 1.283-2.201 2.264-3.679 2.82z"/><path d="m120.344 172.784 20.635 2.947c.375.054.753.081 1.131.081 4.418 0 8-3.581 8-8 0-.379-.027-.757-.08-1.131l-2.948-20.635c-2.031-14.014-8.525-27-18.517-37.034-12.497-12.497-32.758-12.497-45.255 0s-12.497 32.758 0 45.255c10.034 9.992 23.02 16.485 37.034 18.517zm-30.095-44.283c1.735-8.665 10.165-14.282 18.83-12.548 3.095.62 5.938 2.141 8.17 4.373 7.55 7.582 12.456 17.394 13.99 27.983l1.439 10.075-10.068-1.439c-10.589-1.536-20.401-6.442-27.982-13.992-3.79-3.78-5.434-9.206-4.379-14.452z"/><path d="m444.188 361.736.333-2.65c.55-4.384-2.558-8.384-6.942-8.934-2.497-.313-4.996.566-6.745 2.375l-1.857 1.919c-.757.782-1.527 1.549-2.308 2.3-6.667 6.315-15.17 10.345-24.279 11.508-26.263 3.607-44.63 27.821-41.023 54.084s27.821 44.63 54.084 41.023 44.63-27.821 41.023-54.084c-.87-6.334-2.996-12.43-6.254-17.931-4.841-7.903-7.073-17.129-6.379-26.371.096-1.079.21-2.157.347-3.239zm-6.407 67.9c-7.641 15.94-26.757 22.667-42.697 15.025-.687-.329-1.362-.683-2.023-1.06-15.348-8.762-20.688-28.307-11.926-43.655 4.929-8.635 13.593-14.488 23.443-15.839 8.355-1.116 16.384-3.97 23.57-8.377 1.117 8.405 3.941 16.492 8.3 23.764 5.455 9.192 5.955 20.502 1.333 30.139z"/><path d="m152.817 394.539-1.962-3.5c1.145-8.576-.525-17.291-4.759-24.836-4.231-7.547-10.799-13.515-18.714-17.008l-1.961-3.5c-7.558-13.484-24.615-18.288-38.099-10.73-6.57 3.683-11.379 9.858-13.339 17.13l-.288-.083c-14.886-4.186-30.348 4.488-34.535 19.374-2.01 7.149-1.099 14.803 2.535 21.28l1.962 3.5c-2.349 17.616 7.216 34.667 23.473 41.846l1.961 3.5c3.618 6.49 9.682 11.263 16.84 13.256 7.147 2.029 14.809 1.116 21.28-2.534 6.49-3.618 11.262-9.682 13.255-16.84.026-.092.051-.183.076-.275.091.027.183.053.275.078 14.887 4.186 30.348-4.488 34.534-19.375 2.01-7.148 1.098-14.802-2.534-21.278zm-12.867 16.948c-1.794 6.38-8.42 10.098-14.8 8.304-3.064-.862-5.66-2.905-7.218-5.682-2.162-3.854-7.038-5.225-10.892-3.064-3.854 2.162-5.225 7.038-3.063 10.892 3.275 5.762 1.26 13.087-4.502 16.363-5.762 3.275-13.087 1.26-16.363-4.502-.022-.04-.045-.079-.067-.119l-3.35-5.97c-.953-1.699-2.494-2.992-4.333-3.636-11.41-3.99-18.064-15.852-15.522-27.669.409-1.905.109-3.893-.844-5.592l-3.349-5.97c-3.241-5.786-1.178-13.104 4.609-16.345 1.784-.999 3.794-1.526 5.838-1.531 1.105.001 2.204.153 3.267.453 3.068.855 5.666 2.9 7.217 5.682l5.87 10.463c2.162 3.855 7.04 5.228 10.895 3.066s5.228-7.04 3.066-10.895l-5.872-10.468c-3.189-5.809-1.065-13.105 4.744-16.294 5.735-3.149 12.936-1.123 16.188 4.555l3.35 5.97c.953 1.699 2.494 2.992 4.333 3.636 11.41 3.99 18.064 15.852 15.522 27.669-.411 1.907-.111 3.899.844 5.6l3.349 5.97c1.563 2.771 1.953 6.053 1.083 9.114z"/></g></svg>