<svg height="512pt" viewBox="0 0 512 512.002" width="512pt" xmlns="http://www.w3.org/2000/svg"><path d="m504.421875 126.820312c4.183594 0 7.574219-3.390624 7.574219-7.574218v-111.671875c0-4.183594-3.390625-7.574219-7.574219-7.574219h-367.589844c-4.183593 0-7.574219 3.390625-7.574219 7.574219v91.351562c0 4.183594 3.390626 7.574219 7.574219 7.574219 4.183594 0 7.574219-3.390625 7.574219-7.574219v-83.777343h269.632812v481.703124h-147.601562c1.941406-3.789062 3.046875-8.078124 3.046875-12.621093v-3.007813c50.859375-4.789062 91.980469-44.605468 97.605469-96.347656l9.1875-84.550781c.542968-4.980469-1.066406-9.980469-4.414063-13.710938-3.347656-3.730469-8.140625-5.871093-13.152343-5.871093h-3.222657c-3.40625-13.894532-15.960937-24.238282-30.890625-24.238282-2.941406 0-5.863281.40625-8.675781 1.207032-2.632813.742187-5.417969.742187-8.039063 0-.503906-.140626-1.015624-.257813-1.523437-.375 1.0625-2.941407 1.644531-6.109376 1.644531-9.414063 0-13.054687-9.050781-24.023437-21.207031-26.980469v-7.730468c6.296875 4.941406 13.214844 7.441406 20.632813 7.445312h.003906c13.5 0 23.214844-8.414062 24.277344-9.375.09375-.085938.1875-.175781.28125-.265625 24.203124-24.203125 27.765624-68.613281 27.902343-70.492187.164063-2.195313-.636719-4.355469-2.195312-5.914063-1.558594-1.558594-3.71875-2.359375-5.917969-2.199219-1.742188.128906-40.125 3.210938-64.984375 23.007813v-13.160157c20.992187-3.664062 27.734375-22.398437 28.265625-32.804687.007812-.128906.011719-.257813.011719-.386719 0-34.230468-28.882813-68.148437-30.113281-69.578125-1.4375-1.667969-3.53125-2.628906-5.738282-2.628906-2.203125 0-4.296875.960937-5.738281 2.628906-1.226563 1.429688-30.109375 35.347657-30.109375 69.578125 0 .128906.003906.257813.007812.386719.535157 10.402344 7.277344 29.140625 28.265626 32.804687v13.160157c-24.855469-19.796875-63.238282-22.878907-64.980469-23.007813-2.199219-.164062-4.359375.640625-5.917969 2.199219s-2.359375 3.71875-2.199219 5.914063c.140625 1.878906 3.703125 46.289062 27.90625 70.492187.089844.089844.183594.179687.28125.265625 1.0625.960938 10.773438 9.375 24.277344 9.375 7.417969 0 14.335937-2.503906 20.636719-7.445312v8.304687c-11.125 3.625-19.1875 14.085937-19.1875 26.40625 0 3.265625.570312 6.398437 1.609375 9.308594-.421875.089843-.839844.1875-1.257813.292969-3.308594.859374-6.667968.214843-8.972656-1.707032-2.507812-2.097656-5.316406-3.78125-8.308594-5.007812 2.410156-4.113282 3.800782-8.894532 3.800782-13.996094 0-15.3125-12.457032-27.769531-27.769532-27.769531s-27.773437 12.457031-27.773437 27.769531c0 8.0625 3.457031 15.332031 8.960937 20.410156-2.1875-.46875-4.417968-.714844-6.65625-.714844-4.738281 0-9.285156 1.011719-13.511718 3.011719-2.691407 1.261719-7.683594.4375-8.980469-.230469 2.558593-4.199218 4.03125-9.128906 4.03125-14.398437 0-13.761719-10.070313-25.214844-23.226563-27.390625v-83.273438c0-4.179687-3.390625-7.574218-7.574218-7.574218-4.183594 0-7.574219 3.394531-7.574219 7.574218v85.003907c-10.066407 4.171875-17.167969 14.101562-17.167969 25.660156 0 1.207031.085938 2.390625.234375 3.554687-.199219.007813-.394531.007813-.59375.019532l-74.425781-74.429688c-8.421875-8.421875-22.488282-8.421875-30.910156 0-8.421876 8.425782-8.421876 22.488282 0 30.910156l52.339843 52.339844c-2.273437-.507812-4.605469-.777344-6.953125-.777344-14.929687 0-27.484375 10.339844-30.890625 24.234376h-3.222656c-5.011719 0-9.804687 2.140624-13.152344 5.871093-3.347656 3.730469-4.957031 8.730469-4.414062 13.710938l9.1875 84.554687c5.699219 52.425782 47.835937 92.601563 99.625 96.511719v2.839844c0 15.3125 12.457031 27.773437 27.769531 27.773437h367.738281c4.183594 0 7.574219-3.394531 7.574219-7.574218v-349.960938c0-4.183594-3.390625-7.574219-7.574219-7.574219-4.183593 0-7.574219 3.390625-7.574219 7.574219v332.285156l-25.246093-24.042968v-411.605469l25.246093-25.246094v93.386719c-.003906 4.183594 3.386719 7.574218 7.570313 7.574218zm-47.964844-75.605468v407.660156l-27.269531 27.265625v-460.894531zm5.679688 423.398437 23.351562 22.238281h-45.589843zm1.761719-437.226562-23.347657-22.238281h45.589844zm-444.429688 300.917969h337.445312l-1.648437 15.148437h-334.152344zm324.070312-189.539063c-2.21875 13.167969-8.015624 37.125-22.0625 51.339844-.910156.753906-6.835937 5.402343-14.042968 5.402343-4.960938 0-9.539063-2.171874-14.003906-6.632812-4.179688-4.183594-6.359376-8.527344-6.597657-13.15625.148438-5.472656 1.824219-10.605469 5.359375-14.878906 14.214844-14.054688 38.179688-19.855469 51.347656-22.074219zm-81.730468-29.910156c-2.660156-4.492188-3.207032-9.238281-3.285156-10.054688.113281-19.996093 12.964843-41.050781 20.707031-51.929687 7.742187 10.859375 20.578125 31.859375 20.695312 51.914062-.085937.914063-.648437 5.617188-3.285156 10.070313-3.539063 5.984375-9.238281 8.890625-17.414063 8.890625-8.179687 0-13.878906-2.90625-17.417968-8.890625zm-10.792969 86.652343c-7.261719 0-13.21875-4.71875-14.035156-5.390624-14.058594-14.222657-19.855469-38.199219-22.074219-51.363282 13.152344 2.203125 37.078125 7.976563 51.339844 22.074219 3.542968 4.277344 5.222656 9.410156 5.371094 14.890625-.238282 4.628906-2.414063 8.972656-6.601563 13.15625-4.460937 4.464844-9.039063 6.632812-14 6.632812zm29.21875 29.789063c6.960937 0 12.621094 5.664063 12.621094 12.625s-5.660157 12.621094-12.621094 12.621094-12.625-5.660157-12.625-12.621094 5.664063-12.625 12.625-12.625zm-68.671875-11.109375c6.960938 0 12.625 5.664062 12.625 12.625s-5.664062 12.621094-12.625 12.621094-12.621094-5.660156-12.621094-12.621094 5.660156-12.625 12.621094-12.625zm-71.699219 8.082031c6.960938 0 12.621094 5.660157 12.621094 12.621094s-5.660156 12.625-12.621094 12.625c-6.960937 0-12.625-5.664063-12.625-12.625s5.664063-12.621094 12.625-12.621094zm-124.71875-42.777343c0-5.863282 7.316407-8.875 11.449219-4.746094l69.023438 69.027344c-.945313.628906-1.867188 1.300781-2.742188 2.035156-2.320312 1.929687-5.679688 2.578125-8.992188 1.714844-1.40625-.363282-2.835937-.617188-4.273437-.789063l-62.5-62.5c-1.265625-1.265625-1.964844-2.949219-1.964844-4.742187zm.648438 107.234374c.28125-.3125.898437-.835937 1.878906-.835937h73.296875c4.183594 0 7.574219-3.394531 7.574219-7.574219 0-4.183594-3.390625-7.574218-7.574219-7.574218h-54.007812c2.761718-5.386719 8.363281-9.089844 14.820312-9.089844 5.386719 0 10.617188 5.195312 15.820312 2.207031 3.761719-2.160156 8.296876-2.753906 12.484376-1.671875 5.175781 1.339844 10.746093 1.105469 15.746093-.808594 6.242188-2.394531 10.21875-7.804687 17.410157-7.804687 3.023437 0 5.964843.824219 8.539062 2.367187 3.738281 3.21875 8.269531 5.742188 13.148438 6.648438 2.507812.46875 5.058593.585937 7.597656.308594 2.726562-.296876 5.316406-1.246094 8.078125-1.246094 2.484375 0 4.855469.527344 7.070312 1.574218 6.78125 3.1875 14.566407 3.1875 21.363281-.007812 2.199219-1.039062 4.574219-1.566406 7.054688-1.566406 1.421875 0 2.839844.179687 4.210938.535156 8.027343 2.078125 16.433593.304688 22.5-4.753906 2.976562-2.488282 6.761718-3.859375 10.652343-3.859375 3.902344 0 7.6875 1.371093 10.675781 3.867187 6.058594 5.050782 14.464844 6.824219 22.472657 4.75 10.820312-2.792968 19.761719 6.554688 31.277343 2.828125 5.605469-1.8125 9.699219-4.484375 15.871094-2.734375 7.546875 2.132813 13.445313-.632812 20.84375-.632812 6.457032 0 12.058594 3.703125 14.820313 9.089844h-213.238281c-4.183594 0-7.574219 3.390624-7.574219 7.574218 0 4.179688 3.390625 7.574219 7.574219 7.574219h232.53125c.980468 0 1.597656.523437 1.878906.835937s.738281.984376.628906 1.960938l-2.660156 24.46875h-340.738282l-2.660156-24.46875c-.105468-.972656.351563-1.648438.632813-1.960938zm8.558593 86.511719-1.589843-14.636719h330.859375l-1.59375 14.636719c-5.160156 47.5-45.085938 83.320313-92.863282 83.320313h-141.945312c-47.78125-.003906-87.703125-35.820313-92.867188-83.320313zm112.484376 113.613281h-.148438c-6.960938 0-12.621094-5.664062-12.621094-12.621093v-2.527344h130.269532v2.527344c0 6.960937-5.660157 12.621093-12.621094 12.621093zm0 0"/></svg>