<svg id="Layer_1" enable-background="new 0 0 512 512" height="512" viewBox="0 0 512 512" width="512" xmlns="http://www.w3.org/2000/svg"><g><path d="m256 116.051c-4.142 0-7.5 3.357-7.5 7.5v19.996c0 4.143 3.358 7.5 7.5 7.5s7.5-3.357 7.5-7.5v-19.996c0-4.143-3.358-7.5-7.5-7.5z"/><path d="m221 116.051c-4.142 0-7.5 3.357-7.5 7.5v19.996c0 4.143 3.358 7.5 7.5 7.5s7.5-3.357 7.5-7.5v-19.996c0-4.143-3.358-7.5-7.5-7.5z"/><path d="m291 116.051c-4.142 0-7.5 3.357-7.5 7.5v19.996c0 4.143 3.358 7.5 7.5 7.5s7.5-3.357 7.5-7.5v-19.996c0-4.143-3.358-7.5-7.5-7.5z"/><path d="m492.068 318.502 19.641-68.409c.65-2.264.199-4.701-1.218-6.582s-3.636-2.987-5.991-2.987h-138.647v-6.239c0-6.722-.769-13.45-2.285-19.998l-40.193-173.549c7.301-3.398 12.375-10.807 12.375-19.378.001-11.778-9.578-21.36-21.351-21.36h-116.798c-11.773 0-21.352 9.582-21.352 21.359 0 8.572 5.075 15.981 12.376 19.379l-40.169 173.556c-1.514 6.545-2.282 13.269-2.282 19.985v6.244h-138.674c-2.355 0-4.573 1.106-5.991 2.987-1.417 1.881-1.868 4.318-1.218 6.582l19.641 68.409-19.641 68.41c-.65 2.264-.199 4.701 1.218 6.582s3.636 2.987 5.991 2.987h138.674v20.104h-114.486c-2.597 0-5.008 1.343-6.376 3.551-1.367 2.207-1.496 4.965-.339 7.289l20 40.21c1.268 2.549 3.869 4.16 6.715 4.16h94.486v12.112c0 15.491 12.602 28.094 28.093 28.094h163.492c15.491 0 28.093-12.603 28.093-28.094v-12.112h94.459c2.847 0 5.448-1.611 6.715-4.16l20-40.21c1.156-2.324 1.028-5.082-.339-7.289-1.368-2.208-3.779-3.551-6.376-3.551h-114.458v-20.104h138.647c2.355 0 4.573-1.106 5.991-2.987 1.417-1.881 1.868-4.318 1.218-6.582zm-345.894 138.292h-89.84l-12.539-25.21h102.379zm0-75.314h-128.717l8.768-30.539h119.95v30.539zm0-95.417h-43.273c-4.142 0-7.5 3.357-7.5 7.5s3.358 7.5 7.5 7.5h43.273v34.879h-115.643l4.413-15.37c.388-1.353.388-2.786 0-4.139l-4.413-15.37h37.086c4.142 0 7.5-3.357 7.5-7.5s-3.358-7.5-7.5-7.5h-41.392l-8.768-30.539h128.718v30.539zm51.427-271.063h116.797c3.502 0 6.352 2.853 6.352 6.359s-2.85 6.359-6.352 6.359h-57.986c-4.142 0-7.5 3.357-7.5 7.5s3.358 7.5 7.5 7.5h52.024l10.038 43.346h-124.943l10.032-43.346h18.57c4.142 0 7.5-3.357 7.5-7.5s-3.358-7.5-7.5-7.5h-24.532c-3.502 0-6.352-2.853-6.352-6.359s2.85-6.359 6.352-6.359zm-7.541 86.064h131.89l15.046 64.968h-161.973zm160.793 382.842c0 7.22-5.874 13.094-13.093 13.094h-163.492c-7.22 0-13.093-5.874-13.093-13.094v-249.627c0-5.58.638-11.166 1.896-16.604l8.481-36.644h168.918l8.485 36.639c1.26 5.439 1.898 11.029 1.898 16.613zm117.352-52.322-12.539 25.21h-89.813v-25.21zm-102.352-176.061h128.691l-8.768 30.539h-119.923zm0 125.957v-30.539h39.778c4.142 0 7.5-3.357 7.5-7.5s-3.358-7.5-7.5-7.5h-39.778v-34.879h115.616l-4.413 15.37c-.388 1.353-.388 2.786 0 4.139l4.413 15.37h-40.58c-4.142 0-7.5 3.357-7.5 7.5s3.358 7.5 7.5 7.5h44.887l8.768 30.539z"/><path d="m326.013 276.063h-21.979c-3.617-23.249-23.773-41.099-48.02-41.099s-44.404 17.85-48.02 41.099h-21.979c-4.142 0-7.5 3.357-7.5 7.5v160.626c0 4.143 3.358 7.5 7.5 7.5h140c4.142 0 7.5-3.357 7.5-7.5v-30.631c0-4.143-3.358-7.5-7.5-7.5s-7.5 3.357-7.5 7.5v23.131h-125v-145.626h21.402c4.142 0 7.5-3.357 7.5-7.5 0-18.526 15.072-33.599 33.598-33.599s33.598 15.072 33.598 33.599c0 4.143 3.358 7.5 7.5 7.5h21.402v87.387c0 4.143 3.358 7.5 7.5 7.5s7.5-3.357 7.5-7.5v-94.887c-.002-4.143-3.36-7.5-7.502-7.5z"/><path d="m302.481 348.434c0-4.143-3.358-7.5-7.5-7.5h-80c-4.142 0-7.5 3.357-7.5 7.5s3.358 7.5 7.5 7.5h80c4.142 0 7.5-3.358 7.5-7.5z"/><path d="m235.29 370.949c-4.142 0-7.5 3.357-7.5 7.5s3.358 7.5 7.5 7.5h39.382c4.142 0 7.5-3.357 7.5-7.5s-3.358-7.5-7.5-7.5z"/></g></svg>