<?xml version="1.0" encoding="iso-8859-1"?>
<!-- Generator: Adobe Illustrator 19.0.0, SVG Export Plug-In . SVG Version: 6.00 Build 0)  -->
<svg version="1.1" id="Capa_1" xmlns="http://www.w3.org/2000/svg" xmlns:xlink="http://www.w3.org/1999/xlink" x="0px" y="0px"
	 viewBox="0 0 512.001 512.001" style="enable-background:new 0 0 512.001 512.001;" xml:space="preserve">
<g>
	<g>
		<g>
			<path d="M496.816,165.769c-18.951-51.836-60.876-97.305-108.173-124.873c-23.46-13.674-49.067-25.288-74.909-33.688
				c-27.683-8.999-57.552-8.961-85.891-3.251c-35.282,7.109-72.284,16.611-103.973,34.583
				c-42.888,24.324-76.193,63.785-94.648,109.327c-10.75,26.529-18.774,56.002-24.163,84.084
				c-5.803,30.239-3.977,60.328,2.419,90.319c5.562,26.081,13.412,51.233,27.761,73.902c12.863,20.321,29.654,37.83,48.905,52.181
				c22.633,16.873,48.555,27.909,75,37.335c28.652,10.212,57.726,20.834,88.06,24.633c57.521,7.205,118.456-8.963,163.965-44.716
				c42.7-33.547,71.274-82.289,86.523-133.926C513.49,278.181,516.164,218.689,496.816,165.769z M430.692,427.593
				c-36.67,41.906-85.761,65.037-140.991,69.33c-29.344,2.281-56.689-1.632-84.763-10.262c-27.396-8.421-55.415-17.597-81.14-30.316
				c-42.134-20.832-77.919-54.991-94.021-99.87c-9.244-25.766-15.083-54.206-16.04-81.552c-1.043-29.821,6.272-58.567,14.857-86.888
				c7.839-25.859,17.079-49.949,32.181-72.54c14.499-21.69,32.888-41.265,54.204-56.377c23.468-16.638,50.308-26.861,77.797-34.801
				c16.336-4.719,34.042-9.866,51.81-12.867c8.764-0.461,17.561-0.473,26.269,0.16c27.136,1.973,52.187,12.449,76.678,23.624
				c49.228,22.463,89.768,55.057,118.587,101.343C521.398,225.359,497.332,351.44,430.692,427.593z"/>
			<path d="M306.448,49.288c-25.922-7.671-53.226-8.397-79.883-4.745c-44.789,6.136-86.758,24.186-118.729,57.118
				c-32.53,33.508-50.366,75.772-57.571,121.569c-6.809,43.277,5.939,91.828,23.679,131.298
				c18.14,40.359,50.014,70.502,89.26,90.283c40.658,20.492,92.157,35.074,137.944,29.688
				c45.274-5.326,84.816-33.049,111.318-69.061c27.577-37.472,45.325-83.463,48.66-129.959
				c3.512-48.97-13.574-97.699-38.067-139.466C398.871,94.762,351.843,62.722,306.448,49.288z M448.509,243.593
				c5.047,43.888-6.973,88.944-28.074,127.303c-21.506,39.094-51.847,70.933-94.736,85.845
				c-42.354,14.726-91.111,3.982-131.981-11.257c-38.868-14.492-74.906-37.499-98.221-72.481
				c-22.55-33.834-36.029-78.854-37.517-119.378c-1.783-48.539,17.833-101.027,48.116-138.57
				c14.487-17.961,32.716-31.882,53.367-42.06c11.378-5.608,23.201-10.815,35.343-14.592c7.857-1.623,15.741-2.939,23.469-4.024
				c23.63-3.319,47.977-3.094,71.305,2.21c39.952,9.084,79.807,33.701,106.949,64.32c14.454,16.305,24.568,36.295,33.198,56.17
				C438.875,198.149,445.879,220.719,448.509,243.593z"/>
			<path d="M224.463,111.839c-5.665,7.513-6.132,18.934,1.814,25.341c3.903,3.146,6.858,1.613,11.117,2.962
				c3.493,1.106,4.309,3.748,4.748,6.742c0.139,7.147,1.383,13.312,10.482,15.365c8.065,1.82,21.144,0.807,24.975-7.821
				c1.856-4.179,0.218-8.095,0.592-12.356c0.548-6.243-0.709-1.001,2.589-5.208c1.284-1.637,3.342-2.614,4.679-4.337
				c6.688-8.623,2.208-20.432-4.881-27.282C265.181,90.367,236.807,95.468,224.463,111.839z M232.507,113.657
				c6.116-6.035,15.137-9.561,23.674-9.588c9.688-0.031,25.637,6.107,24.872,18.335c-0.477,7.621-8.603,7.807-11.076,13.562
				c-2.922,6.801,4.093,15.042-5.555,18.498c-2.95,1.057-9.174,1.712-12.135,0.384c-2.114-0.948-3.428-2.773-4.312-4.953
				c0.98-6.617-1.681-15.355-7.649-17.136c-4.944-1.476-10.182-0.427-12.228-6.808C226.567,121.178,229.148,116.972,232.507,113.657
				z"/>
			<path d="M325.638,269.235c4.416-1.186,6.431-4.923,9.979-7.311c5.199-3.501,0.332-1.181,5.677-1.262
				c2.08-0.032,4.134,0.954,6.314,0.909c10.911-0.225,17.273-11.134,18.14-20.955c1.883-21.328-19.929-40.177-40.421-39.477
				c-9.405,0.321-18.578,7.142-18.56,17.348c0.009,5.013,3.06,6.346,4.69,10.505c1.337,3.411-0.204,5.707-2.255,7.932
				c-5.469,4.604-9.479,9.448-5.353,17.813C307.507,262.153,316.521,271.684,325.638,269.235z M310.53,243.354
				c5.761-3.4,10.88-10.965,8.511-16.724c-1.962-4.772-6.073-8.184-2.398-13.789c2.748-4.191,7.641-4.83,12.331-4.303
				c8.538,0.959,16.953,5.754,22.344,12.374c6.118,7.512,11.377,23.773,1.39,30.868c-6.225,4.422-11.481-1.778-17.51-0.081
				c-7.126,2.006-9.119,12.643-17.875,7.316c-2.677-1.629-7.101-6.055-7.932-9.193C308.799,247.581,309.391,245.411,310.53,243.354z
				"/>
			<path d="M165.94,303.456c4.416-1.186,6.431-4.922,9.978-7.311c5.199-3.5,0.332-1.181,5.677-1.262
				c2.08-0.032,4.134,0.954,6.315,0.909c10.911-0.225,17.273-11.134,18.14-20.955c1.883-21.328-19.93-40.177-40.421-39.477
				c-9.404,0.321-18.577,7.142-18.56,17.348c0.009,5.013,3.06,6.346,4.69,10.505c1.337,3.411-0.203,5.707-2.256,7.932
				c-5.469,4.604-9.479,9.448-5.352,17.813C147.809,296.374,156.823,305.905,165.94,303.456z M150.833,277.575
				c5.761-3.4,10.88-10.965,8.512-16.724c-1.963-4.772-6.073-8.184-2.398-13.789c2.747-4.191,7.641-4.83,12.33-4.303
				c8.538,0.959,16.954,5.754,22.344,12.374c6.118,7.512,11.377,23.772,1.39,30.868c-6.224,4.422-11.481-1.778-17.509-0.081
				c-7.126,2.006-9.119,12.643-17.875,7.316c-2.677-1.629-7.102-6.055-7.932-9.193C149.101,281.802,149.693,279.632,150.833,277.575
				z"/>
			<path d="M259.565,375.548c7.385,3.718,20.32,5.901,26.126-1.543c2.812-3.605,2.171-7.802,3.566-11.845
				c2.043-5.925-0.446-1.143,3.773-4.426c1.642-1.278,3.875-1.727,5.589-3.075c8.576-6.748,7.089-19.29,1.868-27.653
				c-11.337-18.164-40.101-20.082-56.042-7.186c-7.316,5.918-10.533,16.887-4.375,25.026c3.025,3.998,6.264,3.225,10.069,5.564
				c3.121,1.919,3.274,4.68,2.974,7.691C251.519,365.07,251.234,371.353,259.565,375.548z M244.557,334.391
				c-0.33-5.001,3.193-8.457,7.254-10.86c7.395-4.375,17.001-5.612,25.291-3.572c9.408,2.316,23.396,12.132,19.694,23.81
				c-2.308,7.279-10.238,5.492-14.03,10.477c-4.481,5.892,0.33,15.585-9.868,16.603c-3.118,0.311-9.316-0.56-11.867-2.566
				c-1.822-1.432-2.655-3.521-2.985-5.849c2.553-6.183,2.086-15.306-3.273-18.478C250.333,341.329,244.997,341.078,244.557,334.391z
				"/>
			<path d="M177.484,204.282c35.248-19.954,10.339-74.094-26.837-68.231c-15.983,2.521-23.67,15.257-24.784,29.233
				c-2.684,8.783-2.385,18.223,2.672,26.655C138.515,208.58,160.857,213.694,177.484,204.282z M135.2,153.43
				c0.524-0.694,1.088-1.378,1.709-2.048c6.049-6.524,14.913-9.338,23.595-7.51c15.294,3.22,29.213,19.078,26.603,35.205
				c-3.206,19.813-27.464,28.373-43.816,18.685c-6.8-4.028-10.707-9.369-12.483-15.293c-0.588-4.038-1.036-8.093-0.96-12.049
				C130.468,164.678,132.427,158.841,135.2,153.43z"/>
			<path d="M147.836,178.694c2.85,0,5.411-2.962,4.435-5.823c-0.678-1.987-2.567-4.036-4.9-3.73
				c-1.507,0.198-2.712,0.871-3.365,2.185c0.013-0.038,0.003-0.022-0.064,0.132c-0.072,0.159-0.171,0.287-0.226,0.466
				c-0.032,0.104-0.036,0.133-0.028,0.129c-0.118,0.272-0.227,0.52-0.288,0.818C142.804,175.771,144.721,178.694,147.836,178.694z"
				/>
			<path d="M151.719,161.761c1.287,0.699,2.76,0.812,4.053,0.055c1.051-0.615,1.789-1.79,1.787-3.02
				c0-0.007-0.003-0.014-0.003-0.021c-0.004-0.03-0.044-0.32-0.119-0.886c-0.296-1.145-1.021-1.873-1.965-2.549
				c-1.586-1.136-4.208-0.329-5.087,1.334C149.468,158.409,149.894,160.769,151.719,161.761z"/>
			<path d="M157.465,158.037l-0.007-0.025c0.063,0.484,0.092,0.708,0.095,0.737C157.549,158.512,157.515,158.307,157.465,158.037z"
				/>
			<path d="M166.724,174.024c0.1,0.042,0.2,0.085,0.3,0.127c2.173,0.916,4.48-1.337,4.48-3.412c0-2.086-2.313-4.325-4.48-3.412
				c-0.1,0.042-0.2,0.084-0.3,0.127c-1.354,0.571-2.574,1.662-2.501,3.285C164.297,172.382,165.271,173.411,166.724,174.024z"/>
			<path d="M156.141,185.453c-0.022,0.017-0.029,0.023-0.049,0.038c-0.088,0.073-0.599,0.311-0.636,0.33
				c-3.054,1.535-1.677,6.807,1.774,6.55c2.564-0.191,4.342-1.774,4.573-4.368c0.232-2.605-3.052-4.197-5.12-2.938
				C156.489,185.174,156.307,185.304,156.141,185.453z"/>
			<path d="M169.383,183.228c-0.049,0.063-0.098,0.126-0.147,0.188c-0.751,0.96-1.107,2.04-0.61,3.221
				c0.45,1.071,1.513,1.813,2.695,1.813c1.016,0,2.034-0.584,2.546-1.46c0.729-1.246,0.36-2.523-0.461-3.573
				c-0.049-0.063-0.098-0.126-0.148-0.188C172.419,182.154,170.217,182.16,169.383,183.228z"/>
			<path d="M169.307,162.881c1.456,0,3.009-1.32,2.878-2.878c-0.035-0.421-0.054-0.846-0.158-1.258
				c-0.381-1.512-1.898-2.113-3.307-1.878c-1.521,0.254-2.219,1.768-2.291,3.136C166.348,161.557,167.812,162.881,169.307,162.881z"
				/>
			<path d="M172.119,333.325c-15.983,2.52-23.67,15.257-24.784,29.233c-2.684,8.783-2.385,18.223,2.672,26.655
				c9.98,16.642,32.323,21.755,48.949,12.344C234.203,381.602,209.295,327.463,172.119,333.325z M208.58,376.352
				c-3.206,19.813-27.463,28.373-43.816,18.685c-6.8-4.029-10.707-9.369-12.483-15.293c-0.588-4.039-1.036-8.093-0.96-12.049
				c0.619-5.742,2.579-11.58,5.352-16.99c0.524-0.694,1.088-1.378,1.709-2.048c6.049-6.524,14.913-9.338,23.595-7.51
				C197.271,344.367,211.189,360.225,208.58,376.352z"/>
			<path d="M168.844,366.415c-1.507,0.198-2.712,0.871-3.365,2.185c0.013-0.038,0.003-0.022-0.064,0.132
				c-0.072,0.159-0.171,0.287-0.226,0.466c-0.032,0.104-0.036,0.133-0.028,0.129c-0.118,0.272-0.227,0.52-0.288,0.818
				c-0.596,2.9,1.32,5.823,4.436,5.823c2.85,0,5.411-2.962,4.435-5.823C173.066,368.158,171.176,366.109,168.844,366.415z"/>
			<path d="M179.031,356.07c0,0-0.002-0.014-0.002-0.021c-0.001-0.003-0.003-0.022-0.004-0.031
				c-0.005-0.235-0.039-0.439-0.088-0.707l-0.007-0.025c0.059,0.453,0.087,0.671,0.093,0.722c-0.013-0.09-0.049-0.361-0.113-0.845
				c-0.296-1.146-1.021-1.873-1.965-2.549c-1.586-1.136-4.208-0.329-5.087,1.334c-0.917,1.736-0.492,4.096,1.334,5.087
				c1.287,0.699,2.76,0.812,4.053,0.055C178.295,358.475,179.033,357.3,179.031,356.07z"/>
			<path d="M192.976,368.013c0-2.086-2.313-4.325-4.48-3.412c-0.1,0.042-0.2,0.084-0.3,0.127c-1.354,0.571-2.574,1.662-2.501,3.285
				c0.073,1.643,1.047,2.672,2.501,3.285c0.1,0.042,0.201,0.085,0.3,0.127C190.67,372.341,192.976,370.088,192.976,368.013z"/>
			<path d="M178.156,382.339c-0.195,0.109-0.375,0.238-0.542,0.388c-0.022,0.017-0.029,0.023-0.049,0.038
				c-0.088,0.073-0.599,0.311-0.636,0.33c-3.054,1.535-1.677,6.807,1.774,6.55c2.564-0.191,4.342-1.774,4.573-4.367
				C183.507,382.672,180.223,381.081,178.156,382.339z"/>
			<path d="M194.73,380.502c-0.839-1.074-3.041-1.068-3.876,0c-0.049,0.063-0.098,0.126-0.147,0.188
				c-0.75,0.96-1.107,2.039-0.61,3.221c0.45,1.07,1.513,1.813,2.695,1.813c1.016,0,2.034-0.584,2.546-1.46
				c0.729-1.246,0.36-2.523-0.461-3.573C194.829,380.627,194.781,380.564,194.73,380.502z"/>
			<path d="M190.781,360.155c1.456,0,3.009-1.32,2.878-2.878c-0.035-0.421-0.053-0.846-0.158-1.258
				c-0.381-1.512-1.898-2.113-3.307-1.878c-1.521,0.254-2.219,1.768-2.291,3.136C187.82,358.831,189.283,360.155,190.781,360.155z"
				/>
			<path d="M278.804,259.975c35.248-19.954,10.339-74.094-26.837-68.231c-15.983,2.521-23.67,15.257-24.784,29.233
				c-2.684,8.783-2.385,18.223,2.672,26.655C239.835,264.273,262.178,269.387,278.804,259.975z M236.521,209.123
				c0.524-0.694,1.088-1.378,1.709-2.048c6.049-6.524,14.913-9.338,23.595-7.51c15.295,3.22,29.213,19.078,26.603,35.205
				c-3.206,19.813-27.464,28.373-43.816,18.685c-6.8-4.029-10.707-9.369-12.483-15.293c-0.588-4.038-1.036-8.093-0.96-12.049
				C231.789,220.371,233.748,214.533,236.521,209.123z"/>
			<path d="M249.157,234.387c2.85,0,5.411-2.962,4.435-5.823c-0.678-1.987-2.567-4.036-4.9-3.731
				c-1.507,0.198-2.712,0.871-3.366,2.185c0.013-0.038,0.003-0.022-0.064,0.132c-0.072,0.159-0.171,0.287-0.226,0.466
				c-0.032,0.104-0.036,0.133-0.027,0.129c-0.118,0.272-0.227,0.52-0.288,0.818C244.125,231.464,246.041,234.387,249.157,234.387z"
				/>
			<path d="M258.787,213.73l-0.008-0.025c0.063,0.484,0.092,0.708,0.096,0.737C258.87,214.205,258.836,214,258.787,213.73z"/>
			<path d="M253.04,217.453c1.287,0.699,2.76,0.812,4.053,0.055c1.051-0.615,1.789-1.79,1.787-3.02c0,0-0.002-0.014-0.002-0.021
				c-0.004-0.03-0.044-0.32-0.119-0.886c-0.296-1.145-1.021-1.873-1.965-2.549c-1.586-1.136-4.208-0.329-5.087,1.334
				C250.789,214.102,251.214,216.462,253.04,217.453z"/>
			<path d="M268.046,229.717c0.1,0.042,0.201,0.085,0.3,0.127c2.173,0.916,4.48-1.337,4.48-3.412c0-2.086-2.313-4.325-4.48-3.412
				c-0.1,0.042-0.2,0.084-0.3,0.127c-1.354,0.571-2.574,1.662-2.501,3.285C265.617,228.075,266.592,229.104,268.046,229.717z"/>
			<path d="M257.462,241.146c-0.022,0.017-0.03,0.023-0.049,0.038c-0.088,0.073-0.599,0.311-0.636,0.33
				c-3.054,1.535-1.677,6.807,1.774,6.55c2.564-0.191,4.342-1.774,4.573-4.368c0.232-2.605-3.052-4.197-5.12-2.938
				C257.809,240.867,257.628,240.996,257.462,241.146z"/>
			<path d="M270.704,238.92c-0.049,0.063-0.098,0.126-0.147,0.188c-0.75,0.96-1.107,2.04-0.61,3.221
				c0.45,1.071,1.513,1.813,2.695,1.813c1.016,0,2.034-0.584,2.546-1.46c0.729-1.246,0.36-2.523-0.461-3.573
				c-0.049-0.063-0.098-0.126-0.147-0.188C273.74,237.847,271.538,237.853,270.704,238.92z"/>
			<path d="M270.628,218.574c1.456,0,3.009-1.32,2.878-2.878c-0.035-0.421-0.053-0.846-0.158-1.258
				c-0.381-1.512-1.898-2.113-3.307-1.878c-1.521,0.254-2.219,1.768-2.291,3.136C267.669,217.25,269.132,218.574,270.628,218.574z"
				/>
			<path d="M351.947,311.182c-15.983,2.521-23.67,15.257-24.784,29.233c-2.684,8.783-2.385,18.223,2.672,26.655
				c9.98,16.642,32.323,21.755,48.949,12.344C414.031,359.459,389.123,305.32,351.947,311.182z M388.408,354.209
				c-3.206,19.813-27.464,28.373-43.816,18.685c-6.8-4.029-10.707-9.369-12.483-15.293c-0.588-4.038-1.036-8.093-0.96-12.049
				c0.619-5.742,2.579-11.58,5.352-16.99c0.524-0.694,1.088-1.378,1.709-2.048c6.049-6.524,14.913-9.338,23.595-7.51
				C377.099,322.224,391.017,338.082,388.408,354.209z"/>
			<path d="M348.671,344.272c-1.507,0.198-2.712,0.871-3.365,2.185c0.013-0.038,0.003-0.022-0.064,0.132
				c-0.072,0.159-0.171,0.287-0.226,0.466c-0.032,0.104-0.036,0.133-0.027,0.129c-0.118,0.272-0.227,0.52-0.289,0.818
				c-0.596,2.9,1.32,5.823,4.436,5.823c2.849,0,5.411-2.962,4.435-5.823C352.895,346.015,351.004,343.966,348.671,344.272z"/>
			<path d="M358.859,333.927c0-0.007-0.002-0.014-0.002-0.021c-0.001-0.003-0.003-0.021-0.004-0.03
				c-0.004-0.235-0.038-0.44-0.088-0.708l-0.007-0.025c0.059,0.456,0.088,0.675,0.093,0.723c-0.012-0.088-0.049-0.36-0.114-0.847
				c-0.296-1.146-1.021-1.873-1.965-2.549c-1.586-1.136-4.208-0.329-5.087,1.334c-0.917,1.736-0.491,4.096,1.334,5.087
				c1.287,0.699,2.76,0.812,4.053,0.055C358.123,336.332,358.861,335.157,358.859,333.927z"/>
			<path d="M372.804,345.87c0-2.086-2.313-4.325-4.48-3.412c-0.1,0.042-0.2,0.084-0.3,0.127c-1.354,0.571-2.574,1.662-2.501,3.285
				c0.073,1.643,1.047,2.672,2.501,3.285c0.1,0.042,0.201,0.085,0.3,0.127C370.498,350.198,372.804,347.945,372.804,345.87z"/>
			<path d="M357.983,360.196c-0.195,0.109-0.375,0.238-0.542,0.388c-0.022,0.017-0.029,0.023-0.049,0.038
				c-0.088,0.073-0.599,0.311-0.636,0.33c-3.054,1.535-1.677,6.807,1.774,6.55c2.564-0.191,4.342-1.774,4.573-4.368
				C363.335,360.529,360.051,358.938,357.983,360.196z"/>
			<path d="M374.559,358.359c-0.839-1.074-3.041-1.068-3.876,0c-0.049,0.063-0.098,0.126-0.147,0.188
				c-0.75,0.96-1.107,2.04-0.61,3.221c0.45,1.07,1.513,1.813,2.695,1.813c1.016,0,2.034-0.584,2.546-1.461
				c0.729-1.246,0.36-2.523-0.461-3.573C374.658,358.484,374.607,358.421,374.559,358.359z"/>
			<path d="M370.608,338.012c1.456,0,3.009-1.32,2.878-2.878c-0.035-0.421-0.053-0.846-0.158-1.258
				c-0.381-1.512-1.898-2.113-3.307-1.878c-1.521,0.254-2.219,1.768-2.291,3.136C367.648,336.688,369.111,338.012,370.608,338.012z"
				/>
			<path d="M359.324,175.429c35.248-19.954,10.339-74.094-26.837-68.231c-15.983,2.521-23.671,15.257-24.784,29.233
				c-2.684,8.783-2.385,18.223,2.672,26.655C320.355,179.727,342.698,184.841,359.324,175.429z M317.041,124.577
				c0.524-0.694,1.088-1.378,1.709-2.048c6.049-6.524,14.913-9.338,23.595-7.51c15.294,3.22,29.212,19.078,26.603,35.205
				c-3.206,19.813-27.464,28.373-43.816,18.685c-6.8-4.028-10.707-9.369-12.483-15.293c-0.588-4.038-1.036-8.093-0.96-12.049
				C312.309,135.825,314.268,129.987,317.041,124.577z"/>
			<path d="M329.677,149.841c2.849,0,5.411-2.962,4.435-5.823c-0.678-1.987-2.567-4.036-4.9-3.731
				c-1.507,0.198-2.712,0.871-3.365,2.185c0.013-0.038,0.003-0.022-0.064,0.132c-0.072,0.159-0.171,0.287-0.226,0.466
				c-0.032,0.104-0.036,0.132-0.027,0.129c-0.118,0.272-0.227,0.52-0.289,0.818C324.645,146.918,326.561,149.841,329.677,149.841z"
				/>
			<path d="M339.306,129.184l-0.007-0.025c0.063,0.484,0.092,0.708,0.096,0.737C339.39,129.659,339.356,129.454,339.306,129.184z"/>
			<path d="M333.56,132.907c1.287,0.699,2.76,0.812,4.053,0.055c1.051-0.615,1.789-1.79,1.787-3.02c0-0.007-0.003-0.014-0.003-0.021
				c-0.004-0.03-0.044-0.321-0.119-0.886c-0.296-1.146-1.021-1.873-1.965-2.549c-1.586-1.136-4.208-0.329-5.087,1.334
				C331.309,129.556,331.734,131.916,333.56,132.907z"/>
			<path d="M348.565,145.171c0.1,0.042,0.201,0.085,0.3,0.127c2.173,0.916,4.48-1.337,4.48-3.412c0-2.086-2.313-4.325-4.48-3.412
				c-0.1,0.042-0.2,0.084-0.3,0.127c-1.354,0.571-2.574,1.662-2.501,3.285C346.137,143.529,347.112,144.558,348.565,145.171z"/>
			<path d="M337.982,156.6c-0.022,0.017-0.029,0.023-0.049,0.038c-0.088,0.073-0.599,0.311-0.636,0.33
				c-3.054,1.535-1.677,6.807,1.774,6.55c2.564-0.191,4.342-1.774,4.573-4.368c0.232-2.605-3.052-4.197-5.12-2.938
				C338.329,156.321,338.148,156.45,337.982,156.6z"/>
			<path d="M351.224,154.374c-0.049,0.063-0.098,0.126-0.147,0.188c-0.75,0.96-1.107,2.04-0.61,3.221
				c0.45,1.07,1.513,1.813,2.695,1.813c1.016,0,2.034-0.584,2.546-1.46c0.729-1.246,0.36-2.523-0.461-3.573
				c-0.049-0.063-0.098-0.126-0.147-0.188C354.26,153.301,352.059,153.307,351.224,154.374z"/>
			<path d="M351.148,134.028c1.456,0,3.009-1.32,2.878-2.878c-0.035-0.421-0.054-0.847-0.158-1.258
				c-0.381-1.512-1.898-2.113-3.307-1.878c-1.521,0.254-2.219,1.768-2.291,3.136C348.189,132.703,349.652,134.028,351.148,134.028z"
				/>
			<path d="M378.742,177.52c-2.258,4.159-0.936,7.799,0.89,11.844c3.921,8.687,4.947,16.692,6.546,25.971
				c-0.15,6.787-1.304,13.566-3.515,20.204c-2.588,7.772-7.017,18.175-3.681,26.406c4.907,12.107,18.121,7.563,22.956-1.43
				c7.129-13.257,7.991-30.835,8.742-45.553c0.635-12.438,2.353-31.342-8.409-40.246
				C395.824,169.382,383.132,169.437,378.742,177.52z M404.165,198.109c0.628,13.757-0.413,28.102-3.002,41.612
				c-1.16,6.053-2.512,13.149-5.994,18.371c-5.424,8.132-10.611,1.382-9.642-6.523c0.97-7.916,4.586-15.236,5.742-23.102
				c1.359-9.246,0.392-18.367-1.975-27.196c-0.05-0.893-0.122-1.785-0.25-2.674c-0.904-6.284-8.978-17.277,0.189-20.658
				C400.488,173.786,403.81,190.337,404.165,198.109z"/>
			<path d="M112.241,280.295c2.272-4.151,0.962-7.796-0.85-11.847c-3.893-8.7-4.892-16.708-6.46-25.993
				c0.173-6.787,1.35-13.562,3.582-20.192c2.614-7.764,7.077-18.152,3.769-26.394c-4.867-12.123-18.095-7.623-22.961,1.353
				c-7.172,13.233-8.093,30.808-8.894,45.523c-0.676,12.436-2.457,31.334,8.275,40.273
				C95.132,288.376,107.826,288.363,112.241,280.295z M101.753,279.842c-11.27,4.114-14.537-12.448-14.866-20.221
				c-0.582-13.759,0.506-28.1,3.14-41.602c1.18-6.049,2.556-13.141,6.056-18.35c5.451-8.114,10.615-1.347,9.621,6.555
				c-0.996,7.912-4.636,15.22-5.819,23.083c-1.39,9.241-0.453,18.366,1.884,27.203c0.047,0.893,0.117,1.786,0.241,2.675
				C102.894,265.472,110.931,276.492,101.753,279.842z"/>
			<path d="M172.954,130.841c4.731-0.119,7.225-3.081,9.819-6.683c5.57-7.734,11.995-12.619,19.237-18.635
				c5.956-3.257,12.406-5.641,19.262-7.039c8.027-1.637,19.252-2.992,24.719-9.991c8.041-10.295-2.491-19.477-12.697-19.178
				c-15.046,0.44-30.708,8.467-43.836,15.162c-11.095,5.658-28.333,13.605-30.677,27.375
				C157.377,120.101,163.76,131.073,172.954,130.841z M178.106,98.535c11.607-7.411,24.557-13.669,37.556-18.169
				c5.824-2.016,12.648-4.387,18.91-3.975c9.754,0.641,6.494,8.505-0.839,11.611c-7.343,3.111-15.491,3.631-22.885,6.555
				c-8.69,3.437-16.111,8.828-22.58,15.286c-0.749,0.489-1.486,0.997-2.192,1.551c-4.994,3.92-10.49,16.404-17.995,10.148
				C158.865,113.861,171.549,102.721,178.106,98.535z"/>
			<path d="M317.735,390.128c-4.651-0.871-7.709,1.506-10.997,4.486c-7.061,6.401-14.364,9.838-22.703,14.21
				c-6.505,1.943-13.311,2.928-20.306,2.864c-8.191-0.074-19.452-1.092-26.259,4.612c-10.013,8.39-1.628,19.568,8.415,21.406
				c14.806,2.71,31.799-1.871,46.035-5.679c12.031-3.218,30.548-7.392,35.715-20.369
				C330.729,403.883,326.776,391.821,317.735,390.128z M305.955,420.648c-12.899,4.825-26.869,8.243-40.521,9.93
				c-6.117,0.756-13.285,1.65-19.324-0.059c-9.405-2.663-4.576-9.673,3.245-11.18c7.831-1.51,15.908-0.318,23.749-1.635
				c9.216-1.548,17.599-5.271,25.274-10.236c0.835-0.322,1.661-0.665,2.468-1.06c5.702-2.792,13.682-13.853,19.716-6.169
				C327.97,409.675,313.241,417.922,305.955,420.648z"/>
			<path d="M271.097,302.482c12.42,0.931,31.277,3.098,40.434-7.449c5.487-6.32,5.733-19.011-2.242-23.59
				c-4.104-2.357-7.774-1.121-11.862,0.608c-8.777,3.714-16.805,4.549-26.119,5.927c-6.782-0.312-13.531-1.627-20.115-3.995
				c-7.708-2.772-18.003-7.447-26.311-4.308c-12.22,4.618-7.992,17.935,0.883,22.983C238.849,300.1,256.402,301.38,271.097,302.482z
				 M235.101,276.463c7.89,1.158,15.122,4.947,22.959,6.29c9.211,1.579,18.352,0.829,27.236-1.327
				c0.894-0.029,1.787-0.08,2.679-0.187c6.304-0.754,17.487-8.565,20.648,0.68c3.883,11.351-12.743,14.279-20.521,14.449
				c-13.768,0.3-28.084-1.081-41.529-3.991c-6.023-1.304-13.085-2.824-18.222-6.43C220.349,280.331,227.221,275.307,235.101,276.463
				z"/>
			<path d="M232.888,172.201c-0.885-5.637-5.736-10.312-11.347-11.211c-6.463-1.035-11.801,3.63-12.356,9.8
				c-0.617,2.361-0.546,4.919,0.45,7.572c2.04,5.437,7.518,10.218,13.638,9.006C229.802,186.075,233.878,178.502,232.888,172.201z
				 M226.198,177.129c-2.149,4.696-6.486,5.491-10.145,1.85c-3.085-3.071-3.496-7.026-1.972-10.452
				c1.785-2.027,4.122-3.113,7.469-1.859C225.894,168.295,228.169,172.822,226.198,177.129z"/>
			<path d="M116.865,305.927c-6.463-1.035-11.801,3.63-12.356,9.8c-0.617,2.361-0.546,4.919,0.45,7.572
				c2.04,5.437,7.518,10.218,13.638,9.006c6.529-1.294,10.605-8.866,9.615-15.167C127.327,311.5,122.476,306.825,116.865,305.927z
				 M121.522,322.065c-2.149,4.696-6.486,5.491-10.145,1.85c-3.085-3.071-3.496-7.026-1.972-10.452
				c1.785-2.027,4.122-3.113,7.469-1.86C121.218,313.231,123.493,317.758,121.522,322.065z"/>
			<path d="M208.96,302.404c-6.463-1.035-11.801,3.63-12.356,9.8c-0.617,2.361-0.546,4.919,0.45,7.572
				c2.04,5.437,7.518,10.218,13.638,9.006c6.529-1.294,10.605-8.866,9.615-15.167C219.422,307.978,214.57,303.303,208.96,302.404z
				 M213.617,318.543c-2.149,4.696-6.486,5.491-10.145,1.85c-3.085-3.071-3.496-7.026-1.972-10.452
				c1.785-2.027,4.122-3.113,7.469-1.859C213.313,309.709,215.588,314.235,213.617,318.543z"/>
			<path d="M364.686,299.593c6.529-1.294,10.605-8.866,9.615-15.167c-0.885-5.637-5.736-10.312-11.347-11.211
				c-6.463-1.035-11.801,3.63-12.356,9.8c-0.617,2.361-0.546,4.919,0.45,7.572C353.088,296.024,358.566,300.806,364.686,299.593z
				 M355.495,280.753c1.785-2.027,4.122-3.113,7.469-1.859c4.343,1.627,6.618,6.153,4.647,10.461
				c-2.149,4.696-6.486,5.491-10.145,1.85C354.382,288.134,353.97,284.178,355.495,280.753z"/>
			<path d="M398.408,296.604c-0.617,2.361-0.546,4.919,0.45,7.572c2.039,5.437,7.518,10.218,13.638,9.006
				c6.529-1.294,10.605-8.866,9.615-15.167c-0.885-5.637-5.736-10.312-11.347-11.211C404.3,285.768,398.962,290.433,398.408,296.604
				z M415.421,302.942c-2.149,4.696-6.486,5.491-10.145,1.85c-3.085-3.071-3.496-7.026-1.972-10.452
				c1.785-2.027,4.122-3.113,7.469-1.859C415.116,294.108,417.391,298.634,415.421,302.942z"/>
			<path d="M294.734,97.79c6.529-1.294,10.605-8.866,9.615-15.167c-0.885-5.637-5.736-10.312-11.347-11.211
				c-6.463-1.035-11.801,3.63-12.356,9.8c-0.617,2.361-0.546,4.919,0.45,7.572C283.136,94.221,288.614,99.003,294.734,97.79z
				 M285.543,78.949c1.785-2.027,4.122-3.113,7.469-1.859c4.344,1.627,6.618,6.153,4.647,10.461
				c-2.149,4.696-6.486,5.491-10.145,1.85C284.429,86.331,284.02,82.375,285.543,78.949z"/>
			<path d="M302.84,178.24c-0.885-5.637-5.736-10.312-11.347-11.211c-6.463-1.035-11.801,3.63-12.356,9.8
				c-0.617,2.361-0.546,4.919,0.45,7.572c2.04,5.437,7.518,10.218,13.638,9.006C299.753,192.114,303.83,184.541,302.84,178.24z
				 M296.15,183.168c-2.149,4.696-6.486,5.491-10.145,1.85c-3.085-3.071-3.496-7.026-1.972-10.452
				c1.785-2.027,4.122-3.113,7.469-1.859C295.846,174.334,298.121,178.861,296.15,183.168z"/>
			<path d="M128.943,210.813c-6.463-1.035-11.801,3.63-12.356,9.8c-0.617,2.361-0.546,4.919,0.45,7.572
				c2.04,5.437,7.518,10.218,13.638,9.006c6.529-1.294,10.605-8.866,9.615-15.167C139.406,216.386,134.554,211.711,128.943,210.813z
				 M133.601,226.951c-2.149,4.696-6.486,5.491-10.145,1.85c-3.085-3.071-3.496-7.026-1.972-10.452
				c1.785-2.027,4.122-3.113,7.469-1.859C133.296,218.117,135.571,222.643,133.601,226.951z"/>
			<path d="M238.873,401.25c6.529-1.294,10.605-8.866,9.615-15.167c-0.885-5.637-5.736-10.312-11.347-11.211
				c-6.463-1.035-11.801,3.63-12.356,9.8c-0.617,2.361-0.546,4.919,0.45,7.572C227.275,397.681,232.753,402.462,238.873,401.25z
				 M231.654,392.861c-3.085-3.071-3.496-7.026-1.972-10.452c1.785-2.027,4.122-3.113,7.469-1.859
				c4.344,1.627,6.618,6.153,4.647,10.461C239.649,395.707,235.312,396.501,231.654,392.861z"/>
		</g>
	</g>
</g>
<g>
</g>
<g>
</g>
<g>
</g>
<g>
</g>
<g>
</g>
<g>
</g>
<g>
</g>
<g>
</g>
<g>
</g>
<g>
</g>
<g>
</g>
<g>
</g>
<g>
</g>
<g>
</g>
<g>
</g>
</svg>
