<?xml version="1.0" encoding="iso-8859-1"?>
<!-- Generator: Adobe Illustrator 19.0.0, SVG Export Plug-In . SVG Version: 6.00 Build 0)  -->
<svg version="1.1" id="Capa_1" xmlns="http://www.w3.org/2000/svg" xmlns:xlink="http://www.w3.org/1999/xlink" x="0px" y="0px"
	 viewBox="0 0 511.999 511.999" style="enable-background:new 0 0 511.999 511.999;" xml:space="preserve">
<g>
	<g>
		<path d="M460.643,83.544c-10.042-23.53-26.557-39.614-41.081-40.022c-2.842-0.086-5.578,0.421-8.097,1.499
			c-3.606,1.539-6.599,4.13-8.886,7.695c-7.514,11.676-6.456,33.057,2.693,54.468c10.414,24.394,27.252,40.019,41.765,40.018
			c2.549,0,5.028-0.483,7.388-1.485c0.146-0.062,0.294-0.129,0.438-0.198c3.951-1.8,9.142-5.859,11.797-14.998
			C470.22,118.254,467.97,100.692,460.643,83.544z M452.254,126.339c-0.489,1.684-1.612,4.644-3.639,5.543
			c-0.044,0.019-0.094,0.042-0.144,0.065c-5.596,2.199-20.077-8.805-29.405-30.655c-7.835-18.337-7.88-34.234-3.869-40.467
			c0.648-1.009,1.353-1.666,2.161-2.011c0.472-0.202,0.992-0.301,1.597-0.301c0.057,0,0.114,0,0.172,0.002
			c7.071,0.2,19.679,12.077,27.721,30.92C452.678,103.081,454.799,117.567,452.254,126.339z"/>
	</g>
</g>
<g>
	<g>
		<g>
			<path d="M481.04,74.839C494.909,107.299,474.588,59.723,481.04,74.839L481.04,74.839z"/>
			<path d="M481.04,74.839c-6.451-15.116-14.7-29.314-23.856-41.06c-2.546-3.268-7.258-3.85-10.526-1.304
				c-3.267,2.546-3.851,7.259-1.304,10.526c8.371,10.739,15.94,23.784,21.892,37.729c12.365,28.939,16.584,58.85,11.011,78.057
				c-1.619,5.574-4.893,12.815-11.29,15.654c-0.096,0.042-0.19,0.087-0.284,0.133l-0.011,0.005
				c-16.249,6.783-48.119-18.012-67.998-64.576c-14.824-34.696-17.743-70.484-7.093-87.037c2.078-3.237,4.625-5.516,7.578-6.776
				c2-0.855,4.223-1.25,6.607-1.182c5.26,0.147,11.471,2.544,17.962,6.93c3.435,2.32,8.096,1.417,10.414-2.016
				c2.318-3.433,1.416-8.094-2.016-10.413c-8.983-6.069-17.71-9.264-25.926-9.495c-4.566-0.131-8.925,0.666-12.936,2.382
				c-2.958,1.262-5.661,2.989-8.101,5.149c-0.587,0.458-1.107,1.009-1.627,1.54L278.154,114.468c-2.929,2.929-2.929,7.678,0,10.606
				c1.465,1.464,3.385,2.197,5.304,2.197c1.919,0,3.839-0.732,5.304-2.197l81.883-81.883c-1.604,20.864,3.246,46.987,14.234,72.703
				c10.244,23.997,24.446,44.735,39.99,58.395c9.551,8.394,19.088,13.632,28.062,15.582L278.8,364.001
				c-15.289,15.29-35.618,23.71-57.241,23.71c-21.623,0-41.951-8.42-57.241-23.71s-23.711-35.619-23.711-57.242
				c0-21.623,8.421-41.952,23.711-57.242l99.596-99.595c2.929-2.929,2.929-7.678,0-10.606c-2.93-2.929-7.678-2.929-10.607,0
				l-99.596,99.595c-18.123,18.123-28.104,42.218-28.104,67.848c0,16.774,4.276,32.889,12.311,47.104l-32.932,32.932
				c-4.88,4.879-7.567,11.367-7.567,18.269c0,4.323,1.055,8.482,3.041,12.187l-81.945,81.945c-2.929,2.929-2.929,7.678,0,10.606
				c1.465,1.464,3.385,2.197,5.304,2.197c1.92,0,3.839-0.732,5.304-2.197l81.945-81.946c3.697,1.981,7.848,3.032,12.161,3.032
				c6.235,0,12.252-2.244,16.939-6.319c3.127-2.718,3.458-7.455,0.74-10.581c-2.717-3.126-7.455-3.456-10.58-0.74
				c-1.959,1.703-4.48,2.641-7.1,2.641c-2.883,0-5.594-1.123-7.635-3.161c-0.001-0.001-0.001-0.001-0.001-0.001
				c-0.002-0.002-0.003-0.002-0.004-0.003c-2.045-2.046-3.171-4.765-3.171-7.659c0-2.895,1.127-5.615,3.174-7.662l30.887-30.886
				c2.244,2.808,4.652,5.512,7.231,8.091c2.579,2.579,5.283,4.987,8.092,7.231l-8.827,8.827c-2.929,2.929-2.929,7.678,0.001,10.606
				c1.464,1.465,3.384,2.197,5.303,2.197s3.839-0.732,5.304-2.197l10.872-10.872c14.216,8.035,30.332,12.311,47.105,12.311
				c25.63,0,49.726-9.981,67.849-28.104l192.034-192.034c0.104-0.104,0.196-0.215,0.292-0.323
				c4.862-4.691,8.578-11.197,10.927-19.282C499.254,140.246,494.909,107.299,481.04,74.839z"/>
		</g>
	</g>
</g>
<g>
	<g>
		<path d="M374.969,159.091c-10.846-10.846-28.495-10.846-39.343,0c-5.254,5.254-8.148,12.241-8.148,19.671
			c0,7.431,2.895,14.417,8.149,19.671c2.421,2.421,3.754,5.641,3.754,9.065s-1.333,6.644-3.754,9.065
			c-4.999,4.997-13.131,4.998-18.13,0c-5.254-5.255-12.24-8.149-19.672-8.149c-7.431,0-14.417,2.894-19.672,8.148
			c-10.846,10.847-10.846,28.496,0,39.342c4.999,4.999,4.999,13.131,0,18.13c-2.421,2.423-5.64,3.756-9.065,3.756
			c-3.424,0-6.643-1.333-9.064-3.754c-10.846-10.847-28.496-10.847-39.342,0c-5.255,5.254-8.149,12.24-8.149,19.671
			c0,7.431,2.895,14.417,8.149,19.671c2.421,2.421,3.754,5.641,3.754,9.064c0,3.424-1.333,6.644-3.755,9.065
			c-2.421,2.421-5.641,3.755-9.064,3.755s-6.644-1.333-9.064-3.755c-2.93-2.929-7.678-2.929-10.607,0
			c-2.929,2.929-2.929,7.678,0,10.606c5.255,5.255,12.241,8.148,19.672,8.148c7.431,0,14.417-2.894,19.671-8.148
			c5.255-5.254,8.148-12.24,8.148-19.671c0-7.431-2.894-14.417-8.147-19.671c-2.422-2.421-3.756-5.641-3.756-9.065
			s1.334-6.644,3.755-9.065c4.999-4.998,13.133-4.998,18.13,0c5.254,5.254,12.24,8.148,19.671,8.148
			c7.432,0,14.418-2.894,19.672-8.148c10.847-10.847,10.847-28.496,0-39.343c-4.998-4.998-4.998-13.131,0-18.129
			c2.421-2.421,5.641-3.755,9.064-3.755c3.425,0,6.644,1.333,9.065,3.755c10.846,10.847,28.495,10.847,39.343,0
			c5.254-5.254,8.147-12.241,8.147-19.671c0-7.431-2.894-14.417-8.148-19.672c-2.421-2.421-3.755-5.64-3.755-9.064
			s1.334-6.644,3.755-9.064c5-4.999,13.131-4.999,18.131,0c2.927,2.928,7.676,2.929,10.606,0
			C377.899,166.769,377.899,162.02,374.969,159.091z"/>
	</g>
</g>
<g>
</g>
<g>
</g>
<g>
</g>
<g>
</g>
<g>
</g>
<g>
</g>
<g>
</g>
<g>
</g>
<g>
</g>
<g>
</g>
<g>
</g>
<g>
</g>
<g>
</g>
<g>
</g>
<g>
</g>
</svg>
