<?xml version="1.0" encoding="iso-8859-1"?>
<!-- Generator: Adobe Illustrator 19.0.0, SVG Export Plug-In . SVG Version: 6.00 Build 0)  -->
<svg version="1.1" id="Capa_1" xmlns="http://www.w3.org/2000/svg" xmlns:xlink="http://www.w3.org/1999/xlink" x="0px" y="0px"
	 viewBox="0 0 512 512" style="enable-background:new 0 0 512 512;" xml:space="preserve">
<g>
	<g>
		<path d="M509.562,12.967c2.968-2.968,2.968-7.778,0-10.746c-2.968-2.968-7.778-2.957-10.736,0.01l-15.101,15.111
			C466.881,3.456,446.503,0.62,431.635,0.904c-20.298,0.361-56.957,8.217-58.399,28.724c-0.886,12.424,10.996,21.13,12.914,23.366
			c3.666,3.616,7.515,5.368,11.485,5.165c10.306-0.491,14.012-13.083,19.963-14.818c2.35-0.699,5.459,0.395,8.427,2.026
			c-11.841,9.684-33.438,21.272-34.679,36.674c-0.842,10.673,8.144,15.973,9.612,18.13l-13.207,13.217
			c-17.938-21.29-22.329-42.724-25.898-49.274c-3.996-8.825-15.965-10.067-23.72-2.289l-13.643,13.633
			c-4.459,4.474-6.495,11.076-4.213,16.874c6.243,13.656,10.976,35.474,30.547,58.004l-17.512,17.522
			c-15.933-15.933-30.211-30.213-46.651-46.651c-5.661-5.661-14.855-5.182-19.932,0.76c-27.705,32.493-27.807,80.314-0.436,112.96
			l-12.843,12.853c-45.192-45.192-43.737-44.571-48.666-46.721c0,0,0,0-0.01,0c-5.754-2.664-13.082-2.364-19.385,1.681
			c-3.029,2.039-2.358,1.993-25.3,24.753c-7.9,7.89-7.9,20.743,0,28.643c5.259,5.259,38.417,38.417,42.518,42.518l-19.061,19.071
			l-31.023-31.023v-0.01c-0.691-0.442-14.32-18.365-35.874-10.473c-10.224,3.656-13.652,10.241-25.564,21.33
			c-5.917,5.918-9.308,13.816-9.166,23.143c0.01,0.03,0.01,0.061,0,0.091c0.429,8.588,3.747,15.677,9.176,21.107l34.163,34.163
			l-33.433,33.464c-4.487-3.423-9.429-6.148-14.777-8.123c-3.94-1.458-8.305,0.557-9.764,4.487c-1.448,3.94,0.557,8.305,4.497,9.764
			c15.61,5.751,27.296,20.938,27.296,39.237c0,33.702-37.992,53.528-65.56,34.477C3.76,468.745,12.552,423.464,46.479,414.45
			c4.051-1.074,6.472-5.236,5.398-9.288c-1.074-4.051-5.236-6.462-9.288-5.398c-42.432,11.228-56.701,64.412-25.665,95.448
			c36.115,36.116,97.342,9.943,97.342-40.331c0-12.68-4.112-24.733-11.708-34.618l33.443-33.464l13.734,13.734
			c2.968,2.968,7.778,2.968,10.736,0c2.968-2.968,2.968-7.779,0-10.746c-5.137-5.137-44.592-44.592-49.608-49.608
			c15.903-6.895,29.926-20.839,36.917-36.735l25.027,25.027c0.117,0.116,5.724,5.724,5.368,5.368l39.632,39.632
			c6.376,6.376,6.244,16.627,0,22.849l-13.977,13.977c-6.115,6.136-15.837,6.279-22.161,0.648c-3.13-2.785-7.93-2.512-10.716,0.618
			c-2.795,3.13-2.522,7.93,0.608,10.726c12.164,10.833,31.033,10.737,43.015-1.246l13.977-13.977
			c12.216-12.216,12.271-32.081,0-44.331l-34.264-34.264l19.051-19.071l42.65,42.65c7.937,7.917,20.793,7.859,28.643-0.01
			l22.211-22.201c7.946-7.947,7.917-20.746,0.01-28.653l-42.67-42.67l12.832-12.843c32.579,27.481,80.539,27.52,113.142-0.273
			c5.977-5.107,6.385-14.307,0.76-19.932l-11.982-11.982l-34.882-34.892l17.431-17.441c19.426,17.37,37.751,23.663,58.582,30.962
			c5.64,2.023,12.093,0.029,16.479-4.355l13.521-13.531c8.15-8.125,6.29-20.692-3.282-24.115
			c-9.752-3.507-11.511-4.107-13.795-4.983c-3.92-1.499-8.315,0.456-9.814,4.375s0.456,8.305,4.375,9.804
			c2.755,1.061,3.087,1.137,11.708,4.244c-13.69,13.553-13.442,13.698-14.352,14.088c-9.274-4.079-59.994-13.745-82.251-70.006
			l-8.082-20.449c0.266-0.732,14.311-14.65,14.412-14.726c5.011,12.593,14.707,46.916,50.135,71.819
			c3.433,2.411,8.173,1.59,10.584-1.843c2.421-3.433,1.59-8.174-1.833-10.584c-3.454-2.431-6.624-4.963-9.551-7.566l13.369-13.379
			c2.258,1.549,7.662,10.712,18.393,9.865c15.397-1.227,27.05-22.923,36.664-34.679c4.339,7.848,2.224,10.126-4.092,15.314
			c-3.747,3.089-8.396,6.918-8.7,13.076c-0.296,6.395,4.429,10.407,5.388,11.749c8.45,9.866,19.755,16.76,30.942,10.26
			c19.113-11.104,33.61-73.264,4.203-108.443L509.562,12.967z M99.489,328.178c-3.007-4.829-3.294-11.436-0.152-16.671
			c1.701-2.942,2.856-3.346,16.469-17.188c6.106-6.106,15.134-5.673,20.034-2.238C130.969,308.312,115.747,323.471,99.489,328.178z
			 M170.822,245.399c-1.952-1.953-1.981-5.19,0-7.171c27.554-27.408,24.238-27.111,32.896-18.697
			c-0.598,15.801-12.397,28.724-27.853,30.901L170.822,245.399z M297.597,315.507c0,3.66-1.483,2.876-23.7,25.797
			c-1.975,1.965-5.196,1.965-7.171-0.01c-0.08-0.08-0.104-0.104-0.102-0.102c-0.959-0.959-10.019-10.019-78.351-78.351
			c13.612-5.165,24.146-16.337,28.491-30.263l36.684,36.684C297.37,313.919,297.597,311.647,297.597,315.507z M378.938,234.977
			c-28.491,23.086-70.647,21.006-96.785-5.186c-25.95-26.095-28.096-68.102-5.003-96.603l11.333,11.333
			c-27.197,37.055-0.99,90.091,46.134,90.091c11.748,0.001,23.233-3.736,32.998-10.959L378.938,234.977z M356.705,212.746
			c-19.585,12.796-44.789,5.993-56.779-11.485c-9.151-13.303-9.739-31.6-0.527-45.82C312.04,168.08,345.426,201.466,356.705,212.746
			z M481.374,123.791c-4.157,0.25-10.082-7.134-11.506-8.558c5.761-5.36,25.223-16.607,6.198-42.68
			c-3.45-4.722-8.151-4.298-8.254-4.325c-7.13,0.02-12.103,6.887-19.618,17.299c-4.973,6.877-14.24,19.699-19.325,20.105
			c-0.243,0.02-0.901,0.071-2.198-1.226c-20.932-20.932-20.266-20.037-20.175-21.158c0.405-5.074,13.217-14.342,20.104-19.325
			c10.402-7.515,17.269-12.478,17.289-19.618c0.01-3.231-1.57-6.239-4.325-8.244c-23.416-17.096-35.013-3.018-40.584,3.747
			c-0.608,0.739-1.408,1.712-2.086,2.451c-1.117-1.117-8.827-7.353-8.508-11.556c0.627-9.013,64.157-31.714,95.307,8.153
			C508.317,70.049,489.907,123.196,481.374,123.791z"/>
	</g>
</g>
<g>
</g>
<g>
</g>
<g>
</g>
<g>
</g>
<g>
</g>
<g>
</g>
<g>
</g>
<g>
</g>
<g>
</g>
<g>
</g>
<g>
</g>
<g>
</g>
<g>
</g>
<g>
</g>
<g>
</g>
</svg>
