<?xml version="1.0" encoding="iso-8859-1"?>
<!-- Generator: Adobe Illustrator 19.0.0, SVG Export Plug-In . SVG Version: 6.00 Build 0)  -->
<svg version="1.1" id="Capa_1" xmlns="http://www.w3.org/2000/svg" xmlns:xlink="http://www.w3.org/1999/xlink" x="0px" y="0px"
	 viewBox="0 0 512.002 512.002" style="enable-background:new 0 0 512.002 512.002;" xml:space="preserve">
<g>
	<g>
		<path d="M436.993,75.047c-48.345-48.345-112.622-74.97-180.992-74.97c-59.431,0-117.011,20.702-162.734,58.391L42.02,7.221
			c-5.117-5.122-12.189-7.728-19.422-7.139C15.377,0.668,8.79,4.41,4.522,10.35c-6.923,9.637-5.492,23.557,3.33,32.378
			l50.577,50.577C20.732,139.038,0.039,196.574,0.039,256.04c0,68.37,26.625,132.647,74.97,180.992
			c48.345,48.345,112.622,74.97,180.992,74.97s132.647-26.625,180.992-74.97c48.345-48.345,74.97-112.622,74.97-180.992
			S485.338,123.392,436.993,75.047z M18.459,32.121c-3.625-3.624-4.395-9.344-1.754-13.02c1.718-2.391,4.241-3.836,7.105-4.068
			c2.829-0.235,5.598,0.787,7.6,2.792l99.892,99.892c17.916,17.916,41.489,29.379,68.59,33.501
			c-20.669,11.073-37.654,28.044-48.717,48.684c-4.126-27.089-15.587-50.652-33.497-68.561L18.459,32.121z M426.386,426.425
			C380.874,471.937,320.364,497.001,256,497.001s-124.874-25.064-170.386-70.576c-45.512-45.512-70.575-106.023-70.575-170.386
			c0-55.497,19.152-109.202,54.055-152.07l25.886,25.886c-59.622,75.872-58.051,183.463,4.383,257.678
			c1.483,1.764,3.606,2.672,5.743,2.672c1.704,0,3.418-0.578,4.824-1.761c3.17-2.667,3.578-7.398,0.911-10.567
			c-57.461-68.303-59.277-167.11-5.166-237.326l1.396,1.396c17.437,17.437,27.919,41.194,30.313,68.703
			c0.186,2.142,0.476,4.313,0.861,6.453c0.587,3.262,1.438,6.513,2.524,9.667c-0.445,1.76-0.866,3.53-1.232,5.32
			c-0.831,4.058,1.786,8.021,5.844,8.851c0.507,0.104,1.013,0.154,1.511,0.154c3.488,0,6.613-2.447,7.34-5.998
			c8.172-39.936,39.158-71.503,78.94-80.421c4.042-0.906,6.584-4.917,5.678-8.959s-4.921-6.584-8.959-5.678
			c-1.067,0.239-2.122,0.507-3.177,0.774c-3.154-1.084-6.387-1.941-9.649-2.528c-2.14-0.385-4.312-0.675-6.453-0.861
			c-27.509-2.394-51.266-12.875-68.703-30.312l-1.396-1.396c70.216-54.111,169.023-52.295,237.326,5.166
			c1.406,1.183,3.12,1.761,4.824,1.761c2.137,0,4.26-0.909,5.743-2.672c2.667-3.169,2.259-7.901-0.911-10.567
			C313.28,36.969,205.69,35.398,129.817,95.021l-25.89-25.89c42.859-34.897,96.608-54.051,152.074-54.051
			c64.363,0,124.874,25.064,170.386,70.576c45.512,45.512,70.576,106.022,70.576,170.386S471.898,380.913,426.386,426.425z"/>
	</g>
</g>
<g>
	<g>
		<path d="M412.638,124.545c-2.667-3.17-7.397-3.578-10.567-0.911c-3.17,2.667-3.578,7.398-0.911,10.567
			c30.423,36.164,46.126,82.182,44.217,129.58c-1.921,47.677-21.574,92.529-55.339,126.294s-78.617,53.418-126.294,55.339
			c-47.392,1.91-93.416-13.793-129.58-44.216c-3.169-2.666-7.9-2.258-10.567,0.911c-2.667,3.169-2.259,7.901,0.911,10.567
			c36.908,31.049,83.319,47.894,131.501,47.894c2.774,0,5.554-0.056,8.339-0.168c51.454-2.073,99.859-23.282,136.297-59.72
			s57.647-84.843,59.721-136.297C462.425,213.241,445.476,163.578,412.638,124.545z"/>
	</g>
</g>
<g>
	<g>
		<path d="M361.754,322.999c-3.069-3.473-7.48-5.466-12.102-5.466h-59.381c-8.859,0-16.067,7.208-16.067,16.067v59.381
			c0,4.622,1.993,9.032,5.467,12.101c2.955,2.609,6.74,4.029,10.62,4.029c0.653,0,1.309-0.041,1.963-0.122
			c38.436-4.785,68.622-34.971,73.407-73.407C366.227,331.038,364.803,326.451,361.754,322.999z M290.4,394.105
			c-0.293,0.036-0.561-0.053-0.8-0.265c-0.181-0.16-0.397-0.438-0.397-0.858v-59.381c0-0.588,0.479-1.067,1.067-1.067h59.381
			c0.42,0,0.699,0.216,0.858,0.397c0.212,0.24,0.301,0.509,0.265,0.799C346.84,365.342,322.013,390.169,290.4,394.105z"/>
	</g>
</g>
<g>
	<g>
		<path d="M414.983,239.019c-16.549-21.499-45.497-28.99-70.398-18.219c-3.47,1.501-6.135,4.434-7.312,8.044
			c-1.184,3.63-0.754,7.594,1.179,10.877l20.225,34.348c1.796,3.051,4.672,5.219,8.099,6.106c1.107,0.286,2.229,0.428,3.342,0.428
			c2.335,0,4.637-0.622,6.701-1.838l34.349-20.225c3.282-1.933,5.581-5.191,6.307-8.939
			C418.197,245.872,417.289,242.016,414.983,239.019z M370.715,264.952l-18.333-31.134c17.542-6.68,37.368-1.549,49.466,12.802
			L370.715,264.952z"/>
	</g>
</g>
<g>
	<g>
		<path d="M261.062,377.825c-12.899-16.759-35.463-22.598-54.874-14.202c-3.091,1.338-5.465,3.949-6.514,7.164
			c-1.053,3.229-0.67,6.756,1.05,9.678l15.118,25.677c2.197,3.73,6.142,5.808,10.187,5.808c2.033,0,4.092-0.525,5.967-1.629
			l25.675-15.118c2.921-1.72,4.967-4.619,5.612-7.954C263.926,383.93,263.116,380.495,261.062,377.825z M227.143,395.771
			l-11.562-19.636c11.085-3.327,23.118-0.214,31.198,8.074L227.143,395.771z"/>
	</g>
</g>
<g>
	<g>
		<path d="M310.343,231.208l14.886-34.14c3.541-8.122-0.186-17.609-8.307-21.15l-34.14-14.885c-3.933-1.717-8.3-1.797-12.295-0.228
			c-3.995,1.569-7.14,4.599-8.855,8.534l-14.886,34.14c-3.541,8.122,0.186,17.609,8.307,21.15l18.001,7.849
			c-14.126,3.816-24.553,16.737-24.553,32.053c0,18.308,14.895,33.203,33.203,33.203s33.203-14.895,33.203-33.203
			c0-10.218-4.643-19.37-11.926-25.465C306.265,237.379,308.848,234.638,310.343,231.208z M281.704,282.733
			c-10.037,0-18.203-8.166-18.203-18.203c0-10.037,8.166-18.203,18.203-18.203c10.037,0,18.203,8.166,18.203,18.203
			C299.907,274.567,291.741,282.733,281.704,282.733z M296.593,225.213c-0.146,0.335-0.4,0.493-0.588,0.567
			c-0.188,0.074-0.481,0.13-0.816-0.015l-34.14-14.886c-0.335-0.146-0.493-0.4-0.567-0.588c-0.074-0.188-0.131-0.482,0.015-0.817
			l14.885-34.14c0.146-0.335,0.401-0.494,0.589-0.568c0.103-0.04,0.236-0.075,0.392-0.075c0.129,0,0.273,0.024,0.425,0.091
			l34.14,14.886c0.539,0.235,0.786,0.865,0.551,1.405L296.593,225.213z"/>
	</g>
</g>
<g>
	<g>
		<path d="M264.568,94.246c-13.584,0-24.636,11.051-24.636,24.635s11.052,24.635,24.636,24.635s24.635-11.051,24.635-24.635
			C289.203,105.297,278.152,94.246,264.568,94.246z M264.568,128.515c-5.313,0-9.636-4.322-9.636-9.635s4.323-9.635,9.636-9.635
			s9.635,4.322,9.635,9.635S269.881,128.515,264.568,128.515z"/>
	</g>
</g>
<g>
	<g>
		<path d="M231.72,327.959l-5.63-42.466c-0.564-4.254-2.751-8.035-6.159-10.645c-3.407-2.61-7.626-3.736-11.881-3.172l-42.467,5.63
			c-2.644,0.351-5.048,1.338-7.093,2.775c-3.876-8.532-12.472-14.482-22.437-14.482c-13.584,0-24.635,11.051-24.635,24.635
			c0,13.584,11.051,24.635,24.635,24.635c6.762,0,12.896-2.74,17.352-7.167l3.992,30.11c1.069,8.069,7.988,13.957,15.917,13.957
			c0.701,0,1.409-0.046,2.123-0.14l42.467-5.63C226.687,344.834,232.885,336.741,231.72,327.959z M136.053,299.868
			c-5.313,0-9.635-4.322-9.635-9.635s4.322-9.635,9.635-9.635s9.635,4.322,9.635,9.635
			C145.688,295.546,141.366,299.868,136.053,299.868z M215.931,331.13l-42.466,5.63c-0.581,0.077-1.122-0.334-1.199-0.918
			l-5.63-42.467c-0.048-0.363,0.089-0.63,0.211-0.79c0.123-0.16,0.345-0.361,0.708-0.409l42.466-5.63
			c0.051-0.007,0.1-0.01,0.147-0.01c0.288,0,0.504,0.115,0.642,0.221c0.16,0.123,0.361,0.345,0.409,0.708l5.63,42.467
			C216.927,330.515,216.515,331.053,215.931,331.13z"/>
	</g>
</g>
<g>
	<g>
		<path d="M217.322,241.155L191.62,224.02c-3.446-2.298-8.103-1.367-10.4,2.08c-2.299,3.446-1.367,8.103,2.079,10.4l25.703,17.135
			c1.279,0.853,2.724,1.261,4.153,1.261c2.423,0,4.802-1.173,6.247-3.341C221.7,248.109,220.769,243.452,217.322,241.155z"/>
	</g>
</g>
<g>
	<g>
		<path d="M221.73,188.49c-4.142,0-7.5,3.358-7.5,7.5v17.135c0,4.142,3.358,7.5,7.5,7.5c4.142,0,7.5-3.358,7.5-7.5V195.99
			C229.23,191.848,225.872,188.49,221.73,188.49z"/>
	</g>
</g>
<g>
	<g>
		<path d="M255.915,308.437c-4.142,0-7.5,3.357-7.5,7.5c0,4.142,3.358,7.5,7.5,7.5H256c4.142,0,7.457-3.358,7.457-7.5
			C263.457,311.795,260.057,308.437,255.915,308.437z"/>
	</g>
</g>
<g>
	<g>
		<path d="M355.547,130.713c-2.929-2.93-7.678-2.929-10.606,0l-8.567,8.568c-2.929,2.929-2.929,7.678,0,10.606
			c1.464,1.465,3.384,2.197,5.303,2.197s3.839-0.732,5.303-2.197l8.567-8.568C358.476,138.39,358.476,133.641,355.547,130.713z"/>
	</g>
</g>
<g>
	<g>
		<path d="M389.818,190.687l-17.135-17.135c-2.929-2.929-7.678-2.929-10.606,0c-2.929,2.929-2.929,7.678,0,10.606l17.135,17.135
			c1.464,1.464,3.384,2.197,5.303,2.197s3.839-0.732,5.303-2.197C392.747,198.364,392.747,193.615,389.818,190.687z"/>
	</g>
</g>
<g>
	<g>
		<path d="M406.953,302.065c-2.928-2.928-7.677-2.928-10.606,0L379.212,319.2c-2.929,2.929-2.929,7.678,0,10.606
			c1.464,1.464,3.384,2.197,5.303,2.197s3.839-0.732,5.303-2.197l17.135-17.135C409.882,309.742,409.882,304.993,406.953,302.065z"
			/>
	</g>
</g>
<g>
	<g>
		<path d="M333.109,282.733c-4.142,0-7.5,3.358-7.5,7.5c0,4.142,3.358,7.5,7.5,7.5h0.085c4.142,0,7.457-3.358,7.457-7.5
			C340.651,286.091,337.251,282.733,333.109,282.733z"/>
	</g>
</g>
<g>
	<g>
		<path d="M307.321,128.516c-4.142,0-7.5,3.358-7.5,7.5c0,4.142,3.358,7.5,7.5,7.5h0.085c4.142,0,7.458-3.358,7.458-7.5
			C314.864,131.874,311.463,128.516,307.321,128.516z"/>
	</g>
</g>
<g>
	<g>
		<path d="M204.509,94.245c-4.142,0-7.5,3.358-7.5,7.5c0,4.142,3.358,7.5,7.5,7.5h0.086c4.142,0,7.457-3.358,7.457-7.5
			C212.052,97.603,208.651,94.245,204.509,94.245z"/>
	</g>
</g>
<g>
	<g>
		<path d="M175.626,379.174l-8.567-8.567c-2.928-2.929-7.677-2.929-10.606,0c-2.929,2.929-2.929,7.678,0,10.606l8.567,8.567
			c1.464,1.464,3.384,2.197,5.303,2.197s3.839-0.732,5.303-2.197C178.555,386.851,178.555,382.102,175.626,379.174z"/>
	</g>
</g>
<g>
	<g>
		<path d="M110.351,222.76c-4.142,0-7.5,3.358-7.5,7.5v17.135c0,4.142,3.358,7.5,7.5,7.5c4.142,0,7.5-3.358,7.5-7.5V230.26
			C117.851,226.118,114.493,222.76,110.351,222.76z"/>
	</g>
</g>
<g>
</g>
<g>
</g>
<g>
</g>
<g>
</g>
<g>
</g>
<g>
</g>
<g>
</g>
<g>
</g>
<g>
</g>
<g>
</g>
<g>
</g>
<g>
</g>
<g>
</g>
<g>
</g>
<g>
</g>
</svg>
