<?xml version="1.0" encoding="iso-8859-1"?>
<!-- Generator: Adobe Illustrator 19.0.0, SVG Export Plug-In . SVG Version: 6.00 Build 0)  -->
<svg version="1.1" id="Capa_1" xmlns="http://www.w3.org/2000/svg" xmlns:xlink="http://www.w3.org/1999/xlink" x="0px" y="0px"
	 viewBox="0 0 512 512" style="enable-background:new 0 0 512 512;" xml:space="preserve">
<g>
	<g>
		<path d="M496.43,147.079c-6.556-4.009-14.135-6.223-20.961-9.706c-7.661-3.909-15.025-8.253-23.073-11.368
			c-19.241-7.446-39.985-12.056-59.882-17.46c-19.594-5.322-39.244-10.457-58.948-15.357c-23.479-5.84-46.998-11.514-70.478-17.351
			c-16.173-4.02-36.998-13.389-53.919-9.438c-26.122,6.099-40.744,30.993-44.831,56.181c-0.66,2.152-1.281,4.317-1.817,6.507
			c-3.74,15.276-3.741,29.367,3.746,40.322c-12.736-3.885-26.491-7.646-38.336-4.88c-26.122,6.098-40.744,30.993-44.831,56.181
			c-0.66,2.151-1.281,4.317-1.817,6.507c-3.533,14.429-3.687,27.782,2.611,38.452c-11.71-3.456-24.037-6.326-34.789-3.815
			c-26.122,6.099-40.744,30.993-44.831,56.181c-0.66,2.151-1.281,4.317-1.817,6.507c-5.441,22.22-2.969,41.932,18.947,53.133
			c19.823,10.131,42.504,10.478,63.913,14.726c37.014,7.346,73.791,19.411,109.986,30.011c18.96,5.552,37.622,12.093,56.706,17.217
			c14.697,3.946,34.263,9.862,49.403,5.231c29.011-8.875,48.829-41.83,50.446-70.691c0.679-12.13-3.034-22.422-12.489-29.568
			c13.202,3.467,28.509,6.716,40.868,2.935c29.011-8.875,48.829-41.83,50.446-70.691c0.747-13.348-3.799-24.485-15.494-31.636
			c-0.208-0.127-0.425-0.238-0.635-0.362c14.367,3.898,32.616,8.936,46.921,4.56c29.011-8.875,48.829-41.83,50.446-70.692
			C512.671,165.367,508.124,154.23,496.43,147.079z M480.836,152.649c4.132,1.766,8.233,3.653,11.56,6.623
			c2.398,2.14,3.96,4.816,4.908,7.802c-0.55,1.039-1.057,2.094-1.598,3.048c-0.426,0.751-0.854,1.512-1.288,2.272
			c-5.865,5.483-12.798,10.23-19.437,15.254C479.06,176.019,481.135,163.592,480.836,152.649z M311.816,101.595
			c21.83,5.286,43.671,10.537,65.454,16.018c-1.912,14.278-3.849,28.206-2.302,42.759c1.362,12.813,4.441,25.33,7.35,37.858
			c2.006,8.636,4.82,20.832,10.823,29.018c-7.968-2.489-15.874-5.189-23.75-7.873c-31.297-10.666-62.908-20.317-94.758-29.194
			c-19.612-5.466-38.884-8.571-58.789-12.465c-4.316-0.844-9.101-1.791-13.878-3.059c6.061-16.164,19.538-28.352,32.956-39.474
			c22.16-18.368,46.012-28.415,73.377-34.441C309.471,101.027,310.643,101.311,311.816,101.595z M293.731,258.502
			c1.362,12.813,4.441,25.33,7.35,37.858c2.005,8.635,4.82,20.832,10.823,29.018c-7.97-2.489-15.876-5.189-23.751-7.873
			c-31.298-10.666-62.908-20.317-94.758-29.194c-19.612-5.466-38.883-8.571-58.788-12.465c-4.317-0.845-9.101-1.791-13.878-3.059
			c6.061-16.164,19.537-28.352,32.956-39.474c22.16-18.368,46.012-28.415,73.377-34.441c1.172,0.284,2.345,0.568,3.517,0.853
			c21.83,5.285,43.671,10.537,65.454,16.018C294.121,230.021,292.184,243.949,293.731,258.502z M191.549,87.155
			c6.743-5.816,15.448-9.083,26.668-8.022c14.519,1.373,29.378,6.871,43.539,10.334c8.968,2.193,17.944,4.353,26.917,6.521
			c-22.551,5.245-44.458,20.234-60.71,33.909c-8.649,7.279-30.888,26.058-34.317,42.14c-11.52-4.315-21.26-11.471-21.798-24.977
			C170.964,124.871,177.555,103.258,191.549,87.155z M110.311,185.284c6.742-5.816,15.447-9.083,26.668-8.021
			c14.519,1.373,29.378,6.871,43.539,10.334c8.967,2.193,17.943,4.352,26.917,6.521c-22.551,5.245-44.459,20.234-60.71,33.91
			c-8.65,7.279-30.888,26.058-34.317,42.14c-11.52-4.315-21.26-11.471-21.799-24.977C89.726,223.001,96.317,201.388,110.311,185.284
			z M11.786,342.516c-0.885-22.19,5.706-43.803,19.7-59.906c6.743-5.816,15.447-9.083,26.668-8.022
			c14.519,1.374,29.378,6.871,43.539,10.334c8.968,2.193,17.944,4.353,26.917,6.521c-22.551,5.245-44.458,20.234-60.709,33.91
			c-8.65,7.279-30.888,26.058-34.317,42.14C22.064,363.178,12.324,356.022,11.786,342.516z M209.327,414.83
			c-31.298-10.666-62.908-20.317-94.758-29.194c-19.612-5.466-38.884-8.571-58.789-12.465c-4.317-0.844-9.101-1.791-13.878-3.059
			c6.061-16.164,19.538-28.352,32.956-39.474c22.16-18.368,46.012-28.415,73.377-34.441c1.172,0.284,2.345,0.568,3.517,0.852
			c21.83,5.285,43.671,10.537,65.454,16.018c-1.912,14.278-3.849,28.206-2.302,42.759c1.362,12.813,4.441,25.33,7.35,37.858
			c2.006,8.636,4.82,20.832,10.823,29.018C225.109,420.214,217.203,417.514,209.327,414.83z M255.002,428.779
			c-0.995-0.233-1.985-0.489-2.978-0.734c-0.153-0.197-0.343-0.38-0.586-0.533c-15.649-9.893-18.64-27.674-22.569-44.384
			c-2.921-12.421-5.731-24.925-6.435-37.706c-0.573-10.4,0.769-20.724,0.068-31.03c8.262,2.096,16.516,4.228,24.753,6.419
			c15.903,4.23,32.962,7.699,47.914,14.656c5.149,2.396,10.093,5.196,15.139,7.796c-13.146,6.041-23.224,21.151-27.948,33.361
			c-6.61,17.083-9.363,40.422,0.202,57.059C273.049,433.273,263.102,430.67,255.002,428.779z M287.083,429.52
			c-2.529-15.151-2.358-30.57,2.155-45.42c2.688-8.846,6.687-17.547,12.852-24.536c3.725-4.224,7.837-6.878,12.299-9.042
			c-2.228,14.934-5.727,28.588-10.781,42.166c-2.179,2.178-4.194,4.487-5.965,6.986C291.797,407.924,287.457,418.893,287.083,429.52
			z M330.97,398.622c-6.074,12.32-17.707,25.345-30.045,31.768c-2.481,1.291-5.183,2.108-8,2.631
			c2.917-12.838,6.829-25.159,16.767-34.789c8.83-8.556,21.431-13.359,28.534-23.552C337.396,383.33,334.048,392.379,330.97,398.622
			z M320.773,348.104c4.132,1.766,8.233,3.653,11.56,6.623c2.398,2.14,3.96,4.816,4.908,7.802c-0.55,1.039-1.057,2.094-1.598,3.048
			c-0.426,0.751-0.854,1.512-1.288,2.272c-5.865,5.483-12.798,10.23-19.437,15.254C318.996,371.473,321.072,359.047,320.773,348.104
			z M333.828,331.454c-0.996-0.233-1.985-0.489-2.978-0.734c-0.153-0.197-0.343-0.38-0.586-0.533
			c-15.649-9.893-18.64-27.674-22.57-44.385c-2.92-12.42-5.731-24.925-6.435-37.706c-0.573-10.4,0.769-20.723,0.068-31.03
			c8.262,2.096,16.515,4.228,24.753,6.419c15.903,4.23,32.962,7.699,47.914,14.655c5.148,2.396,10.093,5.196,15.139,7.796
			c-13.146,6.041-23.224,21.151-27.948,33.361c-6.609,17.083-9.363,40.422,0.202,57.058
			C351.875,335.948,341.928,333.345,333.828,331.454z M365.909,332.195c-2.529-15.151-2.358-30.57,2.155-45.42
			c2.689-8.846,6.688-17.547,12.852-24.536c3.725-4.224,7.837-6.878,12.299-9.042c-2.228,14.934-5.727,28.588-10.781,42.166
			c-2.18,2.178-4.194,4.487-5.965,6.986C370.622,310.599,366.283,321.568,365.909,332.195z M409.795,301.297
			c-6.074,12.32-17.707,25.345-30.045,31.768c-2.481,1.291-5.183,2.108-8,2.631c2.917-12.838,6.829-25.159,16.767-34.789
			c8.83-8.556,21.431-13.359,28.534-23.552C416.222,286.005,412.874,295.054,409.795,301.297z M416.066,265.204
			c-0.55,1.039-1.057,2.094-1.598,3.048c-0.426,0.751-0.854,1.512-1.288,2.272c-5.865,5.483-12.798,10.229-19.437,15.254
			c4.078-11.63,6.154-24.056,5.855-34.999c4.132,1.766,8.233,3.653,11.56,6.623C413.557,259.542,415.118,262.218,416.066,265.204z
			 M415.066,233.325c-0.995-0.232-1.985-0.489-2.977-0.734c-0.153-0.197-0.343-0.38-0.586-0.533
			c-15.649-9.893-18.64-27.674-22.569-44.384c-2.921-12.421-5.731-24.925-6.435-37.706c-0.573-10.4,0.769-20.724,0.068-31.03
			c8.262,2.096,16.516,4.228,24.753,6.419c15.903,4.23,32.962,7.699,47.914,14.656c5.149,2.396,10.093,5.196,15.139,7.796
			c-13.146,6.041-23.224,21.151-27.948,33.36c-6.61,17.083-9.363,40.422,0.202,57.059
			C433.113,237.818,423.166,235.216,415.066,233.325z M447.147,234.065c-2.529-15.151-2.358-30.57,2.156-45.42
			c2.688-8.846,6.687-17.547,12.852-24.536c3.725-4.224,7.837-6.878,12.299-9.042c-2.227,14.934-5.727,28.588-10.781,42.166
			c-2.179,2.178-4.194,4.487-5.964,6.986C451.86,212.469,447.521,223.439,447.147,234.065z M491.034,203.168
			c-6.074,12.32-17.708,25.345-30.046,31.767c-2.481,1.291-5.183,2.108-8,2.631c2.917-12.838,6.829-25.159,16.767-34.789
			c8.83-8.556,21.431-13.359,28.534-23.552C497.459,187.875,494.112,196.925,491.034,203.168z"/>
	</g>
</g>
<g>
</g>
<g>
</g>
<g>
</g>
<g>
</g>
<g>
</g>
<g>
</g>
<g>
</g>
<g>
</g>
<g>
</g>
<g>
</g>
<g>
</g>
<g>
</g>
<g>
</g>
<g>
</g>
<g>
</g>
</svg>
