<?xml version="1.0" encoding="UTF-8"?>
<svg xmlns="http://www.w3.org/2000/svg" id="Outline" viewBox="0 0 512 512" width="512" height="512"><path d="M468.964,228.708A72.014,72.014,0,0,0,360,148.122V128a8,8,0,0,0-8-8,71.889,71.889,0,0,0-59.476,31.413,71.908,71.908,0,0,0-89.709.587H184C91.364,152,16,227.364,16,320a71.531,71.531,0,0,0,21.083,50.917,72.28,72.28,0,0,0,41.946,20.534A74.318,74.318,0,0,0,88,392H424a72.081,72.081,0,0,0,72-72A167.005,167.005,0,0,0,468.964,228.708ZM456,208c0,1.071-.041,2.137-.1,3.2a168.371,168.371,0,0,0-81.934-52.808A56.043,56.043,0,0,1,456,208ZM344,152.766c-5.268-.5-10.6-.766-16-.766h-8c-2.472,0-4.928.065-7.375.171A55.892,55.892,0,0,1,344,136.57ZM248,152a55.791,55.791,0,0,1,26.018,6.4A168.371,168.371,0,0,0,192.1,211.2c-.06-1.063-.1-2.129-.1-3.2A56.063,56.063,0,0,1,248,152ZM146.024,345.125a55.943,55.943,0,0,1-16.517-28.285,71.392,71.392,0,0,0,22.152,9.284A55.547,55.547,0,0,1,146.024,345.125Zm30.69-112.746a72.17,72.17,0,0,0-38.372,15.971A8.015,8.015,0,0,0,136,248H114.034a151.46,151.46,0,0,1,66.121-64.079,71.949,71.949,0,0,0-1.117,44.783Q177.854,230.527,176.714,232.379ZM152.32,309.772A56.1,56.1,0,0,1,112.571,264h16.248A40.406,40.406,0,0,0,154.1,293.5Q152.822,301.517,152.32,309.772Zm5.125-32.249a24.265,24.265,0,0,1-12.176-13.941,56.114,56.114,0,0,1,21.717-12.918A166.69,166.69,0,0,0,157.445,277.523ZM48.4,359.6A55.639,55.639,0,0,1,32,320c0-81.087,63.824-147.544,143.874-151.782A168.092,168.092,0,0,0,80,320v55.426A56.2,56.2,0,0,1,48.4,359.6ZM96,376h0V320a152.818,152.818,0,0,1,4.815-38.115A72.219,72.219,0,0,0,112.056,301.3c-.033.9-.056,1.8-.056,2.7a71.939,71.939,0,0,0,24.761,54.34A55.836,55.836,0,0,1,96,376Zm328,0H141.207A71.9,71.9,0,0,0,168,320c0-83.813,68.187-152,152-152h8c83.813,0,152,68.187,152,152A56.063,56.063,0,0,1,424,376Z"/><circle cx="312" cy="336" r="8"/><circle cx="360" cy="336" r="8"/><circle cx="408" cy="336" r="8"/><circle cx="360" cy="288" r="8"/><circle cx="408" cy="288" r="8"/></svg>
