<svg id="Capa_1" enable-background="new 0 0 511.876 511.876" height="512" viewBox="0 0 511.876 511.876" width="512" xmlns="http://www.w3.org/2000/svg"><g><path d="m498.878 157.363c-.028-.164-.085-.316-.123-.477 6.672-26.383 6.614-44.151-.153-58.935-6.506-14.209-18.926-25.22-42.867-38.006-13.372-7.146-24.278-14.743-32.412-22.577-10.246-9.875-26.284-9.874-36.503-.007-8.172 7.857-19.079 15.456-32.417 22.583-9.962 5.32-17.714 10.204-23.89 15.07-6.281-4.932-14.102-9.831-23.904-15.066-13.357-7.135-24.261-14.732-32.409-22.583-10.244-9.865-26.287-9.864-36.517.001-8.135 7.838-19.039 15.436-32.405 22.58-9.963 5.318-17.715 10.202-23.889 15.068-6.281-4.929-14.104-9.826-23.914-15.063-13.402-7.169-24.298-14.766-32.399-22.593-10.25-9.855-26.288-9.851-36.514.007-5.379 5.186-12.085 10.339-19.932 15.316-3.498 2.219-4.535 6.853-2.316 10.351 2.218 3.497 6.852 4.534 10.351 2.316 8.697-5.517 16.203-11.298 22.309-17.184 4.322-4.167 11.368-4.164 15.693-.006 9.086 8.779 21.109 17.197 35.739 25.023 33.946 18.124 45.388 32.009 37.796 70.213-53.865 1.1-107.654 3.512-161.196 7.236-8.123-33.042-5.789-51.649 23.691-70.231 3.504-2.208 4.554-6.84 2.345-10.344-2.208-3.504-6.838-4.555-10.344-2.345-17.417 10.979-27.181 22.09-31.66 36.029-4.374 13.615-3.733 30.113 2.083 53.146-.038.16-.095.312-.123.476-17.333 102.812-17.333 207.073 0 309.884.575 3.411 3.408 5.986 6.858 6.234 78.326 5.622 157.203 8.433 236.081 8.433s157.755-2.811 236.081-8.433c3.45-.248 6.283-2.823 6.858-6.234 17.333-102.809 17.333-207.07.002-309.882zm-472.049 8.309c152.062-10.635 306.156-10.635 458.219 0 2.528 15.6 4.645 31.232 6.362 46.887-156.302-4.848-314.642-4.848-470.944 0 1.718-15.654 3.835-31.287 6.363-46.887zm-7.886 61.94c157.301-4.921 316.689-4.921 473.99 0 1.728 18.576 2.89 37.178 3.479 55.79-159.62-1.183-321.327-1.183-480.948 0 .59-18.612 1.751-37.214 3.479-55.79zm-3.825 70.793c159.847-1.188 321.792-1.188 481.64 0 .141 9.266.141 18.533 0 27.799-159.847 1.188-321.793 1.188-481.64 0-.141-9.266-.141-18.533 0-27.799zm346.354-225.23c14.554-7.777 26.58-16.188 35.757-25.012 4.319-4.17 11.355-4.167 15.687.007 9.132 8.795 21.16 17.208 35.752 25.006 35.894 19.168 46.766 33.587 36.189 77.454-43.994-3.06-88.156-5.234-132.39-6.522 3.769-20.535 2.463-35.67-4.031-48.29-1.869-3.632-4.14-7.048-6.917-10.347 5.188-3.881 11.695-7.887 19.953-12.296zm-162.253 22.455c-1.853-3.563-4.094-6.918-6.823-10.159 5.186-3.881 11.692-7.886 19.95-12.293 14.589-7.798 26.615-16.212 35.747-25.011 4.326-4.171 11.369-4.168 15.703.002 9.144 8.809 21.17 17.223 35.747 25.01 33.97 18.143 45.427 32.099 37.725 70.521-44.556-1.093-89.171-1.287-133.749-.583 3.569-20.128 2.178-35.027-4.3-47.487zm-172.39 363.308c-2.528-15.599-4.645-31.231-6.362-46.885 78.352 2.428 157.268 3.657 235.918 3.657 44.765 0 89.449-.394 133.876-1.184 4.142-.074 7.439-3.491 7.366-7.632-.074-4.142-3.507-7.423-7.632-7.366-122.903 2.185-247.7 1.329-371.052-2.525-1.729-18.578-2.89-37.182-3.48-55.796 79.811.592 160.138.894 240.477.894 80.336 0 160.662-.302 240.471-.894-.59 18.615-1.751 37.221-3.48 55.801-24.804.772-49.353 1.422-73.065 1.931-4.141.088-7.426 3.518-7.337 7.659.088 4.087 3.428 7.339 7.495 7.339.054 0 .109 0 .164-.002 23.126-.496 47.044-1.125 71.219-1.872-1.717 15.651-3.834 31.279-6.361 46.875-152.061 10.635-306.155 10.635-458.217 0z"/><path d="m467.724 277.875c1.987 0 3.972-.786 5.446-2.343l.366-.387c2.849-3.007 2.719-7.754-.288-10.603-3.007-2.847-7.754-2.72-10.603.289l-.366.387c-2.849 3.007-2.719 7.754.288 10.603 1.45 1.372 3.305 2.054 5.157 2.054z"/><path d="m474.385 253.648c1.985 0 3.969-.784 5.443-2.339l.367-.387c2.85-3.005 2.724-7.752-.281-10.603-3.005-2.85-7.753-2.726-10.604.281l-.367.387c-2.85 3.005-2.724 7.752.281 10.603 1.452 1.376 3.307 2.058 5.161 2.058z"/><path d="m449.435 260.542c1.985 0 3.969-.784 5.443-2.339l.367-.387c2.85-3.005 2.724-7.752-.281-10.603-3.006-2.85-7.752-2.726-10.604.281l-.367.387c-2.85 3.005-2.724 7.752.281 10.603 1.452 1.376 3.308 2.058 5.161 2.058z"/><path d="m86.16 376.38-.367.387c-2.849 3.008-2.719 7.754.288 10.603 1.45 1.374 3.305 2.055 5.156 2.055 1.988 0 3.972-.786 5.447-2.343l.367-.387c2.849-3.008 2.719-7.754-.288-10.603-3.008-2.848-7.755-2.719-10.603.288z"/><path d="m92.828 352.147-.367.387c-2.852 3.004-2.729 7.751.275 10.603 1.451 1.377 3.309 2.061 5.163 2.061 1.984 0 3.965-.783 5.44-2.336l.367-.387c2.852-3.004 2.729-7.751-.275-10.603-3.003-2.851-7.749-2.73-10.603.275z"/><path d="m67.876 359.044-.367.387c-2.851 3.005-2.725 7.752.281 10.603 1.451 1.376 3.307 2.058 5.159 2.058 1.986 0 3.969-.784 5.443-2.339l.367-.387c2.851-3.005 2.725-7.752-.281-10.603-3.005-2.852-7.753-2.724-10.602.281z"/></g></svg>