<?xml version="1.0" encoding="iso-8859-1"?>
<!-- Generator: Adobe Illustrator 19.0.0, SVG Export Plug-In . SVG Version: 6.00 Build 0)  -->
<svg version="1.1" id="Capa_1" xmlns="http://www.w3.org/2000/svg" xmlns:xlink="http://www.w3.org/1999/xlink" x="0px" y="0px"
	 viewBox="0 0 512 512" style="enable-background:new 0 0 512 512;" xml:space="preserve">
<g>
	<g>
		<g>
			<path d="M437.333,149.333V42.667C437.333,19.135,418.188,0,394.667,0H117.333C93.813,0,74.667,19.135,74.667,42.667v106.667
				C68.771,149.333,64,154.104,64,160v192c0,5.896,4.771,10.667,10.667,10.667v106.667c0,23.531,19.146,42.667,42.667,42.667
				h277.333c23.521,0,42.667-19.135,42.667-42.667V362.667c5.896,0,10.667-4.771,10.667-10.667V160
				C448,154.104,443.229,149.333,437.333,149.333z M96,42.667c0-11.76,9.563-21.333,21.333-21.333h277.333
				c11.771,0,21.333,9.573,21.333,21.333v106.667H96V42.667z M416,469.333c0,11.76-9.563,21.333-21.333,21.333H117.333
				c-11.771,0-21.333-9.573-21.333-21.333V362.667h320V469.333z M426.667,341.333H85.333V170.667h341.333V341.333z"/>
			<path d="M181.333,288c0,17.646,14.354,32,32,32c17.646,0,32-14.354,32-32v-42.667c0-17.646-14.354-32-32-32
				c-17.646,0-32,14.354-32,32V288z M202.667,245.333c0-5.885,4.792-10.667,10.667-10.667S224,239.448,224,245.333V288
				c0,5.885-4.792,10.667-10.667,10.667s-10.667-4.781-10.667-10.667V245.333z"/>
			<path d="M277.333,320c5.896,0,10.667-4.771,10.667-10.667v-32h21.333c5.896,0,10.667-4.771,10.667-10.667
				c0-5.896-4.771-10.667-10.667-10.667H288v-21.333h32c5.896,0,10.667-4.771,10.667-10.667s-4.771-10.667-10.667-10.667h-42.667
				c-5.896,0-10.667,4.771-10.667,10.667v85.333C266.667,315.229,271.438,320,277.333,320z"/>
			<path d="M373.333,320c17.646,0,32-14.354,32-32v-64c0-5.896-4.771-10.667-10.667-10.667S384,218.104,384,224v64
				c0,5.885-4.792,10.667-10.667,10.667s-10.667-4.781-10.667-10.667v-64c0-5.896-4.771-10.667-10.667-10.667
				c-5.896,0-10.667,4.771-10.667,10.667v64C341.333,305.646,355.688,320,373.333,320z"/>
			<path d="M106.667,234.667H128v74.667c0,5.896,4.771,10.667,10.667,10.667c5.896,0,10.667-4.771,10.667-10.667v-74.667h21.333
				c5.896,0,10.667-4.771,10.667-10.667s-4.771-10.667-10.667-10.667h-64C100.771,213.333,96,218.104,96,224
				S100.771,234.667,106.667,234.667z"/>
			<path d="M160,448c17.646,0,32-14.354,32-32c0-17.646-14.354-32-32-32s-32,14.354-32,32C128,433.646,142.354,448,160,448z
				 M160,405.333c5.875,0,10.667,4.781,10.667,10.667c0,5.885-4.792,10.667-10.667,10.667s-10.667-4.781-10.667-10.667
				C149.333,410.115,154.125,405.333,160,405.333z"/>
			<circle cx="202.667" cy="458.667" r="10.667"/>
			<path d="M352,42.667c-17.646,0-32,14.354-32,32c0,17.646,14.354,32,32,32c17.646,0,32-14.354,32-32
				C384,57.021,369.646,42.667,352,42.667z M352,85.333c-5.875,0-10.667-4.781-10.667-10.667C341.333,68.781,346.125,64,352,64
				s10.667,4.781,10.667,10.667C362.667,80.552,357.875,85.333,352,85.333z"/>
			<circle cx="373.333" cy="117.333" r="10.667"/>
			<circle cx="288" cy="96" r="10.667"/>
		</g>
	</g>
</g>
<g>
</g>
<g>
</g>
<g>
</g>
<g>
</g>
<g>
</g>
<g>
</g>
<g>
</g>
<g>
</g>
<g>
</g>
<g>
</g>
<g>
</g>
<g>
</g>
<g>
</g>
<g>
</g>
<g>
</g>
</svg>
