<svg id="icons" enable-background="new 0 0 64 64" height="512" viewBox="0 0 64 64" width="512" xmlns="http://www.w3.org/2000/svg"><path d="m32 31c7.72 0 14-6.28 14-14s-6.28-14-14-14-14 6.28-14 14 6.28 14 14 14zm0-26c6.617 0 12 5.383 12 12s-5.383 12-12 12-12-5.383-12-12 5.383-12 12-12z"/><path d="m49 47v-30c0-9.374-7.626-17-17-17s-17 7.626-17 17v30c0 9.374 7.626 17 17 17s17-7.626 17-17zm-17-45c8.271 0 15 6.729 15 15s-6.729 15-15 15-15-6.729-15-15 6.729-15 15-15zm13.779 24.917c-2.3 5.337-7.608 9.084-13.779 9.084s-11.479-3.747-13.779-9.084c3.09 4.281 8.107 7.083 13.779 7.083s10.689-2.802 13.779-7.083zm-13.779 11.084c6.489 0 12.137-3.657 15-9.017v14.016c0 8.271-6.729 15-15 15s-15-6.729-15-15v-14.016c2.863 5.36 8.511 9.017 15 9.017zm-13.778 14.918c3.091 4.28 8.107 7.081 13.778 7.081s10.688-2.801 13.778-7.081c-2.3 5.335-7.608 9.081-13.778 9.081s-11.478-3.746-13.778-9.081z"/><path d="m32 55.002c3.309 0 6-2.691 6-6 0-1.963-.951-3.703-2.413-4.799.256-.336.413-.75.413-1.203 0-.553-.448-.999-1.001-.999s-1 .448-1.001 1h-.998v-2c0-.553-.447-1-1-1s-1 .447-1 1v2h-1c0-.553-.447-1-1-1s-1 .447-1 1c0 .453.157.867.412 1.203-1.461 1.095-2.412 2.835-2.412 4.798 0 3.309 2.691 6 6 6zm0-10c2.206 0 4 1.794 4 4s-1.794 4-4 4-4-1.794-4-4 1.794-4 4-4z"/></svg>